#N canvas 2 23 554 536 10;
#X obj 1 0 cnv 15 552 40 empty \$0-pddp.cnv.header addlist2table 3
12 0 18 -204280 -1 0;
#X obj 1 302 cnv 3 550 3 empty \$0-pddp.cnv.inlets inlets 8 12 0 13
-228856 -1 0;
#X obj 1 380 cnv 3 550 3 empty \$0-pddp.cnv.outlets outlets 8 12 0
13 -228856 -1 0;
#X obj 79 311 cnv 17 3 65 empty \$0-pddp.cnv.let.0 0 5 9 0 16 -228856
-162280 0;
#X text 193 221 see also:;
#N canvas 0 22 450 300 (subpatch) 0;
#X array lista 16 float 0;
#X coords 0 10 15 0 100 70 1 0 0;
#X restore 370 98 graph;
#X text 99 310 list;
#X text 99 330 set;
#X text 169 330 - "set table" sets the destination list.;
#X text 169 310 - list.;
#X text 169 476 - list to write to by default.;
#X msg 50 177 set lista;
#X text 51 156 you can set the list to write to;
#X msg 60 200 set otra-lista;
#N canvas 0 22 450 300 (subpatch) 0;
#X array otra-lista 16 float 0;
#X coords 0 10 15 0 100 70 1 0 0;
#X restore 370 198 graph;
#X msg 29 97 1 0 1 0 1 0 1 0 1 0 1;
#X text 2 23 adds a list to content in a table;
#X text 27 77 send a list to add to existing content;
#X obj 29 241 addlist2table lista;
#X msg 41 127 1 0 1 0 1 0 1 0;
#X obj 1 505 cnv 15 552 21 empty \$0-pddp.cnv.footer empty 20 12 0
14 -228856 -66577 0;
#X obj 1 458 cnv 3 550 3 empty \$0-pddp.cnv.argument arguments 8 12
0 13 -228856 -1 0;
#X text 335 506 angelfaraldo@gmail.com \, 2015-2016;
#X obj 79 389 cnv 17 3 65 empty \$0-pddp.cnv.let.0 0 5 9 0 16 -228856
-162280 0;
#X text 82 476 1) list name;
#X obj 193 236 pddp/helplink zexy/tabdump;
#X obj 7 506 pddp/pddplink https://github.com/angelfaraldo/pd-symbolic
;
#X connect 11 0 18 0;
#X connect 13 0 18 0;
#X connect 15 0 18 0;
#X connect 19 0 18 0;
