#N canvas -1 23 294 320 10;
#X obj 51 107 t f f;
#X obj 66 80 t f f;
#X obj 66 31 inlet;
#X obj 117 224 pack;
#X obj 78 199 f;
#X obj 117 246 outlet;
#X obj 33 140 != -1000;
#X obj 33 164 sel 1;
#X obj 66 55 unpack;
#X connect 0 0 6 1;
#X connect 0 1 6 0;
#X connect 1 0 0 0;
#X connect 1 1 4 1;
#X connect 2 0 8 0;
#X connect 3 0 5 0;
#X connect 4 0 3 0;
#X connect 6 0 7 0;
#X connect 7 0 4 0;
#X connect 8 0 1 0;
#X connect 8 1 3 1;