#N canvas 0 23 555 543 10;
#X obj 1 0 cnv 15 552 40 empty \$0-pddp.cnv.header change-fist 3 12
0 18 -204280 -1 0;
#X obj 1 302 cnv 3 550 3 empty \$0-pddp.cnv.inlets inlets 8 12 0 13
-228856 -1 0;
#X obj 1 380 cnv 3 550 3 empty \$0-pddp.cnv.outlets outlets 8 12 0
13 -228856 -1 0;
#X obj 79 311 cnv 17 3 65 empty \$0-pddp.cnv.let.0 0 5 9 0 16 -228856
-162280 0;
#X text 311 187 see also:;
#X text 99 388 list;
#X obj 183 252 print;
#X msg 193 155 10 11;
#X msg 203 175 10 11;
#X msg 213 195 10 12;
#X msg 183 135 9 11;
#X text 99 310 list;
#X text 169 310 - two-element list.;
#X obj 183 225 change-first;
#X text 70 66 [change-first] works like pd's native object [change]
on packages of two floats. It will output the duple only if the first
element is different from the previous incoming package.;
#X text 2 23 outputs incoming list if first element differ;
#X text 169 388 - list (2 elements).;
#X obj 1 505 cnv 15 552 21 empty \$0-pddp.cnv.footer empty 20 12 0
14 -228856 -66577 0;
#X obj 1 458 cnv 3 550 3 empty \$0-pddp.cnv.argument arguments 8 12
0 13 -228856 -1 0;
#X text 335 506 angelfaraldo@gmail.com \, 2015-2016;
#X obj 79 389 cnv 17 3 65 empty \$0-pddp.cnv.let.0 0 5 9 0 16 -228856
-162280 0;
#X obj 372 187 pddp/helplink change;
#X obj 372 202 pddp/helplink change-any;
#X obj 7 506 pddp/pddplink https://github.com/angelfaraldo/pd-symbolic
;
#X connect 7 0 13 0;
#X connect 8 0 13 0;
#X connect 9 0 13 0;
#X connect 10 0 13 0;
#X connect 13 0 6 0;
