#N canvas 0 23 208 234 10;
#X obj 17 7 inlet;
#X obj 44 176 outlet;
#X obj 17 119 list;
#X obj 60 111 list split 1;
#X obj 17 156 t l l;
#X obj 60 134 + 12;
#X obj 60 156 list prepend;
#X obj 17 47 t l l b;
#X obj 17 67 list length;
#X obj 17 87 until;
#X obj 17 27 zexy/sort;
#X connect 0 0 10 0;
#X connect 2 0 4 0;
#X connect 3 0 5 0;
#X connect 3 1 6 1;
#X connect 4 0 3 0;
#X connect 4 1 1 0;
#X connect 5 0 6 0;
#X connect 6 0 2 1;
#X connect 7 0 8 0;
#X connect 7 1 2 1;
#X connect 7 2 6 1;
#X connect 8 0 9 0;
#X connect 9 0 2 0;
#X connect 10 0 7 0;
