#N canvas 29 294 482 268 10;
#X obj 190 198 outlet;
#X obj 11 74 loadbang;
#X obj 11 98 symbol \$1;
#X obj 11 120 sel majmin majmininv;
#X msg 11 144 0;
#X msg 69 144 1;
#X obj 11 174 s \$0-reduction_type;
#X obj 235 101 route 0 1 2;
#X obj 178 51 unpack s s;
#X obj 178 8 inlet;
#N canvas 227 69 938 566 majmin 0;
#X obj 34 13 inlet;
#X obj 34 57 route float;
#X obj 97 504 outlet;
#X msg 97 228 symbol maj;
#X msg 430 258 symbol min;
#X obj 775 190 sel sus4 7sus4 one-note;
#X obj 34 205 sel 5;
#X obj 430 139 sel min min(omit5) dim min7 min7(omit5) minM7 minM7(omit5)
min6 minAdd9 minAdd9(omit5) min9 min9(omit5) minAdd11 minAdd11(omit5)
;
#X obj 97 102 sel maj maj(omit5) aug 7(omit5) maj7 maj7(omit5) add9
add9(omit5) 9(omit5) maj9 maj9(omit5) add11 add11(omit5);
#X msg 410 410 symbol ambivalent;
#X obj 34 35 cyclone/fromsymbol;
#X obj 97 79 cyclone/tosymbol;
#X connect 0 0 10 0;
#X connect 1 0 6 0;
#X connect 1 1 11 0;
#X connect 3 0 2 0;
#X connect 4 0 2 0;
#X connect 5 0 9 0;
#X connect 5 1 9 0;
#X connect 5 2 9 0;
#X connect 6 0 9 0;
#X connect 6 1 3 0;
#X connect 7 0 4 0;
#X connect 7 1 4 0;
#X connect 7 2 4 0;
#X connect 7 3 4 0;
#X connect 7 4 4 0;
#X connect 7 5 4 0;
#X connect 7 6 4 0;
#X connect 7 7 4 0;
#X connect 7 8 4 0;
#X connect 7 9 4 0;
#X connect 7 10 4 0;
#X connect 7 11 4 0;
#X connect 7 12 4 0;
#X connect 7 13 4 0;
#X connect 7 14 5 0;
#X connect 8 0 3 0;
#X connect 8 1 3 0;
#X connect 8 2 3 0;
#X connect 8 3 3 0;
#X connect 8 4 3 0;
#X connect 8 5 3 0;
#X connect 8 6 3 0;
#X connect 8 7 3 0;
#X connect 8 8 3 0;
#X connect 8 9 3 0;
#X connect 8 10 3 0;
#X connect 8 11 3 0;
#X connect 8 12 3 0;
#X connect 8 13 7 0;
#X connect 9 0 2 0;
#X connect 10 0 1 0;
#X connect 11 0 8 0;
#X restore 235 123 pd majmin;
#X obj 190 153 pack s s;
#X text 11 233 angel.faraldo@upf.edu --- Barcelona \, 2015;
#X obj 316 51 r \$0-reduction_type;
#X obj 235 76 list prepend 0;
#X obj 178 30 jasch_lib/strtok :;
#X obj 190 176 zexy/list2symbol :;
#X connect 1 0 2 0;
#X connect 2 0 3 0;
#X connect 3 0 4 0;
#X connect 3 1 5 0;
#X connect 4 0 6 0;
#X connect 5 0 6 0;
#X connect 7 0 10 0;
#X connect 8 0 11 0;
#X connect 8 1 14 0;
#X connect 9 0 15 0;
#X connect 10 0 11 1;
#X connect 11 0 16 0;
#X connect 13 0 14 1;
#X connect 14 0 7 0;
#X connect 15 0 8 0;
#X connect 16 0 0 0;
