#N canvas 738 292 355 442 10;
#X obj 40 233 list;
#X obj 40 333 list prepend;
#X obj 173 91 list length;
#X obj 173 113 - 1;
#X obj 146 68 t l l;
#X obj 40 257 list split 1;
#X obj 146 46 sort;
#X obj 40 282 + 12;
#X obj 125 183 list;
#X obj 199 281 list prepend;
#X obj 199 208 list split 1;
#X obj 268 232 - 12;
#X obj 146 25 inlet;
#X obj 87 24 inlet;
#X obj 87 70 sel 1 0;
#X obj 199 385 outlet;
#X obj 87 49 >= 0;
#X connect 0 0 5 0;
#X connect 1 0 0 1;
#X connect 1 0 8 1;
#X connect 1 0 15 0;
#X connect 2 0 3 0;
#X connect 3 0 10 1;
#X connect 4 0 0 1;
#X connect 4 0 8 1;
#X connect 4 1 2 0;
#X connect 5 0 7 0;
#X connect 5 1 1 1;
#X connect 6 0 4 0;
#X connect 7 0 1 0;
#X connect 8 0 10 0;
#X connect 9 0 8 1;
#X connect 9 0 0 1;
#X connect 9 0 15 0;
#X connect 10 0 9 0;
#X connect 10 1 11 0;
#X connect 11 0 9 1;
#X connect 12 0 6 0;
#X connect 13 0 16 0;
#X connect 14 0 0 0;
#X connect 14 1 8 0;
#X connect 16 0 14 0;
