#N canvas 189 83 314 544 10;
#X obj 140 212 pack 0 0;
#X obj 165 256 t f b, f 12;
#X obj 17 46 inlet;
#X obj 146 407 list;
#X obj 146 429 outlet;
#X obj 17 89 route 0;
#X msg 17 68 \$3 \$1 \$2;
#X msg 128 120 \$2 \$3;
#X obj 128 163 t f f;
#X obj 140 190 == 0;
#X obj 128 141 unpack f f;
#X obj 29 201 pack 0 0;
#X obj 54 247 t f b, f 12;
#X obj 17 151 t f f;
#X obj 29 179 == 0;
#X obj 17 128 unpack f f;
#X obj 140 328 list length;
#X obj 140 305 t l l;
#X obj 140 233 route 1 0;
#X obj 29 316 list length;
#X obj 29 351 ==;
#X obj 29 374 sel 1;
#X obj 29 224 route 1 0;
#X text 128 97 notes on;
#X text 23 109 notes off;
#X text 16 463 https://github.com/angelfaraldo/pd-symbolic;
#X text 16 478 angel.faraldo@upf.edu ----- Barcelona \, 2015;
#X obj 140 281 add2list prepend;
#X obj 29 272 add2list prepend;
#X connect 0 0 18 0;
#X connect 1 0 27 0;
#X connect 1 1 27 1;
#X connect 2 0 6 0;
#X connect 3 0 4 0;
#X connect 5 0 15 0;
#X connect 5 1 7 0;
#X connect 6 0 5 0;
#X connect 7 0 10 0;
#X connect 8 0 9 1;
#X connect 8 1 9 0;
#X connect 9 0 0 0;
#X connect 10 0 8 0;
#X connect 10 1 0 1;
#X connect 11 0 22 0;
#X connect 12 0 28 0;
#X connect 12 1 28 1;
#X connect 13 0 14 1;
#X connect 13 1 14 0;
#X connect 14 0 11 0;
#X connect 15 0 13 0;
#X connect 15 1 11 1;
#X connect 16 0 20 1;
#X connect 17 0 16 0;
#X connect 17 1 3 1;
#X connect 18 0 27 0;
#X connect 18 1 1 0;
#X connect 19 0 20 0;
#X connect 20 0 21 0;
#X connect 21 0 3 0;
#X connect 22 0 28 0;
#X connect 22 1 12 0;
#X connect 27 0 17 0;
#X connect 28 0 19 0;
