#N canvas 624 114 486 639 10;
#X obj -115 -165 inlet;
#X obj -156 357 outlet;
#X obj 69 50 minmax;
#X obj 25 29 t l l;
#X obj -13 1 sort;
#X obj 69 73 -;
#X obj 69 95 abs;
#X obj 69 118 div 12;
#X obj -78 203 list split 1;
#X obj -44 229 list split 1;
#X obj -44 272 list prepend;
#X obj -10 251 route bang;
#X obj -78 298 list prepend;
#X obj -44 251 + 0;
#X obj 4 185 * 12;
#X obj -119 297 sort;
#X obj -78 -43 list;
#X obj 69 140 + 1;
#X obj -242 203 sort;
#X obj -227 -1 list;
#X obj -343 127 list prepend;
#X obj -343 46 sort -1;
#X obj -343 105 + 0;
#X obj -343 71 list split 1;
#X obj -288 -39 t b f;
#X obj -31 -82 inlet;
#X obj -115 -141 moses 1;
#X obj -262 72 * 12;
#X obj -288 -70 - 1;
#X floatatom 90 12 5 0 0 0 - - -;
#X floatatom -210 -57 5 0 0 0 - - -;
#X floatatom -24 -123 5 0 0 0 - - -;
#X floatatom -213 -145 5 0 0 0 - - -;
#X floatatom 38 5 5 0 0 0 - - -;
#X floatatom 66 181 5 0 0 0 - - -;
#X floatatom 121 123 5 0 0 0 - - -;
#X obj -76 -116 t b f;
#X connect 0 0 26 0;
#X connect 0 0 32 0;
#X connect 2 0 5 0;
#X connect 2 1 5 1;
#X connect 3 1 2 0;
#X connect 3 1 33 0;
#X connect 4 0 3 0;
#X connect 4 0 8 0;
#X connect 5 0 6 0;
#X connect 6 0 7 0;
#X connect 7 0 17 0;
#X connect 7 0 35 0;
#X connect 8 0 12 0;
#X connect 8 1 9 0;
#X connect 9 0 13 0;
#X connect 9 1 11 0;
#X connect 10 0 12 1;
#X connect 11 1 10 1;
#X connect 12 0 15 0;
#X connect 13 0 10 0;
#X connect 14 0 13 1;
#X connect 15 0 1 0;
#X connect 15 0 16 1;
#X connect 15 0 19 1;
#X connect 16 0 4 0;
#X connect 17 0 34 0;
#X connect 18 0 19 1;
#X connect 18 0 16 1;
#X connect 18 0 1 0;
#X connect 19 0 21 0;
#X connect 20 0 18 0;
#X connect 21 0 23 0;
#X connect 22 0 20 0;
#X connect 23 0 22 0;
#X connect 23 1 20 1;
#X connect 24 0 19 0;
#X connect 24 1 27 0;
#X connect 25 0 19 1;
#X connect 25 0 16 1;
#X connect 26 0 28 0;
#X connect 26 1 31 0;
#X connect 26 1 36 0;
#X connect 27 0 22 1;
#X connect 28 0 24 0;
#X connect 28 0 30 0;
#X connect 36 0 16 0;
#X connect 36 1 14 0;
