#N canvas 1337 408 377 491 10;
#X obj 16 34 inlet;
#X obj 41 112 *;
#X obj 16 142 pack 0 0;
#X obj 56 84 != 0;
#X obj 46 290 list-unique;
#X obj 16 167 route 1 2 3 4 5 6 7 8 9 10 11;
#X obj 46 268 pack 0 0 0 0 0 0 0 0 0 0 0;
#X obj 16 222 bondo 11 ------------------------------------;
#X obj 46 311 sort;
#X obj 46 333 list split 1;
#X obj 137 416 outlet;
#X obj 80 355 route bang;
#X obj 16 56 poly 11 1;
#X msg 80 377 -1;
#X connect 0 0 12 0;
#X connect 1 0 2 1;
#X connect 2 0 5 0;
#X connect 3 0 1 1;
#X connect 4 0 8 0;
#X connect 5 0 7 0;
#X connect 5 1 7 1;
#X connect 5 2 7 2;
#X connect 5 3 7 3;
#X connect 5 4 7 4;
#X connect 5 5 7 5;
#X connect 5 6 7 6;
#X connect 5 7 7 7;
#X connect 5 8 7 8;
#X connect 5 9 7 9;
#X connect 5 10 7 10;
#X connect 6 0 4 0;
#X connect 7 0 6 0;
#X connect 7 1 6 1;
#X connect 7 2 6 2;
#X connect 7 3 6 3;
#X connect 7 4 6 4;
#X connect 7 5 6 5;
#X connect 7 6 6 6;
#X connect 7 7 6 7;
#X connect 7 8 6 8;
#X connect 7 9 6 9;
#X connect 7 10 6 10;
#X connect 8 0 9 0;
#X connect 9 1 11 0;
#X connect 11 0 13 0;
#X connect 11 1 10 0;
#X connect 12 0 2 0;
#X connect 12 1 1 0;
#X connect 12 2 3 0;
#X connect 13 0 10 0;
