#N canvas 323 22 683 733 10;
#X obj 221 142 textfile;
#N canvas 597 471 322 250 read_dictionary 0;
#X msg 49 142 rewind;
#X obj 9 186 until;
#X obj 32 78 t b b b b;
#X obj 83 99 s \$0-clear;
#X obj 32 6 loadbang;
#X obj 42 28 inlet;
#X obj 36 164 r \$0-end_of_textfile;
#X obj 49 212 outlet;
#X obj 52 49 r \$0-reload;
#X obj 139 55 bng 15 250 50 0 empty empty empty 17 7 0 10 -262144 -1
-1;
#X msg 66 120 read ./chord-dictionary.txt;
#X connect 0 0 7 0;
#X connect 1 0 7 0;
#X connect 2 0 1 0;
#X connect 2 1 0 0;
#X connect 2 2 10 0;
#X connect 2 3 3 0;
#X connect 4 0 2 0;
#X connect 5 0 2 0;
#X connect 6 0 1 1;
#X connect 8 0 2 0;
#X connect 9 0 2 0;
#X connect 10 0 7 0;
#X restore 221 122 pd read_dictionary;
#X obj 266 162 s \$0-end_of_textfile;
#X obj 28 20 inlet;
#X obj 221 317 list split 1;
#X obj 286 365 r \$0-clear;
#X obj 290 550 r \$0-clear;
#X obj 145 362 f 0;
#X obj 118 340 t f b;
#X obj 175 555 + 1;
#X obj 169 599 list;
#X obj 175 576 t b f;
#X obj 118 427 route bang;
#X obj 175 450 t f b;
#X obj 231 418 f;
#X obj 276 406 list length;
#X obj 175 361 + 1;
#X obj 231 440 -;
#X msg 158 340 0;
#X obj 231 481 moses;
#X obj 231 461 * -1;
#X obj 231 550 outlet;
#X obj 231 528 f;
#X msg 258 505 0;
#X obj 392 136 midi2pc;
#X obj 398 514 list;
#X obj 398 490 t b f;
#X obj 431 514 + 1;
#X obj 440 565 +;
#X obj 392 179 t l l;
#N canvas 503 404 457 294 root 0;
#X obj 15 11 inlet;
#X obj 15 267 outlet;
#X obj 271 71 print ERROR;
#X msg 271 50 unrecognized pitch class;
#X msg 15 139 C;
#X msg 75 139 D;
#X msg 105 139 Eb;
#X msg 135 139 E;
#X msg 165 139 F;
#X msg 225 139 G;
#X msg 255 139 Ab;
#X msg 285 139 A;
#X msg 315 139 Bb;
#X msg 345 139 B;
#X obj 15 33 sel 0 1 2 3 4 5 6 7 8 9 10 11;
#X msg 45 139 C#;
#X msg 195 139 F#;
#X connect 0 0 14 0;
#X connect 3 0 2 0;
#X connect 4 0 1 0;
#X connect 5 0 1 0;
#X connect 6 0 1 0;
#X connect 7 0 1 0;
#X connect 8 0 1 0;
#X connect 9 0 1 0;
#X connect 10 0 1 0;
#X connect 11 0 1 0;
#X connect 12 0 1 0;
#X connect 13 0 1 0;
#X connect 14 0 4 0;
#X connect 14 1 15 0;
#X connect 14 2 5 0;
#X connect 14 3 6 0;
#X connect 14 4 7 0;
#X connect 14 5 8 0;
#X connect 14 6 16 0;
#X connect 14 7 9 0;
#X connect 14 8 10 0;
#X connect 14 9 11 0;
#X connect 14 10 12 0;
#X connect 14 11 13 0;
#X connect 14 12 3 0;
#X connect 15 0 1 0;
#X connect 16 0 1 0;
#X restore 280 680 pd root;
#X obj 138 248 t l b l;
#X obj 211 701 list prepend;
#X obj 221 572 list prepend;
#X obj 309 572 t l;
#X obj 267 64 sel -1;
#X msg 63 168 symbol -;
#X obj 329 822 loadbang;
#X obj 169 643 sel 0;
#X msg 169 664 symbol;
#X obj 392 116 chord-structure;
#X obj 193 385 add2list prepend;
#X obj 392 94 chord-unique;
#X obj 620 677 outlet;
#X obj 117 469 + 1;
#X obj 87 597 sel 2;
#X msg 87 425 0;
#X obj 87 469 f 0;
#X obj 87 620 symbol ???;
#X obj 510 574 mod 12;
#X obj 430 696 !=;
#X obj 440 612 t f f;
#N canvas 494 443 457 294 root 0;
#X obj 15 11 inlet;
#X obj 15 267 outlet;
#X obj 271 71 print ERROR;
#X msg 271 50 unrecognized pitch class;
#X msg 15 139 C;
#X msg 75 139 D;
#X msg 105 139 Eb;
#X msg 135 139 E;
#X msg 165 139 F;
#X msg 225 139 G;
#X msg 255 139 Ab;
#X msg 285 139 A;
#X msg 315 139 Bb;
#X msg 345 139 B;
#X obj 15 33 sel 0 1 2 3 4 5 6 7 8 9 10 11;
#X msg 45 139 C#;
#X msg 195 139 F#;
#X connect 0 0 14 0;
#X connect 3 0 2 0;
#X connect 4 0 1 0;
#X connect 5 0 1 0;
#X connect 6 0 1 0;
#X connect 7 0 1 0;
#X connect 8 0 1 0;
#X connect 9 0 1 0;
#X connect 10 0 1 0;
#X connect 11 0 1 0;
#X connect 12 0 1 0;
#X connect 13 0 1 0;
#X connect 14 0 4 0;
#X connect 14 1 15 0;
#X connect 14 2 5 0;
#X connect 14 3 6 0;
#X connect 14 4 7 0;
#X connect 14 5 8 0;
#X connect 14 6 16 0;
#X connect 14 7 9 0;
#X connect 14 8 10 0;
#X connect 14 9 11 0;
#X connect 14 10 12 0;
#X connect 14 11 13 0;
#X connect 14 12 3 0;
#X connect 15 0 1 0;
#X connect 16 0 1 0;
#X restore 510 676 pd root;
#X obj 510 721 makefilename /%s;
#X obj 430 743 symbol;
#X obj 477 743 symbol;
#X obj 430 718 sel 0 1;
#X obj 236 813 list append;
#X text 525 743 chord with inversions;
#X obj 29 880 symbol;
#X obj 29 903 outlet;
#X obj 28 43 t b a;
#X obj 118 274 chord-autorotate;
#X obj 118 405 zexy/listfind;
#X obj 398 536 zexy/packel;
#X obj 169 620 zexy/packel;
#X obj 236 863 zexy/list2symbol;
#X msg 329 843 symbol;
#X obj 255 341 list2int;
#X obj 118 318 list2int;
#X obj 28 87 iemlib/default 0;
#X obj 28 66 \$1;
#X obj 28 109 sel 0;
#X obj 55 131 delay;
#X obj 440 590 mod 12;
#X obj 392 158 zexy/sort;
#X obj 211 768 list prepend;
#X obj 292 705 r \$0-inv;
#X obj 211 789 route 0 1;
#X obj 280 747 iemlib/default 0;
#X obj 280 726 \$2;
#X obj 328 60 s \$0-inv;
#X obj 221 38 route bang float;
#X obj 328 38 route inv;
#X text 348 292 when dim or aug set the low note as tonic;
#X text 259 530 inversion;
#X text 613 653 root pc;
#X text 349 273 TODO: handle exceptions:;
#X text 348 309 inversions in chords larger than tetrads;
#X obj 307 725 loadbang;
#X text 114 641 for maj chord without type name, f 7;
#X text 131 804 type only;
#X obj 88 804 outlet;
#X obj 109 746 route float;
#X obj 99 770 makefilename %d;
#X obj 510 698 symbol;
#X obj 118 296 chord-structure;
#X text 372 346 do not allow inversions other than 0 \, 1 \, 2 \, 3!
;
#X connect 0 0 4 0;
#X connect 0 1 2 0;
#X connect 1 0 0 0;
#X connect 3 0 61 0;
#X connect 4 0 33 0;
#X connect 4 1 68 0;
#X connect 5 0 41 1;
#X connect 6 0 33 1;
#X connect 7 0 14 1;
#X connect 7 0 16 0;
#X connect 8 0 63 0;
#X connect 8 1 7 0;
#X connect 9 0 11 0;
#X connect 10 0 65 0;
#X connect 11 0 10 0;
#X connect 11 1 65 1;
#X connect 12 0 47 0;
#X connect 12 1 13 0;
#X connect 13 0 9 0;
#X connect 13 1 14 0;
#X connect 14 0 17 0;
#X connect 14 0 26 0;
#X connect 15 0 19 1;
#X connect 15 0 17 1;
#X connect 15 0 45 1;
#X connect 16 0 7 1;
#X connect 17 0 20 0;
#X connect 18 0 7 1;
#X connect 19 0 22 0;
#X connect 19 1 23 0;
#X connect 20 0 19 0;
#X connect 22 0 21 0;
#X connect 23 0 22 0;
#X connect 24 0 75 0;
#X connect 25 0 64 0;
#X connect 26 0 25 0;
#X connect 26 1 27 0;
#X connect 27 0 64 1;
#X connect 28 0 74 0;
#X connect 29 0 31 0;
#X connect 29 1 25 1;
#X connect 30 0 32 1;
#X connect 31 0 62 0;
#X connect 31 1 18 0;
#X connect 31 1 46 0;
#X connect 31 2 15 0;
#X connect 32 0 76 0;
#X connect 33 0 10 1;
#X connect 33 0 34 0;
#X connect 34 0 33 1;
#X connect 35 0 36 0;
#X connect 35 1 42 0;
#X connect 36 0 59 1;
#X connect 37 0 67 0;
#X connect 38 0 39 0;
#X connect 38 1 32 0;
#X connect 38 1 93 0;
#X connect 39 0 32 0;
#X connect 40 0 24 0;
#X connect 40 1 28 1;
#X connect 40 1 49 0;
#X connect 41 0 63 1;
#X connect 42 0 40 0;
#X connect 44 0 47 1;
#X connect 45 0 48 0;
#X connect 46 0 47 0;
#X connect 47 0 44 0;
#X connect 47 0 45 0;
#X connect 48 0 59 1;
#X connect 48 0 92 0;
#X connect 49 0 50 1;
#X connect 49 0 52 0;
#X connect 50 0 56 0;
#X connect 51 0 43 0;
#X connect 51 0 30 0;
#X connect 51 1 50 0;
#X connect 52 0 95 0;
#X connect 53 0 55 1;
#X connect 54 0 57 1;
#X connect 55 0 57 1;
#X connect 56 0 54 0;
#X connect 56 1 55 0;
#X connect 57 0 66 0;
#X connect 59 0 60 0;
#X connect 61 0 71 0;
#X connect 61 1 82 0;
#X connect 62 0 96 0;
#X connect 63 0 12 0;
#X connect 64 0 28 0;
#X connect 65 0 38 0;
#X connect 66 0 59 1;
#X connect 67 0 66 1;
#X connect 68 0 41 0;
#X connect 69 0 8 0;
#X connect 70 0 72 0;
#X connect 71 0 70 0;
#X connect 72 0 59 0;
#X connect 72 1 73 0;
#X connect 73 0 59 0;
#X connect 74 0 51 0;
#X connect 75 0 29 0;
#X connect 76 0 78 0;
#X connect 77 0 80 0;
#X connect 78 0 66 0;
#X connect 78 1 57 0;
#X connect 79 0 76 1;
#X connect 80 0 79 0;
#X connect 82 0 1 0;
#X connect 82 1 35 0;
#X connect 82 2 83 0;
#X connect 83 0 81 0;
#X connect 83 1 42 0;
#X connect 89 0 80 0;
#X connect 93 0 94 0;
#X connect 93 1 92 0;
#X connect 94 0 92 0;
#X connect 95 0 53 0;
#X connect 96 0 69 0;
