#N canvas 703 143 398 475 10;
#X msg 23 303 symbol \$1;
#X msg 146 192 next;
#X obj 146 240 t b p, f 11;
#X obj 146 173 until;
#X obj 80 117 + 1;
#X obj 146 152 t b f, f 7;
#X msg 185 192 traverse pd-\$1-data;
#X obj 146 131 \$2;
#N canvas 498 142 430 234 \$2-chord\$1 0;
#X obj 4 13 struct \$2-chord\$1 float x float y symbol name;
#X obj 30 110 drawsymbol name 5 25 999;
#X obj 30 52 inlet;
#X obj 87 53 r \$2-showchordname-\$1;
#X connect 2 0 1 0;
#X connect 3 0 1 0;
#X restore 242 130 pd \$2-chord\$1;
#X obj 146 217 pointer \$2-chord\$1;
#X obj 23 95 unpack s f;
#X obj 80 278 set \$2-chord\$1 x;
#X obj 23 49 r \$2-chordname-\$1;
#X obj 22 326 set -symbol \$2-chord\$1 name;
#X obj 80 161 + 4;
#X obj 80 137 * 26;
#X obj 23 70 t a b b, f 21;
#X msg 167 97 1;
#X connect 0 0 13 0;
#X connect 1 0 9 0;
#X connect 2 0 3 1;
#X connect 2 1 11 1;
#X connect 2 1 13 1;
#X connect 3 0 1 0;
#X connect 4 0 15 0;
#X connect 5 0 3 0;
#X connect 5 1 6 0;
#X connect 6 0 9 0;
#X connect 7 0 5 0;
#X connect 9 0 2 0;
#X connect 10 0 0 0;
#X connect 10 1 4 0;
#X connect 12 0 16 0;
#X connect 14 0 11 0;
#X connect 15 0 14 0;
#X connect 16 0 10 0;
#X connect 16 1 7 0;
#X connect 16 2 17 0;
#X connect 17 0 8 0;
