#N canvas 16 222 460 373 10;
#X obj 11 10 inlet;
#X obj 11 176 t l l;
#X obj 17 291 list;
#X obj 72 228 ==;
#X obj 72 247 sel 1;
#X obj 11 83 t l f b l;
#X obj 11 131 -;
#X obj 11 58 t l f;
#X obj 11 197 list length;
#X obj 87 152 list length;
#X obj 11 153 add2list;
#X obj 17 335 outlet;
#X text 82 35 classes are in asscending order.;
#X obj 196 75 outlet;
#X text 125 101 lowest (real) note in the chord;
#X obj 11 107 list-dripv;
#X obj 11 35 zexy/sort;
#X obj 17 311 zexy/sort;
#X connect 0 0 16 0;
#X connect 1 0 8 0;
#X connect 1 1 2 1;
#X connect 2 0 17 0;
#X connect 3 0 4 0;
#X connect 4 0 2 0;
#X connect 5 0 15 0;
#X connect 5 1 6 1;
#X connect 5 2 10 1;
#X connect 5 3 9 0;
#X connect 6 0 10 0;
#X connect 7 0 5 0;
#X connect 7 1 13 0;
#X connect 8 0 3 0;
#X connect 9 0 3 1;
#X connect 10 0 1 0;
#X connect 15 0 6 0;
#X connect 16 0 7 0;
#X connect 17 0 11 0;
