#N canvas 6 96 552 562 10;
#X obj 1 0 cnv 15 552 40 empty \$0-pddp.cnv.header chord-estimate 3
12 0 18 -204280 -1 0;
#X obj 1 302 cnv 3 550 3 empty \$0-pddp.cnv.inlets inlets 8 12 0 13
-228856 -1 0;
#X obj 1 380 cnv 3 550 3 empty \$0-pddp.cnv.outlets outlets 8 12 0
13 -228856 -1 0;
#X obj 79 311 cnv 17 3 65 empty \$0-pddp.cnv.let.0 0 5 9 0 16 -228856
-162280 0;
#X text 99 310 list;
#X obj 1 525 cnv 15 552 21 empty \$0-pddp.cnv.footer empty 20 12 0
14 -228856 -66577 0;
#X obj 1 458 cnv 3 550 3 empty \$0-pddp.cnv.argument arguments 8 12
0 13 -228856 -1 0;
#X text 335 526 angelfaraldo@gmail.com \, 2015-2016;
#X obj 79 389 cnv 17 3 65 empty \$0-pddp.cnv.let.0 0 5 9 0 16 -228856
-162280 0;
#X symbolatom 211 259 15 0 0 0 - - -, f 15;
#X msg 9 209 72 67 64 64 48 60 55;
#X msg 9 189 60 48 64 67 72 55;
#X floatatom 251 236 5 0 0 0 - - -, f 5;
#X floatatom 144 237 5 0 0 0 - - -, f 5;
#X msg 9 109 0 5 9;
#X msg 9 89 0 3 7;
#X msg 9 149 60 63 66;
#X text 309 259 chord name;
#X msg 9 169 67 71 74 65;
#X msg 9 129 4 7 10 12;
#X msg 274 165 bang;
#X text 314 167 bang to re-load the dictionary;
#X msg 9 49 0 1 2 3;
#X floatatom 292 212 5 0 0 0 - - -, f 5;
#X text 329 211 pitch class of root;
#X msg 9 69 0 2 4 6 8 10;
#X text 2 23 estimates chords from midi;
#X text 173 90 KNOWN ISSUE: with chords of 5 and more notes... the
inversions do not work properly.;
#X text 173 46 Estimates chord names with root \, type and inversion
from incoming lists. These are expected to represent either midi notes
or chord-structures.;
#X text 99 388 symbol;
#X obj 79 412 cnv 17 3 1 empty \$0-pddp.cnv.let.0 1 5 9 0 16 -228856
-162280 0;
#X obj 79 435 cnv 17 3 1 empty \$0-pddp.cnv.let.0 2 5 9 0 16 -228856
-162280 0;
#X text 99 411 float;
#X text 99 434 float;
#X text 169 434 - pitch class of root.;
#X text 169 411 - inversion.;
#X text 169 388 - chord symbol.;
#X text 99 330 bang;
#X text 169 310 - list (supposedly a chord or chord structure).;
#X text 169 330 - reloads chord dictionary (from textfile).;
#X obj 9 278 s chord;
#X text 53 88 chord-structures;
#X text 66 48 clusters;
#X text 69 148 with midi chords;
#X text 81 236 transpose;
#X obj 211 125 r chord;
#X text 89 474 1) float;
#X text 169 474 - optional. delay time to wait before reporting a chord.
;
#N canvas 106 529 751 401 more 0;
#X obj 149 36 notein;
#X symbolatom 149 234 15 0 0 0 - - -, f 15;
#X obj 161 90 noteout;
#X obj 149 65 pack 0 0 0;
#X obj 149 111 midi-noteson;
#X symbolatom 455 272 10 0 0 0 - - -, f 10;
#X obj 424 60 openpanel;
#X obj 424 39 bng 15 250 50 0 empty empty empty 17 7 0 10 -262144 -1
-1;
#X msg 424 83 read \$1;
#X obj 424 359 noteout;
#X msg 599 84 loop \$1;
#X obj 599 63 tgl 15 0 empty empty empty 17 7 0 10 -262144 -1 -1 0
1;
#X obj 539 63 tgl 15 0 empty empty empty 17 7 0 10 -262144 -1 -1 0
1;
#X msg 539 84 play \$1;
#X msg 491 84 flush;
#X floatatom 526 272 5 0 0 0 - - -, f 5;
#X msg 659 84 quantize \$1;
#X obj 659 65 tgl 15 0 empty empty empty 17 7 0 10 -262144 -1 -1 0
1;
#X obj 487 180 bng 15 250 50 0 empty empty empty 17 7 0 10 -262144
-1 -1;
#X text 508 178 done;
#X obj 424 158 midi-player;
#X obj 445 200 chord-make;
#X obj 459 224 print chord_aggregate;
#X obj 455 291 print chord-complete;
#X obj 445 334 print chord-reduced;
#X obj 445 313 chord-vocabulary majmin;
#X text 442 37 load a midi file and flush or play its contents.;
#X text 422 14 GET CHORDS FROM MIDIFILE;
#X text 149 12 LIVE CHORD ESTIMATOR;
#X symbolatom 76 280 48 0 0 0 - - -, f 48;
#X floatatom 93 260 5 0 0 0 - - -, f 5;
#X floatatom 59 300 5 0 0 0 - - -, f 5;
#X floatatom 254 201 5 0 0 0 - - -, f 5;
#X text 130 260 inversions not working always right;
#X floatatom 201 201 5 0 0 0 - - -, f 5;
#X obj 42 124 maxlib/chord;
#X text 294 201 pc of root;
#X text 96 300 pc of root;
#X msg 161 153 inv 1;
#X obj 161 134 tgl 15 0 empty empty empty 17 7 0 10 -262144 -1 -1 0
1;
#X obj 149 178 chord-estimate 100 0;
#X msg 206 153 bang;
#X obj 445 250 chord-estimate;
#X connect 0 0 3 0;
#X connect 0 1 3 1;
#X connect 0 2 3 2;
#X connect 3 0 2 0;
#X connect 3 0 4 0;
#X connect 3 0 35 0;
#X connect 4 0 40 0;
#X connect 5 0 23 0;
#X connect 6 0 8 0;
#X connect 7 0 6 0;
#X connect 8 0 20 0;
#X connect 10 0 20 0;
#X connect 11 0 10 0;
#X connect 12 0 13 0;
#X connect 13 0 20 0;
#X connect 14 0 20 0;
#X connect 16 0 20 0;
#X connect 17 0 16 0;
#X connect 20 0 9 0;
#X connect 20 1 21 0;
#X connect 20 3 18 0;
#X connect 21 0 22 0;
#X connect 21 0 42 0;
#X connect 25 0 24 0;
#X connect 35 1 31 0;
#X connect 35 2 29 0;
#X connect 35 3 30 0;
#X connect 38 0 40 0;
#X connect 39 0 38 0;
#X connect 40 0 1 0;
#X connect 40 1 34 0;
#X connect 40 2 32 0;
#X connect 41 0 40 0;
#X connect 42 0 5 0;
#X connect 42 0 25 0;
#X connect 42 1 15 0;
#X restore 437 11 pd more examples;
#X obj 7 526 pddp/pddplink https://github.com/angelfaraldo/pd-symbolic
;
#X obj 9 256 list-abs/list-apply + 0;
#X obj 465 275 pddp/helplink maxlib/chord;
#X text 402 275 see also:;
#X text 288 235 inversion (0 = root \, 1 = 1st inv \, etc);
#X msg 266 143 inv \$1;
#X text 89 494 2) boolean;
#X text 169 494 - optional. print chords with (1) or without (0) inversion.
;
#X text 315 143 output chord symbols with inversion;
#X obj 266 124 tgl 15 0 empty empty empty 17 7 0 10 -262144 -1 -1 0
1;
#X obj 211 188 chord-estimate;
#X connect 10 0 50 0;
#X connect 11 0 50 0;
#X connect 13 0 50 2;
#X connect 14 0 50 0;
#X connect 15 0 50 0;
#X connect 16 0 50 0;
#X connect 18 0 50 0;
#X connect 19 0 50 0;
#X connect 20 0 59 0;
#X connect 22 0 50 0;
#X connect 25 0 50 0;
#X connect 45 0 59 0;
#X connect 50 0 40 0;
#X connect 54 0 59 0;
#X connect 58 0 54 0;
#X connect 59 0 9 0;
#X connect 59 1 12 0;
#X connect 59 2 23 0;
