#N canvas 0 22 921 621 10;
#X floatatom 436 469 5 0 0 0 - - -;
#X obj 271 297 /;
#X obj 153 449 + 1;
#X obj 123 449 f 0;
#X msg 172 425 0;
#X msg 271 274 15000 \$1;
#X obj 150 501 sel 0 31;
#X obj 123 481 t f f;
#X obj 148 346 metro 125;
#X obj 271 251 r tempo;
#X obj 58 53 unpackOSC;
#X obj 123 420 t b;
#X floatatom 134 102 5 0 0 0 - - -;
#X obj 58 385 sel 0;
#X msg 68 410 0;
#X obj 133 546 s current_step;
#X obj 148 257 r play;
#X obj 174 371 r clock-mode;
#X obj 436 416 packOSC;
#X obj 436 446 udpsend;
#X obj 58 28 udpreceive 8000;
#X obj 123 395 multiplex;
#X obj 193 235 r clock-mode;
#X obj 148 286 f;
#X obj 193 257 t b f;
#X obj 220 289 sel 1;
#X obj -32 51 r clock-mode;
#X obj -5 114 - 1;
#X obj -5 137 abs;
#X obj -50 159 spigot 1;
#X obj -50 231 sel 1 0;
#X obj -50 291 prepend label;
#X obj -50 314 s gui-play;
#X msg -50 256 STOP;
#X msg -15 256 PLAY;
#X obj -40 206 s set-play;
#X msg -40 183 set \$1;
#X obj 356 87 sel 1 0;
#X obj 356 15 r play;
#X obj 356 147 prepend label;
#X obj 356 172 s gui-play;
#X msg 356 112 STOP;
#X msg 391 112 PLAY;
#X obj 408 88 loadbang;
#X msg 364 39 set \$1;
#X obj 364 62 s set-play;
#X obj 470 87 sel 1 0;
#X obj 470 167 prepend label;
#X obj 470 17 r clock-mode;
#X obj 470 192 s gui-clock;
#X msg 436 394 /setTempo \$1;
#X obj 58 77 routeOSC /status /step /tempoLive;
#X obj 436 360 spigot 0;
#X obj 545 239 r clock-mode;
#X obj 436 310 f;
#X obj 491 271 t b f;
#X obj 436 271 r tempo;
#X obj 518 293 - 1;
#X obj 518 313 abs;
#X obj 188 137 spigot 0;
#X obj 265 15 r clock-mode;
#X obj 265 36 - 1;
#X obj 265 56 abs;
#X msg 485 43 set \$1;
#X obj 485 66 s set-clock-mode;
#X obj 545 390 sel 0;
#X msg 470 139 INTERNAL;
#X obj 265 80 t b f;
#X obj 188 160 s set-tempo;
#X msg 535 139 EXT-SYNC;
#X obj -50 113 f;
#X obj -32 74 t b f;
#X obj 327 322 r play;
#X obj 327 351 spigot 0;
#X msg 327 378 /setTransport \$1;
#X obj 148 306 spigot 1;
#X floatatom 82 101 5 0 0 0 - - -;
#X obj 609 76 loadbang;
#X msg 545 412 disconnect \, connect localhost 8002;
#X obj 58 300 spigot 0;
#X obj 68 232 r clock-mode;
#X obj 68 253 - 1;
#X obj 68 273 abs;
#X obj 619 129 s set-clock-mode;
#X msg 619 106 1;
#X obj 669 195 r tempo;
#X obj 669 242 prepend label;
#X obj 669 218 tosymbol;
#X obj 669 265 s vis-tempo;
#X obj 188 111 f 125;
#X obj 150 523 midi_panic 1;
#X obj 48 546 midi_panic 1;
#X connect 1 0 8 1;
#X connect 2 0 3 1;
#X connect 3 0 2 0;
#X connect 3 0 7 0;
#X connect 4 0 3 1;
#X connect 5 0 1 0;
#X connect 6 0 90 0;
#X connect 6 1 4 0;
#X connect 7 0 15 0;
#X connect 7 1 6 0;
#X connect 8 0 21 1;
#X connect 9 0 5 0;
#X connect 10 0 51 0;
#X connect 11 0 3 0;
#X connect 13 0 14 0;
#X connect 13 0 91 0;
#X connect 14 0 3 1;
#X connect 16 0 23 0;
#X connect 17 0 21 2;
#X connect 18 0 19 0;
#X connect 19 0 0 0;
#X connect 20 0 10 0;
#X connect 21 0 11 0;
#X connect 22 0 24 0;
#X connect 23 0 75 0;
#X connect 24 0 23 0;
#X connect 24 1 25 0;
#X connect 24 1 75 1;
#X connect 25 1 8 0;
#X connect 26 0 71 0;
#X connect 27 0 28 0;
#X connect 28 0 29 1;
#X connect 29 0 30 0;
#X connect 29 0 36 0;
#X connect 30 0 33 0;
#X connect 30 1 34 0;
#X connect 31 0 32 0;
#X connect 33 0 31 0;
#X connect 34 0 31 0;
#X connect 36 0 35 0;
#X connect 37 0 41 0;
#X connect 37 1 42 0;
#X connect 38 0 37 0;
#X connect 38 0 44 0;
#X connect 39 0 40 0;
#X connect 41 0 39 0;
#X connect 42 0 39 0;
#X connect 43 0 42 0;
#X connect 44 0 45 0;
#X connect 46 0 66 0;
#X connect 46 1 69 0;
#X connect 47 0 49 0;
#X connect 48 0 46 0;
#X connect 48 0 63 0;
#X connect 50 0 18 0;
#X connect 51 0 23 1;
#X connect 51 0 70 0;
#X connect 51 0 76 0;
#X connect 51 0 79 0;
#X connect 51 1 12 0;
#X connect 51 1 21 0;
#X connect 51 2 89 0;
#X connect 52 0 50 0;
#X connect 53 0 55 0;
#X connect 53 0 65 0;
#X connect 54 0 52 0;
#X connect 55 0 54 0;
#X connect 55 1 57 0;
#X connect 56 0 54 0;
#X connect 57 0 58 0;
#X connect 58 0 52 1;
#X connect 58 0 73 1;
#X connect 59 0 68 0;
#X connect 60 0 61 0;
#X connect 61 0 62 0;
#X connect 62 0 67 0;
#X connect 63 0 64 0;
#X connect 65 0 78 0;
#X connect 66 0 47 0;
#X connect 67 0 89 0;
#X connect 67 1 59 1;
#X connect 69 0 47 0;
#X connect 70 0 29 0;
#X connect 71 0 70 0;
#X connect 71 1 27 0;
#X connect 72 0 73 0;
#X connect 73 0 74 0;
#X connect 74 0 18 0;
#X connect 75 0 8 0;
#X connect 75 0 13 0;
#X connect 77 0 84 0;
#X connect 77 0 66 0;
#X connect 78 0 19 0;
#X connect 79 0 13 0;
#X connect 80 0 81 0;
#X connect 81 0 82 0;
#X connect 82 0 79 1;
#X connect 84 0 83 0;
#X connect 85 0 87 0;
#X connect 86 0 88 0;
#X connect 87 0 86 0;
#X connect 89 0 59 0;
