#N canvas 92 129 756 559 10;
#X obj 72 79 d2l;
#X text 95 80 convert a 4 letter word to a list;
#X msg 72 53 abcd;
#X obj 72 100 l2s;
#X symbolatom 72 121 32 0 0 0 - - -;
#X obj 71 172 d22l;
#X text 100 172 convert a 2 letter word to a list;
#X obj 71 195 l2s;
#X symbolatom 71 216 32 0 0 0 - - -;
#X msg 71 148 ab;
#X obj 71 260 f2s2;
#X text 100 259 convert a float to a 2 letter word;
#X symbolatom 71 282 10 0 0 0 - - -;
#X floatatom 71 241 5 0 255 0 - - -;
#X obj 348 83 l2d;
#X text 374 81 convert a pattern to a 4 letter word;
#X obj 348 176 l2d;
#X text 372 175 convert a pattern to a 2 letter word;
#X symbolatom 349 293 10 0 0 0 - - -;
#X text 379 229 convert a pattern to a 1 letter word;
#X obj 349 233 p2w1;
#X text 379 242 this is optimized for the letters with higher values
to represent higher combos;
#X text 394 316 convert a 1 letter word to a pattern;
#X obj 366 317 w12p;
#X obj 366 336 l2s;
#X symbolatom 366 355 32 0 0 0 - - -;
#X floatatom 349 423 5 0 0 0 - - -;
#X obj 349 388 w12f;
#X obj 366 448 f2w1;
#X text 394 447 converta float to a 1 letter word;
#X symbolatom 366 470 10 0 0 0 - - -;
#X msg 349 212 0 0 1 0;
#X text 377 387 convert a 1 letter word to a float;
#X text 328 264 ____________________________________________________________
;
#X text 326 397 ____________________________________________________________
;
#X connect 0 0 3 0;
#X connect 2 0 0 0;
#X connect 3 0 4 0;
#X connect 5 0 7 0;
#X connect 7 0 8 0;
#X connect 9 0 5 0;
#X connect 10 0 12 0;
#X connect 13 0 10 0;
#X connect 18 0 23 0;
#X connect 18 0 27 0;
#X connect 20 0 18 0;
#X connect 23 0 24 0;
#X connect 24 0 25 0;
#X connect 26 0 28 0;
#X connect 27 0 26 0;
#X connect 28 0 30 0;
#X connect 31 0 20 0;
