#N canvas 390 70 611 474 10;
#N canvas 176 282 486 509 sortbasedonA 0;
#X obj 40 73 inlet;
#X text 35 59 list A;
#X obj 220 77 inlet;
#X text 215 63 list B;
#X obj 40 416 outlet;
#X text 29 433 list A sorted;
#X obj 188 424 outlet;
#X text 178 440 list B ordered acorrding to list A sorting;
#X obj 149 225 list;
#X obj 149 206 t b f;
#X obj 84 166 list split 1;
#X obj 84 189 t b f;
#X obj 110 244 list;
#X obj 149 283 list prepend;
#X obj 233 286 list;
#X obj 72 112 t b a b;
#X msg 288 222 bang;
#X obj 72 300 list;
#X obj 173 165 + 1;
#X text 40 16 sort two lists based on the ascending order of the one
on the left;
#X obj 40 94 zexy/sort;
#X obj 149 253 zexy/packel;
#X connect 0 0 20 0;
#X connect 2 0 8 1;
#X connect 8 0 21 0;
#X connect 9 0 8 0;
#X connect 9 1 21 1;
#X connect 10 0 11 0;
#X connect 10 1 12 1;
#X connect 11 0 12 0;
#X connect 11 1 18 0;
#X connect 12 0 10 0;
#X connect 13 0 14 0;
#X connect 13 0 17 1;
#X connect 14 0 13 1;
#X connect 15 0 17 0;
#X connect 15 1 10 0;
#X connect 15 2 16 0;
#X connect 16 0 13 1;
#X connect 17 0 6 0;
#X connect 18 0 9 0;
#X connect 20 0 4 0;
#X connect 20 1 15 0;
#X connect 21 0 13 0;
#X restore 40 73 pd sortbasedonA;
#X obj 67 160 list length;
#N canvas 722 377 450 300 ascedinglist 0;
#X obj 44 15 inlet;
#X obj 31 231 outlet;
#X obj 123 169 list;
#X obj 45 169 list prepend;
#X obj 44 86 t b f b;
#X obj 25 205 list;
#N canvas 829 499 450 300 for 0;
#X obj 34 13 inlet;
#X obj 46 253 outlet;
#X obj 46 48 t f b;
#X obj 46 75 until;
#X obj 54 108 f;
#X obj 91 109 + 1;
#X msg 99 70 0;
#X connect 0 0 2 0;
#X connect 2 0 3 0;
#X connect 2 1 6 0;
#X connect 3 0 4 0;
#X connect 4 0 5 0;
#X connect 4 0 1 0;
#X connect 5 0 4 1;
#X connect 6 0 4 1;
#X restore 45 111 pd for;
#X connect 0 0 4 0;
#X connect 2 0 3 1;
#X connect 3 0 2 0;
#X connect 3 0 5 1;
#X connect 4 0 5 0;
#X connect 4 1 6 0;
#X connect 4 2 3 1;
#X connect 5 0 1 0;
#X connect 6 0 3 0;
#X restore 67 179 pd ascedinglist;
#X obj 40 140 t a a;
#N canvas 598 353 450 388 addlist 0;
#X obj 76 27 inlet;
#X obj 89 102 list split 1;
#X obj 89 125 t b f;
#X obj 115 180 list;
#X obj 154 219 list prepend;
#X obj 238 222 list;
#X obj 77 48 t b a b;
#X msg 293 158 bang;
#X obj 77 236 list;
#X obj 171 162 + 1;
#X obj 77 259 outlet;
#X obj 243 25 inlet;
#X connect 0 0 6 0;
#X connect 1 0 2 0;
#X connect 1 1 3 1;
#X connect 2 0 3 0;
#X connect 2 1 9 0;
#X connect 3 0 1 0;
#X connect 4 0 5 0;
#X connect 4 0 8 1;
#X connect 5 0 4 1;
#X connect 6 0 8 0;
#X connect 6 1 1 0;
#X connect 6 2 7 0;
#X connect 7 0 4 1;
#X connect 8 0 10 0;
#X connect 9 0 4 0;
#X connect 11 0 9 1;
#X restore 67 199 pd addlist;
#X obj 191 162 loadbang;
#X msg 191 182 1;
#N canvas 596 358 450 388 addlist 0;
#X obj 76 27 inlet;
#X obj 89 102 list split 1;
#X obj 89 125 t b f;
#X obj 115 180 list;
#X obj 154 219 list prepend;
#X obj 238 222 list;
#X obj 77 48 t b a b;
#X msg 293 158 bang;
#X obj 77 236 list;
#X obj 171 162 + 1;
#X obj 77 259 outlet;
#X obj 243 25 inlet;
#X connect 0 0 6 0;
#X connect 1 0 2 0;
#X connect 1 1 3 1;
#X connect 2 0 3 0;
#X connect 2 1 9 0;
#X connect 3 0 1 0;
#X connect 4 0 5 0;
#X connect 4 0 8 1;
#X connect 5 0 4 1;
#X connect 6 0 8 0;
#X connect 6 1 1 0;
#X connect 6 2 7 0;
#X connect 7 0 4 1;
#X connect 8 0 10 0;
#X connect 9 0 4 0;
#X connect 11 0 9 1;
#X restore 300 131 pd addlist;
#X obj 357 92 loadbang;
#X msg 357 112 1;
#N canvas 594 363 450 388 sqrtlist 0;
#X obj 76 27 inlet;
#X obj 89 102 list split 1;
#X obj 115 180 list;
#X obj 154 219 list prepend;
#X obj 238 222 list;
#X obj 77 48 t b a b;
#X msg 293 158 bang;
#X obj 77 236 list;
#X obj 77 259 outlet;
#X obj 89 125 t b f f;
#X obj 171 162 *;
#X connect 0 0 5 0;
#X connect 1 0 9 0;
#X connect 1 1 2 1;
#X connect 2 0 1 0;
#X connect 3 0 4 0;
#X connect 3 0 7 1;
#X connect 4 0 3 1;
#X connect 5 0 7 0;
#X connect 5 1 1 0;
#X connect 5 2 6 0;
#X connect 6 0 3 1;
#X connect 7 0 8 0;
#X connect 9 0 2 0;
#X connect 9 1 10 0;
#X connect 9 2 10 1;
#X connect 10 0 3 0;
#X restore 255 249 pd sqrtlist;
#X obj 225 311 * 6;
#X obj 225 367 /;
#X obj 282 344 - 1;
#X obj 282 364 *;
#X obj 282 305 t f f f;
#X obj 282 325 *;
#X obj 255 268 t a a;
#X obj 282 286 list length;
#X obj 225 386 - 1;
#X obj 225 405 * -1;
#X obj 40 48 inlet;
#X obj 127 51 inlet;
#X text 34 33 list A;
#X text 124 35 list B;
#X obj 225 425 outlet;
#X text 203 43 calculate spearman's rank correlation between two lists
of same length;
#X obj 127 94 zexy/sort;
#X obj 178 114 zexy/sort;
#X obj 255 226 list-abs/list-sub;
#X obj 225 290 zexy/sum;
#X connect 0 0 3 0;
#X connect 0 1 27 0;
#X connect 1 0 2 0;
#X connect 2 0 4 0;
#X connect 3 1 1 0;
#X connect 4 0 29 0;
#X connect 5 0 6 0;
#X connect 6 0 4 1;
#X connect 7 0 29 1;
#X connect 8 0 9 0;
#X connect 9 0 7 1;
#X connect 10 0 17 0;
#X connect 11 0 12 0;
#X connect 12 0 19 0;
#X connect 13 0 14 0;
#X connect 14 0 12 1;
#X connect 15 0 16 0;
#X connect 15 1 16 1;
#X connect 15 2 14 1;
#X connect 16 0 13 0;
#X connect 17 0 30 0;
#X connect 17 1 18 0;
#X connect 18 0 15 0;
#X connect 19 0 20 0;
#X connect 20 0 25 0;
#X connect 21 0 0 0;
#X connect 22 0 0 1;
#X connect 27 1 28 0;
#X connect 28 1 7 0;
#X connect 29 0 10 0;
#X connect 30 0 11 0;
