#N canvas 528 336 450 300 10;
#X obj 23 13 inlet;
#X obj 23 62 t f b;
#X obj 23 88 until;
#X obj 96 125 + 1;
#X msg 77 91 0;
#X obj 62 151 outlet;
#X obj 23 36 route float;
#X obj 62 125 f 0;
#X connect 0 0 6 0;
#X connect 1 0 2 0;
#X connect 1 1 4 0;
#X connect 2 0 7 0;
#X connect 3 0 7 1;
#X connect 4 0 7 1;
#X connect 6 0 1 0;
#X connect 7 0 3 0;
#X connect 7 0 5 0;
