#N canvas 0 23 308 239 10;
#X obj 23 13 inlet;
#X obj 23 62 t f b;
#X obj 23 88 until;
#X obj 96 125 + 1;
#X obj 62 151 outlet;
#X obj 23 36 route float;
#X obj 77 97 \$1;
#X obj 62 125 f 0;
#X connect 0 0 5 0;
#X connect 1 0 2 0;
#X connect 1 1 6 0;
#X connect 2 0 7 0;
#X connect 3 0 7 1;
#X connect 5 0 1 0;
#X connect 6 0 7 1;
#X connect 7 0 3 0;
#X connect 7 0 4 0;
