#N canvas 5 23 554 542 10;
#X obj 1 0 cnv 15 552 40 empty \$0-pddp.cnv.header forloop 3 12 0 18
-204280 -1 0;
#X obj 1 302 cnv 3 550 3 empty \$0-pddp.cnv.inlets inlets 8 12 0 13
-228856 -1 0;
#X obj 1 380 cnv 3 550 3 empty \$0-pddp.cnv.outlets outlets 8 12 0
13 -228856 -1 0;
#X obj 79 311 cnv 17 3 65 empty \$0-pddp.cnv.let.0 0 5 9 0 16 -228856
-162280 0;
#X text 99 310 float;
#X text 99 388 float;
#X text 2 23 makes a classic "for" loop for convenience;
#X obj 88 199 print;
#X floatatom 88 144 5 0 0 0 - - -, f 5;
#X obj 308 199 print;
#X floatatom 308 144 5 0 0 0 - - -, f 5;
#X text 169 310 - number of iterations in the for-loop.;
#X text 82 476 1) float;
#X text 169 476 - (optional) sets the initial number of the counter.
;
#X text 169 388 - incremental sequence of integers starting at the
number specified in the creation argument (otherwise 0).;
#X obj 88 172 forloop;
#X text 85 116 zero-based sequence (default);
#X obj 308 172 forloop 10;
#X text 305 116 incremental sequence starting at 10;
#X obj 1 505 cnv 15 552 21 empty \$0-pddp.cnv.footer empty 20 12 0
14 -228856 -66577 0;
#X obj 1 458 cnv 3 550 3 empty \$0-pddp.cnv.argument arguments 8 12
0 13 -228856 -1 0;
#X text 335 506 angelfaraldo@gmail.com \, 2015-2016;
#X obj 79 389 cnv 17 3 65 empty \$0-pddp.cnv.let.0 0 5 9 0 16 -228856
-162280 0;
#X obj 7 506 pddp/pddplink https://github.com/angelfaraldo/pd-symbolic
;
#X connect 8 0 15 0;
#X connect 10 0 17 0;
#X connect 15 0 7 0;
#X connect 17 0 9 0;
