#N canvas 568 97 495 368 10;
#X obj 120 193 + 1;
#X obj 92 194 f 1;
#X msg 107 168 1;
#X obj 72 171 bang;
#X obj -44 207 list append;
#X obj 29 207 t l;
#X obj -65 240 list;
#X obj -19 242 list split 1;
#X obj -19 273 outlet;
#X obj -65 -1 inlet;
#X obj 92 218 outlet;
#X text -57 337 angel.faraldo@upf.edu \, 2015;
#X obj 49 297 print listdir;
#X msg -57 20 bang;
#X obj 40 66 tosymbol;
#X obj -5 111 t s b;
#X msg 49 263 NO MORE FILES MATCHING CRITERIA \, click on path message
to init list.;
#X text -19 19 "bang" to retrieve filenames individually;
#X obj -65 43 route bang refresh;
#X obj 106 66 loadbang;
#X obj -13 65 bang;
#X obj -5 90 symbol \$1;
#X obj -44 136 folder_list;
#X connect 0 0 1 1;
#X connect 1 0 0 0;
#X connect 1 0 10 0;
#X connect 2 0 1 1;
#X connect 3 0 1 0;
#X connect 4 0 5 0;
#X connect 4 0 6 1;
#X connect 5 0 4 1;
#X connect 6 0 7 0;
#X connect 7 0 8 0;
#X connect 7 1 6 1;
#X connect 7 2 16 0;
#X connect 9 0 18 0;
#X connect 13 0 18 0;
#X connect 14 0 21 0;
#X connect 15 0 22 0;
#X connect 15 1 2 0;
#X connect 15 1 4 1;
#X connect 16 0 12 0;
#X connect 18 0 6 0;
#X connect 18 1 20 0;
#X connect 18 2 14 0;
#X connect 19 0 21 0;
#X connect 20 0 21 0;
#X connect 21 0 15 0;
#X connect 22 0 3 0;
#X connect 22 0 4 0;
