#N canvas 213 114 467 273 10;
#X msg 7 40 bang;
#X msg 16 62 refresh;
#X text 68 61 "refresh" to get list of files and init;
#X text 50 38 "bang" to retrieve filenames individually;
#X floatatom 100 156 5 0 0 0 - - -;
#X text 140 158 files with matching extension in selected folder;
#X symbolatom 7 183 70 0 0 0 - - -;
#X obj 357 217 folder_list;
#X text 292 216 see also:;
#X text 6 210 https://github.com/angelfaraldo/pd-symbolic;
#X text 6 225 angel.faraldo@upf.edu ----- Barcelona \, 2015;
#X text 34 107 (note the asterisk to find all files with a given extension.
;
#X text 38 90 argument: folder to look for files.;
#X obj 7 133 get_files ./*.pd;
#X text 11 -12 gets all the files in a folder that match the selected
criteria and outputs them as a symbol one-by-one.;
#X connect 0 0 13 0;
#X connect 1 0 13 0;
#X connect 13 0 6 0;
#X connect 13 1 4 0;
