#N canvas 429 125 255 370 10;
#X obj 44 15 inlet;
#X obj 16 83 t f f;
#X obj 48 116 - 0;
#X msg 63 87 0;
#X obj 44 35 t l b l;
#X obj 189 161 length;
#X obj 189 181 - 1;
#X obj 83 184 t l l;
#X obj 89 309 list;
#X obj 83 205 length;
#X obj 174 236 ==;
#X obj 174 255 sel 1;
#X obj 89 331 outlet;
#X obj 83 161 add2list prepend;
#X obj 48 137 sel 0;
#X msg 98 114 clear;
#X obj 16 62 drip;
#X connect 0 0 4 0;
#X connect 1 0 2 1;
#X connect 1 1 2 0;
#X connect 2 0 14 0;
#X connect 3 0 2 1;
#X connect 4 0 16 0;
#X connect 4 1 3 0;
#X connect 4 1 15 0;
#X connect 4 2 5 0;
#X connect 5 0 6 0;
#X connect 6 0 10 1;
#X connect 7 0 9 0;
#X connect 7 1 8 1;
#X connect 8 0 12 0;
#X connect 9 0 10 0;
#X connect 10 0 11 0;
#X connect 11 0 8 0;
#X connect 13 0 7 0;
#X connect 14 1 13 0;
#X connect 15 0 13 0;
#X connect 16 0 1 0;
