#N canvas 251 171 983 740 10;
#X obj 343 153 * 1;
#X obj 328 181 * 1;
#X obj 308 153 != 0;
#X msg 451 261 clear;
#X msg 203 345 dump;
#X msg 275 242 0;
#X obj 286 265 + 1;
#X obj 260 265 f 0;
#X obj 260 152 t b f;
#X obj 291 287 pack 0 0 0 0;
#X obj 308 399 list prepend;
#X obj 308 421 list split 3;
#X obj 391 172 r \$0-reset;
#X obj 353 442 -;
#X obj 353 463 abs;
#X obj 363 505 t f f;
#X obj 308 546 list prepend;
#X obj 405 261 timer;
#X obj 308 526 list append;
#X obj 172 452 list split 1;
#X msg 172 475 remove \$1;
#X obj 368 261 timer;
#X obj 363 485 +;
#X obj 308 567 route 1 0;
#X obj 367 610 unpack f f f;
#X msg 286 311 const 0;
#X floatatom 436 652 5 0 0 0 - - -, f 5;
#X obj 367 651 t f f f;
#X obj 367 694 + 0.1;
#X msg 187 370 normalize;
#X obj 367 715 tabwrite \$0-profile;
#X obj 367 672 tabread \$0-profile;
#X obj 187 392 s \$0-profile;
#X obj 286 333 s \$0-profile;
#X obj 337 224 t f b b b;
#X obj 333 589 list split 1;
#X obj 172 316 t b b b l b;
#X obj 172 413 s \$0-estimate;
#X obj 22 6 inlet;
#N canvas 242 183 763 371 estimation 0;
#X obj 16 13 inlet;
#X obj 16 35 select 0 1 2 3 4 5 6 7 8 9 10 11 12 13 14 15 16 17 18
19 20 21 22 23;
#X msg 16 148 C;
#X msg 46 148 Db;
#X msg 76 148 D;
#X msg 106 148 Eb;
#X msg 136 148 E;
#X msg 166 148 F;
#X msg 196 148 F#;
#X msg 226 148 G;
#X msg 256 148 Ab;
#X msg 286 148 A;
#X msg 316 148 Bb;
#X msg 346 148 B;
#X msg 376 148 Cm;
#X msg 406 148 Dbm;
#X msg 436 148 Dm;
#X msg 466 148 Ebm;
#X msg 496 148 Em;
#X msg 525 147 Fm;
#X msg 556 148 F#m;
#X msg 586 148 Gm;
#X msg 616 148 Abm;
#X msg 646 148 Am;
#X msg 676 148 Bbm;
#X msg 705 147 Bm;
#X obj 16 295 outlet;
#X obj 16 273 cyclone/tosymbol;
#X connect 0 0 1 0;
#X connect 1 0 2 0;
#X connect 1 1 3 0;
#X connect 1 2 4 0;
#X connect 1 3 5 0;
#X connect 1 4 6 0;
#X connect 1 5 7 0;
#X connect 1 6 8 0;
#X connect 1 7 9 0;
#X connect 1 8 10 0;
#X connect 1 9 11 0;
#X connect 1 10 12 0;
#X connect 1 11 13 0;
#X connect 1 12 14 0;
#X connect 1 13 15 0;
#X connect 1 14 16 0;
#X connect 1 15 17 0;
#X connect 1 16 18 0;
#X connect 1 17 19 0;
#X connect 1 18 20 0;
#X connect 1 19 21 0;
#X connect 1 20 22 0;
#X connect 1 21 23 0;
#X connect 1 22 24 0;
#X connect 1 23 25 0;
#X connect 2 0 27 0;
#X connect 3 0 27 0;
#X connect 4 0 27 0;
#X connect 5 0 27 0;
#X connect 6 0 27 0;
#X connect 7 0 27 0;
#X connect 8 0 27 0;
#X connect 9 0 27 0;
#X connect 10 0 27 0;
#X connect 11 0 27 0;
#X connect 12 0 27 0;
#X connect 13 0 27 0;
#X connect 14 0 27 0;
#X connect 15 0 27 0;
#X connect 16 0 27 0;
#X connect 17 0 27 0;
#X connect 18 0 27 0;
#X connect 19 0 27 0;
#X connect 20 0 27 0;
#X connect 21 0 27 0;
#X connect 22 0 27 0;
#X connect 23 0 27 0;
#X connect 24 0 27 0;
#X connect 25 0 27 0;
#X connect 27 0 26 0;
#X restore 594 433 pd estimation;
#X obj 535 265 distance-euclidean;
#X obj 637 22 r \$0-estimate;
#X obj 665 241 key-profiles;
#X obj 535 91 list-autorotate;
#X obj 622 144 bang;
#X obj 622 165 t b b;
#X obj 637 45 t b b b b;
#X obj 587 298 tgl 15 0 empty empty empty 17 7 0 10 -262144 -1 -1 0
1;
#X obj 587 319 sel 0;
#X obj 662 375 list split 1;
#X obj 662 353 list;
#X obj 632 299 add2list prepend;
#X obj 594 456 outlet;
#N canvas 0 50 450 278 (subpatch) 0;
#X array \$0-profile 12 float 1;
#A 0 0.6 0 1 0 0 0 0 0.2 0 0.2 0 0;
#X coords 0 1 11 0 100 70 1 0 0;
#X restore 253 662 graph;
#N canvas 629 302 345 364 midi-voices 0;
#X obj 34 294 outlet;
#X obj 84 294 outlet;
#X obj 134 294 outlet;
#X obj 34 107 pack 0 0 0;
#X obj 46 61 mod 12;
#X text 105 76 no voice stealing:;
#X text 105 86 longer voices are more important.;
#X obj 34 152 midi-note-duration;
#X obj 34 256 unpack 0 0 0;
#X obj 46 84 poly 5 0;
#X obj 34 128 route 1 2 3 4 5;
#X text 165 147 5 voices...;
#X obj 58 40 unpack;
#X obj 58 18 inlet;
#X obj 51 172 midi-note-duration;
#X obj 61 192 midi-note-duration;
#X obj 71 212 midi-note-duration;
#X obj 81 232 midi-note-duration;
#X connect 3 0 10 0;
#X connect 4 0 9 0;
#X connect 7 0 8 0;
#X connect 8 0 0 0;
#X connect 8 1 1 0;
#X connect 8 2 2 0;
#X connect 9 0 3 0;
#X connect 9 1 3 1;
#X connect 9 2 3 2;
#X connect 10 0 7 0;
#X connect 10 1 14 0;
#X connect 10 2 15 0;
#X connect 10 3 16 0;
#X connect 10 4 17 0;
#X connect 12 0 4 0;
#X connect 12 1 9 1;
#X connect 13 0 12 0;
#X connect 14 0 8 0;
#X connect 15 0 8 0;
#X connect 16 0 8 0;
#X connect 17 0 8 0;
#X restore 260 117 pd midi-voices;
#X obj 66 71 s \$0-reset;
#X obj 23 27 prepend list;
#X obj 23 49 route list bang;
#X obj 689 434 + 1;
#X obj 662 398 t f f;
#X obj 689 456 outlet;
#X obj 198 117 s \$0-velw;
#X obj 165 138 s \$0-durw;
#X obj 117 159 s \$0-timew;
#X obj 366 104 r \$0-velw;
#X obj 368 129 r \$0-durw;
#X obj 457 590 r \$0-timelenght;
#X obj 411 482 r \$0-timelenght;
#X obj 70 180 s \$0-timelenght;
#X obj 457 611 iemlib/default 10000;
#X obj 411 504 iemlib/default 10000;
#X obj 390 525 > \$2;
#X obj 436 631 / \$2;
#X msg 649 212 \$1-minor;
#X msg 715 108 \$1-major;
#X obj 715 85 symbol \$1;
#X obj 649 189 symbol \$1;
#X obj 854 61 r \$0-model;
#X obj 23 203 s \$0-model;
#X obj 515 69 zexy/tabdump \$0-profile;
#X obj 622 123 iemlib/once;
#X obj 632 319 zexy/sort;
#X obj 338 373 cyclone/coll;
#C restore;
#X obj 854 83 cyclone/tosymbol;
#X obj 23 90 route profile timelenght timew durw velw;
#X connect 0 0 1 1;
#X connect 1 0 34 0;
#X connect 2 0 1 0;
#X connect 3 0 82 0;
#X connect 4 0 82 0;
#X connect 5 0 7 1;
#X connect 6 0 7 1;
#X connect 7 0 6 0;
#X connect 7 0 9 0;
#X connect 8 0 7 0;
#X connect 8 1 9 1;
#X connect 9 0 36 0;
#X connect 10 0 11 0;
#X connect 11 0 18 0;
#X connect 11 1 13 0;
#X connect 12 0 3 0;
#X connect 12 0 5 0;
#X connect 12 0 21 0;
#X connect 13 0 14 0;
#X connect 14 0 22 0;
#X connect 15 0 18 1;
#X connect 15 1 71 0;
#X connect 16 0 23 0;
#X connect 17 0 22 1;
#X connect 18 0 16 0;
#X connect 19 0 20 0;
#X connect 20 0 82 0;
#X connect 21 0 9 3;
#X connect 21 0 13 1;
#X connect 22 0 15 0;
#X connect 23 0 19 0;
#X connect 23 1 35 0;
#X connect 24 0 27 0;
#X connect 24 2 72 0;
#X connect 25 0 33 0;
#X connect 27 0 31 0;
#X connect 27 2 30 1;
#X connect 28 0 30 0;
#X connect 29 0 32 0;
#X connect 31 0 28 0;
#X connect 34 0 9 2;
#X connect 34 1 21 1;
#X connect 34 2 17 0;
#X connect 34 3 17 1;
#X connect 35 1 24 0;
#X connect 36 0 37 0;
#X connect 36 1 29 0;
#X connect 36 2 4 0;
#X connect 36 3 82 0;
#X connect 36 4 25 0;
#X connect 38 0 56 0;
#X connect 39 0 52 0;
#X connect 40 0 51 0;
#X connect 41 0 46 0;
#X connect 42 0 40 1;
#X connect 43 0 40 0;
#X connect 43 1 47 0;
#X connect 43 1 80 0;
#X connect 44 0 45 0;
#X connect 45 0 79 0;
#X connect 45 1 76 0;
#X connect 46 0 79 0;
#X connect 46 1 80 1;
#X connect 46 2 75 0;
#X connect 46 3 51 1;
#X connect 47 0 48 0;
#X connect 48 0 50 0;
#X connect 49 0 59 0;
#X connect 50 0 49 0;
#X connect 51 0 81 0;
#X connect 54 0 8 0;
#X connect 54 1 2 0;
#X connect 54 2 0 0;
#X connect 56 0 57 0;
#X connect 57 0 84 0;
#X connect 57 1 55 0;
#X connect 58 0 60 0;
#X connect 59 0 39 0;
#X connect 59 1 58 0;
#X connect 64 0 2 1;
#X connect 65 0 0 1;
#X connect 66 0 69 0;
#X connect 67 0 70 0;
#X connect 69 0 72 1;
#X connect 70 0 71 1;
#X connect 71 0 16 1;
#X connect 72 0 26 0;
#X connect 73 0 42 0;
#X connect 74 0 42 0;
#X connect 75 0 74 0;
#X connect 76 0 73 0;
#X connect 77 0 83 0;
#X connect 79 0 43 0;
#X connect 80 0 44 0;
#X connect 81 1 50 1;
#X connect 82 0 10 0;
#X connect 82 1 10 1;
#X connect 83 0 75 1;
#X connect 83 0 76 1;
#X connect 84 0 78 0;
#X connect 84 1 68 0;
#X connect 84 2 63 0;
#X connect 84 3 62 0;
#X connect 84 4 61 0;
#X connect 84 5 54 0;
