#N canvas 634 399 312 206 10;
#X obj 58 113 list split 1;
#X obj 58 27 inlet;
#X obj 58 137 outlet;
#X obj 130 87 t l;
#X obj 58 87 list;
#X obj 127 138 outlet;
#X obj 134 49 inlet;
#X obj 58 49 route bang;
#X connect 0 0 2 0;
#X connect 0 1 3 0;
#X connect 0 2 5 0;
#X connect 1 0 7 0;
#X connect 3 0 4 1;
#X connect 4 0 0 0;
#X connect 6 0 4 1;
#X connect 7 0 4 0;
