#N canvas 1 23 555 544 10;
#X obj 1 0 cnv 15 552 40 empty \$0-pddp.cnv.header list-rotate 3 12
0 18 -204280 -1 0;
#X obj 1 302 cnv 3 550 3 empty \$0-pddp.cnv.inlets inlets 8 12 0 13
-228856 -1 0;
#X obj 1 380 cnv 3 550 3 empty \$0-pddp.cnv.outlets outlets 8 12 0
13 -228856 -1 0;
#X obj 79 311 cnv 17 3 65 empty \$0-pddp.cnv.let.0 0 5 9 0 16 -228856
-162280 0;
#X obj 1 505 cnv 15 552 21 empty \$0-pddp.cnv.footer empty 20 12 0
14 -228856 -66577 0;
#X obj 1 458 cnv 3 550 3 empty \$0-pddp.cnv.argument arguments 8 12
0 13 -228856 -1 0;
#X text 335 506 angelfaraldo@gmail.com \, 2015-2016;
#X obj 79 389 cnv 17 3 65 empty \$0-pddp.cnv.let.0 0 5 9 0 16 -228856
-162280 0;
#X text 99 388 list;
#X obj 180 233 print;
#X obj 180 104 bng 15 250 50 0 empty empty empty 17 7 0 10 -262144
-1 -1;
#X msg 243 180 1 2 3 4 5 6 7 8 9;
#X text 244 156 set the list to rotate;
#X text 4 23 circular rotation of the elements in a list.;
#X text 207 103 rotate (couterclockwise);
#X obj 180 207 list-rotate;
#X obj 79 341 cnv 17 3 12 empty \$0-pddp.cnv.let.0 1 5 9 0 16 -228856
-162280 0;
#X text 99 340 list;
#X text 169 340 - list to be reordered;
#X text 99 310 bang;
#X text 169 310 - rotate list one element (first rotation is original
list)!;
#X text 202 119 (first rotation is initial list);
#X text 169 388 - rotated list.;
#X obj 7 506 pddp/pddplink https://github.com/angelfaraldo/pd-symbolic
;
#X connect 10 0 15 0;
#X connect 11 0 15 1;
#X connect 15 0 9 0;
