#N canvas 191 456 410 270 10;
#X obj 15 147 print;
#X text 13 179 https://github.com/angelfaraldo/pd-symbolic;
#X text 13 194 angel.faraldo@upf.edu ----- Barcelona \, 2015;
#X obj 15 78 bng 15 250 50 0 empty empty empty 17 7 0 10 -262144 -1
-1;
#X msg 96 83 1 2 3 4 5 6 7 8 9;
#X text 97 59 set the list to rotate;
#X text 9 7 circular rotation of the elements in a list.;
#X obj 15 111 list_rotate -1;
#X text 9 27 argument sets initial rotation direction;
#X connect 3 0 7 0;
#X connect 4 0 7 1;
#X connect 7 0 0 0;
