#N canvas 0 23 554 544 10;
#X obj 1 0 cnv 15 552 40 empty \$0-pddp.cnv.header list-dripv 3 12
0 18 -204280 -1 0;
#X obj 1 302 cnv 3 550 3 empty \$0-pddp.cnv.inlets inlets 8 12 0 13
-228856 -1 0;
#X obj 1 380 cnv 3 550 3 empty \$0-pddp.cnv.outlets outlets 8 12 0
13 -228856 -1 0;
#X obj 79 311 cnv 17 3 65 empty \$0-pddp.cnv.let.0 0 5 9 0 16 -228856
-162280 0;
#X obj 1 505 cnv 15 552 21 empty \$0-pddp.cnv.footer empty 20 12 0
14 -228856 -66577 0;
#X obj 1 458 cnv 3 550 3 empty \$0-pddp.cnv.argument arguments 8 12
0 13 -228856 -1 0;
#X text 335 506 angelfaraldo@gmail.com \, 2015-2016;
#X obj 79 389 cnv 17 3 65 empty \$0-pddp.cnv.let.0 0 5 9 0 16 -228856
-162280 0;
#X msg 185 120 1 2 3 4 5 5 5 5 5 5 5 3 2 1;
#X text 99 310 list;
#X msg 195 140 1 1 1 2 2 3 3 3;
#X text 2 23 ouputs a list as individual elements.;
#X obj 185 163 list-dripv;
#X obj 185 189 print;
#X text 355 174 see also:;
#X text 125 79 similar to [zexy/drip] or [list-abs/list-drip];
#X text 169 310 - list.;
#X text 99 388 float;
#X text 169 388 - elements of incoming list \, one by one \, from left
to right.;
#X obj 357 189 pddp/helplink zexy/drip;
#X obj 356 206 pddp/helplink list-abs/list-drip;
#X obj 7 508 pddp/pddplink https://github.com/angelfaraldo/pd-symbolic
;
#X connect 8 0 12 0;
#X connect 10 0 12 0;
#X connect 12 0 13 0;
