#N canvas 277 276 326 409 10;
#X obj -263 339 outlet;
#X obj -263 -15 inlet;
#X obj -263 200 list;
#X obj -141 -16 inlet;
#X obj -141 10 route list;
#X obj -236 82 sel 1 -1;
#X obj -198 334 list prepend;
#X obj -114 130 list length;
#X obj -114 152 - 1;
#X obj -263 38 \$1;
#X obj -141 107 t l l;
#X msg -159 205 1;
#X obj -129 205 f;
#X obj -263 59 t b f;
#X obj -198 307 list split 1;
#X obj -263 11 route bang;
#X connect 1 0 15 0;
#X connect 2 0 0 0;
#X connect 2 0 14 0;
#X connect 3 0 4 0;
#X connect 4 0 10 0;
#X connect 5 0 11 0;
#X connect 5 1 12 0;
#X connect 6 0 2 1;
#X connect 7 0 8 0;
#X connect 8 0 12 1;
#X connect 9 0 13 0;
#X connect 10 0 2 1;
#X connect 10 1 7 0;
#X connect 11 0 14 1;
#X connect 12 0 14 1;
#X connect 13 0 2 0;
#X connect 13 1 5 0;
#X connect 14 0 6 0;
#X connect 14 1 6 1;
#X connect 15 0 9 0;
#X connect 15 1 9 0;
