#N canvas 117 480 344 188 10;
#X text 9 121 https://github.com/angelfaraldo/pd-symbolic;
#X text 9 136 angel.faraldo@upf.edu ----- Barcelona \, 2015;
#X obj 15 64 list2number;
#X floatatom 15 92 0 0 0 0 - - -;
#X msg 15 36 1 2 4 5 67;
#X text 13 12 converts numeric lists into a single number;
#X connect 2 0 3 0;
#X connect 4 0 2 0;
