#N canvas 17 30 289 273 10;
#X obj 117 97 list split 1;
#X obj 49 227 outlet;
#X obj 49 23 inlet;
#X obj 49 204 list;
#X obj 49 51 route bang;
#X obj 117 22 inlet;
#X obj 117 50 route list;
#X obj 117 175 list prepend;
#X connect 0 0 7 0;
#X connect 0 1 7 1;
#X connect 2 0 4 0;
#X connect 3 0 0 0;
#X connect 3 0 1 0;
#X connect 4 0 3 0;
#X connect 5 0 6 0;
#X connect 6 0 0 0;
#X connect 6 0 3 1;
#X connect 7 0 3 1;
