#N canvas -1 23 307 273 10;
#X obj 43 95 * 25;
#X obj 95 96 * 25;
#X msg 9 207 symbol \$1;
#X obj 9 9 r master-chord-fill-\$1;
#X obj 9 230 set -symbol mchord\$1 chordname;
#X obj 43 184 set mchord\$1 x dur;
#X msg 177 96 traverse pd-data;
#X obj 138 56 t b b, f 7;
#X msg 138 96 next;
#X obj 138 121 pointer mchord\$1;
#X obj 138 144 t b p, f 8;
#X obj 138 77 until;
#X obj 9 52 unpack s f f;
#X obj 43 74 + 1;
#X obj 9 30 t a b, f 22;
#X connect 0 0 5 0;
#X connect 1 0 5 1;
#X connect 2 0 4 0;
#X connect 3 0 14 0;
#X connect 6 0 9 0;
#X connect 7 0 11 0;
#X connect 7 1 6 0;
#X connect 8 0 9 0;
#X connect 9 0 10 0;
#X connect 10 0 11 1;
#X connect 10 1 5 2;
#X connect 10 1 4 1;
#X connect 11 0 8 0;
#X connect 12 0 2 0;
#X connect 12 1 13 0;
#X connect 12 2 1 0;
#X connect 13 0 0 0;
#X connect 14 0 12 0;
#X connect 14 1 7 0;
