#N canvas 786 195 328 320 10;
#X obj 53 141 * 25;
#X obj 114 142 * 25;
#X msg 19 253 symbol \$1;
#X msg 148 142 next;
#X obj 148 190 t b p, f 12;
#X obj 148 123 until;
#X obj 19 98 unpack s f f;
#X obj 53 120 + 1;
#X obj 19 60 t a b, f 22;
#N canvas 0 50 373 97 \$2-mchord\$1 0;
#X obj 5 28 filledpolygon 555 666 1 0 30 dur 30 dur 90 0 90;
#X obj 5 48 drawsymbol chordname 5 35 999;
#X obj 5 8 struct \$2-mchord\$1 float x float dur symbol chordname
;
#X restore 20 17 pd \$2-mchord\$1;
#X obj 19 39 r \$2-master-chord-fill-\$1;
#X obj 53 230 set \$2-mchord\$1 x dur;
#X obj 19 276 set -symbol \$2-mchord\$1 chordname;
#X obj 148 167 pointer \$2-mchord\$1;
#X obj 148 102 t b f, f 7;
#X msg 187 142 traverse pd-\$1-data;
#X obj 148 81 \$2;
#X connect 0 0 11 0;
#X connect 1 0 11 1;
#X connect 2 0 12 0;
#X connect 3 0 13 0;
#X connect 4 0 5 1;
#X connect 4 1 11 2;
#X connect 4 1 12 1;
#X connect 5 0 3 0;
#X connect 6 0 2 0;
#X connect 6 1 7 0;
#X connect 6 2 1 0;
#X connect 7 0 0 0;
#X connect 8 0 6 0;
#X connect 8 1 16 0;
#X connect 10 0 8 0;
#X connect 13 0 4 0;
#X connect 14 0 5 0;
#X connect 14 1 15 0;
#X connect 15 0 13 0;
#X connect 16 0 14 0;
