#N canvas 0 23 306 354 10;
#X obj 53 125 * 25;
#X obj 105 126 * 25;
#X msg 19 267 symbol \$1;
#X obj 19 39 r master-chord-fill-\$1;
#X obj 19 290 set -symbol mchord\$1 chordname;
#X obj 53 214 set mchord\$1 x dur;
#X msg 187 126 traverse pd-data;
#X obj 148 86 t b b, f 7;
#X msg 148 126 next;
#X obj 148 151 pointer mchord\$1;
#X obj 148 174 t b p, f 8;
#X obj 148 107 until;
#X obj 19 82 unpack s f f;
#X obj 53 104 + 1;
#X obj 19 60 t a b, f 22;
#N canvas 0 50 373 97 mchord\$1 0;
#X obj 5 28 filledpolygon 555 666 1 0 30 dur 30 dur 90 0 90;
#X obj 5 48 drawsymbol chordname 5 35 999;
#X obj 5 8 struct mchord\$1 float x float dur symbol chordname;
#X restore 20 17 pd mchord\$1;
#X connect 0 0 5 0;
#X connect 1 0 5 1;
#X connect 2 0 4 0;
#X connect 3 0 14 0;
#X connect 6 0 9 0;
#X connect 7 0 11 0;
#X connect 7 1 6 0;
#X connect 8 0 9 0;
#X connect 9 0 10 0;
#X connect 10 0 11 1;
#X connect 10 1 5 2;
#X connect 10 1 4 1;
#X connect 11 0 8 0;
#X connect 12 0 2 0;
#X connect 12 1 13 0;
#X connect 12 2 1 0;
#X connect 13 0 0 0;
#X connect 14 0 12 0;
#X connect 14 1 7 0;
