#N canvas 514 90 340 296 10;
#X obj 44 112 * 25;
#X obj 79 113 * 25;
#X msg 10 226 symbol \$1;
#X obj 54 10 r master-chord-fill-\$1;
#X obj 10 251 set -symbol mchord\$1 chordname;
#X obj 44 200 set mchord\$1 x dur;
#X msg 200 112 traverse pd-data;
#X obj 173 66 t b b;
#X msg 160 112 next;
#X obj 160 145 pointer mchord\$1;
#X obj 160 168 t b p;
#X obj 160 93 until;
#X obj 10 68 unpack s f f;
#X obj 44 91 + 1;
#X obj 54 32 t a b;
#X connect 0 0 5 0;
#X connect 1 0 5 1;
#X connect 2 0 4 0;
#X connect 3 0 14 0;
#X connect 6 0 9 0;
#X connect 7 0 11 0;
#X connect 7 1 6 0;
#X connect 8 0 9 0;
#X connect 9 0 10 0;
#X connect 10 0 11 1;
#X connect 10 1 5 2;
#X connect 10 1 4 1;
#X connect 11 0 8 0;
#X connect 12 0 2 0;
#X connect 12 1 13 0;
#X connect 12 2 1 0;
#X connect 13 0 0 0;
#X connect 14 0 12 0;
#X connect 14 1 7 0;
