#N canvas 786 195 326 266 10;
#X obj 80 126 * 25;
#X msg 115 142 next;
#X obj 115 193 t b p;
#X obj 115 123 until;
#N canvas 0 50 373 97 \$2-mchord\$1 0;
#X obj 5 8 struct \$2-mchord\$1 float x float dur;
#X obj 5 28 filledpolygon 555 666 1 0 40 dur 40 dur 90 0 90;
#X restore 20 17 pd \$2-mchord\$1;
#X obj 19 39 r \$2-master-chord-fill-\$1;
#X obj 19 215 set \$2-mchord\$1 x dur;
#X obj 115 170 pointer \$2-mchord\$1;
#X obj 115 102 t b f, f 7;
#X msg 154 142 traverse pd-\$1-data;
#X obj 115 81 \$2;
#X obj 19 125 * 25;
#X obj 19 104 + 1;
#X obj 19 82 unpack f f;
#X obj 19 60 t a b, f 16;
#X obj 80 150 - 5;
#X obj 19 149 + 3;
#X connect 0 0 15 0;
#X connect 1 0 7 0;
#X connect 2 0 3 1;
#X connect 2 1 6 2;
#X connect 3 0 1 0;
#X connect 5 0 14 0;
#X connect 7 0 2 0;
#X connect 8 0 3 0;
#X connect 8 1 9 0;
#X connect 9 0 7 0;
#X connect 10 0 8 0;
#X connect 11 0 16 0;
#X connect 12 0 11 0;
#X connect 13 0 12 0;
#X connect 13 1 0 0;
#X connect 14 0 13 0;
#X connect 14 1 10 0;
#X connect 15 0 6 1;
#X connect 16 0 6 0;
