#N canvas 771 260 326 266 10;
#X msg 128 142 next;
#X obj 128 193 t b p;
#X obj 128 123 until;
#N canvas 0 141 538 206 \$2-mchord\$1 1;
#X obj 5 8 struct \$2-mchord\$1 float x float dur;
#X obj 5 30 r \$2-master-chord-show;
#X obj 5 52 sel 64;
#X msg 5 78 0;
#X obj 37 78 sel \$1;
#X msg 37 101 1;
#X obj 5 123 filledpolygon 555 333 2 0 40 dur 40 dur 90 0 90;
#X connect 1 0 2 0;
#X connect 2 0 3 0;
#X connect 2 1 4 0;
#X connect 3 0 6 0;
#X connect 4 0 5 0;
#X connect 5 0 6 0;
#X restore 20 17 pd \$2-mchord\$1;
#X obj 19 39 r \$2-master-chord-fill-\$1;
#X obj 19 215 set \$2-mchord\$1 x dur;
#X obj 128 170 pointer \$2-mchord\$1;
#X obj 128 102 t b f, f 7;
#X msg 167 142 traverse pd-\$1-data;
#X obj 128 81 \$2;
#X obj 19 60 t a b, f 16;
#X obj 70 150 - 5;
#X obj 19 125 * 26;
#X obj 19 149 + 2;
#X obj 19 82 unpack f f;
#X obj 19 103 + 1.2;
#X obj 70 126 * 25.6;
#X connect 0 0 6 0;
#X connect 1 0 2 1;
#X connect 1 1 5 2;
#X connect 2 0 0 0;
#X connect 4 0 10 0;
#X connect 6 0 1 0;
#X connect 7 0 2 0;
#X connect 7 1 8 0;
#X connect 8 0 6 0;
#X connect 9 0 7 0;
#X connect 10 0 14 0;
#X connect 10 1 9 0;
#X connect 11 0 5 1;
#X connect 12 0 13 0;
#X connect 13 0 5 0;
#X connect 14 0 15 0;
#X connect 14 1 16 0;
#X connect 15 0 12 0;
#X connect 16 0 11 0;
