#N canvas 391 354 985 626 10;
#X obj 236 321 block~;
#X obj 326 126 samplerate~;
#X obj 281 93 loadbang;
#X obj 371 90 bng 15 250 50 0 empty empty empty 17 7 0 10 -262144 -1
-1;
#X floatatom 322 171 0 0 0 0 - - -;
#X obj 66 169 /;
#X obj 61 119 r \$0-tempo;
#X floatatom 164 65 5 0 0 0 - - -, f 5;
#X floatatom 164 84 5 0 0 0 - - -, f 5;
#X obj 78 209 * 0.001;
#X floatatom 78 240 5 0 0 0 - - -, f 5;
#X obj 219 229 * 44100;
#X floatatom 236 266 50 0 0 0 - - -, f 50;
#X msg 61 141 60000 \$1;
#X msg 236 293 set \$1 1 1;
#X obj 141 315 bang~;
#X obj 156 354 outlet;
#X obj 66 54 inlet;
#X obj 97 379 bng 15 250 50 0 empty empty empty 17 7 0 10 -262144 -1
-1;
#X obj 76 448 timer;
#X obj 77 422 t b b;
#X floatatom 77 489 5 0 0 0 - - -, f 5;
#X connect 1 0 4 0;
#X connect 1 0 11 1;
#X connect 2 0 1 0;
#X connect 3 0 1 0;
#X connect 5 0 9 0;
#X connect 6 0 13 0;
#X connect 7 0 8 0;
#X connect 7 0 13 0;
#X connect 9 0 10 0;
#X connect 9 0 11 0;
#X connect 11 0 12 0;
#X connect 12 0 14 0;
#X connect 13 0 5 0;
#X connect 14 0 0 0;
#X connect 15 0 16 0;
#X connect 15 0 18 0;
#X connect 17 0 13 0;
#X connect 18 0 20 0;
#X connect 19 0 21 0;
#X connect 20 0 19 0;
#X connect 20 1 19 1;
