#N canvas 418 375 450 300 10;
#X obj 26 95 midi_panic_all;
#X obj 26 72 bng 15 250 50 0 empty empty empty 17 7 0 10 -262144 -1
-1;
#X text 24 26 PANIC message (resets all midi voices) to all midi channels.
;
#X text 24 46 You still have to set the correct midi device.;
#X text 24 132 https://github.com/angelfaraldo/pd-symbolic;
#X text 24 147 angel.faraldo@upf.edu ----- Barcelona \, 2015;
#X connect 1 0 0 0;
