#N canvas -3 23 554 744 10;
#X obj 1 0 cnv 15 552 40 empty \$0-pddp.cnv.header midi-player 3 12
0 18 -204280 -1 0;
#X obj 1 502 cnv 3 550 3 empty \$0-pddp.cnv.inlets inlets 8 12 0 13
-228856 -1 0;
#X obj 1 580 cnv 3 550 3 empty \$0-pddp.cnv.outlets outlets 8 12 0
13 -228856 -1 0;
#X obj 79 511 cnv 17 3 65 empty \$0-pddp.cnv.let.0 0 5 9 0 16 -228856
-162280 0;
#X obj 1 705 cnv 15 552 21 empty \$0-pddp.cnv.footer empty 20 12 0
14 -228856 -66577 0;
#X obj 1 658 cnv 3 550 3 empty \$0-pddp.cnv.argument arguments 8 12
0 13 -228856 -1 0;
#X text 335 706 angelfaraldo@gmail.com \, 2015-2016;
#X obj 79 589 cnv 17 3 65 empty \$0-pddp.cnv.let.0 0 5 9 0 16 -228856
-162280 0;
#X obj 79 606 cnv 17 3 12 empty \$0-pddp.cnv.let.0 1 5 9 0 16 -228856
-162280 0;
#X obj 79 623 cnv 17 3 12 empty \$0-pddp.cnv.let.0 2 5 9 0 16 -228856
-162280 0;
#X text 99 511 selector;
#X text 99 590 midi data;
#X text 169 590 - quantized midi;
#X text 2 23 plays and gets info from midi files;
#X obj 26 183 openpanel;
#X obj 26 161 bng 15 250 50 0 empty empty empty 17 7 0 10 -262144 -1
-1;
#X msg 26 206 read \$1;
#X obj 25 476 noteout;
#X msg 165 191 loop \$1;
#X obj 165 170 tgl 15 0 empty empty empty 17 7 0 10 -262144 -1 -1 0
1;
#X obj 105 170 tgl 15 0 empty empty empty 17 7 0 10 -262144 -1 -1 0
1;
#X msg 105 191 play \$1;
#X msg 178 224 flush;
#X msg 178 248 panic;
#X floatatom 113 381 5 0 0 0 - - -, f 5;
#X floatatom 90 402 5 0 0 0 - - -, f 5;
#X text 218 248 all notes off;
#X floatatom 67 423 5 0 0 0 - - -, f 5;
#X msg 224 190 quantize \$1;
#X obj 224 172 tgl 15 0 empty empty empty 17 7 0 10 -262144 -1 -1 0
1;
#X text 305 190 default = 1;
#X floatatom 160 339 5 0 0 0 - - -, f 5;
#X text 196 338 tempo (bpm);
#X text 152 380 real duration (in ticks);
#X text 127 403 tentative length (to match complete beats!);
#X obj 46 447 print flush_midi_notes;
#X text 104 424 estimated beats (in quarter notes \, after rounding
up length);
#X text 220 225 flushes all midi-notes at once (via 2nd outlet);
#X obj 88 298 bng 15 250 50 0 empty empty empty 17 7 0 10 -262144 -1
-1;
#X text 108 297 FOURTH outlet sends a bang when the file ends;
#X text 82 475 FIRST outlet outputs midi notes in pd style;
#X obj 67 317 unpack 0 0 0 0 0;
#X text 172 317 THIRD outlet outputs temporal info:;
#X text 189 442 SECOND outlet flushes all midi-note information as
quadruplets containing: tick \, note \, vel \, channel;
#X floatatom 136 360 5 0 0 0 - - -, f 5;
#X text 175 359 ticks per quarternote;
#X obj 25 276 midi-player;
#X text 169 511 - takes different methods to adjust quantization and
transport.;
#X text 99 607 midi data;
#X text 169 607 - flushes all midi data in no-time.;
#X text 99 624 list;
#X text 169 624 - file info;
#X obj 79 640 cnv 17 3 12 empty \$0-pddp.cnv.let.0 3 5 9 0 16 -228856
-162280 0;
#X text 99 641 list;
#X text 169 641 - bang when file ends;
#X text 182 97 It filters out all non-note informations and only outputs
note information in pd midi style (triplets with note number \, velocity
and channel) automatically converting all note-off messages to note-on
messages with zero velocity!;
#X text 7 47 midi file player and analyzer based on [mrpeach/midifile].
It will force the content to adjust to full beats (quarter notes) and
it will quantize the content to semiquavers per default.;
#X obj 7 706 pddp/pddplink https://github.com/angelfaraldo/pd-symbolic
;
#X connect 14 0 16 0;
#X connect 15 0 14 0;
#X connect 16 0 46 0;
#X connect 18 0 46 0;
#X connect 19 0 18 0;
#X connect 20 0 21 0;
#X connect 21 0 46 0;
#X connect 22 0 46 0;
#X connect 23 0 46 0;
#X connect 28 0 46 0;
#X connect 29 0 28 0;
#X connect 41 0 27 0;
#X connect 41 1 25 0;
#X connect 41 2 24 0;
#X connect 41 3 44 0;
#X connect 41 4 31 0;
#X connect 46 0 17 0;
#X connect 46 1 35 0;
#X connect 46 2 41 0;
#X connect 46 3 38 0;
