#N canvas 762 349 259 268 10;
#X obj 36 49 unpack;
#X obj 93 160 timer;
#X obj 36 163 f;
#X obj 93 124 t b b;
#X obj 69 70 sel 0;
#X obj 52 108 bang;
#X obj 36 27 inlet;
#X obj 36 213 outlet;
#X obj 36 189 pack 0 0 0;
#X connect 0 0 2 1;
#X connect 0 1 4 0;
#X connect 1 0 8 2;
#X connect 2 0 8 0;
#X connect 3 0 2 0;
#X connect 3 1 1 1;
#X connect 4 0 3 0;
#X connect 4 1 5 0;
#X connect 4 1 8 1;
#X connect 5 0 1 0;
#X connect 6 0 0 0;
#X connect 8 0 7 0;
