#N canvas 464 196 635 562 10;
#X obj 46 14 inlet;
#X obj 137 238 /;
#X msg 137 216 60000 \$1;
#X obj 6 81 loadbang;
#X obj 183 69 t b f;
#X obj 137 194 * 8;
#X msg 210 156 2 \$1;
#X obj 210 90 log;
#X obj 210 113 / 0.693147;
#X obj 210 134 - 2;
#X obj 210 177 pow;
#X obj 227 368 until;
#X obj 279 113 unpack 0 0 0;
#X obj 279 143 pack;
#X obj 285 421 outlet;
#X obj 523 255 outlet;
#X obj 36 321 + 1;
#X obj 6 321 f 0;
#X obj 46 368 mod 1;
#X obj 73 343 max 1;
#X obj 51 413 sel 0;
#X msg 21 171 0;
#X obj 470 338 outlet;
#X obj 51 391 spigot 0;
#X obj 285 395 list append;
#X obj 30 470 dac~ 1 2;
#X msg 138 461 \; pd dsp 1;
#X obj 138 439 loadbang;
#X obj 6 278 metro 250;
#X obj 137 159 f 120;
#X msg 22 107 8;
#X obj 46 38 route bang click tempo quantize;
#X obj 279 368 zexy/fifop;
#X obj 51 440 zexy/dirac~;
#X connect 0 0 31 0;
#X connect 1 0 15 0;
#X connect 1 0 28 1;
#X connect 2 0 1 0;
#X connect 3 0 21 0;
#X connect 3 0 28 0;
#X connect 3 0 30 0;
#X connect 4 0 29 0;
#X connect 4 1 7 0;
#X connect 5 0 2 0;
#X connect 6 0 10 0;
#X connect 7 0 8 0;
#X connect 8 0 9 0;
#X connect 9 0 6 0;
#X connect 10 0 5 1;
#X connect 10 0 19 0;
#X connect 11 0 32 0;
#X connect 12 0 13 0;
#X connect 12 1 13 1;
#X connect 12 2 24 1;
#X connect 13 0 32 0;
#X connect 16 0 17 1;
#X connect 17 0 16 0;
#X connect 17 0 18 0;
#X connect 17 0 22 0;
#X connect 18 0 23 0;
#X connect 19 0 18 1;
#X connect 20 0 33 0;
#X connect 21 0 17 1;
#X connect 23 0 20 0;
#X connect 24 0 14 0;
#X connect 27 0 26 0;
#X connect 28 0 11 0;
#X connect 28 0 17 0;
#X connect 29 0 5 0;
#X connect 30 0 4 0;
#X connect 31 0 3 0;
#X connect 31 1 23 1;
#X connect 31 2 29 0;
#X connect 31 3 4 0;
#X connect 31 4 12 0;
#X connect 32 0 24 0;
#X connect 32 1 11 1;
#X connect 33 0 25 0;
#X connect 33 0 25 1;
