#N canvas 19 32 535 328 10;
#X obj 54 26 ctlin;
#X obj 123 125 f;
#X obj 163 289 outlet;
#X obj 171 266 loadbang;
#X obj 180 103 inlet;
#X obj 67 214 ==;
#X obj 34 267 spigot;
#X obj 34 290 outlet;
#X text 168 23 midilearn;
#X text 167 37 learns midi incoming control number when receives a
bang;
#X obj 150 125 f;
#X obj 123 47 t b b;
#X obj 123 25 inlet;
#X obj 163 220 pack;
#X obj 180 125 unpack;
#X obj 97 214 ==;
#X obj 67 242 &&;
#X obj 163 243 cyclone/prepend set;
#X connect 0 0 6 0;
#X connect 0 1 1 1;
#X connect 0 1 5 0;
#X connect 0 2 10 1;
#X connect 0 2 15 0;
#X connect 1 0 13 0;
#X connect 1 0 5 1;
#X connect 3 0 2 0;
#X connect 4 0 14 0;
#X connect 5 0 16 0;
#X connect 6 0 7 0;
#X connect 10 0 13 1;
#X connect 10 0 15 1;
#X connect 11 0 1 0;
#X connect 11 1 10 0;
#X connect 12 0 11 0;
#X connect 13 0 17 0;
#X connect 14 0 5 1;
#X connect 14 1 15 1;
#X connect 15 0 16 1;
#X connect 16 0 6 1;
#X connect 17 0 2 0;
