#N canvas 415 388 450 300 10;
#X obj 26 93 bng 15 250 50 0 empty empty empty 17 7 0 10 -262144 -1
-1;
#X text 24 56 You still have to set the correct midi device.;
#X text 24 162 https://github.com/angelfaraldo/pd-symbolic;
#X text 24 177 angel.faraldo@upf.edu ----- Barcelona \, 2015;
#X obj 26 125 midi_panic_ch 1;
#X text 23 24 PANIC message (resets all midi voices) only in the specified
MIDI channel.;
#X floatatom 61 94 5 0 0 0 - - -;
#X connect 0 0 4 0;
#X connect 6 0 4 0;
