#N canvas 621 230 1033 762 10;
#X obj 281 360 /;
#X obj 281 381 / 1000;
#X obj 394 379 s \$0-ticks;
#X obj 168 331 route bang microsec_per_quarternote ticks_per_quarternote
;
#X obj 352 456 /;
#X obj 352 410 *;
#X msg 352 433 60000 \$1;
#N canvas 549 155 623 343 note_parsing 0;
#X obj -2 51 unpack 0 0 0;
#X obj -79 79 moses 144;
#X obj -28 98 moses 160;
#X obj -28 119 - 143;
#X obj -79 99 - 127;
#X obj -28 242 pack 0 0 0;
#X obj -2 9 inlet;
#X obj -28 285 outlet;
#X msg -28 264 \$2 \$3 \$1;
#X obj 9 29 route 153 137;
#X text 96 29 in case you want to get rid of drum channel insert this.
;
#X obj -79 140 t f b;
#X obj -28 140 t f b;
#X msg -1 166 1;
#X msg -52 165 0;
#X obj 29 218 *;
#X connect 0 0 1 0;
#X connect 0 1 5 1;
#X connect 0 2 15 1;
#X connect 1 0 4 0;
#X connect 1 1 2 0;
#X connect 2 0 3 0;
#X connect 3 0 12 0;
#X connect 4 0 11 0;
#X connect 5 0 8 0;
#X connect 6 0 0 0;
#X connect 8 0 7 0;
#X connect 11 0 5 0;
#X connect 11 1 14 0;
#X connect 12 0 5 0;
#X connect 12 1 13 0;
#X connect 13 0 15 0;
#X connect 14 0 15 0;
#X connect 15 0 5 2;
#X restore -299 592 pd note_parsing;
#X obj -220 201 r \$0-end;
#X obj 168 363 t b b;
#X obj 140 401 f;
#X obj -245 -7 inlet;
#X obj -299 715 outlet;
#X obj -220 223 spigot 0;
#X obj 186 677 outlet;
#X obj -294 424 until;
#X obj -299 570 spigot 0;
#X obj -276 394 t b b;
#X msg -254 424 0;
#X obj -314 393 t b b;
#X msg -324 424 1;
#X obj -164 267 until;
#X obj -137 245 r \$0-end;
#X obj 186 598 /;
#X obj 227 565 r \$0-ticks;
#X obj 186 565 t f f;
#X obj -70 222 tosymbol;
#X obj -70 246 t b s;
#X obj -43 271 symbol;
#X obj -164 201 t b b;
#X obj -307 151 sel 1;
#X obj 167 448 mod;
#X obj 190 425 r \$0-ticks;
#X obj 168 402 s \$0-real_end;
#X obj 194 492 - 480;
#X obj 194 516 abs;
#X obj 148 539 +;
#X obj 128 648 s \$0-end;
#X obj 128 588 sel;
#X obj 128 372 t f f;
#X obj 167 469 sel 0;
#X msg 163 492 0;
#X obj -116 410 loadbang;
#X obj 140 425 t f f;
#X msg -43 293 read \$1;
#X msg -116 431 verbose 0;
#X obj 463 355 / 4;
#X obj 463 379 s \$0-semiquaver;
#X obj 0 594 r \$0-semiquaver;
#X obj -15 618 mod;
#X obj -30 642 -;
#X obj -42 594 t f f;
#X obj -106 701 outlet;
#X obj -67 568 route 0 1;
#X obj -67 546 list prepend 1;
#X obj -43 37 s \$0-quant;
#X obj 14 526 r \$0-quant;
#X obj -106 679 prepend;
#X msg -307 172 0;
#X obj 148 565 + 1;
#X msg -220 244 0;
#X obj -164 474 mrpeach/midifile;
#X obj -245 16 route play loop flush read panic quantize;
#X obj 281 456 s \$0-dur;
#X obj -230 173 r \$0-dur;
#X obj -314 373 r \$0-real_end;
#X obj -188 628 spigot 0;
#X obj -199 569 r \$0-end;
#X obj -137 222 s \$0-flush;
#X obj -32 246 r \$0-flush;
#X obj -143 569 r \$0-flush;
#X obj -269 195 metro 1;
#X obj 239 709 outlet;
#X msg -143 592 1;
#X msg -199 592 0;
#X obj -307 113 spigot 0;
#X obj -164 177 spigot 0;
#X msg -262 84 1;
#X msg -254 670 0;
#X obj -299 693 spigot 0;
#X msg -223 670 1;
#X obj 186 619 pack 0 0 0 0 0;
#X obj 239 682 spigot 0;
#X msg 625 332 0;
#X msg 661 332 1;
#X obj -124 60 t a b;
#X obj -245 37 t a b;
#X obj -164 37 t a b;
#X obj -91 129 midi-panic_all;
#X connect 0 0 1 0;
#X connect 1 0 5 0;
#X connect 1 0 63 0;
#X connect 3 0 9 0;
#X connect 3 1 0 0;
#X connect 3 2 0 1;
#X connect 3 2 2 0;
#X connect 3 2 5 1;
#X connect 3 2 46 0;
#X connect 3 2 81 3;
#X connect 4 0 81 4;
#X connect 5 0 6 0;
#X connect 6 0 4 0;
#X connect 7 0 66 0;
#X connect 7 0 79 0;
#X connect 8 0 13 0;
#X connect 9 0 33 0;
#X connect 9 1 10 0;
#X connect 10 0 43 0;
#X connect 11 0 62 0;
#X connect 13 0 60 0;
#X connect 15 0 61 0;
#X connect 16 0 7 0;
#X connect 17 0 15 0;
#X connect 17 1 18 0;
#X connect 18 0 16 1;
#X connect 19 0 20 0;
#X connect 19 1 15 1;
#X connect 20 0 16 1;
#X connect 21 0 61 0;
#X connect 22 0 21 1;
#X connect 23 0 81 0;
#X connect 24 0 23 1;
#X connect 25 0 23 0;
#X connect 25 1 81 1;
#X connect 26 0 27 0;
#X connect 27 0 17 0;
#X connect 27 1 28 0;
#X connect 28 0 44 0;
#X connect 29 0 21 0;
#X connect 29 1 68 0;
#X connect 30 0 58 0;
#X connect 30 1 88 0;
#X connect 31 0 40 0;
#X connect 32 0 34 1;
#X connect 32 0 31 1;
#X connect 34 0 35 0;
#X connect 35 0 36 1;
#X connect 36 0 25 0;
#X connect 36 0 59 0;
#X connect 38 0 37 0;
#X connect 38 0 82 0;
#X connect 39 0 38 0;
#X connect 39 1 10 1;
#X connect 40 0 41 0;
#X connect 40 1 34 0;
#X connect 41 0 36 1;
#X connect 42 0 45 0;
#X connect 43 0 36 0;
#X connect 43 1 31 0;
#X connect 43 1 81 2;
#X connect 44 0 61 0;
#X connect 45 0 61 0;
#X connect 46 0 47 0;
#X connect 48 0 49 1;
#X connect 49 0 50 1;
#X connect 50 0 57 1;
#X connect 51 0 50 0;
#X connect 51 1 49 0;
#X connect 53 0 57 1;
#X connect 53 1 51 0;
#X connect 54 0 53 0;
#X connect 56 0 54 1;
#X connect 57 0 52 0;
#X connect 58 0 61 0;
#X connect 59 0 38 1;
#X connect 60 0 61 0;
#X connect 61 0 16 0;
#X connect 61 1 54 0;
#X connect 61 1 39 0;
#X connect 61 2 3 0;
#X connect 62 0 86 0;
#X connect 62 1 13 1;
#X connect 62 2 87 0;
#X connect 62 3 85 0;
#X connect 62 4 88 0;
#X connect 62 5 55 0;
#X connect 64 0 71 1;
#X connect 65 0 19 0;
#X connect 66 0 57 0;
#X connect 67 0 74 0;
#X connect 67 0 80 0;
#X connect 69 0 28 0;
#X connect 70 0 73 0;
#X connect 70 0 78 0;
#X connect 71 0 61 0;
#X connect 73 0 66 1;
#X connect 74 0 66 1;
#X connect 75 0 30 0;
#X connect 75 0 71 0;
#X connect 76 0 29 0;
#X connect 77 0 75 1;
#X connect 77 0 76 1;
#X connect 78 0 79 1;
#X connect 79 0 12 0;
#X connect 80 0 79 1;
#X connect 81 0 14 0;
#X connect 82 0 72 0;
#X connect 83 0 82 1;
#X connect 84 0 82 1;
#X connect 85 0 26 0;
#X connect 85 0 77 0;
#X connect 85 1 83 0;
#X connect 86 0 75 0;
#X connect 86 1 84 0;
#X connect 87 0 76 0;
#X connect 87 1 84 0;
