#N canvas 455 177 962 725 10;
#X obj -407 -65 midirealtimein;
#X msg -312 312 1;
#X msg -281 312 0;
#X msg -349 35 1;
#X obj -239 129 timer;
#X obj -239 107 t b b;
#X obj -239 176 /;
#X obj -239 207 mean;
#X obj -239 229 expr int(0.5 + $f1);
#X msg -139 172 clear;
#X obj -407 9 sel 250 252 248;
#X obj -239 253 t f f;
#X obj -212 283 -;
#X obj -140 91 sel 1;
#X obj -212 308 abs;
#X obj -48 247 >= 1;
#X obj -48 227 spigot 1;
#X obj -166 119 t b b;
#X msg -33 194 0;
#X msg -3 194 1;
#X obj -239 85 repack 12;
#X msg -239 152 30000 \$1;
#X obj -3 171 del 4000;
#X obj -239 344 outlet;
#X obj -349 312 bang;
#X obj -349 343 outlet;
#X obj -228 -184 inlet;
#X obj -228 -6 /;
#X msg -228 -27 1 \$1;
#X msg -228 -70 2 \$1;
#X obj -228 -136 log;
#X obj -228 -113 / 0.693147;
#X obj -228 -92 - 2;
#X obj -228 -49 pow;
#X obj -228 14 * 24;
#X obj -228 36 int;
#X obj -302 343 outlet;
#X obj -228 -159 route resolution network;
#X obj -56 -26 multiplex;
#X obj -31 -53 mrpeach/udpreceive \$1;
#X obj -385 -31 print;
#X obj -349 85 counter 0 0 5;
#X connect 0 0 10 0;
#X connect 0 0 40 0;
#X connect 1 0 36 0;
#X connect 2 0 36 0;
#X connect 3 0 20 0;
#X connect 3 0 24 0;
#X connect 3 0 41 0;
#X connect 4 0 21 0;
#X connect 5 0 4 0;
#X connect 5 1 4 1;
#X connect 6 0 7 0;
#X connect 7 0 8 0;
#X connect 8 0 11 0;
#X connect 9 0 7 0;
#X connect 10 0 1 0;
#X connect 10 1 2 0;
#X connect 10 2 3 0;
#X connect 11 0 12 1;
#X connect 11 0 23 0;
#X connect 11 1 12 0;
#X connect 12 0 14 0;
#X connect 13 0 17 0;
#X connect 14 0 16 0;
#X connect 15 0 13 0;
#X connect 16 0 15 0;
#X connect 17 0 18 0;
#X connect 17 0 22 0;
#X connect 17 1 9 0;
#X connect 18 0 16 1;
#X connect 19 0 16 1;
#X connect 20 0 5 0;
#X connect 21 0 6 0;
#X connect 22 0 19 0;
#X connect 24 0 25 0;
#X connect 26 0 37 0;
#X connect 27 0 34 0;
#X connect 28 0 27 0;
#X connect 29 0 33 0;
#X connect 30 0 31 0;
#X connect 31 0 32 0;
#X connect 32 0 29 0;
#X connect 33 0 28 0;
#X connect 34 0 35 0;
#X connect 35 0 41 1;
#X connect 37 0 30 0;
#X connect 37 1 38 2;
#X connect 39 0 38 1;
