#N canvas 596 126 604 438 10;
#X symbolatom 9 349 15 0 0 0 - - -;
#X msg 9 199 72 67 64 64 48 60 55;
#X msg 9 179 60 48 64 67 72 55;
#X msg 9 149 72 64 67 70;
#X msg 9 19 0 3 8;
#X floatatom 126 320 5 0 0 0 - - -;
#X msg 9 59 1 5 8 11;
#X floatatom 90 223 5 0 0 0 - - -;
#X msg 9 39 0 5 9;
#X msg 9 -1 0 3 7;
#X msg 9 109 60 63 66;
#X text 107 349 chord name;
#X text 129 224 try transposing the whole chord;
#X text 49 -2 works with pitch class sets;
#X text 69 108 and with midi notes;
#X msg 9 129 67 71 74 65;
#X text 120 178 even with duplicate notes or pitch-classes;
#X obj 9 246 list-apply + 0;
#X text 233 80 TO DO: currently \, when the system does not recognise
a chord \, it does not warn or output anything. This should be fixed
soon.;
#X msg 9 79 4 7 10 12;
#X text 233 130 KNOWN ISSUE: with chords of 5 and more notes... the
inversions do not work properly.;
#X text 163 319 inversion (0 = root \, 1 = first inversion \, etc)
;
#X obj 9 296 midi_chord_estimator;
#X text 233 0 [midi_chord_estimator] tries to estimates chord names
with root \, type and inversion from incoming lists. These are expected
to represent either midi notes or pc-sets. For it to work properly
\, chord intervalic structure must be first declared on a separate
textfile.;
#X text 10 383 https://github.com/angelfaraldo/pd-symbolic;
#X text 10 398 angel.faraldo@upf.edu ----- Barcelona \, 2015;
#X msg 18 273 bang;
#X text 52 272 bang to re-load the dictionary;
#X connect 1 0 17 0;
#X connect 2 0 17 0;
#X connect 3 0 17 0;
#X connect 4 0 17 0;
#X connect 6 0 17 0;
#X connect 7 0 17 2;
#X connect 8 0 17 0;
#X connect 9 0 17 0;
#X connect 10 0 17 0;
#X connect 15 0 17 0;
#X connect 17 0 22 0;
#X connect 19 0 17 0;
#X connect 22 0 0 0;
#X connect 22 1 5 0;
#X connect 26 0 22 0;
