#N canvas 500 22 578 742 10;
#X obj -134 350 textfile;
#N canvas 621 367 322 250 read_dictionary 0;
#X msg 49 142 rewind;
#X obj 9 186 until;
#X obj 32 78 t b b b b;
#X obj 83 99 s \$0-clear;
#X obj 32 56 loadbang;
#X obj 32 14 inlet;
#X obj 36 164 r \$0-end_of_textfile;
#X obj 49 212 outlet;
#X obj 42 35 r \$0-reload;
#X msg 66 120 read ./chord_dictionary.txt;
#X obj 129 41 bng 15 250 50 0 empty empty empty 17 7 0 10 -262144 -1
-1;
#X connect 0 0 7 0;
#X connect 1 0 7 0;
#X connect 2 0 1 0;
#X connect 2 1 0 0;
#X connect 2 2 9 0;
#X connect 2 3 3 0;
#X connect 4 0 2 0;
#X connect 5 0 4 0;
#X connect 6 0 1 1;
#X connect 8 0 4 0;
#X connect 9 0 7 0;
#X connect 10 0 4 0;
#X restore -134 330 pd read_dictionary;
#X obj -89 371 s \$0-end_of_textfile;
#X obj -134 -19 inlet;
#X obj -237 481 listfind;
#X obj -134 393 list split 1;
#X obj -83 441 r \$0-clear;
#X obj -65 624 r \$0-clear;
#X obj -210 411 f 0;
#X obj -237 389 t f b;
#X obj -186 688 packel;
#X obj -180 623 + 1;
#X obj -186 667 list;
#X obj -180 644 t b f;
#X obj -237 503 route bang;
#X obj -253 795 outlet;
#X obj -180 526 t f b;
#X obj -124 494 f;
#X obj -79 482 list length;
#X obj -180 410 + 1;
#X obj -124 516 -;
#X msg -197 389 0;
#X obj -124 557 moses;
#X obj -124 537 * -1;
#X obj -124 626 outlet;
#X obj -124 604 f;
#X msg -97 581 0;
#X obj 23 220 midi2pc;
#X obj 29 557 packel;
#X obj 29 535 list;
#X obj 29 511 t b f;
#X obj 62 535 + 1;
#X obj 71 606 mod 12;
#X obj 71 586 +;
#X obj 23 240 t l l;
#N canvas 512 365 457 294 root 0;
#X obj 15 11 inlet;
#X obj 15 267 outlet;
#X obj 271 71 print ERROR;
#X msg 271 50 unrecognized pitch class;
#X msg 15 139 C;
#X msg 45 139 Db;
#X msg 75 139 D;
#X msg 105 139 Eb;
#X msg 135 139 E;
#X msg 165 139 F;
#X msg 195 139 Gb;
#X msg 225 139 G;
#X msg 255 139 Ab;
#X msg 285 139 A;
#X msg 315 139 Bb;
#X msg 345 139 B;
#X obj 15 33 sel 0 1 2 3 4 5 6 7 8 9 10 11;
#X connect 0 0 16 0;
#X connect 3 0 2 0;
#X connect 4 0 1 0;
#X connect 5 0 1 0;
#X connect 6 0 1 0;
#X connect 7 0 1 0;
#X connect 8 0 1 0;
#X connect 9 0 1 0;
#X connect 10 0 1 0;
#X connect 11 0 1 0;
#X connect 12 0 1 0;
#X connect 13 0 1 0;
#X connect 14 0 1 0;
#X connect 15 0 1 0;
#X connect 16 0 4 0;
#X connect 16 1 5 0;
#X connect 16 2 6 0;
#X connect 16 3 7 0;
#X connect 16 4 8 0;
#X connect 16 5 9 0;
#X connect 16 6 10 0;
#X connect 16 7 11 0;
#X connect 16 8 12 0;
#X connect 16 9 13 0;
#X connect 16 10 14 0;
#X connect 16 11 15 0;
#X connect 16 12 3 0;
#X restore 71 626 pd root;
#X obj -217 297 t l b l;
#X obj -159 765 list prepend;
#X obj -134 646 list prepend;
#X obj -46 646 t l;
#X obj -237 367 list2number;
#X obj 23 159 fifop;
#X obj -41 78 t b l;
#X msg 50 65 stop;
#X obj 21 113 t b;
#X obj -41 112 delay 2;
#X obj 23 180 note_unique;
#X obj -237 323 chord_rotate;
#X obj -134 4 route bang float;
#X obj -88 30 sel -1;
#X msg -253 166 symbol -;
#X obj -253 140 delay 22;
#X obj -192 461 add2list prepend;
#X obj -100 419 list2number;
#X obj 23 200 normal_form;
#X obj -237 345 normal_form;
#X obj -159 785 list2symbol;
#X text -27 788 add here : for harte notation;
#X obj -75 770 loadbang;
#X msg -75 791 symbol;
#X obj -186 711 sel 0;
#X msg -186 732 symbol;
#X obj 177 623 outlet;
#X connect 0 0 5 0;
#X connect 0 1 2 0;
#X connect 1 0 0 0;
#X connect 3 0 48 0;
#X connect 4 0 14 0;
#X connect 5 0 38 0;
#X connect 5 1 53 0;
#X connect 6 0 52 1;
#X connect 7 0 38 1;
#X connect 8 0 17 1;
#X connect 8 0 19 0;
#X connect 9 0 4 0;
#X connect 9 1 8 0;
#X connect 10 0 60 0;
#X connect 11 0 13 0;
#X connect 12 0 10 0;
#X connect 13 0 12 0;
#X connect 13 1 10 1;
#X connect 14 1 16 0;
#X connect 16 0 11 0;
#X connect 16 1 17 0;
#X connect 17 0 20 0;
#X connect 17 0 30 0;
#X connect 18 0 22 1;
#X connect 18 0 20 1;
#X connect 19 0 8 1;
#X connect 20 0 23 0;
#X connect 21 0 8 1;
#X connect 22 0 25 0;
#X connect 22 1 26 0;
#X connect 23 0 22 0;
#X connect 25 0 24 0;
#X connect 26 0 25 0;
#X connect 27 0 34 0;
#X connect 28 0 33 0;
#X connect 29 0 28 0;
#X connect 30 0 29 0;
#X connect 30 1 31 0;
#X connect 31 0 28 1;
#X connect 32 0 35 0;
#X connect 32 0 62 0;
#X connect 33 0 32 0;
#X connect 34 0 36 0;
#X connect 34 1 29 1;
#X connect 35 0 37 1;
#X connect 36 0 47 0;
#X connect 36 1 21 0;
#X connect 36 2 18 0;
#X connect 37 0 56 0;
#X connect 38 0 12 1;
#X connect 38 0 39 0;
#X connect 39 0 38 1;
#X connect 40 0 9 0;
#X connect 41 0 44 0;
#X connect 41 0 46 0;
#X connect 41 1 43 0;
#X connect 42 0 45 0;
#X connect 42 1 41 0;
#X connect 43 0 45 0;
#X connect 44 0 45 0;
#X connect 45 0 41 0;
#X connect 46 0 54 0;
#X connect 47 0 55 0;
#X connect 48 0 1 0;
#X connect 48 1 49 0;
#X connect 48 2 42 0;
#X connect 49 0 51 0;
#X connect 49 1 42 0;
#X connect 50 0 15 0;
#X connect 51 0 50 0;
#X connect 52 0 4 1;
#X connect 53 0 52 0;
#X connect 54 0 27 0;
#X connect 54 1 33 1;
#X connect 55 0 40 0;
#X connect 56 0 15 0;
#X connect 58 0 59 0;
#X connect 59 0 56 1;
#X connect 60 0 61 0;
#X connect 60 1 37 0;
#X connect 61 0 37 0;
