#N canvas 0 23 555 544 10;
#X obj 1 0 cnv 15 552 40 empty \$0-pddp.cnv.header midi-panic-ch 3
12 0 18 -204280 -1 0;
#X obj 1 302 cnv 3 550 3 empty \$0-pddp.cnv.inlets inlets 8 12 0 13
-228856 -1 0;
#X obj 1 380 cnv 3 550 3 empty \$0-pddp.cnv.outlets outlets 8 12 0
13 -228856 -1 0;
#X obj 79 311 cnv 17 3 65 empty \$0-pddp.cnv.let.0 0 5 9 0 16 -228856
-162280 0;
#X obj 1 505 cnv 15 552 21 empty \$0-pddp.cnv.footer empty 20 12 0
14 -228856 -66577 0;
#X obj 1 458 cnv 3 550 3 empty \$0-pddp.cnv.argument arguments 8 12
0 13 -228856 -1 0;
#X text 335 506 angelfaraldo@gmail.com \, 2015-2016;
#X obj 79 389 cnv 17 3 65 empty \$0-pddp.cnv.let.0 0 5 9 0 16 -228856
-162280 0;
#X text 100 128 You still have to set the correct midi device in the
midi preferences.;
#X text 2 23 midi panic (all notes off) in single channel;
#X text 100 98 PANIC message (resets all midi voices) in the specified
channel.;
#X text 99 310 bang/float;
#X text 169 310 - Sends a panic message and all-notes-off to the specified
channel.;
#X text 99 470 1);
#X text 169 470 default midi channel.;
#X obj 226 199 bng 15 250 50 0 empty empty empty 17 7 0 10 -262144
-1 -1;
#X floatatom 261 200 5 0 0 0 - - -, f 5;
#X obj 226 231 midi-panic-ch 1;
#X obj 7 506 pddp/pddplink https://github.com/angelfaraldo/pd-symbolic
;
#X connect 15 0 17 0;
#X connect 16 0 17 0;
