#N canvas 424 349 450 300 10;
#X obj 15 8 inlet;
#X obj 15 79 until;
#X msg 55 79 0;
#X obj 15 34 t b b;
#X msg 15 57 16;
#X obj 15 104 f 0;
#X obj 45 104 + 1;
#X obj 15 151 ctlout;
#X msg 15 127 123 123 \$1;
#X connect 0 0 3 0;
#X connect 1 0 5 0;
#X connect 2 0 5 1;
#X connect 3 0 4 0;
#X connect 3 1 2 0;
#X connect 4 0 1 0;
#X connect 5 0 6 0;
#X connect 5 0 8 0;
#X connect 6 0 5 1;
#X connect 8 0 7 0;
