#N canvas 1 23 554 574 10;
#X obj 1 0 cnv 15 552 40 empty \$0-pddp.cnv.header mirrorwall 3 12
0 18 -204280 -1 0;
#X obj 1 302 cnv 3 550 3 empty \$0-pddp.cnv.inlets inlets 8 12 0 13
-228856 -1 0;
#X obj 1 380 cnv 3 550 3 empty \$0-pddp.cnv.outlets outlets 8 12 0
13 -228856 -1 0;
#X obj 79 311 cnv 17 3 65 empty \$0-pddp.cnv.let.0 0 5 9 0 16 -228856
-162280 0;
#X obj 1 535 cnv 15 552 21 empty \$0-pddp.cnv.footer empty 20 12 0
14 -228856 -66577 0;
#X obj 1 458 cnv 3 550 3 empty \$0-pddp.cnv.argument arguments 8 12
0 13 -228856 -1 0;
#X text 335 536 angelfaraldo@gmail.com \, 2015-2016;
#X obj 79 389 cnv 17 3 65 empty \$0-pddp.cnv.let.0 0 5 9 0 16 -228856
-162280 0;
#X text 249 271 see also:;
#X floatatom 100 208 5 0 0 0 - - -, f 5;
#X floatatom 100 156 5 0 0 0 - - -, f 5;
#X obj 100 183 mirrorwall -1 1;
#X text 4 23 keeps numbers within range by folding them backwards;
#X text 97 88 mirrorwall is inspired in one of Xenakis's Dynamic Stochastic
Syntesis methods. When a number passes a threshold it is mirrored backwards
by the same amount.;
#X text 208 185 arguments set the lower and higher limits.;
#X text 99 310 float;
#X text 169 310 - incoming number;
#X text 99 388 float;
#X text 169 388 - number within range.;
#X text 89 478 1) float;
#X text 169 478 - lower limit.;
#X text 89 498 2) float;
#X text 169 498 - higher limit.;
#X obj 309 271 pddp/helplink mirrorwall~;
#X obj 7 536 pddp/pddplink https://github.com/angelfaraldo/pd-symbolic
;
#X connect 10 0 11 0;
#X connect 11 0 9 0;
