#N canvas 198 134 676 784 10;
#X obj 224 -308 sort;
#X obj 180 -33 f;
#X msg 238 -184 -12;
#X obj 105 -129 list length;
#X obj 76 -129 + 1;
#X obj 46 -129 f 1;
#X obj 165 -254 t b f f;
#X obj 90 -107 ==;
#X obj 90 -86 sel 1;
#X msg 18 -160 1;
#X obj 180 -152 == -12;
#X obj 180 -129 sel 0 1;
#X obj 227 -55 + 1;
#X obj 206 -5 list prepend;
#X obj 297 -3 t l;
#X obj 224 -352 inlet;
#X obj 185 16 list;
#X obj 90 -64 t b b;
#X obj 185 38 list split 1;
#X obj 219 60 list-math + 1;
#X obj 329 -247 list-unique;
#X obj 199 -55 f 0;
#X msg 211 -78 0;
#X obj 165 -275 drip;
#X obj 199 109 minmax;
#X obj 232 131 listfind;
#X obj 219 84 t l l;
#X obj 370 330 packel;
#X obj 358 308 list;
#X obj 389 258 + 1;
#X obj 389 279 t b f;
#X obj 242 191 drip;
#X obj 440 374 t l;
#X obj 373 351 list prepend;
#X obj 298 280 list length;
#X obj 242 153 t l l;
#X obj 272 280 + 1;
#X obj 242 280 f 1;
#X obj 283 305 ==;
#X obj 242 212 t b f;
#X obj 283 327 sel 1;
#X obj 283 378 list;
#X obj 611 235 outlet;
#X obj 283 398 outlet;
#X obj 280 -248 t l b;
#X obj 224 -331 t l l;
#X connect 0 0 20 0;
#X connect 0 0 23 0;
#X connect 1 0 13 0;
#X connect 2 0 10 1;
#X connect 3 0 7 1;
#X connect 4 0 5 1;
#X connect 5 0 4 0;
#X connect 5 0 7 0;
#X connect 6 0 5 0;
#X connect 6 1 10 1;
#X connect 6 2 10 0;
#X connect 7 0 8 0;
#X connect 8 0 17 0;
#X connect 9 0 5 1;
#X connect 9 0 37 1;
#X connect 10 0 11 0;
#X connect 11 0 1 0;
#X connect 11 0 22 0;
#X connect 11 1 21 0;
#X connect 12 0 21 1;
#X connect 13 0 14 0;
#X connect 13 0 16 1;
#X connect 14 0 13 1;
#X connect 15 0 45 0;
#X connect 16 0 18 0;
#X connect 17 0 16 0;
#X connect 17 1 1 0;
#X connect 18 1 19 0;
#X connect 19 0 26 0;
#X connect 20 0 28 1;
#X connect 21 0 1 1;
#X connect 21 0 12 0;
#X connect 22 0 21 0;
#X connect 23 0 6 0;
#X connect 24 1 25 0;
#X connect 24 1 42 0;
#X connect 25 0 35 0;
#X connect 26 0 24 0;
#X connect 26 1 25 1;
#X connect 27 0 33 0;
#X connect 28 0 27 0;
#X connect 29 0 30 0;
#X connect 30 0 28 0;
#X connect 30 1 27 1;
#X connect 31 0 39 0;
#X connect 32 0 33 1;
#X connect 33 0 32 0;
#X connect 33 0 41 1;
#X connect 34 0 38 1;
#X connect 35 0 31 0;
#X connect 35 1 34 0;
#X connect 36 0 37 1;
#X connect 37 0 36 0;
#X connect 37 0 38 0;
#X connect 38 0 40 0;
#X connect 39 0 37 0;
#X connect 39 1 29 0;
#X connect 40 0 41 0;
#X connect 41 0 43 0;
#X connect 44 0 3 0;
#X connect 44 1 33 1;
#X connect 44 1 13 1;
#X connect 44 1 22 0;
#X connect 44 1 2 0;
#X connect 44 1 9 0;
#X connect 45 0 0 0;
#X connect 45 1 44 0;
