#N canvas 124 621 396 237 10;
#X text 9 181 https://github.com/angelfaraldo/pd-symbolic;
#X text 9 196 angel.faraldo@upf.edu ----- Barcelona \, 2015;
#X floatatom 32 119 5 0 0 0 - - -;
#X obj 11 146 print;
#X msg 11 73 1 2 3 4 5 5 5 5 5 5 5 3 2 1;
#X text 12 13 returns the statistical mode of a list \, i.e. the value
or values that appear most frequently. The right inlet outputs the
number of times the mode is repeated.;
#X obj 11 96 mode;
#X connect 4 0 6 0;
#X connect 6 0 3 0;
#X connect 6 1 2 0;
