#N canvas 217 349 294 204 10;
#X msg 47 99 1;
#X obj 47 119 /;
#X obj 47 79 t b f;
#X obj 20 141 pow, f 5;
#X obj 20 18 inlet;
#X obj 62 18 inlet;
#X obj 20 162 outlet;
#X obj 20 38 t f b;
#X obj 47 58 \$1;
#X connect 0 0 1 0;
#X connect 1 0 3 1;
#X connect 2 0 0 0;
#X connect 2 1 1 1;
#X connect 3 0 6 0;
#X connect 4 0 7 0;
#X connect 5 0 8 1;
#X connect 7 0 3 0;
#X connect 7 1 8 0;
#X connect 8 0 2 0;
