#N canvas 1 198 324 405 10;
#X obj 11 10 inlet;
#X obj 11 30 sort;
#X obj 11 171 t l l;
#X obj 17 286 list;
#X obj 72 223 ==;
#X obj 72 242 sel 1;
#X obj 11 78 t l f b l;
#X obj 11 126 -;
#X obj 98 70 outlet;
#X obj 11 53 t l f;
#X obj 11 192 list length;
#X obj 11 102 drip;
#X obj 87 147 list length;
#X obj 11 148 add2list;
#X text 16 356 https://github.com/angelfaraldo/pd-symbolic;
#X text 16 371 angel.faraldo@upf.edu ----- Barcelona \, 2015;
#X obj 17 306 sort;
#X obj 17 330 outlet;
#X connect 0 0 1 0;
#X connect 1 0 9 0;
#X connect 2 0 10 0;
#X connect 2 1 3 1;
#X connect 3 0 16 0;
#X connect 4 0 5 0;
#X connect 5 0 3 0;
#X connect 6 0 11 0;
#X connect 6 1 7 1;
#X connect 6 2 13 1;
#X connect 6 3 12 0;
#X connect 7 0 13 0;
#X connect 9 0 6 0;
#X connect 9 1 8 0;
#X connect 10 0 4 0;
#X connect 11 0 7 0;
#X connect 12 0 4 1;
#X connect 13 0 2 0;
#X connect 16 0 17 0;
