#N canvas 115 484 414 259 10;
#X text 16 193 https://github.com/angelfaraldo/pd-symbolic;
#X text 16 208 angel.faraldo@upf.edu ----- Barcelona \, 2015;
#X obj 20 135 normal_form;
#X floatatom 83 164 5 0 0 0 - - -;
#X msg 30 104 2 5 4 1;
#X obj 20 165 print;
#X msg 20 79 60 64 67;
#X text 14 9 converts a pitch-class set or chord to its so called "normal
form" \, that is \, an ordered list in which the lowest element is
transposed down to zero.;
#X connect 2 0 5 0;
#X connect 2 1 3 0;
#X connect 4 0 2 0;
#X connect 6 0 2 0;
