#N canvas 0 22 311 341 10;
#X obj 16 54 list fromsymbol;
#X obj 16 32 symbol \$1;
#N canvas 0 22 450 300 note2pc 0;
#X obj 34 15 inlet;
#X obj 34 37 select 67 68 69 70 71 65 66, f 36;
#X msg 34 69 0;
#X msg 64 69 2;
#X msg 94 69 4;
#X msg 125 69 5;
#X msg 155 69 7;
#X msg 186 69 9;
#X msg 216 69 11;
#X obj 34 158 outlet;
#X connect 0 0 1 0;
#X connect 1 0 2 0;
#X connect 1 1 3 0;
#X connect 1 2 4 0;
#X connect 1 3 5 0;
#X connect 1 4 6 0;
#X connect 1 5 7 0;
#X connect 1 6 8 0;
#X connect 2 0 9 0;
#X connect 3 0 9 0;
#X connect 4 0 9 0;
#X connect 5 0 9 0;
#X connect 6 0 9 0;
#X connect 7 0 9 0;
#X connect 8 0 9 0;
#X restore 16 99 pd note2pc;
#X obj 16 76 unpack f f f, f 24;
#X obj 157 198 * 12;
#X obj 157 177 + 1;
#X obj 157 153 - 48;
#X obj 16 261 +;
#X obj 16 10 inlet;
#X obj 82 233 +;
#X msg 82 156 1;
#X obj 87 98 sel 98 35, f 10;
#X msg 52 156 -1;
#X obj 16 282 outlet;
#X obj 144 121 t b f;
#X msg 112 156 0;
#X text 170 76 sharp = 35;
#X text 170 96 b = 98;
#X connect 0 0 3 0;
#X connect 1 0 0 0;
#X connect 2 0 7 0;
#X connect 3 0 2 0;
#X connect 3 1 11 0;
#X connect 3 2 6 0;
#X connect 4 0 9 1;
#X connect 5 0 4 0;
#X connect 6 0 5 0;
#X connect 7 0 13 0;
#X connect 8 0 1 0;
#X connect 9 0 7 1;
#X connect 10 0 9 0;
#X connect 11 0 12 0;
#X connect 11 1 10 0;
#X connect 11 2 14 0;
#X connect 12 0 9 0;
#X connect 14 0 15 0;
#X connect 14 1 6 0;
#X connect 15 0 9 0;
