#N canvas 729 86 450 300 10;
#X obj 222 647 tabread \$0-legatorder;
#X obj 26 596 sel;
#X obj 41 574 - 1;
#X obj 16 509 t f b f, f 15;
#X msg 69 644 -1;
#X msg 121 486 const 0;
#X obj 16 465 t f f b, f 18;
#X obj 16 443 r \$0-legato;
#X obj 121 507 s \$0-legato-pattern;
#X obj 26 618 s \$0-update-density;
#X obj 69 668 tabwrite \$0-legato-pattern;
#X obj 16 487 vabs/forloop;
#X msg 17 181 0 32 1 33 2 34 3 35 4 36 5 37 6 38 7 39 8 40 9 41 10
42 11 43 12 44 13 45 14 46 15 47 16 48 17 49 18 50 19 51 20 52 21 53
22 54 23 55 24 56 25 57 26 58 27 59 28 60 29 61 30 62 31 63;
#X msg 38 267 31 63 30 64 7 39 6 40 23 55 22 56 15 47 14 48 27 59 26
60 3 35 2 36 19 51 18 52 11 43 10 44 29 61 28 62 5 37 4 38 21 53 20
54 13 45 12 46 25 57 24 58 1 33 0 34 17 49 16 50 9 41 8 42;
#X text 41 250 derived from metrical structure (+32);
#X msg 60 356 33 1 34 0 57 25 58 24 41 9 42 8 49 17 50 16 37 5 38 4
61 29 62 28 45 13 46 12 53 21 54 20 35 3 36 2 59 27 60 26 43 11 44
10 51 19 52 18 39 7 40 6 63 31 64 30 47 15 48 14 55 23 56 22;
#X text 57 336 inverse of metrical structure (+32);
#X obj 16 534 vabs/restrictout 100;
#X floatatom 217 583 5 0 0 0 - - -, f 5;
#X floatatom 270 551 5 0 0 0 - - -, f 5;
#X floatatom 95 597 5 0 0 0 - - -, f 5;
#X obj 311 619 bng 15 250 50 0 empty empty empty 17 7 0 10 -262144
-1 -1;
#N canvas 0 50 450 300 (subpatch) 0;
#X array \$0-legatorder 64 float 1;
#A 0 0 32 1 33 2 34 3 35 4 36 5 37 6 38 7 39 8 40 9 41 10 42 11 43
12 44 13 45 14 46 15 47 16 48 17 49 18 50 19 51 20 52 21 53 22 54 23
55 24 56 25 57 26 58 27 59 28 60 29 61 30 62 31 63;
#X coords 0 64 63 0 400 140 1 0 0;
#X restore 20 26 graph;
#X obj 17 417 array set \$0-legatorder 0;
#X connect 0 0 10 1;
#X connect 1 0 9 0;
#X connect 1 0 21 0;
#X connect 2 0 1 1;
#X connect 3 0 17 0;
#X connect 3 1 4 0;
#X connect 3 2 0 0;
#X connect 4 0 10 0;
#X connect 5 0 8 0;
#X connect 6 0 11 0;
#X connect 6 1 2 0;
#X connect 6 1 19 0;
#X connect 6 2 5 0;
#X connect 7 0 6 0;
#X connect 11 0 3 0;
#X connect 12 0 23 0;
#X connect 13 0 23 0;
#X connect 15 0 23 0;
#X connect 17 0 1 0;
#X connect 17 0 20 0;
