#N canvas 0 22 1031 747 10;
#X obj 632 307 f 0;
#X obj 662 307 + 1;
#X obj 596 350 s, f 6;
#X msg 647 286 0;
#X obj 596 241 pack;
#X obj 596 262 route 1;
#X obj 553 155 until;
#X obj 606 178 + 1;
#X obj 577 177 f 0;
#X msg 592 155 0;
#X obj 596 284 t f b;
#X obj 577 200 t f f f;
#X obj 291 732 s;
#X obj 75 103 until;
#X obj 104 127 + 1;
#X obj 75 126 f 0;
#X obj 291 41 t b b, f 20;
#X msg 120 103 0;
#X obj 350 455 + 1;
#X obj 321 455 f 1;
#X msg 332 418 1;
#X obj 286 477 f;
#X obj 222 286 -;
#X obj 184 250 t f f f f;
#X msg 184 208 2 \$1;
#X obj 184 230 pow;
#X msg 318 187 10;
#X obj 321 287 sel 0.5;
#X obj 259 406 t b b;
#X obj 201 309 pack;
#X obj 332 366 sel -8;
#X obj 121 292 moses 0;
#X obj 37 344 spigot;
#X obj 207 522 list;
#X obj 155 572 list length;
#X obj 290 633 + 1;
#X obj 261 632 f 0;
#X msg 276 609 0;
#X obj 207 545 t l l b;
#X obj 155 594 until;
#X obj 283 676 + 1;
#X obj 261 654 t b f f, f 8;
#X obj 220 675 list;
#X obj 75 61 del 10;
#X obj 220 697 zexy/packel;
#X obj 286 498 vabs/add2list prepend;
#X obj 259 337 vabs/select-both 2 0;
#X obj 190 366 vabs/select-both 1 0.5;
#X obj 126 406 vabs/select-both 1 -1;
#X obj 37 366 vabs/select-both 2 1.5;
#X text 336 734 duración;
#X obj 306 710 makefilename \$0-slave-chord-dur-%d;
#X obj 632 329 makefilename \$0-slave-chord-pos-%d;
#X msg 553 133 64;
#X obj 596 221 tabread \$0-new-onsets;
#X obj 551 263 sel 63;
#X obj 595 46 r \$0-density;
#X obj 710 113 s \$0-reset-slaves;
#X obj 291 19 r \$0-update-legato;
#X obj 95 157 tabread \$0-slave-pattern;
#X obj 10 406 sel 64;
#X obj 75 82 f 65;
#X obj 553 111 delay 100;
#X obj 595 87 t b b b, f 18;
#X obj 600 421 pack f s;
#X msg 600 472 \$2 \$1;
#X obj 600 492 print posiion;
#X obj 595 67 change;
#X obj 760 81 bng 15 250 50 0 empty empty empty 17 7 0 10 -262144 -1
-1;
#X connect 0 0 1 0;
#X connect 0 0 52 0;
#X connect 1 0 0 1;
#X connect 3 0 0 1;
#X connect 4 0 5 0;
#X connect 5 0 10 0;
#X connect 6 0 8 0;
#X connect 7 0 8 1;
#X connect 8 0 7 0;
#X connect 8 0 11 0;
#X connect 9 0 8 1;
#X connect 10 0 2 0;
#X connect 10 0 64 0;
#X connect 10 1 0 0;
#X connect 11 0 55 0;
#X connect 11 1 54 0;
#X connect 11 2 4 1;
#X connect 13 0 15 0;
#X connect 14 0 15 1;
#X connect 15 0 14 0;
#X connect 15 0 59 0;
#X connect 15 0 60 0;
#X connect 16 0 43 0;
#X connect 16 1 17 0;
#X connect 16 1 26 0;
#X connect 16 1 45 1;
#X connect 17 0 15 1;
#X connect 18 0 19 1;
#X connect 19 0 18 0;
#X connect 19 0 21 1;
#X connect 20 0 19 0;
#X connect 21 0 45 0;
#X connect 22 0 29 1;
#X connect 22 0 30 0;
#X connect 23 0 31 0;
#X connect 23 1 29 0;
#X connect 23 1 27 0;
#X connect 23 2 22 1;
#X connect 23 3 22 0;
#X connect 24 0 25 0;
#X connect 25 0 23 0;
#X connect 26 0 22 1;
#X connect 27 0 19 0;
#X connect 28 0 20 0;
#X connect 28 1 21 0;
#X connect 29 0 32 0;
#X connect 29 0 46 0;
#X connect 29 0 47 0;
#X connect 29 0 48 0;
#X connect 30 0 20 0;
#X connect 31 1 32 1;
#X connect 32 0 49 0;
#X connect 33 0 38 0;
#X connect 34 0 39 0;
#X connect 35 0 36 1;
#X connect 36 0 35 0;
#X connect 36 0 41 0;
#X connect 37 0 36 1;
#X connect 38 0 34 0;
#X connect 38 1 42 1;
#X connect 38 2 37 0;
#X connect 39 0 36 0;
#X connect 40 0 44 1;
#X connect 41 0 42 0;
#X connect 41 1 40 0;
#X connect 41 2 51 0;
#X connect 42 0 44 0;
#X connect 43 0 61 0;
#X connect 44 0 12 0;
#X connect 45 0 33 1;
#X connect 46 0 28 0;
#X connect 47 0 28 0;
#X connect 48 0 28 0;
#X connect 49 0 28 0;
#X connect 51 0 12 1;
#X connect 52 0 2 1;
#X connect 52 0 64 1;
#X connect 53 0 6 0;
#X connect 54 0 4 0;
#X connect 55 0 16 0;
#X connect 56 0 67 0;
#X connect 58 0 16 0;
#X connect 59 0 24 0;
#X connect 60 0 33 0;
#X connect 61 0 13 0;
#X connect 62 0 53 0;
#X connect 63 0 62 0;
#X connect 63 1 3 0;
#X connect 63 2 57 0;
#X connect 63 2 9 0;
#X connect 65 0 66 0;
#X connect 67 0 63 0;
#X connect 68 0 57 0;
