#N canvas 0 23 555 547 10;
#X obj 1 0 cnv 15 552 40 empty \$0-pddp.cnv.header pcs-pseudoprimeform
3 12 0 18 -204280 -1 0;
#X obj 1 302 cnv 3 550 3 empty \$0-pddp.cnv.inlets inlets 8 12 0 13
-228856 -1 0;
#X obj 1 380 cnv 3 550 3 empty \$0-pddp.cnv.outlets outlets 8 12 0
13 -228856 -1 0;
#X obj 79 311 cnv 17 3 65 empty \$0-pddp.cnv.let.0 0 5 9 0 16 -228856
-162280 0;
#X text 99 310 list;
#X text 169 310 - list that is interpreted as a pitch-class set \,
that is \, a list containing non-duplicate integers in range 0-11.
;
#X obj 19 268 tgl 15 0 pc0 empty empty 17 7 0 10 -262144 -1 -1 0 12
;
#X text 23 249 0;
#N canvas 69 257 590 444 make-set 0;
#X obj 57 35 r pc0;
#X obj 95 35 r pc1;
#X obj 95 59 t b f;
#X obj 57 177 pack 0 0 0 0 0 0 0 0 0 0 0 0;
#X obj 135 59 t b f;
#X obj 135 35 r pc2;
#X obj 175 59 t b f;
#X obj 215 59 t b f;
#X obj 175 35 r pc3;
#X obj 215 35 r pc4;
#X obj 255 59 t b f;
#X obj 295 59 t b f;
#X obj 335 59 t b f;
#X obj 375 59 t b f;
#X obj 255 35 r pc5;
#X obj 295 35 r pc6;
#X obj 335 35 r pc7;
#X obj 375 35 r pc8;
#X obj 415 59 t b f;
#X obj 455 59 t b f;
#X obj 505 59 t b f;
#X obj 415 35 r pc9;
#X obj 455 35 r pc10;
#X obj 505 35 r pc11;
#X obj 141 325 add2list prepend;
#X obj 120 372 list;
#X obj 18 312 f 0;
#X obj 48 312 + 1;
#X obj 18 335 sel 11;
#X msg 33 248 0;
#X obj 57 198 t l b;
#X obj 120 393 outlet;
#X obj 75 258 t b f;
#X obj 141 303 mod 12;
#X obj 102 281 moses 1;
#X obj 75 237 list-dripv;
#X connect 0 0 3 0;
#X connect 1 0 2 0;
#X connect 2 0 3 0;
#X connect 2 1 3 1;
#X connect 3 0 30 0;
#X connect 4 0 3 0;
#X connect 4 1 3 2;
#X connect 5 0 4 0;
#X connect 6 0 3 0;
#X connect 6 1 3 3;
#X connect 7 0 3 0;
#X connect 7 1 3 4;
#X connect 8 0 6 0;
#X connect 9 0 7 0;
#X connect 10 0 3 0;
#X connect 10 1 3 5;
#X connect 11 0 3 0;
#X connect 11 1 3 6;
#X connect 12 0 3 0;
#X connect 12 1 3 7;
#X connect 13 0 3 0;
#X connect 13 1 3 8;
#X connect 14 0 10 0;
#X connect 15 0 11 0;
#X connect 16 0 12 0;
#X connect 17 0 13 0;
#X connect 18 0 3 0;
#X connect 18 1 3 9;
#X connect 19 0 3 0;
#X connect 19 1 3 10;
#X connect 20 0 3 0;
#X connect 20 1 3 11;
#X connect 21 0 18 0;
#X connect 22 0 19 0;
#X connect 23 0 20 0;
#X connect 24 0 25 1;
#X connect 25 0 31 0;
#X connect 26 0 28 0;
#X connect 26 0 27 0;
#X connect 27 0 26 1;
#X connect 28 0 25 0;
#X connect 29 0 26 1;
#X connect 30 0 35 0;
#X connect 30 1 24 1;
#X connect 30 1 29 0;
#X connect 32 0 26 0;
#X connect 32 1 34 0;
#X connect 33 0 24 0;
#X connect 34 1 33 0;
#X connect 35 0 32 0;
#X restore 395 164 pd make-set;
#X obj 39 268 tgl 15 0 pc1 empty empty 17 7 0 10 -262144 -1 -1 0 1
;
#X text 42 249 1;
#X obj 59 268 tgl 15 0 pc2 empty empty 17 7 0 10 -262144 -1 -1 0 2
;
#X obj 79 268 tgl 15 0 pc3 empty empty 17 7 0 10 -262144 -1 -1 0 3
;
#X text 63 249 2;
#X text 82 249 3;
#X obj 99 268 tgl 15 0 pc4 empty empty 17 7 0 10 -262144 -1 -1 0 4
;
#X obj 119 268 tgl 15 0 pc5 empty empty 17 7 0 10 -262144 -1 -1 0 5
;
#X obj 139 268 tgl 15 0 pc6 empty empty 17 7 0 10 -262144 -1 -1 0 6
;
#X obj 159 268 tgl 15 0 pc7 empty empty 17 7 0 10 -262144 -1 -1 0 7
;
#X text 103 249 4;
#X text 122 249 5;
#X text 143 249 6;
#X text 162 249 7;
#X obj 179 268 tgl 15 0 pc8 empty empty 17 7 0 10 -262144 -1 -1 0 8
;
#X obj 199 268 tgl 15 0 pc9 empty empty 17 7 0 10 -262144 -1 -1 0 9
;
#X obj 219 268 tgl 15 0 pc10 empty empty 17 7 0 10 -262144 -1 -1 0
10;
#X obj 239 268 tgl 15 0 pc11 empty empty 17 7 0 10 -262144 -1 -1 0
11;
#X text 183 249 8;
#X text 202 249 9;
#X text 219 249 10;
#X text 240 249 11;
#X obj 395 263 print normal-order;
#X text 99 388 list;
#X text 12 190 You might want to have a look to Forte's "The Structure
of Atonal Music" (Yale University Press \, 1973).;
#X obj 408 188 pcs-pseudoprimeform;
#X obj 408 213 print prime-form;
#X obj 395 238 pcs-normalorder;
#X text 2 23 finds the "pseudo" prime form of a pitch-class set;
#X text 15 227 TYPE IN A PITCH-CLASS SET:;
#X text 10 48 Converts a pitch-class set to its so-called "prime form"
\, that is \, an ordered list with minimized distance between the extreme
elements and so that the lowest element is 0;
#X text 169 388 - prime form version of the incoming pitch-class set.
;
#X text 10 93 In Forte's pc-set theory \, all intervals can be reduced
to a range of 6 intervals \, considering complementary intervals (i.e.
major second and minor seventh) equivalent. An actual prime form would
apply this equivalence \, providing the same set \, for example \,
to a major and a minor triad. For convenience in analysing tonal harmony
\, this object differentiates between mirror inverted pc-sets.;
#X obj 1 505 cnv 15 552 21 empty \$0-pddp.cnv.footer empty 20 12 0
14 -228856 -66577 0;
#X obj 1 458 cnv 3 550 3 empty \$0-pddp.cnv.argument arguments 8 12
0 13 -228856 -1 0;
#X text 335 506 angelfaraldo@gmail.com \, 2015-2016;
#X obj 79 389 cnv 17 3 65 empty \$0-pddp.cnv.let.0 0 5 9 0 16 -228856
-162280 0;
#X obj 7 506 pddp/pddplink https://github.com/angelfaraldo/pd-symbolic
;
#X connect 8 0 34 0;
#X connect 8 0 36 0;
#X connect 34 0 35 0;
#X connect 36 0 31 0;
