#N canvas 245 23 618 720 10;
#X obj 30 0 inlet;
#X text 69 -1 (we assume there are not duplicate classes);
#X obj 139 270 list split 1;
#X obj 39 305 list split;
#X obj 96 331 -;
#X obj 30 23 t l b;
#X msg 231 621 clear;
#X obj 188 461 list append;
#X obj 176 380 f 0;
#X obj 206 380 + 1;
#X msg 191 359 0;
#X obj 96 428 list prepend;
#X obj 96 353 t f b;
#X msg 141 579 sort -1 1 \, renumber \, 0;
#X obj 215 667 list split 1;
#X obj 141 537 ==;
#X obj 176 402 t f f;
#X obj 141 558 sel 1;
#X obj 161 510 f;
#X obj 188 483 t b l;
#X obj 22 177 list;
#X obj 139 200 list split 1;
#X obj 139 222 + 12;
#X obj 139 245 list prepend;
#X obj 30 93 list length;
#X obj 22 134 until;
#X obj 96 283 t f f;
#X obj 30 113 t f f;
#X obj 96 262 - 1;
#X obj 101 46 s \$0-reset;
#X obj 215 223 r \$0-reset;
#X obj 231 601 r \$0-reset;
#X obj 191 338 r \$0-reset;
#X obj 30 66 t l l l;
#X obj 302 667 outlet;
#X obj 22 208 t l l l l;
#X obj 326 169 list split 1;
#X obj 326 214 list prepend;
#X obj 402 192 r \$0-reset;
#X obj 287 199 list;
#X obj 22 155 t b b;
#X obj 302 646 pcs-transpose;
#X obj 302 599 t l f;
#X obj 377 624 * -1;
#X obj 30 46 zexy/sort;
#X obj 215 645 cyclone/coll;
#C restore;
#X connect 0 0 5 0;
#X connect 2 0 4 1;
#X connect 3 1 4 0;
#X connect 4 0 12 0;
#X connect 5 0 44 0;
#X connect 5 1 29 0;
#X connect 6 0 45 0;
#X connect 7 0 19 0;
#X connect 8 0 9 0;
#X connect 8 0 16 0;
#X connect 9 0 8 1;
#X connect 10 0 8 1;
#X connect 11 0 7 0;
#X connect 12 0 11 0;
#X connect 12 1 8 0;
#X connect 13 0 45 0;
#X connect 14 1 42 0;
#X connect 15 0 17 0;
#X connect 16 0 18 1;
#X connect 16 1 11 1;
#X connect 17 0 13 0;
#X connect 18 0 15 0;
#X connect 19 0 18 0;
#X connect 19 1 45 0;
#X connect 20 0 35 0;
#X connect 21 0 22 0;
#X connect 21 1 23 1;
#X connect 22 0 23 0;
#X connect 23 0 20 1;
#X connect 24 0 27 0;
#X connect 25 0 40 0;
#X connect 26 0 3 1;
#X connect 26 1 15 1;
#X connect 27 0 25 0;
#X connect 27 1 28 0;
#X connect 28 0 26 0;
#X connect 30 0 23 1;
#X connect 31 0 6 0;
#X connect 32 0 10 0;
#X connect 33 0 24 0;
#X connect 33 1 20 1;
#X connect 33 2 39 1;
#X connect 35 0 21 0;
#X connect 35 1 3 0;
#X connect 35 2 2 0;
#X connect 36 0 37 0;
#X connect 36 1 37 1;
#X connect 37 0 39 1;
#X connect 38 0 37 1;
#X connect 39 0 7 1;
#X connect 39 0 36 0;
#X connect 40 0 20 0;
#X connect 40 1 39 0;
#X connect 41 0 34 0;
#X connect 42 0 41 0;
#X connect 42 1 43 0;
#X connect 43 0 41 1;
#X connect 44 0 33 0;
#X connect 45 0 14 0;
