#N canvas 3 23 316 380 10;
#X obj 55 9 inlet;
#X obj 49 327 outlet;
#X obj 49 305 list;
#X obj 13 252 ==;
#X obj 13 271 sel 1;
#X obj 13 152 t b f;
#X msg 74 153 1;
#X obj 13 207 f 1;
#X obj 43 207 + 1;
#X obj 191 214 list length;
#X obj 55 31 t l b l;
#X obj 70 207 add2list prepend;
#X obj 13 106 abs;
#X obj 13 128 mod 12;
#X obj 13 84 - 12;
#X obj 13 61 list-dripv;
#X connect 0 0 10 0;
#X connect 2 0 1 0;
#X connect 3 0 4 0;
#X connect 4 0 2 0;
#X connect 5 0 7 0;
#X connect 5 1 11 0;
#X connect 6 0 7 1;
#X connect 7 0 8 0;
#X connect 7 0 3 0;
#X connect 8 0 7 1;
#X connect 9 0 3 1;
#X connect 10 0 15 0;
#X connect 10 1 6 0;
#X connect 10 1 11 1;
#X connect 10 2 9 0;
#X connect 11 0 2 1;
#X connect 12 0 13 0;
#X connect 13 0 5 0;
#X connect 14 0 12 0;
#X connect 15 0 14 0;
