#N canvas 558 164 543 328 10;
#X obj 169 65 swap;
#X obj 169 16 inlet;
#X obj 169 90 pack 0 2;
#X obj 21 151 sel 0;
#X obj 169 112 route 1 0;
#X obj 194 221 change -12;
#X obj 194 244 outlet;
#X obj 190 40 r \$2-play;
#X obj 21 110 r \$2-current-step;
#X obj 154 182 f;
#X obj 21 131 mod \$1;
#X connect 0 0 2 0;
#X connect 0 1 2 1;
#X connect 1 0 0 0;
#X connect 2 0 4 0;
#X connect 3 0 9 0;
#X connect 4 0 9 1;
#X connect 4 1 5 0;
#X connect 4 1 9 1;
#X connect 5 0 6 0;
#X connect 7 0 0 1;
#X connect 8 0 10 0;
#X connect 9 0 5 0;
#X connect 10 0 3 0;
