#N canvas 637 386 332 154 10;
#X obj 10 100 list split 1;
#X obj 10 14 inlet;
#X obj 10 124 outlet;
#X obj 82 74 t l;
#X obj 10 37 route bang list;
#X obj 10 74 list;
#X obj 79 125 outlet;
#X connect 0 0 2 0;
#X connect 0 1 3 0;
#X connect 0 2 6 0;
#X connect 1 0 4 0;
#X connect 3 0 5 1;
#X connect 4 0 5 0;
#X connect 4 1 5 1;
#X connect 5 0 0 0;
