#N canvas 1 98 450 300 10;
#X obj 93 89 &;
#X obj 93 112 sel 1;
#X obj 93 61 == \$1;
#X obj 133 61 == \$2;
#X obj 93 16 inlet;
#X obj 93 134 outlet;
#X obj 93 38 unpack;
#X connect 0 0 1 0;
#X connect 1 0 5 0;
#X connect 2 0 0 0;
#X connect 3 0 0 1;
#X connect 4 0 6 0;
#X connect 6 0 2 0;
#X connect 6 1 3 0;
