#N canvas 1 23 450 300 10;
#X obj 23 129 &;
#X obj 23 101 == \$1;
#X obj 63 101 == \$2;
#X obj 63 26 inlet;
#X obj 23 204 outlet;
#X obj 23 78 unpack;
#X obj 168 190 list;
#X obj 63 47 t l l;
#X obj 23 152 sel 1 0;
#X obj 168 214 outlet;
#X connect 0 0 8 0;
#X connect 1 0 0 0;
#X connect 2 0 0 1;
#X connect 3 0 7 0;
#X connect 5 0 1 0;
#X connect 5 1 2 0;
#X connect 6 0 9 0;
#X connect 7 0 5 0;
#X connect 7 1 6 1;
#X connect 8 0 4 0;
#X connect 8 1 6 0;
