#N canvas 0 23 637 452 10;
#X obj 149 212 f;
#X obj 175 213 + 1;
#X obj 149 174 t f b;
#X msg 191 191 0;
#X obj 149 232 t f f;
#X obj 149 193 until;
#X obj 192 124 t b f;
#X obj 149 292 expr 1/(1+pow(2.718281828459 \, -$f1*$f2));
#X obj 149 272 / 1;
#X obj 192 75 inlet;
#X text 230 76 weight value (-1 to 1);
#N canvas 285 178 501 488 list_multiply 0;
#X obj 65 39 inlet;
#X obj 301 38 inlet;
#X text 299 20 list of probabilities;
#X text 41 19 list with weights;
#X obj 127 116 list split 1;
#X obj 290 109 list split 1;
#X obj 305 185 list;
#X obj 172 196 list;
#X obj 104 141 t b b f;
#X obj 235 187 *;
#X obj 303 283 list;
#X obj 90 366 list;
#X obj 89 386 outlet;
#X msg 410 92 bang;
#X obj 269 68 list;
#X obj 90 82 t b a b b;
#X obj 235 275 t a a;
#X obj 235 254 list prepend;
#X obj 87 61 list;
#X obj 228 37 t b a;
#X connect 0 0 15 0;
#X connect 0 0 18 1;
#X connect 1 0 19 0;
#X connect 4 0 8 0;
#X connect 4 1 7 1;
#X connect 5 0 9 1;
#X connect 5 1 6 1;
#X connect 6 0 5 0;
#X connect 7 0 4 0;
#X connect 8 0 7 0;
#X connect 8 1 6 0;
#X connect 8 2 9 0;
#X connect 9 0 17 0;
#X connect 10 0 17 1;
#X connect 11 0 12 0;
#X connect 13 0 17 1;
#X connect 14 0 5 0;
#X connect 15 0 11 0;
#X connect 15 1 4 0;
#X connect 15 2 13 0;
#X connect 15 3 14 0;
#X connect 16 0 11 1;
#X connect 16 1 10 0;
#X connect 17 0 16 0;
#X connect 18 0 15 0;
#X connect 19 0 18 0;
#X connect 19 1 14 1;
#X restore 149 373 pd list_multiply;
#X obj 149 409 outlet;
#X text 253 94 skewness (can have values form 0 to 10);
#X obj 435 321 inlet probabilities;
#X text 431 303 input a list with probabilities;
#X obj 149 154 f \$1;
#X obj 228 193 loadbang;
#X obj 228 234 / 2;
#X obj 149 251 -;
#X obj 229 212 f \$1;
#X obj 411 398 list length;
#X obj 411 418 s \$0-length;
#X obj 270 137 r \$0-length;
#X obj 321 195 r \$0-length;
#X obj 268 324 r \$0-length;
#X obj 346 397 pack;
#X obj 346 418 outlet;
#X obj 435 356 t a a a;
#X obj 149 314 * 2;
#X obj 527 53 r \$0-length;
#X obj 527 79 * 0.1;
#X obj 192 96 *;
#X obj 149 341 zexy/repack \$1;
#X connect 0 0 1 0;
#X connect 0 0 4 0;
#X connect 1 0 0 1;
#X connect 2 0 5 0;
#X connect 2 1 3 0;
#X connect 3 0 0 1;
#X connect 4 0 19 0;
#X connect 4 1 26 1;
#X connect 5 0 0 0;
#X connect 6 0 16 0;
#X connect 6 1 7 1;
#X connect 7 0 26 0;
#X connect 7 0 29 0;
#X connect 8 0 7 0;
#X connect 9 0 32 0;
#X connect 11 0 12 0;
#X connect 14 0 28 0;
#X connect 16 0 2 0;
#X connect 17 0 20 0;
#X connect 18 0 19 1;
#X connect 19 0 8 0;
#X connect 20 0 18 0;
#X connect 21 0 22 0;
#X connect 23 0 16 1;
#X connect 24 0 20 0;
#X connect 25 0 33 1;
#X connect 26 0 27 0;
#X connect 28 0 11 1;
#X connect 28 1 21 0;
#X connect 29 0 33 0;
#X connect 30 0 31 0;
#X connect 31 0 32 1;
#X connect 32 0 6 0;
#X connect 33 0 11 0;
