#N canvas 0 22 903 697 10;
#X obj 649 19 r reset-analysis;
#X obj 483 21 r reset-slaves;
#X msg 649 44 \; master-chord-fill-0 C 100 1 \; master-chord-fill-1
C 100 1 \; master-chord-fill-2 C 100 1 \; master-chord-fill-3 C 100
1 \; master-chord-fill-4 C 100 1 \; master-chord-fill-5 C 100 1 \;
master-chord-fill-6 C 100 1 \; master-chord-fill-7 C 100 1 \; slave-chord-pos-0
100 \; slave-chord-pos-1 100 \; slave-chord-pos-2 100 \; slave-chord-pos-3
100 \; slave-chord-pos-4 100 \; slave-chord-pos-5 100 \; slave-chord-pos-6
100 \; slave-chord-pos-7 100 \; slave-chord-pos-8 100 \; slave-chord-pos-9
100 \; slave-chord-pos-10 100 \; slave-chord-pos-11 100 \; slave-chord-pos-12
100 \; slave-chord-pos-13 100 \; slave-chord-pos-14 100 \; slave-chord-pos-15
100 \; slave-chord-pos-16 100 \; slave-chord-pos-17 100 \; slave-chord-pos-18
100 \; slave-chord-pos-19 100 \; slave-chord-pos-20 100 \; slave-chord-pos-21
100 \; slave-chord-pos-22 100 \; slave-chord-pos-23 100 \; slave-chord-pos-24
100 \; slave-chord-pos-25 100 \; slave-chord-pos-26 100 \; slave-chord-pos-27
100 \; slave-chord-pos-28 100 \; slave-chord-pos-29 100 \; slave-chord-pos-30
100 \; slave-chord-pos-31 100 \;;
#X msg 483 46 \; slave-chord-pos-0 100 \; slave-chord-pos-1 100 \;
slave-chord-pos-2 100 \; slave-chord-pos-3 100 \; slave-chord-pos-4
100 \; slave-chord-pos-5 100 \; slave-chord-pos-6 100 \; slave-chord-pos-7
100 \; slave-chord-pos-8 100 \; slave-chord-pos-9 100 \; slave-chord-pos-10
100 \; slave-chord-pos-11 100 \; slave-chord-pos-12 100 \; slave-chord-pos-13
100 \; slave-chord-pos-14 100 \; slave-chord-pos-15 100 \; slave-chord-pos-16
100 \; slave-chord-pos-17 100 \; slave-chord-pos-18 100 \; slave-chord-pos-19
100 \; slave-chord-pos-20 100 \; slave-chord-pos-21 100 \; slave-chord-pos-22
100 \; slave-chord-pos-23 100 \; slave-chord-pos-24 100 \; slave-chord-pos-25
100 \; slave-chord-pos-26 100 \; slave-chord-pos-27 100 \; slave-chord-pos-28
100 \; slave-chord-pos-29 100 \; slave-chord-pos-30 100 \; slave-chord-pos-31
100 \;;
#N canvas 402 50 401 161 schord0 0;
#X obj 7 36 filledpolygon 222 666 1 0 60 dur 60 dur 90 0 90;
#X obj 7 62 drawsymbol chordname 5 65 999;
#X obj 5 8 struct schord0 float x float dur symbol chordname;
#X restore 8 224 pd schord0;
#N canvas 402 50 401 161 schord1 0;
#X obj 7 36 filledpolygon 222 666 1 0 60 dur 60 dur 90 0 90;
#X obj 5 8 struct schord1 float x float dur symbol chordname;
#X obj 7 62 drawsymbol chordname 5 65 999;
#X restore 8 244 pd schord1;
#N canvas 402 50 401 161 schord2 0;
#X obj 7 36 filledpolygon 222 666 1 0 60 dur 60 dur 90 0 90;
#X obj 7 62 drawsymbol chordname 5 65 999;
#X obj 5 8 struct schord2 float x float dur symbol chordname;
#X restore 8 264 pd schord2;
#N canvas 402 50 401 161 schord3 0;
#X obj 7 36 filledpolygon 222 666 1 0 60 dur 60 dur 90 0 90;
#X obj 7 62 drawsymbol chordname 5 65 999;
#X obj 5 8 struct schord3 float x float dur symbol chordname;
#X restore 8 284 pd schord3;
#N canvas 402 50 401 161 schord4 0;
#X obj 7 36 filledpolygon 222 666 1 0 60 dur 60 dur 90 0 90;
#X obj 7 62 drawsymbol chordname 5 65 999;
#X obj 5 8 struct schord4 float x float dur symbol chordname;
#X restore 8 304 pd schord4;
#N canvas 402 50 401 161 schord5 0;
#X obj 7 36 filledpolygon 222 666 1 0 60 dur 60 dur 90 0 90;
#X obj 7 62 drawsymbol chordname 5 65 999;
#X obj 5 8 struct schord5 float x float dur symbol chordname;
#X restore 8 324 pd schord5;
#N canvas 402 50 401 161 schord6 0;
#X obj 7 36 filledpolygon 222 666 1 0 60 dur 60 dur 90 0 90;
#X obj 7 62 drawsymbol chordname 5 65 999;
#X obj 5 8 struct schord6 float x float dur symbol chordname;
#X restore 8 344 pd schord6;
#N canvas 402 50 401 161 schord7 0;
#X obj 7 36 filledpolygon 222 666 1 0 60 dur 60 dur 90 0 90;
#X obj 7 62 drawsymbol chordname 5 65 999;
#X obj 5 8 struct schord7 float x float dur symbol chordname;
#X restore 8 364 pd schord7;
#N canvas 402 50 401 161 schord8 0;
#X obj 7 36 filledpolygon 222 666 1 0 60 dur 60 dur 90 0 90;
#X obj 7 62 drawsymbol chordname 5 65 999;
#X obj 5 8 struct schord8 float x float dur symbol chordname;
#X restore 8 384 pd schord8;
#N canvas 402 50 401 161 schord9 0;
#X obj 7 36 filledpolygon 222 666 1 0 60 dur 60 dur 90 0 90;
#X obj 7 62 drawsymbol chordname 5 65 999;
#X obj 5 8 struct schord9 float x float dur symbol chordname;
#X restore 8 404 pd schord9;
#N canvas 402 50 401 161 schord10 0;
#X obj 7 36 filledpolygon 222 666 1 0 60 dur 60 dur 90 0 90;
#X obj 7 62 drawsymbol chordname 5 65 999;
#X obj 5 8 struct schord10 float x float dur symbol chordname;
#X restore 8 424 pd schord10;
#N canvas 402 50 401 161 schord11 0;
#X obj 7 36 filledpolygon 222 666 1 0 60 dur 60 dur 90 0 90;
#X obj 7 62 drawsymbol chordname 5 65 999;
#X obj 5 8 struct schord11 float x float dur symbol chordname;
#X restore 8 444 pd schord11;
#N canvas 402 50 401 161 schord12 0;
#X obj 7 36 filledpolygon 222 666 1 0 60 dur 60 dur 90 0 90;
#X obj 7 62 drawsymbol chordname 5 65 999;
#X obj 5 8 struct schord12 float x float dur symbol chordname;
#X restore 8 464 pd schord12;
#N canvas 402 50 401 161 schord13 0;
#X obj 7 36 filledpolygon 222 666 1 0 60 dur 60 dur 90 0 90;
#X obj 7 62 drawsymbol chordname 5 65 999;
#X obj 5 8 struct schord13 float x float dur symbol chordname;
#X restore 8 484 pd schord13;
#N canvas 402 50 401 161 schord14 0;
#X obj 7 36 filledpolygon 222 666 1 0 60 dur 60 dur 90 0 90;
#X obj 7 62 drawsymbol chordname 5 65 999;
#X obj 5 8 struct schord14 float x float dur symbol chordname;
#X restore 8 504 pd schord14;
#N canvas 402 50 401 161 schord15 0;
#X obj 7 36 filledpolygon 222 666 1 0 60 dur 60 dur 90 0 90;
#X obj 7 62 drawsymbol chordname 5 65 999;
#X obj 5 8 struct schord15 float x float dur symbol chordname;
#X restore 8 524 pd schord15;
#N canvas 402 50 401 161 schord16 0;
#X obj 7 36 filledpolygon 222 666 1 0 60 dur 60 dur 90 0 90;
#X obj 7 62 drawsymbol chordname 5 65 999;
#X obj 5 8 struct schord16 float x float dur symbol chordname;
#X restore 248 224 pd schord16;
#N canvas 402 50 401 161 schord17 0;
#X obj 7 36 filledpolygon 222 666 1 0 60 dur 60 dur 90 0 90;
#X obj 7 62 drawsymbol chordname 5 65 999;
#X obj 5 8 struct schord17 float x float dur symbol chordname;
#X restore 248 244 pd schord17;
#N canvas 402 50 401 161 schord18 0;
#X obj 7 36 filledpolygon 222 666 1 0 60 dur 60 dur 90 0 90;
#X obj 7 62 drawsymbol chordname 5 65 999;
#X obj 5 8 struct schord18 float x float dur symbol chordname;
#X restore 248 264 pd schord18;
#N canvas 402 50 401 161 schord19 0;
#X obj 7 36 filledpolygon 222 666 1 0 60 dur 60 dur 90 0 90;
#X obj 7 62 drawsymbol chordname 5 65 999;
#X obj 5 8 struct schord19 float x float dur symbol chordname;
#X restore 248 284 pd schord19;
#N canvas 402 50 401 161 schord20 0;
#X obj 7 36 filledpolygon 222 666 1 0 60 dur 60 dur 90 0 90;
#X obj 7 62 drawsymbol chordname 5 65 999;
#X obj 5 8 struct schord20 float x float dur symbol chordname;
#X restore 248 304 pd schord20;
#N canvas 402 50 401 161 schord21 0;
#X obj 7 36 filledpolygon 222 666 1 0 60 dur 60 dur 90 0 90;
#X obj 7 62 drawsymbol chordname 5 65 999;
#X obj 5 8 struct schord21 float x float dur symbol chordname;
#X restore 248 324 pd schord21;
#N canvas 402 50 401 161 schord22 0;
#X obj 7 36 filledpolygon 222 666 1 0 60 dur 60 dur 90 0 90;
#X obj 7 62 drawsymbol chordname 5 65 999;
#X obj 5 8 struct schord22 float x float dur symbol chordname;
#X restore 248 344 pd schord22;
#N canvas 402 50 401 161 schord23 0;
#X obj 7 36 filledpolygon 222 666 1 0 60 dur 60 dur 90 0 90;
#X obj 7 62 drawsymbol chordname 5 65 999;
#X obj 5 8 struct schord23 float x float dur symbol chordname;
#X restore 248 364 pd schord23;
#N canvas 402 50 401 161 schord24 0;
#X obj 7 36 filledpolygon 222 666 1 0 60 dur 60 dur 90 0 90;
#X obj 7 62 drawsymbol chordname 5 65 999;
#X obj 5 8 struct schord24 float x float dur symbol chordname;
#X restore 248 384 pd schord24;
#N canvas 402 50 401 161 schord25 0;
#X obj 7 36 filledpolygon 222 666 1 0 60 dur 60 dur 90 0 90;
#X obj 7 62 drawsymbol chordname 5 65 999;
#X obj 5 8 struct schord25 float x float dur symbol chordname;
#X restore 248 404 pd schord25;
#N canvas 402 50 401 161 schord26 0;
#X obj 7 36 filledpolygon 222 666 1 0 60 dur 60 dur 90 0 90;
#X obj 7 62 drawsymbol chordname 5 65 999;
#X obj 5 8 struct schord26 float x float dur symbol chordname;
#X restore 248 424 pd schord26;
#N canvas 402 50 401 161 schord27 0;
#X obj 7 36 filledpolygon 222 666 1 0 60 dur 60 dur 90 0 90;
#X obj 7 62 drawsymbol chordname 5 65 999;
#X obj 5 8 struct schord27 float x float dur symbol chordname;
#X restore 248 444 pd schord27;
#N canvas 402 50 401 161 schord28 0;
#X obj 7 36 filledpolygon 222 666 1 0 60 dur 60 dur 90 0 90;
#X obj 7 62 drawsymbol chordname 5 65 999;
#X obj 5 8 struct schord28 float x float dur symbol chordname;
#X restore 248 464 pd schord28;
#N canvas 402 50 401 161 schord29 0;
#X obj 7 36 filledpolygon 222 666 1 0 60 dur 60 dur 90 0 90;
#X obj 7 62 drawsymbol chordname 5 65 999;
#X obj 5 8 struct schord29 float x float dur symbol chordname;
#X restore 248 484 pd schord29;
#N canvas 402 50 401 161 schord30 0;
#X obj 7 36 filledpolygon 222 666 1 0 60 dur 60 dur 90 0 90;
#X obj 7 62 drawsymbol chordname 5 65 999;
#X obj 4 7 struct schord30 float x float dur symbol chordname;
#X restore 248 504 pd schord30;
#N canvas 402 50 401 161 schord31 0;
#X obj 7 36 filledpolygon 222 666 1 0 60 dur 60 dur 90 0 90;
#X obj 7 62 drawsymbol chordname 5 65 999;
#X obj 5 8 struct schord31 float x float dur symbol chordname;
#X restore 248 524 pd schord31;
#X obj 82 244 slave-chord-structure 1;
#X obj 322 224 slave-chord-structure 16;
#X obj 322 524 slave-chord-structure 31;
#X obj 82 224 slave-chord-structure 0;
#X obj 82 264 slave-chord-structure 2;
#X obj 82 284 slave-chord-structure 3;
#X obj 82 304 slave-chord-structure 4;
#X obj 82 324 slave-chord-structure 5;
#X obj 82 344 slave-chord-structure 6;
#X obj 82 364 slave-chord-structure 7;
#X obj 82 384 slave-chord-structure 8;
#X obj 82 404 slave-chord-structure 9;
#X obj 82 424 slave-chord-structure 10;
#X obj 82 444 slave-chord-structure 11;
#X obj 82 464 slave-chord-structure 12;
#X obj 82 484 slave-chord-structure 13;
#X obj 82 504 slave-chord-structure 14;
#X obj 82 524 slave-chord-structure 15;
#X obj 322 504 slave-chord-structure 30;
#X obj 322 484 slave-chord-structure 29;
#X obj 322 464 slave-chord-structure 28;
#X obj 322 444 slave-chord-structure 27;
#X obj 322 424 slave-chord-structure 26;
#X obj 322 404 slave-chord-structure 25;
#X obj 322 384 slave-chord-structure 24;
#X obj 322 364 slave-chord-structure 23;
#X obj 322 344 slave-chord-structure 22;
#X obj 322 324 slave-chord-structure 21;
#X obj 322 304 slave-chord-structure 20;
#X obj 322 284 slave-chord-structure 19;
#X obj 322 264 slave-chord-structure 18;
#X obj 322 244 slave-chord-structure 17;
#N canvas 351 127 445 491 legato-visualization 0;
#X obj 55 341 f 0;
#X obj 85 341 + 1;
#X obj 40 387 s;
#X obj 70 269 r density, f 10;
#X msg 70 316 0;
#X obj 28 206 tabread new-onsets;
#X obj 99 316 s reset-slaves;
#X obj 28 226 pack;
#X obj 28 247 route 1;
#X obj 70 292 t b b;
#X obj 9 75 until;
#X obj 38 164 + 1;
#X obj 9 163 f 0;
#X obj 24 96 r reset-slaves;
#X msg 24 141 0;
#X obj 34 117 r reset-analysis;
#X obj 28 269 t f b;
#X obj 9 8 r density;
#X obj 55 363 makefilename slave-chord-pos-%d;
#X obj 9 185 t f f f;
#X obj 9 31 delay 1;
#X obj 9 433 s update-legato;
#X msg 9 53 64;
#X obj 9 410 sel 63;
#X text 60 32 try to avoid this!;
#X connect 0 0 1 0;
#X connect 0 0 18 0;
#X connect 1 0 0 1;
#X connect 3 0 9 0;
#X connect 4 0 0 1;
#X connect 5 0 7 0;
#X connect 7 0 8 0;
#X connect 8 0 16 0;
#X connect 9 0 4 0;
#X connect 9 1 6 0;
#X connect 10 0 12 0;
#X connect 11 0 12 1;
#X connect 12 0 11 0;
#X connect 12 0 19 0;
#X connect 13 0 14 0;
#X connect 14 0 12 1;
#X connect 15 0 14 0;
#X connect 16 0 2 0;
#X connect 16 1 0 0;
#X connect 17 0 20 0;
#X connect 18 0 2 1;
#X connect 19 0 23 0;
#X connect 19 1 5 0;
#X connect 19 2 7 1;
#X connect 20 0 22 0;
#X connect 22 0 10 0;
#X connect 23 0 21 0;
#X restore 42 69 pd legato-visualization;
#N canvas 12 23 603 751 event-visualization 0;
#X obj 305 720 s;
#X obj 23 115 until;
#X obj 52 139 + 1;
#X obj 23 138 f 0;
#X obj 304 29 t b b;
#X obj 320 698 makefilename slave-chord-dur-%d;
#X obj 197 175 tabread slave-pattern;
#X msg 68 115 0;
#X obj 403 453 + 1;
#X obj 374 453 f 1;
#X msg 385 426 1;
#X obj 339 475 f;
#X obj 235 274 -;
#X obj 197 238 t f f f f;
#X msg 197 196 2 \$1;
#X obj 197 218 pow;
#X msg 331 175 10;
#X obj 334 275 sel 0.5;
#X obj 292 394 t b b;
#X obj 214 297 pack;
#X obj 385 354 sel -8;
#X obj 134 280 moses 0;
#X obj 50 332 spigot;
#X obj 250 530 list;
#X obj 281 582 list length;
#X obj 310 628 + 1;
#X obj 281 627 f 0;
#X msg 367 580 0;
#X obj 250 553 t l l b;
#X obj 281 604 until;
#X obj 281 674 + 1;
#X obj 281 652 t b f f;
#X obj 218 651 list;
#X obj 304 7 r update-legato;
#X obj 23 73 del 10;
#X obj 292 325 pdmus/select-both 2 0;
#X obj 203 354 pdmus/select-both 1 0.5;
#X obj 119 394 pdmus/select-both 1 -1;
#X obj 50 354 pdmus/select-both 2 1.5;
#X obj 218 695 zexy/packel;
#X obj 341 500 pdmus/add2list prepend;
#X obj 23 94 f 65;
#X obj 3 354 sel 64;
#X connect 1 0 3 0;
#X connect 2 0 3 1;
#X connect 3 0 2 0;
#X connect 3 0 6 0;
#X connect 3 0 42 0;
#X connect 4 0 34 0;
#X connect 4 1 7 0;
#X connect 4 1 16 0;
#X connect 4 1 40 1;
#X connect 5 0 0 1;
#X connect 6 0 14 0;
#X connect 7 0 3 1;
#X connect 8 0 9 1;
#X connect 9 0 8 0;
#X connect 9 0 11 1;
#X connect 10 0 9 0;
#X connect 11 0 40 0;
#X connect 12 0 19 1;
#X connect 12 0 20 0;
#X connect 13 0 21 0;
#X connect 13 1 19 0;
#X connect 13 1 17 0;
#X connect 13 2 12 1;
#X connect 13 3 12 0;
#X connect 14 0 15 0;
#X connect 15 0 13 0;
#X connect 16 0 12 1;
#X connect 17 0 9 0;
#X connect 18 0 10 0;
#X connect 18 1 11 0;
#X connect 19 0 22 0;
#X connect 19 0 35 0;
#X connect 19 0 36 0;
#X connect 19 0 37 0;
#X connect 20 0 10 0;
#X connect 21 1 22 1;
#X connect 22 0 38 0;
#X connect 23 0 28 0;
#X connect 24 0 29 0;
#X connect 25 0 26 1;
#X connect 26 0 25 0;
#X connect 26 0 31 0;
#X connect 27 0 26 1;
#X connect 28 0 24 0;
#X connect 28 1 32 1;
#X connect 28 2 27 0;
#X connect 29 0 26 0;
#X connect 30 0 39 1;
#X connect 31 0 32 0;
#X connect 31 1 30 0;
#X connect 31 2 5 0;
#X connect 32 0 39 0;
#X connect 33 0 4 0;
#X connect 34 0 41 0;
#X connect 35 0 18 0;
#X connect 36 0 18 0;
#X connect 37 0 18 0;
#X connect 38 0 18 0;
#X connect 39 0 0 0;
#X connect 40 0 23 1;
#X connect 41 0 1 0;
#X connect 42 0 23 0;
#X restore 42 48 pd event-visualization;
#X connect 0 0 2 0;
#X connect 1 0 3 0;
