#N canvas 364 145 326 266 10;
#X msg 115 142 next;
#X obj 115 193 t b p;
#X obj 115 123 until;
#X obj 115 102 t b f, f 7;
#X msg 154 142 traverse pd-\$1-data;
#X obj 115 81 \$2;
#X obj 19 104 + 1;
#X obj 19 60 t a b, f 16;
#X obj 80 150 - 5;
#X obj 19 125 * 26;
#X obj 80 126 * 26;
#X obj 19 149 + 2;
#X obj 19 82 unpack f f;
#N canvas 402 50 401 161 \$2-schord\$1 0;
#X obj 7 36 filledpolygon 222 666 1 0 60 dur 60 dur 90 0 90;
#X obj 5 8 struct \$2-schord\$1 float x float dur;
#X restore 19 17 pd \$2-schord\$1;
#X obj 19 39 r \$2-slave-chord-fill-\$1;
#X obj 115 170 pointer \$2-schord\$1;
#X obj 19 215 set \$2-schord\$1 x dur;
#X connect 0 0 15 0;
#X connect 1 0 2 1;
#X connect 1 1 16 2;
#X connect 2 0 0 0;
#X connect 3 0 2 0;
#X connect 3 1 4 0;
#X connect 4 0 15 0;
#X connect 5 0 3 0;
#X connect 6 0 9 0;
#X connect 7 0 12 0;
#X connect 7 1 5 0;
#X connect 8 0 16 1;
#X connect 9 0 11 0;
#X connect 10 0 8 0;
#X connect 11 0 16 0;
#X connect 12 0 6 0;
#X connect 12 1 10 0;
#X connect 14 0 7 0;
#X connect 15 0 1 0;
