#N canvas 660 300 357 328 10;
#X msg 160 215 next;
#X obj 160 266 t b p;
#X obj 160 196 until;
#X obj 160 175 t b f, f 7;
#X msg 199 215 traverse pd-\$1-data;
#X obj 160 154 \$2;
#X obj 19 60 t a b, f 24;
#X obj 19 125 * 26;
#X obj 19 82 unpack f f;
#N canvas 393 115 401 161 \$2-schord\$1 0;
#X obj 5 8 struct \$2-schord\$1 float x float dur;
#X obj 5 52 sel 64;
#X msg 5 78 0;
#X obj 38 78 sel \$1;
#X msg 38 101 1;
#X obj 5 30 r \$2-slave-chord-show;
#X obj 5 126 filledpolygon 222 333 2 0 60 dur 60 dur 90 0 90;
#X connect 1 0 2 0;
#X connect 1 1 3 0;
#X connect 2 0 6 0;
#X connect 3 0 4 0;
#X connect 4 0 6 0;
#X connect 5 0 1 0;
#X restore 19 17 pd \$2-schord\$1;
#X obj 19 39 r \$2-slave-chord-fill-\$1;
#X obj 160 243 pointer \$2-schord\$1;
#X obj 19 288 set \$2-schord\$1 x dur, f 28;
#X obj 19 266 pack, f 6;
#X obj 38 176 +, f 6;
#X obj 50 221 -;
#X obj 19 147 t f f f;
#X obj 38 198 min 1690;
#X obj 19 242 + 2;
#X obj 50 243 - 5;
#X obj 19 104 + 1.2;
#X obj 76 125 * 25.5;
#X connect 0 0 11 0;
#X connect 1 0 2 1;
#X connect 1 1 12 2;
#X connect 2 0 0 0;
#X connect 3 0 2 0;
#X connect 3 1 4 0;
#X connect 4 0 11 0;
#X connect 5 0 3 0;
#X connect 6 0 8 0;
#X connect 6 1 5 0;
#X connect 7 0 16 0;
#X connect 8 0 20 0;
#X connect 8 1 21 0;
#X connect 10 0 6 0;
#X connect 11 0 1 0;
#X connect 13 0 12 0;
#X connect 14 0 17 0;
#X connect 15 0 19 0;
#X connect 16 0 18 0;
#X connect 16 1 14 0;
#X connect 16 2 15 1;
#X connect 17 0 15 0;
#X connect 18 0 13 0;
#X connect 19 0 13 1;
#X connect 20 0 7 0;
#X connect 21 0 14 1;
