#N canvas 192 57 535 403 10;
#X floatatom 14 164 5 0 0 0 - - -, f 5;
#X obj 14 182 * 25;
#X obj 78 203 * 25;
#X obj 51 183 t b f;
#X msg 185 140 traverse pd-data;
#X obj 158 94 t b b;
#X msg 145 140 next;
#X obj 145 196 t b p;
#X obj 145 121 until;
#X obj 14 142 + 1;
#X obj 299 53 r slave-chord-name-\$1;
#X obj 120 33 r slave-chord-dur-\$1;
#X obj 49 11 r slave-chord-pos-\$1;
#X obj 145 173 pointer schord\$1;
#X obj 26 228 set schord\$1 x dur;
#X obj 171 272 set -symbol schord\$1 chordname;
#X obj 49 49 t b f b;
#X obj 120 53 t b f b;
#X msg 171 249 symbol;
#X connect 0 0 1 0;
#X connect 1 0 14 0;
#X connect 2 0 14 1;
#X connect 3 0 14 0;
#X connect 3 1 2 0;
#X connect 4 0 13 0;
#X connect 5 0 8 0;
#X connect 5 1 4 0;
#X connect 6 0 13 0;
#X connect 7 0 8 1;
#X connect 7 1 14 2;
#X connect 7 1 15 1;
#X connect 8 0 6 0;
#X connect 9 0 0 0;
#X connect 11 0 17 0;
#X connect 12 0 16 0;
#X connect 13 0 7 0;
#X connect 16 0 18 0;
#X connect 16 1 9 0;
#X connect 16 2 5 0;
#X connect 17 0 18 0;
#X connect 17 1 3 0;
#X connect 17 2 5 0;
#X connect 18 0 15 0;
