#N canvas 680 22 469 479 10;
#X obj 50 263 t b f;
#X obj 158 164 t b b;
#X msg 145 220 next;
#X obj 145 276 t b p;
#X obj 145 201 until;
#X obj 4 222 + 1;
#X obj 269 74 r slave-chord-name-\$1;
#X obj 49 109 t b f b;
#X obj 120 114 t b f b;
#X msg 171 329 symbol;
#N canvas 402 50 401 161 \$2-schord\$1 0;
#X obj 7 62 drawsymbol chordname 5 65 999;
#X obj 5 8 struct \$2-schord\$1 float x float dur symbol chordname
;
#X text 205 53 60;
#X obj 7 36 filledpolygon 222 666 1 0 60 dur 60 dur 90 0 90;
#X restore 48 26 pd \$2-schord\$1;
#X obj 49 51 r \$2-slave-chord-pos-\$1;
#X obj 120 74 r \$2-slave-chord-dur-\$1;
#X obj 185 195 \$2;
#X msg 185 220 traverse pd-\$1-data;
#X obj 145 253 pointer \$2-schord\$1;
#X obj 171 352 set -symbol \$2-schord\$1 chordname;
#X obj 4 262 * 26;
#X obj 77 283 * 26;
#X obj 16 388 set \$2-schord\$1 x dur;
#X obj 77 304 - 5;
#X obj 4 284 + 2;
#X msg 199 125 1;
#X obj 269 141 loadbang;
#X floatatom 43 208 5 0 0 0 - - -, f 5;
#X floatatom 17 146 5 0 0 0 - - -, f 5;
#X obj 16 364 pack 0 21;
#X connect 0 0 26 0;
#X connect 0 1 18 0;
#X connect 1 0 4 0;
#X connect 1 1 13 0;
#X connect 2 0 15 0;
#X connect 3 0 4 1;
#X connect 3 1 16 1;
#X connect 3 1 19 2;
#X connect 4 0 2 0;
#X connect 5 0 17 0;
#X connect 7 0 9 0;
#X connect 7 1 5 0;
#X connect 7 2 1 0;
#X connect 8 0 9 0;
#X connect 8 1 0 0;
#X connect 8 2 1 0;
#X connect 9 0 16 0;
#X connect 11 0 7 0;
#X connect 13 0 14 0;
#X connect 14 0 15 0;
#X connect 15 0 3 0;
#X connect 17 0 21 0;
#X connect 18 0 20 0;
#X connect 20 0 26 1;
#X connect 21 0 26 0;
#X connect 22 0 8 0;
#X connect 23 0 22 0;
#X connect 24 0 0 0;
#X connect 25 0 5 0;
#X connect 26 0 19 0;
