#N struct 1039-ledger float y;
#N struct 1039-whole-sharp float y;
#N struct 1039-whole float y;
#N struct 1039-whole-flat float y;
#N struct 1039-barline float x;
#N struct 1039-rightline float x float y;
#N struct 1039-staffline float x float y;
#N canvas 537 28 768 711 10;
#X obj 91 381 pointer;
#X obj 44 208 loadbang;
#X obj 74 447 list-dripv;
#X msg 74 424 0 10 20 30 40 60 70 80 90 100;
#X msg 46 470 0 0;
#X msg 17 470 120;
#N canvas 0 22 450 300 note2pc 0;
#X obj 34 22 inlet;
#X obj 34 44 select 67 68 69 70 71 65 66, f 36;
#X msg 34 69 0;
#X obj 34 158 outlet;
#X msg 64 69 1;
#X msg 94 69 2;
#X msg 125 69 3;
#X msg 155 69 4;
#X msg 186 69 5;
#X msg 216 69 6;
#X connect 0 0 1 0;
#X connect 1 0 2 0;
#X connect 1 1 4 0;
#X connect 1 2 5 0;
#X connect 1 3 6 0;
#X connect 1 4 7 0;
#X connect 1 5 8 0;
#X connect 1 6 9 0;
#X connect 2 0 3 0;
#X connect 4 0 3 0;
#X connect 5 0 3 0;
#X connect 6 0 3 0;
#X connect 7 0 3 0;
#X connect 8 0 3 0;
#X connect 9 0 3 0;
#X restore 476 191 pd note2pc;
#X obj 476 168 unpack f f f, f 29;
#X obj 647 236 - 48;
#X obj 476 213 +;
#X obj 546 190 sel 98 35, f 10;
#X obj 647 278 * 7;
#X obj 503 319 abs;
#X obj 503 277 * -1;
#X obj 503 256 * 5;
#X obj 503 298 + 82;
#X obj 603 211 t b f;
#X obj 647 257 - 4;
#X msg 503 340 \$1;
#X obj 575 98 s \$0-reset;
#X obj 476 77 t a b, f 17;
#X obj 53 230 r \$0-reset;
#X obj 476 234 t f f;
#X obj 307 291 sel 0, f 7;
#X msg 307 314 82;
#X obj 346 312 moses 12, f 12;
#X obj 346 334 moses -11;
#X obj 421 586 abs;
#X obj 421 565 + 82;
#X msg 421 607 \$1;
#X obj 421 544 * -1;
#X obj 421 523 * 5;
#X obj 421 502 route 0;
#X obj 421 480 pack;
#X obj 415 459 % 2;
#X obj 415 438 t f f;
#X obj 415 396 forloop 12;
#X obj 415 375 - 11;
#X obj 352 586 abs;
#X obj 352 565 + 82;
#X msg 352 607 \$1;
#X obj 352 544 * -1;
#X obj 352 523 * 5;
#X obj 352 502 route 0;
#X obj 352 480 pack;
#X obj 346 459 % 2;
#X obj 346 439 t f f;
#X obj 346 396 forloop 12;
#X obj 346 417 * -1;
#X obj 346 355 * -1;
#X obj 346 376 - 11;
#X obj 476 56 inlet;
#N canvas 18 271 466 411 \$0-data 0;
#X scalar 1039-ledger 82 \;;
#X scalar 1039-whole-sharp 102 \;;
#X scalar 1039-whole 82 \;;
#X scalar 1039-whole-flat 72 \;;
#X scalar 1039-whole 57 \;;
#X scalar 1039-barline 120 \;;
#X scalar 1039-rightline 0 0 \;;
#X scalar 1039-staffline 0 0 \;;
#X scalar 1039-staffline 0 10 \;;
#X scalar 1039-staffline 0 20 \;;
#X scalar 1039-staffline 0 30 \;;
#X scalar 1039-staffline 0 40 \;;
#X scalar 1039-staffline 0 60 \;;
#X scalar 1039-staffline 0 70 \;;
#X scalar 1039-staffline 0 80 \;;
#X scalar 1039-staffline 0 90 \;;
#X scalar 1039-staffline 0 100 \;;
#X coords 0 0 140 170 140 170 2 0 0;
#X restore 10 10 pd \$0-data;
#X msg 91 325 traverse pd-\$1-data \, bang;
#X obj 44 252 \$0;
#X obj 44 273 t b b b f f;
#X msg 107 347 \; pd-\$1-data clear;
#X obj 91 402 s \$0-load;
#X obj 182 448 r \$0-load;
#X obj 74 470 append \$0-staffline y;
#X obj 47 492 append \$0-rightline x y;
#X obj 28 513 append \$0-barline x;
#N canvas 763 378 334 157 \$0-whole 0;
#X text 27 57 change 70 and 80 for x pos;
#X obj 29 13 struct \$0-whole float y;
#X obj 30 37 drawcurve 0 2 70 0 80 0 80 7 70 7 70 0;
#X restore 158 10 pd \$0-whole;
#N canvas 919 299 357 262 \$0-whole-sharp 0;
#X text 29 95 this is the sharp:;
#X text 27 57 change 70 and 80 for x pos;
#X obj 30 37 drawcurve 0 2 70 0 80 0 80 7 70 7 70 0;
#X obj 31 117 drawpolygon 0 1 65 -5 65 10;
#X obj 31 137 drawpolygon 0 1 61 -4 61 11;
#X obj 32 158 drawpolygon 0 2 58 1 68 -1;
#X obj 32 178 drawpolygon 0 2 58 8 68 6;
#X obj 29 13 struct \$0-whole-sharp float y;
#X restore 158 30 pd \$0-whole-sharp;
#N canvas 910 360 357 262 \$0-whole-flat 0;
#X text 29 75 this is the flat:;
#X text 27 57 change 70 and 80 for x pos;
#X obj 30 37 drawcurve 0 2 70 0 80 0 80 7 70 7 70 0;
#X obj 34 102 drawpolygon 0 1 61 -14 61 8;
#X obj 35 124 drawcurve 0 2 61 0 73 -3 61 9;
#X obj 29 13 struct \$0-whole-flat float y;
#X restore 158 50 pd \$0-whole-flat;
#N canvas 919 299 334 157 \$0-ledgerline 0;
#X text 17 83 change 70 and 80 for x pos;
#X obj 19 39 drawpolygon 0 1 63 3 86 3;
#X obj 19 13 struct \$0-ledger float y;
#X restore 158 70 pd \$0-ledgerline;
#N canvas 786 320 334 157 \$0-barline 0;
#X obj 32 35 drawpolygon 0 1 10 35 10 135;
#X obj 32 11 struct \$0-barline float x;
#X restore 158 91 pd \$0-barline;
#N canvas 790 374 334 157 \$0-rightline 0;
#X obj 32 35 drawpolygon 0 3 10 35 10 135;
#X obj 32 11 struct \$0-rightline float x float y;
#X restore 158 111 pd \$0-rightline;
#N canvas 858 423 334 157 \$0-staffline 0;
#X obj 32 35 drawpolygon 0 1 10 35 130 35;
#X obj 32 11 struct \$0-staffline float x float y;
#X restore 158 131 pd \$0-staffline;
#X obj 412 636 r \$0-load;
#X obj 307 657 append \$0-ledger y;
#X obj 503 471 append \$0-whole y;
#X obj 602 450 r \$0-load;
#X obj 546 311 \$0;
#X obj 574 354 \$0;
#X obj 603 394 \$0;
#X msg 603 414 set \$1-whole y;
#X msg 574 375 set \$1-whole-sharp y;
#X msg 546 332 set \$1-whole-flat y;
#X obj 476 146 list fromsymbol;
#X obj 476 124 symbol \$1;
#X obj 476 101 zexy/drip;
#X connect 0 0 57 0;
#X connect 1 0 54 0;
#X connect 2 0 59 0;
#X connect 3 0 2 0;
#X connect 4 0 60 0;
#X connect 5 0 61 0;
#X connect 6 0 9 0;
#X connect 7 0 6 0;
#X connect 7 1 10 0;
#X connect 7 2 8 0;
#X connect 8 0 17 0;
#X connect 9 0 22 0;
#X connect 10 0 73 0;
#X connect 10 1 74 0;
#X connect 10 2 16 0;
#X connect 11 0 9 1;
#X connect 12 0 18 0;
#X connect 13 0 15 0;
#X connect 14 0 13 0;
#X connect 15 0 12 0;
#X connect 16 0 75 0;
#X connect 16 1 8 0;
#X connect 17 0 11 0;
#X connect 18 0 71 0;
#X connect 20 0 81 0;
#X connect 20 1 19 0;
#X connect 21 0 54 0;
#X connect 22 0 23 0;
#X connect 22 1 14 0;
#X connect 23 0 24 0;
#X connect 23 1 25 0;
#X connect 24 0 70 0;
#X connect 25 0 26 0;
#X connect 25 1 37 0;
#X connect 26 0 49 0;
#X connect 27 0 29 0;
#X connect 28 0 27 0;
#X connect 29 0 70 0;
#X connect 30 0 28 0;
#X connect 31 0 30 0;
#X connect 32 0 31 0;
#X connect 33 0 32 0;
#X connect 34 0 33 0;
#X connect 35 0 34 0;
#X connect 35 1 33 1;
#X connect 36 0 35 0;
#X connect 37 0 36 0;
#X connect 38 0 40 0;
#X connect 39 0 38 0;
#X connect 40 0 70 0;
#X connect 41 0 39 0;
#X connect 42 0 41 0;
#X connect 43 0 42 0;
#X connect 44 0 43 0;
#X connect 45 0 44 0;
#X connect 46 0 45 0;
#X connect 46 1 44 1;
#X connect 47 0 48 0;
#X connect 48 0 46 0;
#X connect 49 0 50 0;
#X connect 50 0 47 0;
#X connect 51 0 20 0;
#X connect 53 0 0 0;
#X connect 54 0 55 0;
#X connect 55 0 5 0;
#X connect 55 1 4 0;
#X connect 55 2 3 0;
#X connect 55 3 53 0;
#X connect 55 4 56 0;
#X connect 56 0 0 0;
#X connect 58 0 59 1;
#X connect 58 0 60 2;
#X connect 58 0 61 1;
#X connect 69 0 70 1;
#X connect 72 0 71 1;
#X connect 73 0 78 0;
#X connect 74 0 77 0;
#X connect 75 0 76 0;
#X connect 76 0 71 0;
#X connect 77 0 71 0;
#X connect 78 0 71 0;
#X connect 79 0 7 0;
#X connect 80 0 79 0;
#X connect 81 0 80 0;
#X coords 0 -1 1 1 140 170 1 10 10;
