#N canvas 276 192 619 448 10;
#X obj 56 224 osc~;
#X obj 15 274 +~, f 6;
#X obj 65 161 t b f;
#X obj 29 140 mtof;
#X obj 29 53 route \$1;
#X obj 29 74 unpack, f 22;
#X obj 34 370 line~;
#X obj 17 392 *~;
#X obj 15 253 sig~;
#X obj 15 295 osc~;
#X obj 29 11 r \$2-carrier;
#X obj 65 140 r \$2-ratio;
#X obj 101 223 r \$2-index;
#X obj 17 414 throw~ \$2-synth-out;
#X obj 387 96 change;
#X obj 387 75 != 0;
#X obj 387 117 sel 0;
#X obj 180 146 sel 0;
#X obj 159 53 unpack f f f, f 33;
#X obj 29 32 t l l, f 19;
#X obj 207 189 / 127;
#X msg 387 138 0 5;
#X text 420 140 attack and release times;
#X obj 226 276 r \$0-env-decay;
#X msg 260 189 0;
#X obj 207 168 t f b, f 8;
#X obj 16 319 *~;
#X obj 228 341 tabread4~ \$2-envelope;
#X obj 227 319 *~ 1000;
#X obj 226 298 phasor~ 0.1302;
#X msg 207 210 \$1 2;
#X obj 55 246 *~ 1000;
#X obj 40 199 * 3;
#X connect 0 0 31 0;
#X connect 1 0 9 0;
#X connect 2 0 32 0;
#X connect 2 1 32 1;
#X connect 3 0 8 0;
#X connect 3 0 32 0;
#X connect 4 0 5 0;
#X connect 5 0 3 0;
#X connect 5 1 17 0;
#X connect 6 0 7 1;
#X connect 7 0 13 0;
#X connect 8 0 1 0;
#X connect 9 0 26 0;
#X connect 10 0 19 0;
#X connect 11 0 2 0;
#X connect 12 0 31 1;
#X connect 14 0 16 0;
#X connect 15 0 14 0;
#X connect 16 0 21 0;
#X connect 17 1 25 0;
#X connect 18 2 15 0;
#X connect 19 0 4 0;
#X connect 19 1 18 0;
#X connect 20 0 30 0;
#X connect 21 0 6 0;
#X connect 23 0 29 0;
#X connect 24 0 29 1;
#X connect 25 0 20 0;
#X connect 25 1 24 0;
#X connect 26 0 7 0;
#X connect 27 0 26 1;
#X connect 28 0 27 0;
#X connect 29 0 28 0;
#X connect 30 0 6 0;
#X connect 31 0 1 1;
#X connect 32 0 0 0;
