#N canvas 457 516 692 536 10;
#X obj 47 209 osc~;
#X obj 17 251 +~;
#X obj 63 161 t b f;
#X obj 30 139 mtof;
#X obj 87 74 route \$1;
#X obj 87 95 unpack;
#X obj 309 368 line~;
#X obj 294 391 *~;
#X obj 16 209 sig~;
#X msg 395 322 0 5;
#X obj 17 273 osc~;
#X obj 47 188 * 3;
#X obj 46 230 *~ 500;
#X obj 87 10 r \$2-carrier;
#X obj 63 139 r \$2-ratio;
#X obj 79 209 r \$2-index;
#X obj 395 298 r \$2-panic-chords;
#X obj 294 413 throw~ \$2-synth-out;
#X obj 420 149 change;
#X obj 420 128 != 0;
#X obj 420 170 sel 0;
#X obj 255 139 sel 0;
#X obj 114 51 unpack f f f, f 22;
#X obj 87 31 t l l;
#X obj 161 280 tabread4~ \$2-env;
#X obj 161 235 phasor~ 0.1;
#X msg 420 192 0 10;
#X obj 77 328 *~;
#X obj 282 169 t b f;
#X obj 309 194 / 127;
#X msg 224 211 0;
#X obj 161 257 *~ 1000;
#X msg 337 240 \$1 10;
#X obj 469 232 vabs/prnt;
#X connect 0 0 12 0;
#X connect 1 0 10 0;
#X connect 2 0 11 0;
#X connect 2 1 11 1;
#X connect 3 0 8 0;
#X connect 3 0 11 0;
#X connect 4 0 5 0;
#X connect 5 0 3 0;
#X connect 5 1 21 0;
#X connect 6 0 7 1;
#X connect 7 0 17 0;
#X connect 8 0 1 0;
#X connect 9 0 6 0;
#X connect 10 0 27 0;
#X connect 11 0 0 0;
#X connect 12 0 1 1;
#X connect 13 0 23 0;
#X connect 13 0 33 0;
#X connect 14 0 2 0;
#X connect 15 0 12 1;
#X connect 16 0 9 0;
#X connect 18 0 20 0;
#X connect 19 0 18 0;
#X connect 20 0 26 0;
#X connect 21 1 28 0;
#X connect 22 2 19 0;
#X connect 23 0 4 0;
#X connect 23 1 22 0;
#X connect 24 0 27 1;
#X connect 25 0 31 0;
#X connect 26 0 6 0;
#X connect 27 0 7 0;
#X connect 28 0 30 0;
#X connect 28 1 29 0;
#X connect 29 0 32 0;
#X connect 29 0 33 0;
#X connect 30 0 25 1;
#X connect 31 0 24 0;
#X connect 32 0 6 0;
