#N canvas 343 407 415 388 10;
#X obj 46 210 osc~;
#X obj 16 252 +~;
#X obj 62 162 t b f;
#X obj 29 140 mtof;
#X obj 29 75 route \$1;
#X obj 29 96 unpack, f 17;
#X obj 32 305 line~;
#X obj 17 328 *~;
#X obj 15 210 sig~;
#X obj 16 274 osc~;
#X obj 46 189 * 3;
#X obj 45 231 *~ 500;
#X obj 29 11 r \$2-carrier;
#X obj 62 140 r \$2-ratio;
#X obj 78 210 r \$2-index;
#X obj 17 350 throw~ \$2-synth-out;
#X obj 221 161 change;
#X obj 221 140 != 0;
#X obj 221 182 sel 0;
#X obj 128 140 sel 0;
#X obj 56 52 unpack f f f, f 22;
#X obj 29 32 t l l;
#X obj 155 160 t b f;
#X obj 182 182 / 127;
#X msg 221 204 0 5;
#X msg 182 204 \$1 5;
#X text 254 204 attack and release times;
#X connect 0 0 11 0;
#X connect 1 0 9 0;
#X connect 2 0 10 0;
#X connect 2 1 10 1;
#X connect 3 0 8 0;
#X connect 3 0 10 0;
#X connect 4 0 5 0;
#X connect 5 0 3 0;
#X connect 5 1 19 0;
#X connect 6 0 7 1;
#X connect 7 0 15 0;
#X connect 8 0 1 0;
#X connect 9 0 7 0;
#X connect 10 0 0 0;
#X connect 11 0 1 1;
#X connect 12 0 21 0;
#X connect 13 0 2 0;
#X connect 14 0 11 1;
#X connect 16 0 18 0;
#X connect 17 0 16 0;
#X connect 18 0 24 0;
#X connect 19 1 22 0;
#X connect 20 2 17 0;
#X connect 21 0 4 0;
#X connect 21 1 20 0;
#X connect 22 1 23 0;
#X connect 23 0 25 0;
#X connect 24 0 6 0;
#X connect 25 0 6 0;
