#N canvas 325 75 799 583 10;
#X obj 53 163 osc~;
#X obj 19 213 +~, f 6;
#X obj 69 100 t b f;
#X obj 19 79 mtof;
#X obj 19 34 route \$1;
#X obj 19 55 unpack, f 26;
#X obj 19 335 *~;
#X obj 19 234 osc~;
#X obj 19 12 r \$2-carrier;
#X obj 69 79 r \$2-ratio;
#X obj 91 162 r \$2-index;
#X obj 172 98 sel 0, f 10;
#X obj 19 399 throw~ \$2-synthychord;
#X obj 37 138 * 4;
#X obj 52 185 *~ 700;
#X obj 34 284 vline~;
#X obj 229 198 f;
#X obj 244 176 r \$2-edecay;
#X obj 34 306 tabread4~ \$2-envelope;
#X obj 188 71 r \$1-panic-chords;
#X obj 322 251 / 127;
#X obj 229 150 t b f, f 16;
#X msg 229 222 0 \, 1000 \$1;
#X obj 19 366 *~ 0;
#X msg 172 163 1000 10;
#X connect 0 0 14 0;
#X connect 1 0 7 0;
#X connect 2 0 13 0;
#X connect 2 1 13 1;
#X connect 3 0 13 0;
#X connect 3 0 1 0;
#X connect 4 0 5 0;
#X connect 5 0 3 0;
#X connect 5 1 11 0;
#X connect 6 0 23 0;
#X connect 7 0 6 0;
#X connect 8 0 4 0;
#X connect 9 0 2 0;
#X connect 10 0 14 1;
#X connect 11 0 24 0;
#X connect 11 1 21 0;
#X connect 13 0 0 0;
#X connect 14 0 1 1;
#X connect 15 0 18 0;
#X connect 16 0 22 0;
#X connect 17 0 16 1;
#X connect 18 0 6 1;
#X connect 19 0 24 0;
#X connect 20 0 23 1;
#X connect 21 0 16 0;
#X connect 21 1 20 0;
#X connect 22 0 15 0;
#X connect 23 0 12 0;
#X connect 24 0 15 0;
