#N canvas 588 176 424 379 10;
#X obj 60 163 osc~;
#X obj 19 213 +~, f 6;
#X obj 69 100 t b f;
#X obj 19 79 mtof;
#X obj 19 34 route \$1;
#X obj 19 55 unpack, f 26;
#X obj 19 306 *~;
#X obj 19 192 sig~;
#X obj 19 234 osc~;
#X obj 19 12 r \$2-carrier;
#X obj 69 79 r \$2-ratio;
#X obj 98 162 r \$2-index;
#X obj 172 98 sel 0;
#X obj 204 141 / 127;
#X msg 257 141 0;
#X obj 204 120 t f b, f 8;
#X obj 19 258 *~;
#X obj 173 310 *~ 1000;
#X obj 173 289 phasor~ 0.1302;
#X obj 19 329 throw~ \$2-synthychord;
#X obj 44 138 * 4;
#X obj 59 185 *~ 700;
#X obj 173 267 r \$0-edecay;
#X obj 166 215 r \$1-panic-chords;
#X obj 36 284 vline~;
#X msg 166 237 0 2;
#X msg 172 163 0 2;
#X obj 173 332 tabread4~ \$2-envelope;
#X msg 204 162 0 2 \, \$1 4 4;
#X connect 0 0 21 0;
#X connect 1 0 8 0;
#X connect 2 0 20 0;
#X connect 2 1 20 1;
#X connect 3 0 7 0;
#X connect 3 0 20 0;
#X connect 4 0 5 0;
#X connect 5 0 3 0;
#X connect 5 1 12 0;
#X connect 6 0 19 0;
#X connect 7 0 1 0;
#X connect 8 0 16 0;
#X connect 9 0 4 0;
#X connect 10 0 2 0;
#X connect 11 0 21 1;
#X connect 12 0 26 0;
#X connect 12 1 15 0;
#X connect 13 0 28 0;
#X connect 14 0 18 1;
#X connect 15 0 13 0;
#X connect 15 1 14 0;
#X connect 16 0 6 0;
#X connect 17 0 27 0;
#X connect 18 0 17 0;
#X connect 20 0 0 0;
#X connect 21 0 1 1;
#X connect 22 0 18 0;
#X connect 23 0 25 0;
#X connect 24 0 6 1;
#X connect 25 0 24 0;
#X connect 26 0 24 0;
#X connect 27 0 16 1;
#X connect 28 0 24 0;
