#N canvas 469 180 639 443 10;
#X obj 70 222 osc~;
#X obj 29 272 +~, f 6;
#X obj 79 159 t b f;
#X obj 29 138 mtof;
#X obj 29 53 route \$1;
#X obj 29 74 unpack, f 22;
#X obj 30 365 *~;
#X obj 29 251 sig~;
#X obj 29 293 osc~;
#X obj 29 11 r \$2-carrier;
#X obj 79 138 r \$2-ratio;
#X obj 108 221 r \$2-index;
#X obj 387 136 change;
#X obj 387 75 != 0;
#X obj 387 157 sel 0;
#X obj 180 137 sel 0;
#X obj 29 32 t l l, f 19;
#X obj 212 180 / 127;
#X msg 387 178 0 5;
#X text 420 180 attack and release times;
#X msg 265 180 0;
#X obj 212 159 t f b, f 8;
#X obj 30 317 *~;
#X obj 186 391 tabread4~ \$2-envelope;
#X obj 185 369 *~ 1000;
#X obj 184 348 phasor~ 0.1302;
#X obj 30 388 throw~ \$2-synthychord;
#X obj 54 197 * 4;
#X obj 69 244 *~ 700;
#X obj 184 326 r \$0-edecay;
#X obj 289 248 r \$1-panic-chords;
#X obj 47 343 vline~;
#X msg 289 270 0 2;
#X msg 212 201 0 2 \, \$1 4 3;
#X obj 159 53 unpack f f f, f 33;
#X connect 0 0 28 0;
#X connect 1 0 8 0;
#X connect 2 0 27 0;
#X connect 2 1 27 1;
#X connect 3 0 7 0;
#X connect 3 0 27 0;
#X connect 4 0 5 0;
#X connect 5 0 3 0;
#X connect 5 1 15 0;
#X connect 6 0 26 0;
#X connect 7 0 1 0;
#X connect 8 0 22 0;
#X connect 9 0 16 0;
#X connect 10 0 2 0;
#X connect 11 0 28 1;
#X connect 12 0 14 0;
#X connect 13 0 12 0;
#X connect 14 0 18 0;
#X connect 15 1 21 0;
#X connect 16 0 4 0;
#X connect 17 0 33 0;
#X connect 18 0 31 0;
#X connect 20 0 25 1;
#X connect 21 0 17 0;
#X connect 21 1 20 0;
#X connect 22 0 6 0;
#X connect 23 0 22 1;
#X connect 24 0 23 0;
#X connect 25 0 24 0;
#X connect 27 0 0 0;
#X connect 28 0 1 1;
#X connect 29 0 25 0;
#X connect 30 0 32 0;
#X connect 31 0 6 1;
#X connect 32 0 31 0;
#X connect 33 0 31 0;
#X connect 34 2 13 0;
