#N canvas 282 166 599 456 10;
#X obj 46 210 osc~;
#X obj 16 252 +~;
#X obj 62 162 t b f;
#X obj 29 140 mtof;
#X obj 29 75 route \$1;
#X obj 29 96 unpack, f 17;
#X obj 31 356 line~;
#X obj 16 379 *~;
#X obj 15 210 sig~;
#X obj 16 274 osc~;
#X obj 29 11 r \$2-carrier;
#X obj 62 140 r \$2-ratio;
#X obj 84 210 r \$2-index;
#X obj 15 401 throw~ \$2-synth-out;
#X obj 251 161 change;
#X obj 251 140 != 0;
#X obj 251 182 sel 0;
#X obj 128 140 sel 0;
#X obj 56 52 unpack f f f, f 22;
#X obj 29 32 t l l;
#X obj 155 210 / 127;
#X msg 251 204 0 5;
#X text 284 204 attack and release times;
#X obj 130 283 r \$0-env-decay;
#X msg 193 186 0;
#X obj 155 160 t f b;
#X obj 16 319 *~;
#X obj 129 359 tabread4~ \$2-envelope;
#X obj 129 336 *~ 1000;
#X obj 129 306 phasor~ 0.1302;
#X msg 155 232 \$1 2;
#X obj 45 231 *~ 1000;
#X obj 46 189 * 3;
#X connect 0 0 31 0;
#X connect 1 0 9 0;
#X connect 2 0 32 0;
#X connect 2 1 32 1;
#X connect 3 0 8 0;
#X connect 3 0 32 0;
#X connect 4 0 5 0;
#X connect 5 0 3 0;
#X connect 5 1 17 0;
#X connect 6 0 7 1;
#X connect 7 0 13 0;
#X connect 8 0 1 0;
#X connect 9 0 26 0;
#X connect 10 0 19 0;
#X connect 11 0 2 0;
#X connect 12 0 31 1;
#X connect 14 0 16 0;
#X connect 15 0 14 0;
#X connect 16 0 21 0;
#X connect 17 1 25 0;
#X connect 18 2 15 0;
#X connect 19 0 4 0;
#X connect 19 1 18 0;
#X connect 20 0 30 0;
#X connect 21 0 6 0;
#X connect 23 0 29 0;
#X connect 24 0 29 1;
#X connect 25 0 20 0;
#X connect 25 1 24 0;
#X connect 26 0 7 0;
#X connect 27 0 26 1;
#X connect 28 0 27 0;
#X connect 29 0 28 0;
#X connect 30 0 6 0;
#X connect 31 0 1 1;
#X connect 32 0 0 0;
