#N canvas 0 22 296 351 10;
#X obj 15 59 list length;
#X obj 118 252 f 0;
#X obj 148 252 + 1;
#X obj 35 252 list split 1;
#X obj 15 166 until;
#X obj 35 229 list;
#X obj 15 191 t b b;
#X obj 75 29 t l l b;
#X msg 114 104 0;
#X obj 75 7 inlet;
#X obj 35 279 tabwrite \$1;
#X obj 42 125 s \$1;
#X msg 42 103 resize \$1;
#X obj 15 80 t f f;
#X connect 0 0 13 0;
#X connect 1 0 2 0;
#X connect 1 0 10 1;
#X connect 2 0 1 1;
#X connect 3 0 10 0;
#X connect 3 1 5 1;
#X connect 4 0 6 0;
#X connect 5 0 3 0;
#X connect 6 0 5 0;
#X connect 6 1 1 0;
#X connect 7 0 0 0;
#X connect 7 1 5 1;
#X connect 7 2 8 0;
#X connect 8 0 1 1;
#X connect 9 0 7 0;
#X connect 12 0 11 0;
#X connect 13 0 4 0;
#X connect 13 1 12 0;
