#N canvas 1 97 361 221 10;
#X obj 46 114 outlet;
#X msg 91 35 1;
#X msg 19 54 0;
#X obj 19 33 t b a;
#X obj 19 13 inlet;
#X obj 91 15 inlet;
#X obj 46 93 spigot 1;
#X text 5 137 uanz outputs only its first incoming data \, whatever
a bang \, a symbol \, a number or a list. Must be reset on its right
inlet.;
#X text 219 187 Angel Faraldo \, 2007;
#X connect 1 0 6 1;
#X connect 2 0 6 1;
#X connect 3 0 2 0;
#X connect 3 1 6 0;
#X connect 4 0 3 0;
#X connect 5 0 1 0;
#X connect 6 0 0 0;
