#N canvas 3 23 542 604 10;
#X obj 87 221 list;
#X obj 87 449 list prepend;
#X obj 222 153 list length;
#X obj 222 174 - 1;
#X obj 195 132 t l l;
#X obj 87 245 list split 1;
#X obj 87 427 + 12;
#X obj 155 220 list;
#X obj 235 446 list prepend;
#X obj 304 424 - 12;
#X obj 109 5 inlet;
#X obj 136 93 sel 1 0;
#X obj 87 533 outlet;
#X obj 109 47 sel 0;
#X obj 136 72 > 0;
#X obj 17 485 list;
#X obj 109 26 route float;
#X obj 172 69 print chord-foldover;
#X msg 172 47 left inlet input must be one of the following: [-1 0
1];
#X obj 195 91 inlet;
#X obj 195 112 zexy/sort;
#X obj 126 267 t l l;
#X obj 153 290 list split 1;
#X obj 222 269 - 1;
#X obj 98 362 div 12;
#X obj 87 267 t f f;
#X obj 98 322 -;
#X obj 98 342 abs;
#X obj 98 382 + 1;
#X obj 98 402 * 12;
#X obj 97 472 s \$0-l;
#X obj 245 469 s \$0-l;
#X obj 108 199 r \$0-l;
#X obj 38 464 r \$0-l;
#X obj 176 197 r \$0-l;
#X obj 177 174 s \$0-l;
#X obj 258 262 list split 1;
#X obj 331 361 div 12;
#X obj 331 381 + 1;
#X obj 331 401 * 12;
#X obj 331 321 -;
#X obj 331 341 abs;
#X obj 319 293 t f f;
#X obj 304 401 f;
#X obj 258 290 t l b f;
#X connect 0 0 5 0;
#X connect 1 0 12 0;
#X connect 1 0 30 0;
#X connect 2 0 3 0;
#X connect 3 0 23 0;
#X connect 3 0 36 1;
#X connect 4 0 35 0;
#X connect 4 1 2 0;
#X connect 5 0 25 0;
#X connect 5 1 21 0;
#X connect 6 0 1 0;
#X connect 7 0 36 0;
#X connect 8 0 31 0;
#X connect 8 0 12 0;
#X connect 9 0 8 1;
#X connect 10 0 16 0;
#X connect 11 0 0 0;
#X connect 11 1 7 0;
#X connect 13 0 15 0;
#X connect 13 1 14 0;
#X connect 14 0 11 0;
#X connect 15 0 12 0;
#X connect 16 0 13 0;
#X connect 16 1 18 0;
#X connect 18 0 17 0;
#X connect 19 0 20 0;
#X connect 20 0 4 0;
#X connect 21 0 1 1;
#X connect 21 1 22 0;
#X connect 22 1 26 1;
#X connect 23 0 22 1;
#X connect 24 0 28 0;
#X connect 25 0 6 0;
#X connect 25 1 26 0;
#X connect 26 0 27 0;
#X connect 27 0 24 0;
#X connect 28 0 29 0;
#X connect 29 0 6 1;
#X connect 32 0 0 1;
#X connect 33 0 15 1;
#X connect 34 0 7 1;
#X connect 36 0 44 0;
#X connect 36 1 42 0;
#X connect 37 0 38 0;
#X connect 38 0 39 0;
#X connect 39 0 9 1;
#X connect 40 0 41 0;
#X connect 41 0 37 0;
#X connect 42 0 43 1;
#X connect 42 1 40 1;
#X connect 43 0 9 0;
#X connect 44 0 8 0;
#X connect 44 1 43 0;
#X connect 44 2 40 0;
