#N canvas 0 116 289 351 10;
#X obj 40 21 inlet;
#X obj 40 168 ctlout;
#X msg 40 145 123 123 \$1;
#X obj 40 93 until;
#X msg 40 71 16;
#X obj 70 118 + 1;
#X obj 40 47 t b b;
#X msg 80 93 1;
#X obj 40 118 f 1;
#X connect 0 0 6 0;
#X connect 2 0 1 0;
#X connect 3 0 8 0;
#X connect 4 0 3 0;
#X connect 5 0 8 1;
#X connect 6 0 4 0;
#X connect 6 1 7 0;
#X connect 7 0 8 1;
#X connect 8 0 5 0;
#X connect 8 0 2 0;
