#N canvas 19 32 802 609 10;
#X obj 54 26 ctlin;
#X obj 163 549 outlet;
#X obj 171 526 loadbang;
#X obj 370 303 inlet;
#X obj 67 473 ==;
#X obj 34 526 spigot;
#X obj 34 549 outlet;
#X text 291 31 midilearn;
#X obj 246 33 inlet;
#X obj 163 460 pack;
#X obj 370 325 unpack;
#X obj 97 473 ==;
#X obj 67 501 &&;
#X obj 163 481 list prepend set;
#X obj 163 501 list trim;
#X obj 168 312 spigot 0;
#X obj 228 312 spigot 0;
#X msg 246 57 1;
#X obj 246 282 t f f;
#X obj 172 125 t b f;
#X msg 172 148 0;
#X obj 246 240 f;
#X obj 246 261 change -1;
#X text 290 45 learns midi incoming control number on a bang;
#X connect 0 0 5 0;
#X connect 0 1 4 0;
#X connect 0 1 15 0;
#X connect 0 1 19 0;
#X connect 0 2 11 0;
#X connect 0 2 16 0;
#X connect 2 0 1 0;
#X connect 3 0 10 0;
#X connect 4 0 12 0;
#X connect 5 0 6 0;
#X connect 8 0 17 0;
#X connect 9 0 13 0;
#X connect 10 0 4 1;
#X connect 10 1 11 1;
#X connect 11 0 12 1;
#X connect 12 0 5 1;
#X connect 13 0 14 0;
#X connect 14 0 1 0;
#X connect 15 0 9 0;
#X connect 15 0 4 1;
#X connect 16 0 9 1;
#X connect 16 0 11 1;
#X connect 17 0 21 0;
#X connect 18 0 15 1;
#X connect 18 1 16 1;
#X connect 19 0 20 0;
#X connect 19 1 15 0;
#X connect 20 0 21 0;
#X connect 21 0 22 0;
#X connect 22 0 18 0;
