#N struct whole float x float y;
#N struct line float x float y;
#N canvas 461 35 710 629 10;
#N canvas 786 320 334 157 line 0;
#X obj 32 11 struct line float x float y;
#X obj 32 35 drawpolygon 0 1 30 60 400 60;
#X restore 345 91 pd line;
#X obj 593 268 r current_step;
#X obj 593 306 div 4;
#X obj 593 327 change;
#X obj 595 372 + 25;
#X obj 593 350 * 100;
#X obj 450 373 until;
#X msg 491 399 traverse pd-data;
#X obj 462 349 t b b;
#X msg 450 396 next;
#X obj 462 330 bng 15 250 50 0 empty empty empty 17 7 0 10 -262144
-1 -1;
#X obj 462 309 r pointerready;
#N canvas 831 269 334 157 beat 0;
#X obj 6 11 struct beat float x;
#X obj 7 35 drawpolygon 222 2 0 20 100 20;
#X obj 7 55 drawpolygon 222 2 0 100 100 100;
#X restore 345 111 pd beat;
#X obj 450 443 t b p;
#X floatatom 600 289 5 0 0 0 - - -, f 5;
#N canvas 0 22 373 97 mchord 1;
#X obj 5 8 struct mchord float x float 7 symbol chordname;
#X obj 5 28 filledpolygon 900 900 1 0 30 30 30 30 90 0 90;
#X restore 345 71 pd mchord;
#X obj 125 126 pointer;
#X obj 91 32 bng 15 250 50 0 empty empty empty 17 7 0 10 -262144 -1
-1;
#X msg 142 92 \; pd-data clear;
#X msg 125 70 traverse pd-data \, bang;
#X obj 91 49 t b b b b;
#X obj 91 12 loadbang;
#X obj 125 147 s loadpointer;
#X obj 183 193 r loadpointer;
#X obj 222 475 r loadpointer;
#X obj 108 215 append line y;
#N canvas 919 299 334 157 whole 1;
#X obj 29 13 struct whole float x float y;
#X obj 30 37 drawcurve 0 2 0 0 10 0 10 7 0 7 0 0;
#X restore 345 31 pd whole;
#X obj 450 421 pointer whole;
#X obj 414 464 set whole y;
#N canvas 919 299 334 157 mid-c 1;
#X obj 29 13 struct mid-c float x float y;
#X obj 32 63 drawpolygon 0 1 -7 3 16 3;
#X obj 30 37 drawcurve 0 1 0 0 10 0 10 7 0 7 0 0;
#X restore 410 32 pd mid-c;
#N canvas 0 22 450 300 data 1;
#X scalar whole 70 97 \;;
#X scalar line 0 0 \;;
#X scalar line 0 10 \;;
#X scalar line 0 20 \;;
#X scalar line 0 30 \;;
#X scalar line 0 40 \;;
#X scalar line 0 60 \;;
#X scalar line 0 70 \;;
#X scalar line 0 80 \;;
#X scalar line 0 90 \;;
#X scalar line 0 100 \;;
#X restore 370 52 pd data;
#X obj 108 192 list-dripv;
#X msg 108 169 0 10 20 30 40 60 70 80 90 100;
#X obj 414 329 abs;
#X floatatom 507 138 5 0 0 0 - - -, f 5;
#X obj 507 157 t b f;
#X obj 414 287 * -1;
#X floatatom 414 227 5 0 0 0 - - -, f 5;
#X obj 414 308 + 107;
#X floatatom 342 387 5 0 0 0 - - -, f 5;
#X obj 184 401 r loadpointer;
#X obj 91 421 append whole x y;
#X msg 91 399 70 107;
#X msg 132 470 70 107;
#X obj 129 496 append mid-c x y;
#X obj 414 246 * 5;
#X obj 210 283 array;
#X connect 1 0 2 0;
#X connect 2 0 3 0;
#X connect 3 0 5 0;
#X connect 5 0 4 0;
#X connect 6 0 9 0;
#X connect 7 0 27 0;
#X connect 8 0 6 0;
#X connect 8 1 7 0;
#X connect 9 0 27 0;
#X connect 10 0 8 0;
#X connect 11 0 10 0;
#X connect 13 0 6 1;
#X connect 13 1 28 1;
#X connect 14 0 2 0;
#X connect 16 0 22 0;
#X connect 17 0 20 0;
#X connect 18 0 16 0;
#X connect 19 0 16 0;
#X connect 20 1 32 0;
#X connect 20 2 19 0;
#X connect 20 3 18 0;
#X connect 21 0 17 0;
#X connect 23 0 25 1;
#X connect 24 0 44 2;
#X connect 27 0 13 0;
#X connect 31 0 25 0;
#X connect 32 0 31 0;
#X connect 33 0 28 0;
#X connect 33 0 39 0;
#X connect 34 0 35 0;
#X connect 36 0 38 0;
#X connect 37 0 45 0;
#X connect 38 0 33 0;
#X connect 40 0 41 2;
#X connect 42 0 41 0;
#X connect 43 0 44 0;
#X connect 45 0 36 0;
