#N canvas 494 506 393 565 10;
#X obj 57 139 r ratio;
#X obj 81 278 r index;
#X obj 48 214 osc~;
#X obj 30 327 +~;
#X obj 56 161 t b f;
#X obj 110 443 throw~ sumOut;
#X obj 30 117 mtof;
#X obj 87 52 route \$1;
#X obj 87 32 r carrier;
#X obj 87 73 unpack;
#X obj 125 394 line~;
#X obj 110 421 *~;
#X obj 165 330 / 127;
#X obj 210 330 r A;
#X obj 133 308 sel 0;
#X obj 138 329 r R;
#X obj 17 214 sig~;
#X obj 201 395 r panic-chords;
#X msg 201 418 0 5;
#X obj 165 351 pack 0 10;
#X obj 85 351 pack 0 10;
#X obj 30 349 osc~;
#X obj 47 192 * 3;
#X obj 48 302 *~ 500;
#X connect 0 0 4 0;
#X connect 1 0 23 1;
#X connect 2 0 23 0;
#X connect 3 0 21 0;
#X connect 4 0 22 0;
#X connect 4 1 22 1;
#X connect 6 0 16 0;
#X connect 6 0 22 0;
#X connect 7 0 9 0;
#X connect 8 0 7 0;
#X connect 9 0 6 0;
#X connect 9 1 14 0;
#X connect 10 0 11 1;
#X connect 11 0 5 0;
#X connect 12 0 19 0;
#X connect 13 0 19 1;
#X connect 14 0 20 0;
#X connect 14 1 12 0;
#X connect 15 0 20 1;
#X connect 16 0 3 0;
#X connect 17 0 18 0;
#X connect 18 0 10 0;
#X connect 19 0 10 0;
#X connect 20 0 10 0;
#X connect 21 0 11 0;
#X connect 22 0 2 0;
#X connect 23 0 3 1;
