#N canvas 8 385 538 352 8;
#X declare -path third-party;
#N canvas 747 139 423 568 load-folder 0;
#X obj 23 77 openpanel;
#X obj 23 56 ggee/getdir;
#X obj 278 286 f 1;
#X obj 308 286 + 1;
#X msg 293 264 1;
#X obj 23 286 outlet;
#X obj 23 12 inlet;
#X obj 150 287 jasch_lib/strtok /;
#X obj 150 307 t a a, f 10;
#X obj 207 325 list length;
#X obj 150 362 list split;
#X obj 207 343 - 1;
#X obj 178 440 jasch_lib/strcut;
#X obj 205 400 jasch_lib/strlen;
#X obj 205 420 - 4;
#X obj 178 381 t a a;
#X obj 178 460 symbol;
#X obj 23 34 t b b b, f 25;
#X obj 23 243 hcs/folder_list;
#X obj 23 97 jasch_lib/strtok /;
#X obj 23 117 t a a, f 10;
#X obj 80 137 list length;
#X obj 23 178 list split;
#X obj 80 158 - 1;
#X obj 23 200 zexy/list2symbol /;
#X obj 23 221 makefilename /%s/*.mid;
#X obj 23 264 t s s b, f 43;
#X obj 170 55 s \$0-h-init;
#X obj 278 305 s \$0-h-files-in-folder;
#X obj 178 479 s \$0-h-filename;
#X connect 0 0 19 0;
#X connect 1 0 0 0;
#X connect 2 0 3 0;
#X connect 2 0 28 0;
#X connect 3 0 2 1;
#X connect 4 0 2 1;
#X connect 6 0 17 0;
#X connect 7 0 8 0;
#X connect 8 0 10 0;
#X connect 8 1 9 0;
#X connect 9 0 11 0;
#X connect 10 1 15 0;
#X connect 11 0 10 1;
#X connect 12 0 16 0;
#X connect 13 0 14 0;
#X connect 14 0 12 0;
#X connect 15 0 12 0;
#X connect 15 1 13 0;
#X connect 16 0 29 0;
#X connect 17 0 1 0;
#X connect 17 1 4 0;
#X connect 17 2 27 0;
#X connect 18 0 26 0;
#X connect 19 0 20 0;
#X connect 20 0 22 0;
#X connect 20 1 21 0;
#X connect 21 0 23 0;
#X connect 22 0 24 0;
#X connect 23 0 22 1;
#X connect 24 0 25 0;
#X connect 25 0 18 0;
#X connect 26 0 5 0;
#X connect 26 1 7 0;
#X connect 26 2 2 0;
#X restore 14 93 pd load-folder;
#X obj 14 71 bng 15 250 50 0 empty empty empty 17 7 0 10 -262144 -1
-1;
#X text 34 70 select corpus folder to analyse;
#N canvas 981 217 548 529 read-midi-file 0;
#X msg 44 76 flush;
#X obj 6 305 / 4;
#X obj 6 282 unpack 0 0 0 0 0;
#X msg 44 33 read \$1;
#X obj 129 196 pdmus/midi-player;
#X obj 391 418 t b b;
#X obj 162 485 outlet;
#X obj 162 464 pdmus/midi-sort-events;
#X obj 282 352 * 8;
#X obj 162 421 + 0;
#X obj 44 54 t b a b, f 29;
#X msg 215 74 0;
#X obj 228 216 f;
#X obj 162 376 unpack 0 0 0;
#X obj 162 442 pack 0 0 0, f 12;
#X obj 228 281 f 0;
#X obj 258 281 + 1;
#X obj 267 374 f;
#X obj 228 304 sel 0 1, f 8;
#X obj 228 236 sel 2 4;
#X obj 228 329 t b b, f 7;
#X msg 228 351 flush;
#X obj 44 12 inlet;
#X obj 391 480 outlet;
#X obj 6 262 vabs/oncev;
#X obj 391 397 vabs/oncev;
#X obj 44 98 t a b b;
#X obj 215 94 s \$0-h-reset-count;
#X obj 170 148 s \$0-h-reset-analysis;
#X obj 243 196 r \$0-h-bars;
#X obj 243 260 r \$0-h-reset-count;
#X obj 6 326 s \$0-h-bars;
#X obj 75 303 s \$0-h-ticks/4;
#X obj 282 330 r \$0-h-ticks/4;
#X obj 177 399 r \$0-h-reset-count;
#X connect 0 0 26 0;
#X connect 1 0 31 0;
#X connect 2 0 1 0;
#X connect 2 3 32 0;
#X connect 3 0 10 0;
#X connect 4 1 13 0;
#X connect 4 2 24 0;
#X connect 4 3 12 0;
#X connect 5 0 23 0;
#X connect 5 1 7 1;
#X connect 7 0 6 0;
#X connect 8 0 17 1;
#X connect 9 0 14 0;
#X connect 10 0 0 0;
#X connect 10 1 4 0;
#X connect 10 2 11 0;
#X connect 11 0 27 0;
#X connect 12 0 19 0;
#X connect 13 0 9 0;
#X connect 13 1 14 1;
#X connect 13 2 14 2;
#X connect 14 0 7 0;
#X connect 15 0 16 0;
#X connect 15 0 18 0;
#X connect 16 0 15 1;
#X connect 17 0 9 1;
#X connect 18 0 20 0;
#X connect 18 1 25 0;
#X connect 19 0 15 0;
#X connect 19 1 25 0;
#X connect 20 0 21 0;
#X connect 20 1 17 0;
#X connect 21 0 4 0;
#X connect 22 0 3 0;
#X connect 24 0 2 0;
#X connect 25 0 5 0;
#X connect 26 0 4 0;
#X connect 26 1 24 1;
#X connect 26 1 25 1;
#X connect 26 2 28 0;
#X connect 29 0 12 1;
#X connect 30 0 15 1;
#X connect 33 0 8 0;
#X connect 34 0 9 1;
#X restore 14 117 pd read-midi-file;
#X msg 278 115 clear;
#X msg 278 71 readagain;
#X msg 278 93 renumber \, writeagain;
#X obj 11 12 declare -path third-party;
#N canvas 275 180 326 362 load-folder 0;
#X obj 13 76 openpanel;
#X obj 13 55 ggee/getdir;
#X obj 172 286 f 1;
#X obj 202 286 + 1;
#X obj 13 33 t b b, f 29;
#X msg 184 264 1;
#X obj 13 264 t s b, f 27;
#X obj 13 286 outlet;
#X obj 13 11 inlet;
#X obj 23 243 hcs/folder_list;
#X obj 23 97 jasch_lib/strtok /;
#X obj 23 117 t a a, f 10;
#X obj 80 137 list length;
#X obj 23 178 list split;
#X obj 80 158 - 1;
#X obj 23 200 zexy/list2symbol /;
#X obj 23 221 makefilename /%s/*.mid;
#X obj 172 309 s \$0-r-files-in-folder;
#X connect 0 0 6 0;
#X connect 1 0 0 0;
#X connect 2 0 3 0;
#X connect 2 0 17 0;
#X connect 3 0 2 1;
#X connect 4 0 1 0;
#X connect 4 1 5 0;
#X connect 5 0 2 1;
#X connect 6 0 7 0;
#X connect 6 1 2 0;
#X connect 8 0 4 0;
#X connect 10 0 11 0;
#X connect 11 0 13 0;
#X connect 11 1 12 0;
#X connect 12 0 14 0;
#X connect 13 0 15 0;
#X connect 14 0 13 1;
#X connect 15 0 16 0;
#X connect 16 0 9 0;
#X restore 13 216 pd load-folder;
#X obj 13 194 bng 15 250 50 0 empty empty empty 17 7 0 10 -262144 -1
-1;
#X text 33 193 select corpus folder to analyse;
#N canvas 98 195 548 529 read-midi-file 0;
#X msg 44 76 flush;
#X obj 20 305 / 4;
#X obj 20 282 unpack 0 0 0 0 0;
#X obj 44 98 t a b, f 6;
#X msg 44 33 read \$1;
#X obj 129 196 pdmus/midi-player;
#X obj 391 418 t b b;
#X obj 162 485 outlet;
#X obj 162 464 pdmus/midi-sort-events;
#X obj 282 352 * 8;
#X obj 162 421 + 0;
#X obj 44 54 t b a b, f 29;
#X msg 215 74 0;
#X obj 228 216 f;
#X obj 162 376 unpack 0 0 0;
#X obj 162 442 pack 0 0 0, f 12;
#X obj 228 281 f 0;
#X obj 258 281 + 1;
#X obj 267 374 f;
#X obj 228 304 sel 0 1, f 8;
#X obj 228 236 sel 2 4;
#X obj 228 329 t b b, f 7;
#X msg 228 351 flush;
#X obj 44 12 inlet;
#X obj 391 480 outlet;
#X obj 20 262 vabs/oncev;
#X obj 391 397 vabs/oncev;
#X obj 215 95 s \$0-r-reset-count;
#X obj 170 148 s \$0-r-reset-analysis;
#X obj 243 196 r \$0-r-bars;
#X obj 243 260 r \$0-r-reset-count;
#X obj 282 330 r \$0-r-ticks/4;
#X obj 177 399 r \$0-r-reset-count;
#X obj 20 326 s \$0-r-bars;
#X obj 89 303 s \$0-r-ticks/4;
#X connect 0 0 3 0;
#X connect 1 0 33 0;
#X connect 2 0 1 0;
#X connect 2 3 34 0;
#X connect 3 0 5 0;
#X connect 3 1 25 1;
#X connect 3 1 26 1;
#X connect 3 1 28 0;
#X connect 4 0 11 0;
#X connect 5 1 14 0;
#X connect 5 2 25 0;
#X connect 5 3 13 0;
#X connect 6 0 24 0;
#X connect 6 1 8 1;
#X connect 8 0 7 0;
#X connect 9 0 18 1;
#X connect 10 0 15 0;
#X connect 11 0 0 0;
#X connect 11 1 5 0;
#X connect 11 2 12 0;
#X connect 12 0 27 0;
#X connect 13 0 20 0;
#X connect 14 0 10 0;
#X connect 14 1 15 1;
#X connect 14 2 15 2;
#X connect 15 0 8 0;
#X connect 16 0 17 0;
#X connect 16 0 19 0;
#X connect 17 0 16 1;
#X connect 18 0 10 1;
#X connect 19 0 21 0;
#X connect 19 1 26 0;
#X connect 20 0 16 0;
#X connect 20 1 26 0;
#X connect 21 0 22 0;
#X connect 21 1 18 0;
#X connect 22 0 5 0;
#X connect 23 0 4 0;
#X connect 25 0 2 0;
#X connect 26 0 6 0;
#X connect 29 0 13 1;
#X connect 30 0 16 1;
#X connect 31 0 9 0;
#X connect 32 0 10 1;
#X restore 13 240 pd read-midi-file;
#X msg 260 252 clear;
#X msg 260 230 writeagain;
#X msg 260 208 readagain;
#N canvas 7 23 970 683 analyse-harmony 0;
#X obj 5 9 inlet;
#X obj 5 98 unpack 0 0 0 0;
#X obj 32 150 t b f, f 19;
#X msg 32 171 1;
#X obj 143 171 mod 12;
#X text 29 238 binary pitch class set of the incoming file without
adding weights to repetition or duration., f 26;
#X msg 350 66 13;
#X obj 350 87 vabs/forloop;
#X obj 401 129 mod 12;
#X obj 401 173 t f f;
#X obj 401 217 + 0;
#X msg 449 194 0;
#X obj 350 18 inlet;
#X text 390 18 bang when file analysis ends;
#X obj 479 267 + 1;
#X obj 401 238 sel 2;
#X obj 449 267 f 0;
#X obj 350 108 t f f, f 9;
#X obj 350 288 f, f 17;
#X obj 350 129 sel 12;
#X obj 350 545 f 0;
#X obj 377 545 + 1;
#X msg 350 590 nstore \$1 \$4 \$3 \$2;
#X obj 581 213 pdmus/distance-euclidean, f 40;
#X msg 365 523 0;
#X obj 32 53 pdmus/chord-make;
#X obj 32 75 pdmus/chord-estimate;
#X obj 5 31 t l l;
#X obj 149 95 vabs/oncev;
#X obj 32 129 -;
#X msg 233 95 const 0;
#X obj 581 302 zexy/sort;
#X text 729 90 lydian (0);
#X text 729 109 ionian (1);
#X text 729 130 mixolydian (2);
#X text 729 150 dorian (3);
#X text 726 170 aeolian (4);
#X text 729 190 phrygian (5);
#X msg 581 90 1 0 1 0 1 0 1 1 0 1 0 1;
#X msg 581 110 1 0 1 0 1 1 0 1 0 1 0 1;
#X msg 581 130 1 0 1 0 1 1 0 1 0 1 1 0;
#X msg 581 150 1 0 1 1 0 1 0 1 0 1 1 0;
#X msg 581 170 1 0 1 1 0 1 0 1 1 0 1 0;
#X msg 581 190 1 1 0 1 0 1 0 1 1 0 1 0;
#X obj 350 309 t b f b, f 13;
#X obj 566 346 f;
#X obj 581 280 t l l, f 14;
#X obj 581 324 list split 1;
#X obj 350 567 pack f f f s, f 38;
#X obj 350 41 t b b b, f 79;
#X obj 206 75 t b b;
#X obj 578 451 +;
#X obj 566 430 * 3;
#X obj 566 367 t f f;
#X obj 425 545 +;
#X obj 425 474 t f b;
#X obj 452 498 random 5;
#X obj 452 521 * 0.2;
#X obj 578 472 t f b;
#X obj 605 493 random 5;
#X obj 605 513 * 0.2;
#X obj 500 545 +;
#X obj 581 67 t b b b b b b;
#X obj 566 409 cyclone/mean;
#X obj 581 258 vabs/add2list prepend;
#X obj 566 387 zexy/listfind, f 17;
#X obj 206 53 r \$0-h-reset-analysis;
#X obj 233 115 s \$0-h-pcset;
#X obj 32 192 tabwrite \$0-h-pcset;
#X obj 32 212 table \$0-h-pcset 12;
#X obj 401 150 tabread \$0-h-pcset;
#X obj 821 192 zexy/tabdump \$0-h-pcset;
#X obj 704 237 r \$0-h-reset-analysis;
#X obj 364 613 r \$0-h-manage-file;
#X obj 365 501 r \$0-h-init;
#X obj 575 545 r \$0-h-filename;
#X obj 449 173 r \$0-h-reset-analysis;
#X obj 350 638 coll ./user/harmony.txt;
#C restore;
#X connect 0 0 27 0;
#X connect 1 1 29 0;
#X connect 2 0 3 0;
#X connect 2 1 4 0;
#X connect 3 0 68 0;
#X connect 4 0 68 1;
#X connect 6 0 7 0;
#X connect 7 0 17 0;
#X connect 8 0 70 0;
#X connect 9 0 10 1;
#X connect 9 1 10 0;
#X connect 10 0 15 0;
#X connect 11 0 10 1;
#X connect 11 0 16 0;
#X connect 12 0 49 0;
#X connect 14 0 16 1;
#X connect 15 0 16 0;
#X connect 16 0 14 0;
#X connect 16 0 18 1;
#X connect 17 0 19 0;
#X connect 17 1 8 0;
#X connect 18 0 44 0;
#X connect 19 0 18 0;
#X connect 20 0 21 0;
#X connect 20 0 48 0;
#X connect 21 0 20 1;
#X connect 22 0 77 0;
#X connect 23 0 64 0;
#X connect 24 0 20 1;
#X connect 25 0 26 0;
#X connect 26 3 28 0;
#X connect 27 0 1 0;
#X connect 27 1 25 0;
#X connect 28 0 29 1;
#X connect 29 0 2 0;
#X connect 30 0 67 0;
#X connect 31 0 47 0;
#X connect 38 0 23 0;
#X connect 39 0 23 0;
#X connect 40 0 23 0;
#X connect 41 0 23 0;
#X connect 42 0 23 0;
#X connect 43 0 23 0;
#X connect 44 0 20 0;
#X connect 44 1 55 0;
#X connect 44 2 45 0;
#X connect 45 0 53 0;
#X connect 46 0 31 0;
#X connect 46 1 65 1;
#X connect 47 0 45 1;
#X connect 48 0 22 0;
#X connect 49 0 6 0;
#X connect 49 1 62 0;
#X connect 49 2 71 0;
#X connect 50 0 28 1;
#X connect 50 1 30 0;
#X connect 51 0 58 0;
#X connect 52 0 51 0;
#X connect 53 0 65 0;
#X connect 53 1 51 1;
#X connect 54 0 48 1;
#X connect 55 0 54 0;
#X connect 55 1 56 0;
#X connect 56 0 57 0;
#X connect 57 0 54 1;
#X connect 58 0 61 0;
#X connect 58 1 59 0;
#X connect 59 0 60 0;
#X connect 60 0 61 1;
#X connect 61 0 48 2;
#X connect 62 0 38 0;
#X connect 62 1 39 0;
#X connect 62 2 40 0;
#X connect 62 3 41 0;
#X connect 62 4 42 0;
#X connect 62 5 43 0;
#X connect 63 0 52 0;
#X connect 64 0 46 0;
#X connect 65 0 63 0;
#X connect 66 0 50 0;
#X connect 70 0 9 0;
#X connect 71 0 23 1;
#X connect 72 0 64 1;
#X connect 73 0 77 0;
#X connect 74 0 24 0;
#X connect 75 0 48 3;
#X connect 76 0 11 0;
#X restore 14 141 pd analyse-harmony;
#N canvas 0 128 503 567 analyse-rhythm 0;
#X obj 5 6 inlet;
#X obj 5 28 unpack 0 0 0 0;
#X obj 5 71 /;
#X obj 65 72 != 0;
#X obj 5 92 * 4;
#X obj 16 177 route;
#X obj 16 155 t l f, f 8;
#X obj 5 113 pack, f 9;
#X msg 5 241 \$2 \$1;
#X obj 292 344 inlet;
#X obj 5 313 -;
#X obj 5 333 pack f f;
#X msg 5 354 \$2 \$1;
#X obj 33 282 t f f;
#X obj 5 261 route 0 1, f 10;
#X obj 292 368 f 0;
#X obj 322 368 + 1;
#X obj 292 488 list append;
#X text 293 323 bang when file analysis ends;
#X obj 5 134 vabs/change-any;
#X obj 5 376 vabs/add2list prepend;
#X msg 151 376 const -1;
#X obj 292 532 cyclone/coll ./user/rhythm.txt;
#C restore;
#X obj 299 509 r \$0-r-manage-file;
#X obj 151 398 s \$0-r-master-pattern;
#X obj 138 351 r \$0-r-reset-analysis;
#X obj 16 220 table \$0-r-master-pattern 65;
#X obj 16 200 tabwrite \$0-r-master-pattern;
#X obj 20 49 r \$0-r-ticks/4;
#X connect 0 0 1 0;
#X connect 1 0 2 0;
#X connect 1 2 3 0;
#X connect 2 0 4 0;
#X connect 3 0 7 1;
#X connect 4 0 7 0;
#X connect 5 0 27 0;
#X connect 6 0 5 0;
#X connect 6 1 5 1;
#X connect 6 1 27 1;
#X connect 7 0 19 0;
#X connect 8 0 14 0;
#X connect 9 0 15 0;
#X connect 10 0 11 0;
#X connect 11 0 12 0;
#X connect 12 0 20 0;
#X connect 13 0 11 1;
#X connect 13 1 10 1;
#X connect 14 0 10 0;
#X connect 14 1 13 0;
#X connect 15 0 16 0;
#X connect 15 0 17 0;
#X connect 16 0 15 1;
#X connect 17 0 22 0;
#X connect 19 0 8 0;
#X connect 19 0 6 0;
#X connect 20 0 17 1;
#X connect 21 0 24 0;
#X connect 23 0 22 0;
#X connect 25 0 21 0;
#X connect 25 0 20 1;
#X connect 28 0 2 1;
#X restore 13 264 pd analyse-rhythm;
#X text 12 50 HARMONY;
#X text 13 173 RHYTHM;
#X text 346 72 LOAD;
#X text 416 93 WRITE;
#X text 320 116 EMPTY;
#X text 325 207 LOAD;
#X text 330 230 WRITE;
#X text 300 253 EMPTY;
#X obj 278 137 s \$0-h-manage-file;
#X obj 260 274 s \$0-r-manage-file;
#X connect 0 0 3 0;
#X connect 1 0 0 0;
#X connect 3 0 15 0;
#X connect 3 1 15 1;
#X connect 4 0 25 0;
#X connect 5 0 25 0;
#X connect 6 0 25 0;
#X connect 8 0 11 0;
#X connect 9 0 8 0;
#X connect 11 0 16 0;
#X connect 11 1 16 1;
#X connect 12 0 26 0;
#X connect 13 0 26 0;
#X connect 14 0 26 0;
