#N canvas 10 625 406 137 10;
#N canvas 300 23 423 568 load-folder 0;
#X obj 13 76 openpanel;
#X obj 13 55 ggee/getdir;
#X obj 268 288 f 1;
#X obj 298 288 + 1;
#X msg 280 264 1;
#X obj 268 311 s \$0-files-in-folder;
#X obj 13 286 outlet;
#X obj 13 11 inlet;
#X obj 140 289 jasch_lib/strtok /;
#X obj 140 317 t a a, f 10;
#X obj 197 337 list length;
#X obj 140 377 list split;
#X obj 197 357 - 1;
#X obj 168 465 jasch_lib/strcut;
#X obj 195 420 jasch_lib/strlen;
#X obj 195 442 - 4;
#X obj 168 398 t a a;
#X obj 168 487 symbol;
#X obj 168 509 s \$0-filename;
#X obj 13 33 t b b b, f 29;
#X obj 184 55 s \$0-init;
#X obj 23 243 hcs/folder_list;
#X obj 23 97 jasch_lib/strtok /;
#X obj 23 117 t a a, f 10;
#X obj 80 137 list length;
#X obj 23 178 list split;
#X obj 80 158 - 1;
#X obj 23 200 zexy/list2symbol /;
#X obj 23 221 makefilename /%s/*.mid;
#X obj 13 264 t s s b, f 43;
#X connect 0 0 22 0;
#X connect 1 0 0 0;
#X connect 2 0 3 0;
#X connect 2 0 5 0;
#X connect 3 0 2 1;
#X connect 4 0 2 1;
#X connect 7 0 19 0;
#X connect 8 0 9 0;
#X connect 9 0 11 0;
#X connect 9 1 10 0;
#X connect 10 0 12 0;
#X connect 11 1 16 0;
#X connect 12 0 11 1;
#X connect 13 0 17 0;
#X connect 14 0 15 0;
#X connect 15 0 13 0;
#X connect 16 0 13 0;
#X connect 16 1 14 0;
#X connect 17 0 18 0;
#X connect 19 0 1 0;
#X connect 19 1 4 0;
#X connect 19 2 20 0;
#X connect 21 0 29 0;
#X connect 22 0 23 0;
#X connect 23 0 25 0;
#X connect 23 1 24 0;
#X connect 24 0 26 0;
#X connect 25 0 27 0;
#X connect 26 0 25 1;
#X connect 27 0 28 0;
#X connect 28 0 21 0;
#X connect 29 0 6 0;
#X connect 29 1 8 0;
#X connect 29 2 2 0;
#X restore 14 37 pd load-folder;
#X obj 14 15 bng 15 250 50 0 empty empty empty 17 7 0 10 -262144 -1
-1;
#X text 34 14 select corpus folder to analyse;
#N canvas 113 130 548 529 read-midi-file 0;
#X msg 44 76 flush;
#X obj 20 305 / 4;
#X obj 20 282 unpack 0 0 0 0 0;
#X msg 44 33 read \$1;
#X obj 129 196 pdmus/midi-player;
#X obj 391 418 t b b;
#X obj 162 485 outlet;
#X obj 162 464 pdmus/midi-sort-events;
#X obj 282 352 * 8;
#X obj 162 421 + 0;
#X obj 44 54 t b a b, f 29;
#X msg 215 74 0;
#X obj 228 216 f;
#X obj 162 376 unpack 0 0 0;
#X obj 162 442 pack 0 0 0, f 12;
#X obj 228 281 f 0;
#X obj 258 281 + 1;
#X obj 267 374 f;
#X obj 228 304 sel 0 1, f 8;
#X obj 228 236 sel 2 4;
#X obj 228 329 t b b, f 7;
#X msg 228 351 flush;
#X obj 215 94 s \$0-reset-count;
#X obj 177 399 r \$0-reset-count;
#X obj 20 326 s \$0-bars;
#X obj 89 303 s \$0-ticks/4;
#X obj 243 196 r \$0-bars;
#X obj 170 148 s \$0-reset-analysis;
#X obj 282 330 r \$0-ticks/4;
#X obj 243 260 r \$0-reset-count;
#X obj 44 12 inlet;
#X obj 391 480 outlet;
#X obj 20 262 vabs/oncev;
#X obj 391 397 vabs/oncev;
#X obj 44 98 t a b b;
#X connect 0 0 34 0;
#X connect 1 0 24 0;
#X connect 2 0 1 0;
#X connect 2 3 25 0;
#X connect 3 0 10 0;
#X connect 4 1 13 0;
#X connect 4 2 32 0;
#X connect 4 3 12 0;
#X connect 5 0 31 0;
#X connect 5 1 7 1;
#X connect 7 0 6 0;
#X connect 8 0 17 1;
#X connect 9 0 14 0;
#X connect 10 0 0 0;
#X connect 10 1 4 0;
#X connect 10 2 11 0;
#X connect 11 0 22 0;
#X connect 12 0 19 0;
#X connect 13 0 9 0;
#X connect 13 1 14 1;
#X connect 13 2 14 2;
#X connect 14 0 7 0;
#X connect 15 0 16 0;
#X connect 15 0 18 0;
#X connect 16 0 15 1;
#X connect 17 0 9 1;
#X connect 18 0 20 0;
#X connect 18 1 33 0;
#X connect 19 0 15 0;
#X connect 19 1 33 0;
#X connect 20 0 21 0;
#X connect 20 1 17 0;
#X connect 21 0 4 0;
#X connect 23 0 9 1;
#X connect 26 0 12 1;
#X connect 28 0 8 0;
#X connect 29 0 15 1;
#X connect 30 0 3 0;
#X connect 32 0 2 0;
#X connect 33 0 5 0;
#X connect 34 0 4 0;
#X connect 34 1 32 1;
#X connect 34 1 33 1;
#X connect 34 2 27 0;
#X restore 14 61 pd read-midi-file;
#N canvas 178 40 970 683 analyse-file 1;
#X obj 5 9 inlet;
#X obj 5 98 unpack 0 0 0 0;
#X obj 32 192 tabwrite \$0-pcset;
#X obj 32 150 t b f, f 17;
#X msg 32 171 1;
#X obj 32 212 table \$0-pcset 12;
#X obj 131 171 mod 12;
#X text 29 238 binary pitch class set of the incoming file without
adding weights to repetition or duration., f 26;
#X obj 401 150 tabread \$0-pcset;
#X msg 350 66 13;
#X obj 350 87 vabs/forloop;
#X obj 401 129 mod 12;
#X obj 401 175 t f f;
#X obj 401 219 + 0;
#X obj 449 169 r \$0-reset-analysis;
#X msg 449 194 0;
#X obj 350 15 inlet;
#X text 390 15 bang when file analysis ends;
#X obj 479 267 + 1;
#X obj 401 240 sel 2;
#X obj 449 267 f 0;
#X obj 350 108 t f f, f 9;
#X obj 350 288 f, f 17;
#X obj 350 129 sel 12;
#X obj 575 545 r \$0-filename;
#X obj 350 638 coll ./harmony.txt;
#C restore;
#X obj 364 613 r \$0-manage-file;
#X obj 350 545 f 0;
#X obj 377 545 + 1;
#X obj 365 501 r \$0-init;
#X msg 350 590 nstore \$1 \$4 \$3 \$2;
#X obj 581 213 pdmus/distance-euclidean, f 41;
#X msg 365 523 0;
#X obj 32 53 pdmus/chord-make;
#X obj 32 75 pdmus/chord-estimate;
#X obj 5 31 t l l;
#X obj 149 95 vabs/oncev;
#X obj 206 53 r \$0-reset-analysis;
#X obj 32 129 -;
#X msg 233 96 const 0;
#X obj 233 117 s \$0-pcset;
#X obj 824 192 zexy/tabdump \$0-pcset;
#X obj 698 236 r \$0-reset-analysis;
#X obj 581 258 vabs/add2list append;
#X obj 581 302 zexy/sort;
#X text 729 90 lydian (0);
#X text 729 109 ionian (1);
#X text 729 130 mixolydian (2);
#X text 729 150 dorian (3);
#X text 726 170 aeolian (4);
#X text 729 190 phrygian (5);
#X msg 581 90 1 0 1 0 1 0 1 1 0 1 0 1;
#X msg 581 110 1 0 1 0 1 1 0 1 0 1 0 1;
#X msg 581 130 1 0 1 0 1 1 0 1 0 1 1 0;
#X msg 581 150 1 0 1 1 0 1 0 1 0 1 1 0;
#X msg 581 170 1 0 1 1 0 1 0 1 1 0 1 0;
#X msg 581 190 1 1 0 1 0 1 0 1 1 0 1 0;
#X obj 566 387 listfind, f 17;
#X obj 350 309 t b f b, f 13;
#X obj 566 346 f;
#X obj 581 280 t l l, f 13;
#X obj 581 324 list split 1;
#X obj 350 567 pack f f f s, f 38;
#X obj 350 41 t b b b, f 79;
#X obj 206 75 t b b;
#X obj 578 451 +;
#X obj 566 430 * 3;
#X obj 566 367 t f f;
#X obj 425 545 +;
#X obj 425 474 t f b;
#X obj 452 498 random 5;
#X obj 452 521 * 0.2;
#X obj 578 472 t f b;
#X obj 605 493 random 5;
#X obj 605 513 * 0.2;
#X obj 500 545 +;
#X obj 581 67 t b b b b b b;
#X obj 566 409 cyclone/mean;
#X connect 0 0 35 0;
#X connect 1 1 38 0;
#X connect 3 0 4 0;
#X connect 3 1 6 0;
#X connect 4 0 2 0;
#X connect 6 0 2 1;
#X connect 8 0 12 0;
#X connect 9 0 10 0;
#X connect 10 0 21 0;
#X connect 11 0 8 0;
#X connect 12 0 13 1;
#X connect 12 1 13 0;
#X connect 13 0 19 0;
#X connect 14 0 15 0;
#X connect 15 0 13 1;
#X connect 15 0 20 0;
#X connect 16 0 63 0;
#X connect 18 0 20 1;
#X connect 19 0 20 0;
#X connect 20 0 18 0;
#X connect 20 0 22 1;
#X connect 21 0 23 0;
#X connect 21 1 11 0;
#X connect 22 0 58 0;
#X connect 23 0 22 0;
#X connect 24 0 62 3;
#X connect 26 0 25 0;
#X connect 27 0 28 0;
#X connect 27 0 62 0;
#X connect 28 0 27 1;
#X connect 29 0 32 0;
#X connect 30 0 25 0;
#X connect 31 0 43 0;
#X connect 32 0 27 1;
#X connect 33 0 34 0;
#X connect 34 3 36 0;
#X connect 35 0 1 0;
#X connect 35 1 33 0;
#X connect 36 0 38 1;
#X connect 37 0 64 0;
#X connect 38 0 3 0;
#X connect 39 0 40 0;
#X connect 41 0 31 1;
#X connect 42 0 43 1;
#X connect 43 0 60 0;
#X connect 44 0 61 0;
#X connect 51 0 31 0;
#X connect 52 0 31 0;
#X connect 53 0 31 0;
#X connect 54 0 31 0;
#X connect 55 0 31 0;
#X connect 56 0 31 0;
#X connect 57 0 77 0;
#X connect 58 0 27 0;
#X connect 58 1 69 0;
#X connect 58 2 59 0;
#X connect 59 0 67 0;
#X connect 60 0 44 0;
#X connect 60 1 57 1;
#X connect 61 0 59 1;
#X connect 62 0 30 0;
#X connect 63 0 9 0;
#X connect 63 1 76 0;
#X connect 63 2 41 0;
#X connect 64 0 36 1;
#X connect 64 1 39 0;
#X connect 65 0 72 0;
#X connect 66 0 65 0;
#X connect 67 0 57 0;
#X connect 67 1 65 1;
#X connect 68 0 62 1;
#X connect 69 0 68 0;
#X connect 69 1 70 0;
#X connect 70 0 71 0;
#X connect 71 0 68 1;
#X connect 72 0 75 0;
#X connect 72 1 73 0;
#X connect 73 0 74 0;
#X connect 74 0 75 1;
#X connect 75 0 62 2;
#X connect 76 0 51 0;
#X connect 76 1 52 0;
#X connect 76 2 53 0;
#X connect 76 3 54 0;
#X connect 76 4 55 0;
#X connect 76 5 56 0;
#X connect 77 0 66 0;
#X restore 14 85 pd analyse-file;
#X msg 241 59 clear;
#X msg 241 15 readagain;
#X obj 241 81 s \$0-manage-file;
#X msg 241 37 renumber \, writeagain;
#X connect 0 0 3 0;
#X connect 1 0 0 0;
#X connect 3 0 4 0;
#X connect 3 1 4 1;
#X connect 5 0 7 0;
#X connect 6 0 7 0;
#X connect 8 0 7 0;
