#N canvas 582 70 431 169 10;
#N canvas 299 23 326 362 load-folder 1;
#X obj 13 76 openpanel;
#X obj 13 55 ggee/getdir;
#X obj 172 286 f 1;
#X obj 202 286 + 1;
#X obj 13 33 t b b, f 29;
#X msg 184 264 1;
#X obj 172 309 s \$0-files-in-folder;
#X obj 13 264 t s b, f 27;
#X obj 13 286 outlet;
#X obj 13 11 inlet;
#X obj 23 243 hcs/folder_list;
#X obj 23 97 jasch_lib/strtok /;
#X obj 23 117 t a a, f 10;
#X obj 80 137 list length;
#X obj 23 178 list split;
#X obj 80 158 - 1;
#X obj 23 200 zexy/list2symbol /;
#X obj 23 221 makefilename /%s/*.mid;
#X connect 0 0 7 0;
#X connect 1 0 0 0;
#X connect 2 0 3 0;
#X connect 2 0 6 0;
#X connect 3 0 2 1;
#X connect 4 0 1 0;
#X connect 4 1 5 0;
#X connect 5 0 2 1;
#X connect 7 0 8 0;
#X connect 7 1 2 0;
#X connect 9 0 4 0;
#X connect 11 0 12 0;
#X connect 12 0 14 0;
#X connect 12 1 13 0;
#X connect 13 0 15 0;
#X connect 14 0 16 0;
#X connect 15 0 14 1;
#X connect 16 0 17 0;
#X connect 17 0 10 0;
#X restore 44 57 pd load-folder;
#X obj 44 35 bng 15 250 50 0 empty empty empty 17 7 0 10 -262144 -1
-1;
#X text 64 34 select corpus folder to analyse;
#N canvas 113 130 548 529 read-midi-file 0;
#X msg 44 76 flush;
#X obj 20 305 / 4;
#X obj 20 282 unpack 0 0 0 0 0;
#X obj 44 98 t a b, f 6;
#X msg 44 33 read \$1;
#X obj 129 196 pdmus/midi-player;
#X obj 391 418 t b b;
#X obj 162 485 outlet;
#X obj 162 464 pdmus/midi-sort-events;
#X obj 282 352 * 8;
#X obj 162 421 + 0;
#X obj 44 54 t b a b, f 29;
#X msg 215 74 0;
#X obj 228 216 f;
#X obj 162 376 unpack 0 0 0;
#X obj 162 442 pack 0 0 0, f 12;
#X obj 228 281 f 0;
#X obj 258 281 + 1;
#X obj 267 374 f;
#X obj 228 304 sel 0 1, f 8;
#X obj 228 236 sel 2 4;
#X obj 228 329 t b b, f 7;
#X msg 228 351 flush;
#X obj 215 94 s \$0-reset-count;
#X obj 177 399 r \$0-reset-count;
#X obj 20 326 s \$0-bars;
#X obj 89 303 s \$0-ticks/4;
#X obj 243 196 r \$0-bars;
#X obj 170 148 s \$0-reset-analysis;
#X obj 282 330 r \$0-ticks/4;
#X obj 243 260 r \$0-reset-count;
#X obj 44 12 inlet;
#X obj 391 480 outlet;
#X obj 20 262 vabs/oncev;
#X obj 391 397 vabs/oncev;
#X connect 0 0 3 0;
#X connect 1 0 25 0;
#X connect 2 0 1 0;
#X connect 2 3 26 0;
#X connect 3 0 5 0;
#X connect 3 1 28 0;
#X connect 3 1 33 1;
#X connect 3 1 34 1;
#X connect 4 0 11 0;
#X connect 5 1 14 0;
#X connect 5 2 33 0;
#X connect 5 3 13 0;
#X connect 6 0 32 0;
#X connect 6 1 8 1;
#X connect 8 0 7 0;
#X connect 9 0 18 1;
#X connect 10 0 15 0;
#X connect 11 0 0 0;
#X connect 11 1 5 0;
#X connect 11 2 12 0;
#X connect 12 0 23 0;
#X connect 13 0 20 0;
#X connect 14 0 10 0;
#X connect 14 1 15 1;
#X connect 14 2 15 2;
#X connect 15 0 8 0;
#X connect 16 0 17 0;
#X connect 16 0 19 0;
#X connect 17 0 16 1;
#X connect 18 0 10 1;
#X connect 19 0 21 0;
#X connect 19 1 34 0;
#X connect 20 0 16 0;
#X connect 20 1 34 0;
#X connect 21 0 22 0;
#X connect 21 1 18 0;
#X connect 22 0 5 0;
#X connect 24 0 10 1;
#X connect 27 0 13 1;
#X connect 29 0 9 0;
#X connect 30 0 16 1;
#X connect 31 0 4 0;
#X connect 33 0 2 0;
#X connect 34 0 6 0;
#X restore 44 81 pd read-midi-file;
#N canvas 345 36 609 606 analyse-file 0;
#X obj 5 6 inlet;
#X obj 5 28 unpack 0 0 0 0;
#X obj 5 71 /;
#X obj 59 72 != 0;
#X obj 5 92 * 4;
#X obj 16 177 route;
#X obj 16 155 t l f, f 8;
#X obj 5 113 pack, f 9;
#X msg 5 241 \$2 \$1;
#X obj 20 49 r \$0-ticks/4;
#X obj 16 200 tabwrite \$0-master-pattern;
#X obj 279 354 inlet;
#X obj 5 313 -;
#X obj 5 333 pack f f;
#X msg 5 354 \$2 \$1;
#X obj 33 282 t f f;
#X obj 5 261 route 0 1, f 10;
#X obj 128 345 r \$0-reset-analysis;
#X obj 279 399 f 0;
#X obj 309 399 + 1;
#X obj 279 498 list append;
#X text 319 354 bang when file analysis ends;
#X obj 16 220 table \$0-master-pattern 65;
#X obj 360 499 list append;
#X obj 420 476 zexy/tabdump \$0-master-pattern;
#X obj 279 377 t b b, f 24;
#X obj 279 421 t f f, f 14;
#X obj 370 520 r \$0-manage-file;
#X obj 360 547 cyclone/coll ./patterns2.txt;
#C restore;
#X obj 279 570 cyclone/coll ./patterns1.txt;
#C restore;
#X obj 5 134 vabs/change-any;
#X obj 5 376 vabs/add2list prepend;
#X obj 141 398 s \$0-master-pattern;
#X msg 141 376 const -1;
#X connect 0 0 1 0;
#X connect 1 0 2 0;
#X connect 1 2 3 0;
#X connect 2 0 4 0;
#X connect 3 0 7 1;
#X connect 4 0 7 0;
#X connect 5 0 10 0;
#X connect 6 0 5 0;
#X connect 6 1 5 1;
#X connect 6 1 10 1;
#X connect 7 0 30 0;
#X connect 8 0 16 0;
#X connect 9 0 2 1;
#X connect 11 0 25 0;
#X connect 12 0 13 0;
#X connect 13 0 14 0;
#X connect 14 0 31 0;
#X connect 15 0 13 1;
#X connect 15 1 12 1;
#X connect 16 0 12 0;
#X connect 16 1 15 0;
#X connect 17 0 33 0;
#X connect 17 0 31 1;
#X connect 18 0 19 0;
#X connect 18 0 26 0;
#X connect 19 0 18 1;
#X connect 20 0 29 0;
#X connect 23 0 28 0;
#X connect 24 0 23 1;
#X connect 25 0 18 0;
#X connect 25 1 24 0;
#X connect 26 0 20 0;
#X connect 26 1 23 0;
#X connect 27 0 28 0;
#X connect 27 0 29 0;
#X connect 30 0 8 0;
#X connect 30 0 6 0;
#X connect 31 0 20 1;
#X connect 33 0 32 0;
#X restore 44 105 pd analyse-file;
#X msg 291 93 clear;
#X msg 291 71 writeagain;
#X msg 291 49 readagain;
#X obj 291 115 s \$0-manage-file;
#X connect 0 0 3 0;
#X connect 1 0 0 0;
#X connect 3 0 4 0;
#X connect 3 1 4 1;
#X connect 5 0 8 0;
#X connect 6 0 8 0;
#X connect 7 0 8 0;
