#N struct 1003-line float pos float color;
#N struct 1003-chord0 float x float y symbol name;
#N struct 1003-chord1 float x float y symbol name;
#N struct 1003-chord2 float x float y symbol name;
#N struct 1003-chord3 float x float y symbol name;
#N struct 1003-chord4 float x float y symbol name;
#N struct 1003-chord5 float x float y symbol name;
#N struct 1003-chord6 float x float y symbol name;
#N struct 1003-chord7 float x float y symbol name;
#N struct 1003-mchord0 float x float dur;
#N struct 1003-mchord1 float x float dur;
#N struct 1003-mchord2 float x float dur;
#N struct 1003-mchord3 float x float dur;
#N struct 1003-mchord4 float x float dur;
#N struct 1003-mchord5 float x float dur;
#N struct 1003-mchord6 float x float dur;
#N struct 1003-mchord7 float x float dur;
#N struct 1003-mchord8 float x float dur;
#N struct 1003-mchord9 float x float dur;
#N struct 1003-mchord10 float x float dur;
#N struct 1003-mchord11 float x float dur;
#N struct 1003-mchord12 float x float dur;
#N struct 1003-mchord13 float x float dur;
#N struct 1003-mchord14 float x float dur;
#N struct 1003-mchord15 float x float dur;
#N struct 1003-mchord16 float x float dur;
#N struct 1003-mchord17 float x float dur;
#N struct 1003-mchord18 float x float dur;
#N struct 1003-mchord19 float x float dur;
#N struct 1003-mchord20 float x float dur;
#N struct 1003-mchord21 float x float dur;
#N struct 1003-mchord22 float x float dur;
#N struct 1003-mchord23 float x float dur;
#N struct 1003-mchord24 float x float dur;
#N struct 1003-mchord25 float x float dur;
#N struct 1003-mchord26 float x float dur;
#N struct 1003-mchord27 float x float dur;
#N struct 1003-mchord28 float x float dur;
#N struct 1003-mchord29 float x float dur;
#N struct 1003-mchord30 float x float dur;
#N struct 1003-mchord31 float x float dur;
#N struct 1003-mchord32 float x float dur;
#N struct 1003-mchord33 float x float dur;
#N struct 1003-mchord34 float x float dur;
#N struct 1003-mchord35 float x float dur;
#N struct 1003-mchord36 float x float dur;
#N struct 1003-mchord37 float x float dur;
#N struct 1003-mchord38 float x float dur;
#N struct 1003-mchord39 float x float dur;
#N struct 1003-mchord40 float x float dur;
#N struct 1003-mchord41 float x float dur;
#N struct 1003-mchord42 float x float dur;
#N struct 1003-mchord43 float x float dur;
#N struct 1003-mchord44 float x float dur;
#N struct 1003-mchord45 float x float dur;
#N struct 1003-mchord46 float x float dur;
#N struct 1003-mchord47 float x float dur;
#N struct 1003-mchord48 float x float dur;
#N struct 1003-mchord49 float x float dur;
#N struct 1003-mchord50 float x float dur;
#N struct 1003-mchord51 float x float dur;
#N struct 1003-mchord52 float x float dur;
#N struct 1003-mchord53 float x float dur;
#N struct 1003-mchord54 float x float dur;
#N struct 1003-mchord55 float x float dur;
#N struct 1003-mchord56 float x float dur;
#N struct 1003-mchord57 float x float dur;
#N struct 1003-mchord58 float x float dur;
#N struct 1003-mchord59 float x float dur;
#N struct 1003-mchord60 float x float dur;
#N struct 1003-mchord61 float x float dur;
#N struct 1003-mchord62 float x float dur;
#N struct 1003-mchord63 float x float dur;
#N struct 1003-schord0 float x float dur;
#N struct 1003-schord1 float x float dur;
#N struct 1003-schord2 float x float dur;
#N struct 1003-schord3 float x float dur;
#N struct 1003-schord4 float x float dur;
#N struct 1003-schord5 float x float dur;
#N struct 1003-schord6 float x float dur;
#N struct 1003-schord7 float x float dur;
#N struct 1003-schord8 float x float dur;
#N struct 1003-schord9 float x float dur;
#N struct 1003-schord10 float x float dur;
#N struct 1003-schord11 float x float dur;
#N struct 1003-schord12 float x float dur;
#N struct 1003-schord13 float x float dur;
#N struct 1003-schord14 float x float dur;
#N struct 1003-schord15 float x float dur;
#N struct 1003-schord16 float x float dur;
#N struct 1003-schord17 float x float dur;
#N struct 1003-schord18 float x float dur;
#N struct 1003-schord19 float x float dur;
#N struct 1003-schord20 float x float dur;
#N struct 1003-schord21 float x float dur;
#N struct 1003-schord22 float x float dur;
#N struct 1003-schord23 float x float dur;
#N struct 1003-schord24 float x float dur;
#N struct 1003-schord25 float x float dur;
#N struct 1003-schord26 float x float dur;
#N struct 1003-schord27 float x float dur;
#N struct 1003-schord28 float x float dur;
#N struct 1003-schord29 float x float dur;
#N struct 1003-schord30 float x float dur;
#N struct 1003-schord31 float x float dur;
#N struct 1003-schord32 float x float dur;
#N struct 1003-schord33 float x float dur;
#N struct 1003-schord34 float x float dur;
#N struct 1003-schord35 float x float dur;
#N struct 1003-schord36 float x float dur;
#N struct 1003-schord37 float x float dur;
#N struct 1003-schord38 float x float dur;
#N struct 1003-schord39 float x float dur;
#N struct 1003-schord40 float x float dur;
#N struct 1003-schord41 float x float dur;
#N struct 1003-schord42 float x float dur;
#N struct 1003-schord43 float x float dur;
#N struct 1003-schord44 float x float dur;
#N struct 1003-schord45 float x float dur;
#N struct 1003-schord46 float x float dur;
#N struct 1003-schord47 float x float dur;
#N struct 1003-schord48 float x float dur;
#N struct 1003-schord49 float x float dur;
#N struct 1003-schord50 float x float dur;
#N struct 1003-schord51 float x float dur;
#N struct 1003-schord52 float x float dur;
#N struct 1003-schord53 float x float dur;
#N struct 1003-schord54 float x float dur;
#N struct 1003-schord55 float x float dur;
#N struct 1003-schord56 float x float dur;
#N struct 1003-schord57 float x float dur;
#N struct 1003-schord58 float x float dur;
#N struct 1003-schord59 float x float dur;
#N struct 1003-schord60 float x float dur;
#N struct 1003-schord61 float x float dur;
#N struct 1003-schord62 float x float dur;
#N struct 1003-schord63 float x float dur;
#N struct 1003-beat float x;
#N struct 1003-point float x float y float c float t;
#N struct 1003-ysis float x float y float heigth float vis;
#N struct 1003-xsis float x float y float length;
#N struct 1003-area float x float y float size;
#N struct 1005-line float pos;
#N canvas 564 23 638 365 8;
#X declare -path pd-abs -path pd-third-party;
#X obj 271 268 hsl 100 15 -2 2 0 0 \$0-raw-register \$0-set-register
register 106 11 1 11 -66577 -258113 -228856 0 0;
#X obj 271 243 hsl 100 15 0 3.9 0 0 \$0-spread \$0-set-spread spread
106 11 1 11 -66577 -258113 -228856 0 0;
#N canvas 725 200 368 422 fifths 0;
#X obj 33 29 flatgui/knob 65 65 0 12 0 0 \$0-key-fifths \$0-set-keyfifths
key -20 -5 1 11 5.69279e+07 1 5.6928e+07 0 1;
#X text 58 14 C;
#X text 77 18 G;
#X text 92 31 D;
#X text 42 20 F;
#X text 22 33 Bb;
#X text 16 50 Eb;
#X text 19 69 Ab;
#X text 34 86 Db;
#X text 51 94 Gb;
#X text 67 94 F#;
#X text 100 49 A;
#X text 98 67 E;
#X text 89 83 B;
#X obj 10 244 change;
#N canvas 0 102 450 218 fifhts2secs 0;
#X obj 30 15 inlet;
#X obj 30 170 outlet;
#X msg 30 77 -6;
#X msg 60 77 1;
#X msg 120 77 3;
#X msg 150 77 -2;
#X msg 180 77 5;
#X msg 90 77 -4;
#X obj 30 40 sel 0 1 2 3 4 5 6 7 8 9 10 11 12, f 51;
#X msg 390 77 6;
#X msg 360 77 -1;
#X msg 330 77 4;
#X msg 300 77 -3;
#X msg 270 77 2;
#X msg 240 77 -5;
#X msg 210 77 0;
#X connect 0 0 8 0;
#X connect 2 0 1 0;
#X connect 3 0 1 0;
#X connect 4 0 1 0;
#X connect 5 0 1 0;
#X connect 6 0 1 0;
#X connect 7 0 1 0;
#X connect 8 0 2 0;
#X connect 8 1 3 0;
#X connect 8 2 7 0;
#X connect 8 3 4 0;
#X connect 8 4 5 0;
#X connect 8 5 6 0;
#X connect 8 6 15 0;
#X connect 8 7 14 0;
#X connect 8 8 13 0;
#X connect 8 9 12 0;
#X connect 8 10 11 0;
#X connect 8 11 10 0;
#X connect 8 12 9 0;
#X connect 9 0 1 0;
#X connect 10 0 1 0;
#X connect 11 0 1 0;
#X connect 12 0 1 0;
#X connect 13 0 1 0;
#X connect 14 0 1 0;
#X connect 15 0 1 0;
#X restore 10 265 pd fifhts2secs;
#X obj 10 128 r \$0-key-fifths;
#X obj 10 286 s \$0-key;
#X obj 10 170 int;
#X obj 95 289 s \$0-set-keyfifths;
#X msg 95 268 set \$1;
#X obj 10 149 + 0.5;
#X obj 95 200 vabs/delgate 200;
#X obj 104 222 oscformat h_key;
#X obj 104 244 s to-osc-gui;
#X connect 14 0 15 0;
#X connect 15 0 17 0;
#X connect 16 0 21 0;
#X connect 18 0 14 0;
#X connect 18 0 22 0;
#X connect 20 0 19 0;
#X connect 21 0 18 0;
#X connect 22 0 20 0;
#X connect 22 0 23 0;
#X connect 23 0 24 0;
#X coords 0 -1 1 1 105 105 2 10 10;
#X restore 468 135 pd fifths;
#N canvas 0 50 959 334 \$0-data 0;
#X scalar 1003-line 26 900 \;;
#X scalar 1003-line 130 666 \;;
#X scalar 1003-line 234 666 \;;
#X scalar 1003-line 338 666 \;;
#X scalar 1003-line 442 900 \;;
#X scalar 1003-line 546 666 \;;
#X scalar 1003-line 650 666 \;;
#X scalar 1003-line 754 666 \;;
#X scalar 1003-line 858 900 \;;
#X scalar 1003-line 962 666 \;;
#X scalar 1003-line 1066 666 \;;
#X scalar 1003-line 1170 666 \;;
#X scalar 1003-line 1274 900 \;;
#X scalar 1003-line 1378 666 \;;
#X scalar 1003-line 1482 666 \;;
#X scalar 1003-line 1586 666 \;;
#X scalar 1003-line 1690 900 \;;
#X scalar 1003-chord0 30 0 Imaj \;;
#X scalar 1003-chord1 446 0 VIImin7 \;;
#X scalar 1003-chord2 862 0 Imaj \;;
#X scalar 1003-chord3 1278 0 VIImin7 \;;
#X scalar 1003-chord4 3 0 symbol \;;
#X scalar 1003-chord5 3 0 symbol \;;
#X scalar 1003-chord6 3 0 symbol \;;
#X scalar 1003-chord7 3 0 symbol \;;
#X scalar 1003-mchord0 33.2 404.6 \;;
#X scalar 1003-mchord1 449.2 404.6 \;;
#X scalar 1003-mchord2 865.2 404.6 \;;
#X scalar 1003-mchord3 1281.2 404.6 \;;
#X scalar 1003-mchord4 -100 0 \;;
#X scalar 1003-mchord5 -100 0 \;;
#X scalar 1003-mchord6 -100 0 \;;
#X scalar 1003-mchord7 -100 0 \;;
#X scalar 1003-mchord8 -100 0 \;;
#X scalar 1003-mchord9 -100 0 \;;
#X scalar 1003-mchord10 -100 0 \;;
#X scalar 1003-mchord11 -100 0 \;;
#X scalar 1003-mchord12 -100 0 \;;
#X scalar 1003-mchord13 -100 0 \;;
#X scalar 1003-mchord14 -100 0 \;;
#X scalar 1003-mchord15 -100 0 \;;
#X scalar 1003-mchord16 -100 0 \;;
#X scalar 1003-mchord17 -100 0 \;;
#X scalar 1003-mchord18 -100 0 \;;
#X scalar 1003-mchord19 -100 0 \;;
#X scalar 1003-mchord20 -100 0 \;;
#X scalar 1003-mchord21 -100 0 \;;
#X scalar 1003-mchord22 -100 0 \;;
#X scalar 1003-mchord23 -100 0 \;;
#X scalar 1003-mchord24 -100 0 \;;
#X scalar 1003-mchord25 -100 0 \;;
#X scalar 1003-mchord26 -100 0 \;;
#X scalar 1003-mchord27 -100 0 \;;
#X scalar 1003-mchord28 -100 0 \;;
#X scalar 1003-mchord29 -100 0 \;;
#X scalar 1003-mchord30 -100 0 \;;
#X scalar 1003-mchord31 -100 0 \;;
#X scalar 1003-mchord32 -100 0 \;;
#X scalar 1003-mchord33 -100 0 \;;
#X scalar 1003-mchord34 -100 0 \;;
#X scalar 1003-mchord35 -100 0 \;;
#X scalar 1003-mchord36 -100 0 \;;
#X scalar 1003-mchord37 -100 0 \;;
#X scalar 1003-mchord38 -100 0 \;;
#X scalar 1003-mchord39 -100 0 \;;
#X scalar 1003-mchord40 -100 0 \;;
#X scalar 1003-mchord41 -100 0 \;;
#X scalar 1003-mchord42 -100 0 \;;
#X scalar 1003-mchord43 -100 0 \;;
#X scalar 1003-mchord44 -100 0 \;;
#X scalar 1003-mchord45 -100 0 \;;
#X scalar 1003-mchord46 -100 0 \;;
#X scalar 1003-mchord47 -100 0 \;;
#X scalar 1003-mchord48 -100 0 \;;
#X scalar 1003-mchord49 -100 0 \;;
#X scalar 1003-mchord50 -100 0 \;;
#X scalar 1003-mchord51 -100 0 \;;
#X scalar 1003-mchord52 -100 0 \;;
#X scalar 1003-mchord53 -100 0 \;;
#X scalar 1003-mchord54 -100 0 \;;
#X scalar 1003-mchord55 -100 0 \;;
#X scalar 1003-mchord56 -100 0 \;;
#X scalar 1003-mchord57 -100 0 \;;
#X scalar 1003-mchord58 -100 0 \;;
#X scalar 1003-mchord59 -100 0 \;;
#X scalar 1003-mchord60 -100 0 \;;
#X scalar 1003-mchord61 -100 0 \;;
#X scalar 1003-mchord62 -100 0 \;;
#X scalar 1003-mchord63 -100 0 \;;
#X scalar 1003-schord0 33.2 403 \;;
#X scalar 1003-schord1 449.2 403 \;;
#X scalar 1003-schord2 865.2 403 \;;
#X scalar 1003-schord3 1281.2 403 \;;
#X scalar 1003-schord4 100 0 \;;
#X scalar 1003-schord5 100 0 \;;
#X scalar 1003-schord6 100 0 \;;
#X scalar 1003-schord7 100 0 \;;
#X scalar 1003-schord8 100 0 \;;
#X scalar 1003-schord9 100 0 \;;
#X scalar 1003-schord10 100 0 \;;
#X scalar 1003-schord11 100 0 \;;
#X scalar 1003-schord12 100 0 \;;
#X scalar 1003-schord13 100 0 \;;
#X scalar 1003-schord14 100 0 \;;
#X scalar 1003-schord15 100 0 \;;
#X scalar 1003-schord16 100 0 \;;
#X scalar 1003-schord17 100 0 \;;
#X scalar 1003-schord18 100 0 \;;
#X scalar 1003-schord19 100 0 \;;
#X scalar 1003-schord20 100 0 \;;
#X scalar 1003-schord21 100 0 \;;
#X scalar 1003-schord22 100 0 \;;
#X scalar 1003-schord23 100 0 \;;
#X scalar 1003-schord24 100 0 \;;
#X scalar 1003-schord25 100 0 \;;
#X scalar 1003-schord26 100 0 \;;
#X scalar 1003-schord27 100 0 \;;
#X scalar 1003-schord28 100 0 \;;
#X scalar 1003-schord29 100 0 \;;
#X scalar 1003-schord30 100 0 \;;
#X scalar 1003-schord31 100 0 \;;
#X scalar 1003-schord32 100 0 \;;
#X scalar 1003-schord33 100 0 \;;
#X scalar 1003-schord34 100 0 \;;
#X scalar 1003-schord35 100 0 \;;
#X scalar 1003-schord36 100 0 \;;
#X scalar 1003-schord37 100 0 \;;
#X scalar 1003-schord38 100 0 \;;
#X scalar 1003-schord39 100 0 \;;
#X scalar 1003-schord40 100 0 \;;
#X scalar 1003-schord41 100 0 \;;
#X scalar 1003-schord42 100 0 \;;
#X scalar 1003-schord43 100 0 \;;
#X scalar 1003-schord44 100 0 \;;
#X scalar 1003-schord45 100 0 \;;
#X scalar 1003-schord46 100 0 \;;
#X scalar 1003-schord47 100 0 \;;
#X scalar 1003-schord48 100 0 \;;
#X scalar 1003-schord49 100 0 \;;
#X scalar 1003-schord50 100 0 \;;
#X scalar 1003-schord51 100 0 \;;
#X scalar 1003-schord52 100 0 \;;
#X scalar 1003-schord53 100 0 \;;
#X scalar 1003-schord54 100 0 \;;
#X scalar 1003-schord55 100 0 \;;
#X scalar 1003-schord56 100 0 \;;
#X scalar 1003-schord57 100 0 \;;
#X scalar 1003-schord58 100 0 \;;
#X scalar 1003-schord59 100 0 \;;
#X scalar 1003-schord60 100 0 \;;
#X scalar 1003-schord61 100 0 \;;
#X scalar 1003-schord62 100 0 \;;
#X scalar 1003-schord63 100 0 \;;
#X scalar 1003-beat 26 \;;
#X coords 0 0 1715 120 600 80 2 0 0;
#X restore 13 31 pd \$0-data;
#X obj 271 138 hsl 100 15 0 27 0 0 \$0-chord-pattern \$0-set-chord-pattern
pattern 106 11 1 11 -66577 -258113 -228856 0 0;
#N canvas 0 92 585 454 \$0-plot 0;
#X scalar 1003-point 172.443 65.3846 900 5 \;;
#X scalar 1003-point 103.834 99.2308 222 5 \;;
#X scalar 1003-point 127.18 188.462 222 5 \;;
#X scalar 1003-point 159.623 185.385 222 5 \;;
#X scalar 1003-point 134.211 93.0769 222 5 \;;
#X scalar 1003-point 139.474 126.923 222 5 \;;
#X scalar 1003-point 90.1496 102.308 222 5 \;;
#X scalar 1003-point 119.474 120.769 222 5 \;;
#X scalar 1003-point 137.368 179.231 222 5 \;;
#X scalar 1003-point 33.1579 86.9231 222 5 \;;
#X scalar 1003-point 12.1053 160.769 222 5 \;;
#X scalar 1003-point 45.7895 160.769 222 5 \;;
#X scalar 1003-point 191.202 96.1538 222 5 \;;
#X scalar 1003-point 134.211 120.769 222 5 \;;
#X scalar 1003-point 64.0216 114.615 222 5 \;;
#X scalar 1003-point 49.0969 90 222 5 \;;
#X scalar 1003-point 79.4737 163.846 222 5 \;;
#X scalar 1003-point 67.8947 176.154 222 5 \;;
#X scalar 1003-point 76.3158 173.077 222 5 \;;
#X scalar 1003-point 77.3684 160.769 222 5 \;;
#X scalar 1003-point 31.2022 93.0769 222 5 \;;
#X scalar 1003-point 40.5263 130 222 5 \;;
#X scalar 1003-point 22.6316 130 222 5 \;;
#X scalar 1003-point 90 93.0769 222 5 \;;
#X scalar 1003-point 64.7368 34.6154 222 5 \;;
#X scalar 1003-point 88.0443 96.1538 222 5 \;;
#X scalar 1003-point 40.5263 123.846 222 5 \;;
#X scalar 1003-point 81.9163 65.3846 222 5 \;;
#X scalar 1003-point 62.6316 37.6923 222 5 \;;
#X scalar 1003-point 41.5789 154.615 222 5 \;;
#X scalar 1003-point 73.1579 157.692 222 5 \;;
#X scalar 1003-point 94.3601 90 222 5 \;;
#X scalar 1003-point 102.632 40.7692 222 5 \;;
#X scalar 1003-point 55.2632 28.4615 222 5 \;;
#X scalar 1003-point 42.6316 120.769 222 5 \;;
#X scalar 1003-point 55.2632 31.5385 222 5 \;;
#X scalar 1003-point 112.485 22.3077 222 5 \;;
#X scalar 1003-point 22.6316 130 222 5 \;;
#X scalar 1003-point 116.696 56.1538 222 5 \;;
#X scalar 1003-point 193.158 37.6923 222 5 \;;
#X scalar 1003-point 136.316 160.769 222 5 \;;
#X scalar 1003-point 147.18 68.4615 222 5 \;;
#X scalar 1003-point 164.205 90 222 5 \;;
#X scalar 1003-point 197.368 130 222 5 \;;
#X scalar 1003-point 173.158 126.923 222 5 \;;
#X scalar 1003-point 28.2321 59.2308 222 5 \;;
#X scalar 1003-point 163.684 37.6923 222 5 \;;
#X scalar 1003-point 143.684 34.6154 222 5 \;;
#X scalar 1003-ysis 110 10 200 0 \;;
#X scalar 1003-xsis 10 110 200 \;;
#X scalar 1003-area 10 10 200 \;;
#X coords 10 10 210 210 200 200 2 0 0;
#X restore 21 136 pd \$0-plot;
#X text 9 202 minor, f 1;
#X text 223 201 major, f 1;
#X text 97 335 diatonic;
#X text 90 121 chromatic;
#X obj 268 218 hradio 15 1 0 7 \$0-chords-octave \$0-set-chords-octave
octave 109 11 1 11 -66577 -258113 -228856 3;
#X obj 268 293 tgl 15 0 \$0-mute-chords \$0-set-mute-chords mute 18
11 1 11 -66577 -258113 -228856 0 1;
#X obj 271 318 hsl 100 15 0 127 0 0 \$0-chords-volume \$0-set-chords-volume
volume 106 11 1 11 -66577 -258113 -228856 0 0;
#X obj 268 168 vabs/hslm \$0-density 4 1 64;
#X obj 271 193 hsl 100 15 0 100 0 0 \$0-legato \$0-set-legato legato
106 11 1 11 -66577 -258113 -228856 0 0;
#X obj 323 293 nbx 2 15 1 16 0 0 \$0-ch-chords \$0-set-ch-chords midi-channel
31 11 1 11 -66577 -258699 -233017 1 256;
#X obj 378 166 cnv 15 1 1 empty empty density 0 12 1 11 -128992 -228856
0;
#X symbolatom 199 14 16 0 0 0 - #0-set-osc-address #0-osc-address,
f 16;
#X floatatom 347 14 5 0 0 0 in #0-set-oscin #0-oscin, f 5;
#X floatatom 302 14 5 0 0 0 out #0-set-oscout #0-oscout, f 5;
#N canvas 198 238 341 464 p 0;
#N canvas 11 22 742 751 adt 0;
#X obj 127 3 r \$0-load-rhythm;
#X obj 127 151 vabs/list-sum;
#X obj 219 74 min 1;
#X obj 219 56 vabs/list-dripv;
#X obj 219 92 vabs/add2list prepend;
#X obj 127 111 list, f 19;
#X obj 87 1281 s, f 15;
#X obj 175 1262 makefilename \$0-slave-chord-fill-%d;
#X obj 60 1069 vabs/list-dripv;
#X obj 60 1147 sel 0;
#X obj 175 1205 f 0;
#X obj 205 1205 + 1;
#X msg 87 1262 \$2 \$1;
#X obj 190 1069 \$0;
#X msg 190 1088 0 \; \$1-slave-chord-show 64;
#X obj 202 1243 s \$0-slave-chord-show;
#X obj 60 1047 t l b l, f 44;
#X obj 276 1067 array set \$0-new-pattern;
#X obj 132 1146 f 0;
#X obj 160 1146 + 1;
#X obj 60 1090 t f b;
#X obj 87 1165 pack 0 0;
#X obj 87 1185 t a b, f 15;
#X obj 175 1225 t f f;
#X obj 14 130 r \$0-density;
#X text 197 1146 step number;
#X text 234 1205 number of onsets;
#X obj 149 209 s set-\$0-density;
#X obj 14 208 int 4;
#X obj 127 170 t f f;
#X obj 127 21 array get \$0-master-pattern;
#X obj 127 38 t b l b b, f 56;
#X obj 235 287 array set \$0-density-pattern, f 19;
#X msg 141 293 64;
#X obj 141 336 vabs/forloop 0;
#X obj 141 374 sel 63;
#X obj 220 376 tabread \$0-density-pattern, f 18;
#X obj 166 589 tabwrite \$0-density-pattern;
#X obj 220 428 f, f 7;
#X obj 220 408 sel 1;
#X msg 336 423 clear;
#X obj 141 317 t f b, f 33;
#X obj 220 459 vabs/add2list prepend;
#X obj 141 484 list;
#X obj 141 395 t b b, f 8;
#X obj 141 503 vabs/list-dripr;
#X msg 187 414 64;
#X obj 166 551 - 64;
#X obj 166 570 abs;
#X obj 141 355 t f f f, f 27;
#X obj 186 832 f, f 7;
#X obj 186 769 sel 0, f 13;
#X obj 225 792 - 1;
#X msg 141 677 64;
#X obj 225 812 max 0;
#X obj 141 695 vabs/forloop 0;
#X obj 141 714 t f f f, f 30;
#X obj 141 737 sel 63;
#X obj 186 737 tabread \$0-density-pattern, f 18;
#X obj 261 853 tabwrite \$0-density-pattern, f 10;
#X obj 141 864 array get \$0-density-pattern, f 18;
#X obj 171 639 + 1;
#X obj 141 639 f 1;
#X obj 141 522 t b f f f;
#X msg 386 607 1;
#X obj 61 267 t l b l b, f 53;
#X obj 510 241 f, f 7;
#X obj 510 178 sel 0, f 13;
#X obj 549 201 - 1;
#X msg 465 86 64;
#X obj 549 221 max 0;
#X obj 465 104 vabs/forloop 0;
#X obj 465 123 t f f f, f 30;
#X obj 465 146 sel 63;
#X obj 465 273 array get \$0-master-pattern, f 18;
#X obj 585 262 tabwrite \$0-master-pattern, f 10;
#X obj 510 147 tabread \$0-master-pattern, f 18;
#X msg 149 190 mark \$1;
#X obj 14 247 route bang;
#X obj 60 1008 vabs/listv;
#X obj 155 958 t b b f;
#X obj 141 986 vabs/listv;
#X obj 198 639 int 4;
#X obj 141 658 sel 4, f 10;
#X obj 198 612 r \$0-density;
#X obj 14 229 populate-rhythm64, f 38;
#X obj 141 1008 vabs/list-scale 1;
#X obj 220 900 r \$0-legato;
#X obj 155 938 / 100;
#X obj 60 1028 vabs/list-prod;
#X text 382 55 conectaríamos aquí para elaborar el legato en relación
al master pattern, f 36;
#X obj 220 921 vabs/delgate 200;
#X obj 14 151 vabs/delgate 200;
#X obj 127 130 t l l, f 16;
#X obj 220 940 play-update 32 \$0;
#X obj 14 172 play-update 32 \$0;
#X connect 0 0 30 0;
#X connect 1 0 29 0;
#X connect 2 0 4 0;
#X connect 3 0 2 0;
#X connect 4 0 5 1;
#X connect 5 0 93 0;
#X connect 7 0 6 1;
#X connect 8 0 20 0;
#X connect 9 1 21 0;
#X connect 10 0 11 0;
#X connect 10 0 23 0;
#X connect 11 0 10 1;
#X connect 12 0 6 0;
#X connect 13 0 14 0;
#X connect 14 0 10 1;
#X connect 14 0 18 1;
#X connect 16 0 8 0;
#X connect 16 1 13 0;
#X connect 16 2 17 0;
#X connect 18 0 19 0;
#X connect 18 0 21 1;
#X connect 19 0 18 1;
#X connect 20 0 9 0;
#X connect 20 1 18 0;
#X connect 21 0 22 0;
#X connect 22 0 12 0;
#X connect 22 1 10 0;
#X connect 23 0 7 0;
#X connect 23 1 15 0;
#X connect 24 0 92 0;
#X connect 28 0 85 0;
#X connect 29 0 28 1;
#X connect 29 1 77 0;
#X connect 30 0 31 0;
#X connect 31 0 5 0;
#X connect 31 1 3 0;
#X connect 31 2 4 1;
#X connect 33 0 41 0;
#X connect 34 0 49 0;
#X connect 35 0 44 0;
#X connect 36 0 39 0;
#X connect 38 0 42 0;
#X connect 39 0 38 0;
#X connect 40 0 42 0;
#X connect 41 0 34 0;
#X connect 41 1 40 0;
#X connect 42 0 43 1;
#X connect 43 0 45 0;
#X connect 44 0 43 0;
#X connect 44 1 46 0;
#X connect 45 0 63 0;
#X connect 46 0 47 1;
#X connect 47 0 48 0;
#X connect 48 0 37 0;
#X connect 49 0 35 0;
#X connect 49 1 36 0;
#X connect 49 2 38 1;
#X connect 50 0 52 0;
#X connect 50 0 59 0;
#X connect 51 0 50 0;
#X connect 51 1 52 0;
#X connect 51 1 59 0;
#X connect 52 0 54 0;
#X connect 53 0 55 0;
#X connect 54 0 50 1;
#X connect 55 0 56 0;
#X connect 56 0 57 0;
#X connect 56 1 58 0;
#X connect 56 2 59 1;
#X connect 57 0 60 0;
#X connect 58 0 51 0;
#X connect 60 0 81 0;
#X connect 61 0 62 1;
#X connect 62 0 61 0;
#X connect 62 0 83 0;
#X connect 63 0 62 0;
#X connect 63 1 47 1;
#X connect 63 2 47 0;
#X connect 63 3 37 1;
#X connect 64 0 62 1;
#X connect 65 0 79 0;
#X connect 65 1 33 0;
#X connect 65 2 32 0;
#X connect 65 3 64 0;
#X connect 66 0 68 0;
#X connect 66 0 75 0;
#X connect 67 0 66 0;
#X connect 67 1 68 0;
#X connect 67 1 75 0;
#X connect 68 0 70 0;
#X connect 69 0 71 0;
#X connect 70 0 66 1;
#X connect 71 0 72 0;
#X connect 72 0 73 0;
#X connect 72 1 76 0;
#X connect 72 2 75 1;
#X connect 73 0 74 0;
#X connect 76 0 67 0;
#X connect 77 0 27 0;
#X connect 78 1 65 0;
#X connect 79 0 89 0;
#X connect 80 0 79 0;
#X connect 80 1 81 0;
#X connect 80 2 86 1;
#X connect 81 0 86 0;
#X connect 82 0 83 1;
#X connect 83 0 53 0;
#X connect 84 0 82 0;
#X connect 85 0 78 0;
#X connect 86 0 89 1;
#X connect 87 0 91 0;
#X connect 88 0 80 0;
#X connect 89 0 16 0;
#X connect 91 0 94 0;
#X connect 92 0 95 0;
#X connect 93 0 1 0;
#X connect 93 1 85 1;
#X connect 94 0 88 0;
#X connect 95 0 28 0;
#X restore 292 207 pd adt;
#N canvas 124 23 1060 655 load-midi-loop 0;
#X msg 394 171 flush;
#X obj 508 296 / 4;
#X obj 508 273 unpack 0 0 0 0 0;
#X msg 308 604 read \$1;
#X obj 394 218 pdmus/midi-player;
#X obj 647 461 t b b, f 19;
#X obj 427 614 outlet;
#X obj 427 593 pdmus/midi-sort-events, f 56;
#X obj 547 464 * 8;
#X obj 427 550 + 0, f 18;
#X obj 394 129 t b a b, f 33;
#X msg 589 148 0;
#X obj 493 318 f;
#X obj 427 508 unpack 0 0 0;
#X obj 427 571 pack 0 0 0, f 12;
#X obj 493 383 f 0;
#X obj 523 383 + 1;
#X obj 532 486 f;
#X obj 493 406 sel 0 1, f 23;
#X obj 493 338 sel 2 4, f 52;
#X obj 493 441 t b b, f 7;
#X msg 493 463 flush;
#X obj 589 166 s \$0-reset-count;
#X obj 657 493 s \$0-end-analysis;
#X obj 577 294 s \$0-ticks/4;
#X obj 547 442 r \$0-ticks/4;
#X obj 508 361 r \$0-reset-count;
#X obj 875 215 s \$0-reset-chords;
#X obj 540 507 r \$0-reset-count;
#X obj 394 193 t a b b, f 79;
#X text 774 465 here we could send a bang when the midifile analysis
is done., f 31;
#X obj 3 299 hcs/folder_list;
#X obj 13 112 openpanel;
#X obj 13 133 jasch_lib/strtok /;
#X obj 13 153 t a a, f 10;
#X obj 60 173 list length;
#X obj 13 214 list split;
#X obj 60 194 - 1;
#X obj 13 236 zexy/list2symbol /;
#X obj 175 342 + 1;
#X obj 13 257 makefilename /%s/*.mid;
#X obj 13 68 r \$0-load-folder;
#X obj 145 365 s \$0-files-in-folder;
#X obj 3 320 t s b, f 29;
#X obj 3 278 trigger symbol bang, f 24;
#X obj 3 365 list prepend, f 26;
#X obj 13 90 t b b b, f 45;
#X obj 3 578 cyclone/coll;
#C restore;
#X msg 290 390 clear;
#X obj 15 394 r \$0-file-index;
#X msg 161 320 0;
#X obj 145 342 f 0;
#X obj 787 235 \$0;
#X obj 787 309 pack 0 \$0;
#X obj 3 8 r \$0-load-corpus;
#X obj 787 288 vabs/forloop;
#X obj 12 28 bng 15 250 50 0 empty empty empty 17 7 0 10 -262144 -1
-1;
#X obj 508 253 vabs/oncev;
#X obj 647 440 vabs/oncev;
#X obj 15 415 play-update2 63 \$0;
#X obj 37 476 pdmus/midi-panic-ch 1;
#X obj 37 456 f 1;
#X obj 49 437 r \$0-ch-chords;
#X msg 787 330 \; \$2-showchordname-\$1 0 \;;
#X msg 787 255 8 \; \$1-set-spread 0 \;;
#X obj 15 437 t f b;
#N canvas 0 22 450 300 make_scale 0;
#X obj 251 47 inlet;
#X obj 313 78 inlet;
#X obj 251 100 vabs/add2list;
#X obj 244 181 list-abs/list-unique;
#X obj 244 163 list;
#X obj 244 201 sort;
#X obj 366 78 inlet;
#X obj 251 79 mod 12;
#X obj 244 241 s \$0-raw_pc;
#X connect 0 0 7 0;
#X connect 1 0 2 1;
#X connect 2 0 4 1;
#X connect 3 0 5 0;
#X connect 4 0 3 0;
#X connect 5 0 8 0;
#X connect 6 0 4 0;
#X connect 7 0 2 0;
#X restore 570 559 pd make_scale;
#X msg 3 48 symbol ./corpora/house/*.mid;
#X connect 0 0 29 0;
#X connect 1 0 12 1;
#X connect 2 0 1 0;
#X connect 2 3 24 0;
#X connect 3 0 10 0;
#X connect 4 1 13 0;
#X connect 4 2 57 0;
#X connect 4 3 12 0;
#X connect 5 0 66 2;
#X connect 5 1 7 1;
#X connect 7 0 6 0;
#X connect 8 0 17 1;
#X connect 9 0 14 0;
#X connect 10 0 0 0;
#X connect 10 1 4 0;
#X connect 10 2 11 0;
#X connect 10 2 66 1;
#X connect 11 0 22 0;
#X connect 12 0 19 0;
#X connect 13 0 9 0;
#X connect 13 1 14 1;
#X connect 13 1 66 0;
#X connect 13 2 14 2;
#X connect 14 0 7 0;
#X connect 15 0 16 0;
#X connect 15 0 18 0;
#X connect 16 0 15 1;
#X connect 17 0 9 1;
#X connect 18 0 20 0;
#X connect 18 1 58 0;
#X connect 19 0 15 0;
#X connect 19 1 58 0;
#X connect 20 0 21 0;
#X connect 20 1 17 0;
#X connect 21 0 4 0;
#X connect 25 0 8 0;
#X connect 26 0 15 1;
#X connect 28 0 9 1;
#X connect 29 0 4 0;
#X connect 29 1 57 1;
#X connect 29 1 58 1;
#X connect 29 2 27 0;
#X connect 29 2 52 0;
#X connect 31 0 43 0;
#X connect 32 0 33 0;
#X connect 33 0 34 0;
#X connect 34 0 36 0;
#X connect 34 1 35 0;
#X connect 35 0 37 0;
#X connect 36 0 38 0;
#X connect 37 0 36 1;
#X connect 38 0 40 0;
#X connect 39 0 51 1;
#X connect 40 0 44 0;
#X connect 41 0 46 0;
#X connect 43 0 45 0;
#X connect 43 1 51 0;
#X connect 44 0 31 0;
#X connect 45 0 47 0;
#X connect 46 0 32 0;
#X connect 46 1 50 0;
#X connect 46 2 48 0;
#X connect 47 0 3 0;
#X connect 48 0 47 0;
#X connect 49 0 59 0;
#X connect 50 0 51 1;
#X connect 51 0 39 0;
#X connect 51 0 42 0;
#X connect 51 0 45 1;
#X connect 52 0 64 0;
#X connect 53 0 63 0;
#X connect 54 0 67 0;
#X connect 55 0 53 0;
#X connect 56 0 67 0;
#X connect 57 0 2 0;
#X connect 58 0 5 0;
#X connect 59 0 65 0;
#X connect 61 0 60 0;
#X connect 62 0 61 1;
#X connect 64 0 55 0;
#X connect 65 0 47 0;
#X connect 65 1 61 0;
#X connect 67 0 44 0;
#X restore 202 347 pd load-midi-loop;
#N canvas 0 89 450 300 (subpatch) 0;
#X array \$0-density-pattern 64 float 0;
#X coords 0 64 63 0 100 100 1 0 0;
#X restore 114 21 graph;
#N canvas 582 55 291 444 loadbangs 0;
#X obj 10 125 f \$0;
#X obj 10 106 t b a, f 11;
#X obj 10 87 zexy/list2symbol;
#X obj 10 144 list append;
#X obj 17 28 s \$0-create-visuals;
#X msg 10 68 HOUSE HARMONIC FILLER;
#X obj 10 357 delay;
#X obj 10 376 \$0;
#X msg 10 397 \; \$1-set-chord-pattern 2 \;;
#X obj 10 7 loadbang;
#X obj 10 48 del 200;
#X msg 10 165 300 \; \$1-set-oscin 5001 \; \$1-set-oscout 5000 \; set-oscingui
8000 \; set-oscoutgui 9000 \; \$1-set-ch-chords 1 \; \$1-set-chords-volume
80 \; \$1-set-chords-octave 3 \; \$1-set-register set 0 \; \$1-set-keyfifths
set 6 \; \$1-init-plot bang \; \$1-preset-density 4 \; \$1-set-legato
set 100 \; \$1-init bang \; \$1-load-corpus bang \; \$1-init-mem bang
\; \$1-set-osc-address symbol localhost \; set-oscgui-address symbol
192.168.2.102;
#X connect 0 0 3 0;
#X connect 1 0 0 0;
#X connect 1 1 3 1;
#X connect 2 0 1 0;
#X connect 3 0 11 0;
#X connect 3 0 11 0;
#X connect 5 0 2 0;
#X connect 6 0 7 0;
#X connect 7 0 8 0;
#X connect 9 0 4 0;
#X connect 9 0 10 0;
#X connect 10 0 5 0;
#X connect 11 0 6 0;
#X restore 260 150 pd loadbangs;
#N canvas 210 50 627 665 get-chord-progression 0;
#X obj 11 5 inlet;
#X obj 318 47 unpack 0 0 0 0;
#X obj 318 88 /;
#X obj 360 89 != 0;
#X obj 318 108 * 4;
#X obj 318 128 pack, f 9;
#X obj 11 26 t l l, f 62;
#X msg 318 169 \$2 \$1;
#X obj 11 593 outlet;
#X obj 329 597 outlet;
#X obj 11 48 pdmus/chord-make;
#X obj 33 92 pdmus/chord-estimate;
#X obj 65 250 list prepend;
#X obj 65 289 list2symbol, f 15;
#X obj 130 111 t f f;
#X obj 130 174 -, f 5;
#X obj 130 206 mod 12;
#X obj 11 69 t l l;
#X obj 199 174 * -1;
#X text 228 593 onset position;
#X msg 137 269 symbol;
#X obj 113 551 * -12;
#X msg 52 72 bang;
#X obj 113 446 t l l, f 16;
#X obj 190 467 list length;
#X obj 113 488 /, f 16;
#X obj 113 510 int;
#X obj 113 530 div 12;
#X obj 330 68 r \$0-ticks/4;
#X obj 65 333 pack s f, f 49;
#X text 57 593 basic chord structure;
#N canvas 479 168 329 231 display-chord-names 0;
#X obj 50 13 inlet;
#X obj 72 58 f 0;
#X obj 102 58 + 1;
#X obj 50 123 s, f 5;
#X obj 72 101 makefilename \$0-chordname-%d;
#X obj 72 79 mod 8;
#X text 95 124 chord \, step;
#X obj 50 34 t a b;
#X text 46 170 quantize to quaver;
#X connect 0 0 7 0;
#X connect 1 0 2 0;
#X connect 1 0 5 0;
#X connect 2 0 1 1;
#X connect 4 0 3 1;
#X connect 5 0 4 0;
#X connect 7 0 3 0;
#X connect 7 1 1 0;
#X restore 65 354 pd display-chord-names;
#X obj 318 189 route 1;
#X obj 199 111 r \$0-reset-chords;
#X obj 318 148 vabs/change-any;
#X obj 65 310 vabs/change-symbol;
#X text 185 310 ????;
#X obj 113 426 vabs/add2list prepend;
#X obj 113 467 vabs/list-sum;
#N canvas 435 144 673 589 pc2names 0;
#X obj 9 10 inlet;
#X obj 199 320 sel 0 1 2 3 4 5 6 7 8 9 10 11, f 64;
#X msg 199 353 I;
#X msg 230 353 bII;
#X msg 262 353 II;
#X msg 290 353 bIII;
#X msg 326 353 III;
#X msg 357 353 IV;
#X msg 421 353 V;
#X msg 453 353 bVI;
#X msg 484 353 VI;
#X msg 516 353 bVII;
#X msg 389 353 #IV;
#X obj 199 437 symbol;
#X msg 558 353 VII;
#X obj 214 40 inlet;
#X obj 169 64 pack f f;
#X obj 169 113 route 0 1 2 3 4 5 6 7 8 9 10 11, f 81;
#X msg 169 86 \$2 \$1;
#N canvas 0 50 450 300 C 0;
#X obj 9 31 sel 0 1 2 3 4 5 6 7 8 9 10 11, f 64;
#X msg 9 64 I;
#X msg 40 64 bII;
#X msg 72 64 II;
#X msg 100 64 bIII;
#X msg 136 64 III;
#X msg 167 64 IV;
#X msg 231 64 V;
#X msg 263 64 bVI;
#X msg 294 64 VI;
#X msg 326 64 bVII;
#X msg 199 64 #IV;
#X msg 368 64 VII;
#X obj 9 8 inlet;
#X obj 9 148 outlet;
#X connect 0 0 1 0;
#X connect 0 1 2 0;
#X connect 0 2 3 0;
#X connect 0 3 4 0;
#X connect 0 4 5 0;
#X connect 0 5 6 0;
#X connect 0 6 11 0;
#X connect 0 7 7 0;
#X connect 0 8 8 0;
#X connect 0 9 9 0;
#X connect 0 10 10 0;
#X connect 0 11 12 0;
#X connect 1 0 14 0;
#X connect 2 0 14 0;
#X connect 3 0 14 0;
#X connect 4 0 14 0;
#X connect 5 0 14 0;
#X connect 6 0 14 0;
#X connect 7 0 14 0;
#X connect 8 0 14 0;
#X connect 9 0 14 0;
#X connect 10 0 14 0;
#X connect 11 0 14 0;
#X connect 12 0 14 0;
#X connect 13 0 0 0;
#X restore 169 167 pd C;
#N canvas 0 50 450 300 Db 0;
#X obj 9 31 sel 0 1 2 3 4 5 6 7 8 9 10 11, f 64;
#X msg 9 64 I;
#X msg 40 64 bII;
#X msg 72 64 II;
#X msg 100 64 bIII;
#X msg 136 64 III;
#X msg 167 64 IV;
#X msg 231 64 V;
#X msg 263 64 bVI;
#X msg 294 64 VI;
#X msg 326 64 bVII;
#X msg 199 64 #IV;
#X msg 368 64 VII;
#X obj 9 8 inlet;
#X obj 9 148 outlet;
#X connect 0 0 1 0;
#X connect 0 1 2 0;
#X connect 0 2 3 0;
#X connect 0 3 4 0;
#X connect 0 4 5 0;
#X connect 0 5 6 0;
#X connect 0 6 11 0;
#X connect 0 7 7 0;
#X connect 0 8 8 0;
#X connect 0 9 9 0;
#X connect 0 10 10 0;
#X connect 0 11 12 0;
#X connect 1 0 14 0;
#X connect 2 0 14 0;
#X connect 3 0 14 0;
#X connect 4 0 14 0;
#X connect 5 0 14 0;
#X connect 6 0 14 0;
#X connect 7 0 14 0;
#X connect 8 0 14 0;
#X connect 9 0 14 0;
#X connect 10 0 14 0;
#X connect 11 0 14 0;
#X connect 12 0 14 0;
#X connect 13 0 0 0;
#X restore 209 167 pd Db;
#N canvas 0 50 450 300 D 0;
#X obj 9 31 sel 0 1 2 3 4 5 6 7 8 9 10 11, f 64;
#X msg 9 64 I;
#X msg 40 64 bII;
#X msg 72 64 II;
#X msg 100 64 bIII;
#X msg 136 64 III;
#X msg 167 64 IV;
#X msg 231 64 V;
#X msg 263 64 bVI;
#X msg 294 64 VI;
#X msg 326 64 bVII;
#X msg 199 64 #IV;
#X msg 368 64 VII;
#X obj 9 8 inlet;
#X obj 9 148 outlet;
#X connect 0 0 1 0;
#X connect 0 1 2 0;
#X connect 0 2 3 0;
#X connect 0 3 4 0;
#X connect 0 4 5 0;
#X connect 0 5 6 0;
#X connect 0 6 11 0;
#X connect 0 7 7 0;
#X connect 0 8 8 0;
#X connect 0 9 9 0;
#X connect 0 10 10 0;
#X connect 0 11 12 0;
#X connect 1 0 14 0;
#X connect 2 0 14 0;
#X connect 3 0 14 0;
#X connect 4 0 14 0;
#X connect 5 0 14 0;
#X connect 6 0 14 0;
#X connect 7 0 14 0;
#X connect 8 0 14 0;
#X connect 9 0 14 0;
#X connect 10 0 14 0;
#X connect 11 0 14 0;
#X connect 12 0 14 0;
#X connect 13 0 0 0;
#X restore 249 167 pd D;
#N canvas 0 50 450 300 Eb 0;
#X obj 9 31 sel 0 1 2 3 4 5 6 7 8 9 10 11, f 64;
#X msg 9 64 I;
#X msg 40 64 bII;
#X msg 72 64 II;
#X msg 100 64 bIII;
#X msg 136 64 III;
#X msg 167 64 IV;
#X msg 231 64 V;
#X msg 263 64 bVI;
#X msg 294 64 VI;
#X msg 326 64 bVII;
#X msg 199 64 #IV;
#X msg 368 64 VII;
#X obj 9 8 inlet;
#X obj 9 148 outlet;
#X connect 0 0 1 0;
#X connect 0 1 2 0;
#X connect 0 2 3 0;
#X connect 0 3 4 0;
#X connect 0 4 5 0;
#X connect 0 5 6 0;
#X connect 0 6 11 0;
#X connect 0 7 7 0;
#X connect 0 8 8 0;
#X connect 0 9 9 0;
#X connect 0 10 10 0;
#X connect 0 11 12 0;
#X connect 1 0 14 0;
#X connect 2 0 14 0;
#X connect 3 0 14 0;
#X connect 4 0 14 0;
#X connect 5 0 14 0;
#X connect 6 0 14 0;
#X connect 7 0 14 0;
#X connect 8 0 14 0;
#X connect 9 0 14 0;
#X connect 10 0 14 0;
#X connect 11 0 14 0;
#X connect 12 0 14 0;
#X connect 13 0 0 0;
#X restore 289 167 pd Eb;
#N canvas 0 50 450 300 E 0;
#X obj 9 31 sel 0 1 2 3 4 5 6 7 8 9 10 11, f 64;
#X msg 9 64 I;
#X msg 40 64 bII;
#X msg 72 64 II;
#X msg 100 64 bIII;
#X msg 136 64 III;
#X msg 167 64 IV;
#X msg 231 64 V;
#X msg 263 64 bVI;
#X msg 294 64 VI;
#X msg 326 64 bVII;
#X msg 199 64 #IV;
#X msg 368 64 VII;
#X obj 9 8 inlet;
#X obj 9 148 outlet;
#X connect 0 0 1 0;
#X connect 0 1 2 0;
#X connect 0 2 3 0;
#X connect 0 3 4 0;
#X connect 0 4 5 0;
#X connect 0 5 6 0;
#X connect 0 6 11 0;
#X connect 0 7 7 0;
#X connect 0 8 8 0;
#X connect 0 9 9 0;
#X connect 0 10 10 0;
#X connect 0 11 12 0;
#X connect 1 0 14 0;
#X connect 2 0 14 0;
#X connect 3 0 14 0;
#X connect 4 0 14 0;
#X connect 5 0 14 0;
#X connect 6 0 14 0;
#X connect 7 0 14 0;
#X connect 8 0 14 0;
#X connect 9 0 14 0;
#X connect 10 0 14 0;
#X connect 11 0 14 0;
#X connect 12 0 14 0;
#X connect 13 0 0 0;
#X restore 330 167 pd E;
#N canvas 0 50 450 300 F 0;
#X obj 9 31 sel 0 1 2 3 4 5 6 7 8 9 10 11, f 64;
#X msg 9 64 I;
#X msg 40 64 bII;
#X msg 72 64 II;
#X msg 100 64 bIII;
#X msg 136 64 III;
#X msg 167 64 IV;
#X msg 231 64 V;
#X msg 263 64 bVI;
#X msg 294 64 VI;
#X msg 326 64 bVII;
#X msg 199 64 #IV;
#X msg 368 64 VII;
#X obj 9 8 inlet;
#X obj 9 148 outlet;
#X connect 0 0 1 0;
#X connect 0 1 2 0;
#X connect 0 2 3 0;
#X connect 0 3 4 0;
#X connect 0 4 5 0;
#X connect 0 5 6 0;
#X connect 0 6 11 0;
#X connect 0 7 7 0;
#X connect 0 8 8 0;
#X connect 0 9 9 0;
#X connect 0 10 10 0;
#X connect 0 11 12 0;
#X connect 1 0 14 0;
#X connect 2 0 14 0;
#X connect 3 0 14 0;
#X connect 4 0 14 0;
#X connect 5 0 14 0;
#X connect 6 0 14 0;
#X connect 7 0 14 0;
#X connect 8 0 14 0;
#X connect 9 0 14 0;
#X connect 10 0 14 0;
#X connect 11 0 14 0;
#X connect 12 0 14 0;
#X connect 13 0 0 0;
#X restore 370 167 pd F;
#N canvas 0 50 450 300 F# 0;
#X obj 9 31 sel 0 1 2 3 4 5 6 7 8 9 10 11, f 64;
#X msg 9 64 I;
#X msg 40 64 bII;
#X msg 72 64 II;
#X msg 100 64 bIII;
#X msg 136 64 III;
#X msg 167 64 IV;
#X msg 231 64 V;
#X msg 263 64 bVI;
#X msg 294 64 VI;
#X msg 326 64 bVII;
#X msg 199 64 #IV;
#X msg 368 64 VII;
#X obj 9 8 inlet;
#X obj 9 148 outlet;
#X connect 0 0 1 0;
#X connect 0 1 2 0;
#X connect 0 2 3 0;
#X connect 0 3 4 0;
#X connect 0 4 5 0;
#X connect 0 5 6 0;
#X connect 0 6 11 0;
#X connect 0 7 7 0;
#X connect 0 8 8 0;
#X connect 0 9 9 0;
#X connect 0 10 10 0;
#X connect 0 11 12 0;
#X connect 1 0 14 0;
#X connect 2 0 14 0;
#X connect 3 0 14 0;
#X connect 4 0 14 0;
#X connect 5 0 14 0;
#X connect 6 0 14 0;
#X connect 7 0 14 0;
#X connect 8 0 14 0;
#X connect 9 0 14 0;
#X connect 10 0 14 0;
#X connect 11 0 14 0;
#X connect 12 0 14 0;
#X connect 13 0 0 0;
#X restore 410 167 pd F#;
#N canvas 0 50 450 300 G 0;
#X obj 9 31 sel 0 1 2 3 4 5 6 7 8 9 10 11, f 64;
#X msg 9 64 I;
#X msg 40 64 bII;
#X msg 72 64 II;
#X msg 100 64 bIII;
#X msg 136 64 III;
#X msg 167 64 IV;
#X msg 231 64 V;
#X msg 263 64 bVI;
#X msg 294 64 VI;
#X msg 326 64 bVII;
#X msg 199 64 #IV;
#X msg 368 64 VII;
#X obj 9 8 inlet;
#X obj 9 148 outlet;
#X connect 0 0 1 0;
#X connect 0 1 2 0;
#X connect 0 2 3 0;
#X connect 0 3 4 0;
#X connect 0 4 5 0;
#X connect 0 5 6 0;
#X connect 0 6 11 0;
#X connect 0 7 7 0;
#X connect 0 8 8 0;
#X connect 0 9 9 0;
#X connect 0 10 10 0;
#X connect 0 11 12 0;
#X connect 1 0 14 0;
#X connect 2 0 14 0;
#X connect 3 0 14 0;
#X connect 4 0 14 0;
#X connect 5 0 14 0;
#X connect 6 0 14 0;
#X connect 7 0 14 0;
#X connect 8 0 14 0;
#X connect 9 0 14 0;
#X connect 10 0 14 0;
#X connect 11 0 14 0;
#X connect 12 0 14 0;
#X connect 13 0 0 0;
#X restore 450 167 pd G;
#N canvas 0 50 450 300 Ab 0;
#X obj 9 31 sel 0 1 2 3 4 5 6 7 8 9 10 11, f 64;
#X msg 9 64 I;
#X msg 40 64 bII;
#X msg 72 64 II;
#X msg 100 64 bIII;
#X msg 136 64 III;
#X msg 167 64 IV;
#X msg 231 64 V;
#X msg 263 64 bVI;
#X msg 294 64 VI;
#X msg 326 64 bVII;
#X msg 199 64 #IV;
#X msg 368 64 VII;
#X obj 9 8 inlet;
#X obj 9 148 outlet;
#X connect 0 0 1 0;
#X connect 0 1 2 0;
#X connect 0 2 3 0;
#X connect 0 3 4 0;
#X connect 0 4 5 0;
#X connect 0 5 6 0;
#X connect 0 6 11 0;
#X connect 0 7 7 0;
#X connect 0 8 8 0;
#X connect 0 9 9 0;
#X connect 0 10 10 0;
#X connect 0 11 12 0;
#X connect 1 0 14 0;
#X connect 2 0 14 0;
#X connect 3 0 14 0;
#X connect 4 0 14 0;
#X connect 5 0 14 0;
#X connect 6 0 14 0;
#X connect 7 0 14 0;
#X connect 8 0 14 0;
#X connect 9 0 14 0;
#X connect 10 0 14 0;
#X connect 11 0 14 0;
#X connect 12 0 14 0;
#X connect 13 0 0 0;
#X restore 491 167 pd Ab;
#N canvas 0 50 450 300 A 0;
#X obj 9 31 sel 0 1 2 3 4 5 6 7 8 9 10 11, f 64;
#X msg 9 64 I;
#X msg 40 64 bII;
#X msg 72 64 II;
#X msg 100 64 bIII;
#X msg 136 64 III;
#X msg 167 64 IV;
#X msg 231 64 V;
#X msg 263 64 bVI;
#X msg 294 64 VI;
#X msg 326 64 bVII;
#X msg 199 64 #IV;
#X msg 368 64 VII;
#X obj 9 8 inlet;
#X obj 9 148 outlet;
#X connect 0 0 1 0;
#X connect 0 1 2 0;
#X connect 0 2 3 0;
#X connect 0 3 4 0;
#X connect 0 4 5 0;
#X connect 0 5 6 0;
#X connect 0 6 11 0;
#X connect 0 7 7 0;
#X connect 0 8 8 0;
#X connect 0 9 9 0;
#X connect 0 10 10 0;
#X connect 0 11 12 0;
#X connect 1 0 14 0;
#X connect 2 0 14 0;
#X connect 3 0 14 0;
#X connect 4 0 14 0;
#X connect 5 0 14 0;
#X connect 6 0 14 0;
#X connect 7 0 14 0;
#X connect 8 0 14 0;
#X connect 9 0 14 0;
#X connect 10 0 14 0;
#X connect 11 0 14 0;
#X connect 12 0 14 0;
#X connect 13 0 0 0;
#X restore 531 167 pd A;
#N canvas 0 50 450 300 Bb 0;
#X obj 9 31 sel 0 1 2 3 4 5 6 7 8 9 10 11, f 64;
#X msg 9 64 I;
#X msg 40 64 bII;
#X msg 72 64 II;
#X msg 100 64 bIII;
#X msg 136 64 III;
#X msg 167 64 IV;
#X msg 231 64 V;
#X msg 263 64 bVI;
#X msg 294 64 VI;
#X msg 326 64 bVII;
#X msg 199 64 #IV;
#X msg 368 64 VII;
#X obj 9 8 inlet;
#X obj 9 148 outlet;
#X connect 0 0 1 0;
#X connect 0 1 2 0;
#X connect 0 2 3 0;
#X connect 0 3 4 0;
#X connect 0 4 5 0;
#X connect 0 5 6 0;
#X connect 0 6 11 0;
#X connect 0 7 7 0;
#X connect 0 8 8 0;
#X connect 0 9 9 0;
#X connect 0 10 10 0;
#X connect 0 11 12 0;
#X connect 1 0 14 0;
#X connect 2 0 14 0;
#X connect 3 0 14 0;
#X connect 4 0 14 0;
#X connect 5 0 14 0;
#X connect 6 0 14 0;
#X connect 7 0 14 0;
#X connect 8 0 14 0;
#X connect 9 0 14 0;
#X connect 10 0 14 0;
#X connect 11 0 14 0;
#X connect 12 0 14 0;
#X connect 13 0 0 0;
#X restore 571 167 pd Bb;
#N canvas 0 50 450 300 B 0;
#X obj 9 31 sel 0 1 2 3 4 5 6 7 8 9 10 11, f 64;
#X msg 9 64 I;
#X msg 40 64 bII;
#X msg 72 64 II;
#X msg 100 64 bIII;
#X msg 136 64 III;
#X msg 167 64 IV;
#X msg 231 64 V;
#X msg 263 64 bVI;
#X msg 294 64 VI;
#X msg 326 64 bVII;
#X msg 199 64 #IV;
#X msg 368 64 VII;
#X obj 9 8 inlet;
#X obj 9 148 outlet;
#X connect 0 0 1 0;
#X connect 0 1 2 0;
#X connect 0 2 3 0;
#X connect 0 3 4 0;
#X connect 0 4 5 0;
#X connect 0 5 6 0;
#X connect 0 6 11 0;
#X connect 0 7 7 0;
#X connect 0 8 8 0;
#X connect 0 9 9 0;
#X connect 0 10 10 0;
#X connect 0 11 12 0;
#X connect 1 0 14 0;
#X connect 2 0 14 0;
#X connect 3 0 14 0;
#X connect 4 0 14 0;
#X connect 5 0 14 0;
#X connect 6 0 14 0;
#X connect 7 0 14 0;
#X connect 8 0 14 0;
#X connect 9 0 14 0;
#X connect 10 0 14 0;
#X connect 11 0 14 0;
#X connect 12 0 14 0;
#X connect 13 0 0 0;
#X restore 611 167 pd B;
#X obj 202 471 outlet;
#X connect 0 0 16 0;
#X connect 0 0 1 0;
#X connect 1 0 2 0;
#X connect 1 1 3 0;
#X connect 1 2 4 0;
#X connect 1 3 5 0;
#X connect 1 4 6 0;
#X connect 1 5 7 0;
#X connect 1 6 12 0;
#X connect 1 7 8 0;
#X connect 1 8 9 0;
#X connect 1 9 10 0;
#X connect 1 10 11 0;
#X connect 1 11 14 0;
#X connect 2 0 13 0;
#X connect 3 0 13 0;
#X connect 4 0 13 0;
#X connect 5 0 13 0;
#X connect 6 0 13 0;
#X connect 7 0 13 0;
#X connect 8 0 13 0;
#X connect 9 0 13 0;
#X connect 10 0 13 0;
#X connect 11 0 13 0;
#X connect 12 0 13 0;
#X connect 13 0 31 0;
#X connect 14 0 13 0;
#X connect 15 0 16 1;
#X connect 16 0 18 0;
#X connect 17 0 19 0;
#X connect 17 1 20 0;
#X connect 17 2 21 0;
#X connect 17 3 22 0;
#X connect 17 4 23 0;
#X connect 17 5 24 0;
#X connect 17 6 25 0;
#X connect 17 7 26 0;
#X connect 17 8 27 0;
#X connect 17 9 28 0;
#X connect 17 10 29 0;
#X connect 17 11 30 0;
#X connect 18 0 17 0;
#X restore 130 228 pd pc2names;
#X obj 152 153 t f f, f 10;
#X obj 340 230 mod 2;
#X obj 318 210 t f f;
#X obj 318 250 - 1, f 5;
#X obj 152 132 vabs/oncev;
#X obj 137 250 r \$0-init;
#X obj 11 383 pdmus/chord-transpose, f 35;
#X obj 11 571 pdmus/chord-transpose;
#X obj 417 258 r \$0-raw_pc;
#X obj 430 460 vabs/list-rotate;
#X obj 362 339 zexy/listfind;
#X obj 362 320 f;
#X obj 362 299 del 10;
#X obj 11 405 t l l, f 21;
#X obj 362 379 + 1;
#X obj 363 417 until;
#X obj 430 480 list-abs/list-math -, f 35;
#X obj 430 500 list-abs/list-apply mod 12, f 35;
#X obj 413 531 list;
#X obj 417 277 t b l b;
#X obj 413 550 s \$0-pcset;
#X obj 383 481 + 1;
#X obj 363 439 t b b;
#X obj 402 508 sel;
#X obj 362 359 t f b;
#X obj 363 397 t f f;
#X obj 353 480 f 0;
#X msg 434 426 1;
#X connect 0 0 6 0;
#X connect 1 0 2 0;
#X connect 1 2 3 0;
#X connect 2 0 4 0;
#X connect 3 0 5 1;
#X connect 4 0 5 0;
#X connect 5 0 34 0;
#X connect 6 0 10 0;
#X connect 6 1 1 0;
#X connect 7 0 32 0;
#X connect 10 0 17 0;
#X connect 11 1 12 0;
#X connect 11 3 14 0;
#X connect 12 0 13 0;
#X connect 13 0 35 0;
#X connect 14 0 15 0;
#X connect 14 1 44 0;
#X connect 15 0 16 0;
#X connect 16 0 39 0;
#X connect 17 0 46 0;
#X connect 17 1 11 0;
#X connect 18 0 46 1;
#X connect 20 0 13 1;
#X connect 21 0 47 1;
#X connect 22 0 11 0;
#X connect 23 0 38 0;
#X connect 23 1 24 0;
#X connect 24 0 25 1;
#X connect 25 0 26 0;
#X connect 26 0 27 0;
#X connect 27 0 21 0;
#X connect 28 0 2 1;
#X connect 29 0 31 0;
#X connect 32 0 42 0;
#X connect 33 0 44 1;
#X connect 34 0 7 0;
#X connect 35 0 29 0;
#X connect 37 0 23 0;
#X connect 38 0 25 0;
#X connect 39 0 12 1;
#X connect 40 0 15 1;
#X connect 40 1 18 0;
#X connect 40 1 51 1;
#X connect 40 1 56 1;
#X connect 41 0 43 1;
#X connect 42 0 43 0;
#X connect 42 1 41 0;
#X connect 43 0 29 1;
#X connect 43 0 9 0;
#X connect 44 0 40 0;
#X connect 45 0 20 0;
#X connect 46 0 53 0;
#X connect 47 0 8 0;
#X connect 48 0 59 0;
#X connect 49 0 56 0;
#X connect 50 0 64 0;
#X connect 51 0 50 0;
#X connect 52 0 51 0;
#X connect 53 0 47 0;
#X connect 53 1 37 0;
#X connect 54 0 65 0;
#X connect 55 0 62 0;
#X connect 56 0 57 0;
#X connect 57 0 58 1;
#X connect 58 0 60 0;
#X connect 59 0 52 0;
#X connect 59 1 50 1;
#X connect 59 1 49 1;
#X connect 61 0 66 1;
#X connect 62 0 66 0;
#X connect 62 1 49 0;
#X connect 63 0 58 0;
#X connect 64 0 54 0;
#X connect 64 1 67 0;
#X connect 65 0 55 0;
#X connect 65 1 63 1;
#X connect 66 0 61 0;
#X connect 66 0 63 0;
#X connect 67 0 66 1;
#X restore 202 366 pd get-chord-progression;
#X obj 3 133 r \$0-save-state;
#N canvas 3 50 432 347 harmonic-rhythm 0;
#X obj 94 126 zexy/repack 2;
#X obj 138 184 f 0;
#X obj 168 184 + 1;
#X obj 138 260 makefilename \$0-master-chord-fill-%d;
#X obj 116 279 s, f 5;
#X obj 116 163 t a b;
#X obj 6 105 s \$0-load-rhythm;
#X msg 94 298 \$2 \$1;
#X obj 273 105 \$0;
#X obj 94 145 t l l;
#X obj 94 318 tabwrite \$0-master-pattern;
#X obj 6 85 t b f b, f 54;
#X obj 138 222 t f f;
#X obj 160 241 s \$0-master-chord-show;
#X msg 273 124 0 \; \$1-master-pattern const 0 \; \$1-master-chord-show
64;
#X obj 138 203 mod 64;
#X obj 6 46 int;
#X obj 6 8 r \$0-chord-pattern;
#X obj 6 27 vabs/delgate 500;
#X obj 94 105 cyclone/coll ./pd-user/rhythm.txt;
#C restore;
#X obj 6 65 play-update 64 \$0;
#X connect 0 0 9 0;
#X connect 1 0 2 0;
#X connect 1 0 15 0;
#X connect 2 0 1 1;
#X connect 3 0 4 1;
#X connect 5 0 4 0;
#X connect 5 1 1 0;
#X connect 7 0 10 0;
#X connect 8 0 14 0;
#X connect 9 0 7 0;
#X connect 9 1 5 0;
#X connect 11 0 6 0;
#X connect 11 1 19 0;
#X connect 11 2 8 0;
#X connect 12 0 3 0;
#X connect 12 1 13 0;
#X connect 14 0 1 1;
#X connect 15 0 12 0;
#X connect 16 0 20 0;
#X connect 17 0 18 0;
#X connect 18 0 16 0;
#X connect 19 0 0 0;
#X connect 20 0 11 0;
#X restore 232 188 pd harmonic-rhythm;
#N canvas 350 83 1067 468 scattered-plot 0;
#N canvas 531 148 461 310 area 0;
#X obj 14 15 struct \$0-area float x float y float size;
#X obj 14 41 drawpolygon -x 1 2 0 0 size 0 size size 0 size 0 0;
#X restore 8 10 pd area;
#N canvas 525 174 461 310 xsis 0;
#X obj 16 41 drawpolygon -x 1 1 0 0 length 0;
#X obj 14 15 struct \$0-xsis float x float y float length;
#X restore 8 30 pd xsis;
#N canvas 531 148 461 310 ysis 0;
#X obj 16 41 drawpolygon -x 1 1 0 0 0 heigth;
#X obj 14 15 struct \$0-ysis float x float y float heigth float vis
;
#X restore 8 50 pd ysis;
#N canvas 499 50 461 310 point 0;
#X obj 14 40 outlet;
#X obj 14 15 struct \$0-point float x float y float c float t;
#X obj 57 40 filledcurve c c 1 0 0 t 0 t t 0 t 0 0;
#X connect 1 0 0 0;
#X restore 487 10 pd point;
#X obj 304 330 r \$0-load;
#X obj 487 31 route click;
#X obj 87 197 + 10;
#X obj 201 226 + 10;
#X obj 8 71 bng 15 250 50 0 empty empty empty 17 7 0 10 -262144 -1
-1;
#X obj 448 321 pointer;
#X obj 487 256 t p b p, f 18;
#X obj 421 300 t b b;
#X msg 539 282 900;
#X obj 157 363 append \$0-point x y t c, f 30;
#X obj 539 324 set \$0-point c;
#X obj 421 370 set \$0-point c;
#X msg 421 345 222;
#X msg 267 338 222, f 4;
#X msg 117 56 dump;
#X obj 316 106 v \$0-gridsize;
#X obj 117 74 t a b, f 22;
#X obj 87 128 unpack, f 8;
#X obj 87 176 *;
#X obj 201 205 *;
#X obj 13 237 int;
#X obj 46 237 int;
#X obj 13 257 pack, f 6;
#X obj 13 341 tabwrite \$0-lookup;
#X obj 13 320 swap, f 18;
#X obj 14 363 table \$0-lookup 210210;
#X obj 167 167 - 12;
#X obj 167 186 abs;
#X obj 213 166 / 13;
#X obj 102 155 / 19;
#X msg 230 339 5;
#X obj 546 115 pack f f, f 16;
#X obj 639 93 int;
#X obj 546 93 int;
#X obj 487 52 t p p, f 10;
#X text 26 71 << reset;
#X obj 573 182 tabread \$0-lookup;
#X floatatom 581 202 5 0 0 0 - - -, f 5;
#X obj 487 234 spigot 0;
#X obj 534 182 t f f;
#X obj 546 157 t f f;
#X obj 532 212 !=;
#X msg 789 254 next;
#X obj 789 321 t b p;
#X obj 789 235 until;
#X obj 789 214 t b f, f 7;
#X obj 735 342 set \$0-point c;
#X obj 789 193 \$0;
#X obj 789 282 pointer \$0-point;
#X msg 828 254 traverse pd-\$1-plot;
#X msg 739 321 900;
#X msg 690 340 0;
#X obj 690 126 r \$0-init-plot;
#X obj 690 149 delay 500;
#X obj 690 171 t b b b, f 17;
#X msg 637 304 222;
#X floatatom 596 162 6 0 0 0 - - -, f 6;
#N canvas 0 50 373 458 make-grid 0;
#X obj 37 191 pointer;
#X obj 37 212 s \$0-load;
#X obj 285 280 r \$0-load;
#X msg 135 279 10 10 \$1;
#X obj 18 315 * 0.5;
#X obj 18 335 + 10;
#X msg 18 355 10 \$1;
#X obj 18 53 t b b;
#X obj 18 376 t l l;
#X obj 18 258 t f f f, f 20;
#X obj 25 33 inlet;
#X msg 45 74 200;
#X obj 45 94 value \$0-gridsize;
#X obj 18 74 \$0;
#X obj 18 235 v \$0-gridsize;
#X obj 18 113 t b f f;
#X obj 135 302 append \$0-area x y size;
#X obj 45 400 append \$0-xsis x y length, f 37;
#X obj 18 423 append \$0-ysis y x heigth, f 45;
#X msg 37 135 traverse pd-\$1-plot \, bang;
#X msg 57 157 \; pd-\$1-plot clear;
#X obj 18 13 r \$0-create-visuals;
#X connect 0 0 1 0;
#X connect 2 0 16 3;
#X connect 2 0 17 3;
#X connect 2 0 18 3;
#X connect 3 0 16 0;
#X connect 4 0 5 0;
#X connect 5 0 6 0;
#X connect 6 0 8 0;
#X connect 7 0 13 0;
#X connect 7 1 11 0;
#X connect 8 0 18 0;
#X connect 8 1 17 0;
#X connect 9 0 4 0;
#X connect 9 1 17 2;
#X connect 9 1 18 2;
#X connect 9 2 3 0;
#X connect 10 0 7 0;
#X connect 11 0 12 0;
#X connect 13 0 15 0;
#X connect 14 0 9 0;
#X connect 15 0 14 0;
#X connect 15 1 19 0;
#X connect 15 2 20 0;
#X connect 19 0 0 0;
#X connect 20 0 0 0;
#X connect 21 0 7 0;
#X restore 8 90 pd make-grid;
#X obj 690 363 s \$0-file-index;
#X obj 573 219 s \$0-file-index;
#X obj 117 20 r \$0-create-visuals;
#X obj 117 38 delay 500;
#N canvas 0 102 412 643 manipoint 0;
#X obj 84 58 until, f 21;
#X obj 84 203 sel 0;
#X obj 154 108 + 1;
#X obj 84 80 f 0;
#X obj 84 129 int;
#X obj 84 107 mod 210210;
#X obj 84 150 tabread \$0-lookup;
#X msg 186 472 next;
#X obj 210 449 until;
#X obj 210 391 t b f, f 7;
#X obj 156 576 set \$0-point c;
#X obj 210 370 \$0;
#X obj 210 496 pointer \$0-point;
#X msg 249 468 traverse pd-\$1-plot;
#X msg 105 438 900;
#X obj 210 520 t b b p;
#X floatatom 196 218 5 0 0 0 - - -, f 5;
#X obj 127 20 bng 15 250 50 0 empty empty empty 17 7 0 10 -262144 -1
-1;
#X floatatom 12 115 5 0 0 0 - - -, f 5;
#X obj 196 243 s \$0-file-index;
#X floatatom 103 172 5 0 0 0 - - -, f 5;
#X obj 111 272 t f b;
#X obj 143 299 t b b, f 17;
#X obj 113 350 sel;
#X obj 125 327 - 1;
#X obj 212 25 t b b;
#X floatatom 66 373 5 0 0 0 - - -, f 5;
#X floatatom 144 359 5 0 0 0 - - -, f 5;
#X obj 111 224 t f b f;
#X msg 209 552 222;
#X obj 77 550 set \$0-point c;
#X floatatom 218 110 5 0 0 0 - - -, f 5;
#X obj 111 250 vabs/forloop;
#X obj 210 344 vabs/oncev;
#X connect 0 0 3 0;
#X connect 1 1 28 0;
#X connect 2 0 3 1;
#X connect 3 0 5 0;
#X connect 4 0 6 0;
#X connect 5 0 2 0;
#X connect 5 0 4 0;
#X connect 5 0 18 0;
#X connect 5 0 31 0;
#X connect 6 0 1 0;
#X connect 6 0 20 0;
#X connect 7 0 12 0;
#X connect 8 0 7 0;
#X connect 9 0 8 0;
#X connect 9 1 13 0;
#X connect 11 0 9 0;
#X connect 12 0 15 0;
#X connect 13 0 12 0;
#X connect 14 0 30 0;
#X connect 15 0 29 0;
#X connect 15 1 8 1;
#X connect 15 2 10 1;
#X connect 15 2 30 1;
#X connect 16 0 19 0;
#X connect 17 0 25 0;
#X connect 21 0 23 0;
#X connect 21 0 26 0;
#X connect 21 1 22 0;
#X connect 22 0 7 0;
#X connect 22 1 33 0;
#X connect 23 0 14 0;
#X connect 24 0 23 1;
#X connect 24 0 27 0;
#X connect 25 0 0 0;
#X connect 25 1 33 1;
#X connect 28 0 32 0;
#X connect 28 1 0 1;
#X connect 28 2 24 0;
#X connect 29 0 10 0;
#X connect 32 0 21 0;
#X connect 33 0 11 0;
#X restore 692 39 pd manipoint;
#X obj 546 73 get \$0-point y x;
#X msg 13 277 \$2 \$1;
#X obj 637 283 vabs/oncev;
#X obj 13 299 pdmus/list2int;
#X obj 546 136 pdmus/list2int;
#X obj 117 105 cyclone/coll ./pd-user/harmony.txt;
#C restore;
#X floatatom 270 47 5 0 0 0 - - -, f 5;
#X msg 334 44 symbol Im-VIIm7-VIm7-Vmaj7;
#X text 231 412 probar con la distancia euclidea de todos ellos;
#X obj 302 217 fpd/distance-euclidean;
#X floatatom 312 245 5 0 0 0 - - -, f 5;
#X connect 3 0 5 0;
#X connect 4 0 13 4;
#X connect 5 0 38 0;
#X connect 6 0 13 0;
#X connect 6 0 24 0;
#X connect 7 0 13 1;
#X connect 7 0 25 0;
#X connect 8 0 61 0;
#X connect 9 0 15 1;
#X connect 10 0 9 1;
#X connect 10 1 12 0;
#X connect 10 1 11 0;
#X connect 10 1 69 0;
#X connect 10 2 14 1;
#X connect 11 0 16 0;
#X connect 11 1 9 0;
#X connect 12 0 14 0;
#X connect 16 0 15 0;
#X connect 17 0 13 3;
#X connect 18 0 20 0;
#X connect 19 0 32 0;
#X connect 19 0 33 0;
#X connect 20 0 72 0;
#X connect 20 1 19 0;
#X connect 20 1 17 0;
#X connect 20 1 34 0;
#X connect 21 0 22 0;
#X connect 21 1 30 0;
#X connect 22 0 6 0;
#X connect 23 0 7 0;
#X connect 24 0 26 0;
#X connect 25 0 26 1;
#X connect 26 0 68 0;
#X connect 28 0 27 0;
#X connect 28 1 27 1;
#X connect 30 0 31 0;
#X connect 31 0 23 0;
#X connect 32 0 23 1;
#X connect 33 0 22 1;
#X connect 34 0 13 2;
#X connect 35 0 71 0;
#X connect 36 0 35 1;
#X connect 37 0 35 0;
#X connect 38 0 42 0;
#X connect 38 1 67 0;
#X connect 40 0 41 0;
#X connect 40 0 63 0;
#X connect 42 0 10 0;
#X connect 43 0 45 1;
#X connect 43 1 45 0;
#X connect 44 0 43 0;
#X connect 44 1 40 0;
#X connect 44 1 60 0;
#X connect 45 0 42 1;
#X connect 46 0 52 0;
#X connect 47 0 48 1;
#X connect 47 1 50 1;
#X connect 48 0 46 0;
#X connect 49 0 48 0;
#X connect 49 1 53 0;
#X connect 51 0 49 0;
#X connect 52 0 47 0;
#X connect 53 0 52 0;
#X connect 54 0 50 0;
#X connect 55 0 62 0;
#X connect 56 0 57 0;
#X connect 57 0 58 0;
#X connect 58 0 55 0;
#X connect 58 1 54 0;
#X connect 58 2 51 0;
#X connect 59 0 50 0;
#X connect 64 0 65 0;
#X connect 65 0 18 0;
#X connect 67 0 37 0;
#X connect 67 1 36 0;
#X connect 68 0 70 0;
#X connect 69 0 59 0;
#X connect 70 0 28 0;
#X connect 71 0 44 0;
#X connect 72 0 21 0;
#X connect 72 1 28 1;
#X connect 73 0 72 0;
#X connect 74 0 72 0;
#X connect 76 0 77 0;
#X restore 238 244 pd scattered-plot;
#N canvas 6 23 964 679 struct-definitions 0;
#N canvas 42 50 277 84 \$0-line 0;
#X obj 12 11 struct \$0-line float pos float color;
#X obj 12 34 drawpolygon color 1 pos 20 pos 100;
#X restore 412 454 pd \$0-line;
#N canvas 831 269 334 157 \$0-beat 0;
#X obj 7 35 drawpolygon 222 2 0 20 100 20;
#X obj 7 55 drawpolygon 222 2 0 100 100 100;
#X obj 6 11 struct \$0-beat float x;
#X restore 412 474 pd \$0-beat;
#X obj 582 15 slave-chord-structure 0 \$0;
#X obj 15 455 master-chord-structure 60 \$0;
#X obj 582 525 slave-chord-structure 25 \$0;
#X obj 582 215 slave-chord-structure 10 \$0;
#X obj 582 345 slave-chord-structure 16 \$0;
#X obj 582 55 slave-chord-structure 2 \$0;
#X obj 582 485 slave-chord-structure 23 \$0;
#X obj 582 645 slave-chord-structure 31 \$0;
#X obj 772 625 slave-chord-structure 62 \$0;
#X obj 582 585 slave-chord-structure 28 \$0;
#X obj 582 605 slave-chord-structure 29 \$0;
#X obj 582 175 slave-chord-structure 8 \$0;
#X obj 772 175 slave-chord-structure 40 \$0;
#X obj 772 15 slave-chord-structure 32 \$0;
#X obj 582 155 slave-chord-structure 7 \$0;
#X obj 582 35 slave-chord-structure 1 \$0;
#X obj 582 75 slave-chord-structure 3 \$0;
#X obj 582 95 slave-chord-structure 4 \$0;
#X obj 582 115 slave-chord-structure 5 \$0;
#X obj 582 135 slave-chord-structure 6 \$0;
#X obj 582 195 slave-chord-structure 9 \$0;
#X obj 582 255 slave-chord-structure 12 \$0;
#X obj 582 235 slave-chord-structure 11 \$0;
#X obj 582 275 slave-chord-structure 13 \$0;
#X obj 582 295 slave-chord-structure 14 \$0;
#X obj 582 315 slave-chord-structure 15 \$0;
#X obj 582 365 slave-chord-structure 17 \$0;
#X obj 582 385 slave-chord-structure 18 \$0;
#X obj 582 405 slave-chord-structure 19 \$0;
#X obj 582 425 slave-chord-structure 20 \$0;
#X obj 582 445 slave-chord-structure 21 \$0;
#X obj 582 465 slave-chord-structure 22 \$0;
#X obj 582 505 slave-chord-structure 24 \$0;
#X obj 582 545 slave-chord-structure 26 \$0;
#X obj 582 565 slave-chord-structure 27 \$0;
#X obj 582 625 slave-chord-structure 30 \$0;
#X obj 772 35 slave-chord-structure 33 \$0;
#X obj 772 55 slave-chord-structure 34 \$0;
#X obj 772 75 slave-chord-structure 35 \$0;
#X obj 772 95 slave-chord-structure 36 \$0;
#X obj 772 115 slave-chord-structure 37 \$0;
#X obj 772 135 slave-chord-structure 38 \$0;
#X obj 772 155 slave-chord-structure 39 \$0;
#X obj 772 195 slave-chord-structure 41 \$0;
#X obj 772 215 slave-chord-structure 42 \$0;
#X obj 772 235 slave-chord-structure 43 \$0;
#X obj 772 255 slave-chord-structure 44 \$0;
#X obj 772 275 slave-chord-structure 45 \$0;
#X obj 772 295 slave-chord-structure 46 \$0;
#X obj 772 315 slave-chord-structure 47 \$0;
#X obj 772 345 slave-chord-structure 48 \$0;
#X obj 772 365 slave-chord-structure 49 \$0;
#X obj 772 385 slave-chord-structure 50 \$0;
#X obj 772 405 slave-chord-structure 51 \$0;
#X obj 772 425 slave-chord-structure 52 \$0;
#X obj 772 445 slave-chord-structure 53 \$0;
#X obj 772 465 slave-chord-structure 54 \$0;
#X obj 772 485 slave-chord-structure 55 \$0;
#X obj 772 505 slave-chord-structure 56 \$0;
#X obj 772 525 slave-chord-structure 57 \$0;
#X obj 772 545 slave-chord-structure 58 \$0;
#X obj 772 565 slave-chord-structure 59 \$0;
#X obj 772 585 slave-chord-structure 60 \$0;
#X obj 772 605 slave-chord-structure 61 \$0;
#X obj 772 645 slave-chord-structure 63 \$0;
#X obj 198 15 master-chord-structure 10 \$0;
#X obj 198 415 master-chord-structure 49 \$0;
#X obj 385 195 master-chord-structure 29 \$0;
#X obj 385 415 master-chord-structure 59 \$0;
#X obj 385 235 master-chord-structure 50 \$0;
#X obj 15 15 master-chord-structure 0 \$0;
#X obj 15 155 master-chord-structure 7 \$0;
#X obj 385 15 master-chord-structure 20 \$0;
#X obj 198 75 master-chord-structure 13 \$0;
#X obj 198 355 master-chord-structure 46 \$0;
#X obj 15 35 master-chord-structure 1 \$0;
#X obj 15 235 master-chord-structure 30 \$0;
#X obj 15 195 master-chord-structure 9 \$0;
#X obj 15 515 master-chord-structure 63 \$0;
#X obj 15 55 master-chord-structure 2 \$0;
#X obj 15 75 master-chord-structure 3 \$0;
#X obj 15 115 master-chord-structure 5 \$0;
#X obj 15 95 master-chord-structure 4 \$0;
#X obj 15 135 master-chord-structure 6 \$0;
#X obj 15 175 master-chord-structure 8 \$0;
#X obj 15 255 master-chord-structure 31 \$0;
#X obj 15 275 master-chord-structure 32 \$0;
#X obj 15 295 master-chord-structure 33 \$0;
#X obj 15 315 master-chord-structure 34 \$0;
#X obj 15 335 master-chord-structure 35 \$0;
#X obj 15 355 master-chord-structure 36 \$0;
#X obj 15 375 master-chord-structure 37 \$0;
#X obj 15 395 master-chord-structure 38 \$0;
#X obj 15 415 master-chord-structure 39 \$0;
#X obj 15 475 master-chord-structure 61 \$0;
#X obj 15 495 master-chord-structure 62 \$0;
#X obj 198 395 master-chord-structure 48 \$0;
#X obj 198 375 master-chord-structure 47 \$0;
#X obj 198 315 master-chord-structure 44 \$0;
#X obj 198 295 master-chord-structure 43 \$0;
#X obj 198 275 master-chord-structure 42 \$0;
#X obj 198 235 master-chord-structure 40 \$0;
#X obj 198 195 master-chord-structure 19 \$0;
#X obj 198 175 master-chord-structure 18 \$0;
#X obj 198 35 master-chord-structure 11 \$0;
#X obj 198 55 master-chord-structure 12 \$0;
#X obj 198 95 master-chord-structure 14 \$0;
#X obj 198 115 master-chord-structure 15 \$0;
#X obj 198 135 master-chord-structure 16 \$0;
#X obj 198 155 master-chord-structure 17 \$0;
#X obj 198 255 master-chord-structure 41 \$0;
#X obj 198 335 master-chord-structure 45 \$0;
#X obj 385 55 master-chord-structure 22 \$0;
#X obj 385 35 master-chord-structure 21 \$0;
#X obj 385 75 master-chord-structure 23 \$0;
#X obj 385 115 master-chord-structure 25 \$0;
#X obj 385 95 master-chord-structure 24 \$0;
#X obj 385 155 master-chord-structure 27 \$0;
#X obj 385 135 master-chord-structure 26 \$0;
#X obj 385 175 master-chord-structure 28 \$0;
#X obj 385 255 master-chord-structure 51 \$0;
#X obj 385 275 master-chord-structure 52 \$0;
#X obj 385 295 master-chord-structure 53 \$0;
#X obj 385 315 master-chord-structure 54 \$0;
#X obj 385 335 master-chord-structure 55 \$0;
#X obj 385 375 master-chord-structure 57 \$0;
#X obj 385 395 master-chord-structure 58 \$0;
#X obj 385 355 master-chord-structure 56 \$0;
#X obj 312 454 chord-name 4 \$0;
#X obj 212 454 chord-name 0 \$0;
#X obj 212 514 chord-name 3 \$0;
#X obj 212 474 chord-name 1 \$0;
#X obj 212 494 chord-name 2 \$0;
#X obj 312 474 chord-name 5 \$0;
#X obj 312 494 chord-name 6 \$0;
#X obj 312 514 chord-name 7 \$0;
#X restore 219 264 pd struct-definitions;
#N canvas 0 50 450 278 (subpatch) 0;
#X array \$0-master-pattern 64 float 1;
#A 0 16 0 0 0 0 0 0 0 0 0 0 0 0 0 0 0 16 0 0 0 0 0 0 0 0 0 0 0 0 0
0 0 16 0 0 0 0 0 0 0 0 0 0 0 0 0 0 0 16 0 0 0 0 0 0 0 0 0 0 0 0 0 0
0;
#X coords 0 64 63 0 100 100 1 0 0;
#X restore 4 21 graph;
#N canvas 11 23 711 699 make-gui-sequence 0;
#X obj 10 33 div 4;
#X obj 10 52 change;
#X obj 52 114 until;
#X msg 52 137 next;
#X obj 52 190 t b p, f 6;
#X obj 263 131 pointer;
#X obj 228 173 t b b, f 6;
#X obj 10 211 set \$0-beat x;
#X obj 52 169 pointer \$0-beat;
#X obj 193 33 \$0;
#X obj 263 152 s \$0-loadpointer;
#X obj 527 176 r \$0-loadpointer;
#X obj 315 377 append \$0-mchord0 x, f 31;
#X obj 315 275 pack 0 \$0;
#X obj 52 93 t b f, f 7;
#X obj 261 213 append \$0-beat x, f 30;
#X obj 10 14 r \$0-current-step;
#X msg 263 75 traverse pd-\$1-data \, bang;
#X msg 299 97 \; pd-\$1-data clear;
#X msg 91 139 traverse pd-\$1-data;
#X obj 280 421 pack 0 \$0;
#X obj 280 461 append \$0-chord0 x, f 38;
#X msg 261 193 26;
#X obj 10 71 * 104;
#X obj 10 92 + 28;
#X obj 315 294 t l l;
#X obj 342 334 append \$0-schord\$1 x, f 24;
#X obj 193 13 r \$0-create-visuals;
#X msg 228 213 65;
#X obj 228 256 sel 64, f 15;
#X obj 172 14 bng 15 250 50 0 empty empty empty 17 7 0 10 -262144 -1
-1;
#X msg 342 313 set \$2-schord\$1 x \, 100;
#X msg 315 356 set \$2-mchord\$1 x \, -100;
#X obj 228 360 vabs/forloop;
#X obj 228 236 vabs/forloop;
#X obj 321 529 mod 4;
#X obj 321 550 sel 0, f 6;
#X obj 354 570 t b;
#X obj 286 617 append \$0-line pos color;
#X obj 274 548 + 26;
#X msg 228 466 17;
#X obj 274 529 * 104;
#X msg 321 570 900;
#X obj 228 508 t f f f, f 16;
#X obj 228 487 vabs/forloop 0;
#X obj 193 53 t f b f f, f 18;
#X msg 228 336 9;
#X obj 228 381 sel 8, f 8;
#X msg 355 589 666;
#X msg 280 441 set \$2-chord\$1 x \, 3;
#X connect 0 0 1 0;
#X connect 1 0 23 0;
#X connect 2 0 3 0;
#X connect 3 0 8 0;
#X connect 4 0 2 1;
#X connect 4 1 7 1;
#X connect 5 0 10 0;
#X connect 6 0 28 0;
#X connect 6 1 22 0;
#X connect 8 0 4 0;
#X connect 9 0 45 0;
#X connect 11 0 12 1;
#X connect 11 0 15 1;
#X connect 11 0 21 1;
#X connect 11 0 26 1;
#X connect 11 0 38 2;
#X connect 13 0 25 0;
#X connect 14 0 2 0;
#X connect 14 1 19 0;
#X connect 16 0 0 0;
#X connect 17 0 5 0;
#X connect 18 0 5 0;
#X connect 19 0 8 0;
#X connect 20 0 49 0;
#X connect 22 0 15 0;
#X connect 23 0 24 0;
#X connect 24 0 7 0;
#X connect 25 0 32 0;
#X connect 25 1 31 0;
#X connect 27 0 9 0;
#X connect 28 0 34 0;
#X connect 29 0 46 0;
#X connect 29 1 13 0;
#X connect 30 0 9 0;
#X connect 31 0 26 0;
#X connect 32 0 12 0;
#X connect 33 0 47 0;
#X connect 34 0 29 0;
#X connect 35 0 36 0;
#X connect 36 0 42 0;
#X connect 36 1 37 0;
#X connect 37 0 48 0;
#X connect 39 0 38 0;
#X connect 40 0 44 0;
#X connect 41 0 39 0;
#X connect 42 0 38 1;
#X connect 43 1 41 0;
#X connect 43 2 35 0;
#X connect 44 0 43 0;
#X connect 45 0 14 0;
#X connect 45 1 6 0;
#X connect 45 2 17 0;
#X connect 45 3 18 0;
#X connect 46 0 33 0;
#X connect 47 0 40 0;
#X connect 47 1 20 0;
#X connect 48 0 38 1;
#X connect 49 0 21 0;
#X restore 224 284 pd make-gui-sequence;
#X msg 3 152 menusave;
#N canvas 363 50 222 184 clock 0;
#X obj 81 80 + 1;
#X obj 47 80 f 0;
#X msg 11 53 0;
#X obj 11 33 sel 0;
#X obj 47 117 sel 63;
#X obj 55 99 s \$0-current-step;
#X obj 83 52 s \$0-tempo;
#X obj 83 33 change;
#X obj 11 12 pdmus/midi-sync;
#X connect 0 0 1 1;
#X connect 1 0 0 0;
#X connect 1 0 4 0;
#X connect 1 0 5 0;
#X connect 2 0 1 1;
#X connect 3 0 2 0;
#X connect 4 0 2 0;
#X connect 7 0 6 0;
#X connect 8 0 3 0;
#X connect 8 1 1 0;
#X connect 8 2 7 0;
#X restore 281 169 pd clock;
#N canvas 203 23 573 706 make-chord-variations 0;
#X msg 280 177 clear;
#X obj 269 116 inlet;
#X obj 326 116 inlet;
#X obj 269 136 list prepend;
#X obj 25 412 list, f 53;
#X text 345 135 listas con onset-step y notas del acorde;
#X obj 408 314 * 12;
#X obj 444 316 t b f, f 10;
#X obj 408 340 +, f 16;
#X text 266 95 chord;
#X text 325 97 onset position.;
#X obj 269 321 pdmus/chord-foldover;
#X obj 3 102 t f f f, f 46;
#X obj 269 282 f;
#X obj 269 243 t b l, f 20;
#X obj 173 365 list prepend;
#X obj 269 341 t l l;
#X obj 3 7 r \$0-current-step;
#X obj 285 199 r \$0-chord-variations;
#X obj 284 262 r \$0-register;
#X obj 408 231 r \$0-chords-octave;
#X obj 173 387 s \$0-chord-variations;
#X obj 444 252 r \$0-key;
#X obj 280 157 r \$0-reset-chords;
#X obj 25 432 vabs/list-dripv;
#X obj 269 301 clip -2 2;
#X obj 59 206 r \$0-tempo;
#X obj 59 244 /;
#X obj 47 301 delay;
#X obj 3 139 sel 0;
#X msg 59 225 15000 \$1;
#X obj 47 263 *;
#X msg 47 320 0, f 2;
#X obj 25 389 t b f;
#X obj 3 120 tabread \$0-new-pattern;
#X obj 408 253 + 1;
#X obj 48 27 r \$0-mute-chords;
#X obj 48 45 - 1;
#X obj 48 64 abs;
#X obj 3 83 spigot 1;
#X obj 57 347 r \$0-chords-volume;
#X obj 25 158 t b f;
#X obj 25 368 int 80, f 7;
#X obj 196 571 del 20;
#X obj 47 282 - 20;
#X obj 72 491 t f f, f 8;
#X obj 117 511 != 0;
#X obj 117 529 t f f;
#X obj 121 551 -;
#X obj 121 591 sel 0;
#X obj 121 570 vabs/oncev;
#X obj 25 649 noteout 1, f 10;
#X obj 269 223 cyclone/coll \$0-chords;
#C restore;
#X obj 121 652 f 1;
#X obj 133 612 r \$0-ch-chords;
#X obj 121 670 pdmus/midi-panic-ch 1;
#X obj 25 515 pipe 1 2 1, f 11;
#X obj 25 471 unpack f f;
#X obj 25 452 pack 0 0;
#X obj 444 273 vabs/delgate 300;
#X obj 291 360 pdmus/chord-transpose 60;
#X obj 444 294 play-update 64 \$0;
#X connect 0 0 52 0;
#X connect 1 0 3 0;
#X connect 2 0 3 1;
#X connect 3 0 52 0;
#X connect 4 0 24 0;
#X connect 6 0 8 0;
#X connect 7 0 8 0;
#X connect 7 1 8 1;
#X connect 8 0 60 1;
#X connect 11 0 16 0;
#X connect 12 0 34 0;
#X connect 12 1 52 0;
#X connect 12 2 15 1;
#X connect 13 0 25 0;
#X connect 14 0 13 0;
#X connect 14 1 11 1;
#X connect 15 0 21 0;
#X connect 16 0 15 0;
#X connect 16 1 60 0;
#X connect 17 0 39 0;
#X connect 18 0 52 0;
#X connect 19 0 13 1;
#X connect 20 0 35 0;
#X connect 22 0 59 0;
#X connect 23 0 0 0;
#X connect 24 0 58 0;
#X connect 25 0 11 0;
#X connect 26 0 30 0;
#X connect 27 0 31 1;
#X connect 28 0 32 0;
#X connect 29 1 41 0;
#X connect 30 0 27 0;
#X connect 31 0 44 0;
#X connect 32 0 33 0;
#X connect 33 0 4 0;
#X connect 33 1 58 1;
#X connect 34 0 29 0;
#X connect 35 0 6 0;
#X connect 36 0 37 0;
#X connect 37 0 38 0;
#X connect 38 0 39 1;
#X connect 39 0 12 0;
#X connect 40 0 42 1;
#X connect 41 0 42 0;
#X connect 41 1 31 0;
#X connect 42 0 33 0;
#X connect 43 0 50 1;
#X connect 44 0 28 0;
#X connect 45 0 56 1;
#X connect 45 1 46 0;
#X connect 46 0 47 0;
#X connect 47 0 48 1;
#X connect 47 1 48 0;
#X connect 48 0 50 0;
#X connect 49 0 53 0;
#X connect 50 0 43 0;
#X connect 50 0 49 0;
#X connect 52 0 14 0;
#X connect 53 0 55 0;
#X connect 54 0 53 1;
#X connect 54 0 51 2;
#X connect 56 0 51 0;
#X connect 56 1 51 1;
#X connect 57 0 56 0;
#X connect 57 1 45 0;
#X connect 58 0 57 0;
#X connect 59 0 61 0;
#X connect 60 0 4 1;
#X connect 61 0 7 0;
#X restore 202 385 pd make-chord-variations;
#N canvas 0 156 225 406 spread 0;
#X msg 56 160 dump;
#X obj 56 203 t b l;
#X obj 29 273 list prepend, f 13;
#X obj 31 96 -, f 7;
#X obj 19 63 t f f f;
#X obj 19 114 *;
#X obj 19 132 t b f;
#X obj 29 237 f;
#X text 19 323 sumar restar 12 a cada cambio;
#X text 19 343 en vez de calcular la distancia;
#X text 19 364 de octava;
#X obj 29 254 chord-range;
#X obj 29 292 s \$0-chord-variations;
#X obj 19 27 int;
#X obj 19 45 change -1;
#X obj 19 9 r \$0-spread;
#X obj 63 63 r \$0-set-spread;
#X obj 56 182 cyclone/coll \$0-chords;
#C restore;
#X connect 0 0 17 0;
#X connect 1 0 7 0;
#X connect 1 1 11 1;
#X connect 2 0 12 0;
#X connect 3 0 5 1;
#X connect 4 0 5 0;
#X connect 4 1 3 1;
#X connect 4 2 3 0;
#X connect 5 0 6 0;
#X connect 6 0 0 0;
#X connect 6 1 7 1;
#X connect 7 0 11 0;
#X connect 11 0 2 0;
#X connect 13 0 14 0;
#X connect 14 0 4 0;
#X connect 15 0 13 0;
#X connect 16 0 3 1;
#X connect 17 0 1 0;
#X connect 17 1 2 1;
#X restore 232 207 pd spread;
#N canvas 281 23 540 611 memories 0;
#X obj 163 10 r \$0-chord-pattern;
#X obj 176 28 r \$0-file-index;
#X obj 161 271 r \$0-recall;
#X obj 9 159 r \$0-store;
#X obj 151 378 textfile;
#X obj 161 340 t b a, f 6;
#X obj 161 359 until, f 6;
#X obj 151 397 list split 1;
#X obj 151 417 makefilename \$0%s;
#X obj 132 492 s, f 5;
#X obj 9 178 t f b, f 29;
#X obj 132 471 f, f 10;
#X obj 201 65 r \$0-density;
#X obj 214 84 r \$0-legato;
#X obj 239 122 r \$0-spread;
#X obj 252 141 r \$0-register;
#X obj 265 160 r \$0-mute-chords;
#X obj 278 178 r \$0-chords-volume;
#X obj 189 46 r \$0-key-fifths;
#X obj 151 196 pack 0 0 0 0 0 0 0 0 0 0 0;
#X msg 9 216 write ./pd-user/mem\$1.txt;
#X obj 339 546 oscformat;
#X msg 161 311 read ./pd-user/mem\$1.txt \, rewind, f 25;
#X obj 227 103 r \$0-chords-octave;
#X msg 399 358 set h_pattern;
#X msg 399 378 set h_key;
#X msg 399 398 set h_density;
#X msg 399 418 set h_legato;
#X msg 399 438 set h_octave;
#X msg 399 458 set h_spread;
#X msg 399 478 set h_register;
#X msg 399 498 set h_mute;
#X msg 399 518 set h_volume;
#X obj 429 322 + 1;
#X obj 399 322 f 0;
#X obj 161 290 t f b;
#X msg 411 304 0;
#X obj 132 450 t b s b;
#X obj 399 340 sel 0 1 2 3 4 5 6 7 8;
#X obj 339 565 s to-osc-gui;
#X msg 151 213 clear \, add -set-chord-pattern \$2 \, add -file-index
\$3 \, add -set-keyfifths \$4 \, add -preset-density \$5 \, add -set-legato
\$6 \, add -set-chords-octave \$7 \, add -set-spread \$8 \, add -set-register
\$9 \, add -set-mute-chords \$10 \, add -set-chords-volume \$11;
#X connect 0 0 19 1;
#X connect 1 0 19 2;
#X connect 2 0 35 0;
#X connect 3 0 10 0;
#X connect 4 0 7 0;
#X connect 4 1 6 1;
#X connect 5 0 6 0;
#X connect 5 1 4 0;
#X connect 6 0 4 0;
#X connect 7 0 8 0;
#X connect 7 1 11 1;
#X connect 8 0 37 0;
#X connect 10 0 20 0;
#X connect 10 1 19 0;
#X connect 11 0 9 0;
#X connect 12 0 19 4;
#X connect 13 0 19 5;
#X connect 14 0 19 7;
#X connect 15 0 19 8;
#X connect 16 0 19 9;
#X connect 17 0 19 10;
#X connect 18 0 19 3;
#X connect 19 0 40 0;
#X connect 20 0 4 0;
#X connect 21 0 39 0;
#X connect 22 0 5 0;
#X connect 23 0 19 6;
#X connect 24 0 21 0;
#X connect 25 0 21 0;
#X connect 26 0 21 0;
#X connect 27 0 21 0;
#X connect 28 0 21 0;
#X connect 29 0 21 0;
#X connect 30 0 21 0;
#X connect 31 0 21 0;
#X connect 32 0 21 0;
#X connect 33 0 34 1;
#X connect 34 0 33 0;
#X connect 34 0 38 0;
#X connect 35 0 22 0;
#X connect 35 1 36 0;
#X connect 36 0 34 1;
#X connect 37 0 11 0;
#X connect 37 1 9 1;
#X connect 38 0 24 0;
#X connect 38 1 25 0;
#X connect 38 2 26 0;
#X connect 38 3 27 0;
#X connect 38 4 28 0;
#X connect 38 5 29 0;
#X connect 38 6 30 0;
#X connect 38 7 31 0;
#X connect 38 8 32 0;
#X connect 40 0 4 0;
#X restore 269 302 pd memories;
#N canvas 0 89 450 300 (subpatch) 0;
#X array \$0-new-pattern 64 float 0;
#X coords 0 64 63 0 100 100 1 0 0;
#X restore 224 21 graph;
#X obj 2 430 hcs/sys_gui;
#X obj 2 391 hcs/canvas_name;
#X obj 114 131 declare -path pd-abs -path pd-third-party;
#N canvas 261 23 1198 724 osc 0;
#X msg 46 374 disconnect;
#X obj 5 405 netsend -u -b;
#X obj 5 209 list prepend send;
#X obj 5 227 list trim;
#X floatatom 5 424 5 0 0 0 - - -, f 5;
#X obj 5 67 oscformat key;
#X obj 5 28 r \$0-key;
#X obj 5 48 mod 12;
#X obj 86 25 r \$0-pcset;
#X obj 86 68 oscformat pcset;
#X obj 274 71 netreceive -u -b 5001;
#X obj 274 111 list trim;
#X obj 274 93 oscparse;
#X obj 274 206 s \$0-key-fifths;
#N canvas 0 102 450 218 fifhts2secs 0;
#X obj 30 15 inlet;
#X obj 30 170 outlet;
#X msg 60 77 1;
#X msg 120 77 3;
#X msg 180 77 5;
#X obj 30 40 sel 0 1 2 3 4 5 6 7 8 9 10 11 12, f 51;
#X msg 390 77 6;
#X msg 330 77 4;
#X msg 30 77 6;
#X msg 90 77 8;
#X msg 150 77 10;
#X msg 240 77 7;
#X msg 270 77 2;
#X msg 300 77 9;
#X msg 360 77 11;
#X msg 210 77 12;
#X connect 0 0 5 0;
#X connect 2 0 1 0;
#X connect 3 0 1 0;
#X connect 4 0 1 0;
#X connect 5 0 8 0;
#X connect 5 1 2 0;
#X connect 5 2 9 0;
#X connect 5 3 3 0;
#X connect 5 4 10 0;
#X connect 5 5 4 0;
#X connect 5 6 15 0;
#X connect 5 7 11 0;
#X connect 5 8 12 0;
#X connect 5 9 13 0;
#X connect 5 10 7 0;
#X connect 5 11 14 0;
#X connect 5 12 6 0;
#X connect 6 0 1 0;
#X connect 7 0 1 0;
#X connect 8 0 1 0;
#X connect 9 0 1 0;
#X connect 10 0 1 0;
#X connect 11 0 1 0;
#X connect 12 0 1 0;
#X connect 13 0 1 0;
#X connect 14 0 1 0;
#X connect 15 0 1 0;
#X restore 274 185 pd fifhts2secs;
#X obj 24 248 r \$0-osc-address;
#X obj 24 306 pack s f;
#X msg 24 354 connect \$1 \$2;
#X obj 274 29 r \$0-oscin;
#X obj 61 286 r \$0-oscout;
#X msg 274 50 listen \$1;
#X obj 34 267 r \$0-reconnect;
#X obj 170 49 t b l;
#X msg 170 67 4;
#X obj 170 87 zexy/listfind;
#X obj 170 108 route bang float;
#X obj 208 126 t b;
#X obj 170 172 oscformat mode;
#X msg 170 137 1;
#X msg 208 147 0;
#X obj 197 285 list prepend send;
#X obj 197 305 list trim;
#X text 16 4 TO TONAL INFORMATION SERVER;
#X text 271 11 FROM LOCALHOST TONAL INFO;
#X obj 197 463 netsend -u -b;
#X floatatom 197 482 5 0 0 0 - - -, f 5;
#X obj 216 384 pack s f;
#X obj 226 346 r \$0-reconnect;
#X msg 416 49 listen \$1;
#X text 413 10 FROM GUI;
#X obj 24 327 t l b;
#X msg 238 440 disconnect;
#X msg 216 420 connect \$1 \$2;
#X obj 216 403 t l b;
#X obj 673 159 route h_ms0 h_ms1 h_ms2 h_ms3 h_ms4 h_mc0 h_mc1 h_mc2
h_mc3 h_mc4;
#X obj 493 516 s \$0-set-chords-octave;
#X obj 518 497 s \$0-set-spread;
#X obj 570 457 s \$0-set-mute-chords;
#X obj 441 554 s set-\$0-density;
#X obj 467 535 s \$0-set-legato;
#X obj 595 438 s \$0-set-chords-volume;
#X obj 621 419 s \$0-set-keyfifths;
#X obj 416 573 s \$0-set-chord-pattern;
#X obj 416 131 route h_pattern h_density h_legato h_octave h_spread
h_register h_mute h_volume h_key h_chords;
#X obj 416 90 oscparse;
#X obj 416 110 list trim;
#X obj 544 477 s \$0-set-register;
#X obj 673 379 s \$0-mem0sr;
#X obj 702 359 s \$0-mem1sr;
#X obj 731 339 s \$0-mem2sr;
#X obj 760 319 s \$0-mem3sr;
#X obj 789 299 s \$0-mem4sr;
#X obj 819 279 s \$0-mem0c;
#X obj 848 258 s \$0-mem1c;
#X obj 877 239 s \$0-mem2c;
#X obj 906 220 s \$0-mem3c;
#X obj 935 199 s \$0-mem4c;
#X obj 416 28 r oscingui;
#X obj 197 265 r to-osc-gui;
#X obj 980 175 s osc2drums;
#X obj 416 70 netreceive -u -b 8000;
#X obj 253 366 r oscoutgui;
#X obj 216 326 r oscgui-address;
#X text 290 157 was key!;
#X obj 274 131 route key pcset;
#X connect 0 0 1 0;
#X connect 1 0 4 0;
#X connect 2 0 3 0;
#X connect 3 0 1 0;
#X connect 5 0 2 0;
#X connect 6 0 7 0;
#X connect 7 0 5 0;
#X connect 8 0 9 0;
#X connect 8 0 22 0;
#X connect 9 0 2 0;
#X connect 10 0 12 0;
#X connect 11 0 74 0;
#X connect 12 0 11 0;
#X connect 14 0 13 0;
#X connect 15 0 16 0;
#X connect 16 0 40 0;
#X connect 17 0 1 0;
#X connect 18 0 20 0;
#X connect 19 0 16 1;
#X connect 20 0 10 0;
#X connect 21 0 16 0;
#X connect 22 0 23 0;
#X connect 22 1 24 1;
#X connect 23 0 24 0;
#X connect 24 0 25 0;
#X connect 25 0 28 0;
#X connect 25 1 26 0;
#X connect 26 0 29 0;
#X connect 27 0 2 0;
#X connect 28 0 27 0;
#X connect 29 0 27 0;
#X connect 30 0 31 0;
#X connect 31 0 34 0;
#X connect 34 0 35 0;
#X connect 36 0 43 0;
#X connect 37 0 36 0;
#X connect 38 0 70 0;
#X connect 40 0 17 0;
#X connect 40 1 0 0;
#X connect 41 0 34 0;
#X connect 42 0 34 0;
#X connect 43 0 42 0;
#X connect 43 1 41 0;
#X connect 44 0 57 0;
#X connect 44 1 58 0;
#X connect 44 2 59 0;
#X connect 44 3 60 0;
#X connect 44 4 61 0;
#X connect 44 5 62 0;
#X connect 44 6 63 0;
#X connect 44 7 64 0;
#X connect 44 8 65 0;
#X connect 44 9 66 0;
#X connect 44 10 69 0;
#X connect 53 0 52 0;
#X connect 53 1 48 0;
#X connect 53 2 49 0;
#X connect 53 3 45 0;
#X connect 53 4 46 0;
#X connect 53 5 56 0;
#X connect 53 6 47 0;
#X connect 53 7 50 0;
#X connect 53 8 51 0;
#X connect 53 10 44 0;
#X connect 54 0 55 0;
#X connect 55 0 53 0;
#X connect 67 0 38 0;
#X connect 68 0 30 0;
#X connect 70 0 54 0;
#X connect 71 0 36 1;
#X connect 72 0 36 0;
#X connect 74 0 14 0;
#X restore 226 302 pd osc;
#N canvas 0 22 496 301 analysis 0;
#X obj 14 41 bng 15 250 50 0 empty empty empty 17 7 0 10 -66577 -258113
-228856;
#X text 34 40 select corpus folder to analyse;
#X msg 278 85 clear;
#X msg 278 41 readagain;
#X msg 278 63 renumber \, writeagain;
#X text 33 163 select corpus folder to analyse;
#X msg 280 215 clear;
#X msg 280 193 writeagain;
#X msg 280 171 readagain;
#N canvas 7 23 970 683 analyse-harmony 0;
#X obj 5 13 inlet;
#X obj 5 98 unpack 0 0 0 0;
#X obj 27 150 t b f, f 19;
#X msg 27 171 1;
#X obj 119 171 mod 12;
#X text 24 238 binary pitch class set of the incoming file without
adding weights to repetition or duration., f 26;
#X msg 350 59 13;
#X obj 350 80 vabs/forloop;
#X obj 392 122 mod 12;
#X obj 392 166 t f f;
#X obj 392 210 + 0;
#X msg 432 187 0;
#X obj 350 18 inlet;
#X text 390 18 bang when file analysis ends;
#X obj 462 260 + 1;
#X obj 392 231 sel 2;
#X obj 432 260 f 0;
#X obj 350 101 t f f, f 9;
#X obj 350 281 f, f 17;
#X obj 350 122 sel 12;
#X obj 350 545 f 0;
#X obj 377 545 + 1;
#X msg 350 586 nstore \$1 \$4 \$3 \$2;
#X obj 546 205 pdmus/distance-euclidean, f 39;
#X msg 365 523 0;
#X obj 27 50 pdmus/chord-make;
#X obj 27 68 pdmus/chord-estimate;
#X obj 5 31 t l l;
#X obj 124 87 vabs/oncev;
#X obj 27 129 -, f 20;
#X msg 193 88 const 0;
#X obj 546 287 zexy/sort;
#X text 672 82 lydian (0);
#X text 672 101 ionian (1);
#X text 672 122 mixolydian (2);
#X text 672 142 dorian (3);
#X text 669 162 aeolian (4);
#X text 672 182 phrygian (5);
#X msg 546 82 1 0 1 0 1 0 1 1 0 1 0 1;
#X msg 546 102 1 0 1 0 1 1 0 1 0 1 0 1;
#X msg 546 122 1 0 1 0 1 1 0 1 0 1 1 0;
#X msg 546 142 1 0 1 1 0 1 0 1 0 1 1 0;
#X msg 546 162 1 0 1 1 0 1 0 1 1 0 1 0;
#X msg 546 182 1 1 0 1 0 1 0 1 1 0 1 0;
#X obj 350 302 t b f b, f 13;
#X obj 531 331 f;
#X obj 546 265 t l l, f 14;
#X obj 546 309 list split 1;
#X obj 350 567 pack f f f s, f 46;
#X obj 350 41 t b b b, f 79;
#X obj 171 68 t b b;
#X obj 543 434 +;
#X obj 531 413 * 3;
#X obj 531 352 t f f;
#X obj 425 545 +;
#X obj 425 474 t f b;
#X obj 452 498 random 5;
#X obj 452 521 * 0.2;
#X obj 543 453 t f b;
#X obj 565 474 random 5;
#X obj 565 494 * 0.2;
#X obj 501 548 +;
#X obj 546 59 t b b b b b b;
#X obj 531 394 cyclone/mean;
#X obj 546 243 vabs/add2list prepend;
#X obj 531 372 zexy/listfind, f 17;
#X obj 171 46 r \$0-h-reset-analysis;
#X obj 193 108 s \$0-h-pcset;
#X obj 27 192 tabwrite \$0-h-pcset;
#X obj 27 212 table \$0-h-pcset 12;
#X obj 392 143 tabread \$0-h-pcset;
#X obj 742 186 zexy/tabdump \$0-h-pcset;
#X obj 648 224 r \$0-h-reset-analysis;
#X obj 358 606 r \$0-h-manage-file;
#X obj 365 501 r \$0-h-init;
#X obj 577 549 r \$0-h-filename;
#X obj 432 166 r \$0-h-reset-analysis;
#X obj 350 626 coll ./pd-user/harmony.txt;
#C restore;
#X connect 0 0 27 0;
#X connect 1 1 29 0;
#X connect 2 0 3 0;
#X connect 2 1 4 0;
#X connect 3 0 68 0;
#X connect 4 0 68 1;
#X connect 6 0 7 0;
#X connect 7 0 17 0;
#X connect 8 0 70 0;
#X connect 9 0 10 1;
#X connect 9 1 10 0;
#X connect 10 0 15 0;
#X connect 11 0 10 1;
#X connect 11 0 16 0;
#X connect 12 0 49 0;
#X connect 14 0 16 1;
#X connect 15 0 16 0;
#X connect 16 0 14 0;
#X connect 16 0 18 1;
#X connect 17 0 19 0;
#X connect 17 1 8 0;
#X connect 18 0 44 0;
#X connect 19 0 18 0;
#X connect 20 0 21 0;
#X connect 20 0 48 0;
#X connect 21 0 20 1;
#X connect 22 0 77 0;
#X connect 23 0 64 0;
#X connect 24 0 20 1;
#X connect 25 0 26 0;
#X connect 26 3 28 0;
#X connect 27 0 1 0;
#X connect 27 1 25 0;
#X connect 28 0 29 1;
#X connect 29 0 2 0;
#X connect 30 0 67 0;
#X connect 31 0 47 0;
#X connect 38 0 23 0;
#X connect 39 0 23 0;
#X connect 40 0 23 0;
#X connect 41 0 23 0;
#X connect 42 0 23 0;
#X connect 43 0 23 0;
#X connect 44 0 20 0;
#X connect 44 1 55 0;
#X connect 44 2 45 0;
#X connect 45 0 53 0;
#X connect 46 0 31 0;
#X connect 46 1 65 1;
#X connect 47 0 45 1;
#X connect 48 0 22 0;
#X connect 49 0 6 0;
#X connect 49 1 62 0;
#X connect 49 2 71 0;
#X connect 50 0 28 1;
#X connect 50 1 30 0;
#X connect 51 0 58 0;
#X connect 52 0 51 0;
#X connect 53 0 65 0;
#X connect 53 1 51 1;
#X connect 54 0 48 1;
#X connect 55 0 54 0;
#X connect 55 1 56 0;
#X connect 56 0 57 0;
#X connect 57 0 54 1;
#X connect 58 0 61 0;
#X connect 58 1 59 0;
#X connect 59 0 60 0;
#X connect 60 0 61 1;
#X connect 61 0 48 2;
#X connect 62 0 38 0;
#X connect 62 1 39 0;
#X connect 62 2 40 0;
#X connect 62 3 41 0;
#X connect 62 4 42 0;
#X connect 62 5 43 0;
#X connect 63 0 52 0;
#X connect 64 0 46 0;
#X connect 65 0 63 0;
#X connect 66 0 50 0;
#X connect 70 0 9 0;
#X connect 71 0 23 1;
#X connect 72 0 64 1;
#X connect 73 0 77 0;
#X connect 74 0 24 0;
#X connect 75 0 48 3;
#X connect 76 0 11 0;
#X restore 14 84 pd analyse-harmony;
#N canvas 0 128 503 567 analyse-rhythm 0;
#X obj 5 6 inlet;
#X obj 5 28 unpack 0 0 0 0;
#X obj 5 71 /;
#X obj 47 70 != 0;
#X obj 5 92 * 4;
#X obj 16 177 route;
#X obj 16 155 t l f, f 8;
#X obj 5 113 pack, f 9;
#X msg 5 241 \$2 \$1;
#X obj 292 344 inlet;
#X obj 5 313 -;
#X obj 5 333 pack f f;
#X msg 5 354 \$2 \$1;
#X obj 33 282 t f f;
#X obj 5 261 route 0 1, f 10;
#X obj 292 368 f 0;
#X obj 322 368 + 1;
#X obj 292 488 list append;
#X text 293 323 bang when file analysis ends;
#X obj 5 134 vabs/change-any;
#X obj 5 376 vabs/add2list prepend;
#X msg 120 376 const -1;
#X obj 299 509 r \$0-r-manage-file;
#X obj 120 398 s \$0-r-master-pattern;
#X obj 107 351 r \$0-r-reset-analysis;
#X obj 16 220 table \$0-r-master-pattern 65;
#X obj 16 200 tabwrite \$0-r-master-pattern;
#X obj 17 48 r \$0-r-ticks/4;
#X obj 292 532 cyclone/coll ./pd-user/rhythm.txt;
#C restore;
#X connect 0 0 1 0;
#X connect 1 0 2 0;
#X connect 1 2 3 0;
#X connect 2 0 4 0;
#X connect 3 0 7 1;
#X connect 4 0 7 0;
#X connect 5 0 26 0;
#X connect 6 0 5 0;
#X connect 6 1 5 1;
#X connect 6 1 26 1;
#X connect 7 0 19 0;
#X connect 8 0 14 0;
#X connect 9 0 15 0;
#X connect 10 0 11 0;
#X connect 11 0 12 0;
#X connect 12 0 20 0;
#X connect 13 0 11 1;
#X connect 13 1 10 1;
#X connect 14 0 10 0;
#X connect 14 1 13 0;
#X connect 15 0 16 0;
#X connect 15 0 17 0;
#X connect 16 0 15 1;
#X connect 17 0 28 0;
#X connect 19 0 8 0;
#X connect 19 0 6 0;
#X connect 20 0 17 1;
#X connect 21 0 23 0;
#X connect 22 0 28 0;
#X connect 24 0 21 0;
#X connect 24 0 20 1;
#X connect 27 0 2 1;
#X restore 13 207 pd analyse-rhythm;
#X text 12 20 HARMONY;
#X text 13 143 RHYTHM;
#X text 346 42 LOAD;
#X text 395 63 WRITE;
#X text 320 86 EMPTY;
#X text 345 170 LOAD;
#X text 350 193 WRITE;
#X text 320 216 EMPTY;
#X obj 278 107 s \$0-h-manage-file;
#X obj 280 237 s \$0-r-manage-file;
#X obj 13 162 bng 15 250 50 0 empty empty empty 17 7 0 10 -66577 -258113
-228856;
#X obj 14 62 read-corpus h;
#X obj 13 184 read-corpus r;
#X connect 0 0 22 0;
#X connect 2 0 19 0;
#X connect 3 0 19 0;
#X connect 4 0 19 0;
#X connect 6 0 20 0;
#X connect 7 0 20 0;
#X connect 8 0 20 0;
#X connect 21 0 23 0;
#X connect 22 0 9 0;
#X connect 22 1 9 1;
#X connect 23 0 10 0;
#X connect 23 1 10 1;
#X restore 269 321 pd analysis;
#X obj 2 192 r \$0-analysis;
#X msg 2 411 \$1 configure -background #808080;
#X obj 2 273 loadbang;
#N canvas 157 23 329 508 interface-mappings 0;
#X obj 14 242 == 0, f 10;
#X obj 14 263 sel 1;
#X obj 14 283 f, f 12;
#X obj 14 170 t f f f, f 20;
#X obj 14 326 line 0;
#X msg 24 197 clear;
#X msg 14 423 set \$1;
#X obj 14 131 r \$0-raw-register;
#X obj 191 452 s \$0-register;
#X obj 14 443 s \$0-set-register;
#X obj 14 222 pipe 300;
#X msg 14 305 \$1 \, 0 400;
#X obj 14 150 int;
#X obj 22 387 int;
#X obj 191 432 change -1;
#X obj 12 67 int;
#X obj 65 98 s set-\$0-density;
#X obj 12 7 r \$0-preset-density;
#X obj 12 27 route float;
#X obj 12 49 vabs/vscale 0 64 0 127;
#X obj 46 349 oscformat h_register;
#X obj 46 367 s \$0-to-osc-gui;
#X connect 0 0 1 0;
#X connect 1 0 2 0;
#X connect 2 0 11 0;
#X connect 3 0 10 0;
#X connect 3 1 0 1;
#X connect 3 1 5 0;
#X connect 3 2 2 1;
#X connect 3 2 14 0;
#X connect 4 0 6 0;
#X connect 4 0 13 0;
#X connect 4 0 20 0;
#X connect 5 0 10 0;
#X connect 6 0 9 0;
#X connect 7 0 12 0;
#X connect 10 0 0 0;
#X connect 11 0 4 0;
#X connect 12 0 3 0;
#X connect 13 0 14 0;
#X connect 14 0 8 0;
#X connect 15 0 16 0;
#X connect 17 0 18 0;
#X connect 18 0 19 0;
#X connect 18 1 16 0;
#X connect 19 0 15 0;
#X connect 20 0 21 0;
#X restore 218 225 pd interface-mappings;
#X msg 24 310 pd-analysis;
#X obj 2 292 t b b;
#X obj 24 351 hcs/canvas_name;
#X msg 24 371 \$1 configure -background #808080;
#X msg 2 220 \; pd-analysis vis 1;
#X msg 2 329 pd-harmonic-filler.pd;
#X obj 3 171 s pd-harmonic-filler.pd;
#X connect 1 0 4 0;
#X connect 4 0 13 0;
#X connect 4 1 13 1;
#X connect 5 0 11 0;
#X connect 11 0 32 0;
#X connect 18 0 23 0;
#X connect 23 0 17 0;
#X connect 24 0 27 0;
#X connect 27 0 31 0;
#X connect 27 1 26 0;
#X connect 28 0 29 0;
#X connect 29 0 17 0;
#X connect 31 0 18 0;
#X restore 585 119 pd p;
#X obj 84 14 bng 11 250 50 0 \$0-reconnect asdfasdfadfdfsdfa (re)connect
15 7 1 11 -66577 -258113 -228856;
#X obj 167 9 cnv 15 1 1 empty empty OSC: 0 12 1 11 -128992 -228856
0;
#X symbolatom 439 13 16 0 0 0 - set-oscgui-address oscgui-address,
f 16;
#X floatatom 587 13 5 0 0 0 in set-oscingui oscingui, f 5;
#X floatatom 542 13 5 0 0 0 out set-oscoutgui oscoutgui, f 5;
#X obj 387 8 cnv 15 1 1 empty empty OSCGUI: 0 12 1 11 -128992 -228856
0;
#X obj 458 258 cnv 15 1 1 empty empty store/recall 0 12 1 11 -128992
-228856 0;
#X obj 458 318 cnv 15 1 1 empty empty clear 0 12 1 11 -128992 -228856
0;
#X obj 487 278 memslot 1 \$0;
#X obj 517 278 memslot 2 \$0;
#X obj 457 278 memslot 0 \$0;
#X obj 577 278 memslot 4 \$0;
#X obj 547 278 memslot 3 \$0;
#X obj 583 116 cnv 15 30 20 empty empty empty 20 12 0 14 -128992 -66577
0;
#X obj 15 14 bng 11 250 50 0 \$0-analysis \$0-set-analysis analysis
15 7 1 11 -66577 -258113 -228856;
