#N canvas 39 567 291 166 10;
#N canvas 299 23 326 362 load-folder 0;
#X obj 13 76 openpanel;
#X obj 13 55 ggee/getdir;
#X obj 172 286 f 1;
#X obj 202 286 + 1;
#X obj 13 33 t b b, f 20;
#X msg 187 264 1;
#X obj 172 309 s \$0-files-in-folder;
#X obj 13 264 t s b, f 27;
#X obj 13 286 outlet;
#X obj 13 11 inlet;
#X obj 23 243 hcs/folder_list;
#X obj 23 97 jasch_lib/strtok /;
#X obj 23 117 t a a, f 10;
#X obj 80 137 list length;
#X obj 23 178 list split;
#X obj 80 158 - 1;
#X obj 23 200 zexy/list2symbol /;
#X obj 23 221 makefilename /%s/*.mid;
#X connect 0 0 7 0;
#X connect 1 0 0 0;
#X connect 2 0 3 0;
#X connect 2 0 6 0;
#X connect 3 0 2 1;
#X connect 4 0 1 0;
#X connect 4 1 5 0;
#X connect 5 0 2 1;
#X connect 7 0 8 0;
#X connect 7 1 2 0;
#X connect 9 0 4 0;
#X connect 11 0 12 0;
#X connect 12 0 14 0;
#X connect 12 1 13 0;
#X connect 13 0 15 0;
#X connect 14 0 16 0;
#X connect 15 0 14 1;
#X connect 16 0 17 0;
#X connect 17 0 10 0;
#X restore 44 57 pd load-folder;
#X obj 44 35 bng 15 250 50 0 empty empty empty 17 7 0 10 -262144 -1
-1;
#X text 64 34 select corpus folder to analyse;
#N canvas 0 22 548 529 read-midi-file 0;
#X msg 44 76 flush;
#X obj 14 305 / 4;
#X obj 14 282 unpack 0 0 0 0 0;
#X obj 44 98 t a b, f 6;
#X msg 44 33 read \$1;
#X obj 129 196 pdmus/midi-player;
#X obj 391 418 t b b;
#X obj 162 485 outlet;
#X obj 162 464 pdmus/midi-sort-events;
#X obj 282 352 * 8;
#X obj 162 421 + 0;
#X obj 44 54 t b a b, f 29;
#X msg 215 74 0;
#X obj 228 216 f;
#X obj 162 376 unpack 0 0 0;
#X obj 162 442 pack 0 0 0, f 12;
#X obj 228 281 f 0;
#X obj 258 281 + 1;
#X obj 267 374 f;
#X obj 228 304 sel 0 1, f 8;
#X obj 228 236 sel 2 4;
#X obj 228 329 t b b, f 7;
#X msg 228 351 flush;
#X obj 215 94 s \$0-reset-count;
#X obj 177 399 r \$0-reset-count;
#X obj 14 326 s \$0-bars;
#X obj 83 303 s \$0-ticks/4;
#X obj 313 115 \$0;
#X msg 313 136 \; \$1-master-pattern const -1 \; \$1-slave-pattern
const -1;
#X obj 243 196 r \$0-bars;
#X obj 170 154 s \$0-reset-analysis;
#X obj 282 330 r \$0-ticks/4;
#X obj 243 260 r \$0-reset-count;
#X obj 391 397 pdmus/oncev;
#X obj 14 262 pdmus/oncev;
#X obj 44 12 inlet;
#X obj 391 480 outlet;
#X connect 0 0 3 0;
#X connect 1 0 25 0;
#X connect 2 0 1 0;
#X connect 2 3 26 0;
#X connect 3 0 5 0;
#X connect 3 1 27 0;
#X connect 3 1 30 0;
#X connect 3 1 33 1;
#X connect 3 1 34 1;
#X connect 4 0 11 0;
#X connect 5 1 14 0;
#X connect 5 2 34 0;
#X connect 5 3 13 0;
#X connect 6 0 36 0;
#X connect 6 1 8 1;
#X connect 8 0 7 0;
#X connect 9 0 18 1;
#X connect 10 0 15 0;
#X connect 11 0 0 0;
#X connect 11 1 5 0;
#X connect 11 2 12 0;
#X connect 12 0 23 0;
#X connect 13 0 20 0;
#X connect 14 0 10 0;
#X connect 14 1 15 1;
#X connect 14 2 15 2;
#X connect 15 0 8 0;
#X connect 16 0 17 0;
#X connect 16 0 19 0;
#X connect 17 0 16 1;
#X connect 18 0 10 1;
#X connect 19 0 21 0;
#X connect 19 1 33 0;
#X connect 20 0 16 0;
#X connect 20 1 33 0;
#X connect 21 0 22 0;
#X connect 21 1 18 0;
#X connect 22 0 5 0;
#X connect 24 0 10 1;
#X connect 27 0 28 0;
#X connect 29 0 13 1;
#X connect 31 0 9 0;
#X connect 32 0 16 1;
#X connect 33 0 6 0;
#X connect 34 0 2 0;
#X connect 35 0 4 0;
#X restore 44 81 pd read-midi-file;
#X obj 179 76 print;
#N canvas 387 45 828 710 analyse-file 1;
#X obj 100 15 inlet;
#X obj 100 37 unpack 0 0 0 0;
#X obj 100 80 /;
#X obj 154 81 != 0;
#X obj 100 101 * 4;
#X obj 124 199 route;
#X obj 124 177 t l f, f 8;
#X obj 100 123 pack, f 9;
#X msg 100 261 \$2 \$1;
#X obj 100 144 pdmus/change-any;
#X obj 115 58 r \$0-ticks/4;
#X obj 124 222 tabwrite \$0-master-pattern;
#X obj 627 150 cyclone/coll;
#C restore;
#X obj 334 91 inlet;
#X text 417 82 end analysis, f 17;
#X obj 334 114 s \$0-end-analysis;
#X obj 100 348 -;
#X obj 100 370 pack f f;
#X msg 100 391 \$2 \$1;
#X obj 100 413 print C;
#X obj 145 305 t f f;
#X obj 514 335 f 0;
#X obj 544 335 + 1;
#X obj 499 409 s;
#X text 531 408 chord \, onset \, duration.;
#X obj 514 356 mod 64;
#X obj 514 378 makefilename \$0-master-chord-fill-%d;
#X text 509 310 this goes to main patch!;
#N canvas 0 22 566 521 viejo 0;
#X msg 119 45 \$2 \$1;
#X obj 119 159 pdmus/add2list prepend;
#X obj 52 264 list;
#X obj 119 65 route 1 0;
#X obj 265 160 pdmus/add2list prepend;
#X obj 133 264 list;
#X obj 97 371 -;
#X obj 97 347 swap;
#X obj 52 306 t f f;
#X obj 160 328 f 0;
#X obj 190 328 + 1;
#X obj 133 307 t f b;
#X obj 145 452 s;
#X text 177 451 chord \, onset \, duration.;
#X obj 52 285 zexy/drip 0;
#X obj 133 285 zexy/drip 0;
#X obj 33 230 t b b b;
#X obj 160 349 mod 64;
#X obj 33 208 del 1;
#X obj 248 118 r \$0-reset-analysis;
#X obj 33 187 r \$0-end-analysis;
#X obj 160 371 makefilename \$0-master-chord-fill-%d;
#X obj 52 394 pack f f;
#X obj 66 454 print A;
#X text 51 10 antiguo sitstema... guardo para comparar en caso de que
haya secuencias extrañas;
#X connect 0 0 3 0;
#X connect 1 0 2 1;
#X connect 2 0 14 0;
#X connect 3 0 1 0;
#X connect 3 1 4 0;
#X connect 4 0 5 1;
#X connect 5 0 15 0;
#X connect 6 0 22 1;
#X connect 7 0 6 0;
#X connect 7 1 6 1;
#X connect 8 0 22 0;
#X connect 8 1 7 0;
#X connect 9 0 10 0;
#X connect 9 0 17 0;
#X connect 10 0 9 1;
#X connect 11 0 7 1;
#X connect 11 1 9 0;
#X connect 14 0 8 0;
#X connect 15 0 11 0;
#X connect 16 1 2 0;
#X connect 16 2 5 0;
#X connect 17 0 21 0;
#X connect 18 0 16 0;
#X connect 19 0 1 1;
#X connect 19 0 4 1;
#X connect 20 0 18 0;
#X connect 21 0 12 1;
#X connect 22 0 12 0;
#X connect 22 0 23 0;
#X restore 611 201 pd viejo;
#X obj 100 281 route 0 1, f 16;
#X connect 0 0 1 0;
#X connect 1 0 2 0;
#X connect 1 2 3 0;
#X connect 2 0 4 0;
#X connect 3 0 7 1;
#X connect 4 0 7 0;
#X connect 5 0 11 0;
#X connect 6 0 5 0;
#X connect 6 1 5 1;
#X connect 6 1 11 1;
#X connect 7 0 9 0;
#X connect 8 0 29 0;
#X connect 9 0 8 0;
#X connect 10 0 2 1;
#X connect 13 0 15 0;
#X connect 16 0 17 0;
#X connect 17 0 18 0;
#X connect 18 0 19 0;
#X connect 20 0 17 1;
#X connect 20 1 16 1;
#X connect 21 0 22 0;
#X connect 21 0 25 0;
#X connect 22 0 21 1;
#X connect 25 0 26 0;
#X connect 26 0 23 1;
#X connect 29 0 16 0;
#X connect 29 1 20 0;
#X restore 44 105 pd analyse-file;
#X connect 0 0 3 0;
#X connect 1 0 0 0;
