#N struct 1187-chord0 float x float y symbol name;
#N struct 1187-chord1 float x float y symbol name;
#N struct 1187-chord2 float x float y symbol name;
#N struct 1187-chord3 float x float y symbol name;
#N struct 1187-chord4 float x float y symbol name;
#N struct 1187-chord5 float x float y symbol name;
#N struct 1187-chord6 float x float y symbol name;
#N struct 1187-chord7 float x float y symbol name;
#N struct 1187-mchord0 float x float dur;
#N struct 1187-mchord1 float x float dur;
#N struct 1187-mchord2 float x float dur;
#N struct 1187-mchord3 float x float dur;
#N struct 1187-mchord4 float x float dur;
#N struct 1187-mchord5 float x float dur;
#N struct 1187-mchord6 float x float dur;
#N struct 1187-mchord7 float x float dur;
#N struct 1187-mchord8 float x float dur;
#N struct 1187-mchord9 float x float dur;
#N struct 1187-mchord10 float x float dur;
#N struct 1187-mchord11 float x float dur;
#N struct 1187-mchord12 float x float dur;
#N struct 1187-mchord13 float x float dur;
#N struct 1187-mchord14 float x float dur;
#N struct 1187-mchord15 float x float dur;
#N struct 1187-mchord16 float x float dur;
#N struct 1187-mchord17 float x float dur;
#N struct 1187-mchord18 float x float dur;
#N struct 1187-mchord19 float x float dur;
#N struct 1187-mchord20 float x float dur;
#N struct 1187-mchord21 float x float dur;
#N struct 1187-mchord22 float x float dur;
#N struct 1187-mchord23 float x float dur;
#N struct 1187-mchord24 float x float dur;
#N struct 1187-mchord25 float x float dur;
#N struct 1187-mchord26 float x float dur;
#N struct 1187-mchord27 float x float dur;
#N struct 1187-mchord28 float x float dur;
#N struct 1187-mchord29 float x float dur;
#N struct 1187-mchord30 float x float dur;
#N struct 1187-mchord31 float x float dur;
#N struct 1187-mchord32 float x float dur;
#N struct 1187-mchord33 float x float dur;
#N struct 1187-mchord34 float x float dur;
#N struct 1187-mchord35 float x float dur;
#N struct 1187-mchord36 float x float dur;
#N struct 1187-mchord37 float x float dur;
#N struct 1187-mchord38 float x float dur;
#N struct 1187-mchord39 float x float dur;
#N struct 1187-mchord40 float x float dur;
#N struct 1187-mchord41 float x float dur;
#N struct 1187-mchord42 float x float dur;
#N struct 1187-mchord43 float x float dur;
#N struct 1187-mchord44 float x float dur;
#N struct 1187-mchord45 float x float dur;
#N struct 1187-mchord46 float x float dur;
#N struct 1187-mchord47 float x float dur;
#N struct 1187-mchord48 float x float dur;
#N struct 1187-mchord49 float x float dur;
#N struct 1187-mchord50 float x float dur;
#N struct 1187-mchord51 float x float dur;
#N struct 1187-mchord52 float x float dur;
#N struct 1187-mchord53 float x float dur;
#N struct 1187-mchord54 float x float dur;
#N struct 1187-mchord55 float x float dur;
#N struct 1187-mchord56 float x float dur;
#N struct 1187-mchord57 float x float dur;
#N struct 1187-mchord58 float x float dur;
#N struct 1187-mchord59 float x float dur;
#N struct 1187-mchord60 float x float dur;
#N struct 1187-mchord61 float x float dur;
#N struct 1187-mchord62 float x float dur;
#N struct 1187-mchord63 float x float dur;
#N struct 1187-beat float x;
#N struct 1187-line float pos float color;
#N canvas 1 23 817 437 10;
#X declare -path abs;
#N canvas 749 23 520 496 patch 1;
#N canvas 74 89 566 649 adt 0;
#X obj 16 254 until;
#X msg 85 253 0;
#X obj 16 277 f 0, f 12;
#X obj 106 277 + 1;
#X obj 16 204 t b b l, f 45;
#X msg 149 231 const 0;
#X obj 16 53 f;
#X obj 31 360 expr if($f2==1 \, 1 \, if($f1==1 \, -1 \, $f1)), f 41
;
#X obj 16 299 t f f f f f, f 54;
#X obj 31 487 expr if($f2==-1 \, $f1 \, if($f1==1 \, 1 \, $f2)), f
52;
#X obj 31 444 pack;
#X obj 31 423 swap;
#X obj 31 465 route 0 1;
#X obj 56 512 expr if($f1==1 \, $f1 \, $f2), f 51;
#X obj 177 94 list-abs/list-apply max 0;
#X obj 177 136 zexy/sum;
#X msg 184 50 64;
#X msg 16 232 64;
#X obj 16 556 sel 63;
#X obj 52 402 > 64;
#X obj 21 30 r \$0-update-density;
#X obj 16 9 r \$0-density;
#X obj 176 8 r \$0-end-analysis;
#X obj 177 29 zexy/tabdump \$0-master-pattern;
#X obj 184 71 s \$0-set-legato;
#X obj 177 157 s \$0-set-density;
#X obj 149 253 s \$0-slave-pattern;
#X obj 283 228 zexy/tabset \$0-new-onsets;
#X obj 16 578 s \$0-update-legato;
#X obj 31 535 tabwrite \$0-slave-pattern, f 38;
#X obj 52 382 r \$0-force-legato;
#X obj 31 331 tabread \$0-master-pattern;
#X obj 337 330 tabread \$0-legato-pattern;
#X obj 16 183 populate-rhythm64, f 45;
#X obj 193 330 tabread \$0-new-onsets;
#X obj 390 137 s \$0-onsets-bass;
#X obj 177 115 t l l l, f 36;
#X connect 0 0 2 0;
#X connect 1 0 2 1;
#X connect 2 0 3 0;
#X connect 2 0 8 0;
#X connect 3 0 2 1;
#X connect 4 0 17 0;
#X connect 4 1 1 0;
#X connect 4 1 5 0;
#X connect 4 2 27 0;
#X connect 5 0 26 0;
#X connect 6 0 33 0;
#X connect 7 0 11 0;
#X connect 8 0 18 0;
#X connect 8 1 31 0;
#X connect 8 2 34 0;
#X connect 8 3 29 1;
#X connect 8 4 32 0;
#X connect 9 0 29 0;
#X connect 10 0 12 0;
#X connect 11 0 10 0;
#X connect 11 1 10 1;
#X connect 12 0 9 0;
#X connect 12 1 13 0;
#X connect 13 0 29 0;
#X connect 14 0 36 0;
#X connect 15 0 25 0;
#X connect 16 0 24 0;
#X connect 17 0 0 0;
#X connect 18 0 28 0;
#X connect 19 0 11 1;
#X connect 20 0 6 0;
#X connect 21 0 6 0;
#X connect 22 0 23 0;
#X connect 23 0 16 0;
#X connect 23 0 14 0;
#X connect 30 0 19 0;
#X connect 31 0 7 0;
#X connect 32 0 9 1;
#X connect 32 0 13 1;
#X connect 33 0 4 0;
#X connect 34 0 7 1;
#X connect 36 0 15 0;
#X connect 36 1 33 1;
#X connect 36 2 35 0;
#X restore 211 169 pd adt;
#N canvas 364 89 537 594 load-midi-loop 1;
#X msg 44 139 flush;
#X obj 14 368 / 4;
#X obj 14 345 unpack 0 0 0 0 0;
#X obj 44 161 t a b, f 6;
#X msg 44 96 read \$1;
#X obj 129 259 pdmus/midi-player;
#X obj 391 481 t b b;
#X obj 162 548 outlet;
#X obj 162 527 pdmus/midi-sort-events;
#X obj 282 415 * 8;
#X obj 162 484 + 0;
#X obj 44 117 t b a b, f 29;
#X msg 215 138 0;
#X obj 228 279 f;
#X obj 162 439 unpack 0 0 0;
#X obj 162 505 pack 0 0 0, f 12;
#X obj 228 344 f 0;
#X obj 258 344 + 1;
#X obj 267 437 f;
#X obj 228 367 sel 0 1, f 8;
#X obj 228 299 sel 2 4;
#X obj 228 392 t b b, f 7;
#X msg 228 414 flush;
#X obj 44 33 list prepend, f 21;
#X obj 44 55 zexy/list2symbol /;
#N canvas 220 50 420 739 load-folder 0;
#X obj 23 308 hcs/folder_list;
#X msg 51 563 append \$1;
#X obj 23 351 jasch_lib/strtok /;
#X obj 23 372 t a a, f 10;
#X obj 80 392 list length;
#X obj 23 432 list split;
#X obj 80 412 - 1;
#X msg 205 562 options;
#X obj 23 636 zexy/list2symbol /;
#X obj 23 657 makefilename /%s;
#X obj 23 11 loadbang;
#X obj 33 121 openpanel;
#X obj 33 100 ggee/getdir;
#X obj 33 142 jasch_lib/strtok /;
#X obj 33 162 t a a, f 10;
#X obj 90 182 list length;
#X obj 33 223 list split;
#X obj 90 203 - 1;
#X obj 33 245 zexy/list2symbol /;
#X msg 23 33 symbol ./corpus/*.mid;
#X obj 23 679 outlet;
#X obj 194 351 f 1;
#X obj 224 351 + 1;
#X obj 33 78 t b b, f 30;
#X obj 33 266 makefilename /%s/*.mid;
#X msg 210 329 1;
#X obj 51 520 jasch_lib/strcut;
#X obj 78 475 jasch_lib/strlen;
#X obj 78 497 - 4;
#X obj 51 453 t a a;
#X obj 51 542 symbol;
#X obj 33 56 r \$0-load-folder;
#X obj 194 374 s \$0-files-in-folder;
#X obj 23 329 t s b, f 29;
#X obj 51 591 s \$0-list-of-files;
#X obj 23 287 trigger symbol bang, f 24;
#X obj 23 614 pdmus/oncev, f 29;
#X connect 0 0 33 0;
#X connect 1 0 34 0;
#X connect 2 0 3 0;
#X connect 3 0 5 0;
#X connect 3 1 4 0;
#X connect 4 0 6 0;
#X connect 5 0 36 0;
#X connect 5 1 29 0;
#X connect 6 0 5 1;
#X connect 7 0 34 0;
#X connect 8 0 9 0;
#X connect 9 0 20 0;
#X connect 10 0 19 0;
#X connect 11 0 13 0;
#X connect 12 0 11 0;
#X connect 13 0 14 0;
#X connect 14 0 16 0;
#X connect 14 1 15 0;
#X connect 15 0 17 0;
#X connect 16 0 18 0;
#X connect 17 0 16 1;
#X connect 18 0 24 0;
#X connect 19 0 35 0;
#X connect 21 0 22 0;
#X connect 21 0 32 0;
#X connect 22 0 21 1;
#X connect 23 0 12 0;
#X connect 23 1 25 0;
#X connect 24 0 35 0;
#X connect 25 0 21 1;
#X connect 26 0 30 0;
#X connect 27 0 28 0;
#X connect 28 0 26 0;
#X connect 29 0 26 0;
#X connect 29 1 27 0;
#X connect 30 0 1 0;
#X connect 31 0 23 0;
#X connect 33 0 2 0;
#X connect 33 1 21 0;
#X connect 35 0 0 0;
#X connect 35 1 7 0;
#X connect 35 1 36 1;
#X connect 36 0 8 0;
#X restore 167 12 pd load-folder;
#X obj 44 76 makefilename %s.mid;
#X obj 44 12 r \$0-sequence-file;
#X obj 215 159 s \$0-reset-count;
#X obj 391 513 s \$0-end-analysis;
#X obj 177 462 r \$0-reset-count;
#X obj 14 389 s \$0-bars;
#X obj 83 366 s \$0-ticks/4;
#X obj 243 259 r \$0-bars;
#X obj 170 217 s \$0-reset-analysis;
#X obj 282 393 r \$0-ticks/4;
#X obj 243 322 r \$0-reset-count;
#X obj 391 460 pdmus/oncev;
#X obj 14 325 pdmus/oncev;
#X obj 313 178 \$0;
#X msg 313 199 \; \$1-master-pattern const -1 \; \$1-slave-pattern
const -1;
#X connect 0 0 3 0;
#X connect 1 0 31 0;
#X connect 2 0 1 0;
#X connect 2 3 32 0;
#X connect 3 0 5 0;
#X connect 3 1 34 0;
#X connect 3 1 37 1;
#X connect 3 1 38 1;
#X connect 4 0 11 0;
#X connect 5 1 14 0;
#X connect 5 2 38 0;
#X connect 5 3 13 0;
#X connect 6 0 29 0;
#X connect 6 1 8 1;
#X connect 8 0 7 0;
#X connect 9 0 18 1;
#X connect 10 0 15 0;
#X connect 11 0 0 0;
#X connect 11 1 5 0;
#X connect 11 2 12 0;
#X connect 12 0 28 0;
#X connect 13 0 20 0;
#X connect 14 0 10 0;
#X connect 14 1 15 1;
#X connect 14 2 15 2;
#X connect 15 0 8 0;
#X connect 16 0 17 0;
#X connect 16 0 19 0;
#X connect 17 0 16 1;
#X connect 18 0 10 1;
#X connect 19 0 21 0;
#X connect 19 1 37 0;
#X connect 20 0 16 0;
#X connect 20 1 37 0;
#X connect 21 0 22 0;
#X connect 21 1 18 0;
#X connect 22 0 5 0;
#X connect 23 0 24 0;
#X connect 24 0 26 0;
#X connect 25 0 23 1;
#X connect 26 0 4 0;
#X connect 27 0 23 0;
#X connect 30 0 10 1;
#X connect 33 0 13 1;
#X connect 35 0 9 0;
#X connect 36 0 16 1;
#X connect 37 0 6 0;
#X connect 38 0 2 0;
#X connect 39 0 40 0;
#X restore 211 109 pd load-midi-loop;
#N canvas 0 50 450 300 (subpatch) 0;
#X array \$0-master-pattern 65 float 2;
#X coords 0 2 65 -2 200 50 1 0 0;
#X restore 5 19 graph;
#N canvas 0 50 450 300 (subpatch) 0;
#X array \$0-new-onsets 65 float 2;
#X coords 0 2 65 -2 200 50 1 0 0;
#X restore 4 85 graph;
#N canvas 0 50 450 300 (subpatch) 0;
#X array \$0-slave-pattern 65 float 2;
#X coords 0 2 65 -2 200 50 1 0 0;
#X restore 4 220 graph;
#N canvas 0 50 450 300 (subpatch) 0;
#X array \$0-legato-pattern 65 float 2;
#X coords 0 2 65 -2 200 50 1 0 0;
#X restore 4 153 graph;
#N canvas 114 183 775 538 legato 0;
#N canvas 0 50 450 300 (subpatch) 0;
#X array \$0-legatorder 64 float 1;
#A 0 0 16 1 17 2 18 3 19 4 20 5 21 6 22 7 23 8 24 9 25 10 26 11 27
12 28 13 29 14 30 15 31 32 33 34 35 36 37 38 39 40 41 42 43 44 45 46
47 48 49 50 51 52 53 54 55 56 57 58 59 60 61 62 63;
#X coords 0 32 63 0 400 140 1 0 0;
#X restore 57 29 graph;
#X text 39 175 descendientemente \, por compás;
#X msg 76 343 22 20 6 4 30 28 14 12 26 24 21 10 23 8 5 18 7 16 29 2
31 0 13 15 25 27 9 11 17 19 1 3;
#X text 74 320 from daniel1;
#X msg 87 401 3 1 19 17 11 9 27 25 15 13 0 31 2 29 16 7 18 5 8 23 10
21 24 26 12 14 28 30 4 6 20 22;
#X text 84 380 from daniel-inverse;
#X text 59 265 descendientemente \, por subtiempos débiles;
#X msg 52 288 0 16 8 24 4 20 12 28 1 17 9 25 5 21 13 29 2 18 10 26
6 22 14 30 3 19 11 27 7 23 15 31;
#X obj 578 213 tabread \$0-legatorder;
#X obj 590 164 sel;
#X obj 605 142 - 1;
#X obj 539 128 t f b f;
#X msg 503 223 -1;
#X msg 625 93 const 0;
#X obj 539 103 pdmus/forloop;
#X obj 586 71 t f f b;
#X obj 42 447 zexy/tabset \$0-legatorder;
#X msg 42 200 0 16 1 17 2 18 3 19 4 20 5 21 6 22 7 23 8 24 9 25 10
26 11 27 12 28 13 29 14 30 15 31 32 33 34 35 36 37 38 39 40 41 42 43
44 45 46 47 48 49 50 51 52 53 54 55 56 57 58 59 60 61 62 63;
#X obj 586 49 r \$0-legato;
#X obj 625 115 s \$0-legato-pattern;
#X obj 590 188 s \$0-update-density;
#X obj 503 248 tabwrite \$0-legato-pattern;
#X connect 2 0 16 0;
#X connect 4 0 16 0;
#X connect 7 0 16 0;
#X connect 8 0 21 1;
#X connect 9 0 20 0;
#X connect 10 0 9 1;
#X connect 11 0 9 0;
#X connect 11 1 12 0;
#X connect 11 2 8 0;
#X connect 12 0 21 0;
#X connect 13 0 19 0;
#X connect 14 0 11 0;
#X connect 15 0 14 0;
#X connect 15 1 10 0;
#X connect 15 2 13 0;
#X connect 17 0 16 0;
#X connect 18 0 15 0;
#X restore 211 189 pd legato;
#N canvas 0 89 610 427 clock 0;
#X obj 134 139 /;
#X obj 190 305 + 1;
#X obj 160 305 f 0;
#X msg 134 119 15000 \$1;
#X obj 83 160 metro 125;
#X obj 8 226 sel 0;
#X obj 8 110 f;
#X obj 217 215 spigot 0;
#X obj 8 132 spigot;
#X obj 14 47 - 1;
#X obj 14 67 abs;
#X obj 14 88 t b f;
#X obj 56 132 sel 1;
#X obj 312 215 spigot 0;
#X msg 175 284 0;
#X obj 123 183 pdmus/midi-sync, f 32;
#X obj 108 372 pdmus/midi-panic-ch 2;
#X obj 54 226 sel 0;
#X obj 175 328 sel 63;
#X obj 8 394 pdmus/midi-panic-ch 1;
#X obj 433 237 \$0;
#X obj 405 215 select 0 1;
#X obj 405 237 \$0;
#X obj 14 26 r \$0-clock-mode;
#X obj 8 6 r \$0-play;
#X obj 134 97 r \$0-tempo;
#X obj 123 215 s \$0-set-play;
#X obj 357 182 r \$0-clock-mode;
#X obj 312 237 s \$0-set-tempo;
#X obj 160 350 s \$0-current-step;
#X msg 433 260 \; \$1-set-play color 11 11 1 \; \$1-set-tempo color
11 13 1;
#X msg 405 308 \; \$1-set-play color 2 13 10 \; \$1-set-tempo color
2 13 10;
#X connect 0 0 4 1;
#X connect 1 0 2 1;
#X connect 2 0 1 0;
#X connect 2 0 18 0;
#X connect 2 0 29 0;
#X connect 3 0 0 0;
#X connect 4 0 2 0;
#X connect 5 0 14 0;
#X connect 5 0 16 0;
#X connect 5 0 19 0;
#X connect 6 0 8 0;
#X connect 7 0 2 0;
#X connect 8 0 4 0;
#X connect 8 0 5 0;
#X connect 9 0 10 0;
#X connect 10 0 11 0;
#X connect 11 0 6 0;
#X connect 11 1 8 1;
#X connect 11 1 12 0;
#X connect 12 1 4 0;
#X connect 13 0 28 0;
#X connect 14 0 2 1;
#X connect 15 0 17 0;
#X connect 15 0 26 0;
#X connect 15 1 7 0;
#X connect 15 2 13 0;
#X connect 17 0 14 0;
#X connect 17 0 16 0;
#X connect 17 0 19 0;
#X connect 18 0 14 0;
#X connect 20 0 30 0;
#X connect 21 0 22 0;
#X connect 21 1 20 0;
#X connect 22 0 31 0;
#X connect 23 0 9 0;
#X connect 24 0 6 0;
#X connect 25 0 3 0;
#X connect 27 0 13 1;
#X connect 27 0 7 1;
#X connect 27 0 21 0;
#X restore 212 69 pd clock;
#N canvas 2 102 946 700 activity 0;
#X obj 583 184 zexy/listfind;
#X msg 583 162 1;
#X obj 459 156 tabread \$0-activity;
#X obj 495 244 route float bang;
#X obj 610 280 f;
#X obj 639 280 + 1;
#X obj 625 258 f;
#X obj 471 319 pdmus/add2list prepend;
#X obj 471 361 list length;
#X obj 471 340 t l l;
#X obj 477 449 list;
#X obj 471 404 ==;
#X obj 476 428 sel 1;
#X obj 477 471 sort;
#X obj 459 180 t f f;
#X obj 471 297 f;
#X obj 495 266 t b;
#X obj 432 55 t f b b;
#X obj 583 140 t b b b;
#X obj 477 600 zexy/listfind;
#X obj 477 622 route float;
#X obj 230 112 *;
#X obj 230 85 t b f;
#X obj 230 155 int;
#X floatatom 260 176 5 0 0 0 - - -, f 5;
#X obj 705 399 t b l;
#X obj 624 425 f;
#X obj 624 496 list;
#X obj 756 614 list prepend;
#X obj 624 447 t b f;
#N canvas 431 50 495 459 activity 0;
#N canvas 0 50 450 300 (subpatch) 0;
#X array \$0-activity 32 float 1;
#A 0 0 16 8 24 4 20 12 28 1 17 9 25 5 21 13 29 2 18 10 26 6 22 14 30
3 19 11 27 7 23 15 31;
#X coords 0 32 31 0 400 140 1 0 0;
#X restore 14 -37 graph;
#X text 11 103 descendientemente \, por compás;
#X msg 14 128 0 16 1 17 2 18 3 19 4 20 5 21 6 22 7 23 8 24 9 25 10
26 11 27 12 28 13 29 14 30 15 31;
#X msg 48 271 22 20 6 4 30 28 14 12 26 24 21 10 23 8 5 18 7 16 29 2
31 0 13 15 25 27 9 11 17 19 1 3;
#X text 46 248 from daniel1;
#X msg 59 329 3 1 19 17 11 9 27 25 15 13 0 31 2 29 16 7 18 5 8 23 10
21 24 26 12 14 28 30 4 6 20 22;
#X text 56 308 from daniel-inverse;
#X text 31 193 descendientemente \, por subtiempos débiles;
#X msg 24 216 0 16 8 24 4 20 12 28 1 17 9 25 5 21 13 29 2 18 10 26
6 22 14 30 3 19 11 27 7 23 15 31;
#X obj 14 375 zexy/tabset \$0-activity;
#X connect 2 0 9 0;
#X connect 3 0 9 0;
#X connect 5 0 9 0;
#X connect 8 0 9 0;
#X restore 41 430 pd activity table order;
#X obj 477 494 t b l;
#X msg 477 516 32;
#X obj 477 568 t f f;
#X obj 705 378 list;
#X obj 705 332 t b f;
#X floatatom 268 85 5 0 0 0 - - -, f 5;
#X text 272 134 number of chords;
#X floatatom 339 87 5 0 0 0 - - -, f 5;
#X obj 230 198 change;
#X obj 663 15 t l l l;
#X obj 663 94 spigot;
#X obj 696 73 == 0;
#X obj 21 150 random 2;
#X obj 21 174 sel 0;
#X msg 21 198 -1;
#X obj 21 128 t b;
#X obj 21 226 pdmus/add2list prepend;
#X msg 114 204 0;
#X msg 50 27 16;
#X obj 50 96 sel 0;
#X obj 21 276 list;
#X obj 151 217 sel;
#X obj 166 196 - 1;
#X obj 50 50 t f f;
#N canvas 0 50 450 278 (subpatch) 0;
#X array \$0-r-voicing 16 float 3;
#A 0 0 1 1 -1 1 -1 -1 1 1 -1 1 -1 1 1 1 1;
#X coords 0 1.1 16 -1.1 100 70 1 0 0;
#X restore 34 341 graph;
#X text 83 28 GET NEW RANDOM DISTRIBUTION;
#X obj 230 220 + 1;
#X floatatom 238 243 5 0 0 0 - - -, f 5;
#X obj 432 103 t f f;
#X obj 412 129 + 16;
#X obj 230 134 * 0.4;
#X msg 353 472 0 16 24;
#X obj 353 542 moses 16;
#X obj 696 49 list-abs/list-compare;
#X obj 353 516 pdmus/list-dripv;
#X obj 651 471 pdmus/chord-foldover;
#X obj 495 219 zexy/listfind;
#X obj 432 80 pdmus/forloop;
#X obj 477 539 pdmus/forloop;
#X obj 50 72 pdmus/forloop;
#X obj 243 386 vsl 24 180 0 1 0 0 \$0-raw-activity \$0-set-activity
activity -8 -12 1 12 -66577 -258113 -228856 0 1;
#X obj 269 561 bng 8 250 50 0 learn-activity --- empty 17 7 0 10 -258113
-1 -1;
#X obj 756 655 s \$0-chord-variations;
#X obj 628 162 zexy/tabdump \$0-new-onsets;
#X obj 726 355 cyclone/coll \$0-one;
#C restore;
#X obj 258 21 r \$0-density;
#X obj 230 58 r \$0-activity;
#X obj 21 298 zexy/tabset \$0-r-voicing;
#X obj 229 265 s \$0-voice-changes;
#X obj 604 210 print \$0-onset-positions;
#X obj 635 233 r \$0-voice-changes;
#X obj 486 382 r \$0-voice-changes;
#X obj 477 644 tabread \$0-r-voicing;
#X msg 178 545 3 18;
#X obj 72 567 maxlib/scale 0 127 0 1;
#X obj 72 504 r \$0-learn-activity;
#X obj 72 608 s \$0-set-activity;
#X obj 72 545 pdmus/midi-learn;
#X connect 0 0 67 1;
#X connect 0 0 80 0;
#X connect 1 0 0 0;
#X connect 2 0 14 0;
#X connect 3 0 16 0;
#X connect 3 1 4 0;
#X connect 4 0 5 0;
#X connect 4 0 2 0;
#X connect 5 0 4 1;
#X connect 6 0 4 1;
#X connect 7 0 9 0;
#X connect 8 0 11 0;
#X connect 9 0 8 0;
#X connect 9 1 10 1;
#X connect 10 0 13 0;
#X connect 11 0 12 0;
#X connect 12 0 10 0;
#X connect 13 0 31 0;
#X connect 13 0 65 0;
#X connect 14 0 67 0;
#X connect 14 1 15 1;
#X connect 15 0 7 0;
#X connect 16 0 15 0;
#X connect 17 0 68 0;
#X connect 17 1 6 0;
#X connect 17 2 18 0;
#X connect 18 0 1 0;
#X connect 18 1 7 1;
#X connect 18 2 74 0;
#X connect 19 0 20 0;
#X connect 20 0 83 0;
#X connect 21 0 61 0;
#X connect 22 0 21 0;
#X connect 22 1 21 1;
#X connect 23 0 24 0;
#X connect 23 0 39 0;
#X connect 25 0 26 0;
#X connect 25 1 66 1;
#X connect 26 0 29 0;
#X connect 27 0 28 0;
#X connect 29 0 27 0;
#X connect 29 1 66 0;
#X connect 31 0 32 0;
#X connect 31 1 19 1;
#X connect 32 0 69 0;
#X connect 33 0 19 0;
#X connect 34 0 25 0;
#X connect 35 0 34 0;
#X connect 35 1 28 1;
#X connect 35 1 75 0;
#X connect 38 0 21 0;
#X connect 39 0 57 0;
#X connect 40 0 41 0;
#X connect 40 1 64 1;
#X connect 40 2 64 0;
#X connect 42 0 41 1;
#X connect 43 0 44 0;
#X connect 44 0 45 0;
#X connect 44 1 47 0;
#X connect 45 0 47 0;
#X connect 46 0 43 0;
#X connect 47 0 51 1;
#X connect 48 0 47 1;
#X connect 49 0 54 0;
#X connect 50 0 48 0;
#X connect 50 1 46 0;
#X connect 50 1 52 0;
#X connect 51 0 78 0;
#X connect 52 0 51 0;
#X connect 53 0 52 1;
#X connect 54 0 70 0;
#X connect 54 1 53 0;
#X connect 57 0 17 0;
#X connect 57 0 58 0;
#X connect 57 0 79 0;
#X connect 59 0 60 0;
#X connect 59 1 2 0;
#X connect 60 0 2 0;
#X connect 61 0 23 0;
#X connect 62 0 65 0;
#X connect 64 0 42 0;
#X connect 65 0 63 0;
#X connect 66 0 27 1;
#X connect 67 0 3 0;
#X connect 68 0 59 0;
#X connect 69 0 33 0;
#X connect 70 0 50 0;
#X connect 74 0 0 1;
#X connect 75 0 34 1;
#X connect 77 0 22 0;
#X connect 77 0 36 0;
#X connect 81 0 6 0;
#X connect 82 0 11 1;
#X connect 83 0 26 1;
#X connect 84 0 88 1;
#X connect 86 0 88 0;
#X connect 88 0 85 0;
#X connect 88 1 84 0;
#X restore 212 209 pd activity;
#X text 10 281 TO DO's:;
#X text 9 335 rethink chord-substitution and expansion.;
#X text 9 355 circular visualization?? processing??;
#X text 9 375 add colors to chord height... (brigthness) and range.
;
#X text 10 298 density bug cuando llega a 15 hace 16;
#X text 9 315 legato does not always visualize correctly.;
#N canvas 3 89 263 490 loadbangs 0;
#X obj 15 9 loadbang;
#X obj 15 91 f \$0;
#X obj 15 70 t b a, f 11;
#X obj 15 51 zexy/list2symbol;
#X msg 15 30 HOUSE HARMONIC FILLER;
#X obj 15 112 list append;
#X msg 15 132 \; \$1-title label \$2 \; \$1-title label_pos 20 18 \;
\$1-title label_font 3 20 \; \$1-title vis_size 800 425 \; \$1-title
color 11 13 \; \$1-list-of-files bgcolour #808080 \; \$1-list-of-files
name chord-seq \; \$1-set-chords-octave 3 \; \$1-set-register set 0
\; \$1-set-tempo 125 \; \$1-set-bass-duration 12 \; \$1-set-bass-octave
2 \; \$1-set-clock-mode 1 \; \$1-set-keyfifths set 6.5 \; \$1-set-keyseconds
set 6.5;
#X connect 0 0 4 0;
#X connect 1 0 5 0;
#X connect 2 0 1 0;
#X connect 2 1 5 1;
#X connect 3 0 2 0;
#X connect 4 0 3 0;
#X connect 5 0 6 0;
#X restore 211 29 pd loadbangs;
#N canvas 24 23 1206 729 get-chord-progression 0;
#X obj 11 9 inlet;
#X obj 380 51 unpack 0 0 0 0;
#X obj 380 94 /;
#X obj 434 95 != 0;
#X obj 380 115 * 4;
#X obj 661 241 route;
#X obj 661 219 t l f, f 8;
#X obj 380 137 pack, f 9;
#X obj 11 30 t l l, f 62;
#X msg 380 185 \$2 \$1;
#X obj 11 609 outlet;
#X obj 380 607 outlet;
#X obj 11 52 pdmus/chord-make;
#X obj 38 96 pdmus/chord-estimate;
#X obj 380 158 pdmus/change-any;
#X obj 77 257 list prepend;
#X obj 77 310 list2symbol, f 15;
#X obj 155 119 t f f;
#X obj 155 182 -, f 5;
#X obj 155 214 mod 12;
#X obj 11 73 t l l;
#X obj 239 182 * -1;
#X text 426 609 onset position;
#X obj 164 269 loadbang;
#X msg 164 289 symbol;
#N canvas 353 435 416 248 pc2degrees 0;
#X obj 9 10 inlet;
#X obj 9 31 sel 0 1 2 3 4 5 6 7 8 9 10 11, f 64;
#X msg 9 64 I;
#X msg 40 64 bII;
#X msg 72 64 II;
#X msg 100 64 bIII;
#X msg 136 64 III;
#X msg 167 64 IV;
#X msg 231 64 V;
#X msg 263 64 bVI;
#X msg 294 64 VI;
#X msg 326 64 bVII;
#X msg 199 64 #IV;
#X obj 9 198 symbol;
#X obj 9 220 outlet;
#X msg 368 64 VII;
#X connect 0 0 1 0;
#X connect 1 0 2 0;
#X connect 1 1 3 0;
#X connect 1 2 4 0;
#X connect 1 3 5 0;
#X connect 1 4 6 0;
#X connect 1 5 7 0;
#X connect 1 6 12 0;
#X connect 1 7 8 0;
#X connect 1 8 9 0;
#X connect 1 9 10 0;
#X connect 1 10 11 0;
#X connect 1 11 15 0;
#X connect 2 0 13 0;
#X connect 3 0 13 0;
#X connect 4 0 13 0;
#X connect 5 0 13 0;
#X connect 6 0 13 0;
#X connect 7 0 13 0;
#X connect 8 0 13 0;
#X connect 9 0 13 0;
#X connect 10 0 13 0;
#X connect 11 0 13 0;
#X connect 12 0 13 0;
#X connect 13 0 14 0;
#X connect 15 0 13 0;
#X restore 155 235 pd pc2degrees;
#X obj 182 161 t f f, f 10;
#X obj 11 421 t l l, f 21;
#X obj 134 567 * -12;
#X obj 11 398 pdmus/chord-transpose, f 38;
#X obj 11 587 pdmus/chord-transpose;
#X msg 52 76 bang;
#X text 133 53 there was a zexy sort;
#X obj 134 483 pdmus/list-sum;
#X obj 134 442 add2list prepend;
#X obj 134 462 t l l, f 16;
#X obj 227 483 list length;
#X obj 134 504 /, f 16;
#X obj 134 526 int;
#X obj 134 546 div 12;
#X obj 249 265 pack, f 19;
#X obj 249 221 - 5;
#X obj 249 243 mod 12;
#X obj 395 72 r \$0-ticks/4;
#X obj 245 119 r \$0-reset-analysis;
#X obj 249 286 tabwrite \$0-bassseq;
#X obj 661 264 tabwrite \$0-master-pattern;
#X obj 182 140 pdmus/oncev;
#X obj 77 354 pack s f, f 48;
#X text 57 609 basic chord structure;
#X text 655 170 there should be a different analysis here for the rhythmic
patterns! or for now... just use markov!;
#X text 520 171 desde aquí mismo;
#N canvas 0 23 298 454 display-chord-names 0;
#X obj 50 13 inlet;
#X obj 77 58 f 0;
#X obj 107 58 + 1;
#X obj 50 123 s, f 5;
#X obj 77 101 makefilename \$0-chordname-%d;
#X obj 77 79 mod 8;
#X text 95 124 chord \, step;
#X obj 50 34 t a b;
#X text 46 170 quantize to quaver;
#X connect 0 0 7 0;
#X connect 1 0 2 0;
#X connect 1 0 5 0;
#X connect 2 0 1 1;
#X connect 4 0 3 1;
#X connect 5 0 4 0;
#X connect 7 0 3 0;
#X connect 7 1 1 0;
#X restore 77 375 pd display-chord-names;
#X obj 77 331 pdmus/list-change;
#X obj 380 205 route 1;
#X connect 0 0 8 0;
#X connect 1 0 2 0;
#X connect 1 2 3 0;
#X connect 2 0 4 0;
#X connect 3 0 7 1;
#X connect 4 0 7 0;
#X connect 5 0 46 0;
#X connect 6 0 5 0;
#X connect 6 1 5 1;
#X connect 6 1 46 1;
#X connect 7 0 14 0;
#X connect 8 0 12 0;
#X connect 8 1 1 0;
#X connect 9 0 54 0;
#X connect 12 0 20 0;
#X connect 13 1 15 0;
#X connect 13 3 17 0;
#X connect 14 0 6 0;
#X connect 14 0 9 0;
#X connect 15 0 16 0;
#X connect 16 0 53 0;
#X connect 17 0 18 0;
#X connect 17 1 47 0;
#X connect 18 0 19 0;
#X connect 18 0 41 0;
#X connect 19 0 25 0;
#X connect 20 0 29 0;
#X connect 20 1 13 0;
#X connect 21 0 29 1;
#X connect 23 0 24 0;
#X connect 24 0 16 1;
#X connect 25 0 15 1;
#X connect 26 0 18 1;
#X connect 26 1 21 0;
#X connect 27 0 30 0;
#X connect 27 1 34 0;
#X connect 28 0 30 1;
#X connect 29 0 27 0;
#X connect 30 0 10 0;
#X connect 31 0 13 0;
#X connect 33 0 37 0;
#X connect 34 0 35 0;
#X connect 35 0 33 0;
#X connect 35 1 36 0;
#X connect 36 0 37 1;
#X connect 37 0 38 0;
#X connect 38 0 39 0;
#X connect 39 0 28 0;
#X connect 40 0 45 0;
#X connect 41 0 42 0;
#X connect 42 0 40 0;
#X connect 43 0 2 1;
#X connect 44 0 47 1;
#X connect 47 0 26 0;
#X connect 48 0 52 0;
#X connect 53 0 48 0;
#X connect 54 0 11 0;
#X connect 54 0 40 1;
#X connect 54 0 48 1;
#X restore 211 129 pd get-chord-progression;
#N canvas 11 115 844 476 make-chord-variations 0;
#X msg 330 92 clear;
#X obj 319 28 inlet;
#X obj 388 28 inlet;
#X obj 319 48 list prepend;
#X obj 124 368 list, f 39;
#X obj 91 167 sel -1;
#X text 173 346 velocity;
#X obj 160 216 +;
#X obj 160 237 sel 2;
#X text 6 243 -1 does nothing...;
#X text 18 262 0 silences what was sounding, f 16;
#X text 12 196 1 activates (and first mutes the previous chord), f
17;
#X obj 385 390 list split 1;
#X obj 358 348 t l l;
#X obj 124 390 pdmus/list-dripv;
#X obj 385 369 zexy/sort;
#X text 405 49 listas con onset-step y notas del acorde;
#X obj 499 240 - 8;
#X obj 499 260 abs;
#X obj 499 281 * 12;
#X obj 358 327 pdmus/chord-transpose 60;
#X obj 535 283 t b f, f 10;
#X obj 499 307 +, f 16;
#X text 612 91 we use the argumentation by Tagg to take the first chord
of the shuttle as "tonic." According to this... it should be quite
easy to obtain the tonic of the shuttle., f 30;
#X text 317 9 chord;
#X text 386 10 onset position.;
#X obj 319 250 pdmus/chord-foldover;
#X obj 91 40 t f f f, f 34;
#X obj 319 206 f;
#X obj 319 165 t b l, f 20;
#X obj 223 305 list prepend;
#X obj 319 272 t l l, f 7;
#X obj 319 228 clip -1 1;
#X obj 160 258 pdmus/midi-panic-ch 2;
#X obj 15 411 midi2note;
#X obj 15 433 s \$0-actual-chord;
#X obj 91 18 r \$0-current-step;
#X obj 330 71 r \$0-reset-analysis;
#X obj 336 118 r \$0-chord-variations;
#X obj 334 186 r \$0-register;
#X obj 499 220 r \$0-chords-octave;
#X obj 223 327 s \$0-chord-variations;
#X obj 385 411 s \$0-bass;
#X obj 535 260 r \$0-key;
#X obj 91 147 tabread \$0-slave-pattern;
#X obj 319 143 cyclone/coll \$0-one;
#C restore;
#X obj 124 433 noteout 2;
#X obj 141 346 * 80;
#X obj 124 187 t b f f f;
#X obj 124 411 pack 0 0 2;
#X connect 0 0 45 0;
#X connect 1 0 3 0;
#X connect 2 0 3 1;
#X connect 3 0 45 0;
#X connect 4 0 14 0;
#X connect 4 0 34 0;
#X connect 5 1 48 0;
#X connect 7 0 8 0;
#X connect 8 0 33 0;
#X connect 12 0 42 0;
#X connect 13 0 4 1;
#X connect 13 1 15 0;
#X connect 14 0 49 0;
#X connect 15 0 12 0;
#X connect 17 0 18 0;
#X connect 18 0 19 0;
#X connect 19 0 22 0;
#X connect 20 0 13 0;
#X connect 21 0 22 0;
#X connect 21 1 22 1;
#X connect 22 0 20 1;
#X connect 26 0 31 0;
#X connect 27 0 44 0;
#X connect 27 1 45 0;
#X connect 27 2 30 1;
#X connect 28 0 32 0;
#X connect 29 0 28 0;
#X connect 29 1 26 1;
#X connect 30 0 41 0;
#X connect 31 0 30 0;
#X connect 31 1 20 0;
#X connect 32 0 26 0;
#X connect 34 0 35 0;
#X connect 36 0 27 0;
#X connect 37 0 0 0;
#X connect 38 0 45 0;
#X connect 39 0 28 1;
#X connect 40 0 17 0;
#X connect 43 0 21 0;
#X connect 44 0 5 0;
#X connect 45 0 29 0;
#X connect 47 0 49 1;
#X connect 48 0 4 0;
#X connect 48 1 47 0;
#X connect 48 2 7 1;
#X connect 48 3 7 0;
#X connect 49 0 46 0;
#X restore 211 149 pd make-chord-variations;
#N canvas 837 432 276 275 reset 0;
#X obj 8 27 \$0;
#X obj 8 7 r \$0-reset-analysis;
#X obj 8 179 pdmus/forloop;
#X obj 8 200 pack 0 \$0;
#X msg 8 222 8 \; \$2-chordname-\$1 | 66 \;;
#X obj 28 99 pdmus/forloop;
#X obj 28 120 pack 0 \$0;
#X msg 28 142 8 \; \$2-master-chord-fill-\$1 66 0 \;;
#X msg 8 47 8 \; \$1-bassseq const -1 \; \$1-set-range 0 \;;
#X connect 0 0 8 0;
#X connect 1 0 0 0;
#X connect 2 0 3 0;
#X connect 3 0 4 0;
#X connect 5 0 6 0;
#X connect 6 0 7 0;
#X connect 8 0 2 0;
#X restore 211 49 pd reset;
#N canvas 2 89 867 516 bass 0;
#X obj 537 432 poly 1 1, f 24;
#X obj 607 454 noteout 1, f 24;
#N canvas 0 50 691 699 salience 0;
#X obj 24 17 inlet;
#X obj 40 128 list split 1;
#X obj 110 188 list split 1;
#X obj 68 211 == 1;
#X obj 102 211 == 0;
#X obj 68 235 &&;
#X obj 104 168 list;
#X obj 41 151 t b f;
#X obj 103 77 list split 1;
#X obj 40 104 list append;
#X obj 147 395 list;
#X obj 23 459 list;
#X obj 69 395 list prepend;
#X obj 23 527 list split 1;
#X msg 240 181 bang;
#X obj 128 493 list length;
#X obj 23 476 t a a;
#X obj 128 510 - 1;
#X obj 125 301 f;
#X obj 160 300 + 1;
#X msg 352 162 0;
#X obj 23 37 t b a a b b, f 25;
#X msg 125 282 bang;
#X obj 68 265 t f f;
#N canvas 0 50 450 300 (subpatch) 0;
#X array \$0-salience 16 float 1;
#A 0 -1 4 -3 6 -6 0.5 -6.5 1 -6 0.5 -6.5 1 -4 1.5 -5.5 3;
#X coords 0 4 15 -4 200 140 1 0 0;
#X restore 438 126 graph;
#X msg 365 332 \; salience 0 4 -1 1 -2 2 -1 1 -3 3 -1 1 -2 2 -1 1 -4
;
#X obj 68 336 *;
#X obj 69 375 int;
#X obj 23 581 outlet;
#X text 290 33 find the salient notes of a rhythmic phrase;
#X obj 68 356 * -1;
#X obj 244 541 outlet;
#X text 28 598 todos;
#X text 225 558 solo positivos;
#X text 224 572 (syncopations);
#X obj 451 537 outlet;
#X text 432 554 solo negativos;
#X text 434 572 (reinforcements);
#X obj 351 426 list;
#X obj 244 445 list;
#X obj 265 426 list prepend;
#X obj 244 515 list split 1;
#X obj 349 481 list length;
#X obj 244 464 t a a;
#X obj 349 498 - 1;
#X obj 265 393 moses 0;
#X obj 23 428 t b b b;
#X msg 225 407 0;
#X obj 125 319 tabread \$0-salience;
#X connect 0 0 21 0;
#X connect 1 0 7 0;
#X connect 1 1 2 0;
#X connect 1 1 6 1;
#X connect 2 0 4 0;
#X connect 3 0 5 0;
#X connect 4 0 5 1;
#X connect 5 0 23 0;
#X connect 6 0 1 0;
#X connect 7 0 6 0;
#X connect 7 1 3 0;
#X connect 8 0 9 1;
#X connect 9 0 1 0;
#X connect 10 0 12 1;
#X connect 11 0 16 0;
#X connect 12 0 10 0;
#X connect 12 0 11 1;
#X connect 13 0 28 0;
#X connect 14 0 12 1;
#X connect 14 0 40 1;
#X connect 15 0 17 0;
#X connect 16 0 13 0;
#X connect 16 1 15 0;
#X connect 17 0 13 1;
#X connect 18 0 19 0;
#X connect 18 0 48 0;
#X connect 19 0 18 1;
#X connect 20 0 18 1;
#X connect 21 0 46 0;
#X connect 21 1 9 0;
#X connect 21 2 8 0;
#X connect 21 3 14 0;
#X connect 21 4 20 0;
#X connect 22 0 18 0;
#X connect 23 0 26 0;
#X connect 23 1 22 0;
#X connect 26 0 30 0;
#X connect 27 0 12 0;
#X connect 27 0 45 0;
#X connect 30 0 27 0;
#X connect 38 0 40 1;
#X connect 39 0 43 0;
#X connect 40 0 38 0;
#X connect 40 0 39 1;
#X connect 41 0 31 0;
#X connect 42 0 44 0;
#X connect 43 0 41 0;
#X connect 43 1 42 0;
#X connect 44 0 41 1;
#X connect 45 0 47 0;
#X connect 45 1 40 0;
#X connect 46 0 11 0;
#X connect 46 1 39 0;
#X connect 47 0 40 0;
#X connect 48 0 26 1;
#X restore 17 337 pd salience;
#N canvas 264 140 857 503 calculate 0;
#X obj 334 173 list split 1;
#X obj 334 194 t b a;
#X obj 377 212 list;
#X obj 420 258 f;
#X obj 442 258 + 1;
#X msg 436 169 0;
#X obj 366 241 t f b;
#X obj 350 283 sel 0;
#X obj 474 279 t f f;
#X obj 378 327 +;
#X obj 231 87 t b a b b;
#X obj 214 263 t f f;
#X obj 232 50 inlet;
#X text 431 16 use the values of the most salien notes and the values
of the L profile and set an experimental velocity value for the notes.
This highlights the accents (theoretical) plus the syncopations found
on the pattern.;
#X obj 58 415 t f f;
#X obj 126 170 t b b b;
#X obj 58 456 pow;
#X obj 506 404 inlet;
#X obj 214 304 + 2;
#X obj 506 424 t b f;
#X obj 58 394 pdmus/forloop;
#X obj 214 240 pdmus/forloop;
#X msg 58 373 16;
#X msg 214 211 16;
#X msg 373 105 \; \$1-vel 0 2 0 1 0 2 0 1 0 2 0 1 0 2 0 1 0;
#X obj 373 82 \$0;
#X obj 555 218 table \$0-vel 16;
#X obj 393 306 tabread \$0-vel;
#X obj 378 351 tabwrite \$0-vel;
#X obj 58 476 tabwrite \$0-velocity;
#X obj 59 435 tabread \$0-vel;
#X obj 145 317 \$0;
#X obj 214 324 tabwrite \$0-vel;
#X obj 214 283 tabread \$0-vel;
#X msg 145 347 \; \$1-vel normalize 1;
#X connect 0 0 1 0;
#X connect 0 1 2 1;
#X connect 1 0 2 0;
#X connect 1 1 6 0;
#X connect 2 0 0 0;
#X connect 3 0 4 0;
#X connect 3 0 8 0;
#X connect 4 0 3 1;
#X connect 5 0 3 1;
#X connect 6 0 7 0;
#X connect 6 1 3 0;
#X connect 7 1 9 0;
#X connect 8 0 27 0;
#X connect 8 1 28 1;
#X connect 9 0 28 0;
#X connect 10 0 15 0;
#X connect 10 1 0 0;
#X connect 10 2 5 0;
#X connect 10 2 2 1;
#X connect 10 3 25 0;
#X connect 11 0 33 0;
#X connect 11 1 32 1;
#X connect 12 0 10 0;
#X connect 14 0 30 0;
#X connect 14 1 29 1;
#X connect 15 0 22 0;
#X connect 15 1 31 0;
#X connect 15 2 23 0;
#X connect 16 0 29 0;
#X connect 17 0 19 0;
#X connect 18 0 32 0;
#X connect 19 0 22 0;
#X connect 19 1 16 1;
#X connect 20 0 14 0;
#X connect 21 0 11 0;
#X connect 22 0 20 0;
#X connect 23 0 21 0;
#X connect 25 0 24 0;
#X connect 27 0 9 1;
#X connect 30 0 16 0;
#X connect 31 0 34 0;
#X connect 33 0 18 0;
#X restore 48 361 pd calculate velocity;
#X obj 416 294 sel 1;
#X obj 416 234 t f f, f 18;
#X obj 416 317 f, f 18;
#X obj 416 385 f, f 38;
#X obj 416 360 t b f, f 32;
#X obj 678 280 * 4;
#X msg 678 301 60000 \$1;
#X obj 678 322 /;
#X obj 685 367 t b f;
#X obj 678 389 * 1, f 6;
#X obj 628 160 * 12;
#X obj 537 410 makenote 127 300, f 24;
#X obj 416 34 t f f f, f 50;
#X obj 597 203 + 24, f 6;
#X obj 628 138 abs;
#X obj 416 338 int;
#X obj 17 292 populate-rhythm64, f 44;
#X obj 628 118 - 3;
#X obj 628 183 + 12;
#X obj 521 254 mod 16;
#X obj 521 296 * 120;
#X obj 564 78 sel -1;
#X obj 597 98 +;
#X obj 641 255 + 0, f 4;
#X obj 597 224 + 5;
#X obj 736 143 t b f;
#X obj 736 119 * 12;
#X obj 736 98 mod 2;
#X obj 461 165 - 1;
#X obj 461 187 abs;
#X obj 416 210 spigot 1;
#X obj 17 171 r \$0-bass-density;
#X obj 166 315 table \$0-riddm 64;
#X obj 26 315 zexy/tabset \$0-riddm;
#X obj 171 338 r \$0-bass-velocity;
#X obj 188 361 table \$0-velocity 16;
#X obj 685 344 r \$0-bass-duration;
#X obj 678 258 r \$0-tempo;
#X obj 521 275 tabread \$0-velocity;
#X obj 628 98 r \$0-bass-octave;
#X obj 528 12 table \$0-bassseq 64;
#X obj 416 12 r \$0-current-step;
#X obj 416 273 tabread \$0-riddm;
#X obj 461 143 r \$0-mute-bass;
#X obj 564 56 tabread \$0-bassseq;
#X obj 612 79 r \$0-key;
#X obj 125 17 r lock-pattern;
#X obj 125 128 t l l;
#X obj 125 202 route, f 34;
#X obj 125 270 s \$0-set-bass-density;
#X obj 125 247 zexy/sum;
#X obj 125 225 t l l, f 26;
#X obj 299 39 r \$0-bass-lock;
#X obj 299 61 t b f;
#X obj 125 151 list, f 5;
#X obj 125 171 list prepend 1;
#X obj 195 39 r \$0-onsets-bass;
#X obj 195 151 list prepend 0;
#X obj 195 129 pdmus/listv;
#X obj 125 108 pdmus/listv;
#X connect 0 1 1 0;
#X connect 0 2 1 1;
#X connect 2 1 3 0;
#X connect 4 0 6 0;
#X connect 5 0 46 0;
#X connect 5 1 23 0;
#X connect 6 0 19 0;
#X connect 7 0 15 0;
#X connect 8 0 7 0;
#X connect 8 1 15 1;
#X connect 9 0 10 0;
#X connect 10 0 11 0;
#X connect 11 0 13 0;
#X connect 12 0 13 0;
#X connect 12 1 13 1;
#X connect 13 0 15 2;
#X connect 14 0 22 0;
#X connect 15 0 0 0;
#X connect 15 1 0 1;
#X connect 16 0 34 0;
#X connect 16 1 48 0;
#X connect 16 2 31 0;
#X connect 17 0 28 0;
#X connect 18 0 14 0;
#X connect 19 0 8 0;
#X connect 20 0 2 0;
#X connect 20 0 37 0;
#X connect 21 0 18 0;
#X connect 22 0 17 1;
#X connect 23 0 42 0;
#X connect 24 0 6 1;
#X connect 25 1 26 0;
#X connect 26 0 17 0;
#X connect 27 0 7 1;
#X connect 28 0 27 0;
#X connect 29 0 27 0;
#X connect 29 1 27 1;
#X connect 30 0 29 0;
#X connect 31 0 30 0;
#X connect 32 0 33 0;
#X connect 33 0 34 1;
#X connect 34 0 5 0;
#X connect 35 0 20 0;
#X connect 38 0 3 1;
#X connect 40 0 12 0;
#X connect 41 0 9 0;
#X connect 42 0 24 0;
#X connect 43 0 21 0;
#X connect 45 0 16 0;
#X connect 46 0 4 0;
#X connect 47 0 32 0;
#X connect 48 0 25 0;
#X connect 49 0 26 1;
#X connect 50 0 63 0;
#X connect 51 0 58 0;
#X connect 51 1 58 1;
#X connect 52 0 55 0;
#X connect 54 0 53 0;
#X connect 55 0 54 0;
#X connect 55 1 20 1;
#X connect 56 0 57 0;
#X connect 57 0 62 0;
#X connect 57 0 63 0;
#X connect 57 1 52 1;
#X connect 58 0 59 0;
#X connect 59 0 52 0;
#X connect 60 0 62 0;
#X connect 61 0 52 0;
#X connect 62 0 61 0;
#X connect 63 0 51 0;
#X restore 211 249 pd bass;
#X obj 211 9 declare -path abs;
#N canvas 3 50 709 465 range 0;
#X msg 97 138 dump;
#X obj 69 186 t b l;
#X obj 43 270 list prepend;
#X obj 74 62 -;
#X obj 59 33 t f f f;
#X obj 59 84 *;
#X obj 59 105 t b f;
#X obj 33 221 f;
#X text 21 318 sumar restar 12 a cada cambio;
#X text 21 338 en vez de calcular la distancia;
#X text 21 359 de octava;
#X obj 33 246 chord-range;
#X obj 59 9 r \$0-range;
#X obj 112 36 r \$0-set-range;
#X obj 43 291 s \$0-chord-variations;
#X obj 97 160 cyclone/coll \$0-one;
#C restore;
#X connect 0 0 15 0;
#X connect 1 0 7 0;
#X connect 1 1 11 1;
#X connect 2 0 14 0;
#X connect 3 0 5 1;
#X connect 4 0 5 0;
#X connect 4 1 3 1;
#X connect 4 2 3 0;
#X connect 5 0 6 0;
#X connect 6 0 0 0;
#X connect 6 1 7 1;
#X connect 7 0 11 0;
#X connect 11 0 2 0;
#X connect 12 0 4 0;
#X connect 13 0 3 1;
#X connect 15 0 1 0;
#X connect 15 1 2 1;
#X restore 211 229 pd range;
#X obj 11 449 s pd-\$0-house-harmonic-filler;
#X msg 11 428 save;
#X obj 11 407 r \$0-save-state;
#N canvas 0 50 780 598 gui-transport 0;
#X msg 144 46 59 17;
#X obj 36 67 != 0;
#X obj 36 88 change;
#X msg 144 241 58 17;
#X obj 36 261 != 0;
#X obj 36 282 change;
#X obj 36 110 sel 1;
#X obj 36 303 sel 1;
#X obj 9 5 r \$0-learn-scrollup;
#X obj 36 131 s \$0-set-scroll-up;
#X obj 9 198 r \$0-learn-scrolldown;
#X obj 36 325 s \$0-set-scroll-down;
#X obj 588 6 r \$0-learn-play;
#X obj 615 128 s \$0-set-play;
#X obj 9 219 t b f;
#X obj 9 347 s \$0-save-state;
#X obj 9 26 t b f;
#X obj 9 154 s \$0-save-state;
#X obj 588 27 t b f;
#X obj 588 149 s \$0-save-state;
#X msg 342 47 63 17;
#X obj 235 68 != 0;
#X obj 235 108 tgl 15 0 empty empty empty 17 7 0 10 -262144 -1 -1 0
1;
#X obj 235 88 sel 1;
#X obj 208 27 t b f;
#X obj 208 147 s \$0-save-state;
#X obj 235 126 s \$0-set-clock-mode;
#X obj 208 6 r \$0-learn-sync;
#X msg 142 452 9 17;
#X obj 9 410 r \$0-learn-key5;
#X obj 36 538 s \$0-set-keyfifths;
#X obj 9 431 t b f;
#X obj 9 561 s \$0-save-state;
#X msg 342 452 10 17;
#X obj 209 431 t b f;
#X obj 209 559 s \$0-save-state;
#X obj 209 410 r \$0-learn-key2;
#X obj 36 495 int;
#X obj 36 474 maxlib/scale 0 127 0 12;
#X obj 236 473 maxlib/scale 0 127 0 12;
#X obj 36 517 + 0.5;
#X obj 236 495 int;
#X obj 236 517 + 0.5;
#X obj 236 538 s \$0-set-keyseconds;
#X msg 722 48 64 17;
#X msg 541 49 8 17;
#X obj 408 6 r \$0-learn-tempo;
#X obj 435 91 s \$0-set-tempo;
#X obj 435 69 + 40;
#X obj 408 28 t b f;
#X obj 408 148 s \$0-save-state;
#X msg 480 342 1;
#X msg 511 342 -1;
#X obj 513 388 f 0;
#X obj 480 388 + 0;
#X obj 480 431 mod 25;
#X obj 480 298 r \$0-scroll-down;
#X obj 511 321 r \$0-scroll-up;
#X obj 513 366 r \$0-index;
#X obj 513 411 r \$0-files-in-folder;
#X obj 480 453 s \$0-list-of-files;
#X text 180 297 ----------------------------------------------->;
#X obj 615 69 != 0;
#X obj 615 109 tgl 15 0 empty empty empty 17 7 0 10 -262144 -1 -1 0
1;
#X obj 615 89 sel 1;
#X obj 36 46 pdmus/midi-learn;
#X obj 36 241 pdmus/midi-learn;
#X obj 235 47 pdmus/midi-learn;
#X obj 36 452 pdmus/midi-learn;
#X obj 236 452 pdmus/midi-learn;
#X obj 435 49 pdmus/midi-learn;
#X obj 615 48 pdmus/midi-learn;
#X connect 0 0 65 1;
#X connect 1 0 2 0;
#X connect 2 0 6 0;
#X connect 3 0 66 1;
#X connect 4 0 5 0;
#X connect 5 0 7 0;
#X connect 6 0 9 0;
#X connect 7 0 11 0;
#X connect 8 0 16 0;
#X connect 10 0 14 0;
#X connect 12 0 18 0;
#X connect 14 0 15 0;
#X connect 14 1 66 0;
#X connect 16 0 17 0;
#X connect 16 1 65 0;
#X connect 18 0 19 0;
#X connect 18 1 71 0;
#X connect 20 0 67 1;
#X connect 21 0 23 0;
#X connect 22 0 26 0;
#X connect 23 0 22 0;
#X connect 24 0 25 0;
#X connect 24 1 67 0;
#X connect 27 0 24 0;
#X connect 28 0 68 1;
#X connect 29 0 31 0;
#X connect 31 0 32 0;
#X connect 31 1 68 0;
#X connect 33 0 69 1;
#X connect 34 0 35 0;
#X connect 34 1 69 0;
#X connect 36 0 34 0;
#X connect 37 0 40 0;
#X connect 38 0 37 0;
#X connect 39 0 41 0;
#X connect 40 0 30 0;
#X connect 41 0 42 0;
#X connect 42 0 43 0;
#X connect 44 0 71 1;
#X connect 45 0 70 1;
#X connect 46 0 49 0;
#X connect 48 0 47 0;
#X connect 49 0 50 0;
#X connect 49 1 70 0;
#X connect 51 0 54 0;
#X connect 52 0 54 0;
#X connect 53 0 54 1;
#X connect 54 0 53 0;
#X connect 54 0 55 0;
#X connect 55 0 60 0;
#X connect 56 0 51 0;
#X connect 57 0 52 0;
#X connect 58 0 53 0;
#X connect 59 0 55 1;
#X connect 62 0 64 0;
#X connect 63 0 13 0;
#X connect 64 0 63 0;
#X connect 65 0 1 0;
#X connect 65 1 0 0;
#X connect 66 0 4 0;
#X connect 66 1 3 0;
#X connect 67 0 21 0;
#X connect 67 1 20 0;
#X connect 68 0 38 0;
#X connect 68 1 28 0;
#X connect 69 0 39 0;
#X connect 69 1 33 0;
#X connect 70 0 48 0;
#X connect 70 1 45 0;
#X connect 71 0 62 0;
#X connect 71 1 44 0;
#X restore 368 9 pd gui-transport;
#N canvas 35 50 1040 507 gui-chords 0;
#X msg 143 59 16 17;
#X obj 37 92 int, f 4;
#X msg 356 47 17 17;
#X obj 250 93 int;
#X msg 983 46 5 17;
#X obj 877 88 int;
#X obj 877 67 maxlib/scale 0 127 0 4;
#X obj 37 72 maxlib/scale 0 127 1 64;
#X obj 250 71 maxlib/scale 0 127 1 66;
#X obj 634 5 r \$0-learn-register;
#X obj 10 4 r \$0-learn-density;
#X obj 37 112 s \$0-set-density;
#X obj 223 4 r \$0-learn-legato;
#X obj 250 113 s \$0-set-legato;
#X obj 877 109 s \$0-set-range;
#X obj 10 28 t b f;
#X obj 10 134 s \$0-save-state;
#X obj 10 235 int;
#X obj 10 256 change;
#X obj 10 213 r \$0-raw-density;
#X obj 10 278 s \$0-density;
#X text 54 155 v v v, f 2;
#X obj 223 26 t b f;
#X obj 223 140 s \$0-save-state;
#X text 267 160 v v v, f 2;
#X obj 223 233 int;
#X obj 223 276 min 64;
#X obj 223 298 s \$0-legato;
#X obj 231 255 s \$0-force-legato;
#X obj 223 210 r \$0-raw-legato;
#X msg 560 46 18 17;
#X obj 427 25 t b f;
#X obj 427 177 s \$0-save-state;
#X obj 427 4 r \$0-learn-chords-octave;
#X obj 454 155 s \$0-set-chords-octave;
#X obj 454 110 int;
#X obj 454 132 - 1;
#X obj 454 66 maxlib/scale 0 127 8.5 0;
#X obj 454 90 + 0.5;
#X obj 851 236 int;
#X obj 851 257 change;
#X obj 633 310 == 0, f 10;
#X obj 633 331 sel 1;
#X obj 633 351 f, f 12;
#X obj 633 238 t f f f, f 20;
#X obj 633 394 line 0;
#X obj 750 429 int;
#X obj 750 450 change;
#X msg 643 265 clear;
#X obj 633 290 pipe 300;
#X msg 633 373 \$1 \, 0 300;
#X msg 633 447 set \$1;
#X obj 851 215 r \$0-raw-range;
#X obj 851 279 s \$0-range;
#X obj 633 217 r \$0-raw-register;
#X obj 750 472 s \$0-register;
#X obj 633 473 s \$0-set-register;
#X obj 850 4 r \$0-learn-range;
#X obj 850 25 t b f;
#X obj 850 131 s \$0-save-state;
#X msg 767 46 4 17;
#X obj 661 90 int;
#X obj 661 69 maxlib/scale 0 127 -6 6;
#X obj 661 110 s \$0-set-register;
#X obj 634 26 t b f;
#X obj 634 134 s \$0-save-state;
#X text 681 161 v v v, f 2;
#X text 891 161 v v v, f 2;
#X obj 37 49 pdmus/midi-learn;
#X obj 250 47 pdmus/midi-learn;
#X obj 877 46 pdmus/midi-learn;
#X obj 454 46 pdmus/midi-learn;
#X obj 661 46 pdmus/midi-learn;
#X connect 0 0 68 1;
#X connect 1 0 11 0;
#X connect 2 0 69 1;
#X connect 3 0 13 0;
#X connect 4 0 70 1;
#X connect 5 0 14 0;
#X connect 6 0 5 0;
#X connect 7 0 1 0;
#X connect 8 0 3 0;
#X connect 9 0 64 0;
#X connect 10 0 15 0;
#X connect 12 0 22 0;
#X connect 15 0 16 0;
#X connect 15 1 68 0;
#X connect 17 0 18 0;
#X connect 18 0 20 0;
#X connect 19 0 17 0;
#X connect 22 0 23 0;
#X connect 22 1 69 0;
#X connect 25 0 26 0;
#X connect 25 0 28 0;
#X connect 26 0 27 0;
#X connect 29 0 25 0;
#X connect 30 0 71 1;
#X connect 31 0 32 0;
#X connect 31 1 71 0;
#X connect 33 0 31 0;
#X connect 35 0 36 0;
#X connect 36 0 34 0;
#X connect 37 0 38 0;
#X connect 38 0 35 0;
#X connect 39 0 40 0;
#X connect 40 0 53 0;
#X connect 41 0 42 0;
#X connect 42 0 43 0;
#X connect 43 0 50 0;
#X connect 44 0 49 0;
#X connect 44 1 41 1;
#X connect 44 1 48 0;
#X connect 44 2 43 1;
#X connect 44 2 46 0;
#X connect 45 0 46 0;
#X connect 45 0 51 0;
#X connect 46 0 47 0;
#X connect 47 0 55 0;
#X connect 48 0 49 0;
#X connect 49 0 41 0;
#X connect 50 0 45 0;
#X connect 51 0 56 0;
#X connect 52 0 39 0;
#X connect 54 0 44 0;
#X connect 57 0 58 0;
#X connect 58 0 59 0;
#X connect 58 1 70 0;
#X connect 60 0 72 1;
#X connect 61 0 63 0;
#X connect 62 0 61 0;
#X connect 64 0 65 0;
#X connect 64 1 72 0;
#X connect 68 0 7 0;
#X connect 68 1 0 0;
#X connect 69 0 8 0;
#X connect 69 1 2 0;
#X connect 70 0 6 0;
#X connect 70 1 4 0;
#X connect 71 0 37 0;
#X connect 71 1 30 0;
#X connect 72 0 62 0;
#X connect 72 1 60 0;
#X restore 368 29 pd gui-chords;
#N canvas 0 50 844 618 gui-bass 0;
#X msg 144 56 12 17;
#X obj 38 99 int;
#X msg 551 56 14 17;
#X msg 344 57 13 17;
#X obj 238 79 maxlib/scale 0 127 0.2 16;
#X obj 38 78 maxlib/scale 0 127 0 64;
#X obj 445 77 maxlib/scale 0 127 0.125 1;
#X msg 759 56 16 17;
#X obj 653 77 / 64;
#X obj 653 97 int;
#X obj 653 117 change;
#X obj 11 13 r \$0-learn-bass-density;
#X obj 38 119 s \$0-set-bass-density;
#X obj 211 13 r \$0-learn-bass-duration;
#X obj 238 100 s \$0-set-bass-duration;
#X obj 418 13 r \$0-learn-bass-accents;
#X obj 445 98 s \$0-set-bass-velocity;
#X msg 759 429 15 17;
#X obj 626 408 t b f;
#X obj 626 571 s \$0-save-state;
#X obj 653 493 int;
#X obj 653 515 - 1;
#X obj 653 473 + 0.5;
#X obj 653 449 maxlib/scale 0 127 4.5 0;
#X obj 653 538 s \$0-set-bass-octave;
#X obj 626 387 r \$0-learn-bass-octave;
#X obj 626 35 t b f;
#X obj 626 161 s \$0-save-state;
#X obj 418 35 t b f;
#X obj 418 160 s \$0-save-state;
#X obj 211 35 t b f;
#X obj 211 160 s \$0-save-state;
#X obj 11 35 t b f;
#X obj 11 158 s \$0-save-state;
#X obj 626 13 r \$0-learn-mute-bass;
#X obj 653 138 s \$0-set-mute-bass;
#X msg 759 236 16 17;
#X obj 653 257 / 64;
#X obj 653 277 int;
#X obj 653 297 change;
#X obj 626 215 t b f;
#X obj 626 341 s \$0-save-state;
#X obj 626 193 r \$0-learn-lock-bass;
#X obj 653 318 s \$0-set-lock-bass;
#X obj 38 56 pdmus/midi-learn;
#X obj 445 56 pdmus/midi-learn;
#X obj 238 58 pdmus/midi-learn;
#X obj 653 56 pdmus/midi-learn;
#X obj 653 429 pdmus/midi-learn;
#X obj 653 236 pdmus/midi-learn;
#X connect 0 0 44 1;
#X connect 1 0 12 0;
#X connect 2 0 45 1;
#X connect 3 0 46 1;
#X connect 4 0 14 0;
#X connect 5 0 1 0;
#X connect 6 0 16 0;
#X connect 7 0 47 1;
#X connect 8 0 9 0;
#X connect 9 0 10 0;
#X connect 10 0 35 0;
#X connect 11 0 32 0;
#X connect 13 0 30 0;
#X connect 15 0 28 0;
#X connect 17 0 48 1;
#X connect 18 0 19 0;
#X connect 18 1 48 0;
#X connect 20 0 21 0;
#X connect 21 0 24 0;
#X connect 22 0 20 0;
#X connect 23 0 22 0;
#X connect 25 0 18 0;
#X connect 26 0 27 0;
#X connect 26 1 47 0;
#X connect 28 0 29 0;
#X connect 28 1 45 0;
#X connect 30 0 31 0;
#X connect 30 1 46 0;
#X connect 32 0 33 0;
#X connect 32 1 44 0;
#X connect 34 0 26 0;
#X connect 36 0 49 1;
#X connect 37 0 38 0;
#X connect 38 0 39 0;
#X connect 39 0 43 0;
#X connect 40 0 41 0;
#X connect 40 1 49 0;
#X connect 42 0 40 0;
#X connect 44 0 5 0;
#X connect 44 1 0 0;
#X connect 45 0 6 0;
#X connect 45 1 2 0;
#X connect 46 0 4 0;
#X connect 46 1 3 0;
#X connect 47 0 8 0;
#X connect 47 1 7 0;
#X connect 48 0 23 0;
#X connect 48 1 17 0;
#X connect 49 0 37 0;
#X connect 49 1 36 0;
#X restore 368 49 pd gui-bass;
#N canvas 11 31 1191 576 gui-sequence 0;
#X obj 10 30 div 4;
#X obj 10 51 change;
#X obj 10 93 + 25;
#X obj 10 72 * 100;
#X obj 52 395 until;
#X msg 52 418 next;
#X obj 52 471 t b p, f 6;
#X obj 263 141 pointer;
#X obj 193 25 bng 15 250 50 0 empty empty empty 17 7 0 10 -262144 -1
-1;
#X obj 275 226 * 25;
#X obj 275 248 + 25;
#X obj 369 226 mod 4;
#X obj 369 247 sel 0, f 6;
#X obj 402 270 t b;
#X obj 322 248 sel 0;
#X msg 322 269 900;
#X obj 322 226 mod 16;
#X msg 261 318 25;
#X msg 402 291 333;
#X msg 369 270 666;
#X obj 193 5 loadbang;
#X obj 228 204 t f f f f, f 24;
#X obj 228 226 sel 64;
#X msg 228 162 65;
#X obj 228 297 t b b, f 6;
#X obj 228 183 pdmus/forloop 0;
#X obj 228 362 pdmus/forloop;
#X obj 10 492 set \$0-beat x;
#X obj 52 450 pointer \$0-beat;
#X obj 193 43 \$0;
#X obj 263 162 s \$0-loadpointer;
#X obj 477 288 r \$0-loadpointer;
#X obj 315 448 append \$0-mchord0 x, f 25;
#X obj 315 405 pack 0 \$0;
#X obj 52 374 t b f, f 7;
#X obj 261 340 append \$0-beat x, f 30;
#X obj 292 318 append \$0-line pos color;
#N canvas 42 50 277 84 \$0-line 0;
#X obj 12 11 struct \$0-line float pos float color;
#X obj 12 34 drawpolygon color 1 pos 20 pos 100;
#X restore 604 5 pd \$0-line;
#N canvas 831 269 334 157 \$0-beat 0;
#X obj 7 35 drawpolygon 222 2 0 20 100 20;
#X obj 7 55 drawpolygon 222 2 0 100 100 100;
#X obj 6 11 struct \$0-beat float x;
#X restore 604 25 pd \$0-beat;
#X obj 10 6 r \$0-current-step;
#X msg 263 85 traverse pd-\$1-data \, bang;
#X msg 299 107 \; pd-\$1-data clear;
#X msg 91 420 traverse pd-\$1-data;
#X obj 193 63 t f b f f, f 18;
#X msg 228 318 65;
#X obj 228 383 sel 64, f 15;
#X obj 228 426 pdmus/forloop;
#X msg 228 406 8;
#X obj 228 447 pack 0 \$0;
#X obj 228 494 append \$0-chord0 x, f 42;
#X msg 228 471 set \$2-chord\$1 x \, 1800;
#X msg 315 427 set \$2-mchord\$1 x \, 100;
#X obj 901 484 chord-name 4 \$0;
#X obj 604 265 master-chord-structure 30 \$0;
#X obj 604 45 master-chord-structure 0 \$0;
#X obj 604 225 master-chord-structure 9 \$0;
#X obj 604 545 master-chord-structure 63 \$0;
#X obj 604 65 master-chord-structure 1 \$0;
#X obj 604 85 master-chord-structure 2 \$0;
#X obj 604 105 master-chord-structure 3 \$0;
#X obj 604 145 master-chord-structure 5 \$0;
#X obj 604 125 master-chord-structure 4 \$0;
#X obj 604 165 master-chord-structure 6 \$0;
#X obj 604 185 master-chord-structure 7 \$0;
#X obj 604 205 master-chord-structure 8 \$0;
#X obj 604 285 master-chord-structure 31 \$0;
#X obj 604 305 master-chord-structure 32 \$0;
#X obj 604 325 master-chord-structure 33 \$0;
#X obj 604 345 master-chord-structure 34 \$0;
#X obj 604 365 master-chord-structure 35 \$0;
#X obj 604 385 master-chord-structure 36 \$0;
#X obj 604 405 master-chord-structure 37 \$0;
#X obj 604 425 master-chord-structure 38 \$0;
#X obj 604 445 master-chord-structure 39 \$0;
#X obj 604 485 master-chord-structure 60 \$0;
#X obj 604 505 master-chord-structure 61 \$0;
#X obj 604 525 master-chord-structure 62 \$0;
#X obj 787 445 master-chord-structure 49 \$0;
#X obj 787 425 master-chord-structure 48 \$0;
#X obj 787 385 master-chord-structure 46 \$0;
#X obj 787 405 master-chord-structure 47 \$0;
#X obj 787 345 master-chord-structure 44 \$0;
#X obj 787 325 master-chord-structure 43 \$0;
#X obj 787 305 master-chord-structure 42 \$0;
#X obj 787 265 master-chord-structure 40 \$0;
#X obj 787 225 master-chord-structure 19 \$0;
#X obj 787 205 master-chord-structure 18 \$0;
#X obj 787 65 master-chord-structure 11 \$0;
#X obj 787 45 master-chord-structure 10 \$0;
#X obj 787 85 master-chord-structure 12 \$0;
#X obj 787 105 master-chord-structure 13 \$0;
#X obj 787 125 master-chord-structure 14 \$0;
#X obj 787 145 master-chord-structure 15 \$0;
#X obj 787 165 master-chord-structure 16 \$0;
#X obj 787 185 master-chord-structure 17 \$0;
#X obj 787 285 master-chord-structure 41 \$0;
#X obj 787 365 master-chord-structure 45 \$0;
#X obj 974 45 master-chord-structure 20 \$0;
#X obj 974 85 master-chord-structure 22 \$0;
#X obj 974 65 master-chord-structure 21 \$0;
#X obj 974 105 master-chord-structure 23 \$0;
#X obj 974 145 master-chord-structure 25 \$0;
#X obj 974 125 master-chord-structure 24 \$0;
#X obj 974 185 master-chord-structure 27 \$0;
#X obj 974 165 master-chord-structure 26 \$0;
#X obj 974 205 master-chord-structure 28 \$0;
#X obj 974 225 master-chord-structure 29 \$0;
#X obj 974 265 master-chord-structure 50 \$0;
#X obj 974 285 master-chord-structure 51 \$0;
#X obj 974 305 master-chord-structure 52 \$0;
#X obj 974 325 master-chord-structure 53 \$0;
#X obj 974 345 master-chord-structure 54 \$0;
#X obj 974 365 master-chord-structure 55 \$0;
#X obj 974 405 master-chord-structure 57 \$0;
#X obj 974 425 master-chord-structure 58 \$0;
#X obj 974 445 master-chord-structure 59 \$0;
#X obj 974 385 master-chord-structure 56 \$0;
#X obj 801 484 chord-name 0 \$0;
#X obj 801 504 chord-name 1 \$0;
#X obj 801 524 chord-name 2 \$0;
#X obj 801 544 chord-name 3 \$0;
#X obj 901 504 chord-name 5 \$0;
#X obj 901 524 chord-name 6 \$0;
#X obj 901 544 chord-name 7 \$0;
#X connect 0 0 1 0;
#X connect 1 0 3 0;
#X connect 2 0 27 0;
#X connect 3 0 2 0;
#X connect 4 0 5 0;
#X connect 5 0 28 0;
#X connect 6 0 4 1;
#X connect 6 1 27 1;
#X connect 7 0 30 0;
#X connect 8 0 29 0;
#X connect 9 0 10 0;
#X connect 10 0 36 0;
#X connect 11 0 12 0;
#X connect 12 0 19 0;
#X connect 12 1 13 0;
#X connect 13 0 18 0;
#X connect 14 0 15 0;
#X connect 15 0 36 1;
#X connect 16 0 14 0;
#X connect 17 0 35 0;
#X connect 18 0 36 1;
#X connect 19 0 36 1;
#X connect 20 0 8 0;
#X connect 21 0 22 0;
#X connect 21 1 9 0;
#X connect 21 2 16 0;
#X connect 21 3 11 0;
#X connect 22 0 24 0;
#X connect 23 0 25 0;
#X connect 24 0 44 0;
#X connect 24 1 17 0;
#X connect 25 0 21 0;
#X connect 26 0 45 0;
#X connect 28 0 6 0;
#X connect 29 0 43 0;
#X connect 31 0 32 1;
#X connect 31 0 35 1;
#X connect 31 0 36 2;
#X connect 31 0 49 1;
#X connect 33 0 51 0;
#X connect 34 0 4 0;
#X connect 34 1 42 0;
#X connect 39 0 0 0;
#X connect 40 0 7 0;
#X connect 41 0 7 0;
#X connect 42 0 28 0;
#X connect 43 0 34 0;
#X connect 43 1 23 0;
#X connect 43 2 40 0;
#X connect 43 3 41 0;
#X connect 44 0 26 0;
#X connect 45 0 47 0;
#X connect 45 1 33 0;
#X connect 46 0 48 0;
#X connect 47 0 46 0;
#X connect 48 0 50 0;
#X connect 50 0 49 0;
#X connect 51 0 32 0;
#X restore 368 69 pd gui-sequence;
#X text 285 209 do something!;
#N canvas 223 427 618 270 harmonic-rhythm 1;
#X obj 15 64 cyclone/coll ./patterns1.txt;
#C restore;
#X floatatom 15 17 5 0 0 0 - - -, f 5;
#X obj 15 90 zexy/repack 2;
#X obj 42 134 f 0;
#X obj 72 134 + 1;
#X obj 42 155 mod 64;
#X obj 42 180 makefilename \$0-master-chord-fill-%d;
#X obj 15 207 s;
#X text 47 206 chord \, onset \, duration.;
#X obj 15 112 t a b;
#X text 58 15 select a rhytmhmic pattern!;
#X obj 208 64 cyclone/coll ./patterns2.txt;
#C restore;
#X obj 208 86 pdmus/tabsetv \$0-master-pattern;
#X obj 402 84 pdmus/forloop;
#X obj 402 105 pack 0 \$0;
#X obj 15 40 t f f b, f 65;
#X msg 402 62 64;
#X msg 402 127 \; \$2-master-chord-fill-\$1 66 0 \;;
#X obj 313 178 \$0;
#X msg 313 199 \; \$1-master-pattern const -1 \; \$1-slave-pattern
const -1;
#X obj 324 142 bng 15 250 50 0 empty empty empty 17 7 0 10 -262144
-1 -1;
#X connect 0 0 2 0;
#X connect 1 0 15 0;
#X connect 2 0 9 0;
#X connect 3 0 4 0;
#X connect 3 0 5 0;
#X connect 4 0 3 1;
#X connect 5 0 6 0;
#X connect 6 0 7 1;
#X connect 9 0 7 0;
#X connect 9 1 3 0;
#X connect 11 0 12 0;
#X connect 13 0 14 0;
#X connect 14 0 17 0;
#X connect 15 0 0 0;
#X connect 15 1 11 0;
#X connect 15 2 16 0;
#X connect 16 0 13 0;
#X connect 18 0 19 0;
#X connect 20 0 18 0;
#X restore 366 129 pd harmonic-rhythm;
#X connect 1 0 16 0;
#X connect 16 0 17 0;
#X connect 16 1 17 1;
#X connect 23 0 22 0;
#X connect 24 0 23 0;
#X restore 748 -5 pd patch;
#X obj 0 -5 cnv 15 800 425 empty \$0-title HOUSE HARMONIC FILLER 20
18 0 20 -128992 -258699 0;
#X obj 19 83 bng 24 250 50 0 \$0-scroll-up \$0-set-scroll-up up 5 -10
1 12 -66577 -258113 -228856;
#X obj 45 99 bng 8 250 50 0 \$0-learn-scrollup --- empty 17 7 0 10
-258113 -1 -1;
#X obj 19 130 bng 24 250 50 0 \$0-scroll-down \$0-set-scroll-down down
-2 -8 1 12 -66577 -258113 -228856;
#X obj 45 146 bng 8 250 50 0 \$0-learn-scrolldown --- empty 17 7 0
10 -258113 -1 -1;
#X obj 261 38 cnv 15 250 5 empty empty CHORDS 5 12 0 20 -128992 -228856
0;
#X obj 279 85 vsl 24 180 1 64 0 1 \$0-raw-density \$0-set-density density
-8 -12 1 12 -66577 -258113 -228856 852 1;
#X obj 305 260 bng 8 250 50 0 \$0-learn-density --- empty 17 7 0 10
-258113 -1 -1;
#X obj 322 85 vsl 24 180 1 66 0 1 \$0-raw-legato \$0-set-legato legato
-6 -12 1 12 -66577 -258113 -228856 17349 0;
#X obj 412 85 vsl 24 180 -3 3 0 0 \$0-raw-register \$0-set-register
register -9 -12 1 12 -66577 -258113 -228856 8950 0 ;
#X obj 455 85 vsl 24 180 0 3.9 0 0 \$0-raw-range \$0-set-range spread
-5 -12 1 12 -66577 -258113 -228856 0 1;
#X obj 348 260 bng 8 250 50 0 \$0-learn-legato --- empty 17 7 0 10
-258113 -1 -1;
#X obj 481 260 bng 8 250 50 0 \$0-learn-range --- empty 17 7 0 10 -258113
-1 -1;
#X obj 438 260 bng 8 250 50 0 \$0-learn-register --- empty 17 7 0 10
-258113 -1 -1;
#X obj 602 36 cnv 15 100 20 empty empty BASS 5 12 0 20 -128992 -228856
0;
#X obj 616 85 vsl 24 180 0 64 0 0 \$0-bass-density \$0-set-bass-density
density -8 -12 1 12 -66577 -258113 -228856 0 1;
#X obj 659 85 vsl 24 180 0.2 16 0 0 \$0-bass-duration \$0-set-bass-duration
length -5 -12 1 12 -66577 -258113 -228856 13368 1;
#X obj 702 85 vsl 24 180 0.125 1 0 0 \$0-bass-velocity \$0-set-bass-velocity
accents -10 -12 1 12 -66577 -258113 -228856 0 1;
#X obj 745 172 vradio 24 1 0 4 \$0-bass-octave \$0-set-bass-octave
octave -6 -8 1 12 -66577 -258113 -228856 2;
#X obj 642 260 bng 8 250 50 0 \$0-learn-bass-density --- empty 17 7
0 10 -258113 -1 -1;
#X obj 685 260 bng 8 250 50 0 \$0-learn-bass-duration --- empty 17
7 0 10 -258113 -1 -1;
#X obj 728 260 bng 8 250 50 0 \$0-learn-bass-accents --- empty 17 7
0 10 -258113 -1 -1;
#X obj 771 260 bng 8 250 50 0 \$0-learn-bass-octave --- empty 17 7
0 10 -258113 -1 -1;
#X obj 75 83 tgl 24 0 \$0-clock-mode \$0-set-clock-mode ext-sync -7
-8 1 12 -66577 -258113 -228856 1 1;
#X obj 12 38 cnv 15 100 20 empty empty GENERAL 5 12 0 20 -128992 -228856
0;
#X obj 141 82 nbx 3 24 20 999.9 0 0 \$0-tempo \$0-set-tempo bpm 0 -8
1 12 -128992 -258699 -166441 125 256;
#X obj 186 98 bng 8 250 50 0 \$0-learn-tempo --- empty 17 7 0 10 -258113
-1 -1;
#X obj 101 99 bng 8 250 50 0 \$0-learn-sync --- empty 17 7 0 10 -258113
-1 -1;
#X obj 368 84 vradio 23 1 0 8 \$0-chords-octave \$0-set-chords-octave
octave -6 -10 1 12 -66577 -258113 -228856 3;
#X obj 393 260 bng 8 250 50 0 \$0-learn-chords-octave --- empty 17
7 0 10 -258113 -1 -1;
#N canvas 423 94 275 305 fifths 0;
#X obj 33 29 flatgui/knob 65 65 0.5 12.5 0 0 \$0-key-fifths \$0-set-keyfifths
key -20 -5 1 12 -258113 -258113 -228856 3200 1;
#X text 58 14 C;
#X text 77 18 G;
#X text 92 31 D;
#X text 42 20 F;
#X text 22 33 Bb;
#X text 16 50 Eb;
#X text 19 69 Ab;
#X text 34 86 Db;
#X text 51 94 Gb;
#X text 67 94 F#;
#X text 100 49 A;
#X text 98 67 E;
#X text 89 83 B;
#X obj 10 174 int;
#X obj 10 194 change;
#N canvas 0 89 450 218 fifhts2secs 0;
#X obj 30 15 inlet;
#X obj 30 170 outlet;
#X msg 30 77 -6;
#X msg 60 77 1;
#X msg 120 77 3;
#X msg 150 77 -2;
#X msg 180 77 5;
#X msg 90 77 -4;
#X obj 30 40 sel 0 1 2 3 4 5 6 7 8 9 10 11 12, f 51;
#X msg 390 77 6;
#X msg 360 77 -1;
#X msg 330 77 4;
#X msg 300 77 -3;
#X msg 270 77 2;
#X msg 240 77 -5;
#X msg 210 77 0;
#X connect 0 0 8 0;
#X connect 2 0 1 0;
#X connect 3 0 1 0;
#X connect 4 0 1 0;
#X connect 5 0 1 0;
#X connect 6 0 1 0;
#X connect 7 0 1 0;
#X connect 8 0 2 0;
#X connect 8 1 3 0;
#X connect 8 2 7 0;
#X connect 8 3 4 0;
#X connect 8 4 5 0;
#X connect 8 5 6 0;
#X connect 8 6 15 0;
#X connect 8 7 14 0;
#X connect 8 8 13 0;
#X connect 8 9 12 0;
#X connect 8 10 11 0;
#X connect 8 11 10 0;
#X connect 8 12 9 0;
#X connect 9 0 1 0;
#X connect 10 0 1 0;
#X connect 11 0 1 0;
#X connect 12 0 1 0;
#X connect 13 0 1 0;
#X connect 14 0 1 0;
#X connect 15 0 1 0;
#X restore 10 215 pd fifhts2secs;
#X msg 123 235 set \$1;
#N canvas 360 412 457 218 sec2fifthvis 0;
#X obj 10 7 inlet;
#X obj 10 162 outlet;
#X obj 10 32 sel 0 1 2 3 4 5 6 7 8 9 10 11 12, f 51;
#X msg 10 69 0.5;
#X msg 40 69 7.5;
#X msg 70 69 2.5;
#X msg 100 69 9.5;
#X msg 130 69 4.5;
#X msg 160 69 11.5;
#X msg 196 69 6.5;
#X msg 226 69 1.5;
#X msg 256 69 8.5;
#X msg 286 69 3.5;
#X msg 316 69 10.5;
#X msg 346 69 5.5;
#X msg 376 69 12.5;
#X connect 0 0 2 0;
#X connect 2 0 3 0;
#X connect 2 1 4 0;
#X connect 2 2 5 0;
#X connect 2 3 6 0;
#X connect 2 4 7 0;
#X connect 2 5 8 0;
#X connect 2 6 9 0;
#X connect 2 7 10 0;
#X connect 2 8 11 0;
#X connect 2 9 12 0;
#X connect 2 10 13 0;
#X connect 2 11 14 0;
#X connect 2 12 15 0;
#X connect 3 0 1 0;
#X connect 4 0 1 0;
#X connect 5 0 1 0;
#X connect 6 0 1 0;
#X connect 7 0 1 0;
#X connect 8 0 1 0;
#X connect 9 0 1 0;
#X connect 10 0 1 0;
#X connect 11 0 1 0;
#X connect 12 0 1 0;
#X connect 13 0 1 0;
#X connect 14 0 1 0;
#X connect 15 0 1 0;
#X restore 123 211 pd sec2fifthvis;
#X obj 10 152 r \$0-key-fifths;
#X obj 10 236 s \$0-key;
#X obj 123 257 s \$0-set-keyseconds;
#X connect 14 0 15 0;
#X connect 14 0 18 0;
#X connect 15 0 16 0;
#X connect 16 0 20 0;
#X connect 17 0 21 0;
#X connect 18 0 17 0;
#X connect 19 0 14 0;
#X coords 0 -1 1 1 105 105 2 10 10;
#X restore 19 163 pd fifths;
#N canvas 79 87 330 327 seconds 0;
#X obj 30 29 flatgui/knob 65 65 0.5 12.5 0 0 \$0-key-seconds \$0-set-keyseconds
key -18 -5 1 12 -258113 -258113 -228856 3200 1;
#X text 57 13 C;
#X text 92 33 D;
#X text 21 30 Bb;
#X text 16 69 Ab;
#X text 46 94 Gb;
#X text 65 94 F#;
#X text 96 67 E;
#X text 74 17 Db;
#X text 96 49 Eb;
#X text 85 85 F;
#X text 40 18 B;
#X text 17 49 A;
#X text 33 87 G;
#X obj 10 174 int;
#X obj 10 195 change;
#N canvas 407 159 401 218 seconds 0;
#X obj 10 7 inlet;
#X obj 10 162 outlet;
#X msg 10 69 -6;
#X msg 130 69 -2;
#X msg 70 69 -4;
#X obj 10 32 sel 0 1 2 3 4 5 6 7 8 9 10 11 12, f 51;
#X msg 310 69 4;
#X msg 250 69 2;
#X msg 190 69 0;
#X msg 40 69 -5;
#X msg 100 69 -3;
#X msg 160 69 -1;
#X msg 220 69 1;
#X msg 280 69 3;
#X msg 340 69 5;
#X msg 370 69 6;
#X connect 0 0 5 0;
#X connect 2 0 1 0;
#X connect 3 0 1 0;
#X connect 4 0 1 0;
#X connect 5 0 2 0;
#X connect 5 1 9 0;
#X connect 5 2 4 0;
#X connect 5 3 10 0;
#X connect 5 4 3 0;
#X connect 5 5 11 0;
#X connect 5 6 8 0;
#X connect 5 7 12 0;
#X connect 5 8 7 0;
#X connect 5 9 13 0;
#X connect 5 10 6 0;
#X connect 5 11 14 0;
#X connect 5 12 15 0;
#X connect 6 0 1 0;
#X connect 7 0 1 0;
#X connect 8 0 1 0;
#X connect 9 0 1 0;
#X connect 10 0 1 0;
#X connect 11 0 1 0;
#X connect 12 0 1 0;
#X connect 13 0 1 0;
#X connect 14 0 1 0;
#X connect 15 0 1 0;
#X restore 10 235 pd seconds;
#X msg 87 257 set \$1;
#N canvas 360 412 457 218 sec2fifth 0;
#X obj 10 7 inlet;
#X obj 10 162 outlet;
#X obj 10 32 sel 0 1 2 3 4 5 6 7 8 9 10 11 12, f 51;
#X msg 10 69 0.5;
#X msg 40 69 7.5;
#X msg 70 69 2.5;
#X msg 100 69 9.5;
#X msg 130 69 4.5;
#X msg 160 69 11.5;
#X msg 196 69 6.5;
#X msg 226 69 1.5;
#X msg 256 69 8.5;
#X msg 286 69 3.5;
#X msg 316 69 10.5;
#X msg 346 69 5.5;
#X msg 376 69 12.5;
#X connect 0 0 2 0;
#X connect 2 0 3 0;
#X connect 2 1 4 0;
#X connect 2 2 5 0;
#X connect 2 3 6 0;
#X connect 2 4 7 0;
#X connect 2 5 8 0;
#X connect 2 6 9 0;
#X connect 2 7 10 0;
#X connect 2 8 11 0;
#X connect 2 9 12 0;
#X connect 2 10 13 0;
#X connect 2 11 14 0;
#X connect 2 12 15 0;
#X connect 3 0 1 0;
#X connect 4 0 1 0;
#X connect 5 0 1 0;
#X connect 6 0 1 0;
#X connect 7 0 1 0;
#X connect 8 0 1 0;
#X connect 9 0 1 0;
#X connect 10 0 1 0;
#X connect 11 0 1 0;
#X connect 12 0 1 0;
#X connect 13 0 1 0;
#X connect 14 0 1 0;
#X connect 15 0 1 0;
#X restore 87 228 pd sec2fifth;
#X obj 10 131 r \$0-key-seconds;
#X obj 10 256 s \$0-key;
#X obj 87 279 s \$0-set-keyfifths;
#X connect 14 0 15 0;
#X connect 15 0 16 0;
#X connect 15 0 18 0;
#X connect 16 0 20 0;
#X connect 17 0 21 0;
#X connect 18 0 17 0;
#X connect 19 0 14 0;
#X coords 0 -1 1 1 105 105 2 10 10;
#X restore 139 163 pd seconds;
#X obj 126 260 bng 8 250 50 0 \$0-learn-key5 --- empty 17 7 0 10 -258113
-1 -1;
#X obj 246 260 bng 8 250 50 0 \$0-learn-key2 --- empty 17 7 0 10 -258113
-1 -1;
#X obj 122 131 flatgui/popup 124 25 #808080 chord-seq I-VIIm7 I-bVIImaj7-Im9-IIm9
I5-IV I5-VI5 I7-IIIm7 I7-bVIImaj7 I7sus4-VIsus4 Iadd11-IV Iadd9-VIm7-IV6-Iadd9
Im-#IVmaj7 Im-IVm7 Im-Im-bIIImaj7-bIIImaj7 Im-VIIm7-VIm7-Vmaj7 Im-Vm
Im-bIImaj Im-bVII-bIII-bVII Im-bVII Im-bVIIadd11 Im11-Vm11 Im11-Vm9
Im6-Vm9 Im7-II5 Im7-IVm7 Im7-VIm7-IV-bVIIsus4 Im7-Vm7-bVIIm7-IVm7 Im7-Vm9
Im7-bVIIm7-Vsus4-bVIIm7 Im9-IV13-bVIm7-Vm7 Im9-IV13-bVIm9-bII9 Im9-Vm7
Im9-Vm9 Im9-bIIIm7-IVadd9-Bm7 Im9-bIIImaj9-IIm9-bIIb9 Im9-bIImaj9-bIIIm9-bVI13-bIIm9
Im9-bVII13-bIImaj9-bIIImaj7 Im9-bVIIm9-bIIm9-bIIIm9 Im9-bVIIm9-bIIm9
Im9-bVIIm9-bVImaj7 Im9-bVIadd9-VIm9 Imaj7-IIIm7-VIImaj7-Imaj7 Imaj7-IIm7
Imaj7-VIImaj7-Vmaj7-IVmaj7 Imaj7-VIImaj7-bVIImaj7 Imaj7-VIImaj7 Imaj7-VIm7
Imaj7-bIIm7-bVIm-bVIm7 Imaj9-IIIm11-IVmaj9 Imaj9-VIm9-Im9-Vm11;
#X obj 75 130 bng 24 250 50 0 \$0-load-folder \$0-set-load-folder folder
-3 -10 1 12 -66577 -258113 -228856;
#X obj 115 108 cnv 15 150 50 empty empty sequence 5 12 1 12 -128992
-228856 0;
#X obj 204 82 tgl 42 0 \$0-play \$0-set-play play 0 -10 1 12 -128992
-128992 -166441 0 1;
#X obj 248 116 bng 8 250 50 0 \$0-learn-play --- empty 17 7 0 10 -258113
-1 -1;
#X text 414 193 ___;
#X text 414 203 ___;
#X text 414 213 ___;
#X text 414 223 ___;
#X text 414 233 ___;
#X text 414 183 ___;
#X text 414 173 ___;
#X text 414 163 ___;
#X text 414 153 ___;
#X text 414 143 ___;
#X text 414 133 ___;
#X text 414 123 ___;
#X text 414 113 ___;
#X text 414 103 ___;
#X text 414 93 ___;
#X text 414 83 ___;
#X text 414 243 ___;
#X obj 745 83 tgl 24 0 \$0-mute-bass \$0-set-mute-bass mute -1 -10
1 12 -66577 -258113 -228856 0 1;
#X obj 771 99 bng 8 250 50 0 \$0-learn-mute-bass --- empty 17 7 0 10
-258113 -1 -1;
#N canvas 0 50 959 334 \$0-data 0;
#X scalar 1187-chord0 1800 0 symbol \;;
#X scalar 1187-chord1 1800 0 symbol \;;
#X scalar 1187-chord2 1800 0 symbol \;;
#X scalar 1187-chord3 1800 0 symbol \;;
#X scalar 1187-chord4 1800 0 symbol \;;
#X scalar 1187-chord5 1800 0 symbol \;;
#X scalar 1187-chord6 1800 0 symbol \;;
#X scalar 1187-chord7 1800 0 symbol \;;
#X scalar 1187-mchord0 1678 -5 \;;
#X scalar 1187-mchord1 1678 -5 \;;
#X scalar 1187-mchord2 1678 -5 \;;
#X scalar 1187-mchord3 1678 -5 \;;
#X scalar 1187-mchord4 1678 -5 \;;
#X scalar 1187-mchord5 1678 -5 \;;
#X scalar 1187-mchord6 28 45 \;;
#X scalar 1187-mchord7 128 20 \;;
#X scalar 1187-mchord8 203 220 \;;
#X scalar 1187-mchord9 428 395 \;;
#X scalar 1187-mchord10 828 45 \;;
#X scalar 1187-mchord11 928 20 \;;
#X scalar 1187-mchord12 1003 220 \;;
#X scalar 1187-mchord13 1228 395 \;;
#X scalar 1187-mchord14 1678 -5 \;;
#X scalar 1187-mchord15 1678 -5 \;;
#X scalar 1187-mchord16 1678 -5 \;;
#X scalar 1187-mchord17 1678 -5 \;;
#X scalar 1187-mchord18 1678 -5 \;;
#X scalar 1187-mchord19 1678 -5 \;;
#X scalar 1187-mchord20 1678 -5 \;;
#X scalar 1187-mchord21 1678 -5 \;;
#X scalar 1187-mchord22 1678 -5 \;;
#X scalar 1187-mchord23 1678 -5 \;;
#X scalar 1187-mchord24 1678 -5 \;;
#X scalar 1187-mchord25 1678 -5 \;;
#X scalar 1187-mchord26 1678 -5 \;;
#X scalar 1187-mchord27 1678 -5 \;;
#X scalar 1187-mchord28 1678 -5 \;;
#X scalar 1187-mchord29 1678 -5 \;;
#X scalar 1187-mchord30 1678 -5 \;;
#X scalar 1187-mchord31 1678 -5 \;;
#X scalar 1187-mchord32 1678 -5 \;;
#X scalar 1187-mchord33 1678 -5 \;;
#X scalar 1187-mchord34 1678 -5 \;;
#X scalar 1187-mchord35 1678 -5 \;;
#X scalar 1187-mchord36 1678 -5 \;;
#X scalar 1187-mchord37 1678 -5 \;;
#X scalar 1187-mchord38 1678 -5 \;;
#X scalar 1187-mchord39 1678 -5 \;;
#X scalar 1187-mchord40 1678 -5 \;;
#X scalar 1187-mchord41 1678 -5 \;;
#X scalar 1187-mchord42 1678 -5 \;;
#X scalar 1187-mchord43 1678 -5 \;;
#X scalar 1187-mchord44 1678 -5 \;;
#X scalar 1187-mchord45 1678 -5 \;;
#X scalar 1187-mchord46 1678 -5 \;;
#X scalar 1187-mchord47 1678 -5 \;;
#X scalar 1187-mchord48 1678 -5 \;;
#X scalar 1187-mchord49 1678 -5 \;;
#X scalar 1187-mchord50 1678 -5 \;;
#X scalar 1187-mchord51 1678 -5 \;;
#X scalar 1187-mchord52 1678 -5 \;;
#X scalar 1187-mchord53 1678 -5 \;;
#X scalar 1187-mchord54 1678 -5 \;;
#X scalar 1187-mchord55 1678 -5 \;;
#X scalar 1187-mchord56 1678 -5 \;;
#X scalar 1187-mchord57 1678 -5 \;;
#X scalar 1187-mchord58 1678 -5 \;;
#X scalar 1187-mchord59 1678 -5 \;;
#X scalar 1187-mchord60 1678 -5 \;;
#X scalar 1187-mchord61 1678 -5 \;;
#X scalar 1187-mchord62 1678 -5 \;;
#X scalar 1187-mchord63 1678 -5 \;;
#X scalar 1187-beat 25 \;;
#X scalar 1187-line 25 900 \;;
#X scalar 1187-line 50 333 \;;
#X scalar 1187-line 75 333 \;;
#X scalar 1187-line 100 333 \;;
#X scalar 1187-line 125 666 \;;
#X scalar 1187-line 150 333 \;;
#X scalar 1187-line 175 333 \;;
#X scalar 1187-line 200 333 \;;
#X scalar 1187-line 225 666 \;;
#X scalar 1187-line 250 333 \;;
#X scalar 1187-line 275 333 \;;
#X scalar 1187-line 300 333 \;;
#X scalar 1187-line 325 666 \;;
#X scalar 1187-line 350 333 \;;
#X scalar 1187-line 375 333 \;;
#X scalar 1187-line 400 333 \;;
#X scalar 1187-line 425 900 \;;
#X scalar 1187-line 450 333 \;;
#X scalar 1187-line 475 333 \;;
#X scalar 1187-line 500 333 \;;
#X scalar 1187-line 525 666 \;;
#X scalar 1187-line 550 333 \;;
#X scalar 1187-line 575 333 \;;
#X scalar 1187-line 600 333 \;;
#X scalar 1187-line 625 666 \;;
#X scalar 1187-line 650 333 \;;
#X scalar 1187-line 675 333 \;;
#X scalar 1187-line 700 333 \;;
#X scalar 1187-line 725 666 \;;
#X scalar 1187-line 750 333 \;;
#X scalar 1187-line 775 333 \;;
#X scalar 1187-line 800 333 \;;
#X scalar 1187-line 825 900 \;;
#X scalar 1187-line 850 333 \;;
#X scalar 1187-line 875 333 \;;
#X scalar 1187-line 900 333 \;;
#X scalar 1187-line 925 666 \;;
#X scalar 1187-line 950 333 \;;
#X scalar 1187-line 975 333 \;;
#X scalar 1187-line 1000 333 \;;
#X scalar 1187-line 1025 666 \;;
#X scalar 1187-line 1050 333 \;;
#X scalar 1187-line 1075 333 \;;
#X scalar 1187-line 1100 333 \;;
#X scalar 1187-line 1125 666 \;;
#X scalar 1187-line 1150 333 \;;
#X scalar 1187-line 1175 333 \;;
#X scalar 1187-line 1200 333 \;;
#X scalar 1187-line 1225 900 \;;
#X scalar 1187-line 1250 333 \;;
#X scalar 1187-line 1275 333 \;;
#X scalar 1187-line 1300 333 \;;
#X scalar 1187-line 1325 666 \;;
#X scalar 1187-line 1350 333 \;;
#X scalar 1187-line 1375 333 \;;
#X scalar 1187-line 1400 333 \;;
#X scalar 1187-line 1425 666 \;;
#X scalar 1187-line 1450 333 \;;
#X scalar 1187-line 1475 333 \;;
#X scalar 1187-line 1500 333 \;;
#X scalar 1187-line 1525 666 \;;
#X scalar 1187-line 1550 333 \;;
#X scalar 1187-line 1575 333 \;;
#X scalar 1187-line 1600 333 \;;
#X scalar 1187-line 1625 900 \;;
#X coords 0 0 1650 120 800 120 2 0 0;
#X restore -1 300 pd \$0-data;
#X obj 124 134 s \$0-index;
#X obj 123 138 s \$0-sequence-file;
#X obj 123 138 r \$0-list-of-files;
#X obj 745 127 tgl 24 0 \$0-bass-lock \$0-set-bass-lock lock 1 -7 1
12 -66577 -258113 -228856 0 1;
#X obj 771 143 bng 8 250 50 0 \$0-learn-lock-bass --- empty 17 7 0
10 -258113 -1 -1;
#X connect 35 0 60 0;
#X connect 35 1 61 0;
#X connect 62 0 35 0;
