#N struct 1194-ledger float y;
#N struct 1194-whole float y;
#N struct 1194-whole-sharp float y;
#N struct 1194-barline float x;
#N struct 1194-rightline float x float y;
#N struct 1194-staffline float x float y;
#N struct mchord0 float x float dur symbol chordname;
#N struct mchord1 float x float dur symbol chordname;
#N struct mchord2 float x float dur symbol chordname;
#N struct mchord3 float x float dur symbol chordname;
#N struct mchord4 float x float dur symbol chordname;
#N struct mchord5 float x float dur symbol chordname;
#N struct mchord6 float x float dur symbol chordname;
#N struct mchord7 float x float dur symbol chordname;
#N struct mchord8 float x float dur symbol chordname;
#N struct mchord9 float x float dur symbol chordname;
#N struct mchord10 float x float dur symbol chordname;
#N struct mchord11 float x float dur symbol chordname;
#N struct mchord12 float x float dur symbol chordname;
#N struct mchord13 float x float dur symbol chordname;
#N struct mchord14 float x float dur symbol chordname;
#N struct mchord15 float x float dur symbol chordname;
#N struct mchord16 float x float dur symbol chordname;
#N struct mchord17 float x float dur symbol chordname;
#N struct mchord18 float x float dur symbol chordname;
#N struct mchord19 float x float dur symbol chordname;
#N struct mchord20 float x float dur symbol chordname;
#N struct mchord21 float x float dur symbol chordname;
#N struct mchord22 float x float dur symbol chordname;
#N struct mchord23 float x float dur symbol chordname;
#N struct mchord24 float x float dur symbol chordname;
#N struct mchord25 float x float dur symbol chordname;
#N struct mchord26 float x float dur symbol chordname;
#N struct mchord27 float x float dur symbol chordname;
#N struct mchord28 float x float dur symbol chordname;
#N struct mchord29 float x float dur symbol chordname;
#N struct mchord30 float x float dur symbol chordname;
#N struct mchord31 float x float dur symbol chordname;
#N struct mchord32 float x float dur symbol chordname;
#N struct mchord33 float x float dur symbol chordname;
#N struct mchord34 float x float dur symbol chordname;
#N struct mchord35 float x float dur symbol chordname;
#N struct mchord36 float x float dur symbol chordname;
#N struct mchord37 float x float dur symbol chordname;
#N struct mchord38 float x float dur symbol chordname;
#N struct mchord39 float x float dur symbol chordname;
#N struct mchord40 float x float dur symbol chordname;
#N struct mchord41 float x float dur symbol chordname;
#N struct mchord42 float x float dur symbol chordname;
#N struct mchord43 float x float dur symbol chordname;
#N struct mchord44 float x float dur symbol chordname;
#N struct mchord45 float x float dur symbol chordname;
#N struct mchord46 float x float dur symbol chordname;
#N struct mchord47 float x float dur symbol chordname;
#N struct mchord48 float x float dur symbol chordname;
#N struct mchord49 float x float dur symbol chordname;
#N struct mchord50 float x float dur symbol chordname;
#N struct mchord51 float x float dur symbol chordname;
#N struct mchord52 float x float dur symbol chordname;
#N struct mchord53 float x float dur symbol chordname;
#N struct mchord54 float x float dur symbol chordname;
#N struct mchord55 float x float dur symbol chordname;
#N struct mchord56 float x float dur symbol chordname;
#N struct mchord57 float x float dur symbol chordname;
#N struct mchord58 float x float dur symbol chordname;
#N struct mchord59 float x float dur symbol chordname;
#N struct mchord60 float x float dur symbol chordname;
#N struct mchord61 float x float dur symbol chordname;
#N struct mchord62 float x float dur symbol chordname;
#N struct mchord63 float x float dur symbol chordname;
#N struct beat float x;
#N struct line float pos float color;
#N canvas 10 27 813 441 10;
#X declare -path abs;
#N canvas 9 23 491 476 patch 1;
#N canvas 100 50 885 687 adt 0;
#X obj 32 14 r density;
#X obj 32 296 until;
#X msg 101 259 0;
#X obj 32 319 f 0, f 12;
#X obj 172 319 + 1;
#X obj 32 232 t b b l, f 33;
#X obj 195 374 tabread new-onsets;
#X obj 47 585 tabwrite slave-pattern, f 45;
#X obj 129 281 s slave-pattern;
#X obj 146 113 t l l;
#X msg 129 259 const 0;
#X obj 32 75 f;
#X obj 38 36 r update-density;
#X obj 47 373 tabread master-pattern;
#X obj 47 410 expr if($f2==1 \, 1 \, if($f1==1 \, -1 \, $f1));
#X obj 32 341 t f f f f f, f 63;
#X obj 407 372 tabread legato-pattern;
#X obj 47 537 expr if($f2==-1 \, $f1 \, if($f1==1 \, 1 \, $f2)), f
61;
#X obj 47 494 pack;
#X obj 47 473 swap;
#X obj 47 515 route 0 1;
#X obj 68 432 r force-legato;
#X obj 72 562 expr if($f1==1 \, $f1 \, $f2), f 61;
#X obj 153 69 s set-legato;
#X obj 56 167 s set-density;
#X obj 32 628 s update-legato;
#X obj 236 259 s onsets-bass;
#X obj 46 188 s set-bass-density;
#X obj 146 27 zexy/tabdump master-pattern;
#X obj 146 92 list-abs/list-apply max 0;
#X obj 227 281 zexy/tabset new-onsets;
#X obj 46 144 zexy/sum;
#X obj 146 6 r end-analysis;
#X msg 153 48 64;
#X msg 32 274 64;
#X obj 32 606 sel 63;
#X obj 68 452 > 64;
#X obj 32 211 populate-rhythm64, f 24;
#X connect 0 0 11 0;
#X connect 1 0 3 0;
#X connect 2 0 3 1;
#X connect 3 0 4 0;
#X connect 3 0 15 0;
#X connect 4 0 3 1;
#X connect 5 0 34 0;
#X connect 5 1 2 0;
#X connect 5 1 10 0;
#X connect 5 2 30 0;
#X connect 6 0 14 1;
#X connect 9 0 31 0;
#X connect 9 1 37 1;
#X connect 10 0 8 0;
#X connect 11 0 37 0;
#X connect 12 0 11 0;
#X connect 13 0 14 0;
#X connect 14 0 19 0;
#X connect 15 0 35 0;
#X connect 15 1 13 0;
#X connect 15 2 6 0;
#X connect 15 3 7 1;
#X connect 15 4 16 0;
#X connect 16 0 17 1;
#X connect 16 0 22 1;
#X connect 17 0 7 0;
#X connect 18 0 20 0;
#X connect 19 0 18 0;
#X connect 19 1 18 1;
#X connect 20 0 17 0;
#X connect 20 1 22 0;
#X connect 21 0 36 0;
#X connect 22 0 7 0;
#X connect 28 0 33 0;
#X connect 28 0 29 0;
#X connect 29 0 9 0;
#X connect 31 0 24 0;
#X connect 31 0 27 0;
#X connect 31 0 37 0;
#X connect 32 0 28 0;
#X connect 33 0 23 0;
#X connect 34 0 1 0;
#X connect 35 0 25 0;
#X connect 36 0 19 1;
#X connect 37 0 5 0;
#X restore 211 189 pd adt;
#N canvas 263 23 537 575 load-midi-loop 0;
#X msg 24 139 flush;
#X obj 12 338 / 4;
#X obj 12 315 unpack 0 0 0 0 0;
#X obj 81 336 s ticks/4;
#X obj 24 161 t a b, f 6;
#X obj 150 188 s reset-analysis;
#X msg 24 96 read \$1;
#X obj 109 229 pdmus/midi-player;
#X obj 371 483 s end-analysis;
#X obj 371 451 t b b;
#X obj 12 359 s bars;
#X obj 371 430 pdmus/oncev;
#X obj 12 295 pdmus/oncev;
#X obj 142 518 outlet;
#X msg 293 178 \; master-pattern const -1 \; slave-pattern const -1
;
#X obj 142 497 pdmus/midi-sort-events;
#X obj 262 415 * 8;
#X obj 142 454 + 0;
#X obj 24 117 t b a b, f 29;
#X obj 195 159 s reset-count;
#X msg 195 138 0;
#X obj 262 393 r ticks/4;
#X obj 223 229 r bars;
#X obj 208 249 f;
#X obj 157 432 r reset-count;
#X obj 142 409 unpack 0 0 0;
#X obj 142 475 pack 0 0 0, f 12;
#X obj 208 314 f 0;
#X obj 238 314 + 1;
#X obj 223 292 r reset-count;
#X obj 247 437 f;
#X obj 208 337 sel 0 1;
#X obj 208 269 sel 2 4;
#X obj 208 362 t b b, f 7;
#X msg 208 384 flush;
#X obj 24 33 list prepend, f 17;
#X obj 24 55 zexy/list2symbol /;
#X obj 24 11 r sequence-file;
#N canvas 220 23 420 739 load-folder 0;
#X obj 23 307 hcs/folder_list;
#X msg 51 565 append \$1;
#X obj 23 351 jasch_lib/strtok /;
#X obj 23 372 t a a, f 10;
#X obj 80 392 list length;
#X obj 23 433 list split;
#X obj 80 413 - 1;
#X msg 205 564 options;
#X obj 23 287 t s b, f 24;
#X obj 23 642 zexy/list2symbol /;
#X obj 23 619 pdmus/oncev, f 29;
#X obj 51 593 s list-of-files;
#X obj 23 663 makefilename /%s;
#X obj 23 11 loadbang;
#X obj 33 121 openpanel;
#X obj 33 56 r load-folder;
#X obj 33 100 ggee/getdir;
#X obj 33 142 jasch_lib/strtok /;
#X obj 33 162 t a a, f 10;
#X obj 90 182 list length;
#X obj 33 223 list split;
#X obj 90 203 - 1;
#X obj 33 245 zexy/list2symbol /;
#X msg 23 33 symbol ./2-bar-loops/*.mid;
#X obj 23 685 outlet;
#X obj 194 351 f 1;
#X obj 224 351 + 1;
#X obj 23 329 t s b, f 29;
#X obj 33 78 t b b, f 29;
#X obj 194 375 s files-in-folder;
#X obj 33 266 makefilename /%s/*.mid;
#X msg 209 329 1;
#X obj 51 522 jasch_lib/strcut;
#X obj 78 477 jasch_lib/strlen;
#X obj 78 499 - 4;
#X obj 51 455 t a a;
#X obj 51 544 symbol;
#X connect 0 0 27 0;
#X connect 1 0 11 0;
#X connect 2 0 3 0;
#X connect 3 0 5 0;
#X connect 3 1 4 0;
#X connect 4 0 6 0;
#X connect 5 0 10 0;
#X connect 5 1 35 0;
#X connect 6 0 5 1;
#X connect 7 0 11 0;
#X connect 8 0 0 0;
#X connect 8 1 7 0;
#X connect 8 1 10 1;
#X connect 9 0 12 0;
#X connect 10 0 9 0;
#X connect 12 0 24 0;
#X connect 13 0 23 0;
#X connect 14 0 17 0;
#X connect 15 0 28 0;
#X connect 16 0 14 0;
#X connect 17 0 18 0;
#X connect 18 0 20 0;
#X connect 18 1 19 0;
#X connect 19 0 21 0;
#X connect 20 0 22 0;
#X connect 21 0 20 1;
#X connect 22 0 30 0;
#X connect 23 0 8 0;
#X connect 25 0 26 0;
#X connect 25 0 29 0;
#X connect 26 0 25 1;
#X connect 27 0 2 0;
#X connect 27 1 25 0;
#X connect 28 0 16 0;
#X connect 28 1 31 0;
#X connect 30 0 8 0;
#X connect 31 0 25 1;
#X connect 32 0 36 0;
#X connect 33 0 34 0;
#X connect 34 0 32 0;
#X connect 35 0 32 0;
#X connect 35 1 33 0;
#X connect 36 0 1 0;
#X restore 123 11 pd load-folder;
#X obj 24 76 makefilename %s.mid;
#X connect 0 0 4 0;
#X connect 1 0 10 0;
#X connect 2 0 1 0;
#X connect 2 3 3 0;
#X connect 4 0 7 0;
#X connect 4 1 5 0;
#X connect 4 1 12 1;
#X connect 4 1 11 1;
#X connect 4 1 14 0;
#X connect 6 0 18 0;
#X connect 7 1 25 0;
#X connect 7 2 12 0;
#X connect 7 3 23 0;
#X connect 9 0 8 0;
#X connect 9 1 15 1;
#X connect 11 0 9 0;
#X connect 12 0 2 0;
#X connect 15 0 13 0;
#X connect 16 0 30 1;
#X connect 17 0 26 0;
#X connect 18 0 0 0;
#X connect 18 1 7 0;
#X connect 18 2 20 0;
#X connect 20 0 19 0;
#X connect 21 0 16 0;
#X connect 22 0 23 1;
#X connect 23 0 32 0;
#X connect 24 0 17 1;
#X connect 25 0 17 0;
#X connect 25 1 26 1;
#X connect 25 2 26 2;
#X connect 26 0 15 0;
#X connect 27 0 28 0;
#X connect 27 0 31 0;
#X connect 28 0 27 1;
#X connect 29 0 27 1;
#X connect 30 0 17 1;
#X connect 31 0 33 0;
#X connect 31 1 11 0;
#X connect 32 0 27 0;
#X connect 32 1 11 0;
#X connect 33 0 34 0;
#X connect 33 1 30 0;
#X connect 34 0 7 0;
#X connect 35 0 36 0;
#X connect 36 0 39 0;
#X connect 37 0 35 0;
#X connect 38 0 35 1;
#X connect 39 0 6 0;
#X restore 211 129 pd load-midi-loop;
#N canvas 0 50 450 300 (subpatch) 0;
#X array master-pattern 65 float 2;
#X coords 0 2 65 -2 200 50 1 0 0;
#X restore 5 19 graph;
#N canvas 0 50 450 300 (subpatch) 0;
#X array new-onsets 65 float 2;
#X coords 0 2 65 -2 200 50 1 0 0;
#X restore 4 85 graph;
#N canvas 0 50 450 300 (subpatch) 0;
#X array slave-pattern 65 float 2;
#X coords 0 2 65 -2 200 50 1 0 0;
#X restore 4 220 graph;
#N canvas 0 50 450 300 (subpatch) 0;
#X array legato-pattern 65 float 2;
#X coords 0 2 65 -2 200 50 1 0 0;
#X restore 4 153 graph;
#N canvas 117 170 775 538 legato 0;
#N canvas 0 50 450 300 (subpatch) 0;
#X array \$0-legatorder 64 float 1;
#A 0 0 16 1 17 2 18 3 19 4 20 5 21 6 22 7 23 8 24 9 25 10 26 11 27
12 28 13 29 14 30 15 31 32 33 34 35 36 37 38 39 40 41 42 43 44 45 46
47 48 49 50 51 52 53 54 55 56 57 58 59 60 61 62 63;
#X coords 0 32 63 0 400 140 1 0 0;
#X restore 57 29 graph;
#X text 39 175 descendientemente \, por compás;
#X msg 76 343 22 20 6 4 30 28 14 12 26 24 21 10 23 8 5 18 7 16 29 2
31 0 13 15 25 27 9 11 17 19 1 3;
#X text 74 320 from daniel1;
#X msg 87 401 3 1 19 17 11 9 27 25 15 13 0 31 2 29 16 7 18 5 8 23 10
21 24 26 12 14 28 30 4 6 20 22;
#X text 84 380 from daniel-inverse;
#X text 59 265 descendientemente \, por subtiempos débiles;
#X msg 52 288 0 16 8 24 4 20 12 28 1 17 9 25 5 21 13 29 2 18 10 26
6 22 14 30 3 19 11 27 7 23 15 31;
#X obj 586 47 r legato;
#X obj 503 248 tabwrite legato-pattern;
#X obj 578 213 tabread \$0-legatorder;
#X obj 625 117 s legato-pattern;
#X obj 590 164 sel;
#X obj 605 142 - 1;
#X obj 539 128 t f b f;
#X obj 590 188 s update-density;
#X msg 503 223 -1;
#X msg 625 95 const 0;
#X obj 539 103 pdmus/forloop;
#X obj 586 71 t f f b;
#X obj 42 447 zexy/tabset \$0-legatorder;
#X msg 42 200 0 16 1 17 2 18 3 19 4 20 5 21 6 22 7 23 8 24 9 25 10
26 11 27 12 28 13 29 14 30 15 31 32 33 34 35 36 37 38 39 40 41 42 43
44 45 46 47 48 49 50 51 52 53 54 55 56 57 58 59 60 61 62 63;
#X connect 2 0 20 0;
#X connect 4 0 20 0;
#X connect 7 0 20 0;
#X connect 8 0 19 0;
#X connect 10 0 9 1;
#X connect 12 0 15 0;
#X connect 13 0 12 1;
#X connect 14 0 12 0;
#X connect 14 1 16 0;
#X connect 14 2 10 0;
#X connect 16 0 9 0;
#X connect 17 0 11 0;
#X connect 18 0 14 0;
#X connect 19 0 18 0;
#X connect 19 1 13 0;
#X connect 19 2 17 0;
#X connect 21 0 20 0;
#X restore 211 209 pd legato;
#N canvas 11 63 1193 634 control 0;
#X obj 11 584 s saturation;
#X obj 12 611 s substitution;
#X obj 43 518 s activity;
#X obj 118 100 s legato;
#X obj 126 57 s force-legato;
#X obj 118 35 int;
#X obj 118 12 r raw-legato;
#X obj 10 104 s density;
#X obj 10 12 r raw-density;
#X obj 10 33 int;
#X text 7 560 these are NOT yet implemented!;
#X obj 593 384 int;
#X obj 593 363 r raw-range;
#X obj 593 427 s range;
#X obj 10 53 change;
#X obj 593 405 change;
#X obj 404 31 pdmus/midi-learn;
#X msg 510 31 123 4;
#X obj 404 9 r learn-tempo;
#X obj 404 94 s set-tempo;
#X obj 404 53 maxlib/scale 0 127 40 239;
#X obj 404 74 int;
#X msg 510 149 1 18;
#X obj 404 195 int;
#X obj 404 126 r learn-density;
#X obj 404 215 s set-density;
#X msg 510 269 2 18;
#X obj 404 315 int;
#X msg 700 31 3 18;
#X obj 404 246 r learn-legato;
#X obj 404 335 s set-legato;
#X obj 594 9 r learn-activity;
#X obj 594 74 s set-activity;
#X msg 700 278 5 18;
#X obj 594 320 int;
#X msg 889 31 4 18;
#X obj 783 75 int;
#X obj 783 9 r learn-register;
#X obj 594 256 r learn-range;
#X obj 783 54 maxlib/scale 0 127 -6 6;
#X obj 594 341 s set-range;
#X obj 783 95 s set-register;
#X obj 594 299 maxlib/scale 0 127 0 4;
#X obj 404 149 pdmus/midi-learn;
#X obj 404 269 pdmus/midi-learn;
#X obj 594 31 pdmus/midi-learn;
#X obj 594 278 pdmus/midi-learn;
#X obj 783 31 pdmus/midi-learn;
#X obj 43 417 r raw-activity;
#X msg 1080 31 6 18;
#X obj 974 74 int;
#X msg 1080 253 8 18;
#X msg 1080 152 7 18;
#X obj 974 31 pdmus/midi-learn;
#X obj 974 253 pdmus/midi-learn;
#X obj 974 153 pdmus/midi-learn;
#X obj 974 9 r learn-bass-density;
#X obj 974 131 r learn-bass-duration;
#X obj 974 94 s set-bass-density;
#X obj 974 195 s set-bass-duration;
#X obj 974 233 r learn-bass-accents;
#X obj 974 295 s set-bass-velocity;
#X obj 468 545 s set-play;
#X msg 242 368 1;
#X msg 273 368 -1;
#X obj 275 419 f 0;
#X obj 242 419 + 0;
#X obj 242 324 r scroll-down;
#X obj 273 346 r scroll-up;
#X msg 576 467 123 4;
#X obj 468 467 pdmus/midi-learn;
#X obj 468 487 != 0;
#X obj 468 447 r learn-play;
#X msg 1079 346 9 18;
#X obj 973 346 pdmus/midi-learn;
#X obj 973 409 s set-bass-octave;
#X obj 973 324 r learn-bass-octave;
#X obj 468 527 tgl 15 0 empty empty empty 17 7 0 10 -262144 -1 -1 0
1;
#X obj 468 507 sel 1;
#X msg 350 30 0 0;
#X obj 242 30 pdmus/midi-learn;
#X obj 242 51 != 0;
#X obj 242 72 change;
#X obj 242 10 r learn-scrollup;
#X obj 242 115 s set-scroll-up;
#X msg 350 165 12 18;
#X obj 242 165 pdmus/midi-learn;
#X obj 242 185 != 0;
#X obj 242 206 change;
#X obj 242 144 r learn-scrolldown;
#X obj 242 249 s set-scroll-down;
#X obj 242 94 sel 1;
#X obj 242 227 sel 1;
#X text 16 501 I HAVE DISCONNECTED THIS!!!;
#X obj 594 53 maxlib/scale 0 127 0 1;
#X obj 974 174 maxlib/scale 0 127 0.2 16;
#X obj 973 387 abs;
#X obj 118 78 min 64;
#X obj 404 173 maxlib/scale 0 127 1 64;
#X obj 404 293 maxlib/scale 0 127 1 66;
#X obj 783 223 == 0, f 10;
#X obj 783 244 sel 1;
#X obj 783 264 f, f 12;
#X obj 783 151 t f f f, f 20;
#X obj 783 307 line 0;
#X obj 783 130 r raw-register;
#X obj 783 384 s set-register;
#X obj 275 397 r index;
#X obj 275 442 r files-in-folder;
#X obj 242 462 mod 25;
#X obj 243 484 s list-of-files;
#X obj 882 342 int;
#X obj 882 363 change;
#X obj 882 385 s register;
#X msg 793 178 clear;
#X obj 783 203 pipe 300;
#X msg 783 286 \$1 \, 0 300;
#X floatatom 10 126 5 0 0 0 - - -, f 5;
#X floatatom 30 79 5 0 0 0 - - -, f 5;
#X obj 974 53 maxlib/scale 0 127 0 64;
#X obj 973 367 - 4;
#X obj 974 274 maxlib/scale 0 127 0.125 1;
#X text 786 113 ---GUI---;
#X msg 783 360 set \$1;
#X msg 1079 456 9 18;
#X obj 973 456 pdmus/midi-learn;
#X obj 973 434 r learn-bass-mute;
#X obj 973 539 s set-bass-mute;
#X obj 973 477 / 64;
#X obj 973 498 int;
#X obj 973 518 change;
#X connect 5 0 4 0;
#X connect 5 0 97 0;
#X connect 6 0 5 0;
#X connect 8 0 9 0;
#X connect 9 0 14 0;
#X connect 11 0 15 0;
#X connect 12 0 11 0;
#X connect 14 0 7 0;
#X connect 14 0 118 0;
#X connect 15 0 13 0;
#X connect 16 0 20 0;
#X connect 16 1 17 0;
#X connect 17 0 16 1;
#X connect 18 0 16 0;
#X connect 20 0 21 0;
#X connect 21 0 19 0;
#X connect 22 0 43 1;
#X connect 23 0 25 0;
#X connect 24 0 43 0;
#X connect 26 0 44 1;
#X connect 27 0 30 0;
#X connect 28 0 45 1;
#X connect 29 0 44 0;
#X connect 31 0 45 0;
#X connect 33 0 46 1;
#X connect 34 0 40 0;
#X connect 35 0 47 1;
#X connect 36 0 41 0;
#X connect 37 0 47 0;
#X connect 38 0 46 0;
#X connect 39 0 36 0;
#X connect 42 0 34 0;
#X connect 43 0 98 0;
#X connect 43 1 22 0;
#X connect 44 0 99 0;
#X connect 44 1 26 0;
#X connect 45 0 94 0;
#X connect 45 1 28 0;
#X connect 46 0 42 0;
#X connect 46 1 33 0;
#X connect 47 0 39 0;
#X connect 47 1 35 0;
#X connect 49 0 53 1;
#X connect 50 0 58 0;
#X connect 51 0 54 1;
#X connect 52 0 55 1;
#X connect 53 0 119 0;
#X connect 53 1 49 0;
#X connect 54 0 121 0;
#X connect 54 1 51 0;
#X connect 55 0 95 0;
#X connect 55 1 52 0;
#X connect 56 0 53 0;
#X connect 57 0 55 0;
#X connect 60 0 54 0;
#X connect 63 0 66 0;
#X connect 64 0 66 0;
#X connect 65 0 66 1;
#X connect 66 0 65 0;
#X connect 66 0 109 0;
#X connect 67 0 63 0;
#X connect 68 0 64 0;
#X connect 69 0 70 1;
#X connect 70 0 71 0;
#X connect 70 1 69 0;
#X connect 71 0 78 0;
#X connect 72 0 70 0;
#X connect 73 0 74 1;
#X connect 74 0 120 0;
#X connect 74 1 73 0;
#X connect 76 0 74 0;
#X connect 77 0 62 0;
#X connect 78 0 77 0;
#X connect 79 0 80 1;
#X connect 80 0 81 0;
#X connect 80 1 79 0;
#X connect 81 0 82 0;
#X connect 82 0 91 0;
#X connect 83 0 80 0;
#X connect 85 0 86 1;
#X connect 86 0 87 0;
#X connect 86 1 85 0;
#X connect 87 0 88 0;
#X connect 88 0 92 0;
#X connect 89 0 86 0;
#X connect 91 0 84 0;
#X connect 92 0 90 0;
#X connect 94 0 32 0;
#X connect 95 0 59 0;
#X connect 96 0 75 0;
#X connect 97 0 3 0;
#X connect 98 0 23 0;
#X connect 99 0 27 0;
#X connect 100 0 101 0;
#X connect 101 0 102 0;
#X connect 102 0 116 0;
#X connect 103 0 115 0;
#X connect 103 1 100 1;
#X connect 103 1 114 0;
#X connect 103 2 102 1;
#X connect 103 2 111 0;
#X connect 104 0 111 0;
#X connect 104 0 123 0;
#X connect 105 0 103 0;
#X connect 107 0 65 0;
#X connect 108 0 109 1;
#X connect 109 0 110 0;
#X connect 111 0 112 0;
#X connect 112 0 113 0;
#X connect 114 0 115 0;
#X connect 115 0 100 0;
#X connect 116 0 104 0;
#X connect 119 0 50 0;
#X connect 120 0 96 0;
#X connect 121 0 61 0;
#X connect 123 0 106 0;
#X connect 124 0 125 1;
#X connect 125 0 128 0;
#X connect 125 1 124 0;
#X connect 126 0 125 0;
#X connect 128 0 129 0;
#X connect 129 0 130 0;
#X connect 130 0 127 0;
#X restore 211 89 pd control from pd-gui;
#N canvas 1 23 523 456 clock 0;
#X obj 134 139 /;
#X obj 190 305 + 1;
#X obj 160 305 f 0;
#X msg 134 119 15000 \$1;
#X obj 83 160 metro 125;
#X obj 134 97 r tempo;
#X obj 160 350 s current_step;
#X obj 8 226 sel 0;
#X obj 331 213 sel 0 1;
#X obj 8 6 r play;
#X obj 8 110 f;
#X obj 190 215 spigot 0;
#X obj 123 215 s set-play;
#X obj 8 132 spigot;
#X obj 14 26 r clock-mode;
#X obj 14 47 - 1;
#X obj 14 67 abs;
#X obj 14 88 t b f;
#X obj 56 132 sel 1;
#X obj 303 182 r clock-mode;
#X obj 258 215 spigot 0;
#X obj 258 237 s set-tempo;
#X msg 331 283 \; set-play color 2 13 10 \; set-tempo color 2 13 10
;
#X msg 175 284 0;
#X obj 123 183 pdmus/midi-sync, f 23;
#X obj 108 372 pdmus/midi-panic-ch 2;
#X msg 350 235 \; set-play color 11 11 1 \; set-tempo color 11 13 1
;
#X obj 54 226 sel 0;
#X obj 175 328 sel 63;
#X obj 8 394 pdmus/midi-panic-ch 1;
#X connect 0 0 4 1;
#X connect 1 0 2 1;
#X connect 2 0 1 0;
#X connect 2 0 6 0;
#X connect 2 0 28 0;
#X connect 3 0 0 0;
#X connect 4 0 2 0;
#X connect 5 0 3 0;
#X connect 7 0 23 0;
#X connect 7 0 25 0;
#X connect 7 0 29 0;
#X connect 8 0 22 0;
#X connect 8 1 26 0;
#X connect 9 0 10 0;
#X connect 10 0 13 0;
#X connect 11 0 2 0;
#X connect 13 0 4 0;
#X connect 13 0 7 0;
#X connect 14 0 15 0;
#X connect 15 0 16 0;
#X connect 16 0 17 0;
#X connect 17 0 10 0;
#X connect 17 1 13 1;
#X connect 17 1 18 0;
#X connect 18 1 4 0;
#X connect 19 0 20 1;
#X connect 19 0 11 1;
#X connect 19 0 8 0;
#X connect 20 0 21 0;
#X connect 23 0 2 1;
#X connect 24 0 12 0;
#X connect 24 0 27 0;
#X connect 24 1 11 0;
#X connect 24 2 20 0;
#X connect 27 0 23 0;
#X connect 27 0 25 0;
#X connect 27 0 29 0;
#X connect 28 0 23 0;
#X restore 212 69 pd clock;
#N canvas 8 23 898 691 activity 0;
#X obj 583 184 zexy/listfind;
#X msg 583 162 1;
#X obj 459 156 tabread \$0-activity;
#X obj 495 244 route float bang;
#X obj 610 280 f;
#X obj 639 280 + 1;
#X obj 625 258 f;
#X obj 471 319 pdmus/add2list prepend;
#X obj 471 361 list length;
#X obj 635 233 r voice-changes;
#X obj 471 340 t l l;
#X obj 477 449 list;
#X obj 486 382 r voice-changes;
#X obj 471 404 ==;
#X obj 476 428 sel 1;
#X obj 477 471 sort;
#X obj 459 180 t f f;
#X obj 471 297 f;
#X obj 495 266 t b;
#X obj 432 55 t f b b;
#X obj 583 140 t b b b;
#X obj 477 600 zexy/listfind;
#X obj 477 622 route float;
#X obj 166 58 r density;
#X obj 230 58 r activity;
#X obj 230 112 *;
#X obj 230 85 t b f;
#X obj 230 155 int;
#X floatatom 260 176 5 0 0 0 - - -, f 5;
#X obj 705 399 t b l;
#X obj 624 425 f;
#X obj 624 496 list;
#X obj 756 614 list prepend;
#X obj 624 447 t b f;
#N canvas 431 50 495 459 activity 0;
#N canvas 0 50 450 300 (subpatch) 0;
#X array \$0-activity 32 float 1;
#A 0 0 16 8 24 4 20 12 28 1 17 9 25 5 21 13 29 2 18 10 26 6 22 14 30
3 19 11 27 7 23 15 31;
#X coords 0 32 31 0 400 140 1 0 0;
#X restore 14 -37 graph;
#X text 11 103 descendientemente \, por compás;
#X msg 14 128 0 16 1 17 2 18 3 19 4 20 5 21 6 22 7 23 8 24 9 25 10
26 11 27 12 28 13 29 14 30 15 31;
#X msg 48 271 22 20 6 4 30 28 14 12 26 24 21 10 23 8 5 18 7 16 29 2
31 0 13 15 25 27 9 11 17 19 1 3;
#X text 46 248 from daniel1;
#X msg 59 329 3 1 19 17 11 9 27 25 15 13 0 31 2 29 16 7 18 5 8 23 10
21 24 26 12 14 28 30 4 6 20 22;
#X text 56 308 from daniel-inverse;
#X text 31 193 descendientemente \, por subtiempos débiles;
#X msg 24 216 0 16 8 24 4 20 12 28 1 17 9 25 5 21 13 29 2 18 10 26
6 22 14 30 3 19 11 27 7 23 15 31;
#X obj 14 375 zexy/tabset \$0-activity;
#X connect 2 0 9 0;
#X connect 3 0 9 0;
#X connect 5 0 9 0;
#X connect 8 0 9 0;
#X restore 41 430 pd activity table order;
#X obj 477 494 t b l;
#X msg 477 516 32;
#X obj 477 568 t f f;
#X obj 705 378 list;
#X obj 705 332 t b f;
#X floatatom 268 85 5 0 0 0 - - -, f 5;
#X text 272 134 number of chords;
#X floatatom 339 87 5 0 0 0 - - -, f 5;
#X obj 230 198 change;
#X obj 663 15 t l l l;
#X obj 663 94 spigot;
#X obj 696 73 == 0;
#X obj 21 150 random 2;
#X obj 21 174 sel 0;
#X msg 21 198 -1;
#X obj 21 128 t b;
#X obj 21 226 pdmus/add2list prepend;
#X msg 114 204 0;
#X msg 50 27 16;
#X obj 50 96 sel 0;
#X obj 21 276 list;
#X obj 151 217 sel;
#X obj 166 196 - 1;
#X obj 50 50 t f f;
#N canvas 0 50 450 278 (subpatch) 0;
#X array r-voicing 16 float 3;
#A 0 0 1 1 -1 1 -1 -1 1 1 -1 1 -1 1 1 1 1;
#X coords 0 1.1 16 -1.1 100 70 1 0 0;
#X restore 21 333 graph;
#X text 83 28 GET NEW RANDOM DISTRIBUTION;
#X obj 370 425 print some;
#X obj 229 266 s voice-changes;
#X obj 477 644 tabread r-voicing;
#X obj 230 220 + 1;
#X obj 604 210 print onset-positions;
#X floatatom 238 243 5 0 0 0 - - -, f 5;
#X obj 432 103 t f f;
#X obj 412 129 + 16;
#X obj 230 134 * 0.4;
#X obj 756 655 s chord-variations;
#X msg 353 472 0 16 24;
#X obj 353 542 moses 16;
#X obj 21 298 zexy/tabset r-voicing;
#X obj 696 49 list-abs/list-compare;
#X obj 628 162 zexy/tabdump new-onsets;
#X obj 353 516 pdmus/list-dripv;
#X obj 651 471 pdmus/chord-foldover;
#X obj 726 355 cyclone/coll one;
#C restore;
#X obj 495 219 zexy/listfind;
#X obj 432 80 pdmus/forloop;
#X obj 477 539 pdmus/forloop;
#X obj 50 72 pdmus/forloop;
#X obj 243 386 vsl 24 180 0 1 0 0 raw-activity set-activity activity
-8 -12 1 12 -66577 -258113 -228856 0 1;
#X obj 269 561 bng 8 250 50 0 learn-activity --- empty 17 7 0 10 -258113
-1 -1;
#X connect 0 0 65 0;
#X connect 0 0 79 1;
#X connect 1 0 0 0;
#X connect 2 0 16 0;
#X connect 3 0 18 0;
#X connect 3 1 4 0;
#X connect 4 0 5 0;
#X connect 4 0 2 0;
#X connect 5 0 4 1;
#X connect 6 0 4 1;
#X connect 7 0 10 0;
#X connect 8 0 13 0;
#X connect 9 0 6 0;
#X connect 10 0 8 0;
#X connect 10 1 11 1;
#X connect 11 0 15 0;
#X connect 12 0 13 1;
#X connect 13 0 14 0;
#X connect 14 0 11 0;
#X connect 15 0 35 0;
#X connect 15 0 61 0;
#X connect 15 0 76 0;
#X connect 16 0 79 0;
#X connect 16 1 17 1;
#X connect 17 0 7 0;
#X connect 18 0 17 0;
#X connect 19 0 80 0;
#X connect 19 1 6 0;
#X connect 19 2 20 0;
#X connect 20 0 1 0;
#X connect 20 1 7 1;
#X connect 20 2 75 0;
#X connect 21 0 22 0;
#X connect 22 0 63 0;
#X connect 24 0 26 0;
#X connect 24 0 40 0;
#X connect 25 0 69 0;
#X connect 26 0 25 0;
#X connect 26 1 25 1;
#X connect 27 0 28 0;
#X connect 27 0 43 0;
#X connect 29 0 30 0;
#X connect 29 1 77 1;
#X connect 30 0 33 0;
#X connect 31 0 32 0;
#X connect 33 0 31 0;
#X connect 33 1 77 0;
#X connect 35 0 36 0;
#X connect 35 1 21 1;
#X connect 36 0 81 0;
#X connect 37 0 21 0;
#X connect 38 0 29 0;
#X connect 39 0 38 0;
#X connect 39 1 32 1;
#X connect 39 1 78 0;
#X connect 42 0 25 0;
#X connect 43 0 64 0;
#X connect 44 0 45 0;
#X connect 44 1 74 1;
#X connect 44 2 74 0;
#X connect 46 0 45 1;
#X connect 47 0 48 0;
#X connect 48 0 49 0;
#X connect 48 1 51 0;
#X connect 49 0 51 0;
#X connect 50 0 47 0;
#X connect 51 0 55 1;
#X connect 52 0 51 1;
#X connect 53 0 58 0;
#X connect 54 0 52 0;
#X connect 54 1 50 0;
#X connect 54 1 56 0;
#X connect 55 0 73 0;
#X connect 56 0 55 0;
#X connect 57 0 56 1;
#X connect 58 0 82 0;
#X connect 58 1 57 0;
#X connect 63 0 30 1;
#X connect 64 0 62 0;
#X connect 64 0 19 0;
#X connect 64 0 66 0;
#X connect 67 0 68 0;
#X connect 67 1 2 0;
#X connect 68 0 2 0;
#X connect 69 0 27 0;
#X connect 71 0 76 0;
#X connect 74 0 46 0;
#X connect 75 0 0 1;
#X connect 76 0 72 0;
#X connect 77 0 31 1;
#X connect 78 0 38 1;
#X connect 79 0 3 0;
#X connect 80 0 67 0;
#X connect 81 0 37 0;
#X connect 82 0 54 0;
#X restore 212 229 pd activity;
#N canvas 3 23 709 465 register 0;
#X msg 569 143 dump;
#X obj 541 191 t b l;
#X obj 515 275 list prepend;
#X obj 531 14 r range;
#X obj 546 67 -;
#X obj 531 38 t f f f;
#X obj 531 89 *;
#X obj 585 41 r set-range;
#X obj 531 110 t b f;
#X obj 505 226 f;
#X text 493 323 sumar restar 12 a cada cambio;
#X text 493 343 en vez de calcular la distancia;
#X text 493 364 de octava;
#X obj 505 251 chord-range;
#X obj 515 296 s chord-variations;
#X obj 569 165 cyclone/coll one;
#C restore;
#X connect 0 0 15 0;
#X connect 1 0 9 0;
#X connect 1 1 13 1;
#X connect 2 0 14 0;
#X connect 3 0 5 0;
#X connect 4 0 6 1;
#X connect 5 0 6 0;
#X connect 5 1 4 1;
#X connect 5 2 4 0;
#X connect 6 0 8 0;
#X connect 7 0 4 1;
#X connect 8 0 0 0;
#X connect 8 1 9 1;
#X connect 9 0 13 0;
#X connect 13 0 2 0;
#X connect 15 0 1 0;
#X connect 15 1 2 1;
#X restore 211 249 pd register and range;
#X text 153 300 TO DO's:;
#X text 152 354 rethink chord-substitution and expansion.;
#X text 152 374 circular visualization?? processing??;
#X text 152 394 add colors to chord height... (brigthness) and range.
;
#X text 153 317 density bug cuando llega a 15 hace 16;
#X text 152 334 legato does not always visualize correctly.;
#X text 152 414 bass duration;
#N canvas 6 23 322 486 loadbangs 0;
#X obj 15 9 loadbang;
#X obj 15 91 f \$0;
#X obj 15 112 list, f 6;
#X obj 15 70 t b a, f 6;
#X obj 15 51 zexy/list2symbol;
#X msg 15 30 HOUSE HARMONIC FILLER;
#X msg 15 132 \; \$1-title label \$2 \; \$1-title label_pos 20 18 \;
\$1-title label_font 3 20 \; \$1-title vis_size 800 425 \; \$1-title
color 11 13 \; list-of-files bgcolour #808080 \; list-of-files name
chord-seq \; set-chords-octave 3 \; set-register set 0 \; set-tempo
125 \; set-bass-duration 1 \; set-bass-octave 1 \; set-clock-mode 1
\; set-keyfifths set 6.5 \; set-keyseconds set 6.5;
#X connect 0 0 5 0;
#X connect 1 0 2 0;
#X connect 2 0 6 0;
#X connect 3 0 1 0;
#X connect 3 1 2 1;
#X connect 4 0 3 0;
#X connect 5 0 4 0;
#X restore 211 29 pd loadbangs;
#N canvas 255 23 1130 729 get-chord-progression 0;
#X obj 11 34 inlet;
#X obj 578 80 unpack 0 0 0 0;
#X obj 578 124 /;
#X obj 593 102 r ticks/4;
#X obj 632 125 != 0;
#X obj 578 145 * 4;
#X obj 587 235 route;
#X obj 587 211 t l f;
#X obj 578 167 pack;
#X obj 11 55 t l l, f 95;
#X obj 364 385 pdmus/add2list prepend;
#X msg 578 279 \$2 \$1;
#X obj 638 419 pdmus/add2list prepend;
#X obj 922 363 r reset-analysis;
#X obj 343 527 list;
#X obj 653 520 list;
#X obj 578 300 route 1 0;
#X obj 784 419 pdmus/add2list prepend;
#X obj 734 520 list;
#X obj 703 613 -;
#X obj 703 589 swap;
#X obj 653 562 t f f;
#X obj 343 685 pack s f f, f 60;
#X obj 751 588 f 0;
#X obj 781 588 + 1;
#X obj 724 566 t f b;
#X obj 736 718 s;
#X obj 751 630 makefilename master-chord-fill-%d;
#X text 768 717 chord \, onset \, duration.;
#X obj 11 570 outlet;
#X obj 526 454 outlet;
#X obj 509 556 r reset-analysis;
#X obj 343 572 t s s s;
#X obj 392 629 == 0;
#X obj 353 648 spigot;
#X obj 434 628 sel 1;
#X msg 434 651 symbol;
#X obj 587 258 tabwrite master-pattern;
#X obj 11 77 pdmus/chord-make;
#X obj 38 121 pdmus/chord-estimate;
#X obj 392 603 list-abs/compare-any;
#X obj 578 188 pdmus/change-any;
#X obj 609 443 r end-analysis;
#X obj 343 547 zexy/drip 0;
#X obj 653 541 zexy/drip 0;
#X obj 734 541 zexy/drip 0;
#X obj 609 486 t b b b;
#X text 779 487 revisar la última parte para evitar los zexy/drip...
;
#X obj 77 283 list prepend, f 13;
#X obj 364 363 list2symbol, f 15;
#X obj 182 165 pdmus/oncev;
#X obj 155 144 t f f;
#X obj 155 208 -, f 5;
#X obj 155 240 mod 12;
#X obj 11 98 t l l;
#X obj 239 207 * -1;
#X text 438 454 onset position;
#X text 650 466 change this behaviour! I hate having to use delays!
;
#X obj 451 322 loadbang;
#X msg 451 342 symbol;
#N canvas 353 435 416 248 pc2degrees 0;
#X obj 9 10 inlet;
#X obj 9 31 sel 0 1 2 3 4 5 6 7 8 9 10 11, f 64;
#X msg 9 64 I;
#X msg 40 64 bII;
#X msg 72 64 II;
#X msg 100 64 bIII;
#X msg 136 64 III;
#X msg 167 64 IV;
#X msg 231 64 V;
#X msg 263 64 bVI;
#X msg 294 64 VI;
#X msg 326 64 bVII;
#X msg 199 64 #IV;
#X obj 9 198 symbol;
#X obj 9 220 outlet;
#X msg 368 64 VII;
#X connect 0 0 1 0;
#X connect 1 0 2 0;
#X connect 1 1 3 0;
#X connect 1 2 4 0;
#X connect 1 3 5 0;
#X connect 1 4 6 0;
#X connect 1 5 7 0;
#X connect 1 6 12 0;
#X connect 1 7 8 0;
#X connect 1 8 9 0;
#X connect 1 9 10 0;
#X connect 1 10 11 0;
#X connect 1 11 15 0;
#X connect 2 0 13 0;
#X connect 3 0 13 0;
#X connect 4 0 13 0;
#X connect 5 0 13 0;
#X connect 6 0 13 0;
#X connect 7 0 13 0;
#X connect 8 0 13 0;
#X connect 9 0 13 0;
#X connect 10 0 13 0;
#X connect 11 0 13 0;
#X connect 12 0 13 0;
#X connect 13 0 14 0;
#X connect 15 0 13 0;
#X restore 155 261 pd pc2degrees;
#X obj 182 186 t f f, f 10;
#X msg 509 578 symbol n;
#X obj 11 382 t l l, f 21;
#X obj 134 528 * -12;
#X obj 11 359 pdmus/chord-transpose, f 38;
#X obj 11 548 pdmus/chord-transpose;
#X obj 245 144 r reset-analysis;
#X obj 751 609 mod 64;
#X obj 609 464 del 1;
#X msg 52 101 bang;
#X text 133 78 there was a zexy sort;
#X obj 76 7 list length;
#X obj 76 25 print;
#X text 166 11 probar a filtrar notas solas?;
#X obj 134 444 pdmus/list-sum;
#X obj 134 403 add2list prepend;
#X obj 134 423 t l l, f 16;
#X obj 227 444 list length;
#X obj 134 465 /, f 16;
#X obj 134 487 int;
#X obj 134 507 div 12;
#X obj 744 185 pdmus/chord-unique;
#X msg 861 203 0 12 24 36 48 60 72 84 96 108 120, f 12;
#X obj 744 249 zexy/listfind, f 20;
#X obj 861 183 loadbang;
#X obj 744 207 pdmus/list-dripv;
#X obj 744 270 route float;
#X obj 744 154 pdmus/oncev;
#X obj 824 139 r reset-analysis;
#X obj 333 291 pack;
#X obj 333 247 - 5;
#X obj 333 269 mod 12;
#X obj 333 314 tabwrite bassseq;
#X connect 0 0 9 0;
#X connect 1 0 2 0;
#X connect 1 2 4 0;
#X connect 2 0 5 0;
#X connect 3 0 2 1;
#X connect 4 0 8 1;
#X connect 5 0 8 0;
#X connect 6 0 37 0;
#X connect 7 0 6 0;
#X connect 7 1 6 1;
#X connect 7 1 37 1;
#X connect 8 0 41 0;
#X connect 9 0 38 0;
#X connect 9 1 1 0;
#X connect 10 0 14 1;
#X connect 11 0 16 0;
#X connect 12 0 15 1;
#X connect 13 0 12 1;
#X connect 13 0 17 1;
#X connect 13 0 10 1;
#X connect 14 0 43 0;
#X connect 15 0 44 0;
#X connect 16 0 12 0;
#X connect 16 0 30 0;
#X connect 16 0 90 1;
#X connect 16 1 17 0;
#X connect 17 0 18 1;
#X connect 18 0 45 0;
#X connect 19 0 22 2;
#X connect 20 0 19 0;
#X connect 20 1 19 1;
#X connect 21 0 22 1;
#X connect 21 1 20 0;
#X connect 22 0 26 0;
#X connect 23 0 24 0;
#X connect 23 0 68 0;
#X connect 24 0 23 1;
#X connect 25 0 20 1;
#X connect 25 1 23 0;
#X connect 27 0 26 1;
#X connect 31 0 62 0;
#X connect 32 0 34 0;
#X connect 32 1 40 1;
#X connect 32 2 40 0;
#X connect 33 0 34 1;
#X connect 34 0 22 0;
#X connect 35 0 36 0;
#X connect 36 0 22 0;
#X connect 38 0 54 0;
#X connect 39 1 48 0;
#X connect 39 3 51 0;
#X connect 40 0 33 0;
#X connect 40 0 35 0;
#X connect 41 0 7 0;
#X connect 41 0 11 0;
#X connect 42 0 69 0;
#X connect 43 0 32 0;
#X connect 44 0 21 0;
#X connect 45 0 25 0;
#X connect 46 0 14 0;
#X connect 46 1 15 0;
#X connect 46 2 18 0;
#X connect 48 0 49 0;
#X connect 49 0 10 0;
#X connect 50 0 61 0;
#X connect 51 0 52 0;
#X connect 51 1 50 0;
#X connect 52 0 53 0;
#X connect 52 0 91 0;
#X connect 53 0 60 0;
#X connect 54 0 65 0;
#X connect 54 1 39 0;
#X connect 55 0 65 1;
#X connect 58 0 59 0;
#X connect 59 0 49 1;
#X connect 60 0 48 1;
#X connect 61 0 52 1;
#X connect 61 1 55 0;
#X connect 62 0 40 1;
#X connect 63 0 66 0;
#X connect 63 1 76 0;
#X connect 64 0 66 1;
#X connect 65 0 63 0;
#X connect 66 0 29 0;
#X connect 67 0 50 1;
#X connect 68 0 27 0;
#X connect 69 0 46 0;
#X connect 70 0 39 0;
#X connect 72 0 73 0;
#X connect 75 0 79 0;
#X connect 76 0 77 0;
#X connect 77 0 75 0;
#X connect 77 1 78 0;
#X connect 78 0 79 1;
#X connect 79 0 80 0;
#X connect 80 0 81 0;
#X connect 81 0 64 0;
#X connect 82 0 86 0;
#X connect 83 0 84 1;
#X connect 84 0 87 0;
#X connect 85 0 83 0;
#X connect 86 0 84 0;
#X connect 88 0 82 0;
#X connect 89 0 88 1;
#X connect 90 0 93 0;
#X connect 91 0 92 0;
#X connect 92 0 90 0;
#X restore 211 149 pd get-chord-progression;
#N canvas 218 23 918 481 make-chord-variations 0;
#X msg 330 92 clear;
#X obj 319 28 inlet;
#X obj 388 28 inlet;
#X obj 319 48 list prepend;
#X obj 330 71 r reset-analysis;
#X obj 337 119 r chord-variations;
#X obj 124 368 list, f 39;
#X obj 91 167 sel -1;
#X obj 141 346 * 80;
#X text 173 346 velocity;
#X obj 124 189 t b f f f;
#X obj 162 219 +;
#X obj 162 240 sel 2;
#X text 6 243 -1 does nothing...;
#X text 18 262 0 silences what was sounding, f 16;
#X text 12 196 1 activates (and first mutes the previous chord), f
17;
#X obj 91 147 tabread slave-pattern;
#X obj 91 18 r current_step;
#X obj 385 390 list split 1;
#X obj 385 430 s bass;
#X obj 358 348 t l l;
#X obj 319 143 cyclone/coll one;
#C restore;
#X obj 124 390 pdmus/list-dripv;
#X obj 385 369 zexy/sort;
#X obj 124 433 noteout 2;
#X obj 124 411 pack 0 0 2;
#X text 405 49 listas con onset-step y notas del acorde;
#X floatatom 393 412 5 0 0 0 - - -, f 5;
#N canvas 0 89 450 300 former-filter-consecutive-identical-chords 0
;
#X obj 31 26 t l l l, f 23;
#X obj 31 103 spigot;
#X obj 64 82 == 0;
#X obj 64 61 list-abs/list-compare;
#X connect 0 0 1 0;
#X connect 0 1 3 1;
#X connect 0 2 3 0;
#X connect 2 0 1 1;
#X connect 3 0 2 0;
#X restore 539 7 pd former-filter-consecutive-identical-chords;
#X obj 499 220 r chords-octave;
#X obj 499 240 - 8;
#X obj 499 260 abs;
#X obj 499 281 * 12;
#X obj 358 327 pdmus/chord-transpose 60;
#X obj 535 260 r key;
#X obj 535 283 t b f, f 10;
#X obj 499 307 +, f 16;
#X text 691 88 we use the argumentation by Tagg to take the first chord
of the shuttle as "tonic." According to this... it should be quite
easy to obtain the tonic of the shuttle., f 30;
#X text 317 9 chord;
#X text 386 10 onset position.;
#X obj 319 250 pdmus/chord-foldover;
#X obj 91 40 t f f f, f 36;
#X obj 334 186 r register;
#X obj 319 206 f;
#X obj 319 165 t b l, f 20;
#X obj 235 305 list prepend;
#X obj 235 327 s chord-variations;
#X obj 319 272 t l l, f 7;
#X obj 319 228 clip -1 1;
#X obj 162 261 pdmus/midi-panic-ch 2;
#X obj 25 434 s actual-chord;
#X obj 25 412 midi2note;
#X connect 0 0 21 0;
#X connect 1 0 3 0;
#X connect 2 0 3 1;
#X connect 3 0 21 0;
#X connect 4 0 0 0;
#X connect 5 0 21 0;
#X connect 6 0 22 0;
#X connect 6 0 51 0;
#X connect 7 1 10 0;
#X connect 8 0 25 1;
#X connect 10 0 6 0;
#X connect 10 1 8 0;
#X connect 10 2 11 1;
#X connect 10 3 11 0;
#X connect 11 0 12 0;
#X connect 12 0 49 0;
#X connect 16 0 7 0;
#X connect 17 0 41 0;
#X connect 18 0 19 0;
#X connect 18 0 27 0;
#X connect 20 0 6 1;
#X connect 20 1 23 0;
#X connect 21 0 44 0;
#X connect 22 0 25 0;
#X connect 23 0 18 0;
#X connect 25 0 24 0;
#X connect 29 0 30 0;
#X connect 30 0 31 0;
#X connect 31 0 32 0;
#X connect 32 0 36 0;
#X connect 33 0 20 0;
#X connect 34 0 35 0;
#X connect 35 0 36 0;
#X connect 35 1 36 1;
#X connect 36 0 33 1;
#X connect 40 0 47 0;
#X connect 41 0 16 0;
#X connect 41 1 21 0;
#X connect 41 2 45 1;
#X connect 42 0 43 1;
#X connect 43 0 48 0;
#X connect 44 0 43 0;
#X connect 44 1 40 1;
#X connect 45 0 46 0;
#X connect 47 0 45 0;
#X connect 47 1 33 0;
#X connect 48 0 40 0;
#X connect 51 0 50 0;
#X restore 211 169 pd make-chord-variations;
#N canvas 0 22 647 404 reset 0;
#X obj 12 12 r reset-analysis;
#X msg 12 33 0;
#X obj 32 56 s set-range;
#X obj 12 76 s set-activity;
#X msg 275 38 64;
#X obj 275 17 r reset-analysis;
#X obj 275 59 pdmus/forloop;
#X obj 306 150 r reset-analysis;
#X obj 306 192 s bassseq;
#X msg 306 170 const -1;
#X msg 275 81 \; master-chord-fill-\$1 C 66 1 \;;
#X connect 0 0 1 0;
#X connect 1 0 2 0;
#X connect 1 0 3 0;
#X connect 4 0 6 0;
#X connect 5 0 4 0;
#X connect 6 0 10 0;
#X connect 7 0 9 0;
#X connect 9 0 8 0;
#X restore 211 49 pd reset;
#N canvas 9 23 959 586 sequence-visualisation 0;
#N canvas 42 23 242 83 line 0;
#X obj 12 11 struct line float pos float color;
#X obj 12 34 drawpolygon color 1 pos 20 pos 100;
#X restore 404 5 pd line;
#X obj 10 538 set beat x, f 12;
#X obj 10 6 r current_step;
#X obj 10 90 div 4;
#X obj 10 111 change;
#X obj 10 153 + 25;
#X obj 10 132 * 100;
#X obj 52 449 until;
#X msg 91 474 traverse pd-data;
#X obj 52 428 t b b, f 7;
#X msg 52 472 next;
#N canvas 831 269 334 157 beat 0;
#X obj 6 11 struct beat float x;
#X obj 7 35 drawpolygon 222 2 0 20 100 20;
#X obj 7 55 drawpolygon 222 2 0 100 100 100;
#X restore 404 25 pd beat;
#X obj 52 496 pointer beat;
#X obj 52 517 t b p;
#X obj 100 142 pointer;
#X obj 52 46 bng 15 250 50 0 empty empty empty 17 7 0 10 -262144 -1
-1;
#X obj 118 227 * 25;
#X msg 109 108 \; pd-data clear;
#X msg 90 86 traverse pd-data \, bang;
#X obj 118 249 + 25;
#X obj 212 227 mod 4;
#X obj 135 319 append line pos color, f 24;
#X obj 212 248 sel 0, f 6;
#X obj 245 271 t b;
#X obj 165 249 sel 0;
#X msg 165 270 900;
#X obj 165 227 mod 16;
#X msg 104 319 25;
#X obj 52 64 t b b b b, f 10;
#X obj 104 341 append beat x, f 30;
#X msg 245 292 333;
#X msg 212 271 666;
#X obj 52 26 loadbang;
#X obj 71 205 t f f f f, f 24;
#X obj 100 163 s loadpointer;
#X obj 296 292 r loadpointer;
#X obj 71 406 append mchord0 x, f 38;
#X msg 71 385 set mchord\$1 x \, 500;
#X obj 71 227 sel 64;
#X msg 71 163 65;
#X obj 71 298 t b b, f 6;
#X obj 404 45 master-chord-structure 0;
#X msg 71 319 64;
#X obj 71 184 pdmus/forloop 0;
#X obj 71 363 pdmus/forloop;
#X obj 577 445 master-chord-structure 49;
#X obj 404 545 master-chord-structure 63;
#X obj 404 165 master-chord-structure 6;
#X obj 404 85 master-chord-structure 2;
#X obj 404 65 master-chord-structure 1;
#X obj 404 105 master-chord-structure 3;
#X obj 404 125 master-chord-structure 4;
#X obj 404 145 master-chord-structure 5;
#X obj 404 185 master-chord-structure 7;
#X obj 404 225 master-chord-structure 9;
#X obj 404 205 master-chord-structure 8;
#X obj 577 45 master-chord-structure 10;
#X obj 577 65 master-chord-structure 11;
#X obj 577 85 master-chord-structure 12;
#X obj 577 105 master-chord-structure 13;
#X obj 577 125 master-chord-structure 14;
#X obj 577 145 master-chord-structure 15;
#X obj 577 165 master-chord-structure 16;
#X obj 577 185 master-chord-structure 17;
#X obj 577 205 master-chord-structure 18;
#X obj 577 225 master-chord-structure 19;
#X obj 754 45 master-chord-structure 20;
#X obj 754 65 master-chord-structure 21;
#X obj 754 85 master-chord-structure 22;
#X obj 754 105 master-chord-structure 23;
#X obj 754 125 master-chord-structure 24;
#X obj 754 145 master-chord-structure 25;
#X obj 754 165 master-chord-structure 26;
#X obj 754 185 master-chord-structure 27;
#X obj 754 205 master-chord-structure 28;
#X obj 754 225 master-chord-structure 29;
#X obj 404 265 master-chord-structure 30;
#X obj 404 285 master-chord-structure 31;
#X obj 404 305 master-chord-structure 32;
#X obj 404 325 master-chord-structure 33;
#X obj 404 345 master-chord-structure 34;
#X obj 404 365 master-chord-structure 35;
#X obj 404 385 master-chord-structure 36;
#X obj 404 405 master-chord-structure 37;
#X obj 404 425 master-chord-structure 38;
#X obj 404 445 master-chord-structure 39;
#X obj 577 265 master-chord-structure 40;
#X obj 577 285 master-chord-structure 41;
#X obj 577 305 master-chord-structure 42;
#X obj 577 325 master-chord-structure 43;
#X obj 577 345 master-chord-structure 44;
#X obj 577 365 master-chord-structure 45;
#X obj 577 385 master-chord-structure 46;
#X obj 577 405 master-chord-structure 47;
#X obj 577 425 master-chord-structure 48;
#X obj 754 445 master-chord-structure 59;
#X obj 754 425 master-chord-structure 58;
#X obj 754 405 master-chord-structure 57;
#X obj 754 385 master-chord-structure 56;
#X obj 754 365 master-chord-structure 55;
#X obj 754 345 master-chord-structure 54;
#X obj 754 325 master-chord-structure 53;
#X obj 754 305 master-chord-structure 52;
#X obj 754 285 master-chord-structure 51;
#X obj 754 265 master-chord-structure 50;
#X obj 404 485 master-chord-structure 60;
#X obj 404 505 master-chord-structure 61;
#X obj 404 525 master-chord-structure 62;
#X connect 2 0 3 0;
#X connect 3 0 4 0;
#X connect 4 0 6 0;
#X connect 5 0 1 0;
#X connect 6 0 5 0;
#X connect 7 0 10 0;
#X connect 8 0 12 0;
#X connect 9 0 7 0;
#X connect 9 1 8 0;
#X connect 10 0 12 0;
#X connect 12 0 13 0;
#X connect 13 0 7 1;
#X connect 13 1 1 1;
#X connect 14 0 34 0;
#X connect 15 0 28 0;
#X connect 16 0 19 0;
#X connect 17 0 14 0;
#X connect 18 0 14 0;
#X connect 19 0 21 0;
#X connect 20 0 22 0;
#X connect 22 0 31 0;
#X connect 22 1 23 0;
#X connect 23 0 30 0;
#X connect 24 0 25 0;
#X connect 25 0 21 1;
#X connect 26 0 24 0;
#X connect 27 0 29 0;
#X connect 28 0 9 0;
#X connect 28 1 39 0;
#X connect 28 2 18 0;
#X connect 28 3 17 0;
#X connect 30 0 21 1;
#X connect 31 0 21 1;
#X connect 32 0 15 0;
#X connect 33 0 38 0;
#X connect 33 1 16 0;
#X connect 33 2 26 0;
#X connect 33 3 20 0;
#X connect 35 0 21 2;
#X connect 35 0 29 1;
#X connect 35 0 36 1;
#X connect 37 0 36 0;
#X connect 38 0 40 0;
#X connect 39 0 43 0;
#X connect 40 0 42 0;
#X connect 40 1 27 0;
#X connect 42 0 44 0;
#X connect 43 0 33 0;
#X connect 44 0 37 0;
#X restore 211 109 pd sequence-visualisation;
#X text 151 433 save patch on midi learn!;
#N canvas 0 23 418 684 bass 0;
#X obj 112 8 r onsets-bass;
#X obj 13 9 r bass-density;
#X obj 117 610 poly 1 1, f 24;
#X obj 187 632 noteout 1, f 24;
#N canvas 0 23 691 699 salience 0;
#X obj 24 17 inlet;
#X obj 41 132 list split 1;
#X obj 110 188 list split 1;
#X obj 68 211 == 1;
#X obj 102 211 == 0;
#X obj 68 235 &&;
#X obj 104 168 list;
#X obj 41 151 t b f;
#X obj 74 87 list split 1;
#X obj 40 114 list append;
#X obj 147 395 list;
#X obj 23 459 list;
#X obj 69 395 list prepend;
#X obj 23 527 list split 1;
#X msg 240 181 bang;
#X obj 128 493 list length;
#X obj 23 476 t a a;
#X obj 128 510 - 1;
#X obj 125 301 f;
#X obj 160 300 + 1;
#X msg 352 162 0;
#X obj 23 37 t b a a b b;
#X msg 125 282 bang;
#X obj 68 265 t f f;
#N canvas 0 50 450 300 (subpatch) 0;
#X array salience 16 float 1;
#A 0 -1 4 -3 6 -6 0.5 -6.5 1 -6 0.5 -6.5 1 -4 1.5 -5.5 3;
#X coords 0 4 15 -4 200 140 1 0 0;
#X restore 421 174 graph;
#X msg 365 326 \; salience 0 4 -1 1 -2 2 -1 1 -3 3 -1 1 -2 2 -1 1 -4
;
#X obj 125 319 tabread salience;
#X obj 68 336 *;
#X obj 69 375 int;
#X obj 23 581 outlet;
#X text 290 33 find the salient notes of a rhythmic phrase;
#X obj 68 356 * -1;
#X obj 244 541 outlet;
#X text 28 598 todos;
#X text 225 558 solo positivos;
#X text 224 572 (syncopations);
#X obj 451 537 outlet;
#X text 432 554 solo negativos;
#X text 434 572 (reinforcements);
#X obj 351 426 list;
#X obj 244 445 list;
#X obj 265 426 list prepend;
#X obj 244 515 list split 1;
#X obj 349 481 list length;
#X obj 244 464 t a a;
#X obj 349 498 - 1;
#X obj 265 393 moses 0;
#X obj 23 428 t b b b;
#X msg 225 407 0;
#X connect 0 0 21 0;
#X connect 1 0 7 0;
#X connect 1 1 2 0;
#X connect 1 1 6 1;
#X connect 2 0 4 0;
#X connect 3 0 5 0;
#X connect 4 0 5 1;
#X connect 5 0 23 0;
#X connect 6 0 1 0;
#X connect 7 0 6 0;
#X connect 7 1 3 0;
#X connect 8 0 9 1;
#X connect 9 0 1 0;
#X connect 10 0 12 1;
#X connect 11 0 16 0;
#X connect 12 0 10 0;
#X connect 12 0 11 1;
#X connect 13 0 29 0;
#X connect 14 0 12 1;
#X connect 14 0 41 1;
#X connect 15 0 17 0;
#X connect 16 0 13 0;
#X connect 16 1 15 0;
#X connect 17 0 13 1;
#X connect 18 0 19 0;
#X connect 18 0 26 0;
#X connect 19 0 18 1;
#X connect 20 0 18 1;
#X connect 21 0 47 0;
#X connect 21 1 9 0;
#X connect 21 2 8 0;
#X connect 21 3 14 0;
#X connect 21 4 20 0;
#X connect 22 0 18 0;
#X connect 23 0 27 0;
#X connect 23 1 22 0;
#X connect 26 0 27 1;
#X connect 27 0 31 0;
#X connect 28 0 12 0;
#X connect 28 0 46 0;
#X connect 31 0 28 0;
#X connect 39 0 41 1;
#X connect 40 0 44 0;
#X connect 41 0 39 0;
#X connect 41 0 40 1;
#X connect 42 0 32 0;
#X connect 43 0 45 0;
#X connect 44 0 42 0;
#X connect 44 1 43 0;
#X connect 45 0 42 1;
#X connect 46 0 48 0;
#X connect 46 1 41 0;
#X connect 47 0 11 0;
#X connect 47 1 40 0;
#X connect 48 0 41 0;
#X restore 13 75 pd salience;
#N canvas 264 140 857 503 calculate 0;
#X obj 334 173 list split 1;
#X obj 334 194 t b a;
#X obj 377 212 list;
#X obj 420 258 f;
#X obj 442 258 + 1;
#X msg 436 169 0;
#X obj 366 241 t f b;
#X obj 350 283 sel 0;
#X obj 474 279 t f f;
#X obj 378 327 +;
#X obj 231 87 t b a b b;
#X obj 214 263 t f f;
#X obj 232 50 inlet;
#X text 431 16 use the values of the most salien notes and the values
of the L profile and set an experimental velocity value for the notes.
This highlights the accents (theoretical) plus the syncopations found
on the pattern.;
#X obj 58 415 t f f;
#X obj 58 476 tabwrite velocity;
#X obj 126 170 t b b b;
#X obj 58 456 pow;
#X obj 506 404 inlet;
#X obj 214 304 + 2;
#X obj 393 307 tabread vel;
#X obj 378 351 tabwrite vel;
#X obj 214 283 tabread vel;
#X obj 214 324 tabwrite vel;
#X obj 59 435 tabread vel;
#X obj 506 424 t b f;
#X msg 145 347 \; vel normalize 1;
#X msg 369 104 \; vel 0 2 0 1 0 2 0 1 0 2 0 1 0 2 0 1 0;
#X obj 58 394 pdmus/forloop;
#X obj 214 240 pdmus/forloop;
#X obj 555 218 table vel 16;
#X msg 58 373 16;
#X msg 214 211 16;
#X connect 0 0 1 0;
#X connect 0 1 2 1;
#X connect 1 0 2 0;
#X connect 1 1 6 0;
#X connect 2 0 0 0;
#X connect 3 0 4 0;
#X connect 3 0 8 0;
#X connect 4 0 3 1;
#X connect 5 0 3 1;
#X connect 6 0 7 0;
#X connect 6 1 3 0;
#X connect 7 1 9 0;
#X connect 8 0 20 0;
#X connect 8 1 21 1;
#X connect 9 0 21 0;
#X connect 10 0 16 0;
#X connect 10 1 0 0;
#X connect 10 2 5 0;
#X connect 10 2 2 1;
#X connect 10 3 27 0;
#X connect 11 0 22 0;
#X connect 11 1 23 1;
#X connect 12 0 10 0;
#X connect 14 0 24 0;
#X connect 14 1 15 1;
#X connect 16 0 31 0;
#X connect 16 1 26 0;
#X connect 16 2 32 0;
#X connect 17 0 15 0;
#X connect 18 0 25 0;
#X connect 19 0 23 0;
#X connect 20 0 9 1;
#X connect 22 0 19 0;
#X connect 24 0 17 0;
#X connect 25 0 31 0;
#X connect 25 1 17 1;
#X connect 28 0 14 0;
#X connect 29 0 11 0;
#X connect 31 0 28 0;
#X connect 32 0 29 0;
#X restore 44 155 pd calculate velocity;
#X obj 184 155 table velocity 16;
#X obj 167 132 r bass-velocity;
#X obj 22 53 zexy/tabset riddm;
#X text 101 72 calculate the salience of a sequence. Outputs are (allnotes
\, only syncopations \, only reinforcements), f 36;
#X obj 16 453 tabread riddm;
#X obj 16 474 sel 1;
#X obj 103 454 tabread velocity;
#X obj 16 412 t f f, f 15;
#X obj 16 495 f, f 15;
#X obj 16 564 f, f 35;
#X obj 16 538 t b f, f 29;
#X obj 258 436 r tempo;
#X obj 258 458 * 4;
#X msg 258 479 60000 \$1;
#X obj 258 500 /;
#X obj 265 522 r bass-duration;
#X obj 265 545 t b f;
#X obj 258 567 * 1, f 6;
#X obj 16 190 r current_step;
#X obj 204 276 r bass-octave;
#X obj 204 338 * 12;
#X obj 117 588 makenote 127 300, f 24;
#X obj 16 212 t f f f, f 42;
#X obj 173 381 + 24, f 6;
#X obj 204 316 abs;
#X obj 16 516 int;
#X obj 13 30 populate-rhythm64;
#X obj 132 53 table riddm 64;
#X obj 140 234 tabread bassseq;
#X obj 204 296 - 3;
#X obj 204 361 + 12;
#X obj 103 433 mod 16;
#X obj 103 475 * 120;
#X obj 140 256 sel -1;
#X obj 188 256 r key;
#X obj 173 276 +;
#X obj 223 433 + 0, f 4;
#X obj 173 402 + 5;
#X obj 292 321 t b f;
#X obj 292 297 * 12;
#X obj 292 276 mod 2;
#X obj 61 321 r mute-bass;
#X obj 61 343 - 1;
#X obj 61 365 abs;
#X obj 16 388 spigot 1;
#X obj 278 212 table bassseq 64;
#X connect 0 0 32 1;
#X connect 1 0 32 0;
#X connect 2 1 3 0;
#X connect 2 2 3 1;
#X connect 4 1 5 0;
#X connect 7 0 5 1;
#X connect 10 0 11 0;
#X connect 11 0 14 0;
#X connect 12 0 38 0;
#X connect 13 0 10 0;
#X connect 13 1 37 0;
#X connect 14 0 31 0;
#X connect 15 0 27 0;
#X connect 16 0 15 0;
#X connect 16 1 27 1;
#X connect 17 0 18 0;
#X connect 18 0 19 0;
#X connect 19 0 20 0;
#X connect 20 0 23 0;
#X connect 21 0 22 0;
#X connect 22 0 23 0;
#X connect 22 1 23 1;
#X connect 23 0 27 2;
#X connect 24 0 28 0;
#X connect 25 0 35 0;
#X connect 26 0 36 0;
#X connect 27 0 2 0;
#X connect 27 1 2 1;
#X connect 28 0 50 0;
#X connect 28 1 34 0;
#X connect 28 2 46 0;
#X connect 29 0 43 0;
#X connect 30 0 26 0;
#X connect 31 0 16 0;
#X connect 32 0 8 0;
#X connect 32 0 4 0;
#X connect 34 0 39 0;
#X connect 35 0 30 0;
#X connect 36 0 29 1;
#X connect 37 0 12 0;
#X connect 38 0 14 1;
#X connect 39 1 41 0;
#X connect 40 0 41 1;
#X connect 41 0 29 0;
#X connect 42 0 15 1;
#X connect 43 0 42 0;
#X connect 44 0 42 0;
#X connect 44 1 42 1;
#X connect 45 0 44 0;
#X connect 46 0 45 0;
#X connect 47 0 48 0;
#X connect 48 0 49 0;
#X connect 49 0 50 1;
#X connect 50 0 13 0;
#X restore 211 269 pd bass;
#X obj 211 9 declare -path abs;
#X obj 5 297 staff;
#X obj 5 275 r actual-chord;
#X text 285 229 do something!;
#X connect 1 0 19 0;
#X connect 19 0 20 0;
#X connect 19 1 20 1;
#X connect 27 0 26 0;
#X restore 744 -3 pd patch;
#X obj -4 -3 cnv 15 800 425 empty \$0-title HOUSE HARMONIC FILLER 20
18 0 20 -128992 -258699 0;
#X obj 25 85 bng 24 250 50 0 scroll-up set-scroll-up up 5 -10 1 12
-66577 -258113 -228856;
#X obj 51 101 bng 8 250 50 0 learn-scrollup --- empty 17 7 0 10 -258113
-1 -1;
#X obj 25 132 bng 24 250 50 0 scroll-down set-scroll-down down -2 -8
1 12 -66577 -258113 -228856;
#X obj 51 148 bng 8 250 50 0 learn-scrolldown --- empty 17 7 0 10 -258113
-1 -1;
#X obj 307 30 cnv 15 250 5 empty empty CHORDS 5 12 0 20 -128992 -228856
0;
#X obj 325 87 vsl 24 180 1 64 0 1 raw-density set-density density -8
-12 1 12 -66577 -258113 -228856 568 1;
#X obj 351 262 bng 8 250 50 0 learn-density --- empty 17 7 0 10 -258113
-1 -1;
#X obj 368 87 vsl 24 180 1 66 0 1 raw-legato set-legato legato -6 -12
1 12 -66577 -258113 -228856 17349 0;
#X obj 458 87 vsl 24 180 -3 3 0 0 raw-register set-register register
-9 -12 1 12 -66577 -258113 -228856 8950 0;
#X obj 501 87 vsl 24 180 0 3.9 0 0 raw-range set-range spread -5 -12
1 12 -66577 -258113 -228856 0 1;
#X obj 394 262 bng 8 250 50 0 learn-legato --- empty 17 7 0 10 -258113
-1 -1;
#X obj 527 262 bng 8 250 50 0 learn-range --- empty 17 7 0 10 -258113
-1 -1;
#X obj 484 262 bng 8 250 50 0 learn-register --- empty 17 7 0 10 -258113
-1 -1;
#X obj 578 30 cnv 15 100 20 empty empty BASS 5 12 0 20 -128992 -228856
0;
#X obj 592 87 vsl 24 180 0 64 0 0 bass-density set-bass-density density
-8 -12 1 12 -66577 -258113 -228856 17900 1;
#X obj 635 87 vsl 24 180 0.2 16 0 0 bass-duration set-bass-duration
length -5 -12 1 12 -66577 -258113 -228856 0 1;
#X obj 678 87 vsl 24 180 0.125 1 0 0 bass-velocity set-bass-velocity
accents -10 -12 1 12 -66577 -258113 -228856 0 1;
#X obj 721 174 vradio 24 1 0 4 bass-octave set-bass-octave octave -6
-12 1 12 -66577 -258113 -228856 3;
#X obj 618 262 bng 8 250 50 0 learn-bass-density --- empty 17 7 0 10
-258113 -1 -1;
#X obj 661 262 bng 8 250 50 0 learn-bass-duration --- empty 17 7 0
10 -258113 -1 -1;
#X obj 704 262 bng 8 250 50 0 learn-bass-accents --- empty 17 7 0 10
-258113 -1 -1;
#X obj 747 262 bng 8 250 50 0 learn-bass-octave --- empty 17 7 0 10
-258113 -1 -1;
#X obj 81 85 tgl 24 0 clock-mode set-clock-mode ext-sync -7 -8 1 12
-66577 -258113 -228856 1 1;
#X obj 18 30 cnv 15 100 20 empty empty GENERAL 5 12 0 20 -128992 -228856
0;
#N canvas 0 50 959 334 data 0;
#X scalar mchord0 1675 25 C \;;
#X scalar mchord1 1675 25 C \;;
#X scalar mchord2 1675 25 C \;;
#X scalar mchord3 1675 25 C \;;
#X scalar mchord4 1675 25 C \;;
#X scalar mchord5 1675 25 C \;;
#X scalar mchord6 1675 25 C \;;
#X scalar mchord7 1675 25 C \;;
#X scalar mchord8 1675 25 C \;;
#X scalar mchord9 1675 25 C \;;
#X scalar mchord10 1675 25 C \;;
#X scalar mchord11 1675 25 C \;;
#X scalar mchord12 1675 25 C \;;
#X scalar mchord13 1675 25 C \;;
#X scalar mchord14 1675 25 C \;;
#X scalar mchord15 1675 25 C \;;
#X scalar mchord16 1675 25 C \;;
#X scalar mchord17 1675 25 C \;;
#X scalar mchord18 1675 25 C \;;
#X scalar mchord19 1675 25 C \;;
#X scalar mchord20 25 375 Imaj7 \;;
#X scalar mchord21 425 375 bVIImaj7 \;;
#X scalar mchord22 825 775 VImaj7 \;;
#X scalar mchord23 1675 25 C \;;
#X scalar mchord24 1675 25 C \;;
#X scalar mchord25 1675 25 C \;;
#X scalar mchord26 1675 25 C \;;
#X scalar mchord27 1675 25 C \;;
#X scalar mchord28 1675 25 C \;;
#X scalar mchord29 1675 25 C \;;
#X scalar mchord30 1675 25 C \;;
#X scalar mchord31 1675 25 C \;;
#X scalar mchord32 1675 25 C \;;
#X scalar mchord33 1675 25 C \;;
#X scalar mchord34 1675 25 C \;;
#X scalar mchord35 1675 25 C \;;
#X scalar mchord36 1675 25 C \;;
#X scalar mchord37 1675 25 C \;;
#X scalar mchord38 1675 25 C \;;
#X scalar mchord39 1675 25 C \;;
#X scalar mchord40 1675 25 C \;;
#X scalar mchord41 1675 25 C \;;
#X scalar mchord42 1675 25 C \;;
#X scalar mchord43 1675 25 C \;;
#X scalar mchord44 1675 25 C \;;
#X scalar mchord45 1675 25 C \;;
#X scalar mchord46 1675 25 C \;;
#X scalar mchord47 1675 25 C \;;
#X scalar mchord48 1675 25 C \;;
#X scalar mchord49 1675 25 C \;;
#X scalar mchord50 1675 25 C \;;
#X scalar mchord51 1675 25 C \;;
#X scalar mchord52 1675 25 C \;;
#X scalar mchord53 1675 25 C \;;
#X scalar mchord54 1675 25 C \;;
#X scalar mchord55 1675 25 C \;;
#X scalar mchord56 1675 25 C \;;
#X scalar mchord57 1675 25 C \;;
#X scalar mchord58 1675 25 C \;;
#X scalar mchord59 1675 25 C \;;
#X scalar mchord60 1675 25 C \;;
#X scalar mchord61 1675 25 C \;;
#X scalar mchord62 1675 25 C \;;
#X scalar mchord63 1675 25 C \;;
#X scalar beat 1525 \;;
#X scalar line 25 900 \;;
#X scalar line 50 333 \;;
#X scalar line 75 333 \;;
#X scalar line 100 333 \;;
#X scalar line 125 666 \;;
#X scalar line 150 333 \;;
#X scalar line 175 333 \;;
#X scalar line 200 333 \;;
#X scalar line 225 666 \;;
#X scalar line 250 333 \;;
#X scalar line 275 333 \;;
#X scalar line 300 333 \;;
#X scalar line 325 666 \;;
#X scalar line 350 333 \;;
#X scalar line 375 333 \;;
#X scalar line 400 333 \;;
#X scalar line 425 900 \;;
#X scalar line 450 333 \;;
#X scalar line 475 333 \;;
#X scalar line 500 333 \;;
#X scalar line 525 666 \;;
#X scalar line 550 333 \;;
#X scalar line 575 333 \;;
#X scalar line 600 333 \;;
#X scalar line 625 666 \;;
#X scalar line 650 333 \;;
#X scalar line 675 333 \;;
#X scalar line 700 333 \;;
#X scalar line 725 666 \;;
#X scalar line 750 333 \;;
#X scalar line 775 333 \;;
#X scalar line 800 333 \;;
#X scalar line 825 900 \;;
#X scalar line 850 333 \;;
#X scalar line 875 333 \;;
#X scalar line 900 333 \;;
#X scalar line 925 666 \;;
#X scalar line 950 333 \;;
#X scalar line 975 333 \;;
#X scalar line 1000 333 \;;
#X scalar line 1025 666 \;;
#X scalar line 1050 333 \;;
#X scalar line 1075 333 \;;
#X scalar line 1100 333 \;;
#X scalar line 1125 666 \;;
#X scalar line 1150 333 \;;
#X scalar line 1175 333 \;;
#X scalar line 1200 333 \;;
#X scalar line 1225 900 \;;
#X scalar line 1250 333 \;;
#X scalar line 1275 333 \;;
#X scalar line 1300 333 \;;
#X scalar line 1325 666 \;;
#X scalar line 1350 333 \;;
#X scalar line 1375 333 \;;
#X scalar line 1400 333 \;;
#X scalar line 1425 666 \;;
#X scalar line 1450 333 \;;
#X scalar line 1475 333 \;;
#X scalar line 1500 333 \;;
#X scalar line 1525 666 \;;
#X scalar line 1550 333 \;;
#X scalar line 1575 333 \;;
#X scalar line 1600 333 \;;
#X scalar line 1625 900 \;;
#X coords 0 0 1650 120 800 120 2 0 0;
#X restore -4 302 pd data;
#X obj 147 84 nbx 3 24 40 239 0 0 tempo set-tempo bpm 0 -8 1 12 -128992
-258699 -166441 120 256;
#X obj 192 100 bng 8 250 50 0 learn-tempo --- empty 17 7 0 10 -258113
-1 -1;
#X obj 107 101 bng 8 250 50 0 learn-sync --- empty 17 7 0 10 -258113
-1 -1;
#X obj 414 86 vradio 23 1 0 8 chords-octave set-chords-octave octave
-6 -10 1 12 -66577 -258113 -228856 3;
#X obj 439 262 bng 8 250 50 0 learn-chords-octave --- empty 17 7 0
10 -258113 -1 -1;
#N canvas 423 94 275 305 fifths 0;
#X obj 33 29 flatgui/knob 65 65 0.5 12.5 0 0 key-fifths set-keyfifths
key -20 -5 1 12 -258113 -258113 -228856 4267 1;
#X text 58 14 C;
#X text 77 18 G;
#X text 92 31 D;
#X text 42 20 F;
#X text 22 33 Bb;
#X text 16 50 Eb;
#X text 19 69 Ab;
#X text 34 86 Db;
#X text 51 94 Gb;
#X text 67 94 F#;
#X text 100 49 A;
#X text 98 67 E;
#X text 89 83 B;
#X obj 10 174 int;
#X obj 10 194 change;
#X obj 10 236 s key;
#X obj 10 152 r key-fifths;
#N canvas 0 89 450 218 fifhts2secs 0;
#X obj 30 15 inlet;
#X obj 30 170 outlet;
#X msg 30 77 -6;
#X msg 60 77 1;
#X msg 120 77 3;
#X msg 150 77 -2;
#X msg 180 77 5;
#X msg 90 77 -4;
#X obj 30 40 sel 0 1 2 3 4 5 6 7 8 9 10 11 12, f 51;
#X msg 390 77 6;
#X msg 360 77 -1;
#X msg 330 77 4;
#X msg 300 77 -3;
#X msg 270 77 2;
#X msg 240 77 -5;
#X msg 210 77 0;
#X connect 0 0 8 0;
#X connect 2 0 1 0;
#X connect 3 0 1 0;
#X connect 4 0 1 0;
#X connect 5 0 1 0;
#X connect 6 0 1 0;
#X connect 7 0 1 0;
#X connect 8 0 2 0;
#X connect 8 1 3 0;
#X connect 8 2 7 0;
#X connect 8 3 4 0;
#X connect 8 4 5 0;
#X connect 8 5 6 0;
#X connect 8 6 15 0;
#X connect 8 7 14 0;
#X connect 8 8 13 0;
#X connect 8 9 12 0;
#X connect 8 10 11 0;
#X connect 8 11 10 0;
#X connect 8 12 9 0;
#X connect 9 0 1 0;
#X connect 10 0 1 0;
#X connect 11 0 1 0;
#X connect 12 0 1 0;
#X connect 13 0 1 0;
#X connect 14 0 1 0;
#X connect 15 0 1 0;
#X restore 10 215 pd fifhts2secs;
#X msg 123 235 set \$1;
#N canvas 360 412 457 218 sec2fifthvis 0;
#X obj 10 7 inlet;
#X obj 10 162 outlet;
#X obj 10 32 sel 0 1 2 3 4 5 6 7 8 9 10 11 12, f 51;
#X msg 10 69 0.5;
#X msg 40 69 7.5;
#X msg 70 69 2.5;
#X msg 100 69 9.5;
#X msg 130 69 4.5;
#X msg 160 69 11.5;
#X msg 196 69 6.5;
#X msg 226 69 1.5;
#X msg 256 69 8.5;
#X msg 286 69 3.5;
#X msg 316 69 10.5;
#X msg 346 69 5.5;
#X msg 376 69 12.5;
#X connect 0 0 2 0;
#X connect 2 0 3 0;
#X connect 2 1 4 0;
#X connect 2 2 5 0;
#X connect 2 3 6 0;
#X connect 2 4 7 0;
#X connect 2 5 8 0;
#X connect 2 6 9 0;
#X connect 2 7 10 0;
#X connect 2 8 11 0;
#X connect 2 9 12 0;
#X connect 2 10 13 0;
#X connect 2 11 14 0;
#X connect 2 12 15 0;
#X connect 3 0 1 0;
#X connect 4 0 1 0;
#X connect 5 0 1 0;
#X connect 6 0 1 0;
#X connect 7 0 1 0;
#X connect 8 0 1 0;
#X connect 9 0 1 0;
#X connect 10 0 1 0;
#X connect 11 0 1 0;
#X connect 12 0 1 0;
#X connect 13 0 1 0;
#X connect 14 0 1 0;
#X connect 15 0 1 0;
#X restore 123 170 pd sec2fifthvis;
#X obj 123 257 s set-keyseconds;
#X obj 123 214 line;
#X msg 123 191 \$1 150;
#X connect 14 0 15 0;
#X connect 14 0 20 0;
#X connect 15 0 18 0;
#X connect 17 0 14 0;
#X connect 18 0 16 0;
#X connect 19 0 21 0;
#X connect 20 0 23 0;
#X connect 22 0 19 0;
#X connect 23 0 22 0;
#X coords 0 -1 1 1 105 105 2 10 10;
#X restore 25 165 pd fifths;
#N canvas 79 87 330 327 seconds 0;
#X obj 30 29 flatgui/knob 65 65 0.5 12.5 0 0 key-seconds set-keyseconds
key -18 -5 1 12 -258113 -258113 -228856 4200 1;
#X text 57 13 C;
#X text 92 33 D;
#X text 21 30 Bb;
#X text 16 69 Ab;
#X text 46 94 Gb;
#X text 65 94 F#;
#X text 96 67 E;
#X text 74 17 Db;
#X text 96 49 Eb;
#X text 85 85 F;
#X text 40 18 B;
#X text 17 49 A;
#X text 33 87 G;
#X obj 10 131 r key-seconds;
#X obj 10 174 int;
#X obj 10 195 change;
#N canvas 407 159 401 218 seconds 0;
#X obj 10 7 inlet;
#X obj 10 162 outlet;
#X msg 10 69 -6;
#X msg 130 69 -2;
#X msg 70 69 -4;
#X obj 10 32 sel 0 1 2 3 4 5 6 7 8 9 10 11 12, f 51;
#X msg 310 69 4;
#X msg 250 69 2;
#X msg 190 69 0;
#X msg 40 69 -5;
#X msg 100 69 -3;
#X msg 160 69 -1;
#X msg 220 69 1;
#X msg 280 69 3;
#X msg 340 69 5;
#X msg 370 69 6;
#X connect 0 0 5 0;
#X connect 2 0 1 0;
#X connect 3 0 1 0;
#X connect 4 0 1 0;
#X connect 5 0 2 0;
#X connect 5 1 9 0;
#X connect 5 2 4 0;
#X connect 5 3 10 0;
#X connect 5 4 3 0;
#X connect 5 5 11 0;
#X connect 5 6 8 0;
#X connect 5 7 12 0;
#X connect 5 8 7 0;
#X connect 5 9 13 0;
#X connect 5 10 6 0;
#X connect 5 11 14 0;
#X connect 5 12 15 0;
#X connect 6 0 1 0;
#X connect 7 0 1 0;
#X connect 8 0 1 0;
#X connect 9 0 1 0;
#X connect 10 0 1 0;
#X connect 11 0 1 0;
#X connect 12 0 1 0;
#X connect 13 0 1 0;
#X connect 14 0 1 0;
#X connect 15 0 1 0;
#X restore 10 235 pd seconds;
#X obj 10 256 s key;
#X obj 87 279 s set-keyfifths;
#X msg 87 257 set \$1;
#N canvas 360 412 457 218 sec2fifth 0;
#X obj 10 7 inlet;
#X obj 10 162 outlet;
#X obj 10 32 sel 0 1 2 3 4 5 6 7 8 9 10 11 12, f 51;
#X msg 10 69 0.5;
#X msg 40 69 7.5;
#X msg 70 69 2.5;
#X msg 100 69 9.5;
#X msg 130 69 4.5;
#X msg 160 69 11.5;
#X msg 196 69 6.5;
#X msg 226 69 1.5;
#X msg 256 69 8.5;
#X msg 286 69 3.5;
#X msg 316 69 10.5;
#X msg 346 69 5.5;
#X msg 376 69 12.5;
#X connect 0 0 2 0;
#X connect 2 0 3 0;
#X connect 2 1 4 0;
#X connect 2 2 5 0;
#X connect 2 3 6 0;
#X connect 2 4 7 0;
#X connect 2 5 8 0;
#X connect 2 6 9 0;
#X connect 2 7 10 0;
#X connect 2 8 11 0;
#X connect 2 9 12 0;
#X connect 2 10 13 0;
#X connect 2 11 14 0;
#X connect 2 12 15 0;
#X connect 3 0 1 0;
#X connect 4 0 1 0;
#X connect 5 0 1 0;
#X connect 6 0 1 0;
#X connect 7 0 1 0;
#X connect 8 0 1 0;
#X connect 9 0 1 0;
#X connect 10 0 1 0;
#X connect 11 0 1 0;
#X connect 12 0 1 0;
#X connect 13 0 1 0;
#X connect 14 0 1 0;
#X connect 15 0 1 0;
#X restore 87 188 pd sec2fifth;
#X obj 87 234 line;
#X msg 87 211 \$1 150;
#X connect 14 0 15 0;
#X connect 15 0 16 0;
#X connect 16 0 17 0;
#X connect 16 0 21 0;
#X connect 17 0 18 0;
#X connect 20 0 19 0;
#X connect 21 0 23 0;
#X connect 22 0 20 0;
#X connect 23 0 22 0;
#X coords 0 -1 1 1 105 105 2 10 10;
#X restore 147 165 pd seconds;
#X obj 132 262 bng 8 250 50 0 learn-key5 --- empty 17 7 0 10 -258113
-1 -1;
#X obj 254 262 bng 8 250 50 0 learn-key2 --- empty 17 7 0 10 -258113
-1 -1;
#X obj 129 133 flatgui/popup 124 25 #808080 chord-seq I-bVIImaj7-Im9-IIm9
I9-bVIImaj9-Vm11-bIIIm9 Iadd9-VIm7-IV6-Iadd9 Im-Im-bIIImaj7-bIIImaj7
Im-VIIm7-VIm7-Vmaj7 Im-bVII-bIII-bVII Im7-VIm7-IV-bVIIsus4 Im7-Vm11-VImaj9
Im7-Vm7-bVIIm7-IVm7 Im7-bVIIm7-Vsus4-bVIIm7 Im9-IV13-bVIm7-Vm7 Im9-IV13-bVIm9-bII9
Im9-bIIIm7-IVadd9-Bm7 Im9-bIIImaj9-IIm9-bIIb9 Im9-bIImaj9-bIIIm9-bVI13-bIIm9
Im9-bVII13-bIImaj9-bIIImaj7 Im9-bVIIm9-bIIm9-bIIIm9 Im9-bVIIm9-bIIm9
Im9-bVIIm9-bVImaj7 Im9-bVIadd9-VIm9 Imaj7-IIIm7-VIImaj7-Imaj7 Imaj7-VIImaj7-Vmaj7-IVmaj7
Imaj7-VIImaj7-bVIImaj7 Imaj7-bIIm7-bVIm-bVIm7 Imaj9-IIIm11-IVmaj9 Imaj9-VIm9-Im9-Vm11
Imin11-bVII9-Imin11;
#X obj 129 140 r list-of-files;
#X obj 129 140 s sequence-file;
#X obj 81 132 bng 24 250 50 0 load-folder set-load-folder folder -3
-10 1 12 -66577 -258113 -228856;
#X obj 130 136 s index;
#X obj 121 110 cnv 15 150 50 empty empty sequence 5 12 1 12 -128992
-228856 0;
#X obj 210 84 tgl 42 0 play set-play play 0 -10 1 12 -128992 -128992
-166441 1 1;
#X obj 254 118 bng 8 250 50 0 learn-play --- empty 17 7 0 10 -258113
-1 -1;
#X text 460 195 ___;
#X text 460 205 ___;
#X text 460 215 ___;
#X text 460 225 ___;
#X text 460 235 ___;
#X text 460 185 ___;
#X text 460 175 ___;
#X text 460 165 ___;
#X text 460 155 ___;
#X text 460 145 ___;
#X text 460 135 ___;
#X text 460 125 ___;
#X text 460 115 ___;
#X text 460 105 ___;
#X text 460 95 ___;
#X text 460 85 ___;
#X text 460 245 ___;
#X obj 721 85 tgl 24 0 mute-bass set-mute-bass mute -1 -10 1 12 -66577
-258113 -228856 0 1;
#X obj 747 101 bng 8 250 50 0 learn-mute-bass --- empty 17 7 0 10 -258113
-1 -1;
#X connect 36 0 40 0;
#X connect 36 1 38 0;
#X connect 37 0 36 0;
