#N canvas 176 486 293 263 10;
#X declare -path ./abs;
#X declare -lib jasch_lib -lib mrpeach;
#X obj -370 -353 cnv 15 290 260 empty empty empty 20 12 0 14 -232576
-66577 0;
#X obj -277 -338 bng 20 250 50 0 load_midi_file set-load_midi_file
empty 17 7 0 10 -261682 -1 -1;
#X obj -298 -302 hsl 200 16 40 239 0 0 tempo set-tempo empty 0 0 0
10 -262144 -1 -1 8500 1;
#X obj -298 -272 hsl 200 16 1 32 0 0 raw-density set-density empty
-2 -8 0 10 -262144 -1 -1 0 1;
#X obj -298 -242 hsl 200 17 1 34 0 0 raw-legato set-legato empty -2
-8 0 10 -262144 -1 -1 0 1;
#X obj -298 -212 hsl 200 17 1 32 0 0 raw-activty set-activity empty
-2 -8 0 10 -262144 -1 -1 0 1;
#X obj -298 -152 hsl 100 17 -6 6 0 0 raw-register set-register empty
-2 -8 0 10 -262144 -1 -1 0 1;
#X text -339 -304 TEMPO;
#X text -352 -273 DENSITY;
#X text -345 -243 LEGATO;
#X text -357 -154 REGISTER;
#X text -228 -169 RANGE;
#X obj -191 -188 bng 8 250 50 0 learn-range --- empty 17 7 0 10 -262144
-1 -1;
#X obj -301 -162 bng 8 250 50 0 learn-register --- empty 17 7 0 10
-262144 -1 -1;
#X obj -301 -222 bng 8 250 50 0 learn-activity --- empty 17 7 0 10
-262144 -1 -1;
#X obj -301 -252 bng 8 250 50 0 learn-legato --- empty 17 7 0 10 -262144
-1 -1;
#X obj -301 -282 bng 8 250 50 0 learn-density --- empty 17 7 0 10 -262144
-1 -1;
#X obj -301 -312 bng 8 250 50 0 learn-tempo --- empty 17 7 0 10 -262144
-1 -1;
#X text -165 -165 | HARMONIC;
#X text -165 -155 | FILLER;
#X text -165 -175 | HOUSE;
#X text -100 -165 |;
#X text -100 -175 |;
#X text -100 -155 |;
#N canvas 721 295 530 406 patch 1;
#N canvas 639 37 540 690 adt 0;
#X obj -309 -71 r density;
#X obj -309 116 populate_rhythm;
#X obj -222 -112 r end-analysis;
#X obj -222 -89 tabdump master-pattern;
#X obj -219 154 tabset new-onsets;
#X obj -338 185 until;
#X msg -290 184 0;
#X obj -338 214 f 0;
#X obj -308 214 + 1;
#X obj -309 137 t b b l;
#X obj -92 292 tabread new-onsets;
#X obj -323 510 tabwrite slave-pattern;
#X obj -222 -14 list-apply max 0;
#X obj -258 206 s slave-pattern;
#X obj -195 31 sum;
#X obj -222 8 t l l;
#X msg -338 163 32;
#X msg -258 184 const 0;
#X obj -309 -10 f;
#X obj -339 -48 r update-density;
#X obj -323 292 tabread master-pattern;
#X obj -323 319 expr if($f2==1 \, 1 \, if($f1==1 \, -1 \, $f1));
#X obj -338 236 t f f f f f;
#X obj 36 289 tabread legato-pattern;
#X obj -302 365 > 32;
#X obj -323 460 expr if($f2==-1 \, $f1 \, if($f1==1 \, 1 \, $f2));
#X obj -323 414 pack;
#X obj -323 391 swap;
#X obj -323 435 route 0 1;
#X obj -302 343 r force-legato;
#X obj -298 485 expr if($f1==1 \, $f1 \, $f2);
#X obj -215 -41 s set-legato;
#X obj -195 54 s set-density;
#X msg -215 -64 32;
#X connect 0 0 18 0;
#X connect 1 0 9 0;
#X connect 2 0 3 0;
#X connect 3 0 12 0;
#X connect 3 0 33 0;
#X connect 5 0 7 0;
#X connect 6 0 7 1;
#X connect 7 0 8 0;
#X connect 7 0 22 0;
#X connect 8 0 7 1;
#X connect 9 0 16 0;
#X connect 9 1 6 0;
#X connect 9 1 17 0;
#X connect 9 2 4 0;
#X connect 10 0 21 1;
#X connect 12 0 15 0;
#X connect 14 0 1 0;
#X connect 14 0 32 0;
#X connect 15 0 1 1;
#X connect 15 1 14 0;
#X connect 16 0 5 0;
#X connect 17 0 13 0;
#X connect 18 0 1 0;
#X connect 19 0 18 0;
#X connect 20 0 21 0;
#X connect 21 0 27 0;
#X connect 22 1 20 0;
#X connect 22 2 10 0;
#X connect 22 3 11 1;
#X connect 22 4 23 0;
#X connect 23 0 25 1;
#X connect 23 0 30 1;
#X connect 24 0 27 1;
#X connect 25 0 11 0;
#X connect 26 0 28 0;
#X connect 27 0 26 0;
#X connect 27 1 26 1;
#X connect 28 0 25 0;
#X connect 28 1 30 0;
#X connect 29 0 24 0;
#X connect 30 0 11 0;
#X connect 33 0 31 0;
#X restore -365 -170 pd adt;
#N canvas 8 23 811 700 gem_visualization 0;
#X msg 323 64 0 \, destroy;
#X floatatom 361 136 5 0 0 0 - - -;
#X msg 316 42 reset \, dimen 800 150 \, title Loop \, create \, 1;
#N canvas 281 99 481 734 grid 0;
#X obj 14 79 vis/grid-beat-strong;
#X obj 14 143 vis/grid-beat-soft;
#X obj 14 163 vis/grid-beat-soft;
#X obj 14 183 vis/grid-beat-soft;
#X obj 14 307 vis/grid-beat-soft;
#X obj 14 327 vis/grid-beat-soft;
#X obj 14 347 vis/grid-beat-soft;
#X obj 14 473 vis/grid-beat-soft;
#X obj 14 493 vis/grid-beat-soft;
#X obj 14 513 vis/grid-beat-soft;
#X obj 14 637 vis/grid-beat-soft;
#X obj 14 657 vis/grid-beat-soft;
#X obj 14 677 vis/grid-beat-soft;
#X obj 14 14 inlet;
#X obj 14 35 color 1 0 0 0.4;
#X obj 14 246 vis/grid-beat-strong;
#X obj 14 412 vis/grid-beat-strong;
#X obj 14 576 vis/grid-beat-strong;
#X obj 14 100 color 1 1 1 0.4;
#X obj 14 205 color 0 1 0 0.4;
#X obj 14 267 color 1 1 1 0.4;
#X obj 14 371 color 0 1 0 0.4;
#X obj 14 433 color 1 1 1 0.4;
#X obj 14 535 color 0 1 0 0.4;
#X obj 14 597 color 1 1 1 0.4;
#X obj 14 226 alpha 1;
#X obj 14 286 alpha 1;
#X obj 14 391 alpha 1;
#X obj 14 453 alpha 1;
#X obj 14 556 alpha 1;
#X obj 14 617 alpha 1;
#X obj 14 122 alpha 1;
#X obj 14 57 alpha 1;
#X obj 164 79 vis/grid-beat-strong;
#X obj 164 143 vis/grid-beat-soft;
#X obj 164 163 vis/grid-beat-soft;
#X obj 164 183 vis/grid-beat-soft;
#X obj 164 307 vis/grid-beat-soft;
#X obj 164 327 vis/grid-beat-soft;
#X obj 164 347 vis/grid-beat-soft;
#X obj 164 473 vis/grid-beat-soft;
#X obj 164 493 vis/grid-beat-soft;
#X obj 164 513 vis/grid-beat-soft;
#X obj 164 637 vis/grid-beat-soft;
#X obj 164 657 vis/grid-beat-soft;
#X obj 164 677 vis/grid-beat-soft;
#X obj 164 35 color 1 0 0 0.4;
#X obj 164 246 vis/grid-beat-strong;
#X obj 164 412 vis/grid-beat-strong;
#X obj 164 576 vis/grid-beat-strong;
#X obj 164 100 color 1 1 1 0.4;
#X obj 164 205 color 0 1 0 0.4;
#X obj 164 267 color 1 1 1 0.4;
#X obj 164 371 color 0 1 0 0.4;
#X obj 164 433 color 1 1 1 0.4;
#X obj 164 535 color 0 1 0 0.4;
#X obj 164 597 color 1 1 1 0.4;
#X obj 164 226 alpha 1;
#X obj 164 286 alpha 1;
#X obj 164 391 alpha 1;
#X obj 164 453 alpha 1;
#X obj 164 556 alpha 1;
#X obj 164 617 alpha 1;
#X obj 164 122 alpha 1;
#X obj 164 57 alpha 1;
#X obj 314 79 vis/grid-beat-strong;
#X obj 314 35 color 1 0 0 0.4;
#X obj 314 57 alpha 1;
#X connect 0 0 18 0;
#X connect 1 0 2 0;
#X connect 2 0 3 0;
#X connect 3 0 19 0;
#X connect 4 0 5 0;
#X connect 5 0 6 0;
#X connect 6 0 21 0;
#X connect 7 0 8 0;
#X connect 8 0 9 0;
#X connect 9 0 23 0;
#X connect 10 0 11 0;
#X connect 11 0 12 0;
#X connect 12 0 46 0;
#X connect 13 0 14 0;
#X connect 14 0 32 0;
#X connect 15 0 20 0;
#X connect 16 0 22 0;
#X connect 17 0 24 0;
#X connect 18 0 31 0;
#X connect 19 0 25 0;
#X connect 20 0 26 0;
#X connect 21 0 27 0;
#X connect 22 0 28 0;
#X connect 23 0 29 0;
#X connect 24 0 30 0;
#X connect 25 0 15 0;
#X connect 26 0 4 0;
#X connect 27 0 16 0;
#X connect 28 0 7 0;
#X connect 29 0 17 0;
#X connect 30 0 10 0;
#X connect 31 0 1 0;
#X connect 32 0 0 0;
#X connect 33 0 50 0;
#X connect 34 0 35 0;
#X connect 35 0 36 0;
#X connect 36 0 51 0;
#X connect 37 0 38 0;
#X connect 38 0 39 0;
#X connect 39 0 53 0;
#X connect 40 0 41 0;
#X connect 41 0 42 0;
#X connect 42 0 55 0;
#X connect 43 0 44 0;
#X connect 44 0 45 0;
#X connect 45 0 66 0;
#X connect 46 0 64 0;
#X connect 47 0 52 0;
#X connect 48 0 54 0;
#X connect 49 0 56 0;
#X connect 50 0 63 0;
#X connect 51 0 57 0;
#X connect 52 0 58 0;
#X connect 53 0 59 0;
#X connect 54 0 60 0;
#X connect 55 0 61 0;
#X connect 56 0 62 0;
#X connect 57 0 47 0;
#X connect 58 0 37 0;
#X connect 59 0 48 0;
#X connect 60 0 40 0;
#X connect 61 0 49 0;
#X connect 62 0 43 0;
#X connect 63 0 34 0;
#X connect 64 0 33 0;
#X connect 66 0 67 0;
#X connect 67 0 65 0;
#X restore 318 178 pd grid;
#X obj 318 156 translateXYZ -19.5 0 0;
#X obj 316 87 gemwin 20;
#X obj 318 114 gemhead 50;
#X obj 316 -2 loadbang;
#X obj 316 19 delay 500;
#N canvas 510 316 286 456 current-step 0;
#X obj 61 281 * 0.5;
#X obj 36 328 translateXYZ 0.75 0 0;
#X obj 79 166 * 1.2;
#X obj 61 303 * 1.2;
#X obj 79 190 - 19.5;
#X obj 36 211 translateXYZ -19.5 0 0;
#X obj 36 400 rectangle 0.75 3;
#X obj 61 237 loadbang;
#X obj 66 39 r current_step;
#X obj 56 84 mod 4;
#X msg 61 259 4;
#X obj 56 105 sel 0;
#X obj 66 60 t f f;
#X obj 99 142 f;
#X obj 36 17 gemhead 51;
#X obj 36 376 alpha 0;
#X obj 36 349 color 0.2 0.2 0.2 0.8;
#X connect 0 0 3 0;
#X connect 1 0 16 0;
#X connect 2 0 4 0;
#X connect 3 0 1 1;
#X connect 3 0 6 1;
#X connect 4 0 5 1;
#X connect 5 0 1 0;
#X connect 7 0 10 0;
#X connect 8 0 12 0;
#X connect 9 0 11 0;
#X connect 10 0 0 0;
#X connect 11 0 13 0;
#X connect 12 0 9 0;
#X connect 12 1 13 1;
#X connect 13 0 2 0;
#X connect 14 0 5 0;
#X connect 15 0 6 0;
#X connect 16 0 15 0;
#X restore 318 200 pd current-step;
#X obj 317 222 vis/master-chord-event 0;
#X obj -26 -3 r reset-analysis;
#X obj 598 -1 r reset-slaves;
#X obj 317 362 vis/master-chord-event 7;
#X obj 317 242 vis/master-chord-event 1;
#X obj 317 262 vis/master-chord-event 2;
#X obj 317 282 vis/master-chord-event 3;
#X obj 317 302 vis/master-chord-event 4;
#X obj 317 322 vis/master-chord-event 5;
#X obj 317 342 vis/master-chord-event 6;
#X msg -26 22 \; master-chord-fill-0 C 100 1 \; master-chord-fill-1
C 100 1 \; master-chord-fill-2 C 100 1 \; master-chord-fill-3 C 100
1 \; master-chord-fill-4 C 100 1 \; master-chord-fill-5 C 100 1 \;
master-chord-fill-6 C 100 1 \; master-chord-fill-7 C 100 1 \; slave-chord-pos-0
100 \; slave-chord-pos-1 100 \; slave-chord-pos-2 100 \; slave-chord-pos-3
100 \; slave-chord-pos-4 100 \; slave-chord-pos-5 100 \; slave-chord-pos-6
100 \; slave-chord-pos-7 100 \; slave-chord-pos-8 100 \; slave-chord-pos-9
100 \; slave-chord-pos-10 100 \; slave-chord-pos-11 100 \; slave-chord-pos-12
100 \; slave-chord-pos-13 100 \; slave-chord-pos-14 100 \; slave-chord-pos-15
100 \; slave-chord-pos-16 100 \; slave-chord-pos-17 100 \; slave-chord-pos-18
100 \; slave-chord-pos-19 100 \; slave-chord-pos-20 100 \; slave-chord-pos-21
100 \; slave-chord-pos-22 100 \; slave-chord-pos-23 100 \; slave-chord-pos-24
100 \; slave-chord-pos-25 100 \; slave-chord-pos-26 100 \; slave-chord-pos-27
100 \; slave-chord-pos-28 100 \; slave-chord-pos-29 100 \; slave-chord-pos-30
100 \; slave-chord-pos-31 100 \;;
#X msg 598 24 \; slave-chord-pos-0 100 \; slave-chord-pos-1 100 \;
slave-chord-pos-2 100 \; slave-chord-pos-3 100 \; slave-chord-pos-4
100 \; slave-chord-pos-5 100 \; slave-chord-pos-6 100 \; slave-chord-pos-7
100 \; slave-chord-pos-8 100 \; slave-chord-pos-9 100 \; slave-chord-pos-10
100 \; slave-chord-pos-11 100 \; slave-chord-pos-12 100 \; slave-chord-pos-13
100 \; slave-chord-pos-14 100 \; slave-chord-pos-15 100 \; slave-chord-pos-16
100 \; slave-chord-pos-17 100 \; slave-chord-pos-18 100 \; slave-chord-pos-19
100 \; slave-chord-pos-20 100 \; slave-chord-pos-21 100 \; slave-chord-pos-22
100 \; slave-chord-pos-23 100 \; slave-chord-pos-24 100 \; slave-chord-pos-25
100 \; slave-chord-pos-26 100 \; slave-chord-pos-27 100 \; slave-chord-pos-28
100 \; slave-chord-pos-29 100 \; slave-chord-pos-30 100 \; slave-chord-pos-31
100 \;;
#X obj 160 358 vis/slave-chord-event 18;
#X obj 160 398 vis/slave-chord-event 20;
#X obj 160 618 vis/slave-chord-event 31;
#X obj 160 -2 vis/slave-chord-event 0;
#X obj 160 238 vis/slave-chord-event 12;
#X obj 160 18 vis/slave-chord-event 1;
#X obj 160 418 vis/slave-chord-event 21;
#X obj 160 438 vis/slave-chord-event 22;
#X obj 160 378 vis/slave-chord-event 19;
#X obj 160 178 vis/slave-chord-event 9;
#X obj 160 198 vis/slave-chord-event 10;
#X obj 160 218 vis/slave-chord-event 11;
#X obj 160 258 vis/slave-chord-event 13;
#X obj 160 278 vis/slave-chord-event 14;
#X obj 160 298 vis/slave-chord-event 15;
#X obj 160 318 vis/slave-chord-event 16;
#X obj 160 338 vis/slave-chord-event 17;
#X obj 160 98 vis/slave-chord-event 5;
#X obj 160 78 vis/slave-chord-event 4;
#X obj 160 118 vis/slave-chord-event 6;
#X obj 160 138 vis/slave-chord-event 7;
#X obj 160 38 vis/slave-chord-event 2;
#X obj 160 58 vis/slave-chord-event 3;
#X obj 160 158 vis/slave-chord-event 8;
#X obj 160 458 vis/slave-chord-event 23;
#X obj 160 478 vis/slave-chord-event 24;
#X obj 160 498 vis/slave-chord-event 25;
#X obj 160 518 vis/slave-chord-event 26;
#X obj 160 538 vis/slave-chord-event 27;
#X obj 160 558 vis/slave-chord-event 28;
#X obj 160 578 vis/slave-chord-event 29;
#X obj 160 598 vis/slave-chord-event 30;
#X connect 0 0 5 0;
#X connect 1 0 4 1;
#X connect 2 0 5 0;
#X connect 4 0 3 0;
#X connect 6 0 4 0;
#X connect 7 0 8 0;
#X connect 8 0 2 0;
#X connect 11 0 20 0;
#X connect 12 0 21 0;
#X restore -365 -190 pd gem_visualization;
#N canvas 32 23 804 739 get-chord-progression 0;
#X obj -277 -1 inlet;
#X obj -277 43 make_chord;
#X obj 189 37 unpack 0 0 0 0;
#X obj 189 81 /;
#X obj 204 59 r ticks/4;
#X obj 243 82 != 0;
#X obj 189 102 * 4;
#X obj 198 192 route;
#X obj 198 168 t l f;
#X obj 189 124 pack;
#X obj 189 145 change_pack;
#X obj -277 20 t l l;
#X obj -21 296 add2list prepend;
#X msg 189 236 \$2 \$1;
#X obj 189 302 add2list prepend;
#X obj 389 251 r reset-analysis;
#X obj 189 344 list length;
#X obj -21 340 list length;
#X obj 160 380 ==;
#X obj 160 402 sel 1;
#X obj -15 463 list;
#X obj -21 319 t l l;
#X obj 189 322 t l l;
#X obj 195 458 list;
#X obj -15 483 drip 0;
#X obj 195 479 drip 0;
#X obj 189 257 route 1 0;
#X obj 296 302 add2list prepend;
#X obj 275 461 list;
#X obj 275 482 drip 0;
#X obj 254 551 -;
#X obj 254 527 swap;
#X obj 195 500 t f f;
#X obj 197 638 pack s f f;
#X obj 302 526 f 0;
#X obj 332 526 + 1;
#X obj 302 547 mod 8;
#X obj 275 504 t f b;
#X obj 287 664 s;
#X obj 302 568 makefilename master-chord-fill-%d;
#X obj 160 424 t b b b b;
#X text 319 663 chord \, onset \, duration.;
#X obj -277 628 outlet;
#X obj -226 628 outlet;
#X obj -270 66 midi_chord_estimator;
#X obj 24 548 compare-any;
#X obj 87 500 r reset-analysis;
#X msg 87 524 symbol nnnnn;
#X obj -15 504 t s s s;
#X obj 18 574 == 0;
#X obj -15 596 spigot;
#X obj 60 573 sel 1;
#X msg 60 596 symbol;
#X obj 198 215 tabwrite master-pattern;
#X connect 0 0 11 0;
#X connect 1 0 42 0;
#X connect 1 0 44 0;
#X connect 2 0 3 0;
#X connect 2 2 5 0;
#X connect 3 0 6 0;
#X connect 4 0 3 1;
#X connect 5 0 9 1;
#X connect 6 0 9 0;
#X connect 7 0 53 0;
#X connect 8 0 7 0;
#X connect 8 1 7 1;
#X connect 8 1 53 1;
#X connect 9 0 10 0;
#X connect 10 0 8 0;
#X connect 10 0 13 0;
#X connect 11 0 1 0;
#X connect 11 1 2 0;
#X connect 12 0 21 0;
#X connect 13 0 26 0;
#X connect 14 0 22 0;
#X connect 15 0 14 1;
#X connect 15 0 27 1;
#X connect 15 0 12 1;
#X connect 16 0 18 1;
#X connect 17 0 18 0;
#X connect 18 0 19 0;
#X connect 19 0 40 0;
#X connect 20 0 24 0;
#X connect 21 0 17 0;
#X connect 21 1 20 1;
#X connect 22 0 16 0;
#X connect 22 1 23 1;
#X connect 23 0 25 0;
#X connect 24 0 48 0;
#X connect 25 0 32 0;
#X connect 26 0 14 0;
#X connect 26 0 43 0;
#X connect 26 1 27 0;
#X connect 27 0 28 1;
#X connect 28 0 29 0;
#X connect 29 0 37 0;
#X connect 30 0 33 2;
#X connect 31 0 30 0;
#X connect 31 1 30 1;
#X connect 32 0 33 1;
#X connect 32 1 31 0;
#X connect 33 0 38 0;
#X connect 34 0 35 0;
#X connect 34 0 36 0;
#X connect 35 0 34 1;
#X connect 36 0 39 0;
#X connect 37 0 31 1;
#X connect 37 1 34 0;
#X connect 39 0 38 1;
#X connect 40 1 20 0;
#X connect 40 2 23 0;
#X connect 40 3 28 0;
#X connect 44 0 12 0;
#X connect 45 0 49 0;
#X connect 45 0 51 0;
#X connect 46 0 47 0;
#X connect 47 0 45 1;
#X connect 48 0 50 0;
#X connect 48 1 45 1;
#X connect 48 2 45 0;
#X connect 49 0 50 1;
#X connect 50 0 33 0;
#X connect 51 0 52 0;
#X connect 52 0 33 0;
#X restore -365 -231 pd get-chord-progression;
#N canvas 137 46 604 550 make-chord-variations 0;
#X msg -169 25 clear;
#X obj -154 -88 list-compare;
#X obj -187 -115 t l l l;
#X obj -187 -46 spigot;
#X obj -187 -138 inlet;
#X text -149 -139 receives list from makechord;
#X obj -118 -46 inlet;
#X obj -187 -22 list prepend;
#X obj -154 -67 == 0;
#X text -55 -4 we need to make sure that al chords are ordered from
low to high...;
#X text -61 -116 we can use the argumentation by Tagg to take the first
chord of the shuttle as "tonic." According to this... it should be
quite easy to obtain the tonic of the shuttle.;
#X obj -169 2 r reset-analysis;
#X obj -125 35 r chord-variations;
#X text -80 -47 receives onset position from route 1;
#X obj -208 327 drip;
#X obj -208 305 list;
#X obj -88 94 t f f;
#N canvas 112 109 501 583 scales 0;
#X obj 115 340 list-unique;
#X obj 153 296 midi2pc;
#X obj 91 464 euclidean_distance;
#X obj 258 544 print a;
#X obj 309 433 mod 12;
#X obj 309 475 print lowest;
#X obj 246 494 list-unique;
#X obj 246 453 list-apply mod 12;
#X obj 230 332 add2list prepend;
#X obj 203 367 list;
#X obj 232 272 t b b;
#X obj 246 474 sort;
#X text 102 254 for scale obtention;
#X msg 131 175 0 60 65 69;
#X text 78 203 replacing a chord is as simple as rewriting a chord
on the same index!;
#X text 117 93 0 4 7;
#X text 117 113 0-1 4 7 (tercer grado);
#X text 116 66 substituciones!;
#X text 117 133 0 4 7+1 (sexto grado);
#X obj 246 410 normal_form;
#X obj 88 431 intervalic_structure;
#X connect 1 0 0 0;
#X connect 4 0 5 0;
#X connect 7 0 11 0;
#X connect 8 0 9 1;
#X connect 9 0 19 0;
#X connect 10 0 9 0;
#X connect 10 1 8 1;
#X connect 11 0 6 0;
#X connect 19 0 7 0;
#X connect 19 1 4 0;
#X restore 47 84 pd scales;
#X obj -88 163 sel -1;
#X obj -208 364 pack 0 0 1;
#X obj -38 283 * 80;
#X text -7 283 velocity;
#X obj -55 184 t b f f f;
#X obj -17 214 +;
#X obj -17 235 sel 2;
#X obj -187 195 coll one;
#C restore;
#X msg 170 124 0 60 64 67 71;
#X obj 160 151 s chord-variations;
#X msg 160 89 0 60 64 69 71;
#X obj -17 256 midi_panic;
#X text 24 195 -1 does nothing...;
#X text 30 213 0 silences what was sounding;
#X text 30 231 1 activates (and first mutes the previous chord);
#X obj -88 141 tabread slave-pattern;
#X obj -88 71 r current_step;
#X obj -208 385 noteout;
#X connect 0 0 25 0;
#X connect 1 0 8 0;
#X connect 2 0 3 0;
#X connect 2 1 1 1;
#X connect 2 2 1 0;
#X connect 3 0 7 0;
#X connect 4 0 2 0;
#X connect 6 0 7 1;
#X connect 7 0 25 0;
#X connect 8 0 3 1;
#X connect 11 0 0 0;
#X connect 12 0 25 0;
#X connect 14 0 19 0;
#X connect 15 0 14 0;
#X connect 16 0 33 0;
#X connect 16 1 25 0;
#X connect 18 1 22 0;
#X connect 19 0 35 0;
#X connect 20 0 19 1;
#X connect 22 0 15 0;
#X connect 22 1 20 0;
#X connect 22 2 23 1;
#X connect 22 3 23 0;
#X connect 23 0 24 0;
#X connect 24 0 29 0;
#X connect 25 0 15 1;
#X connect 26 0 27 0;
#X connect 28 0 27 0;
#X connect 33 0 18 0;
#X connect 34 0 16 0;
#X restore -365 -211 pd make-chord-variations;
#N canvas 153 101 445 511 load-midi-loop 0;
#X obj -88 19 r reset-analysis;
#X msg -266 -9 flush;
#X obj -314 243 / 4;
#X obj -314 196 unpack 0 0 0 0 0;
#X obj -245 298 s ticks/4;
#X obj -266 13 t a b;
#X obj -195 30 s reset-analysis;
#X obj -266 -73 openpanel;
#X msg -266 -53 read \$1;
#X obj -209 57 midi_player;
#X obj -130 143 s end-analysis;
#X obj -266 -123 r load_midi_file;
#X obj -130 121 t b b;
#X obj -314 221 uanz;
#X obj -266 -32 t b a;
#X obj -314 264 s bars;
#X obj -152 101 uanz;
#X obj -314 172 uanz;
#X obj -160 188 outlet;
#X obj -160 167 midi_sort;
#X msg -88 41 \; master-pattern const -1 \; slave-pattern const -1
;
#X obj -221 272 s set-tempo;
#X obj -221 249 spigot 0;
#X obj -176 227 tgl 15 0 empty empty empty 17 7 0 10 -262144 -1 -1
0 1;
#X text -155 226 get tempo from midi file (default = no);
#X msg -266 -100 symbol ./midi-chord-loops;
#X connect 0 0 20 0;
#X connect 1 0 5 0;
#X connect 2 0 15 0;
#X connect 3 0 13 0;
#X connect 3 3 4 0;
#X connect 3 4 22 0;
#X connect 5 0 9 0;
#X connect 5 1 6 0;
#X connect 5 1 13 1;
#X connect 5 1 17 1;
#X connect 5 1 16 1;
#X connect 7 0 8 0;
#X connect 8 0 14 0;
#X connect 9 1 19 0;
#X connect 9 2 17 0;
#X connect 9 3 16 0;
#X connect 11 0 25 0;
#X connect 12 0 10 0;
#X connect 12 1 19 1;
#X connect 13 0 2 0;
#X connect 14 0 1 0;
#X connect 14 1 9 0;
#X connect 16 0 12 0;
#X connect 17 0 3 0;
#X connect 19 0 18 0;
#X connect 22 0 21 0;
#X connect 23 0 22 1;
#X connect 25 0 7 0;
#X restore -365 -251 pd load-midi-loop;
#N canvas 48 23 851 751 slave-visualization 0;
#X obj 7 374 f 0;
#X obj 37 374 + 1;
#X obj -8 420 s;
#X obj 22 302 r density;
#X msg 22 349 0;
#X obj -25 221 tabread new-onsets;
#X obj 49 348 s reset-slaves;
#X obj -25 244 pack;
#X obj -25 268 route 1;
#X obj -25 199 t f f;
#X obj 22 325 t b b;
#X obj -25 80 until;
#X obj 4 177 + 1;
#X obj -25 176 f 0;
#X obj -10 101 r reset-slaves;
#X msg -10 152 0;
#X obj 0 124 r reset-analysis;
#X msg -25 58 32;
#X obj 22 632 coll one;
#C restore;
#X obj 22 656 midi_chord_estimator;
#X obj -25 291 t f b;
#X obj -25 9 r density;
#X obj -25 33 delay 100;
#X obj 532 732 s;
#X obj 387 144 until;
#X obj 416 171 + 1;
#X obj 387 170 f 0;
#X obj 494 37 r legato;
#X obj 494 58 t b b;
#X obj 567 707 makefilename slave-chord-dur-%d;
#X obj 387 194 tabread slave-pattern;
#X obj 387 102 del 100;
#X msg 432 144 0;
#X obj 553 472 + 1;
#X obj 524 472 f 1;
#X msg 574 445 1;
#X obj 489 494 f;
#X obj 425 293 -;
#X obj 387 257 t f f f f;
#X msg 387 215 2 \$1;
#X obj 7 396 makefilename slave-chord-pos-%d;
#X obj 387 237 pow;
#X msg 521 194 10;
#X obj 524 294 sel 0.5;
#X obj 462 413 t b b;
#X obj 404 316 pack;
#X obj 462 374 sel2 2 0;
#X obj 535 373 sel -8;
#X obj 393 373 sel2 1 0.5;
#X obj 329 373 sel2 1 -1;
#X obj 260 373 sel2 2 1.5;
#X obj 324 299 moses 0;
#X obj 260 351 spigot;
#X obj 387 123 f 33;
#X obj 520 539 list;
#X obj 209 374 sel 32;
#X obj 546 589 list length;
#X obj 582 637 + 1;
#X obj 553 636 f 0;
#X msg 622 587 0;
#X obj 520 562 t l l b;
#X obj 546 611 until;
#X obj 508 704 packel;
#X obj 541 683 + 1;
#X obj 541 661 t b f f;
#X obj 508 660 list;
#X obj 541 511 add2list prepend;
#X text 22 675 when we want to label substitute chords...;
#X connect 0 0 1 0;
#X connect 0 0 40 0;
#X connect 1 0 0 1;
#X connect 3 0 10 0;
#X connect 4 0 0 1;
#X connect 5 0 7 0;
#X connect 7 0 8 0;
#X connect 8 0 20 0;
#X connect 9 0 5 0;
#X connect 9 1 7 1;
#X connect 10 0 4 0;
#X connect 10 1 6 0;
#X connect 11 0 13 0;
#X connect 12 0 13 1;
#X connect 13 0 12 0;
#X connect 13 0 9 0;
#X connect 14 0 15 0;
#X connect 15 0 13 1;
#X connect 16 0 15 0;
#X connect 17 0 11 0;
#X connect 18 0 19 0;
#X connect 20 0 2 0;
#X connect 20 1 0 0;
#X connect 21 0 22 0;
#X connect 22 0 17 0;
#X connect 22 0 28 0;
#X connect 24 0 26 0;
#X connect 25 0 26 1;
#X connect 26 0 25 0;
#X connect 26 0 30 0;
#X connect 26 0 55 0;
#X connect 27 0 28 0;
#X connect 28 0 31 0;
#X connect 28 1 32 0;
#X connect 28 1 42 0;
#X connect 28 1 66 1;
#X connect 29 0 23 1;
#X connect 30 0 39 0;
#X connect 31 0 53 0;
#X connect 32 0 26 1;
#X connect 33 0 34 1;
#X connect 34 0 33 0;
#X connect 34 0 36 1;
#X connect 35 0 34 0;
#X connect 36 0 66 0;
#X connect 37 0 45 1;
#X connect 37 0 47 0;
#X connect 38 0 51 0;
#X connect 38 1 45 0;
#X connect 38 1 43 0;
#X connect 38 2 37 1;
#X connect 38 3 37 0;
#X connect 39 0 41 0;
#X connect 40 0 2 1;
#X connect 41 0 38 0;
#X connect 42 0 37 1;
#X connect 43 0 34 0;
#X connect 44 0 35 0;
#X connect 44 1 36 0;
#X connect 45 0 46 0;
#X connect 45 0 48 0;
#X connect 45 0 49 0;
#X connect 45 0 52 0;
#X connect 46 0 44 0;
#X connect 47 0 35 0;
#X connect 48 0 44 0;
#X connect 49 0 44 0;
#X connect 50 0 44 0;
#X connect 51 1 52 1;
#X connect 52 0 50 0;
#X connect 53 0 24 0;
#X connect 54 0 60 0;
#X connect 55 0 54 0;
#X connect 56 0 61 0;
#X connect 57 0 58 1;
#X connect 58 0 57 0;
#X connect 58 0 64 0;
#X connect 59 0 58 1;
#X connect 60 0 56 0;
#X connect 60 1 65 1;
#X connect 60 2 59 0;
#X connect 61 0 58 0;
#X connect 62 0 23 0;
#X connect 63 0 62 1;
#X connect 64 0 65 0;
#X connect 64 1 63 0;
#X connect 64 2 29 0;
#X connect 65 0 62 0;
#X connect 66 0 54 1;
#X restore -235 -190 pd slave-visualization;
#X obj -206 -313 path ./abs;
#N canvas 0 22 450 300 (subpatch) 0;
#X array master-pattern 33 float 2;
#X coords 0 2 32 -2 200 50 1 0 0;
#X restore -88 -305 graph;
#N canvas 0 22 450 300 (subpatch) 0;
#X array new-onsets 33 float 2;
#X coords 0 2 32 -2 200 50 1 0 0;
#X restore -89 -239 graph;
#N canvas 0 22 450 300 (subpatch) 0;
#X array slave-pattern 33 float 2;
#X coords 0 2 32 -2 200 50 1 0 0;
#X restore -89 -104 graph;
#N canvas 0 22 450 300 (subpatch) 0;
#X array legato-pattern 33 float 2;
#X coords 0 2 32 -2 200 50 1 0 0;
#X restore -89 -171 graph;
#N canvas 233 296 786 494 legato 0;
#N canvas 0 22 450 300 (subpatch) 0;
#X array \$0-legatorder 32 float 1;
#A 0 0 16 8 24 4 20 12 28 1 17 9 25 5 21 13 29 2 18 10 26 6 22 14 30
3 19 11 27 7 23 15 31;
#X coords 0 32 31 0 400 140 1 0 0;
#X restore 29 -63 graph;
#X text 11 83 descendientemente \, por compás;
#X obj 14 355 tabset \$0-legatorder;
#X msg 14 108 0 16 1 17 2 18 3 19 4 20 5 21 6 22 7 23 8 24 9 25 10
26 11 27 12 28 13 29 14 30 15 31;
#X msg 48 251 22 20 6 4 30 28 14 12 26 24 21 10 23 8 5 18 7 16 29 2
31 0 13 15 25 27 9 11 17 19 1 3;
#X text 46 228 from daniel1;
#X msg 59 309 3 1 19 17 11 9 27 25 15 13 0 31 2 29 16 7 18 5 8 23 10
21 24 26 12 14 28 30 4 6 20 22;
#X text 56 288 from daniel-inverse;
#X text 31 173 descendientemente \, por subtiempos débiles;
#X obj 24 154 loadbang;
#X msg 24 196 0 16 8 24 4 20 12 28 1 17 9 25 5 21 13 29 2 18 10 26
6 22 14 30 3 19 11 27 7 23 15 31;
#X obj 526 -49 r legato;
#X text 584 -51 range 32;
#X obj 511 48 until;
#X msg 551 47 0;
#X obj 511 77 f 0;
#X obj 541 77 + 1;
#X obj 475 209 tabwrite legato-pattern;
#X obj 550 174 tabread \$0-legatorder;
#X obj 560 19 s legato-pattern;
#X obj 562 125 sel;
#X obj 577 100 - 1;
#X obj 526 -25 t f b b f;
#X obj 511 99 t f b f;
#X obj 562 149 s update-density;
#X msg 521 175 -1;
#X msg 560 -3 const 0;
#X connect 3 0 2 0;
#X connect 4 0 2 0;
#X connect 6 0 2 0;
#X connect 9 0 10 0;
#X connect 10 0 2 0;
#X connect 11 0 22 0;
#X connect 13 0 15 0;
#X connect 14 0 15 1;
#X connect 15 0 16 0;
#X connect 15 0 23 0;
#X connect 16 0 15 1;
#X connect 18 0 17 1;
#X connect 20 0 24 0;
#X connect 21 0 20 1;
#X connect 22 0 13 0;
#X connect 22 1 14 0;
#X connect 22 2 26 0;
#X connect 22 3 21 0;
#X connect 23 0 20 0;
#X connect 23 1 25 0;
#X connect 23 2 18 0;
#X connect 25 0 17 0;
#X connect 26 0 19 0;
#X restore -321 -170 pd legato;
#N canvas 201 37 943 647 control 0;
#X obj -60 528 s saturation;
#X obj -59 555 s substitution;
#X obj -39 349 s activity;
#X obj 39 106 s legato;
#X obj 39 84 min 32;
#X obj 47 63 s force-legato;
#X obj 39 21 int;
#X obj 39 -3 r raw-legato;
#X obj -61 61 s density;
#X obj -69 -3 r raw-density;
#X obj -69 19 int;
#X obj 158 20 int;
#X obj 158 -3 r raw-register;
#X obj 158 63 s register;
#X obj 159 94 r reset-analysis;
#X obj 159 158 s set-register;
#X msg 159 115 0;
#X text -64 504 these are NOT yet implemented!;
#X obj 169 138 s set-range;
#X obj 268 20 int;
#X obj 268 -3 r raw-range;
#X obj 268 63 s range;
#X obj -69 39 change;
#X obj 39 41 change;
#X obj 158 41 change;
#X obj 268 41 change;
#X obj -69 110 prepend label;
#X obj -69 86 tosymbol;
#X obj -69 133 s vis-density;
#X obj 510 33 midilearn;
#X msg 576 33 48 2;
#X obj 510 10 r learn-tempo;
#X obj 510 99 s set-tempo;
#X obj 510 57 maxlib/scale 0 127 40 239;
#X obj 510 79 int;
#X msg 576 153 49 1;
#X obj 510 199 int;
#X obj 510 130 r learn-density;
#X obj 510 177 maxlib/scale 0 127 1 32;
#X obj 510 219 s set-density;
#X msg 576 273 50 2;
#X obj 510 319 int;
#X msg 576 393 43 2;
#X obj 510 439 int;
#X obj 510 417 maxlib/scale 0 127 1 32;
#X obj 510 250 r learn-legato;
#X obj 510 297 maxlib/scale 0 127 1 34;
#X obj 510 339 s set-legato;
#X obj 510 370 r learn-activity;
#X obj 510 459 s set-activity;
#X msg 756 523 52 2;
#X obj 690 569 int;
#X msg 576 523 51 2;
#X obj 510 569 int;
#X obj 510 500 r learn-register;
#X obj 690 500 r learn-range;
#X obj 510 547 maxlib/scale 0 127 -6 6;
#X obj 690 589 s set-range;
#X obj 510 589 s set-register;
#X obj 690 547 maxlib/scale 0 127 0 4;
#X obj 365 -3 r tempo;
#X obj 365 44 prepend label;
#X obj 365 20 tosymbol;
#X obj 365 67 s vis-tempo;
#X obj 510 153 midilearn;
#X obj 510 273 midilearn;
#X obj 510 393 midilearn;
#X obj 690 523 midilearn;
#X obj 510 523 midilearn;
#X connect 4 0 3 0;
#X connect 6 0 23 0;
#X connect 7 0 6 0;
#X connect 9 0 10 0;
#X connect 10 0 22 0;
#X connect 11 0 24 0;
#X connect 12 0 11 0;
#X connect 14 0 16 0;
#X connect 16 0 15 0;
#X connect 16 0 18 0;
#X connect 19 0 25 0;
#X connect 20 0 19 0;
#X connect 22 0 8 0;
#X connect 22 0 27 0;
#X connect 23 0 5 0;
#X connect 23 0 4 0;
#X connect 24 0 13 0;
#X connect 25 0 21 0;
#X connect 26 0 28 0;
#X connect 27 0 26 0;
#X connect 29 0 33 0;
#X connect 29 1 30 0;
#X connect 30 0 29 1;
#X connect 31 0 29 0;
#X connect 33 0 34 0;
#X connect 34 0 32 0;
#X connect 35 0 64 1;
#X connect 36 0 39 0;
#X connect 37 0 64 0;
#X connect 38 0 36 0;
#X connect 40 0 65 1;
#X connect 41 0 47 0;
#X connect 42 0 66 1;
#X connect 43 0 49 0;
#X connect 44 0 43 0;
#X connect 45 0 65 0;
#X connect 46 0 41 0;
#X connect 48 0 66 0;
#X connect 50 0 67 1;
#X connect 51 0 57 0;
#X connect 52 0 68 1;
#X connect 53 0 58 0;
#X connect 54 0 68 0;
#X connect 55 0 67 0;
#X connect 56 0 53 0;
#X connect 59 0 51 0;
#X connect 60 0 62 0;
#X connect 61 0 63 0;
#X connect 62 0 61 0;
#X connect 64 0 38 0;
#X connect 64 1 35 0;
#X connect 65 0 46 0;
#X connect 65 1 40 0;
#X connect 66 0 44 0;
#X connect 66 1 42 0;
#X connect 67 0 59 0;
#X connect 67 1 50 0;
#X connect 68 0 56 0;
#X connect 68 1 52 0;
#X restore -366 -292 pd control from pd-gui;
#N canvas 18 41 859 568 clock 0;
#X floatatom 426 456 5 0 0 0 - - -;
#X obj 261 287 /;
#X obj 143 439 + 1;
#X obj 113 439 f 0;
#X msg 162 415 0;
#X msg 261 264 15000 \$1;
#X obj 140 491 sel 0 31;
#X obj 113 471 t f f;
#X obj 138 336 metro 125;
#X obj 261 241 r tempo;
#X obj 48 536 midi_panic;
#X obj 140 513 midi_panic;
#X obj 48 43 unpackOSC;
#X obj 113 410 t b;
#X floatatom 124 92 5 0 0 0 - - -;
#X obj 48 375 sel 0;
#X msg 58 400 0;
#X obj 123 536 s current_step;
#X obj 138 247 r play;
#X obj 164 361 r clock-mode;
#X obj 426 406 packOSC;
#X obj 426 436 udpsend;
#X obj 48 18 udpreceive 8000;
#X obj 113 385 multiplex;
#X obj 183 225 r clock-mode;
#X obj 138 276 f;
#X obj 183 247 t b f;
#X obj 210 279 sel 1;
#X obj -42 41 r clock-mode;
#X obj -15 104 - 1;
#X obj -15 127 abs;
#X obj -60 149 spigot 1;
#X obj -60 221 sel 1 0;
#X obj -60 281 prepend label;
#X obj -60 304 s gui-play;
#X msg -60 246 STOP;
#X msg -25 246 PLAY;
#X obj -50 196 s set-play;
#X msg -50 173 set \$1;
#X obj 346 77 sel 1 0;
#X obj 346 5 r play;
#X obj 346 137 prepend label;
#X obj 346 162 s gui-play;
#X msg 346 102 STOP;
#X msg 381 102 PLAY;
#X obj 398 78 loadbang;
#X msg 354 29 set \$1;
#X obj 354 52 s set-play;
#X obj 460 77 sel 1 0;
#X obj 460 157 prepend label;
#X obj 460 7 r clock-mode;
#X obj 460 182 s gui-clock;
#X msg 426 384 /setTempo \$1;
#X obj 48 67 routeOSC /status /step /tempoLive;
#X obj 426 350 spigot 0;
#X obj 535 229 r clock-mode;
#X obj 426 300 f;
#X obj 481 261 t b f;
#X obj 426 261 r tempo;
#X obj 508 283 - 1;
#X obj 508 303 abs;
#X obj 178 127 spigot 0;
#X obj 255 5 r clock-mode;
#X obj 255 26 - 1;
#X obj 255 46 abs;
#X msg 475 33 set \$1;
#X obj 475 56 s set-clock-mode;
#X obj 535 380 sel 0;
#X msg 460 129 INTERNAL;
#X obj 178 101 f;
#X obj 255 70 t b f;
#X obj 178 150 s set-tempo;
#X msg 525 129 EXT-SYNC;
#X obj -60 103 f;
#X obj -42 64 t b f;
#X obj 317 312 r play;
#X obj 317 341 spigot 0;
#X msg 317 368 /setTransport \$1;
#X obj 138 296 spigot 1;
#X floatatom 72 91 5 0 0 0 - - -;
#X obj 599 66 loadbang;
#X msg 535 402 disconnect \, connect localhost 8002;
#X obj 48 290 spigot 0;
#X obj 58 222 r clock-mode;
#X obj 58 243 - 1;
#X obj 58 263 abs;
#X obj 609 119 s set-clock-mode;
#X msg 609 96 1;
#X obj 659 185 r tempo;
#X obj 659 232 prepend label;
#X obj 659 208 tosymbol;
#X obj 659 255 s vis-tempo;
#X connect 1 0 8 1;
#X connect 2 0 3 1;
#X connect 3 0 2 0;
#X connect 3 0 7 0;
#X connect 4 0 3 1;
#X connect 5 0 1 0;
#X connect 6 0 11 0;
#X connect 6 1 4 0;
#X connect 7 0 17 0;
#X connect 7 1 6 0;
#X connect 8 0 23 1;
#X connect 9 0 5 0;
#X connect 12 0 53 0;
#X connect 13 0 3 0;
#X connect 15 0 10 0;
#X connect 15 0 16 0;
#X connect 16 0 3 1;
#X connect 18 0 25 0;
#X connect 19 0 23 2;
#X connect 20 0 21 0;
#X connect 21 0 0 0;
#X connect 22 0 12 0;
#X connect 23 0 13 0;
#X connect 24 0 26 0;
#X connect 25 0 78 0;
#X connect 26 0 25 0;
#X connect 26 1 27 0;
#X connect 26 1 78 1;
#X connect 27 1 8 0;
#X connect 28 0 74 0;
#X connect 29 0 30 0;
#X connect 30 0 31 1;
#X connect 31 0 32 0;
#X connect 31 0 38 0;
#X connect 32 0 35 0;
#X connect 32 1 36 0;
#X connect 33 0 34 0;
#X connect 35 0 33 0;
#X connect 36 0 33 0;
#X connect 38 0 37 0;
#X connect 39 0 43 0;
#X connect 39 1 44 0;
#X connect 40 0 39 0;
#X connect 40 0 46 0;
#X connect 41 0 42 0;
#X connect 43 0 41 0;
#X connect 44 0 41 0;
#X connect 45 0 44 0;
#X connect 46 0 47 0;
#X connect 48 0 68 0;
#X connect 48 1 72 0;
#X connect 49 0 51 0;
#X connect 50 0 48 0;
#X connect 50 0 65 0;
#X connect 52 0 20 0;
#X connect 53 0 25 1;
#X connect 53 0 73 0;
#X connect 53 0 79 0;
#X connect 53 0 82 0;
#X connect 53 1 14 0;
#X connect 53 1 23 0;
#X connect 53 2 69 0;
#X connect 54 0 52 0;
#X connect 55 0 57 0;
#X connect 55 0 67 0;
#X connect 56 0 54 0;
#X connect 57 0 56 0;
#X connect 57 1 59 0;
#X connect 58 0 56 0;
#X connect 59 0 60 0;
#X connect 60 0 54 1;
#X connect 60 0 76 1;
#X connect 61 0 71 0;
#X connect 62 0 63 0;
#X connect 63 0 64 0;
#X connect 64 0 70 0;
#X connect 65 0 66 0;
#X connect 67 0 81 0;
#X connect 68 0 49 0;
#X connect 69 0 61 0;
#X connect 70 0 69 0;
#X connect 70 1 61 1;
#X connect 72 0 49 0;
#X connect 73 0 31 0;
#X connect 74 0 73 0;
#X connect 74 1 29 0;
#X connect 75 0 76 0;
#X connect 76 0 77 0;
#X connect 77 0 20 0;
#X connect 78 0 8 0;
#X connect 78 0 15 0;
#X connect 80 0 87 0;
#X connect 80 0 68 0;
#X connect 81 0 21 0;
#X connect 82 0 15 0;
#X connect 83 0 84 0;
#X connect 84 0 85 0;
#X connect 85 0 82 1;
#X connect 87 0 86 0;
#X connect 88 0 90 0;
#X connect 89 0 91 0;
#X connect 90 0 89 0;
#X restore -366 -272 pd clock;
#X obj -365 -313 import jasch_lib mrpeach;
#X obj -364 -123 loadbang;
#X msg -364 -98 \; set-tempo 125;
#N canvas 315 76 450 300 activity 0;
#X restore -259 -170 pd activity;
#N canvas 541 117 445 474 register 0;
#X obj 137 70 coll one;
#C restore;
#X msg 137 48 dump;
#X obj 84 -59 r register;
#X obj 96 96 t b l;
#X obj 47 175 >= 0;
#X obj 47 198 sel 0;
#X obj 20 131 f;
#X obj 91 16 t b f;
#X obj 20 275 list;
#X msg 47 222 -1;
#X obj 148 304 list prepend;
#X obj 148 325 coll one;
#C restore;
#X obj 84 -36 t f f;
#X obj 91 -9 -;
#X obj 74 250 chord_rotate_manual;
#X obj 20 153 t b f;
#X obj 308 89 coll one;
#C restore;
#X msg 308 67 dump;
#X obj 287 115 t b l;
#X obj 261 199 list prepend;
#X obj 261 220 coll one;
#C restore;
#X obj 251 175 chord-range;
#X obj 277 -62 r range;
#X obj 292 -9 -;
#X obj 277 -38 t f f f;
#X obj 277 13 *;
#X obj 331 -35 r set-range;
#X obj 277 34 t b f;
#X obj 238 150 f;
#X text 239 247 sumar restar 12 a cada cambio;
#X text 239 267 en vez de calcular la distancia;
#X text 239 288 de octava;
#X connect 0 0 3 0;
#X connect 0 1 10 1;
#X connect 1 0 0 0;
#X connect 2 0 12 0;
#X connect 3 0 6 0;
#X connect 3 1 14 1;
#X connect 4 0 5 0;
#X connect 5 0 9 0;
#X connect 5 1 14 0;
#X connect 6 0 15 0;
#X connect 7 0 1 0;
#X connect 7 1 6 1;
#X connect 8 0 10 0;
#X connect 9 0 14 0;
#X connect 10 0 11 0;
#X connect 12 0 13 1;
#X connect 12 1 13 0;
#X connect 13 0 7 0;
#X connect 14 0 8 1;
#X connect 15 0 8 0;
#X connect 15 1 4 0;
#X connect 16 0 18 0;
#X connect 16 1 19 1;
#X connect 17 0 16 0;
#X connect 18 0 28 0;
#X connect 18 1 21 1;
#X connect 19 0 20 0;
#X connect 21 0 19 0;
#X connect 22 0 24 0;
#X connect 23 0 25 1;
#X connect 24 0 25 0;
#X connect 24 1 23 1;
#X connect 24 2 23 0;
#X connect 25 0 27 0;
#X connect 26 0 23 1;
#X connect 27 0 17 0;
#X connect 27 1 28 1;
#X connect 28 0 21 0;
#X restore -365 -147 pd register and range;
#X text -365 -52 TO DO's:;
#X text -88 -44 angel.faraldo@upf.edu \, BCN \, 2015;
#X text -366 2 rethink chord-substitution and expansion.;
#X text -366 22 circular visualization?? processing??;
#X text -366 42 add colors to chord height... (brigthness) and range.
;
#X text -365 -35 density bug cuando llega a 15 hace 16;
#X text -366 -18 legato does not always visualize correctly.;
#X connect 2 0 3 0;
#X connect 2 1 3 1;
#X connect 4 0 2 0;
#X connect 15 0 16 0;
#X restore -301 -122 pd patch by angel.faraldo@upf.edu;
#X obj -257 -338 bng 20 250 50 0 load_midi_file set-load_midi_file
empty 17 7 0 10 -261682 -1 -1;
#X obj -137 -338 tgl 20 0 play set-play empty 17 7 0 10 -262144 -1
-1 0 1;
#X obj -227 -338 tgl 20 0 clock-mode set-clock-mode empty 17 7 0 10
-262144 -1 -1 1 1;
#X obj -277 -338 cnv 15 40 20 empty empty LOAD 5 10 0 14 -159808 -262144
0;
#X obj -117 -338 tgl 20 0 play set-play empty 17 7 0 10 -262144 -1
-1 0 1;
#X obj -137 -338 cnv 15 40 20 empty gui-play PLAY 5 10 0 14 -159808
-262144 0;
#X obj -207 -338 tgl 20 0 clock-mode set-clock-mode empty 17 7 0 10
-262144 -1 -1 1 1;
#X obj -187 -338 tgl 20 0 clock-mode set-clock-mode empty 17 7 0 10
-262144 -1 -1 1 1;
#X obj -167 -338 tgl 20 0 clock-mode set-clock-mode empty 17 7 0 10
-262144 -1 -1 1 1;
#X obj -227 -338 cnv 15 80 20 empty gui-clock INTERNAL 9 10 0 14 -159808
-262144 0;
#X obj -191 -176 vsl 17 39 0 3.9 0 0 raw-range set-range empty 0 -9
0 10 -262144 -1 -1 0 1;
#X obj -227 -299 cnv 8 1 1 empty vis-tempo 125 20 5 0 12 -262144 -66577
0;
#X obj -227 -269 cnv 8 1 1 empty vis-density 12 20 5 0 12 -262144 -66577
0;
#X text -357 -213 ACTIVITY;
