#N struct mchord0 float x float dur symbol chordname;
#N struct mchord1 float x float dur symbol chordname;
#N struct mchord2 float x float dur symbol chordname;
#N struct mchord3 float x float dur symbol chordname;
#N struct mchord4 float x float dur symbol chordname;
#N struct mchord5 float x float dur symbol chordname;
#N struct mchord6 float x float dur symbol chordname;
#N struct mchord7 float x float dur symbol chordname;
#N struct beat float x;
#N struct line float pos float color;
#N canvas 7 23 968 433 10;
#X declare -stdpath unauthorized -path abs;
#N canvas 777 23 475 472 patch 0;
#N canvas 100 50 595 685 adt 0;
#X obj 62 26 r density;
#X obj 33 273 until;
#X msg 81 272 0;
#X obj 33 302 f 0;
#X obj 63 302 + 1;
#X obj 62 225 t b b l;
#X obj 279 370 tabread new-onsets;
#X obj 48 588 tabwrite slave-pattern;
#X obj 113 294 s slave-pattern;
#X obj 149 146 t l l;
#X msg 113 272 const 0;
#X obj 62 87 f;
#X obj 32 49 r update-density;
#X obj 48 370 tabread master-pattern;
#X obj 48 397 expr if($f2==1 \, 1 \, if($f1==1 \, -1 \, $f1));
#X obj 33 324 t f f f f f;
#X obj 407 367 tabread legato-pattern;
#X obj 48 538 expr if($f2==-1 \, $f1 \, if($f1==1 \, 1 \, $f2));
#X obj 48 492 pack;
#X obj 48 469 swap;
#X obj 48 513 route 0 1;
#X obj 69 421 r force-legato;
#X obj 73 563 expr if($f1==1 \, $f1 \, $f2);
#X obj 156 97 s set-legato;
#X obj 216 185 s set-density;
#X obj 33 632 s update-legato;
#X obj 314 234 s onsets-bass;
#X obj 206 206 s set-bass-density;
#X obj 149 49 zexy/tabdump master-pattern;
#X obj 149 124 list-abs/list-apply max 0;
#X obj 152 248 zexy/tabset new-onsets;
#X obj 206 162 zexy/sum;
#X floatatom 89 130 5 0 0 0 - - -, f 5;
#X obj 149 6 r end-analysis;
#X msg 156 74 64;
#X msg 33 251 64;
#X obj 33 610 sel 63;
#X obj 69 443 > 64;
#X obj 62 204 pdmus/populate-rhythm;
#X connect 0 0 11 0;
#X connect 1 0 3 0;
#X connect 2 0 3 1;
#X connect 3 0 4 0;
#X connect 3 0 15 0;
#X connect 4 0 3 1;
#X connect 5 0 35 0;
#X connect 5 1 2 0;
#X connect 5 1 10 0;
#X connect 5 2 26 0;
#X connect 5 2 30 0;
#X connect 6 0 14 1;
#X connect 9 0 38 1;
#X connect 9 1 31 0;
#X connect 10 0 8 0;
#X connect 11 0 32 0;
#X connect 11 0 38 0;
#X connect 12 0 11 0;
#X connect 13 0 14 0;
#X connect 14 0 19 0;
#X connect 15 0 36 0;
#X connect 15 1 13 0;
#X connect 15 2 6 0;
#X connect 15 3 7 1;
#X connect 15 4 16 0;
#X connect 16 0 17 1;
#X connect 16 0 22 1;
#X connect 17 0 7 0;
#X connect 18 0 20 0;
#X connect 19 0 18 0;
#X connect 19 1 18 1;
#X connect 20 0 17 0;
#X connect 20 1 22 0;
#X connect 21 0 37 0;
#X connect 22 0 7 0;
#X connect 28 0 34 0;
#X connect 28 0 29 0;
#X connect 29 0 9 0;
#X connect 31 0 24 0;
#X connect 31 0 27 0;
#X connect 31 0 38 0;
#X connect 33 0 28 0;
#X connect 34 0 23 0;
#X connect 35 0 1 0;
#X connect 36 0 25 0;
#X connect 37 0 19 1;
#X connect 38 0 5 0;
#X restore 216 167 pd adt;
#N canvas 0 23 595 716 load-midi-loop 0;
#X msg 65 191 flush;
#X obj 39 666 / 4;
#X obj 25 617 unpack 0 0 0 0 0;
#X obj 94 687 s ticks/4;
#X obj 65 213 t a b, f 6;
#X obj 305 278 s reset-analysis;
#X obj 100 52 openpanel;
#X msg 100 138 read \$1;
#X obj 119 278 pdmus/midi-player;
#X obj 476 529 s end-analysis;
#X obj 100 8 r load_midi_file;
#X obj 467 497 t b b;
#X obj 39 644 pdmus/uanz;
#X obj 39 687 s bars;
#X obj 467 476 pdmus/uanz;
#X obj 25 593 pdmus/uanz;
#X obj 152 580 outlet;
#X msg 303 230 \; master-pattern const -1 \; slave-pattern const -1
;
#X obj 118 663 s set-tempo;
#X obj 118 640 spigot 0;
#X obj 163 618 tgl 15 0 empty empty empty 17 7 0 10 -262144 -1 -1 0
1;
#X text 184 617 get tempo from midi file (default = no);
#X msg 100 31 symbol ./midi-chord-loops;
#X obj 100 116 symbol;
#X obj 110 73 r reload;
#X obj 123 93 r file-by-name;
#X obj 152 559 pdmus/midi-sort-events;
#X obj 271 475 * 8;
#X obj 152 514 + 0;
#X obj 100 159 t b a b;
#X obj 139 200 s reset-count;
#X msg 139 179 0;
#X obj 271 453 r ticks/4;
#X obj 233 278 r bars;
#X obj 218 298 f;
#X obj 167 492 r reset-count;
#X obj 152 469 unpack 0 0 0;
#X obj 152 536 pack 0 0 0, f 12;
#X obj 218 374 f 0;
#X obj 248 374 + 1;
#X obj 233 352 r reset-count;
#X obj 256 497 f;
#X obj 218 397 sel 0 1;
#X obj 218 318 sel 2 4;
#X obj 218 422 t b b;
#X msg 218 444 flush;
#X connect 0 0 4 0;
#X connect 1 0 13 0;
#X connect 2 0 12 0;
#X connect 2 3 3 0;
#X connect 2 4 19 0;
#X connect 4 0 8 0;
#X connect 4 1 5 0;
#X connect 4 1 12 1;
#X connect 4 1 15 1;
#X connect 4 1 14 1;
#X connect 4 1 17 0;
#X connect 6 0 23 0;
#X connect 7 0 29 0;
#X connect 8 1 36 0;
#X connect 8 2 15 0;
#X connect 8 3 34 0;
#X connect 10 0 22 0;
#X connect 11 0 9 0;
#X connect 11 1 26 1;
#X connect 12 0 1 0;
#X connect 14 0 11 0;
#X connect 15 0 2 0;
#X connect 19 0 18 0;
#X connect 20 0 19 1;
#X connect 22 0 6 0;
#X connect 23 0 7 0;
#X connect 24 0 23 0;
#X connect 25 0 23 0;
#X connect 26 0 16 0;
#X connect 27 0 41 1;
#X connect 28 0 37 0;
#X connect 29 0 0 0;
#X connect 29 1 8 0;
#X connect 29 2 31 0;
#X connect 31 0 30 0;
#X connect 32 0 27 0;
#X connect 33 0 34 1;
#X connect 34 0 43 0;
#X connect 35 0 28 1;
#X connect 36 0 28 0;
#X connect 36 1 37 1;
#X connect 36 2 37 2;
#X connect 37 0 26 0;
#X connect 38 0 39 0;
#X connect 38 0 42 0;
#X connect 39 0 38 1;
#X connect 40 0 38 1;
#X connect 41 0 28 1;
#X connect 42 0 44 0;
#X connect 42 1 14 0;
#X connect 43 0 38 0;
#X connect 43 1 14 0;
#X connect 44 0 45 0;
#X connect 44 1 41 0;
#X connect 45 0 8 0;
#X restore 216 100 pd load-midi-loop;
#N canvas 0 50 450 300 (subpatch) 0;
#X array master-pattern 65 float 2;
#X coords 0 2 65 -2 200 50 1 0 0;
#X restore 5 19 graph;
#N canvas 0 50 450 300 (subpatch) 0;
#X array new-onsets 65 float 2;
#X coords 0 2 65 -2 200 50 1 0 0;
#X restore 4 85 graph;
#N canvas 0 50 450 300 (subpatch) 0;
#X array slave-pattern 65 float 2;
#X coords 0 2 65 -2 200 50 1 0 0;
#X restore 4 220 graph;
#N canvas 0 50 450 300 (subpatch) 0;
#X array legato-pattern 65 float 2;
#X coords 0 2 65 -2 200 50 1 0 0;
#X restore 4 153 graph;
#N canvas 117 170 1125 513 legato 0;
#N canvas 0 50 450 300 (subpatch) 0;
#X array \$0-legatorder 64 float 1;
#A 0 0 16 1 17 2 18 3 19 4 20 5 21 6 22 7 23 8 24 9 25 10 26 11 27
12 28 13 29 14 30 15 31 32 33 34 35 36 37 38 39 40 41 42 43 44 45 46
47 48 49 50 51 52 53 54 55 56 57 58 59 60 61 62 63;
#X coords 0 32 63 0 400 140 1 0 0;
#X restore 57 29 graph;
#X text 39 175 descendientemente \, por compás;
#X msg 76 343 22 20 6 4 30 28 14 12 26 24 21 10 23 8 5 18 7 16 29 2
31 0 13 15 25 27 9 11 17 19 1 3;
#X text 74 320 from daniel1;
#X msg 87 401 3 1 19 17 11 9 27 25 15 13 0 31 2 29 16 7 18 5 8 23 10
21 24 26 12 14 28 30 4 6 20 22;
#X text 84 380 from daniel-inverse;
#X text 59 265 descendientemente \, por subtiempos débiles;
#X msg 52 288 0 16 8 24 4 20 12 28 1 17 9 25 5 21 13 29 2 18 10 26
6 22 14 30 3 19 11 27 7 23 15 31;
#X obj 719 83 r legato;
#X obj 636 284 tabwrite legato-pattern;
#X obj 711 249 tabread \$0-legatorder;
#X obj 758 153 s legato-pattern;
#X obj 723 200 sel;
#X obj 738 178 - 1;
#X obj 672 164 t f b f;
#X obj 723 224 s update-density;
#X msg 636 259 -1;
#X msg 758 131 const 0;
#X obj 672 139 pdmus/forloop;
#X obj 719 107 t f f b;
#X obj 42 447 zexy/tabset \$0-legatorder;
#X msg 42 200 0 16 1 17 2 18 3 19 4 20 5 21 6 22 7 23 8 24 9 25 10
26 11 27 12 28 13 29 14 30 15 31 32 33 34 35 36 37 38 39 40 41 42 43
44 45 46 47 48 49 50 51 52 53 54 55 56 57 58 59 60 61 62 63;
#X connect 2 0 20 0;
#X connect 4 0 20 0;
#X connect 7 0 20 0;
#X connect 8 0 19 0;
#X connect 10 0 9 1;
#X connect 12 0 15 0;
#X connect 13 0 12 1;
#X connect 14 0 12 0;
#X connect 14 1 16 0;
#X connect 14 2 10 0;
#X connect 16 0 9 0;
#X connect 17 0 11 0;
#X connect 18 0 14 0;
#X connect 19 0 18 0;
#X connect 19 1 13 0;
#X connect 19 2 17 0;
#X connect 21 0 20 0;
#X restore 260 167 pd legato;
#N canvas 2 77 1277 745 control 0;
#X obj 11 584 s saturation;
#X obj 12 611 s substitution;
#X obj 43 518 s activity;
#X obj 118 100 s legato;
#X obj 126 57 s force-legato;
#X obj 118 35 int;
#X obj 118 12 r raw-legato;
#X obj 10 74 s density;
#X obj 10 12 r raw-density;
#X obj 10 33 int;
#X obj 1022 163 int;
#X obj 1022 142 r raw-register;
#X obj 1022 206 s register;
#X text 7 560 these are NOT yet implemented!;
#X obj 593 384 int;
#X obj 593 363 r raw-range;
#X obj 593 427 s range;
#X obj 10 53 change;
#X obj 1022 184 change;
#X obj 593 405 change;
#X obj 404 31 pdmus/midi-learn;
#X msg 510 31 123 4;
#X obj 404 9 r learn-tempo;
#X obj 404 94 s set-tempo;
#X obj 404 53 maxlib/scale 0 127 40 239;
#X obj 404 74 int;
#X msg 510 149 1 18;
#X obj 404 195 int;
#X obj 404 126 r learn-density;
#X obj 404 215 s set-density;
#X msg 510 269 2 18;
#X obj 404 315 int;
#X msg 700 31 3 18;
#X obj 404 246 r learn-legato;
#X obj 404 335 s set-legato;
#X obj 594 9 r learn-activity;
#X obj 594 74 s set-activity;
#X msg 700 278 5 18;
#X obj 594 320 int;
#X msg 1129 55 4 18;
#X obj 1023 100 int;
#X obj 1023 33 r learn-register;
#X obj 594 256 r learn-range;
#X obj 1023 78 maxlib/scale 0 127 -6 6;
#X obj 594 341 s set-range;
#X obj 1023 120 s set-register;
#X obj 594 299 maxlib/scale 0 127 0 4;
#X obj 404 149 pdmus/midi-learn;
#X obj 404 269 pdmus/midi-learn;
#X obj 594 31 pdmus/midi-learn;
#X obj 594 278 pdmus/midi-learn;
#X obj 1023 55 pdmus/midi-learn;
#X obj 43 481 r raw-activity;
#X msg 900 31 6 18;
#X obj 794 74 int;
#X msg 890 273 8 18;
#X msg 900 152 7 18;
#X obj 794 31 pdmus/midi-learn;
#X obj 784 273 pdmus/midi-learn;
#X obj 794 153 pdmus/midi-learn;
#X obj 794 9 r learn-bass-density;
#X obj 794 131 r learn-bass-duration;
#X obj 794 94 s set-bass-density;
#X obj 794 195 s set-bass-duration;
#X obj 784 253 r learn-bass-accents;
#X obj 784 315 s set-bass-velocity;
#X msg 242 392 seek \$1;
#X obj 242 413 s playlist;
#X obj 402 620 s set-play;
#X msg 242 318 1;
#X msg 273 318 -1;
#X obj 285 349 f 0;
#X obj 242 349 + 0;
#X obj 242 371 mod 100;
#X obj 242 274 r scroll-down;
#X obj 273 296 r scroll-up;
#X msg 670 542 10 18;
#X obj 562 542 pdmus/midi-learn;
#X obj 562 562 != 0;
#X obj 562 623 s set-reload;
#X obj 562 522 r learn-reload;
#X msg 510 542 123 4;
#X obj 402 542 pdmus/midi-learn;
#X obj 402 562 != 0;
#X obj 402 522 r learn-play;
#X msg 889 376 9 18;
#X obj 783 376 pdmus/midi-learn;
#X obj 783 439 s set-bass-octave;
#X obj 783 354 r learn-bass-octave;
#X obj 402 602 tgl 15 0 empty empty empty 17 7 0 10 -262144 -1 -1 0
1;
#X obj 402 582 sel 1;
#X msg 350 30 11 18;
#X obj 242 30 pdmus/midi-learn;
#X obj 242 51 != 0;
#X obj 242 72 change;
#X obj 242 10 r learn-scrollup;
#X obj 242 115 s set-scroll-up;
#X msg 350 165 12 18;
#X obj 242 165 pdmus/midi-learn;
#X obj 242 185 != 0;
#X obj 242 206 change;
#X obj 242 144 r learn-scrolldown;
#X obj 242 249 s set-scroll-down;
#X obj 562 582 change;
#X obj 562 602 sel 1;
#X obj 242 94 sel 1;
#X obj 242 227 sel 1;
#X text 16 501 I HAVE DISCONNECTED THIS!!!;
#X obj 594 53 maxlib/scale 0 127 0 1;
#X obj 794 53 maxlib/scale 0 127 0 32;
#X obj 794 174 maxlib/scale 0 127 0.2 16;
#X obj 784 294 maxlib/scale 0 127 1 0.125;
#X obj 783 397 - 3;
#X obj 783 417 abs;
#X obj 118 78 min 64;
#X obj 404 173 maxlib/scale 0 127 1 64;
#X obj 404 293 maxlib/scale 0 127 1 66;
#X obj 1022 311 == 0, f 10;
#X obj 1022 331 change;
#X obj 1022 352 sel 1;
#X msg 1021 437 set \$1;
#X obj 1022 372 f, f 18;
#X obj 1022 269 t f f f, f 18;
#X obj 1021 415 line 0;
#X msg 1021 394 \$1 \, 0 100;
#X obj 1022 291 pipe 200;
#X obj 1022 248 r raw-register;
#X obj 1021 459 s set-register;
#X floatatom 1121 201 5 0 0 0 - - -, f 5;
#X connect 5 0 4 0;
#X connect 5 0 114 0;
#X connect 6 0 5 0;
#X connect 8 0 9 0;
#X connect 9 0 17 0;
#X connect 10 0 18 0;
#X connect 11 0 10 0;
#X connect 14 0 19 0;
#X connect 15 0 14 0;
#X connect 17 0 7 0;
#X connect 18 0 12 0;
#X connect 18 0 128 0;
#X connect 19 0 16 0;
#X connect 20 0 24 0;
#X connect 20 1 21 0;
#X connect 21 0 20 1;
#X connect 22 0 20 0;
#X connect 24 0 25 0;
#X connect 25 0 23 0;
#X connect 26 0 47 1;
#X connect 27 0 29 0;
#X connect 28 0 47 0;
#X connect 30 0 48 1;
#X connect 31 0 34 0;
#X connect 32 0 49 1;
#X connect 33 0 48 0;
#X connect 35 0 49 0;
#X connect 37 0 50 1;
#X connect 38 0 44 0;
#X connect 39 0 51 1;
#X connect 40 0 45 0;
#X connect 41 0 51 0;
#X connect 42 0 50 0;
#X connect 43 0 40 0;
#X connect 46 0 38 0;
#X connect 47 0 115 0;
#X connect 47 1 26 0;
#X connect 48 0 116 0;
#X connect 48 1 30 0;
#X connect 49 0 108 0;
#X connect 49 1 32 0;
#X connect 50 0 46 0;
#X connect 50 1 37 0;
#X connect 51 0 43 0;
#X connect 51 1 39 0;
#X connect 53 0 57 1;
#X connect 54 0 62 0;
#X connect 55 0 58 1;
#X connect 56 0 59 1;
#X connect 57 0 109 0;
#X connect 57 1 53 0;
#X connect 58 0 111 0;
#X connect 58 1 55 0;
#X connect 59 0 110 0;
#X connect 59 1 56 0;
#X connect 60 0 57 0;
#X connect 61 0 59 0;
#X connect 64 0 58 0;
#X connect 66 0 67 0;
#X connect 69 0 72 0;
#X connect 70 0 72 0;
#X connect 71 0 72 1;
#X connect 72 0 71 0;
#X connect 72 0 73 0;
#X connect 73 0 66 0;
#X connect 74 0 69 0;
#X connect 75 0 70 0;
#X connect 76 0 77 1;
#X connect 77 0 78 0;
#X connect 77 1 76 0;
#X connect 78 0 103 0;
#X connect 80 0 77 0;
#X connect 81 0 82 1;
#X connect 82 0 83 0;
#X connect 82 1 81 0;
#X connect 83 0 90 0;
#X connect 84 0 82 0;
#X connect 85 0 86 1;
#X connect 86 0 112 0;
#X connect 86 1 85 0;
#X connect 88 0 86 0;
#X connect 89 0 68 0;
#X connect 90 0 89 0;
#X connect 91 0 92 1;
#X connect 92 0 93 0;
#X connect 92 1 91 0;
#X connect 93 0 94 0;
#X connect 94 0 105 0;
#X connect 95 0 92 0;
#X connect 97 0 98 1;
#X connect 98 0 99 0;
#X connect 98 1 97 0;
#X connect 99 0 100 0;
#X connect 100 0 106 0;
#X connect 101 0 98 0;
#X connect 103 0 104 0;
#X connect 104 0 79 0;
#X connect 105 0 96 0;
#X connect 106 0 102 0;
#X connect 108 0 36 0;
#X connect 109 0 54 0;
#X connect 110 0 63 0;
#X connect 111 0 65 0;
#X connect 112 0 113 0;
#X connect 113 0 87 0;
#X connect 114 0 3 0;
#X connect 115 0 27 0;
#X connect 116 0 31 0;
#X connect 117 0 118 0;
#X connect 118 0 119 0;
#X connect 119 0 121 0;
#X connect 121 0 124 0;
#X connect 122 0 125 0;
#X connect 122 1 117 1;
#X connect 122 2 121 1;
#X connect 123 0 120 0;
#X connect 124 0 123 0;
#X connect 125 0 117 0;
#X restore 216 60 pd control from pd-gui;
#N canvas 1 23 510 425 clock 0;
#X obj 134 139 /;
#X obj 190 305 + 1;
#X obj 160 305 f 0;
#X msg 134 119 15000 \$1;
#X obj 83 160 metro 125;
#X obj 134 97 r tempo;
#X obj 160 350 s current_step;
#X obj 8 226 sel 0;
#X obj 331 213 sel 0 1;
#X obj 8 6 r play;
#X obj 8 110 f;
#X obj 190 215 spigot 0;
#X obj 123 215 s set-play;
#X obj 8 132 spigot;
#X obj 14 26 r clock-mode;
#X obj 14 47 - 1;
#X obj 14 67 abs;
#X obj 14 88 t b f;
#X obj 56 132 sel 1;
#X obj 303 182 r clock-mode;
#X obj 258 215 spigot 0;
#X obj 258 237 s set-tempo;
#X msg 331 283 \; set-play color 2 13 10 \; set-tempo color 2 13 10
;
#X msg 175 284 0;
#X obj 123 183 pdmus/midi-sync, f 23;
#X obj 8 394 pdmus/midi-panic-ch 1;
#X obj 108 372 pdmus/midi-panic-ch 2;
#X msg 350 235 \; set-play color 11 11 1 \; set-tempo color 11 13 1
;
#X obj 54 226 sel 0;
#X obj 175 328 sel 63;
#X connect 0 0 4 1;
#X connect 1 0 2 1;
#X connect 2 0 1 0;
#X connect 2 0 6 0;
#X connect 2 0 29 0;
#X connect 3 0 0 0;
#X connect 4 0 2 0;
#X connect 5 0 3 0;
#X connect 7 0 23 0;
#X connect 7 0 25 0;
#X connect 7 0 26 0;
#X connect 8 0 22 0;
#X connect 8 1 27 0;
#X connect 9 0 10 0;
#X connect 10 0 13 0;
#X connect 11 0 2 0;
#X connect 13 0 4 0;
#X connect 13 0 7 0;
#X connect 14 0 15 0;
#X connect 15 0 16 0;
#X connect 16 0 17 0;
#X connect 17 0 10 0;
#X connect 17 1 13 1;
#X connect 17 1 18 0;
#X connect 18 1 4 0;
#X connect 19 0 20 1;
#X connect 19 0 11 1;
#X connect 19 0 8 0;
#X connect 20 0 21 0;
#X connect 23 0 2 1;
#X connect 24 0 12 0;
#X connect 24 0 28 0;
#X connect 24 1 11 0;
#X connect 24 2 20 0;
#X connect 28 0 23 0;
#X connect 28 0 25 0;
#X connect 28 0 26 0;
#X connect 29 0 23 0;
#X restore 295 40 pd clock;
#N canvas 8 23 898 691 activity 0;
#X obj 583 184 zexy/listfind;
#X msg 583 162 1;
#X obj 459 156 tabread \$0-activity;
#X obj 495 244 route float bang;
#X obj 610 280 f;
#X obj 639 280 + 1;
#X obj 625 258 f;
#X obj 471 319 pdmus/add2list prepend;
#X obj 471 361 list length;
#X obj 635 233 r voice-changes;
#X obj 471 340 t l l;
#X obj 477 449 list;
#X obj 486 382 r voice-changes;
#X obj 471 404 ==;
#X obj 476 428 sel 1;
#X obj 477 471 sort;
#X obj 459 180 t f f;
#X obj 471 297 f;
#X obj 495 266 t b;
#X obj 432 55 t f b b;
#X obj 583 140 t b b b;
#X obj 477 600 zexy/listfind;
#X obj 477 622 route float;
#X obj 166 58 r density;
#X obj 230 58 r activity;
#X obj 230 112 *;
#X obj 230 85 t b f;
#X obj 230 155 int;
#X floatatom 260 176 5 0 0 0 - - -, f 5;
#X obj 705 399 t b l;
#X obj 624 425 f;
#X obj 624 496 list;
#X obj 756 614 list prepend;
#X obj 624 447 t b f;
#N canvas 431 50 495 459 activity 0;
#N canvas 0 50 450 300 (subpatch) 0;
#X array \$0-activity 32 float 1;
#A 0 0 16 8 24 4 20 12 28 1 17 9 25 5 21 13 29 2 18 10 26 6 22 14 30
3 19 11 27 7 23 15 31;
#X coords 0 32 31 0 400 140 1 0 0;
#X restore 14 -37 graph;
#X text 11 103 descendientemente \, por compás;
#X msg 14 128 0 16 1 17 2 18 3 19 4 20 5 21 6 22 7 23 8 24 9 25 10
26 11 27 12 28 13 29 14 30 15 31;
#X msg 48 271 22 20 6 4 30 28 14 12 26 24 21 10 23 8 5 18 7 16 29 2
31 0 13 15 25 27 9 11 17 19 1 3;
#X text 46 248 from daniel1;
#X msg 59 329 3 1 19 17 11 9 27 25 15 13 0 31 2 29 16 7 18 5 8 23 10
21 24 26 12 14 28 30 4 6 20 22;
#X text 56 308 from daniel-inverse;
#X text 31 193 descendientemente \, por subtiempos débiles;
#X msg 24 216 0 16 8 24 4 20 12 28 1 17 9 25 5 21 13 29 2 18 10 26
6 22 14 30 3 19 11 27 7 23 15 31;
#X obj 14 375 zexy/tabset \$0-activity;
#X connect 2 0 9 0;
#X connect 3 0 9 0;
#X connect 5 0 9 0;
#X connect 8 0 9 0;
#X restore 41 430 pd activity table order;
#X obj 477 494 t b l;
#X msg 477 516 32;
#X obj 477 568 t f f;
#X obj 705 378 list;
#X obj 705 332 t b f;
#X floatatom 268 85 5 0 0 0 - - -, f 5;
#X text 272 134 number of chords;
#X floatatom 339 87 5 0 0 0 - - -, f 5;
#X obj 230 198 change;
#X obj 663 15 t l l l;
#X obj 663 94 spigot;
#X obj 696 73 == 0;
#X obj 432 80 pdmus/forloop;
#X obj 477 539 pdmus/forloop;
#X obj 21 150 random 2;
#X obj 21 174 sel 0;
#X msg 21 198 -1;
#X obj 21 128 t b;
#X obj 50 72 pdmus/forloop;
#X obj 21 226 pdmus/add2list prepend;
#X msg 114 204 0;
#X msg 50 27 16;
#X obj 50 96 sel 0;
#X obj 21 276 list;
#X obj 151 217 sel;
#X obj 166 196 - 1;
#X obj 50 50 t f f;
#N canvas 0 50 450 278 (subpatch) 0;
#X array r-voicing 16 float 3;
#A 0 0 1 -1 1 -1 1 1 -1 1 1 1 1 1 1 -1 1;
#X coords 0 1.1 16 -1.1 100 70 1 0 0;
#X restore 21 333 graph;
#X text 83 28 GET NEW RANDOM DISTRIBUTION;
#X obj 370 425 print some;
#X obj 229 266 s voice-changes;
#X obj 477 644 tabread r-voicing;
#X obj 230 220 + 1;
#X obj 604 210 print onset-positions;
#X floatatom 238 243 5 0 0 0 - - -, f 5;
#X obj 432 103 t f f;
#X obj 412 129 + 16;
#X obj 230 134 * 0.4;
#X obj 756 635 s chord-variations;
#X msg 353 472 0 16 24;
#X obj 353 542 moses 16;
#X obj 21 298 zexy/tabset r-voicing;
#X obj 696 49 list-abs/list-compare;
#X obj 628 162 zexy/tabdump new-onsets;
#X obj 353 516 pdmus/list-dripv;
#X obj 651 471 pdmus/chord-foldover;
#X obj 726 355 cyclone/coll one;
#C restore;
#X obj 495 219 zexy/listfind;
#X connect 0 0 68 0;
#X connect 0 0 82 1;
#X connect 1 0 0 0;
#X connect 2 0 16 0;
#X connect 3 0 18 0;
#X connect 3 1 4 0;
#X connect 4 0 5 0;
#X connect 4 0 2 0;
#X connect 5 0 4 1;
#X connect 6 0 4 1;
#X connect 7 0 10 0;
#X connect 8 0 13 0;
#X connect 9 0 6 0;
#X connect 10 0 8 0;
#X connect 10 1 11 1;
#X connect 11 0 15 0;
#X connect 12 0 13 1;
#X connect 13 0 14 0;
#X connect 14 0 11 0;
#X connect 15 0 35 0;
#X connect 15 0 64 0;
#X connect 15 0 79 0;
#X connect 16 0 82 0;
#X connect 16 1 17 1;
#X connect 17 0 7 0;
#X connect 18 0 17 0;
#X connect 19 0 47 0;
#X connect 19 1 6 0;
#X connect 19 2 20 0;
#X connect 20 0 1 0;
#X connect 20 1 7 1;
#X connect 20 2 78 0;
#X connect 21 0 22 0;
#X connect 22 0 66 0;
#X connect 23 0 25 0;
#X connect 24 0 26 0;
#X connect 24 0 40 0;
#X connect 25 0 72 0;
#X connect 26 0 25 0;
#X connect 26 1 25 1;
#X connect 27 0 28 0;
#X connect 27 0 43 0;
#X connect 29 0 30 0;
#X connect 29 1 80 1;
#X connect 30 0 33 0;
#X connect 31 0 32 0;
#X connect 32 0 73 0;
#X connect 33 0 31 0;
#X connect 33 1 80 0;
#X connect 35 0 36 0;
#X connect 35 1 21 1;
#X connect 36 0 48 0;
#X connect 37 0 21 0;
#X connect 38 0 29 0;
#X connect 39 0 38 0;
#X connect 39 1 32 1;
#X connect 39 1 81 0;
#X connect 42 0 25 0;
#X connect 43 0 67 0;
#X connect 44 0 45 0;
#X connect 44 1 77 1;
#X connect 44 2 77 0;
#X connect 46 0 45 1;
#X connect 47 0 70 0;
#X connect 48 0 37 0;
#X connect 49 0 50 0;
#X connect 50 0 51 0;
#X connect 50 1 54 0;
#X connect 51 0 54 0;
#X connect 52 0 49 0;
#X connect 53 0 57 0;
#X connect 54 0 58 1;
#X connect 55 0 54 1;
#X connect 56 0 61 0;
#X connect 57 0 55 0;
#X connect 57 1 52 0;
#X connect 57 1 59 0;
#X connect 58 0 76 0;
#X connect 59 0 58 0;
#X connect 60 0 59 1;
#X connect 61 0 53 0;
#X connect 61 1 60 0;
#X connect 66 0 30 1;
#X connect 67 0 65 0;
#X connect 67 0 19 0;
#X connect 67 0 69 0;
#X connect 70 0 71 0;
#X connect 70 1 2 0;
#X connect 71 0 2 0;
#X connect 72 0 27 0;
#X connect 74 0 79 0;
#X connect 77 0 46 0;
#X connect 78 0 0 1;
#X connect 79 0 75 0;
#X connect 80 0 31 1;
#X connect 81 0 38 1;
#X connect 82 0 3 0;
#X restore 322 167 pd activity;
#N canvas 3 23 582 441 register 0;
#X msg 134 119 dump;
#X obj 93 167 t b l;
#X obj 44 246 >= 0;
#X obj 44 269 sel 0;
#X obj 17 202 f;
#X obj 88 87 t b f;
#X obj 17 346 list;
#X msg 44 293 -1;
#X obj 175 375 list prepend;
#X obj 81 37 t f f;
#X obj 88 64 -;
#X obj 17 224 t b f;
#X msg 422 143 dump;
#X obj 394 191 t b l;
#X obj 368 275 list prepend;
#X obj 384 14 r range;
#X obj 399 67 -;
#X obj 384 38 t f f f;
#X obj 384 89 *;
#X obj 438 41 r set-range;
#X obj 384 110 t b f;
#X obj 358 226 f;
#X text 346 323 sumar restar 12 a cada cambio;
#X text 346 343 en vez de calcular la distancia;
#X text 346 364 de octava;
#X obj 81 14 r register;
#X obj 358 251 chord-range;
#X obj 175 397 s chord-variations;
#X obj 368 296 s chord-variations;
#X obj 134 141 cyclone/coll one;
#C restore;
#X obj 422 165 cyclone/coll one;
#C restore;
#X obj 71 321 pdmus/chord-foldover;
#X connect 0 0 29 0;
#X connect 1 0 4 0;
#X connect 1 1 31 1;
#X connect 2 0 3 0;
#X connect 3 0 7 0;
#X connect 3 1 31 0;
#X connect 4 0 11 0;
#X connect 5 0 0 0;
#X connect 5 1 4 1;
#X connect 6 0 8 0;
#X connect 7 0 31 0;
#X connect 8 0 27 0;
#X connect 9 0 10 1;
#X connect 9 1 10 0;
#X connect 10 0 5 0;
#X connect 11 0 6 0;
#X connect 11 1 2 0;
#X connect 12 0 30 0;
#X connect 13 0 21 0;
#X connect 13 1 26 1;
#X connect 14 0 28 0;
#X connect 15 0 17 0;
#X connect 16 0 18 1;
#X connect 17 0 18 0;
#X connect 17 1 16 1;
#X connect 17 2 16 0;
#X connect 18 0 20 0;
#X connect 19 0 16 1;
#X connect 20 0 12 0;
#X connect 20 1 21 1;
#X connect 21 0 26 0;
#X connect 25 0 9 0;
#X connect 26 0 14 0;
#X connect 29 0 1 0;
#X connect 29 1 8 1;
#X connect 30 0 13 0;
#X connect 30 1 14 1;
#X connect 31 0 6 1;
#X restore 216 187 pd register and range;
#X text 9 278 TO DO's:;
#X text 8 332 rethink chord-substitution and expansion.;
#X text 8 352 circular visualization?? processing??;
#X text 8 372 add colors to chord height... (brigthness) and range.
;
#X text 9 295 density bug cuando llega a 15 hace 16;
#X text 8 312 legato does not always visualize correctly.;
#X text 8 392 bass duration;
#N canvas 6 23 322 486 loadbangs 0;
#X obj 15 9 loadbang;
#X obj 15 91 f \$0;
#X obj 15 112 list, f 6;
#X obj 15 70 t b a, f 6;
#X obj 15 51 zexy/list2symbol;
#X obj 15 345 s playlist;
#X msg 15 324 location ./midi-chord-loops \, graphics 0;
#X msg 15 30 HOUSE HARMONIC FILLER;
#X msg 14 132 bang \; \$1-title label \$2 \; \$1-title label_pos 20
18 \; \$1-title label_font 3 20 \; \$1-title vis_size 800 425 \; \$1-title
color 11 13 \; set-key 0 \; set-chords-octave 3 \; set-tempo 125 \;
set-bass-duration 1 \; set-bass-octave 1 \; set-clock-mode 1 \; set-keyfifths
set 6.5 \; set-keyseconds set 6.5;
#X connect 0 0 7 0;
#X connect 1 0 2 0;
#X connect 2 0 8 0;
#X connect 3 0 1 0;
#X connect 3 1 2 1;
#X connect 4 0 3 0;
#X connect 6 0 5 0;
#X connect 7 0 4 0;
#X connect 8 0 6 0;
#X restore 216 40 pd loadbangs;
#N canvas 161 23 1262 751 get-chord-progression 0;
#X obj 11 4 inlet;
#X obj 728 124 unpack 0 0 0 0;
#X obj 728 168 /;
#X obj 743 146 r ticks/4;
#X obj 782 169 != 0;
#X obj 728 189 * 4;
#X obj 737 279 route;
#X obj 737 255 t l f;
#X obj 728 211 pack;
#X obj 11 25 t l l, f 120;
#X obj 463 355 pdmus/add2list prepend;
#X msg 728 323 \$2 \$1;
#X obj 728 389 pdmus/add2list prepend;
#X obj 1012 333 r reset-analysis;
#X obj 433 552 list;
#X obj 743 545 list;
#X obj 728 344 route 1 0;
#X obj 874 389 pdmus/add2list prepend;
#X obj 824 545 list;
#X obj 793 638 -;
#X obj 793 614 swap;
#X obj 743 587 t f f;
#X obj 433 710 pack s f f, f 60;
#X obj 841 613 f 0;
#X obj 871 613 + 1;
#X obj 841 634 mod 8;
#X obj 814 591 t f b;
#X obj 826 743 s;
#X obj 841 655 makefilename master-chord-fill-%d;
#X text 858 742 chord \, onset \, duration.;
#X obj 11 522 outlet;
#X obj 656 424 outlet;
#X obj 583 581 r reset-analysis;
#X obj 433 597 t s s s;
#X obj 472 654 == 0;
#X obj 433 673 spigot;
#X obj 514 653 sel 1;
#X msg 514 676 symbol;
#X obj 737 302 tabwrite master-pattern;
#X obj 348 186 s fundamentals;
#X obj 348 141 change;
#X obj 348 164 pdmus/add2list prepend;
#X obj 11 47 pdmus/chord-make;
#X obj 38 108 pdmus/chord-estimate;
#X obj 472 628 list-abs/compare-any;
#X obj 728 232 pdmus/change-any;
#X obj 699 468 r end-analysis;
#X obj 433 572 zexy/drip 0;
#X obj 743 566 zexy/drip 0;
#X obj 824 566 zexy/drip 0;
#X obj 699 489 del 1;
#X obj 699 511 t b b b;
#X text 869 512 revisar la última parte para evitar los zexy/drip...
;
#X obj 77 283 list prepend, f 13;
#X obj 463 333 list2symbol, f 15;
#X obj 179 175 pdmus/uanz;
#X obj 152 154 t f f;
#X obj 152 218 -, f 5;
#X obj 152 239 mod 12;
#X obj 11 88 t l l;
#X obj 236 218 * -1;
#X text 558 424 onset position;
#X text 730 491 change this behaviour! I hate having to use delays!
;
#X obj 550 292 loadbang;
#X msg 550 312 symbol;
#N canvas 390 556 416 248 pc2degrees 0;
#X obj 9 10 inlet;
#X obj 9 31 sel 0 1 2 3 4 5 6 7 8 9 10 11, f 64;
#X msg 9 64 I;
#X msg 40 64 bII;
#X msg 72 64 II;
#X msg 100 64 bIII;
#X msg 136 64 III;
#X msg 167 64 IV;
#X msg 231 64 V;
#X msg 263 64 bVI;
#X msg 294 64 VI;
#X msg 326 64 bVII;
#X msg 199 64 #IV;
#X obj 9 198 symbol;
#X obj 9 220 outlet;
#X connect 0 0 1 0;
#X connect 1 0 2 0;
#X connect 1 1 3 0;
#X connect 1 2 4 0;
#X connect 1 3 5 0;
#X connect 1 4 6 0;
#X connect 1 5 7 0;
#X connect 1 6 12 0;
#X connect 1 7 8 0;
#X connect 1 8 9 0;
#X connect 1 9 10 0;
#X connect 1 10 11 0;
#X connect 2 0 13 0;
#X connect 3 0 13 0;
#X connect 4 0 13 0;
#X connect 5 0 13 0;
#X connect 6 0 13 0;
#X connect 7 0 13 0;
#X connect 8 0 13 0;
#X connect 9 0 13 0;
#X connect 10 0 13 0;
#X connect 11 0 13 0;
#X connect 12 0 13 0;
#X connect 13 0 14 0;
#X restore 152 261 pd pc2degrees;
#X obj 179 197 t f f, f 10;
#X msg 583 603 symbol n;
#X obj 134 394 pdmus/chord-unique;
#X msg 251 392 0 12 24 36 48 60 72 84 96 108 120, f 12;
#X obj 134 438 zexy/listfind, f 20;
#X obj 251 372 loadbang;
#X obj 134 416 pdmus/list-dripv;
#X obj 134 459 route float;
#X obj 134 373 pdmus/uanz;
#X obj 11 352 t l l, f 21;
#X text 61 520 move these calculations to the coll object int the next
window;
#X obj 457 134 r reset-analysis;
#X obj 134 480 * -12;
#X obj 11 329 pdmus/chord-transpose, f 38;
#X obj 11 500 pdmus/chord-transpose;
#X obj 11 67 zexy/sort;
#X obj 236 154 r reset-analysis;
#X obj 191 352 r reset-analysis;
#X connect 0 0 9 0;
#X connect 1 0 2 0;
#X connect 1 2 4 0;
#X connect 2 0 5 0;
#X connect 3 0 2 1;
#X connect 4 0 8 1;
#X connect 5 0 8 0;
#X connect 6 0 38 0;
#X connect 7 0 6 0;
#X connect 7 1 6 1;
#X connect 7 1 38 1;
#X connect 8 0 45 0;
#X connect 9 0 42 0;
#X connect 9 1 1 0;
#X connect 10 0 14 1;
#X connect 11 0 16 0;
#X connect 12 0 15 1;
#X connect 13 0 12 1;
#X connect 13 0 17 1;
#X connect 13 0 10 1;
#X connect 14 0 47 0;
#X connect 15 0 48 0;
#X connect 16 0 12 0;
#X connect 16 0 31 0;
#X connect 16 1 17 0;
#X connect 17 0 18 1;
#X connect 18 0 49 0;
#X connect 19 0 22 2;
#X connect 20 0 19 0;
#X connect 20 1 19 1;
#X connect 21 0 22 1;
#X connect 21 1 20 0;
#X connect 22 0 27 0;
#X connect 23 0 24 0;
#X connect 23 0 25 0;
#X connect 24 0 23 1;
#X connect 25 0 28 0;
#X connect 26 0 20 1;
#X connect 26 1 23 0;
#X connect 28 0 27 1;
#X connect 32 0 67 0;
#X connect 33 0 35 0;
#X connect 33 1 44 1;
#X connect 33 2 44 0;
#X connect 34 0 35 1;
#X connect 35 0 22 0;
#X connect 36 0 37 0;
#X connect 37 0 22 0;
#X connect 40 0 41 0;
#X connect 41 0 39 0;
#X connect 42 0 81 0;
#X connect 43 1 53 0;
#X connect 43 3 40 0;
#X connect 43 3 56 0;
#X connect 44 0 34 0;
#X connect 44 0 36 0;
#X connect 45 0 7 0;
#X connect 45 0 11 0;
#X connect 46 0 50 0;
#X connect 47 0 33 0;
#X connect 48 0 21 0;
#X connect 49 0 26 0;
#X connect 50 0 51 0;
#X connect 51 0 14 0;
#X connect 51 1 15 0;
#X connect 51 2 18 0;
#X connect 53 0 54 0;
#X connect 54 0 10 0;
#X connect 55 0 66 0;
#X connect 56 0 57 0;
#X connect 56 1 55 0;
#X connect 57 0 58 0;
#X connect 58 0 65 0;
#X connect 59 0 79 0;
#X connect 59 1 43 0;
#X connect 60 0 79 1;
#X connect 63 0 64 0;
#X connect 64 0 54 1;
#X connect 65 0 53 1;
#X connect 66 0 57 1;
#X connect 66 1 60 0;
#X connect 67 0 44 1;
#X connect 68 0 72 0;
#X connect 69 0 70 1;
#X connect 70 0 73 0;
#X connect 71 0 69 0;
#X connect 72 0 70 0;
#X connect 73 0 78 0;
#X connect 74 0 68 0;
#X connect 75 0 80 0;
#X connect 75 1 74 0;
#X connect 77 0 41 1;
#X connect 78 0 80 1;
#X connect 79 0 75 0;
#X connect 80 0 30 0;
#X connect 81 0 59 0;
#X connect 82 0 55 1;
#X connect 83 0 74 1;
#X restore 216 120 pd get-chord-progression;
#N canvas 165 23 680 463 make-chord-variations 0;
#X msg 342 140 clear;
#X obj 331 10 inlet;
#X text 369 9 receives list from makechord;
#X obj 400 58 inlet;
#X obj 331 78 list prepend;
#X text 61 416 we can use the argumentation by Tagg to take the first
chord of the shuttle as "tonic." According to this... it should be
quite easy to obtain the tonic of the shuttle., f 88;
#X obj 342 119 r reset-analysis;
#X obj 349 167 r chord-variations;
#X text 442 57 receives onset position from route 1;
#X obj 136 255 list, f 33;
#X obj 103 70 t f f, f 23;
#X obj 103 112 sel -1;
#X obj 153 233 * 80;
#X text 185 233 velocity;
#X obj 136 134 t b f f f;
#X obj 174 164 +;
#X obj 174 185 sel 2;
#X msg 468 350 0 60 64 67 71;
#X obj 458 374 s chord-variations;
#X msg 458 327 0 60 64 69 71;
#X text 18 188 -1 does nothing...;
#X text 30 207 0 silences what was sounding, f 16;
#X text 24 141 1 activates (and first mutes the previous chord), f
17;
#X obj 103 92 tabread slave-pattern;
#X obj 103 48 r current_step;
#X obj 358 277 list split 1;
#X obj 358 317 s bass;
#X obj 331 235 t l l;
#X obj 331 191 cyclone/coll one;
#C restore;
#X obj 136 277 pdmus/list-dripv;
#X obj 358 256 zexy/sort;
#X obj 136 320 noteout 2;
#X obj 174 206 pdmus/midi-panic-ch 2;
#X obj 136 298 pack 0 0 2;
#X text 417 79 listas con onset-step y notas del acorde;
#X floatatom 366 299 5 0 0 0 - - -, f 5;
#N canvas 0 89 450 300 former-filter-consecutive-identical-chords 0
;
#X obj 31 26 t l l l, f 23;
#X obj 31 103 spigot;
#X obj 64 82 == 0;
#X obj 64 61 list-abs/list-compare;
#X connect 0 0 1 0;
#X connect 0 1 3 1;
#X connect 0 2 3 0;
#X connect 2 0 1 1;
#X connect 3 0 2 0;
#X restore 339 33 pd former-filter-consecutive-identical-chords;
#X text 574 323 <-- This is where all the pitch variations happen!
, f 14;
#X obj 472 107 r chords-octave;
#X obj 472 127 - 8;
#X obj 472 147 abs;
#X obj 472 168 * 12;
#X obj 331 214 pdmus/chord-transpose 60;
#X obj 508 147 r key;
#X obj 508 170 t b f, f 10;
#X obj 472 194 +, f 16;
#X floatatom 525 236 5 0 0 0 - - -, f 5;
#X connect 0 0 28 0;
#X connect 1 0 4 0;
#X connect 3 0 4 1;
#X connect 4 0 28 0;
#X connect 6 0 0 0;
#X connect 7 0 28 0;
#X connect 9 0 29 0;
#X connect 10 0 23 0;
#X connect 10 1 28 0;
#X connect 11 1 14 0;
#X connect 12 0 33 1;
#X connect 14 0 9 0;
#X connect 14 1 12 0;
#X connect 14 2 15 1;
#X connect 14 3 15 0;
#X connect 15 0 16 0;
#X connect 16 0 32 0;
#X connect 17 0 18 0;
#X connect 19 0 18 0;
#X connect 23 0 11 0;
#X connect 24 0 10 0;
#X connect 25 0 26 0;
#X connect 25 0 35 0;
#X connect 27 0 9 1;
#X connect 27 1 30 0;
#X connect 28 0 42 0;
#X connect 29 0 33 0;
#X connect 30 0 25 0;
#X connect 33 0 31 0;
#X connect 38 0 39 0;
#X connect 39 0 40 0;
#X connect 40 0 41 0;
#X connect 41 0 45 0;
#X connect 42 0 27 0;
#X connect 43 0 44 0;
#X connect 44 0 45 0;
#X connect 44 1 45 1;
#X connect 45 0 42 1;
#X connect 45 0 46 0;
#X restore 216 142 pd make-chord-variations;
#X text 7 411 make that reload only changes the initial chord progression
;
#X text 170 430 Reload...;
#X obj 216 20 declare -stdpath unauthorized -path abs;
#N canvas 0 22 450 300 reset 0;
#X obj 12 12 r reset-analysis;
#X obj 22 76 s set-register;
#X msg 12 33 0;
#X obj 32 56 s set-range;
#X obj 12 96 s set-activity;
#X obj 146 14 r reset-analysis;
#X msg 146 39 \; master-chord-fill-0 C 100 1 \; master-chord-fill-1
C 100 1 \; master-chord-fill-2 C 100 1 \; master-chord-fill-3 C 100
1 \; master-chord-fill-4 C 100 1 \; master-chord-fill-5 C 100 1 \;
master-chord-fill-6 C 100 1 \; master-chord-fill-7 C 100 1;
#X connect 0 0 2 0;
#X connect 2 0 1 0;
#X connect 2 0 3 0;
#X connect 2 0 4 0;
#X connect 5 0 6 0;
#X restore 351 40 pd reset;
#N canvas 3 23 532 568 sequence-visualisation 0;
#N canvas 42 23 242 83 line 0;
#X obj 12 11 struct line float pos float color;
#X obj 12 34 drawpolygon color 1 pos 20 pos 100;
#X restore 284 25 pd line;
#X obj 10 538 set beat x, f 12;
#X obj 10 6 r current_step;
#X obj 10 90 div 4;
#X obj 10 111 change;
#X obj 10 153 + 25;
#X obj 10 132 * 100;
#X obj 52 449 until;
#X msg 91 474 traverse pd-data;
#X obj 52 428 t b b, f 7;
#X msg 52 472 next;
#N canvas 831 269 334 157 beat 0;
#X obj 6 11 struct beat float x;
#X obj 7 35 drawpolygon 222 2 0 20 100 20;
#X obj 7 55 drawpolygon 222 2 0 100 100 100;
#X restore 284 45 pd beat;
#N canvas 0 50 373 97 mchord1 0;
#X obj 5 28 filledpolygon 555 666 1 0 30 dur 30 dur 90 0 90;
#X obj 5 48 drawsymbol chordname 5 35 999;
#X obj 5 8 struct mchord1 float x float dur symbol chordname;
#X restore 284 85 pd mchord1;
#N canvas 0 50 373 97 mchord2 0;
#X obj 5 28 filledpolygon 555 666 1 0 30 dur 30 dur 90 0 90;
#X obj 5 48 drawsymbol chordname 5 35 999;
#X obj 5 8 struct mchord2 float x float dur symbol chordname;
#X restore 284 105 pd mchord2;
#N canvas 0 50 373 97 mchord3 0;
#X obj 5 28 filledpolygon 555 666 1 0 30 dur 30 dur 90 0 90;
#X obj 5 48 drawsymbol chordname 5 35 999;
#X obj 5 8 struct mchord3 float x float dur symbol chordname;
#X restore 284 125 pd mchord3;
#N canvas 0 50 373 97 mchord4 0;
#X obj 5 28 filledpolygon 555 666 1 0 30 dur 30 dur 90 0 90;
#X obj 5 48 drawsymbol chordname 5 35 999;
#X obj 5 8 struct mchord4 float x float dur symbol chordname;
#X restore 284 145 pd mchord4;
#N canvas 0 50 373 97 mchord5 0;
#X obj 5 28 filledpolygon 555 666 1 0 30 dur 30 dur 90 0 90;
#X obj 5 48 drawsymbol chordname 5 35 999;
#X obj 5 8 struct mchord5 float x float dur symbol chordname;
#X restore 284 165 pd mchord5;
#N canvas 0 50 373 97 mchord6 0;
#X obj 5 28 filledpolygon 555 666 1 0 30 dur 30 dur 90 0 90;
#X obj 5 48 drawsymbol chordname 5 35 999;
#X obj 5 8 struct mchord6 float x float dur symbol chordname;
#X restore 284 185 pd mchord6;
#N canvas 0 50 373 97 mchord7 0;
#X obj 5 28 filledpolygon 555 666 1 0 30 dur 30 dur 90 0 90;
#X obj 5 48 drawsymbol chordname 5 35 999;
#X obj 5 8 struct mchord7 float x float dur symbol chordname;
#X restore 284 205 pd mchord7;
#N canvas 0 50 373 97 mchord0 0;
#X obj 5 28 filledpolygon 555 666 1 0 30 dur 30 dur 90 0 90;
#X obj 5 48 drawsymbol chordname 5 35 999;
#X obj 5 8 struct mchord0 float x float dur symbol chordname;
#X restore 284 65 pd mchord0;
#X obj 52 496 pointer beat;
#X obj 52 517 t b p;
#X obj 352 65 master-chord-structure 0;
#X obj 352 185 master-chord-structure 6;
#X obj 352 105 master-chord-structure 2;
#X obj 352 85 master-chord-structure 1;
#X obj 352 125 master-chord-structure 3;
#X obj 352 145 master-chord-structure 4;
#X obj 352 165 master-chord-structure 5;
#X obj 352 205 master-chord-structure 7;
#X obj 100 142 pointer;
#X obj 52 46 bng 15 250 50 0 empty empty empty 17 7 0 10 -262144 -1
-1;
#X obj 118 227 * 25;
#X msg 109 108 \; pd-data clear;
#X msg 90 86 traverse pd-data \, bang;
#X obj 71 184 pdmus/forloop 0;
#X obj 118 249 + 25;
#X obj 212 227 mod 4;
#X obj 135 319 append line pos color, f 24;
#X obj 212 248 sel 0, f 6;
#X obj 245 271 t b;
#X obj 165 249 sel 0;
#X msg 165 270 900;
#X obj 165 227 mod 16;
#X msg 104 319 25;
#X obj 52 64 t b b b b, f 10;
#X obj 104 341 append beat x, f 30;
#X msg 245 292 333;
#X msg 212 271 666;
#X obj 52 26 loadbang;
#X obj 71 205 t f f f f, f 24;
#X obj 100 163 s loadpointer;
#X obj 296 292 r loadpointer;
#X obj 71 406 append mchord0 x, f 38;
#X obj 71 363 pdmus/forloop;
#X msg 71 319 8;
#X msg 71 385 set mchord\$1 x \, 500;
#X obj 71 227 sel 64;
#X msg 71 163 65;
#X obj 71 298 t b b, f 6;
#X connect 2 0 3 0;
#X connect 3 0 4 0;
#X connect 4 0 6 0;
#X connect 5 0 1 0;
#X connect 6 0 5 0;
#X connect 7 0 10 0;
#X connect 8 0 20 0;
#X connect 9 0 7 0;
#X connect 9 1 8 0;
#X connect 10 0 20 0;
#X connect 20 0 21 0;
#X connect 21 0 7 1;
#X connect 21 1 1 1;
#X connect 30 0 51 0;
#X connect 31 0 45 0;
#X connect 32 0 36 0;
#X connect 33 0 30 0;
#X connect 34 0 30 0;
#X connect 35 0 50 0;
#X connect 36 0 38 0;
#X connect 37 0 39 0;
#X connect 39 0 48 0;
#X connect 39 1 40 0;
#X connect 40 0 47 0;
#X connect 41 0 42 0;
#X connect 42 0 38 1;
#X connect 43 0 41 0;
#X connect 44 0 46 0;
#X connect 45 0 9 0;
#X connect 45 1 58 0;
#X connect 45 2 34 0;
#X connect 45 3 33 0;
#X connect 47 0 38 1;
#X connect 48 0 38 1;
#X connect 49 0 31 0;
#X connect 50 0 57 0;
#X connect 50 1 32 0;
#X connect 50 2 43 0;
#X connect 50 3 37 0;
#X connect 52 0 38 2;
#X connect 52 0 46 1;
#X connect 52 0 53 1;
#X connect 54 0 56 0;
#X connect 55 0 54 0;
#X connect 56 0 53 0;
#X connect 57 0 59 0;
#X connect 58 0 35 0;
#X connect 59 0 55 0;
#X connect 59 1 44 0;
#X restore 216 80 pd sequence-visualisation;
#X text 7 431 save patch on midi learn!;
#N canvas 0 23 763 705 bass 0;
#X obj 136 27 r onsets-bass;
#X obj 13 7 r bass-density;
#X obj 13 48 pdmus/populate-rhythm;
#X obj 13 28 int;
#X obj 135 651 poly 1 1, f 24;
#X obj 31 70 pdmus/prnt;
#N canvas 0 50 450 300 (subpatch) 0;
#X array nonext 16 float 3;
#A 0 4 2 5 3 6 5 1 8 3 7 6 3 7 8 6 6;
#X coords 0 3 15 -3 200 50 1 0 0;
#X restore 528 98 graph;
#N canvas 0 50 450 300 (subpatch) 0;
#X array next 16 float 3;
#A 0 4 2 5 3 4 5 1 2 3 5 4 3 5 2 4 4;
#X coords 0 3 15 -3 200 50 1 0 0;
#X restore 528 188 graph;
#N canvas 0 50 450 300 (subpatch) 0;
#X array id2d 32 float 3;
#A 0 0 1 1 1 1 2 2 2 2 2 2 3 3 3 3 4 0 1 1 1 1 2 2 2 2 2 2 3 3 3 3
4;
#X coords 0 4 31 0 200 140 1 0 0;
#X restore 318 98 graph;
#X obj 205 673 noteout 1, f 24;
#X obj 132 93 table riddm;
#N canvas 0 23 691 699 salience 0;
#X obj 24 17 inlet;
#X obj 41 132 list split 1;
#X obj 110 188 list split 1;
#X obj 68 211 == 1;
#X obj 102 211 == 0;
#X obj 68 235 &&;
#X obj 104 168 list;
#X obj 41 151 t b f;
#X obj 74 87 list split 1;
#X obj 40 114 list append;
#X obj 147 395 list;
#X obj 23 459 list;
#X obj 69 395 list prepend;
#X obj 23 527 list split 1;
#X msg 240 181 bang;
#X obj 128 493 list length;
#X obj 23 476 t a a;
#X obj 128 510 - 1;
#X obj 125 301 f;
#X obj 160 300 + 1;
#X msg 352 162 0;
#X obj 23 37 t b a a b b;
#X msg 125 282 bang;
#X obj 68 265 t f f;
#N canvas 0 50 450 300 (subpatch) 0;
#X array salience 16 float 1;
#A 0 -1 4 -3 6 -6 0.5 -6.5 1 -6 0.5 -6.5 1 -4 1.5 -5.5 3;
#X coords 0 4 15 -4 200 140 1 0 0;
#X restore 421 174 graph;
#X msg 365 326 \; salience 0 4 -1 1 -2 2 -1 1 -3 3 -1 1 -2 2 -1 1 -4
;
#X obj 125 319 tabread salience;
#X obj 68 336 *;
#X obj 69 375 int;
#X obj 23 581 outlet;
#X text 290 33 find the salient notes of a rhythmic phrase;
#X obj 68 356 * -1;
#X obj 244 541 outlet;
#X text 28 598 todos;
#X text 225 558 solo positivos;
#X text 224 572 (syncopations);
#X obj 451 537 outlet;
#X text 432 554 solo negativos;
#X text 434 572 (reinforcements);
#X obj 351 426 list;
#X obj 244 445 list;
#X obj 265 426 list prepend;
#X obj 244 515 list split 1;
#X obj 349 481 list length;
#X obj 244 464 t a a;
#X obj 349 498 - 1;
#X obj 265 393 moses 0;
#X obj 23 428 t b b b;
#X msg 225 407 0;
#X connect 0 0 21 0;
#X connect 1 0 7 0;
#X connect 1 1 2 0;
#X connect 1 1 6 1;
#X connect 2 0 4 0;
#X connect 3 0 5 0;
#X connect 4 0 5 1;
#X connect 5 0 23 0;
#X connect 6 0 1 0;
#X connect 7 0 6 0;
#X connect 7 1 3 0;
#X connect 8 0 9 1;
#X connect 9 0 1 0;
#X connect 10 0 12 1;
#X connect 11 0 16 0;
#X connect 12 0 10 0;
#X connect 12 0 11 1;
#X connect 13 0 29 0;
#X connect 14 0 12 1;
#X connect 14 0 41 1;
#X connect 15 0 17 0;
#X connect 16 0 13 0;
#X connect 16 1 15 0;
#X connect 17 0 13 1;
#X connect 18 0 19 0;
#X connect 18 0 26 0;
#X connect 19 0 18 1;
#X connect 20 0 18 1;
#X connect 21 0 47 0;
#X connect 21 1 9 0;
#X connect 21 2 8 0;
#X connect 21 3 14 0;
#X connect 21 4 20 0;
#X connect 22 0 18 0;
#X connect 23 0 27 0;
#X connect 23 1 22 0;
#X connect 26 0 27 1;
#X connect 27 0 31 0;
#X connect 28 0 12 0;
#X connect 28 0 46 0;
#X connect 31 0 28 0;
#X connect 39 0 41 1;
#X connect 40 0 44 0;
#X connect 41 0 39 0;
#X connect 41 0 40 1;
#X connect 42 0 32 0;
#X connect 43 0 45 0;
#X connect 44 0 42 0;
#X connect 44 1 43 0;
#X connect 45 0 42 1;
#X connect 46 0 48 0;
#X connect 46 1 41 0;
#X connect 47 0 11 0;
#X connect 47 1 40 0;
#X connect 48 0 41 0;
#X restore 13 115 pd salience;
#N canvas 264 140 857 503 calculate 0;
#X obj 334 173 list split 1;
#X obj 334 194 t b a;
#X obj 377 212 list;
#X obj 420 258 f;
#X obj 442 258 + 1;
#X msg 436 169 0;
#X obj 366 241 t f b;
#X obj 350 283 sel 0;
#X obj 474 279 t f f;
#X obj 378 327 +;
#X obj 231 87 t b a b b;
#X msg 214 211 16;
#X obj 214 263 t f f;
#X obj 77 28 inlet;
#X text 431 16 use the values of the most salien notes and the values
of the L profile and set an experimental velocity value for the notes.
This highlights the accents (theoretical) plus the syncopations found
on the pattern.;
#X obj 58 394 pdmus/forloop;
#X msg 58 373 16;
#X obj 58 415 t f f;
#X obj 58 476 tabwrite velocity;
#X obj 126 170 t b b b;
#X obj 58 456 pow;
#X obj 506 404 inlet;
#X obj 214 304 + 2;
#X obj 393 307 tabread vel;
#X obj 378 351 tabwrite vel;
#X obj 214 283 tabread vel;
#X obj 214 324 tabwrite vel;
#X obj 59 435 tabread vel;
#X obj 555 218 table vel 16;
#X obj 506 424 t b f;
#X msg 145 347 \; vel normalize 1;
#X msg 369 104 \; vel 0 2 0 1 0 2 0 1 0 2 0 1 0 2 0 1 0;
#X obj 214 240 pdmus/forloop;
#X connect 0 0 1 0;
#X connect 0 1 2 1;
#X connect 1 0 2 0;
#X connect 1 1 6 0;
#X connect 2 0 0 0;
#X connect 3 0 4 0;
#X connect 3 0 8 0;
#X connect 4 0 3 1;
#X connect 5 0 3 1;
#X connect 6 0 7 0;
#X connect 6 1 3 0;
#X connect 7 1 9 0;
#X connect 8 0 23 0;
#X connect 8 1 24 1;
#X connect 9 0 24 0;
#X connect 10 0 19 0;
#X connect 10 1 0 0;
#X connect 10 2 5 0;
#X connect 10 2 2 1;
#X connect 10 3 31 0;
#X connect 11 0 32 0;
#X connect 12 0 25 0;
#X connect 12 1 26 1;
#X connect 13 0 10 0;
#X connect 15 0 17 0;
#X connect 16 0 15 0;
#X connect 17 0 27 0;
#X connect 17 1 18 1;
#X connect 19 0 16 0;
#X connect 19 1 30 0;
#X connect 19 2 11 0;
#X connect 20 0 18 0;
#X connect 21 0 29 0;
#X connect 22 0 26 0;
#X connect 23 0 9 1;
#X connect 25 0 22 0;
#X connect 27 0 20 0;
#X connect 29 0 16 0;
#X connect 29 1 20 1;
#X connect 32 0 12 0;
#X restore 44 195 pd calculate velocity;
#X obj 184 195 table velocity 16;
#X obj 167 172 r bass-velocity;
#X obj 22 93 zexy/tabset riddm;
#X text 85 113 calculate the salience of a sequence. Outputs are (allnotes
\, only syncopations \, only reinforcements), f 36;
#X obj 16 467 tabread riddm;
#X obj 16 488 sel 1;
#X obj 103 467 tabread velocity;
#X obj 16 444 t f f, f 15;
#X obj 16 514 f;
#X obj 176 339 f;
#X obj 225 295 r fundamentals;
#X obj 225 317 unpack;
#X obj 207 340 f, f 9;
#X obj 176 295 sel 0 1;
#X obj 16 603 f, f 30;
#X obj 16 557 t b f, f 32;
#X obj 276 476 r tempo;
#X obj 276 498 * 4;
#X msg 276 519 60000 \$1;
#X obj 276 540 /;
#X obj 283 562 r bass-duration;
#X obj 283 586 t b f;
#X obj 276 608 * 1, f 6;
#X obj 16 230 r current_step;
#X obj 16 421 mod 16;
#X obj 228 361 r bass-octave;
#X obj 228 423 * 12;
#X obj 228 446 + 36;
#X obj 135 629 makenote 127 300, f 24;
#X obj 103 488 * 127;
#X obj 176 273 >= 16;
#X obj 337 296 mod 2;
#X obj 16 252 t f f f, f 54;
#X obj 193 582 + 0, f 4;
#X obj 207 466 + 24;
#X obj 228 381 - 2;
#X obj 228 401 abs;
#X text 20 581 RECONNECT BASS!;
#X obj 337 317 * 12;
#X obj 16 535 int;
#X connect 0 0 2 1;
#X connect 1 0 3 0;
#X connect 2 0 5 0;
#X connect 2 0 15 0;
#X connect 2 0 11 0;
#X connect 3 0 2 0;
#X connect 4 1 9 0;
#X connect 4 2 9 1;
#X connect 11 1 12 0;
#X connect 14 0 12 1;
#X connect 17 0 18 0;
#X connect 18 0 21 0;
#X connect 19 0 42 0;
#X connect 20 0 17 0;
#X connect 20 1 19 0;
#X connect 21 0 52 0;
#X connect 22 0 47 0;
#X connect 23 0 24 0;
#X connect 24 0 22 1;
#X connect 24 1 25 1;
#X connect 25 0 47 0;
#X connect 26 0 22 0;
#X connect 26 1 25 0;
#X connect 27 0 41 0;
#X connect 28 1 41 1;
#X connect 29 0 30 0;
#X connect 30 0 31 0;
#X connect 31 0 32 0;
#X connect 32 0 35 0;
#X connect 33 0 34 0;
#X connect 34 0 35 0;
#X connect 34 1 35 1;
#X connect 35 0 41 2;
#X connect 36 0 45 0;
#X connect 37 0 20 0;
#X connect 38 0 48 0;
#X connect 39 0 40 0;
#X connect 40 0 47 1;
#X connect 41 0 4 0;
#X connect 41 1 4 1;
#X connect 42 0 21 1;
#X connect 43 0 26 0;
#X connect 44 0 51 0;
#X connect 45 0 37 0;
#X connect 45 1 43 0;
#X connect 45 2 44 0;
#X connect 46 0 27 1;
#X connect 47 0 46 0;
#X connect 48 0 49 0;
#X connect 49 0 39 0;
#X connect 51 0 46 1;
#X connect 52 0 28 0;
#X restore 215 254 pd bass;
#X connect 1 0 19 0;
#X connect 19 0 20 0;
#X connect 19 1 20 1;
#X restore 734 -1 pd patch;
#X obj -4 -1 cnv 15 800 425 empty \$0-title HOUSE HARMONIC FILLER 20
18 0 20 -128992 -258699 0;
#X obj 805 4 r playlist;
#X obj 805 281 s file-by-name;
#X obj 522 88 bng 24 250 50 0 load_midi_file set-load_midi_file load
1 -10 1 12 -66577 -258113 -228856;
#X obj 522 131 bng 24 250 50 0 reload set-reload reload -5 -9 1 12
-66577 -258113 -228856;
#X obj 548 147 bng 8 250 50 0 learn-reload --- empty 17 7 0 10 -262144
-1 -1;
#X obj 565 88 bng 24 250 50 0 scroll-up set-scroll-up up 5 -10 1 12
-66577 -258113 -228856;
#X obj 591 104 bng 8 250 50 0 learn-scrollup --- empty 17 7 0 10 -262144
-1 -1;
#X obj 565 131 bng 24 250 50 0 scroll-down set-scroll-down down -2
-10 1 12 -66577 -258113 -228856;
#X obj 591 147 bng 8 250 50 0 learn-scrolldown --- empty 17 7 0 10
-262144 -1 -1;
#X obj 7 42 cnv 15 250 5 empty empty CHORDS 5 12 0 20 -128992 -228856
0;
#X obj 15 89 vsl 24 180 1 32 0 1 raw-density set-density density -8
-12 1 12 -66577 -258113 -228856 5197 1;
#X obj 41 264 bng 8 250 50 0 learn-density --- empty 17 7 0 10 -262144
-1 -1;
#X obj 58 89 vsl 24 180 1 34 0 1 raw-legato set-legato legato -6 -12
1 12 -66577 -258113 -228856 17900 0;
#X obj 101 89 vsl 24 180 0 1 0 0 raw-activity set-activity activity
-8 -12 1 12 -66577 -258113 -228856 0 1;
#X obj 188 89 vsl 24 180 -6 6 0 0 raw-register set-register register
-9 -12 1 12 -66577 -258113 -228856 8950 1;
#X obj 231 89 vsl 24 180 0 3.9 0 0 raw-range set-range spread -5 -12
1 12 -66577 -258113 -228856 0 1;
#X obj 84 264 bng 8 250 50 0 learn-legato --- empty 17 7 0 10 -262144
-1 -1;
#X obj 127 264 bng 8 250 50 0 learn-activity --- empty 17 7 0 10 -262144
-1 -1;
#X obj 257 264 bng 8 250 50 0 learn-range --- empty 17 7 0 10 -262144
-1 -1;
#X obj 214 264 bng 8 250 50 0 learn-register --- empty 17 7 0 10 -262144
-1 -1;
#X obj 298 42 cnv 15 100 20 empty empty BASS 5 12 0 20 -128992 -228856
0;
#X obj 312 89 vsl 24 180 0 32 0 0 bass-density set-bass-density density
-8 -12 1 12 -66577 -258113 -228856 5594 1;
#X obj 355 89 vsl 24 180 0.2 16 0 0 bass-duration set-bass-duration
length -5 -12 1 12 -66577 -258113 -228856 906 1;
#X obj 398 89 vsl 24 180 1 0.125 0 0 bass-velocity set-bass-velocity
accents -10 -12 1 12 -66577 -258113 -228856 0 1;
#X obj 441 200 vradio 24 1 0 3 bass-octave set-bass-octave octave -6
-12 1 12 -66577 -258113 -228856 1;
#X obj 338 264 bng 8 250 50 0 learn-bass-density --- empty 17 7 0 10
-262144 -1 -1;
#X obj 381 264 bng 8 250 50 0 learn-bass-duration --- empty 17 7 0
10 -262144 -1 -1;
#X obj 425 264 bng 8 250 50 0 learn-bass-accents --- empty 17 7 0 10
-262144 -1 -1;
#X obj 467 264 bng 8 250 50 0 learn-bass-octave --- empty 17 7 0 10
-262144 -1 -1;
#X obj 733 65 tgl 48 0 play set-play play 0 -10 1 12 -66577 -258699
-233017 1 1;
#X obj 611 88 tgl 24 0 clock-mode set-clock-mode ext-sync 0 -9 1 12
-66577 -258113 -228856 0 1;
#X obj 783 105 bng 8 250 50 0 learn-play --- empty 17 7 0 10 -262144
-1 -1;
#X obj 508 42 cnv 15 100 20 empty empty TRANSPORT 5 12 0 20 -128992
-228856 0;
#N canvas 0 50 959 334 data 0;
#X scalar mchord0 750 75  \;;
#X scalar mchord1 825 400 Imaj7 \;;
#X scalar mchord2 1225 175 IImin7 \;;
#X scalar mchord3 1425 25  \;;
#X scalar mchord4 1475 25  \;;
#X scalar mchord5 1550 75  \;;
#X scalar mchord6 625 25  \;;
#X scalar mchord7 675 25  \;;
#X scalar beat 1125 \;;
#X scalar line 25 900 \;;
#X scalar line 50 333 \;;
#X scalar line 75 333 \;;
#X scalar line 100 333 \;;
#X scalar line 125 666 \;;
#X scalar line 150 333 \;;
#X scalar line 175 333 \;;
#X scalar line 200 333 \;;
#X scalar line 225 666 \;;
#X scalar line 250 333 \;;
#X scalar line 275 333 \;;
#X scalar line 300 333 \;;
#X scalar line 325 666 \;;
#X scalar line 350 333 \;;
#X scalar line 375 333 \;;
#X scalar line 400 333 \;;
#X scalar line 425 900 \;;
#X scalar line 450 333 \;;
#X scalar line 475 333 \;;
#X scalar line 500 333 \;;
#X scalar line 525 666 \;;
#X scalar line 550 333 \;;
#X scalar line 575 333 \;;
#X scalar line 600 333 \;;
#X scalar line 625 666 \;;
#X scalar line 650 333 \;;
#X scalar line 675 333 \;;
#X scalar line 700 333 \;;
#X scalar line 725 666 \;;
#X scalar line 750 333 \;;
#X scalar line 775 333 \;;
#X scalar line 800 333 \;;
#X scalar line 825 900 \;;
#X scalar line 850 333 \;;
#X scalar line 875 333 \;;
#X scalar line 900 333 \;;
#X scalar line 925 666 \;;
#X scalar line 950 333 \;;
#X scalar line 975 333 \;;
#X scalar line 1000 333 \;;
#X scalar line 1025 666 \;;
#X scalar line 1050 333 \;;
#X scalar line 1075 333 \;;
#X scalar line 1100 333 \;;
#X scalar line 1125 666 \;;
#X scalar line 1150 333 \;;
#X scalar line 1175 333 \;;
#X scalar line 1200 333 \;;
#X scalar line 1225 900 \;;
#X scalar line 1250 333 \;;
#X scalar line 1275 333 \;;
#X scalar line 1300 333 \;;
#X scalar line 1325 666 \;;
#X scalar line 1350 333 \;;
#X scalar line 1375 333 \;;
#X scalar line 1400 333 \;;
#X scalar line 1425 666 \;;
#X scalar line 1450 333 \;;
#X scalar line 1475 333 \;;
#X scalar line 1500 333 \;;
#X scalar line 1525 666 \;;
#X scalar line 1550 333 \;;
#X scalar line 1575 333 \;;
#X scalar line 1600 333 \;;
#X scalar line 1625 900 \;;
#X coords 0 0 1650 120 800 120 2 0 0;
#X restore -4 304 pd data;
#X obj 805 27 playlist mid 140 240 {Helvetica 12 normal} #999999 grey
black red;
#X obj 668 88 nbx 3 24 40 239 0 0 tempo set-tempo bpm 0 -8 1 12 -66577
-258699 -233017 125 256;
#X obj 714 104 bng 8 250 50 0 learn-tempo --- empty 17 7 0 10 -262144
-1 -1;
#X obj 638 104 bng 8 250 50 0 learn-sync --- empty 17 7 0 10 -262144
-1 -1;
#X obj 144 88 vradio 23 1 0 8 chords-octave set-chords-octave octave
-6 -10 1 12 -66577 -258113 -228856 3;
#X obj 170 264 bng 8 250 50 0 learn-chords-octave --- empty 17 7 0
10 -262144 -1 -1;
#N canvas 423 94 275 305 fifths 0;
#X obj 33 29 flatgui/knob 65 65 0.5 12.5 0 0 key-fifths set-keyfifths
key -20 -5 1 12 -258113 -258113 -228856 3200 1;
#X text 58 14 C;
#X text 77 18 G;
#X text 92 31 D;
#X text 42 20 F;
#X text 22 33 Bb;
#X text 16 50 Eb;
#X text 19 69 Ab;
#X text 34 86 Db;
#X text 51 94 Gb;
#X text 67 94 F#;
#X text 100 49 A;
#X text 98 67 E;
#X text 89 83 B;
#X obj 10 174 int;
#X obj 10 194 change;
#X obj 10 236 s key;
#X obj 10 152 r key-fifths;
#N canvas 0 89 450 218 fifhts2secs 0;
#X obj 30 15 inlet;
#X obj 30 170 outlet;
#X msg 30 77 -6;
#X msg 60 77 1;
#X msg 120 77 3;
#X msg 150 77 -2;
#X msg 180 77 5;
#X msg 90 77 -4;
#X obj 30 40 sel 0 1 2 3 4 5 6 7 8 9 10 11 12, f 51;
#X msg 390 77 6;
#X msg 360 77 -1;
#X msg 330 77 4;
#X msg 300 77 -3;
#X msg 270 77 2;
#X msg 240 77 -5;
#X msg 210 77 0;
#X connect 0 0 8 0;
#X connect 2 0 1 0;
#X connect 3 0 1 0;
#X connect 4 0 1 0;
#X connect 5 0 1 0;
#X connect 6 0 1 0;
#X connect 7 0 1 0;
#X connect 8 0 2 0;
#X connect 8 1 3 0;
#X connect 8 2 7 0;
#X connect 8 3 4 0;
#X connect 8 4 5 0;
#X connect 8 5 6 0;
#X connect 8 6 15 0;
#X connect 8 7 14 0;
#X connect 8 8 13 0;
#X connect 8 9 12 0;
#X connect 8 10 11 0;
#X connect 8 11 10 0;
#X connect 8 12 9 0;
#X connect 9 0 1 0;
#X connect 10 0 1 0;
#X connect 11 0 1 0;
#X connect 12 0 1 0;
#X connect 13 0 1 0;
#X connect 14 0 1 0;
#X connect 15 0 1 0;
#X restore 10 215 pd fifhts2secs;
#X msg 123 235 set \$1;
#N canvas 360 412 457 218 sec2fifthvis 0;
#X obj 10 7 inlet;
#X obj 10 162 outlet;
#X obj 10 32 sel 0 1 2 3 4 5 6 7 8 9 10 11 12, f 51;
#X msg 10 69 0.5;
#X msg 40 69 7.5;
#X msg 70 69 2.5;
#X msg 100 69 9.5;
#X msg 130 69 4.5;
#X msg 160 69 11.5;
#X msg 196 69 6.5;
#X msg 226 69 1.5;
#X msg 256 69 8.5;
#X msg 286 69 3.5;
#X msg 316 69 10.5;
#X msg 346 69 5.5;
#X msg 376 69 12.5;
#X connect 0 0 2 0;
#X connect 2 0 3 0;
#X connect 2 1 4 0;
#X connect 2 2 5 0;
#X connect 2 3 6 0;
#X connect 2 4 7 0;
#X connect 2 5 8 0;
#X connect 2 6 9 0;
#X connect 2 7 10 0;
#X connect 2 8 11 0;
#X connect 2 9 12 0;
#X connect 2 10 13 0;
#X connect 2 11 14 0;
#X connect 2 12 15 0;
#X connect 3 0 1 0;
#X connect 4 0 1 0;
#X connect 5 0 1 0;
#X connect 6 0 1 0;
#X connect 7 0 1 0;
#X connect 8 0 1 0;
#X connect 9 0 1 0;
#X connect 10 0 1 0;
#X connect 11 0 1 0;
#X connect 12 0 1 0;
#X connect 13 0 1 0;
#X connect 14 0 1 0;
#X connect 15 0 1 0;
#X restore 123 170 pd sec2fifthvis;
#X obj 123 257 s set-keyseconds;
#X obj 123 214 line;
#X msg 123 191 \$1 150;
#X connect 14 0 15 0;
#X connect 14 0 20 0;
#X connect 15 0 18 0;
#X connect 17 0 14 0;
#X connect 18 0 16 0;
#X connect 19 0 21 0;
#X connect 20 0 23 0;
#X connect 22 0 19 0;
#X connect 23 0 22 0;
#X coords 0 -1 1 1 105 105 2 10 10;
#X restore 522 167 pd fifths;
#N canvas 79 87 330 327 seconds 0;
#X obj 30 29 flatgui/knob 65 65 0.5 12.5 0 0 key-seconds set-keyseconds
key -18 -5 1 12 -258113 -258113 -228856 3200 1;
#X text 57 13 C;
#X text 92 33 D;
#X text 21 30 Bb;
#X text 16 69 Ab;
#X text 46 94 Gb;
#X text 65 94 F#;
#X text 96 67 E;
#X text 74 17 Db;
#X text 96 49 Eb;
#X text 85 85 F;
#X text 40 18 B;
#X text 17 49 A;
#X text 33 87 G;
#X obj 10 131 r key-seconds;
#X obj 10 174 int;
#X obj 10 195 change;
#N canvas 407 159 401 218 seconds 0;
#X obj 10 7 inlet;
#X obj 10 162 outlet;
#X msg 10 69 -6;
#X msg 130 69 -2;
#X msg 70 69 -4;
#X obj 10 32 sel 0 1 2 3 4 5 6 7 8 9 10 11 12, f 51;
#X msg 310 69 4;
#X msg 250 69 2;
#X msg 190 69 0;
#X msg 40 69 -5;
#X msg 100 69 -3;
#X msg 160 69 -1;
#X msg 220 69 1;
#X msg 280 69 3;
#X msg 340 69 5;
#X msg 370 69 6;
#X connect 0 0 5 0;
#X connect 2 0 1 0;
#X connect 3 0 1 0;
#X connect 4 0 1 0;
#X connect 5 0 2 0;
#X connect 5 1 9 0;
#X connect 5 2 4 0;
#X connect 5 3 10 0;
#X connect 5 4 3 0;
#X connect 5 5 11 0;
#X connect 5 6 8 0;
#X connect 5 7 12 0;
#X connect 5 8 7 0;
#X connect 5 9 13 0;
#X connect 5 10 6 0;
#X connect 5 11 14 0;
#X connect 5 12 15 0;
#X connect 6 0 1 0;
#X connect 7 0 1 0;
#X connect 8 0 1 0;
#X connect 9 0 1 0;
#X connect 10 0 1 0;
#X connect 11 0 1 0;
#X connect 12 0 1 0;
#X connect 13 0 1 0;
#X connect 14 0 1 0;
#X connect 15 0 1 0;
#X restore 10 235 pd seconds;
#X obj 10 256 s key;
#X obj 87 279 s set-keyfifths;
#X msg 87 257 set \$1;
#N canvas 360 412 457 218 sec2fifth 0;
#X obj 10 7 inlet;
#X obj 10 162 outlet;
#X obj 10 32 sel 0 1 2 3 4 5 6 7 8 9 10 11 12, f 51;
#X msg 10 69 0.5;
#X msg 40 69 7.5;
#X msg 70 69 2.5;
#X msg 100 69 9.5;
#X msg 130 69 4.5;
#X msg 160 69 11.5;
#X msg 196 69 6.5;
#X msg 226 69 1.5;
#X msg 256 69 8.5;
#X msg 286 69 3.5;
#X msg 316 69 10.5;
#X msg 346 69 5.5;
#X msg 376 69 12.5;
#X connect 0 0 2 0;
#X connect 2 0 3 0;
#X connect 2 1 4 0;
#X connect 2 2 5 0;
#X connect 2 3 6 0;
#X connect 2 4 7 0;
#X connect 2 5 8 0;
#X connect 2 6 9 0;
#X connect 2 7 10 0;
#X connect 2 8 11 0;
#X connect 2 9 12 0;
#X connect 2 10 13 0;
#X connect 2 11 14 0;
#X connect 2 12 15 0;
#X connect 3 0 1 0;
#X connect 4 0 1 0;
#X connect 5 0 1 0;
#X connect 6 0 1 0;
#X connect 7 0 1 0;
#X connect 8 0 1 0;
#X connect 9 0 1 0;
#X connect 10 0 1 0;
#X connect 11 0 1 0;
#X connect 12 0 1 0;
#X connect 13 0 1 0;
#X connect 14 0 1 0;
#X connect 15 0 1 0;
#X restore 87 188 pd sec2fifth;
#X obj 87 234 line;
#X msg 87 211 \$1 150;
#X connect 14 0 15 0;
#X connect 15 0 16 0;
#X connect 16 0 17 0;
#X connect 16 0 21 0;
#X connect 17 0 18 0;
#X connect 20 0 19 0;
#X connect 21 0 23 0;
#X connect 22 0 20 0;
#X connect 23 0 22 0;
#X coords 0 -1 1 1 105 105 2 10 10;
#X restore 644 167 pd seconds;
#X obj 629 264 bng 8 250 50 0 learn-bass-octave --- empty 17 7 0 10
-262144 -1 -1;
#X obj 751 264 bng 8 250 50 0 learn-bass-octave --- empty 17 7 0 10
-262144 -1 -1;
#X connect 2 0 36 0;
#X connect 36 0 3 0;
