#N struct 1238-chord0 float x float y symbol name;
#N struct 1238-chord1 float x float y symbol name;
#N struct 1238-chord2 float x float y symbol name;
#N struct 1238-chord3 float x float y symbol name;
#N struct 1238-chord4 float x float y symbol name;
#N struct 1238-chord5 float x float y symbol name;
#N struct 1238-chord6 float x float y symbol name;
#N struct 1238-chord7 float x float y symbol name;
#N struct 1238-mchord0 float x float dur;
#N struct 1238-mchord1 float x float dur;
#N struct 1238-mchord2 float x float dur;
#N struct 1238-mchord3 float x float dur;
#N struct 1238-mchord4 float x float dur;
#N struct 1238-mchord5 float x float dur;
#N struct 1238-mchord6 float x float dur;
#N struct 1238-mchord7 float x float dur;
#N struct 1238-mchord8 float x float dur;
#N struct 1238-mchord9 float x float dur;
#N struct 1238-mchord10 float x float dur;
#N struct 1238-mchord11 float x float dur;
#N struct 1238-mchord12 float x float dur;
#N struct 1238-mchord13 float x float dur;
#N struct 1238-mchord14 float x float dur;
#N struct 1238-mchord15 float x float dur;
#N struct 1238-mchord16 float x float dur;
#N struct 1238-mchord17 float x float dur;
#N struct 1238-mchord18 float x float dur;
#N struct 1238-mchord19 float x float dur;
#N struct 1238-mchord20 float x float dur;
#N struct 1238-mchord21 float x float dur;
#N struct 1238-mchord22 float x float dur;
#N struct 1238-mchord23 float x float dur;
#N struct 1238-mchord24 float x float dur;
#N struct 1238-mchord25 float x float dur;
#N struct 1238-mchord26 float x float dur;
#N struct 1238-mchord27 float x float dur;
#N struct 1238-mchord28 float x float dur;
#N struct 1238-mchord29 float x float dur;
#N struct 1238-mchord30 float x float dur;
#N struct 1238-mchord31 float x float dur;
#N struct 1238-mchord32 float x float dur;
#N struct 1238-mchord33 float x float dur;
#N struct 1238-mchord34 float x float dur;
#N struct 1238-mchord35 float x float dur;
#N struct 1238-mchord36 float x float dur;
#N struct 1238-mchord37 float x float dur;
#N struct 1238-mchord38 float x float dur;
#N struct 1238-mchord39 float x float dur;
#N struct 1238-mchord40 float x float dur;
#N struct 1238-mchord41 float x float dur;
#N struct 1238-mchord42 float x float dur;
#N struct 1238-mchord43 float x float dur;
#N struct 1238-mchord44 float x float dur;
#N struct 1238-mchord45 float x float dur;
#N struct 1238-mchord46 float x float dur;
#N struct 1238-mchord47 float x float dur;
#N struct 1238-mchord48 float x float dur;
#N struct 1238-mchord49 float x float dur;
#N struct 1238-mchord50 float x float dur;
#N struct 1238-mchord51 float x float dur;
#N struct 1238-mchord52 float x float dur;
#N struct 1238-mchord53 float x float dur;
#N struct 1238-mchord54 float x float dur;
#N struct 1238-mchord55 float x float dur;
#N struct 1238-mchord56 float x float dur;
#N struct 1238-mchord57 float x float dur;
#N struct 1238-mchord58 float x float dur;
#N struct 1238-mchord59 float x float dur;
#N struct 1238-mchord60 float x float dur;
#N struct 1238-mchord61 float x float dur;
#N struct 1238-mchord62 float x float dur;
#N struct 1238-mchord63 float x float dur;
#N struct 1238-schord0 float x float dur;
#N struct 1238-schord1 float x float dur;
#N struct 1238-schord2 float x float dur;
#N struct 1238-schord3 float x float dur;
#N struct 1238-schord4 float x float dur;
#N struct 1238-schord5 float x float dur;
#N struct 1238-schord6 float x float dur;
#N struct 1238-schord7 float x float dur;
#N struct 1238-schord8 float x float dur;
#N struct 1238-schord9 float x float dur;
#N struct 1238-schord10 float x float dur;
#N struct 1238-schord11 float x float dur;
#N struct 1238-schord12 float x float dur;
#N struct 1238-schord13 float x float dur;
#N struct 1238-schord14 float x float dur;
#N struct 1238-schord15 float x float dur;
#N struct 1238-schord16 float x float dur;
#N struct 1238-schord17 float x float dur;
#N struct 1238-schord18 float x float dur;
#N struct 1238-schord19 float x float dur;
#N struct 1238-schord20 float x float dur;
#N struct 1238-schord21 float x float dur;
#N struct 1238-schord22 float x float dur;
#N struct 1238-schord23 float x float dur;
#N struct 1238-schord24 float x float dur;
#N struct 1238-schord25 float x float dur;
#N struct 1238-schord26 float x float dur;
#N struct 1238-schord27 float x float dur;
#N struct 1238-schord28 float x float dur;
#N struct 1238-schord29 float x float dur;
#N struct 1238-schord30 float x float dur;
#N struct 1238-schord31 float x float dur;
#N struct 1238-schord32 float x float dur;
#N struct 1238-schord33 float x float dur;
#N struct 1238-schord34 float x float dur;
#N struct 1238-schord35 float x float dur;
#N struct 1238-schord36 float x float dur;
#N struct 1238-schord37 float x float dur;
#N struct 1238-schord38 float x float dur;
#N struct 1238-schord39 float x float dur;
#N struct 1238-schord40 float x float dur;
#N struct 1238-schord41 float x float dur;
#N struct 1238-schord42 float x float dur;
#N struct 1238-schord43 float x float dur;
#N struct 1238-schord44 float x float dur;
#N struct 1238-schord45 float x float dur;
#N struct 1238-schord46 float x float dur;
#N struct 1238-schord47 float x float dur;
#N struct 1238-schord48 float x float dur;
#N struct 1238-schord49 float x float dur;
#N struct 1238-schord50 float x float dur;
#N struct 1238-schord51 float x float dur;
#N struct 1238-schord52 float x float dur;
#N struct 1238-schord53 float x float dur;
#N struct 1238-schord54 float x float dur;
#N struct 1238-schord55 float x float dur;
#N struct 1238-schord56 float x float dur;
#N struct 1238-schord57 float x float dur;
#N struct 1238-schord58 float x float dur;
#N struct 1238-schord59 float x float dur;
#N struct 1238-schord60 float x float dur;
#N struct 1238-schord61 float x float dur;
#N struct 1238-schord62 float x float dur;
#N struct 1238-schord63 float x float dur;
#N struct 1238-beat float x;
#N struct 1238-line float pos float color;
#N struct 1238-point float x float y float c float t;
#N struct 1238-ysis float x float y float heigth float vis;
#N struct 1238-xsis float x float y float length;
#N struct 1238-area float x float y float size;
#N canvas 197 158 1071 444 10;
#X declare -path abs;
#N canvas 9 148 583 598 patch 0;
#N canvas 73 36 723 664 adt 0;
#X obj 9 191 f;
#X obj 16 170 r \$0-update-density;
#X obj 9 149 r \$0-density;
#X obj 170 191 s \$0-set-density;
#X obj 383 169 s \$0-onsets-bass;
#X obj 170 3 r \$0-load-rhythm;
#X obj 170 149 t l l l, f 36;
#X obj 170 24 array get \$0-master-pattern;
#X obj 170 170 vabs/list-sum;
#X obj 9 213 populate-rhythm64, f 45;
#X obj 241 87 min 1;
#X obj 241 65 vabs/list-dripv;
#X obj 241 108 vabs/add2list prepend;
#X obj 170 44 t b l b, f 28;
#X obj 170 129 list, f 12;
#X obj 520 90 bng 15 250 50 0 empty empty empty 17 7 0 10 -262144 -1
-1;
#X floatatom 520 176 5 0 0 0 - - -, f 5;
#X msg 520 135 64 \$1;
#X obj 520 155 -;
#X text 557 175 sileced steps (16ths);
#X obj 520 111 array sum \$0-master-pattern;
#X text 525 194 to get default legato?;
#X obj 80 330 vabs/list-dripv;
#X obj 80 373 vabs/add2list prepend;
#X obj 9 309 t b l b, f 28;
#X obj 9 394 list, f 12;
#X obj 80 352 * 16;
#X obj 74 256 t b f;
#X obj 9 289 vabs/listv;
#X obj 63 568 f 0;
#X obj 93 568 + 1;
#X obj 63 588 mod 64;
#X obj 36 629 s, f 5;
#X obj 36 546 t a b;
#X obj 63 609 makefilename \$0-slave-chord-fill-%d;
#X obj 9 435 vabs/list-dripv;
#X obj 9 479 sel 0;
#X obj 81 480 f 0;
#X obj 111 480 + 1;
#X msg 114 435 0;
#X obj 9 457 t f b;
#X obj 36 501 pack 0 0;
#X msg 36 523 \$2 \$1;
#X obj 219 478 pack 0 \$0;
#X msg 219 435 64;
#X obj 219 457 vabs/forloop;
#X msg 219 499 \; \$2-slave-chord-fill-\$1 66.4 0 \;;
#X obj 74 236 r \$0-legato;
#X obj 9 415 t l b b l, f 53;
#X obj 324 435 array set \$0-new-onsets;
#X connect 0 0 9 0;
#X connect 1 0 0 0;
#X connect 2 0 0 0;
#X connect 5 0 7 0;
#X connect 6 0 8 0;
#X connect 6 1 9 1;
#X connect 6 2 4 0;
#X connect 7 0 13 0;
#X connect 8 0 3 0;
#X connect 9 0 28 0;
#X connect 10 0 12 0;
#X connect 11 0 10 0;
#X connect 12 0 14 1;
#X connect 13 0 14 0;
#X connect 13 1 11 0;
#X connect 13 2 12 1;
#X connect 14 0 6 0;
#X connect 15 0 20 0;
#X connect 17 0 18 0;
#X connect 18 0 16 0;
#X connect 20 0 17 0;
#X connect 22 0 26 0;
#X connect 23 0 25 1;
#X connect 24 0 25 0;
#X connect 24 1 22 0;
#X connect 24 2 23 1;
#X connect 25 0 48 0;
#X connect 26 0 23 0;
#X connect 27 0 28 0;
#X connect 27 1 26 1;
#X connect 28 0 24 0;
#X connect 29 0 30 0;
#X connect 29 0 31 0;
#X connect 30 0 29 1;
#X connect 31 0 34 0;
#X connect 33 0 32 0;
#X connect 33 1 29 0;
#X connect 34 0 32 1;
#X connect 35 0 40 0;
#X connect 36 1 41 0;
#X connect 37 0 38 0;
#X connect 37 0 41 1;
#X connect 38 0 37 1;
#X connect 39 0 37 1;
#X connect 40 0 36 0;
#X connect 40 1 37 0;
#X connect 41 0 42 0;
#X connect 42 0 33 0;
#X connect 43 0 46 0;
#X connect 44 0 45 0;
#X connect 45 0 43 0;
#X connect 47 0 27 0;
#X connect 48 0 35 0;
#X connect 48 1 39 0;
#X connect 48 2 44 0;
#X connect 48 3 49 0;
#X restore 221 169 pd adt;
#N canvas 27 28 622 620 load-midi-loop 0;
#X msg 14 159 flush;
#X obj 128 284 / 4;
#X obj 128 261 unpack 0 0 0 0 0;
#X msg 14 96 read \$1;
#X obj 14 206 pdmus/midi-player;
#X obj 267 449 t b b, f 19;
#X obj 47 582 outlet;
#X obj 47 561 pdmus/midi-sort-events, f 56;
#X obj 167 452 * 8;
#X obj 47 518 + 0, f 18;
#X obj 14 117 t b a b, f 33;
#X msg 209 138 0;
#X obj 113 306 f;
#X obj 47 496 unpack 0 0 0;
#X obj 47 539 pack 0 0 0, f 12;
#X obj 113 371 f 0;
#X obj 143 371 + 1;
#X obj 152 474 f;
#X obj 113 394 sel 0 1, f 23;
#X obj 113 326 sel 2 4, f 52;
#X obj 113 429 t b b, f 7;
#X msg 113 451 flush;
#X obj 14 33 list prepend, f 21;
#X obj 14 55 zexy/list2symbol /;
#N canvas 220 50 420 739 load-folder 0;
#X obj 23 308 hcs/folder_list;
#X msg 51 563 append \$1;
#X obj 23 351 jasch_lib/strtok /;
#X obj 23 372 t a a, f 10;
#X obj 80 392 list length;
#X obj 23 432 list split;
#X obj 80 412 - 1;
#X msg 205 562 options;
#X obj 23 636 zexy/list2symbol /;
#X obj 23 657 makefilename /%s;
#X obj 23 11 loadbang;
#X obj 33 121 openpanel;
#X obj 33 100 ggee/getdir;
#X obj 33 142 jasch_lib/strtok /;
#X obj 33 162 t a a, f 10;
#X obj 90 182 list length;
#X obj 33 223 list split;
#X obj 90 203 - 1;
#X obj 33 245 zexy/list2symbol /;
#X msg 23 33 symbol ./corpus/*.mid;
#X obj 23 679 outlet;
#X obj 194 351 f 1;
#X obj 224 351 + 1;
#X obj 33 78 t b b, f 30;
#X obj 33 266 makefilename /%s/*.mid;
#X msg 210 329 1;
#X obj 51 520 jasch_lib/strcut;
#X obj 78 475 jasch_lib/strlen;
#X obj 78 497 - 4;
#X obj 51 453 t a a;
#X obj 51 542 symbol;
#X obj 33 56 r \$0-load-folder;
#X obj 194 374 s \$0-files-in-folder;
#X obj 23 329 t s b, f 29;
#X obj 51 591 s \$0-list-of-files;
#X obj 23 287 trigger symbol bang, f 24;
#X obj 23 614 vabs/oncev, f 29;
#X connect 0 0 33 0;
#X connect 1 0 34 0;
#X connect 2 0 3 0;
#X connect 3 0 5 0;
#X connect 3 1 4 0;
#X connect 4 0 6 0;
#X connect 5 0 36 0;
#X connect 5 1 29 0;
#X connect 6 0 5 1;
#X connect 7 0 34 0;
#X connect 8 0 9 0;
#X connect 9 0 20 0;
#X connect 10 0 19 0;
#X connect 11 0 13 0;
#X connect 12 0 11 0;
#X connect 13 0 14 0;
#X connect 14 0 16 0;
#X connect 14 1 15 0;
#X connect 15 0 17 0;
#X connect 16 0 18 0;
#X connect 17 0 16 1;
#X connect 18 0 24 0;
#X connect 19 0 35 0;
#X connect 21 0 22 0;
#X connect 21 0 32 0;
#X connect 22 0 21 1;
#X connect 23 0 12 0;
#X connect 23 1 25 0;
#X connect 24 0 35 0;
#X connect 25 0 21 1;
#X connect 26 0 30 0;
#X connect 27 0 28 0;
#X connect 28 0 26 0;
#X connect 29 0 26 0;
#X connect 29 1 27 0;
#X connect 30 0 1 0;
#X connect 31 0 23 0;
#X connect 33 0 2 0;
#X connect 33 1 21 0;
#X connect 35 0 0 0;
#X connect 35 1 7 0;
#X connect 35 1 36 1;
#X connect 36 0 8 0;
#X restore 137 12 pd load-folder;
#X obj 14 76 makefilename %s.mid;
#X obj 14 12 r \$0-sequence-file;
#X obj 209 159 s \$0-reset-count;
#X obj 267 471 s \$0-end-analysis;
#X obj 197 282 s \$0-ticks/4;
#X obj 167 430 r \$0-ticks/4;
#X obj 128 349 r \$0-reset-count;
#X obj 485 203 s \$0-reset-chords;
#X obj 160 495 r \$0-reset-count;
#X obj 14 181 t a b b, f 79;
#X text 394 453 here we could send a bang when the midifile analysis
is done., f 31;
#X obj 128 241 vabs/oncev;
#X obj 267 428 vabs/oncev;
#X connect 0 0 34 0;
#X connect 1 0 12 1;
#X connect 2 0 1 0;
#X connect 2 3 29 0;
#X connect 3 0 10 0;
#X connect 4 1 13 0;
#X connect 4 2 36 0;
#X connect 4 3 12 0;
#X connect 5 1 7 1;
#X connect 7 0 6 0;
#X connect 8 0 17 1;
#X connect 9 0 14 0;
#X connect 10 0 0 0;
#X connect 10 1 4 0;
#X connect 10 2 11 0;
#X connect 11 0 27 0;
#X connect 12 0 19 0;
#X connect 13 0 9 0;
#X connect 13 1 14 1;
#X connect 13 2 14 2;
#X connect 14 0 7 0;
#X connect 15 0 16 0;
#X connect 15 0 18 0;
#X connect 16 0 15 1;
#X connect 17 0 9 1;
#X connect 18 0 20 0;
#X connect 18 1 37 0;
#X connect 19 0 15 0;
#X connect 19 1 37 0;
#X connect 20 0 21 0;
#X connect 20 1 17 0;
#X connect 21 0 4 0;
#X connect 22 0 23 0;
#X connect 23 0 25 0;
#X connect 24 0 22 1;
#X connect 25 0 3 0;
#X connect 26 0 22 0;
#X connect 30 0 8 0;
#X connect 31 0 15 1;
#X connect 33 0 9 1;
#X connect 34 0 4 0;
#X connect 34 1 36 1;
#X connect 34 1 37 1;
#X connect 34 2 32 0;
#X connect 36 0 2 0;
#X connect 37 0 5 0;
#X restore 221 109 pd load-midi-loop;
#N canvas 0 50 450 300 (subpatch) 0;
#X array \$0-new-onsets 64 float 0;
#X coords 0 64 63 0 100 100 1 0 0;
#X restore 114 21 graph;
#N canvas 0 50 450 300 (subpatch) 0;
#X array \$0-slave-pattern 64 float 2;
#X coords 0 64 64 -20 100 100 1 0 0;
#X restore 64 141 graph;
#N canvas 0 50 450 300 (subpatch) 0;
#X array \$0-legato-pattern 65 float 2;
#X coords 0 2 65 -2 200 50 1 0 0;
#X restore 339 220 graph;
#N canvas 0 89 636 448 clock 0;
#X obj 134 139 /;
#X obj 190 305 + 1;
#X obj 160 305 f 0;
#X msg 134 119 15000 \$1;
#X obj 83 160 metro 125;
#X obj 8 226 sel 0;
#X obj 8 110 f;
#X obj 217 215 spigot 0;
#X obj 8 132 spigot;
#X obj 14 47 - 1;
#X obj 14 67 abs;
#X obj 14 88 t b f;
#X obj 56 132 sel 1;
#X msg 175 284 0;
#X obj 123 183 pdmus/midi-sync, f 32;
#X obj 108 372 pdmus/midi-panic-ch 2;
#X obj 54 226 sel 0;
#X obj 175 328 sel 63;
#X obj 8 394 pdmus/midi-panic-ch 1;
#X obj 433 237 \$0;
#X obj 405 215 select 0 1;
#X obj 405 237 \$0;
#X obj 14 26 r \$0-clock-mode;
#X obj 8 6 r \$0-play;
#X obj 134 97 r \$0-tempo;
#X obj 123 215 s \$0-set-play;
#X obj 357 182 r \$0-clock-mode;
#X obj 312 237 s \$0-set-tempo;
#X obj 160 350 s \$0-current-step;
#X msg 433 260 \; \$1-set-play color 11 11 1 \; \$1-set-tempo color
11 13 1;
#X msg 405 308 \; \$1-set-play color 2 13 10 \; \$1-set-tempo color
2 13 10;
#X floatatom 338 281 5 0 0 0 - - -, f 5;
#X obj 312 215 spigot 1;
#X connect 0 0 4 1;
#X connect 1 0 2 1;
#X connect 2 0 1 0;
#X connect 2 0 17 0;
#X connect 2 0 28 0;
#X connect 3 0 0 0;
#X connect 4 0 2 0;
#X connect 5 0 13 0;
#X connect 5 0 15 0;
#X connect 5 0 18 0;
#X connect 6 0 8 0;
#X connect 7 0 2 0;
#X connect 8 0 4 0;
#X connect 8 0 5 0;
#X connect 9 0 10 0;
#X connect 10 0 11 0;
#X connect 11 0 6 0;
#X connect 11 1 8 1;
#X connect 11 1 12 0;
#X connect 12 1 4 0;
#X connect 13 0 2 1;
#X connect 14 0 16 0;
#X connect 14 0 25 0;
#X connect 14 1 7 0;
#X connect 14 2 32 0;
#X connect 16 0 13 0;
#X connect 16 0 15 0;
#X connect 16 0 18 0;
#X connect 17 0 13 0;
#X connect 19 0 29 0;
#X connect 20 0 21 0;
#X connect 20 1 19 0;
#X connect 21 0 30 0;
#X connect 22 0 9 0;
#X connect 23 0 6 0;
#X connect 24 0 3 0;
#X connect 26 0 7 1;
#X connect 26 0 20 0;
#X connect 26 0 32 1;
#X connect 32 0 27 0;
#X connect 32 0 31 0;
#X restore 222 69 pd clock;
#X text 10 384 TO DO's:;
#X text 9 405 rethink chord-substitution and expansion.;
#X text 9 425 add colors to chord height... (brigthness) and range.
;
#N canvas 352 137 314 566 loadbangs 0;
#X obj 15 9 loadbang;
#X obj 15 134 f \$0;
#X obj 15 113 t b a, f 11;
#X obj 15 94 zexy/list2symbol;
#X msg 15 73 HOUSE HARMONIC FILLER;
#X obj 15 155 list append;
#X obj 15 51 del 10;
#X obj 25 32 bng 15 250 50 0 empty empty empty 17 7 0 10 -262144 -1
-1;
#X msg 15 175 bang \; \$1-title label \$2 \; \$1-title label_pos 20
18 \; \$1-title label_font 3 20 \; \$1-title vis_size 1065 430 \; \$1-title
color 11 13 \; \$1-list-of-files bgcolour #808080 \; \$1-list-of-files
name chord-seq \; \$1-set-chords-octave 3 \; \$1-set-register set 0
\; \$1-set-tempo 125 \; \$1-set-bass-duration 12 \; \$1-set-bass-octave
2 \; \$1-set-clock-mode 1 \; \$1-set-keyfifths set 6.5 \; \$1-set-keyseconds
set 6.5 \; \$1-set-bass-lock 0 \; \$1-set-lock-instrument 0 \; \$1-init-plot
bang;
#X connect 0 0 6 0;
#X connect 1 0 5 0;
#X connect 2 0 1 0;
#X connect 2 1 5 1;
#X connect 3 0 2 0;
#X connect 4 0 3 0;
#X connect 5 0 8 0;
#X connect 6 0 4 0;
#X connect 7 0 6 0;
#X restore 221 29 pd loadbangs;
#N canvas 24 23 622 657 get-chord-progression 0;
#X obj 11 5 inlet;
#X obj 380 47 unpack 0 0 0 0;
#X obj 380 90 /;
#X obj 434 91 != 0;
#X obj 380 111 * 4;
#X obj 380 133 pack, f 9;
#X obj 11 26 t l l, f 62;
#X msg 380 175 \$2 \$1;
#X obj 11 593 outlet;
#X obj 380 593 outlet;
#X obj 11 48 pdmus/chord-make;
#X obj 38 92 pdmus/chord-estimate;
#X obj 77 250 list prepend;
#X obj 77 296 list2symbol, f 15;
#X obj 155 112 t f f;
#X obj 155 175 -, f 5;
#X obj 155 207 mod 12;
#X obj 11 69 t l l;
#X obj 239 175 * -1;
#X text 287 593 onset position;
#X obj 164 255 loadbang;
#X msg 164 275 symbol;
#X obj 11 405 t l l, f 21;
#X obj 134 551 * -12;
#X obj 11 571 pdmus/chord-transpose;
#X msg 52 72 bang;
#X obj 134 446 t l l, f 16;
#X obj 227 467 list length;
#X obj 134 488 /, f 16;
#X obj 134 510 int;
#X obj 134 530 div 12;
#X obj 249 288 pack, f 19;
#X obj 249 214 - 5;
#X obj 249 236 mod 12;
#X obj 395 68 r \$0-ticks/4;
#X obj 249 309 tabwrite \$0-bassseq;
#X obj 77 340 pack s f, f 49;
#X text 57 593 basic chord structure;
#N canvas 0 23 298 454 display-chord-names 0;
#X obj 50 13 inlet;
#X obj 77 58 f 0;
#X obj 107 58 + 1;
#X obj 50 123 s, f 5;
#X obj 77 101 makefilename \$0-chordname-%d;
#X obj 77 79 mod 8;
#X text 95 124 chord \, step;
#X obj 50 34 t a b;
#X text 46 170 quantize to quaver;
#X connect 0 0 7 0;
#X connect 1 0 2 0;
#X connect 1 0 5 0;
#X connect 2 0 1 1;
#X connect 4 0 3 1;
#X connect 5 0 4 0;
#X connect 7 0 3 0;
#X connect 7 1 1 0;
#X restore 77 361 pd display-chord-names;
#X obj 380 195 route 1;
#X obj 239 112 r \$0-reset-chords;
#X text 419 218 add step correction here!;
#X obj 380 154 vabs/change-any;
#X obj 182 133 vabs/oncev;
#X obj 77 317 vabs/change-symbol;
#X text 197 317 ????;
#X obj 134 426 vabs/add2list prepend;
#X obj 134 467 vabs/list-sum;
#X obj 11 383 pdmus/chord-transpose, f 38;
#N canvas 555 146 673 589 pc2names 0;
#X obj 9 10 inlet;
#X obj 199 320 sel 0 1 2 3 4 5 6 7 8 9 10 11, f 64;
#X msg 199 353 I;
#X msg 230 353 bII;
#X msg 262 353 II;
#X msg 290 353 bIII;
#X msg 326 353 III;
#X msg 357 353 IV;
#X msg 421 353 V;
#X msg 453 353 bVI;
#X msg 484 353 VI;
#X msg 516 353 bVII;
#X msg 389 353 #IV;
#X obj 199 437 symbol;
#X msg 558 353 VII;
#X obj 214 40 inlet;
#X obj 169 64 pack f f;
#X obj 169 113 route 0 1 2 3 4 5 6 7 8 9 10 11, f 81;
#X msg 169 86 \$2 \$1;
#N canvas 0 22 450 300 C 0;
#X obj 9 31 sel 0 1 2 3 4 5 6 7 8 9 10 11, f 64;
#X msg 9 64 I;
#X msg 40 64 bII;
#X msg 72 64 II;
#X msg 100 64 bIII;
#X msg 136 64 III;
#X msg 167 64 IV;
#X msg 231 64 V;
#X msg 263 64 bVI;
#X msg 294 64 VI;
#X msg 326 64 bVII;
#X msg 199 64 #IV;
#X msg 368 64 VII;
#X obj 9 8 inlet;
#X obj 9 148 outlet;
#X connect 0 0 1 0;
#X connect 0 1 2 0;
#X connect 0 2 3 0;
#X connect 0 3 4 0;
#X connect 0 4 5 0;
#X connect 0 5 6 0;
#X connect 0 6 11 0;
#X connect 0 7 7 0;
#X connect 0 8 8 0;
#X connect 0 9 9 0;
#X connect 0 10 10 0;
#X connect 0 11 12 0;
#X connect 1 0 14 0;
#X connect 2 0 14 0;
#X connect 3 0 14 0;
#X connect 4 0 14 0;
#X connect 5 0 14 0;
#X connect 6 0 14 0;
#X connect 7 0 14 0;
#X connect 8 0 14 0;
#X connect 9 0 14 0;
#X connect 10 0 14 0;
#X connect 11 0 14 0;
#X connect 12 0 14 0;
#X connect 13 0 0 0;
#X restore 169 167 pd C;
#N canvas 0 22 450 300 Db 0;
#X obj 9 31 sel 0 1 2 3 4 5 6 7 8 9 10 11, f 64;
#X msg 9 64 I;
#X msg 40 64 bII;
#X msg 72 64 II;
#X msg 100 64 bIII;
#X msg 136 64 III;
#X msg 167 64 IV;
#X msg 231 64 V;
#X msg 263 64 bVI;
#X msg 294 64 VI;
#X msg 326 64 bVII;
#X msg 199 64 #IV;
#X msg 368 64 VII;
#X obj 9 8 inlet;
#X obj 9 148 outlet;
#X connect 0 0 1 0;
#X connect 0 1 2 0;
#X connect 0 2 3 0;
#X connect 0 3 4 0;
#X connect 0 4 5 0;
#X connect 0 5 6 0;
#X connect 0 6 11 0;
#X connect 0 7 7 0;
#X connect 0 8 8 0;
#X connect 0 9 9 0;
#X connect 0 10 10 0;
#X connect 0 11 12 0;
#X connect 1 0 14 0;
#X connect 2 0 14 0;
#X connect 3 0 14 0;
#X connect 4 0 14 0;
#X connect 5 0 14 0;
#X connect 6 0 14 0;
#X connect 7 0 14 0;
#X connect 8 0 14 0;
#X connect 9 0 14 0;
#X connect 10 0 14 0;
#X connect 11 0 14 0;
#X connect 12 0 14 0;
#X connect 13 0 0 0;
#X restore 209 167 pd Db;
#N canvas 0 22 450 300 D 0;
#X obj 9 31 sel 0 1 2 3 4 5 6 7 8 9 10 11, f 64;
#X msg 9 64 I;
#X msg 40 64 bII;
#X msg 72 64 II;
#X msg 100 64 bIII;
#X msg 136 64 III;
#X msg 167 64 IV;
#X msg 231 64 V;
#X msg 263 64 bVI;
#X msg 294 64 VI;
#X msg 326 64 bVII;
#X msg 199 64 #IV;
#X msg 368 64 VII;
#X obj 9 8 inlet;
#X obj 9 148 outlet;
#X connect 0 0 1 0;
#X connect 0 1 2 0;
#X connect 0 2 3 0;
#X connect 0 3 4 0;
#X connect 0 4 5 0;
#X connect 0 5 6 0;
#X connect 0 6 11 0;
#X connect 0 7 7 0;
#X connect 0 8 8 0;
#X connect 0 9 9 0;
#X connect 0 10 10 0;
#X connect 0 11 12 0;
#X connect 1 0 14 0;
#X connect 2 0 14 0;
#X connect 3 0 14 0;
#X connect 4 0 14 0;
#X connect 5 0 14 0;
#X connect 6 0 14 0;
#X connect 7 0 14 0;
#X connect 8 0 14 0;
#X connect 9 0 14 0;
#X connect 10 0 14 0;
#X connect 11 0 14 0;
#X connect 12 0 14 0;
#X connect 13 0 0 0;
#X restore 249 167 pd D;
#N canvas 0 22 450 300 Eb 0;
#X obj 9 31 sel 0 1 2 3 4 5 6 7 8 9 10 11, f 64;
#X msg 9 64 I;
#X msg 40 64 bII;
#X msg 72 64 II;
#X msg 100 64 bIII;
#X msg 136 64 III;
#X msg 167 64 IV;
#X msg 231 64 V;
#X msg 263 64 bVI;
#X msg 294 64 VI;
#X msg 326 64 bVII;
#X msg 199 64 #IV;
#X msg 368 64 VII;
#X obj 9 8 inlet;
#X obj 9 148 outlet;
#X connect 0 0 1 0;
#X connect 0 1 2 0;
#X connect 0 2 3 0;
#X connect 0 3 4 0;
#X connect 0 4 5 0;
#X connect 0 5 6 0;
#X connect 0 6 11 0;
#X connect 0 7 7 0;
#X connect 0 8 8 0;
#X connect 0 9 9 0;
#X connect 0 10 10 0;
#X connect 0 11 12 0;
#X connect 1 0 14 0;
#X connect 2 0 14 0;
#X connect 3 0 14 0;
#X connect 4 0 14 0;
#X connect 5 0 14 0;
#X connect 6 0 14 0;
#X connect 7 0 14 0;
#X connect 8 0 14 0;
#X connect 9 0 14 0;
#X connect 10 0 14 0;
#X connect 11 0 14 0;
#X connect 12 0 14 0;
#X connect 13 0 0 0;
#X restore 289 167 pd Eb;
#N canvas 0 22 450 300 E 0;
#X obj 9 31 sel 0 1 2 3 4 5 6 7 8 9 10 11, f 64;
#X msg 9 64 I;
#X msg 40 64 bII;
#X msg 72 64 II;
#X msg 100 64 bIII;
#X msg 136 64 III;
#X msg 167 64 IV;
#X msg 231 64 V;
#X msg 263 64 bVI;
#X msg 294 64 VI;
#X msg 326 64 bVII;
#X msg 199 64 #IV;
#X msg 368 64 VII;
#X obj 9 8 inlet;
#X obj 9 148 outlet;
#X connect 0 0 1 0;
#X connect 0 1 2 0;
#X connect 0 2 3 0;
#X connect 0 3 4 0;
#X connect 0 4 5 0;
#X connect 0 5 6 0;
#X connect 0 6 11 0;
#X connect 0 7 7 0;
#X connect 0 8 8 0;
#X connect 0 9 9 0;
#X connect 0 10 10 0;
#X connect 0 11 12 0;
#X connect 1 0 14 0;
#X connect 2 0 14 0;
#X connect 3 0 14 0;
#X connect 4 0 14 0;
#X connect 5 0 14 0;
#X connect 6 0 14 0;
#X connect 7 0 14 0;
#X connect 8 0 14 0;
#X connect 9 0 14 0;
#X connect 10 0 14 0;
#X connect 11 0 14 0;
#X connect 12 0 14 0;
#X connect 13 0 0 0;
#X restore 330 167 pd E;
#N canvas 0 22 450 300 F 0;
#X obj 9 31 sel 0 1 2 3 4 5 6 7 8 9 10 11, f 64;
#X msg 9 64 I;
#X msg 40 64 bII;
#X msg 72 64 II;
#X msg 100 64 bIII;
#X msg 136 64 III;
#X msg 167 64 IV;
#X msg 231 64 V;
#X msg 263 64 bVI;
#X msg 294 64 VI;
#X msg 326 64 bVII;
#X msg 199 64 #IV;
#X msg 368 64 VII;
#X obj 9 8 inlet;
#X obj 9 148 outlet;
#X connect 0 0 1 0;
#X connect 0 1 2 0;
#X connect 0 2 3 0;
#X connect 0 3 4 0;
#X connect 0 4 5 0;
#X connect 0 5 6 0;
#X connect 0 6 11 0;
#X connect 0 7 7 0;
#X connect 0 8 8 0;
#X connect 0 9 9 0;
#X connect 0 10 10 0;
#X connect 0 11 12 0;
#X connect 1 0 14 0;
#X connect 2 0 14 0;
#X connect 3 0 14 0;
#X connect 4 0 14 0;
#X connect 5 0 14 0;
#X connect 6 0 14 0;
#X connect 7 0 14 0;
#X connect 8 0 14 0;
#X connect 9 0 14 0;
#X connect 10 0 14 0;
#X connect 11 0 14 0;
#X connect 12 0 14 0;
#X connect 13 0 0 0;
#X restore 370 167 pd F;
#N canvas 0 22 450 300 F# 0;
#X obj 9 31 sel 0 1 2 3 4 5 6 7 8 9 10 11, f 64;
#X msg 9 64 I;
#X msg 40 64 bII;
#X msg 72 64 II;
#X msg 100 64 bIII;
#X msg 136 64 III;
#X msg 167 64 IV;
#X msg 231 64 V;
#X msg 263 64 bVI;
#X msg 294 64 VI;
#X msg 326 64 bVII;
#X msg 199 64 #IV;
#X msg 368 64 VII;
#X obj 9 8 inlet;
#X obj 9 148 outlet;
#X connect 0 0 1 0;
#X connect 0 1 2 0;
#X connect 0 2 3 0;
#X connect 0 3 4 0;
#X connect 0 4 5 0;
#X connect 0 5 6 0;
#X connect 0 6 11 0;
#X connect 0 7 7 0;
#X connect 0 8 8 0;
#X connect 0 9 9 0;
#X connect 0 10 10 0;
#X connect 0 11 12 0;
#X connect 1 0 14 0;
#X connect 2 0 14 0;
#X connect 3 0 14 0;
#X connect 4 0 14 0;
#X connect 5 0 14 0;
#X connect 6 0 14 0;
#X connect 7 0 14 0;
#X connect 8 0 14 0;
#X connect 9 0 14 0;
#X connect 10 0 14 0;
#X connect 11 0 14 0;
#X connect 12 0 14 0;
#X connect 13 0 0 0;
#X restore 410 167 pd F#;
#N canvas 0 22 450 300 G 0;
#X obj 9 31 sel 0 1 2 3 4 5 6 7 8 9 10 11, f 64;
#X msg 9 64 I;
#X msg 40 64 bII;
#X msg 72 64 II;
#X msg 100 64 bIII;
#X msg 136 64 III;
#X msg 167 64 IV;
#X msg 231 64 V;
#X msg 263 64 bVI;
#X msg 294 64 VI;
#X msg 326 64 bVII;
#X msg 199 64 #IV;
#X msg 368 64 VII;
#X obj 9 8 inlet;
#X obj 9 148 outlet;
#X connect 0 0 1 0;
#X connect 0 1 2 0;
#X connect 0 2 3 0;
#X connect 0 3 4 0;
#X connect 0 4 5 0;
#X connect 0 5 6 0;
#X connect 0 6 11 0;
#X connect 0 7 7 0;
#X connect 0 8 8 0;
#X connect 0 9 9 0;
#X connect 0 10 10 0;
#X connect 0 11 12 0;
#X connect 1 0 14 0;
#X connect 2 0 14 0;
#X connect 3 0 14 0;
#X connect 4 0 14 0;
#X connect 5 0 14 0;
#X connect 6 0 14 0;
#X connect 7 0 14 0;
#X connect 8 0 14 0;
#X connect 9 0 14 0;
#X connect 10 0 14 0;
#X connect 11 0 14 0;
#X connect 12 0 14 0;
#X connect 13 0 0 0;
#X restore 450 167 pd G;
#N canvas 0 22 450 300 Ab 0;
#X obj 9 31 sel 0 1 2 3 4 5 6 7 8 9 10 11, f 64;
#X msg 9 64 I;
#X msg 40 64 bII;
#X msg 72 64 II;
#X msg 100 64 bIII;
#X msg 136 64 III;
#X msg 167 64 IV;
#X msg 231 64 V;
#X msg 263 64 bVI;
#X msg 294 64 VI;
#X msg 326 64 bVII;
#X msg 199 64 #IV;
#X msg 368 64 VII;
#X obj 9 8 inlet;
#X obj 9 148 outlet;
#X connect 0 0 1 0;
#X connect 0 1 2 0;
#X connect 0 2 3 0;
#X connect 0 3 4 0;
#X connect 0 4 5 0;
#X connect 0 5 6 0;
#X connect 0 6 11 0;
#X connect 0 7 7 0;
#X connect 0 8 8 0;
#X connect 0 9 9 0;
#X connect 0 10 10 0;
#X connect 0 11 12 0;
#X connect 1 0 14 0;
#X connect 2 0 14 0;
#X connect 3 0 14 0;
#X connect 4 0 14 0;
#X connect 5 0 14 0;
#X connect 6 0 14 0;
#X connect 7 0 14 0;
#X connect 8 0 14 0;
#X connect 9 0 14 0;
#X connect 10 0 14 0;
#X connect 11 0 14 0;
#X connect 12 0 14 0;
#X connect 13 0 0 0;
#X restore 491 167 pd Ab;
#N canvas 0 22 450 300 A 0;
#X obj 9 31 sel 0 1 2 3 4 5 6 7 8 9 10 11, f 64;
#X msg 9 64 I;
#X msg 40 64 bII;
#X msg 72 64 II;
#X msg 100 64 bIII;
#X msg 136 64 III;
#X msg 167 64 IV;
#X msg 231 64 V;
#X msg 263 64 bVI;
#X msg 294 64 VI;
#X msg 326 64 bVII;
#X msg 199 64 #IV;
#X msg 368 64 VII;
#X obj 9 8 inlet;
#X obj 9 148 outlet;
#X connect 0 0 1 0;
#X connect 0 1 2 0;
#X connect 0 2 3 0;
#X connect 0 3 4 0;
#X connect 0 4 5 0;
#X connect 0 5 6 0;
#X connect 0 6 11 0;
#X connect 0 7 7 0;
#X connect 0 8 8 0;
#X connect 0 9 9 0;
#X connect 0 10 10 0;
#X connect 0 11 12 0;
#X connect 1 0 14 0;
#X connect 2 0 14 0;
#X connect 3 0 14 0;
#X connect 4 0 14 0;
#X connect 5 0 14 0;
#X connect 6 0 14 0;
#X connect 7 0 14 0;
#X connect 8 0 14 0;
#X connect 9 0 14 0;
#X connect 10 0 14 0;
#X connect 11 0 14 0;
#X connect 12 0 14 0;
#X connect 13 0 0 0;
#X restore 531 167 pd A;
#N canvas 0 22 450 300 Bb 0;
#X obj 9 31 sel 0 1 2 3 4 5 6 7 8 9 10 11, f 64;
#X msg 9 64 I;
#X msg 40 64 bII;
#X msg 72 64 II;
#X msg 100 64 bIII;
#X msg 136 64 III;
#X msg 167 64 IV;
#X msg 231 64 V;
#X msg 263 64 bVI;
#X msg 294 64 VI;
#X msg 326 64 bVII;
#X msg 199 64 #IV;
#X msg 368 64 VII;
#X obj 9 8 inlet;
#X obj 9 148 outlet;
#X connect 0 0 1 0;
#X connect 0 1 2 0;
#X connect 0 2 3 0;
#X connect 0 3 4 0;
#X connect 0 4 5 0;
#X connect 0 5 6 0;
#X connect 0 6 11 0;
#X connect 0 7 7 0;
#X connect 0 8 8 0;
#X connect 0 9 9 0;
#X connect 0 10 10 0;
#X connect 0 11 12 0;
#X connect 1 0 14 0;
#X connect 2 0 14 0;
#X connect 3 0 14 0;
#X connect 4 0 14 0;
#X connect 5 0 14 0;
#X connect 6 0 14 0;
#X connect 7 0 14 0;
#X connect 8 0 14 0;
#X connect 9 0 14 0;
#X connect 10 0 14 0;
#X connect 11 0 14 0;
#X connect 12 0 14 0;
#X connect 13 0 0 0;
#X restore 571 167 pd Bb;
#N canvas 0 22 450 300 B 0;
#X obj 9 31 sel 0 1 2 3 4 5 6 7 8 9 10 11, f 64;
#X msg 9 64 I;
#X msg 40 64 bII;
#X msg 72 64 II;
#X msg 100 64 bIII;
#X msg 136 64 III;
#X msg 167 64 IV;
#X msg 231 64 V;
#X msg 263 64 bVI;
#X msg 294 64 VI;
#X msg 326 64 bVII;
#X msg 199 64 #IV;
#X msg 368 64 VII;
#X obj 9 8 inlet;
#X obj 9 148 outlet;
#X connect 0 0 1 0;
#X connect 0 1 2 0;
#X connect 0 2 3 0;
#X connect 0 3 4 0;
#X connect 0 4 5 0;
#X connect 0 5 6 0;
#X connect 0 6 11 0;
#X connect 0 7 7 0;
#X connect 0 8 8 0;
#X connect 0 9 9 0;
#X connect 0 10 10 0;
#X connect 0 11 12 0;
#X connect 1 0 14 0;
#X connect 2 0 14 0;
#X connect 3 0 14 0;
#X connect 4 0 14 0;
#X connect 5 0 14 0;
#X connect 6 0 14 0;
#X connect 7 0 14 0;
#X connect 8 0 14 0;
#X connect 9 0 14 0;
#X connect 10 0 14 0;
#X connect 11 0 14 0;
#X connect 12 0 14 0;
#X connect 13 0 0 0;
#X restore 611 167 pd B;
#X obj 202 471 outlet;
#X connect 0 0 16 0;
#X connect 0 0 1 0;
#X connect 1 0 2 0;
#X connect 1 1 3 0;
#X connect 1 2 4 0;
#X connect 1 3 5 0;
#X connect 1 4 6 0;
#X connect 1 5 7 0;
#X connect 1 6 12 0;
#X connect 1 7 8 0;
#X connect 1 8 9 0;
#X connect 1 9 10 0;
#X connect 1 10 11 0;
#X connect 1 11 14 0;
#X connect 2 0 13 0;
#X connect 3 0 13 0;
#X connect 4 0 13 0;
#X connect 5 0 13 0;
#X connect 6 0 13 0;
#X connect 7 0 13 0;
#X connect 8 0 13 0;
#X connect 9 0 13 0;
#X connect 10 0 13 0;
#X connect 11 0 13 0;
#X connect 12 0 13 0;
#X connect 13 0 31 0;
#X connect 14 0 13 0;
#X connect 15 0 16 1;
#X connect 16 0 18 0;
#X connect 17 0 19 0;
#X connect 17 1 20 0;
#X connect 17 2 21 0;
#X connect 17 3 22 0;
#X connect 17 4 23 0;
#X connect 17 5 24 0;
#X connect 17 6 25 0;
#X connect 17 7 26 0;
#X connect 17 8 27 0;
#X connect 17 9 28 0;
#X connect 17 10 29 0;
#X connect 17 11 30 0;
#X connect 18 0 17 0;
#X restore 155 229 pd pc2names;
#X obj 182 154 t f f, f 10;
#X obj 407 238 mod 2;
#X obj 380 217 t f f;
#X obj 380 260 - 1, f 5;
#X connect 0 0 6 0;
#X connect 1 0 2 0;
#X connect 1 2 3 0;
#X connect 2 0 4 0;
#X connect 3 0 5 1;
#X connect 4 0 5 0;
#X connect 5 0 42 0;
#X connect 6 0 10 0;
#X connect 6 1 1 0;
#X connect 7 0 39 0;
#X connect 10 0 17 0;
#X connect 11 1 12 0;
#X connect 11 3 14 0;
#X connect 12 0 13 0;
#X connect 13 0 44 0;
#X connect 14 0 15 0;
#X connect 14 1 43 0;
#X connect 15 0 16 0;
#X connect 15 0 32 0;
#X connect 16 0 49 0;
#X connect 17 0 48 0;
#X connect 17 1 11 0;
#X connect 18 0 48 1;
#X connect 20 0 21 0;
#X connect 21 0 13 1;
#X connect 22 0 24 0;
#X connect 22 1 46 0;
#X connect 23 0 24 1;
#X connect 24 0 8 0;
#X connect 25 0 11 0;
#X connect 26 0 47 0;
#X connect 26 1 27 0;
#X connect 27 0 28 1;
#X connect 28 0 29 0;
#X connect 29 0 30 0;
#X connect 30 0 23 0;
#X connect 31 0 35 0;
#X connect 32 0 33 0;
#X connect 33 0 31 0;
#X connect 34 0 2 1;
#X connect 36 0 38 0;
#X connect 39 0 52 0;
#X connect 40 0 43 1;
#X connect 42 0 7 0;
#X connect 43 0 50 0;
#X connect 44 0 36 0;
#X connect 46 0 26 0;
#X connect 47 0 28 0;
#X connect 48 0 22 0;
#X connect 49 0 12 1;
#X connect 50 0 15 1;
#X connect 50 1 18 0;
#X connect 51 0 53 1;
#X connect 52 0 53 0;
#X connect 52 1 51 0;
#X connect 53 0 31 1;
#X connect 53 0 36 1;
#X connect 53 0 9 0;
#X restore 221 129 pd get-chord-progression;
#N canvas 3 46 828 559 bass 0;
#X obj 537 432 poly 1 1, f 24;
#X obj 607 454 noteout 1, f 24;
#N canvas 0 50 691 699 salience 0;
#X obj 24 17 inlet;
#X obj 40 128 list split 1;
#X obj 110 188 list split 1;
#X obj 68 211 == 1;
#X obj 102 211 == 0;
#X obj 68 235 &&;
#X obj 104 168 list;
#X obj 41 151 t b f;
#X obj 103 77 list split 1;
#X obj 40 104 list append;
#X obj 147 395 list;
#X obj 23 459 list;
#X obj 69 395 list prepend;
#X obj 23 527 list split 1;
#X msg 240 181 bang;
#X obj 128 493 list length;
#X obj 23 476 t a a;
#X obj 128 510 - 1;
#X obj 125 301 f;
#X obj 160 300 + 1;
#X msg 352 162 0;
#X obj 23 37 t b a a b b, f 25;
#X msg 125 282 bang;
#X obj 68 265 t f f;
#N canvas 0 50 450 300 (subpatch) 0;
#X array \$0-salience 16 float 1;
#A 0 -1 4 -3 6 -6 0.5 -6.5 1 -6 0.5 -6.5 1 -4 1.5 -5.5 3;
#X coords 0 4 15 -4 200 140 1 0 0;
#X restore 438 126 graph;
#X msg 365 332 \; salience 0 4 -1 1 -2 2 -1 1 -3 3 -1 1 -2 2 -1 1 -4
;
#X obj 68 336 *;
#X obj 69 375 int;
#X obj 23 581 outlet;
#X text 290 33 find the salient notes of a rhythmic phrase;
#X obj 68 356 * -1;
#X obj 244 541 outlet;
#X text 28 598 todos;
#X text 225 558 solo positivos;
#X text 224 572 (syncopations);
#X obj 451 537 outlet;
#X text 432 554 solo negativos;
#X text 434 572 (reinforcements);
#X obj 351 426 list;
#X obj 244 445 list;
#X obj 265 426 list prepend;
#X obj 244 515 list split 1;
#X obj 349 481 list length;
#X obj 244 464 t a a;
#X obj 349 498 - 1;
#X obj 265 393 moses 0;
#X obj 23 428 t b b b;
#X msg 225 407 0;
#X obj 125 319 tabread \$0-salience;
#X connect 0 0 21 0;
#X connect 1 0 7 0;
#X connect 1 1 2 0;
#X connect 1 1 6 1;
#X connect 2 0 4 0;
#X connect 3 0 5 0;
#X connect 4 0 5 1;
#X connect 5 0 23 0;
#X connect 6 0 1 0;
#X connect 7 0 6 0;
#X connect 7 1 3 0;
#X connect 8 0 9 1;
#X connect 9 0 1 0;
#X connect 10 0 12 1;
#X connect 11 0 16 0;
#X connect 12 0 10 0;
#X connect 12 0 11 1;
#X connect 13 0 28 0;
#X connect 14 0 12 1;
#X connect 14 0 40 1;
#X connect 15 0 17 0;
#X connect 16 0 13 0;
#X connect 16 1 15 0;
#X connect 17 0 13 1;
#X connect 18 0 19 0;
#X connect 18 0 48 0;
#X connect 19 0 18 1;
#X connect 20 0 18 1;
#X connect 21 0 46 0;
#X connect 21 1 9 0;
#X connect 21 2 8 0;
#X connect 21 3 14 0;
#X connect 21 4 20 0;
#X connect 22 0 18 0;
#X connect 23 0 26 0;
#X connect 23 1 22 0;
#X connect 26 0 30 0;
#X connect 27 0 12 0;
#X connect 27 0 45 0;
#X connect 30 0 27 0;
#X connect 38 0 40 1;
#X connect 39 0 43 0;
#X connect 40 0 38 0;
#X connect 40 0 39 1;
#X connect 41 0 31 0;
#X connect 42 0 44 0;
#X connect 43 0 41 0;
#X connect 43 1 42 0;
#X connect 44 0 41 1;
#X connect 45 0 47 0;
#X connect 45 1 40 0;
#X connect 46 0 11 0;
#X connect 46 1 39 0;
#X connect 47 0 40 0;
#X connect 48 0 26 1;
#X restore 17 337 pd salience;
#N canvas 264 140 857 503 calculate 0;
#X obj 334 173 list split 1;
#X obj 334 194 t b a;
#X obj 377 212 list;
#X obj 420 258 f;
#X obj 442 258 + 1;
#X msg 436 169 0;
#X obj 366 241 t f b;
#X obj 350 283 sel 0;
#X obj 474 279 t f f;
#X obj 378 327 +;
#X obj 231 87 t b a b b;
#X obj 214 263 t f f;
#X obj 232 50 inlet;
#X text 431 16 use the values of the most salien notes and the values
of the L profile and set an experimental velocity value for the notes.
This highlights the accents (theoretical) plus the syncopations found
on the pattern.;
#X obj 58 415 t f f;
#X obj 126 170 t b b b;
#X obj 58 456 pow;
#X obj 506 404 inlet;
#X obj 214 304 + 2;
#X obj 506 424 t b f;
#X msg 58 373 16;
#X msg 214 211 16;
#X msg 373 105 \; \$1-vel 0 2 0 1 0 2 0 1 0 2 0 1 0 2 0 1 0;
#X obj 373 82 \$0;
#X obj 555 218 table \$0-vel 16;
#X obj 393 306 tabread \$0-vel;
#X obj 378 351 tabwrite \$0-vel;
#X obj 58 476 tabwrite \$0-velocity;
#X obj 59 435 tabread \$0-vel;
#X obj 145 317 \$0;
#X obj 214 324 tabwrite \$0-vel;
#X obj 214 283 tabread \$0-vel;
#X msg 145 347 \; \$1-vel normalize 1;
#X obj 214 240 vabs/forloop;
#X obj 58 394 vabs/forloop;
#X connect 0 0 1 0;
#X connect 0 1 2 1;
#X connect 1 0 2 0;
#X connect 1 1 6 0;
#X connect 2 0 0 0;
#X connect 3 0 4 0;
#X connect 3 0 8 0;
#X connect 4 0 3 1;
#X connect 5 0 3 1;
#X connect 6 0 7 0;
#X connect 6 1 3 0;
#X connect 7 1 9 0;
#X connect 8 0 25 0;
#X connect 8 1 26 1;
#X connect 9 0 26 0;
#X connect 10 0 15 0;
#X connect 10 1 0 0;
#X connect 10 2 5 0;
#X connect 10 2 2 1;
#X connect 10 3 23 0;
#X connect 11 0 31 0;
#X connect 11 1 30 1;
#X connect 12 0 10 0;
#X connect 14 0 28 0;
#X connect 14 1 27 1;
#X connect 15 0 20 0;
#X connect 15 1 29 0;
#X connect 15 2 21 0;
#X connect 16 0 27 0;
#X connect 17 0 19 0;
#X connect 18 0 30 0;
#X connect 19 0 20 0;
#X connect 19 1 16 1;
#X connect 20 0 34 0;
#X connect 21 0 33 0;
#X connect 23 0 22 0;
#X connect 25 0 9 1;
#X connect 28 0 16 0;
#X connect 29 0 32 0;
#X connect 31 0 18 0;
#X connect 33 0 11 0;
#X connect 34 0 14 0;
#X restore 48 361 pd calculate velocity;
#X obj 416 294 sel 1;
#X obj 416 234 t f f, f 18;
#X obj 416 317 f, f 18;
#X obj 416 385 f, f 38;
#X obj 416 360 t b f, f 32;
#X obj 678 280 * 4;
#X msg 678 301 60000 \$1;
#X obj 678 322 /;
#X obj 685 367 t b f;
#X obj 678 389 * 1, f 6;
#X obj 630 161 * 12;
#X obj 537 410 makenote 127 300, f 24;
#X obj 416 34 t f f f, f 50;
#X obj 597 203 + 24, f 6;
#X obj 630 139 abs;
#X obj 416 338 int;
#X obj 630 119 - 3;
#X obj 630 184 + 12;
#X obj 521 254 mod 16;
#X obj 521 296 * 120;
#X obj 564 78 sel -1;
#X obj 597 98 +;
#X obj 641 255 + 0, f 4;
#X obj 597 224 + 5;
#X obj 736 143 t b f;
#X obj 736 119 * 12;
#X obj 736 98 mod 2;
#X obj 461 165 - 1;
#X obj 461 187 abs;
#X obj 416 210 spigot 1;
#X obj 17 171 r \$0-bass-density;
#X obj 166 315 table \$0-riddm 64;
#X obj 171 338 r \$0-bass-velocity;
#X obj 188 361 table \$0-velocity 16;
#X obj 685 344 r \$0-bass-duration;
#X obj 678 258 r \$0-tempo;
#X obj 521 275 tabread \$0-velocity;
#X obj 630 99 r \$0-bass-octave;
#X obj 528 12 table \$0-bassseq 64;
#X obj 416 12 r \$0-current-step;
#X obj 416 273 tabread \$0-riddm;
#X obj 461 143 r \$0-mute-bass;
#X obj 564 56 tabread \$0-bassseq;
#X obj 612 78 r \$0-key;
#X obj 125 17 r lock-pattern;
#X obj 125 128 t l l;
#X obj 125 202 route, f 34;
#X obj 125 270 s \$0-set-bass-density;
#X obj 125 247 zexy/sum;
#X obj 125 225 t l l, f 26;
#X obj 299 39 r \$0-bass-lock;
#X obj 299 61 t b f;
#X obj 125 151 list, f 5;
#X obj 125 171 list prepend 1;
#X obj 196 39 r \$0-onsets-bass;
#X obj 195 151 list prepend 0;
#X text 220 17 <- from markov drums!;
#X obj 43 453 \$0;
#X obj 15 431 select 0 1;
#X obj 15 453 \$0;
#X obj 15 409 r \$0-bass-lock;
#X msg 43 474 \; \$1-set-lock-instrument color 2 13 10;
#X msg 15 509 \; \$1-set-lock-instrument color 11 11 1;
#X obj 125 108 vabs/listv;
#X obj 196 129 vabs/listv;
#X floatatom 735 421 5 0 0 0 - - -, f 5;
#X obj 17 292 populate-rhythm64, f 44;
#X obj 26 315 array set \$0-riddm;
#X connect 0 1 1 0;
#X connect 0 2 1 1;
#X connect 2 1 3 0;
#X connect 4 0 6 0;
#X connect 5 0 44 0;
#X connect 5 1 22 0;
#X connect 6 0 19 0;
#X connect 7 0 15 0;
#X connect 8 0 7 0;
#X connect 8 1 15 1;
#X connect 9 0 10 0;
#X connect 10 0 11 0;
#X connect 11 0 13 0;
#X connect 12 0 13 0;
#X connect 12 1 13 1;
#X connect 13 0 15 2;
#X connect 13 0 69 0;
#X connect 14 0 21 0;
#X connect 15 0 0 0;
#X connect 15 1 0 1;
#X connect 16 0 33 0;
#X connect 16 1 46 0;
#X connect 16 2 30 0;
#X connect 17 0 27 0;
#X connect 18 0 14 0;
#X connect 19 0 8 0;
#X connect 20 0 18 0;
#X connect 21 0 17 1;
#X connect 22 0 40 0;
#X connect 23 0 6 1;
#X connect 24 1 25 0;
#X connect 25 0 17 0;
#X connect 26 0 7 1;
#X connect 27 0 26 0;
#X connect 28 0 26 0;
#X connect 28 1 26 1;
#X connect 29 0 28 0;
#X connect 30 0 29 0;
#X connect 31 0 32 0;
#X connect 32 0 33 1;
#X connect 33 0 5 0;
#X connect 34 0 70 0;
#X connect 36 0 3 1;
#X connect 38 0 12 0;
#X connect 39 0 9 0;
#X connect 40 0 23 0;
#X connect 41 0 20 0;
#X connect 43 0 16 0;
#X connect 44 0 4 0;
#X connect 45 0 31 0;
#X connect 46 0 24 0;
#X connect 47 0 25 1;
#X connect 48 0 67 0;
#X connect 49 0 56 0;
#X connect 49 1 56 1;
#X connect 50 0 53 0;
#X connect 52 0 51 0;
#X connect 53 0 52 0;
#X connect 53 1 70 1;
#X connect 54 0 55 0;
#X connect 55 0 67 0;
#X connect 55 0 68 0;
#X connect 55 1 50 1;
#X connect 56 0 57 0;
#X connect 57 0 50 0;
#X connect 58 0 68 0;
#X connect 59 0 50 0;
#X connect 61 0 65 0;
#X connect 62 0 63 0;
#X connect 62 1 61 0;
#X connect 63 0 66 0;
#X connect 64 0 62 0;
#X connect 67 0 49 0;
#X connect 68 0 59 0;
#X connect 70 0 2 0;
#X connect 70 0 71 0;
#X restore 222 209 pd bass;
#X obj 221 9 declare -path abs;
#N canvas 3 50 305 426 range 0;
#X msg 97 138 dump;
#X obj 69 186 t b l;
#X obj 43 270 list prepend;
#X obj 74 62 -;
#X obj 59 33 t f f f;
#X obj 59 84 *;
#X obj 59 105 t b f;
#X obj 33 221 f;
#X text 21 318 sumar restar 12 a cada cambio;
#X text 21 338 en vez de calcular la distancia;
#X text 21 359 de octava;
#X obj 33 246 chord-range;
#X obj 59 9 r \$0-range;
#X obj 112 36 r \$0-set-range;
#X obj 43 291 s \$0-chord-variations;
#X obj 97 160 cyclone/coll \$0-one;
#C restore;
#X connect 0 0 15 0;
#X connect 1 0 7 0;
#X connect 1 1 11 1;
#X connect 2 0 14 0;
#X connect 3 0 5 1;
#X connect 4 0 5 0;
#X connect 4 1 3 1;
#X connect 4 2 3 0;
#X connect 5 0 6 0;
#X connect 6 0 0 0;
#X connect 6 1 7 1;
#X connect 7 0 11 0;
#X connect 11 0 2 0;
#X connect 12 0 4 0;
#X connect 13 0 3 1;
#X connect 15 0 1 0;
#X connect 15 1 2 1;
#X restore 221 189 pd range;
#X obj 11 499 s pd-\$0-house-harmonic-filler;
#X msg 11 478 save;
#X obj 11 457 r \$0-save-state;
#N canvas 0 50 918 679 gui-transport 0;
#X msg 144 46 59 17;
#X obj 36 67 != 0;
#X obj 36 88 change;
#X msg 144 241 58 17;
#X obj 36 261 != 0;
#X obj 36 282 change;
#X obj 36 110 sel 1;
#X obj 36 303 sel 1;
#X obj 9 5 r \$0-learn-scrollup;
#X obj 36 131 s \$0-set-scroll-up;
#X obj 9 198 r \$0-learn-scrolldown;
#X obj 36 325 s \$0-set-scroll-down;
#X obj 588 6 r \$0-learn-play;
#X obj 615 128 s \$0-set-play;
#X obj 9 219 t b f;
#X obj 9 347 s \$0-save-state;
#X obj 9 26 t b f;
#X obj 9 154 s \$0-save-state;
#X obj 588 27 t b f;
#X obj 588 149 s \$0-save-state;
#X msg 342 47 0 0;
#X obj 235 68 != 0;
#X obj 235 108 tgl 15 0 empty empty empty 17 7 0 10 -262144 -1 -1 0
1;
#X obj 235 88 sel 1;
#X obj 208 27 t b f;
#X obj 208 147 s \$0-save-state;
#X obj 235 126 s \$0-set-clock-mode;
#X obj 208 6 r \$0-learn-sync;
#X msg 142 452 2 19;
#X obj 9 410 r \$0-learn-key5;
#X obj 36 538 s \$0-set-keyfifths;
#X obj 9 431 t b f;
#X obj 9 561 s \$0-save-state;
#X msg 342 452 1 19;
#X obj 209 431 t b f;
#X obj 209 559 s \$0-save-state;
#X obj 209 410 r \$0-learn-key2;
#X obj 36 495 int;
#X obj 36 474 maxlib/scale 0 127 0 12;
#X obj 236 473 maxlib/scale 0 127 0 12;
#X obj 36 517 + 0.5;
#X obj 236 495 int;
#X obj 236 517 + 0.5;
#X obj 236 538 s \$0-set-keyseconds;
#X msg 722 48 26 17;
#X msg 541 49 8 17;
#X obj 408 6 r \$0-learn-tempo;
#X obj 435 91 s \$0-set-tempo;
#X obj 435 69 + 40;
#X obj 408 28 t b f;
#X obj 408 148 s \$0-save-state;
#X msg 480 342 1;
#X msg 511 342 -1;
#X obj 513 388 f 0;
#X obj 480 388 + 0;
#X obj 480 431 mod 25;
#X obj 480 298 r \$0-scroll-down;
#X obj 511 321 r \$0-scroll-up;
#X obj 513 366 r \$0-index;
#X obj 513 411 r \$0-files-in-folder;
#X obj 480 453 s \$0-list-of-files;
#X text 180 297 ----------------------------------------------->;
#X obj 615 69 != 0;
#X obj 615 109 tgl 15 0 empty empty empty 17 7 0 10 -262144 -1 -1 0
1;
#X obj 615 89 sel 1;
#X obj 36 46 pdmus/midi-learn;
#X obj 36 241 pdmus/midi-learn;
#X obj 235 47 pdmus/midi-learn;
#X obj 36 452 pdmus/midi-learn;
#X obj 236 452 pdmus/midi-learn;
#X obj 435 49 pdmus/midi-learn;
#X obj 615 48 pdmus/midi-learn;
#X msg 841 465 1 18;
#X obj 708 444 t b f;
#X obj 708 552 s \$0-save-state;
#X obj 735 508 int;
#X obj 735 465 pdmus/midi-learn;
#X obj 708 423 r \$0-learn-rhythm;
#X obj 735 531 s \$0-set-chord-pattern;
#X obj 735 486 maxlib/scale 0 127 0 27;
#X connect 0 0 65 1;
#X connect 1 0 2 0;
#X connect 2 0 6 0;
#X connect 3 0 66 1;
#X connect 4 0 5 0;
#X connect 5 0 7 0;
#X connect 6 0 9 0;
#X connect 7 0 11 0;
#X connect 8 0 16 0;
#X connect 10 0 14 0;
#X connect 12 0 18 0;
#X connect 14 0 15 0;
#X connect 14 1 66 0;
#X connect 16 0 17 0;
#X connect 16 1 65 0;
#X connect 18 0 19 0;
#X connect 18 1 71 0;
#X connect 20 0 67 1;
#X connect 21 0 23 0;
#X connect 22 0 26 0;
#X connect 23 0 22 0;
#X connect 24 0 25 0;
#X connect 24 1 67 0;
#X connect 27 0 24 0;
#X connect 28 0 68 1;
#X connect 29 0 31 0;
#X connect 31 0 32 0;
#X connect 31 1 68 0;
#X connect 33 0 69 1;
#X connect 34 0 35 0;
#X connect 34 1 69 0;
#X connect 36 0 34 0;
#X connect 37 0 40 0;
#X connect 38 0 37 0;
#X connect 39 0 41 0;
#X connect 40 0 30 0;
#X connect 41 0 42 0;
#X connect 42 0 43 0;
#X connect 44 0 71 1;
#X connect 45 0 70 1;
#X connect 46 0 49 0;
#X connect 48 0 47 0;
#X connect 49 0 50 0;
#X connect 49 1 70 0;
#X connect 51 0 54 0;
#X connect 52 0 54 0;
#X connect 53 0 54 1;
#X connect 54 0 53 0;
#X connect 54 0 55 0;
#X connect 55 0 60 0;
#X connect 56 0 51 0;
#X connect 57 0 52 0;
#X connect 58 0 53 0;
#X connect 59 0 55 1;
#X connect 62 0 64 0;
#X connect 63 0 13 0;
#X connect 64 0 63 0;
#X connect 65 0 1 0;
#X connect 65 1 0 0;
#X connect 66 0 4 0;
#X connect 66 1 3 0;
#X connect 67 0 21 0;
#X connect 67 1 20 0;
#X connect 68 0 38 0;
#X connect 68 1 28 0;
#X connect 69 0 39 0;
#X connect 69 1 33 0;
#X connect 70 0 48 0;
#X connect 70 1 45 0;
#X connect 71 0 62 0;
#X connect 71 1 44 0;
#X connect 72 0 76 1;
#X connect 73 0 74 0;
#X connect 73 1 76 0;
#X connect 75 0 78 0;
#X connect 76 0 79 0;
#X connect 76 1 72 0;
#X connect 77 0 73 0;
#X connect 79 0 75 0;
#X restore 222 229 pd gui-transport;
#N canvas 35 50 1040 507 gui-chords 0;
#X msg 143 49 2 18;
#X obj 37 92 int, f 4;
#X msg 356 47 3 18;
#X obj 250 92 int;
#X msg 983 46 6 18;
#X obj 877 88 int;
#X obj 877 67 maxlib/scale 0 127 0 4;
#X obj 37 72 maxlib/scale 0 127 1 64;
#X obj 634 5 r \$0-learn-register;
#X obj 10 4 r \$0-learn-density;
#X obj 37 112 s \$0-set-density;
#X obj 223 4 r \$0-learn-legato;
#X obj 250 112 s \$0-set-legato;
#X obj 877 109 s \$0-set-range;
#X obj 10 28 t b f;
#X obj 10 134 s \$0-save-state;
#X obj 10 235 int;
#X obj 10 213 r \$0-raw-density;
#X obj 10 278 s \$0-density;
#X text 54 155 v v v, f 2;
#X obj 223 26 t b f;
#X obj 223 135 s \$0-save-state;
#X msg 560 46 4 18;
#X obj 427 25 t b f;
#X obj 427 177 s \$0-save-state;
#X obj 427 4 r \$0-learn-chords-octave;
#X obj 454 155 s \$0-set-chords-octave;
#X obj 454 110 int;
#X obj 454 132 - 1;
#X obj 454 66 maxlib/scale 0 127 8.5 0;
#X obj 454 90 + 0.5;
#X obj 851 236 int;
#X obj 851 257 change;
#X obj 633 310 == 0, f 10;
#X obj 633 331 sel 1;
#X obj 633 351 f, f 12;
#X obj 633 238 t f f f, f 20;
#X obj 633 394 line 0;
#X obj 750 429 int;
#X obj 750 450 change;
#X msg 643 265 clear;
#X obj 633 290 pipe 300;
#X msg 633 373 \$1 \, 0 300;
#X msg 633 447 set \$1;
#X obj 851 215 r \$0-raw-range;
#X obj 851 279 s \$0-range;
#X obj 633 217 r \$0-raw-register;
#X obj 750 472 s \$0-register;
#X obj 633 473 s \$0-set-register;
#X obj 850 4 r \$0-learn-range;
#X obj 850 25 t b f;
#X obj 850 131 s \$0-save-state;
#X msg 767 46 7 18;
#X obj 661 90 int;
#X obj 661 69 maxlib/scale 0 127 -6 6;
#X obj 661 110 s \$0-set-register;
#X obj 634 26 t b f;
#X obj 634 134 s \$0-save-state;
#X text 681 161 v v v, f 2;
#X text 891 161 v v v, f 2;
#X obj 37 49 pdmus/midi-learn;
#X obj 250 47 pdmus/midi-learn;
#X obj 877 46 pdmus/midi-learn;
#X obj 454 46 pdmus/midi-learn;
#X obj 661 46 pdmus/midi-learn;
#X obj 20 256 change;
#X obj 250 70 maxlib/scale 0 127 1 64;
#X obj 220 235 int;
#X obj 220 213 r \$0-raw-legato;
#X obj 220 259 vabs/restrictout 100;
#X obj 220 286 s \$0-legato;
#X text 254 155 v v v, f 2;
#X connect 0 0 60 1;
#X connect 1 0 10 0;
#X connect 2 0 61 1;
#X connect 3 0 12 0;
#X connect 4 0 62 1;
#X connect 5 0 13 0;
#X connect 6 0 5 0;
#X connect 7 0 1 0;
#X connect 8 0 56 0;
#X connect 9 0 14 0;
#X connect 11 0 20 0;
#X connect 14 0 15 0;
#X connect 14 1 60 0;
#X connect 16 0 18 0;
#X connect 17 0 16 0;
#X connect 20 0 21 0;
#X connect 20 1 61 0;
#X connect 22 0 63 1;
#X connect 23 0 24 0;
#X connect 23 1 63 0;
#X connect 25 0 23 0;
#X connect 27 0 28 0;
#X connect 28 0 26 0;
#X connect 29 0 30 0;
#X connect 30 0 27 0;
#X connect 31 0 32 0;
#X connect 32 0 45 0;
#X connect 33 0 34 0;
#X connect 34 0 35 0;
#X connect 35 0 42 0;
#X connect 36 0 41 0;
#X connect 36 1 33 1;
#X connect 36 1 40 0;
#X connect 36 2 35 1;
#X connect 36 2 38 0;
#X connect 37 0 38 0;
#X connect 37 0 43 0;
#X connect 38 0 39 0;
#X connect 39 0 47 0;
#X connect 40 0 41 0;
#X connect 41 0 33 0;
#X connect 42 0 37 0;
#X connect 43 0 48 0;
#X connect 44 0 31 0;
#X connect 46 0 36 0;
#X connect 49 0 50 0;
#X connect 50 0 51 0;
#X connect 50 1 62 0;
#X connect 52 0 64 1;
#X connect 53 0 55 0;
#X connect 54 0 53 0;
#X connect 56 0 57 0;
#X connect 56 1 64 0;
#X connect 60 0 7 0;
#X connect 60 1 0 0;
#X connect 61 0 66 0;
#X connect 61 1 2 0;
#X connect 62 0 6 0;
#X connect 62 1 4 0;
#X connect 63 0 29 0;
#X connect 63 1 22 0;
#X connect 64 0 54 0;
#X connect 64 1 52 0;
#X connect 66 0 3 0;
#X connect 67 0 69 0;
#X connect 68 0 67 0;
#X connect 69 0 70 0;
#X restore 222 249 pd gui-chords;
#N canvas 0 50 844 618 gui-bass 0;
#X msg 144 56 7 17;
#X obj 38 99 int;
#X msg 551 56 14 17;
#X msg 344 57 8 17;
#X obj 238 79 maxlib/scale 0 127 0.2 16;
#X obj 38 78 maxlib/scale 0 127 0 64;
#X obj 445 77 maxlib/scale 0 127 0.125 1;
#X msg 759 56 16 17;
#X obj 653 77 / 64;
#X obj 653 97 int;
#X obj 653 117 change;
#X obj 11 13 r \$0-learn-bass-density;
#X obj 38 119 s \$0-set-bass-density;
#X obj 211 13 r \$0-learn-bass-duration;
#X obj 238 100 s \$0-set-bass-duration;
#X obj 418 13 r \$0-learn-bass-accents;
#X obj 445 98 s \$0-set-bass-velocity;
#X msg 759 429 15 17;
#X obj 626 408 t b f;
#X obj 626 571 s \$0-save-state;
#X obj 653 493 int;
#X obj 653 515 - 1;
#X obj 653 473 + 0.5;
#X obj 653 449 maxlib/scale 0 127 4.5 0;
#X obj 653 538 s \$0-set-bass-octave;
#X obj 626 387 r \$0-learn-bass-octave;
#X obj 626 35 t b f;
#X obj 626 161 s \$0-save-state;
#X obj 418 35 t b f;
#X obj 418 160 s \$0-save-state;
#X obj 211 35 t b f;
#X obj 211 160 s \$0-save-state;
#X obj 11 35 t b f;
#X obj 11 158 s \$0-save-state;
#X obj 626 13 r \$0-learn-mute-bass;
#X obj 653 138 s \$0-set-mute-bass;
#X msg 759 236 16 17;
#X obj 653 257 / 64;
#X obj 653 277 int;
#X obj 653 297 change;
#X obj 626 215 t b f;
#X obj 626 341 s \$0-save-state;
#X obj 626 193 r \$0-learn-lock-bass;
#X obj 653 318 s \$0-set-lock-bass;
#X obj 38 56 pdmus/midi-learn;
#X obj 445 56 pdmus/midi-learn;
#X obj 238 58 pdmus/midi-learn;
#X obj 653 56 pdmus/midi-learn;
#X obj 653 429 pdmus/midi-learn;
#X obj 653 236 pdmus/midi-learn;
#X connect 0 0 44 1;
#X connect 1 0 12 0;
#X connect 2 0 45 1;
#X connect 3 0 46 1;
#X connect 4 0 14 0;
#X connect 5 0 1 0;
#X connect 6 0 16 0;
#X connect 7 0 47 1;
#X connect 8 0 9 0;
#X connect 9 0 10 0;
#X connect 10 0 35 0;
#X connect 11 0 32 0;
#X connect 13 0 30 0;
#X connect 15 0 28 0;
#X connect 17 0 48 1;
#X connect 18 0 19 0;
#X connect 18 1 48 0;
#X connect 20 0 21 0;
#X connect 21 0 24 0;
#X connect 22 0 20 0;
#X connect 23 0 22 0;
#X connect 25 0 18 0;
#X connect 26 0 27 0;
#X connect 26 1 47 0;
#X connect 28 0 29 0;
#X connect 28 1 45 0;
#X connect 30 0 31 0;
#X connect 30 1 46 0;
#X connect 32 0 33 0;
#X connect 32 1 44 0;
#X connect 34 0 26 0;
#X connect 36 0 49 1;
#X connect 37 0 38 0;
#X connect 38 0 39 0;
#X connect 39 0 43 0;
#X connect 40 0 41 0;
#X connect 40 1 49 0;
#X connect 42 0 40 0;
#X connect 44 0 5 0;
#X connect 44 1 0 0;
#X connect 45 0 6 0;
#X connect 45 1 2 0;
#X connect 46 0 4 0;
#X connect 46 1 3 0;
#X connect 47 0 8 0;
#X connect 47 1 7 0;
#X connect 48 0 23 0;
#X connect 48 1 17 0;
#X connect 49 0 37 0;
#X connect 49 1 36 0;
#X restore 222 269 pd gui-bass;
#N canvas 54 23 759 383 harmonic-rhythm 0;
#X obj 353 176 pack 0 \$0;
#X obj 180 154 zexy/repack 2;
#X obj 234 220 f 0;
#X obj 264 220 + 1;
#X obj 234 241 mod 64;
#X obj 234 263 makefilename \$0-master-chord-fill-%d;
#X obj 207 286 s, f 5;
#X obj 207 198 t a b;
#X obj 8 95 s \$0-load-rhythm;
#X obj 353 155 vabs/forloop;
#X obj 8 9 r \$0-chord-pattern;
#X obj 8 30 int;
#X obj 8 51 vabs/restrictout 100;
#X msg 180 312 \$2 \$1;
#X obj 353 97 \$0;
#X obj 180 176 t l l;
#X obj 180 335 tabwrite \$0-master-pattern;
#X msg 353 118 64 \; \$1-master-pattern const 0;
#X obj 8 74 t b f b, f 58;
#X obj 180 130 cyclone/coll ./rhythm.txt;
#C restore;
#X msg 353 198 \; \$2-master-chord-fill-\$1 66.4 0;
#X connect 0 0 20 0;
#X connect 1 0 15 0;
#X connect 2 0 3 0;
#X connect 2 0 4 0;
#X connect 3 0 2 1;
#X connect 4 0 5 0;
#X connect 5 0 6 1;
#X connect 7 0 6 0;
#X connect 7 1 2 0;
#X connect 9 0 0 0;
#X connect 10 0 11 0;
#X connect 11 0 12 0;
#X connect 12 0 18 0;
#X connect 13 0 16 0;
#X connect 14 0 17 0;
#X connect 15 0 13 0;
#X connect 15 1 7 0;
#X connect 17 0 9 0;
#X connect 18 0 8 0;
#X connect 18 1 19 0;
#X connect 18 2 14 0;
#X connect 19 0 1 0;
#X restore 222 89 pd harmonic-rhythm;
#N canvas 122 22 183 212 reset-chords 0;
#X obj 8 27 \$0;
#X obj 8 118 pack 0 \$0;
#X msg 8 47 8 \; \$1-bassseq const -1 \; \$1-set-range 0 \;;
#X obj 8 7 r \$0-reset-chords;
#X obj 8 97 vabs/forloop;
#X msg 8 139 \; \$2-chordname-\$1 x 67 \;;
#X connect 0 0 2 0;
#X connect 1 0 5 0;
#X connect 2 0 4 0;
#X connect 3 0 0 0;
#X connect 4 0 1 0;
#X restore 221 49 pd reset-chords;
#N canvas 11 23 1236 465 scattered-plot 0;
#N canvas 531 148 461 310 area 0;
#X obj 14 15 struct \$0-area float x float y float size;
#X obj 14 41 drawpolygon -x 1 2 0 0 size 0 size size 0 size 0 0;
#X restore 8 10 pd area;
#N canvas 531 148 461 310 xsis 0;
#X obj 16 41 drawpolygon -x 1 1 0 0 length 0;
#X obj 14 15 struct \$0-xsis float x float y float length;
#X restore 8 30 pd xsis;
#N canvas 531 148 461 310 ysis 0;
#X obj 16 41 drawpolygon -x 1 1 0 0 0 heigth;
#X obj 14 15 struct \$0-ysis float x float y float heigth float vis
;
#X restore 8 50 pd ysis;
#N canvas 499 37 461 310 point 0;
#X obj 14 40 outlet;
#X obj 14 15 struct \$0-point float x float y float c float t;
#X obj 57 40 filledcurve c c 1 0 0 t 0 t t 0 t 0 0;
#X connect 1 0 0 0;
#X restore 490 12 pd point;
#X obj 333 350 r \$0-load;
#X obj 490 33 route click;
#X obj 87 187 + 10;
#X obj 200 236 + 10;
#X obj 8 71 bng 15 250 50 0 empty empty empty 17 7 0 10 -262144 -1
-1;
#X obj 451 323 pointer;
#X obj 490 258 t p b p, f 18;
#X obj 424 302 t b b;
#X msg 542 284 900;
#X obj 156 373 append \$0-point x y t c, f 30;
#X obj 542 326 set \$0-point c;
#X obj 424 382 set \$0-point c;
#X msg 424 357 222;
#X msg 288 348 222, f 4;
#X msg 117 53 dump;
#X obj 266 96 v \$0-gridsize;
#X obj 117 74 t a b, f 22;
#X obj 87 118 unpack, f 8;
#X obj 87 166 *;
#X obj 200 215 *;
#X obj 13 309 pdmus/list2int;
#X obj 13 267 int;
#X obj 46 267 int;
#X obj 13 287 pack, f 6;
#X obj 13 351 tabwrite \$0-lookup;
#X obj 13 330 swap, f 18;
#X obj 14 373 table \$0-lookup 210210;
#X obj 117 11 loadbang;
#X obj 117 32 delay 500;
#X obj 166 171 - 12;
#X obj 167 196 abs;
#X obj 215 172 / 13;
#X obj 102 145 / 19;
#X msg 244 349 5;
#X obj 549 75 get \$0-point x y;
#X obj 549 117 pack f f, f 16;
#X obj 549 138 pdmus/list2int;
#X obj 642 95 int;
#X obj 549 95 int;
#X obj 490 54 t p p, f 10;
#X text 26 70 << reset;
#X obj 576 221 s \$0-list-of-files;
#X obj 576 184 tabread \$0-lookup;
#X floatatom 584 204 5 0 0 0 - - -, f 5;
#X obj 490 236 spigot 0;
#X obj 537 184 t f f;
#X obj 549 159 t f f;
#X obj 535 214 !=;
#X msg 792 256 next;
#X obj 792 323 t b p;
#X obj 792 237 until;
#X obj 792 216 t b f, f 7;
#X obj 738 344 set \$0-point c;
#X obj 792 195 \$0;
#X obj 792 284 pointer \$0-point;
#X msg 831 256 traverse pd-\$1-plot;
#X obj 693 365 s \$0-list-of-files;
#X msg 742 323 900;
#X msg 693 342 0;
#X obj 693 128 r \$0-init-plot;
#X obj 693 151 delay 500;
#X obj 693 173 t b b b, f 17;
#X obj 640 275 vabs/oncev;
#X msg 640 296 222;
#X floatatom 599 164 6 0 0 0 - - -, f 6;
#X obj 943 94 until;
#X obj 1017 231 sel 0;
#X obj 1065 271 t f b;
#X floatatom 1084 302 5 0 0 0 - - -, f 5;
#X obj 1085 148 + 1;
#X obj 1015 120 f 0;
#X obj 1017 187 int;
#X obj 1015 147 mod 210210;
#X obj 1017 208 tabread \$0-lookup;
#X obj 1019 81 bng 15 250 50 0 empty empty empty 17 7 0 10 -262144
-1 -1;
#X obj 942 66 bng 15 250 50 0 empty empty empty 17 7 0 10 -262144 -1
-1;
#X floatatom 1074 185 10 0 0 0 - - -, f 10;
#N canvas 0 22 373 458 make-grid 0;
#X obj 37 191 pointer;
#X obj 37 212 s \$0-load;
#X obj 285 280 r \$0-load;
#X msg 135 279 10 10 \$1;
#X obj 18 13 loadbang;
#X obj 18 315 * 0.5;
#X obj 18 335 + 10;
#X msg 18 355 10 \$1;
#X obj 18 53 t b b;
#X obj 18 376 t l l;
#X obj 18 258 t f f f, f 20;
#X obj 25 33 inlet;
#X msg 45 74 200;
#X obj 45 94 value \$0-gridsize;
#X obj 18 74 \$0;
#X obj 18 235 v \$0-gridsize;
#X obj 18 113 t b f f;
#X obj 135 302 append \$0-area x y size;
#X obj 45 400 append \$0-xsis x y length, f 37;
#X obj 18 423 append \$0-ysis y x heigth, f 45;
#X msg 37 135 traverse pd-\$1-plot \, bang;
#X msg 57 157 \; pd-\$1-plot clear;
#X connect 0 0 1 0;
#X connect 2 0 17 3;
#X connect 2 0 18 3;
#X connect 2 0 19 3;
#X connect 3 0 17 0;
#X connect 4 0 8 0;
#X connect 5 0 6 0;
#X connect 6 0 7 0;
#X connect 7 0 9 0;
#X connect 8 0 14 0;
#X connect 8 1 12 0;
#X connect 9 0 19 0;
#X connect 9 1 18 0;
#X connect 10 0 5 0;
#X connect 10 1 18 2;
#X connect 10 1 19 2;
#X connect 10 2 3 0;
#X connect 11 0 8 0;
#X connect 12 0 13 0;
#X connect 14 0 16 0;
#X connect 15 0 10 0;
#X connect 16 0 15 0;
#X connect 16 1 20 0;
#X connect 16 2 21 0;
#X connect 20 0 0 0;
#X connect 21 0 0 0;
#X restore 8 90 pd make-grid;
#X obj 117 95 coll ./chords.txt;
#C restore;
#X connect 3 0 5 0;
#X connect 4 0 13 4;
#X connect 5 0 43 0;
#X connect 6 0 13 0;
#X connect 6 0 25 0;
#X connect 7 0 13 1;
#X connect 7 0 26 0;
#X connect 8 0 81 0;
#X connect 9 0 15 1;
#X connect 10 0 9 1;
#X connect 10 1 12 0;
#X connect 10 1 11 0;
#X connect 10 1 66 0;
#X connect 10 2 14 1;
#X connect 11 0 16 0;
#X connect 11 1 9 0;
#X connect 12 0 14 0;
#X connect 16 0 15 0;
#X connect 17 0 13 3;
#X connect 18 0 20 0;
#X connect 19 0 35 0;
#X connect 19 0 36 0;
#X connect 20 0 82 0;
#X connect 20 1 19 0;
#X connect 20 1 17 0;
#X connect 20 1 37 0;
#X connect 21 0 22 0;
#X connect 21 1 33 0;
#X connect 22 0 6 0;
#X connect 23 0 7 0;
#X connect 24 0 29 0;
#X connect 25 0 27 0;
#X connect 26 0 27 1;
#X connect 27 0 24 0;
#X connect 29 0 28 0;
#X connect 29 1 28 1;
#X connect 31 0 32 0;
#X connect 32 0 18 0;
#X connect 33 0 34 0;
#X connect 34 0 23 0;
#X connect 35 0 23 1;
#X connect 36 0 22 1;
#X connect 37 0 13 2;
#X connect 38 0 42 0;
#X connect 38 1 41 0;
#X connect 39 0 40 0;
#X connect 40 0 50 0;
#X connect 41 0 39 1;
#X connect 42 0 39 0;
#X connect 43 0 48 0;
#X connect 43 1 38 0;
#X connect 46 0 47 0;
#X connect 46 0 45 0;
#X connect 48 0 10 0;
#X connect 49 0 51 1;
#X connect 49 1 51 0;
#X connect 50 0 49 0;
#X connect 50 1 46 0;
#X connect 50 1 68 0;
#X connect 51 0 48 1;
#X connect 52 0 58 0;
#X connect 53 0 54 1;
#X connect 53 1 56 1;
#X connect 54 0 52 0;
#X connect 55 0 54 0;
#X connect 55 1 59 0;
#X connect 57 0 55 0;
#X connect 58 0 53 0;
#X connect 59 0 58 0;
#X connect 61 0 56 0;
#X connect 62 0 60 0;
#X connect 63 0 64 0;
#X connect 64 0 65 0;
#X connect 65 0 62 0;
#X connect 65 1 61 0;
#X connect 65 2 57 0;
#X connect 66 0 67 0;
#X connect 67 0 56 0;
#X connect 69 0 74 0;
#X connect 70 1 71 0;
#X connect 71 0 72 0;
#X connect 71 1 69 1;
#X connect 73 0 74 1;
#X connect 74 0 76 0;
#X connect 75 0 77 0;
#X connect 76 0 73 0;
#X connect 76 0 75 0;
#X connect 76 0 80 0;
#X connect 77 0 70 0;
#X connect 78 0 74 0;
#X connect 79 0 69 0;
#X connect 82 0 21 0;
#X connect 82 1 29 1;
#X restore 222 309 pd scattered-plot;
#X obj 196 493 flatgui/popup 124 25 #808080 chord-seq I-VIIm7 I-bVIImaj7-Im9-IIm9
I5-IV I5-VI5 I7-IIIm7 I7-bVIImaj7 I7sus4-VIsus4 Iadd11-IV Iadd9-VIm7-IV6-Iadd9
Im-#IVmaj7 Im-IVm7 Im-Im-bIIImaj7-bIIImaj7 Im-VIIm7-VIm7-Vmaj7 Im-Vm
Im-bIImaj Im-bVII-bIII-bVII Im-bVII Im-bVIIadd11 Im11-Vm11 Im11-Vm9
Im6-Vm9 Im7-II5 Im7-IVm7 Im7-VIm7-IV-bVIIsus4 Im7-Vm7-bVIIm7-IVm7 Im7-Vm9
Im7-bVIIm7-Vsus4-bVIIm7 Im9-IV13-bVIm7-Vm7 Im9-IV13-bVIm9-bII9 Im9-Vm7
Im9-Vm9 Im9-bIIIm7-IVadd9-Bm7 Im9-bIIImaj9-IIm9-bIIb9 Im9-bIImaj9-bIIIm9-bVI13-bIIm9
Im9-bVII13-bIImaj9-bIIImaj7 Im9-bVIIm9-bIIm9-bIIIm9 Im9-bVIIm9-bIIm9
Im9-bVIIm9-bVImaj7 Im9-bVIadd9-VIm9 Imaj7-IIIm7-VIImaj7-Imaj7 Imaj7-IIm7
Imaj7-VIImaj7-Vmaj7-IVmaj7 Imaj7-VIImaj7-bVIImaj7 Imaj7-VIImaj7 Imaj7-VIm7
Imaj7-bIIm7-bVIm-bVIm7 Imaj9-IIIm11-IVmaj9 Imaj9-VIm9-Im9-Vm11;
#X obj 338 494 bng 24 250 50 0 \$0-load-folder \$0-set-load-folder
folder -3 -10 1 12 -66577 -258113 -228856;
#X obj 196 523 s \$0-index;
#X obj 313 523 s \$0-sequence-file;
#X obj 196 471 r \$0-list-of-files;
#N canvas 5 23 964 679 struct-definitions 0;
#N canvas 42 50 277 84 \$0-line 0;
#X obj 12 11 struct \$0-line float pos float color;
#X obj 12 34 drawpolygon color 1 pos 20 pos 100;
#X restore 412 454 pd \$0-line;
#N canvas 831 269 334 157 \$0-beat 0;
#X obj 7 35 drawpolygon 222 2 0 20 100 20;
#X obj 7 55 drawpolygon 222 2 0 100 100 100;
#X obj 6 11 struct \$0-beat float x;
#X restore 412 474 pd \$0-beat;
#X obj 212 454 chord-name 0 \$0;
#X obj 312 454 chord-name 4 \$0;
#X obj 212 474 chord-name 1 \$0;
#X obj 212 494 chord-name 2 \$0;
#X obj 212 514 chord-name 3 \$0;
#X obj 312 474 chord-name 5 \$0;
#X obj 312 494 chord-name 6 \$0;
#X obj 312 514 chord-name 7 \$0;
#X obj 198 355 master-chord-structure 46 \$0;
#X obj 582 345 slave-chord-structure 16 \$0;
#X obj 15 15 master-chord-structure 0 \$0;
#X obj 15 35 master-chord-structure 1 \$0;
#X obj 15 235 master-chord-structure 30 \$0;
#X obj 15 195 master-chord-structure 9 \$0;
#X obj 15 515 master-chord-structure 63 \$0;
#X obj 15 55 master-chord-structure 2 \$0;
#X obj 15 75 master-chord-structure 3 \$0;
#X obj 15 115 master-chord-structure 5 \$0;
#X obj 15 95 master-chord-structure 4 \$0;
#X obj 15 135 master-chord-structure 6 \$0;
#X obj 15 155 master-chord-structure 7 \$0;
#X obj 15 175 master-chord-structure 8 \$0;
#X obj 15 255 master-chord-structure 31 \$0;
#X obj 15 275 master-chord-structure 32 \$0;
#X obj 15 295 master-chord-structure 33 \$0;
#X obj 15 315 master-chord-structure 34 \$0;
#X obj 15 335 master-chord-structure 35 \$0;
#X obj 15 355 master-chord-structure 36 \$0;
#X obj 15 375 master-chord-structure 37 \$0;
#X obj 15 395 master-chord-structure 38 \$0;
#X obj 15 415 master-chord-structure 39 \$0;
#X obj 15 455 master-chord-structure 60 \$0;
#X obj 15 475 master-chord-structure 61 \$0;
#X obj 15 495 master-chord-structure 62 \$0;
#X obj 198 415 master-chord-structure 49 \$0;
#X obj 198 395 master-chord-structure 48 \$0;
#X obj 198 375 master-chord-structure 47 \$0;
#X obj 198 315 master-chord-structure 44 \$0;
#X obj 198 295 master-chord-structure 43 \$0;
#X obj 198 275 master-chord-structure 42 \$0;
#X obj 198 235 master-chord-structure 40 \$0;
#X obj 198 195 master-chord-structure 19 \$0;
#X obj 198 175 master-chord-structure 18 \$0;
#X obj 198 35 master-chord-structure 11 \$0;
#X obj 198 15 master-chord-structure 10 \$0;
#X obj 198 55 master-chord-structure 12 \$0;
#X obj 198 75 master-chord-structure 13 \$0;
#X obj 198 95 master-chord-structure 14 \$0;
#X obj 198 115 master-chord-structure 15 \$0;
#X obj 198 135 master-chord-structure 16 \$0;
#X obj 198 155 master-chord-structure 17 \$0;
#X obj 198 255 master-chord-structure 41 \$0;
#X obj 198 335 master-chord-structure 45 \$0;
#X obj 385 15 master-chord-structure 20 \$0;
#X obj 385 55 master-chord-structure 22 \$0;
#X obj 385 35 master-chord-structure 21 \$0;
#X obj 385 75 master-chord-structure 23 \$0;
#X obj 385 115 master-chord-structure 25 \$0;
#X obj 385 95 master-chord-structure 24 \$0;
#X obj 385 155 master-chord-structure 27 \$0;
#X obj 385 135 master-chord-structure 26 \$0;
#X obj 385 175 master-chord-structure 28 \$0;
#X obj 385 195 master-chord-structure 29 \$0;
#X obj 385 235 master-chord-structure 50 \$0;
#X obj 385 255 master-chord-structure 51 \$0;
#X obj 385 275 master-chord-structure 52 \$0;
#X obj 385 295 master-chord-structure 53 \$0;
#X obj 385 315 master-chord-structure 54 \$0;
#X obj 385 335 master-chord-structure 55 \$0;
#X obj 385 375 master-chord-structure 57 \$0;
#X obj 385 395 master-chord-structure 58 \$0;
#X obj 385 415 master-chord-structure 59 \$0;
#X obj 385 355 master-chord-structure 56 \$0;
#X obj 772 175 slave-chord-structure 40 \$0;
#X obj 582 15 slave-chord-structure 0 \$0;
#X obj 772 15 slave-chord-structure 32 \$0;
#X obj 582 155 slave-chord-structure 7 \$0;
#X obj 582 35 slave-chord-structure 1 \$0;
#X obj 582 55 slave-chord-structure 2 \$0;
#X obj 582 75 slave-chord-structure 3 \$0;
#X obj 582 95 slave-chord-structure 4 \$0;
#X obj 582 115 slave-chord-structure 5 \$0;
#X obj 582 135 slave-chord-structure 6 \$0;
#X obj 582 175 slave-chord-structure 8 \$0;
#X obj 582 195 slave-chord-structure 9 \$0;
#X obj 582 215 slave-chord-structure 10 \$0;
#X obj 582 255 slave-chord-structure 12 \$0;
#X obj 582 235 slave-chord-structure 11 \$0;
#X obj 582 275 slave-chord-structure 13 \$0;
#X obj 582 295 slave-chord-structure 14 \$0;
#X obj 582 315 slave-chord-structure 15 \$0;
#X obj 582 365 slave-chord-structure 17 \$0;
#X obj 582 385 slave-chord-structure 18 \$0;
#X obj 582 405 slave-chord-structure 19 \$0;
#X obj 582 425 slave-chord-structure 20 \$0;
#X obj 582 445 slave-chord-structure 21 \$0;
#X obj 582 465 slave-chord-structure 22 \$0;
#X obj 582 485 slave-chord-structure 23 \$0;
#X obj 582 505 slave-chord-structure 24 \$0;
#X obj 582 525 slave-chord-structure 25 \$0;
#X obj 582 545 slave-chord-structure 26 \$0;
#X obj 582 565 slave-chord-structure 27 \$0;
#X obj 582 585 slave-chord-structure 28 \$0;
#X obj 582 605 slave-chord-structure 29 \$0;
#X obj 582 625 slave-chord-structure 30 \$0;
#X obj 582 645 slave-chord-structure 31 \$0;
#X obj 772 35 slave-chord-structure 33 \$0;
#X obj 772 55 slave-chord-structure 34 \$0;
#X obj 772 75 slave-chord-structure 35 \$0;
#X obj 772 95 slave-chord-structure 36 \$0;
#X obj 772 115 slave-chord-structure 37 \$0;
#X obj 772 135 slave-chord-structure 38 \$0;
#X obj 772 155 slave-chord-structure 39 \$0;
#X obj 772 195 slave-chord-structure 41 \$0;
#X obj 772 215 slave-chord-structure 42 \$0;
#X obj 772 235 slave-chord-structure 43 \$0;
#X obj 772 255 slave-chord-structure 44 \$0;
#X obj 772 275 slave-chord-structure 45 \$0;
#X obj 772 295 slave-chord-structure 46 \$0;
#X obj 772 315 slave-chord-structure 47 \$0;
#X obj 772 345 slave-chord-structure 48 \$0;
#X obj 772 365 slave-chord-structure 49 \$0;
#X obj 772 385 slave-chord-structure 50 \$0;
#X obj 772 405 slave-chord-structure 51 \$0;
#X obj 772 425 slave-chord-structure 52 \$0;
#X obj 772 445 slave-chord-structure 53 \$0;
#X obj 772 465 slave-chord-structure 54 \$0;
#X obj 772 485 slave-chord-structure 55 \$0;
#X obj 772 505 slave-chord-structure 56 \$0;
#X obj 772 525 slave-chord-structure 57 \$0;
#X obj 772 545 slave-chord-structure 58 \$0;
#X obj 772 565 slave-chord-structure 59 \$0;
#X obj 772 585 slave-chord-structure 60 \$0;
#X obj 772 605 slave-chord-structure 61 \$0;
#X obj 772 625 slave-chord-structure 62 \$0;
#X obj 772 645 slave-chord-structure 63 \$0;
#X restore 222 329 pd struct-definitions;
#X obj 408 407 bng 24 250 50 0 \$0-scroll-up \$0-set-scroll-up next
1 -10 1 12 -66577 -258113 -228856;
#X obj 434 423 bng 8 250 50 0 \$0-learn-scrollup --- empty 17 7 0 10
-258113 -1 -1;
#X obj 408 454 bng 24 250 50 0 \$0-scroll-down \$0-set-scroll-down
prev. -1 -8 1 12 -66577 -258113 -228856;
#X obj 434 470 bng 8 250 50 0 \$0-learn-scrolldown --- empty 17 7 0
10 -258113 -1 -1;
#N canvas 0 22 450 278 (subpatch) 0;
#X array \$0-master-pattern 64 float 1;
#A 0 16 0 0 0 0 0 0 0 0 0 0 0 0 0 0 0 9 0 0 0 0 0 0 0 0 0 5 0 0 0 0
0 16 0 0 0 0 0 0 0 0 0 0 0 0 0 0 0 9 0 0 0 0 0 0 0 0 0 5 0 0 0 0 0
;
#X coords 0 64 63 0 100 100 1 0 0;
#X restore 4 21 graph;
#N canvas 11 69 610 636 make-gui-sequence 0;
#X obj 10 29 div 4;
#X obj 10 50 change;
#X obj 52 395 until;
#X msg 52 418 next;
#X obj 52 471 t b p, f 6;
#X obj 263 141 pointer;
#X obj 193 25 bng 15 250 50 0 empty empty empty 17 7 0 10 -262144 -1
-1;
#X obj 369 226 mod 4;
#X obj 369 247 sel 0, f 6;
#X obj 402 270 t b;
#X obj 322 248 sel 0;
#X msg 322 269 900;
#X obj 322 226 mod 16;
#X msg 402 291 333;
#X msg 369 270 666;
#X obj 193 5 loadbang;
#X obj 228 204 t f f f f, f 24;
#X obj 228 226 sel 64;
#X msg 228 162 65;
#X obj 228 297 t b b, f 6;
#X obj 10 492 set \$0-beat x;
#X obj 52 450 pointer \$0-beat;
#X obj 193 43 \$0;
#X obj 263 162 s \$0-loadpointer;
#X obj 477 288 r \$0-loadpointer;
#X obj 315 511 append \$0-mchord0 x, f 33;
#X obj 315 404 pack 0 \$0;
#X obj 52 374 t b f, f 7;
#X obj 261 340 append \$0-beat x, f 30;
#X obj 292 318 append \$0-line pos color;
#X obj 10 8 r \$0-current-step;
#X msg 263 85 traverse pd-\$1-data \, bang;
#X msg 299 107 \; pd-\$1-data clear;
#X msg 91 420 traverse pd-\$1-data;
#X obj 193 63 t f b f f, f 18;
#X msg 228 318 65;
#X obj 228 383 sel 64, f 15;
#X msg 228 469 8;
#X obj 228 510 pack 0 \$0;
#X obj 228 557 append \$0-chord0 x, f 52;
#X msg 228 534 set \$2-chord\$1 x \, 1800;
#X msg 315 490 set \$2-mchord\$1 x \, 100;
#X obj 228 183 vabs/forloop 0;
#X obj 228 489 vabs/forloop;
#X obj 228 362 vabs/forloop;
#X msg 261 318 26;
#X obj 275 226 * 26;
#X obj 275 248 + 26;
#X obj 10 71 * 104;
#X obj 10 92 + 28;
#X obj 315 425 t l l;
#X msg 342 447 set \$2-schord\$1 x \, 100;
#X obj 342 468 append \$0-schord\$1 x, f 25;
#X connect 0 0 1 0;
#X connect 1 0 48 0;
#X connect 2 0 3 0;
#X connect 3 0 21 0;
#X connect 4 0 2 1;
#X connect 4 1 20 1;
#X connect 5 0 23 0;
#X connect 6 0 22 0;
#X connect 7 0 8 0;
#X connect 8 0 14 0;
#X connect 8 1 9 0;
#X connect 9 0 13 0;
#X connect 10 0 11 0;
#X connect 11 0 29 1;
#X connect 12 0 10 0;
#X connect 13 0 29 1;
#X connect 14 0 29 1;
#X connect 15 0 6 0;
#X connect 16 0 17 0;
#X connect 16 1 46 0;
#X connect 16 2 12 0;
#X connect 16 3 7 0;
#X connect 17 0 19 0;
#X connect 18 0 42 0;
#X connect 19 0 35 0;
#X connect 19 1 45 0;
#X connect 21 0 4 0;
#X connect 22 0 34 0;
#X connect 24 0 25 1;
#X connect 24 0 28 1;
#X connect 24 0 29 2;
#X connect 24 0 39 1;
#X connect 24 0 52 1;
#X connect 26 0 50 0;
#X connect 27 0 2 0;
#X connect 27 1 33 0;
#X connect 30 0 0 0;
#X connect 31 0 5 0;
#X connect 32 0 5 0;
#X connect 33 0 21 0;
#X connect 34 0 27 0;
#X connect 34 1 18 0;
#X connect 34 2 31 0;
#X connect 34 3 32 0;
#X connect 35 0 44 0;
#X connect 36 0 37 0;
#X connect 36 1 26 0;
#X connect 37 0 43 0;
#X connect 38 0 40 0;
#X connect 40 0 39 0;
#X connect 41 0 25 0;
#X connect 42 0 16 0;
#X connect 43 0 38 0;
#X connect 44 0 36 0;
#X connect 45 0 28 0;
#X connect 46 0 47 0;
#X connect 47 0 29 0;
#X connect 48 0 49 0;
#X connect 49 0 20 0;
#X connect 50 0 41 0;
#X connect 50 1 51 0;
#X connect 51 0 52 0;
#X restore 222 289 pd make-gui-sequence;
#N canvas 144 23 654 543 play-chords 0;
#X msg 250 92 clear;
#X obj 239 28 inlet;
#X obj 308 28 inlet;
#X obj 239 48 list prepend;
#X obj 38 390 list, f 40;
#X obj 305 390 list split 1;
#X obj 278 348 t l l;
#X obj 305 369 zexy/sort;
#X text 325 49 listas con onset-step y notas del acorde;
#X obj 419 240 - 8;
#X obj 419 260 abs;
#X obj 419 281 * 12;
#X obj 455 283 t b f, f 10;
#X obj 419 307 +, f 16;
#X text 402 91 we use the argumentation by Tagg to take the first chord
of the shuttle as "tonic." According to this... it should be quite
easy to obtain the tonic of the shuttle., f 30;
#X text 237 9 chord;
#X text 306 10 onset position.;
#X obj 239 250 pdmus/chord-foldover;
#X obj 11 40 t f f f, f 34;
#X obj 239 206 f;
#X obj 239 165 t b l, f 20;
#X obj 143 345 list prepend;
#X obj 239 272 t l l, f 7;
#X obj 239 228 clip -1 1;
#X obj 11 18 r \$0-current-step;
#X obj 256 118 r \$0-chord-variations;
#X obj 254 186 r \$0-register;
#X obj 419 220 r \$0-chords-octave;
#X obj 143 367 s \$0-chord-variations;
#X obj 305 411 s \$0-bass;
#X obj 455 260 r \$0-key;
#X obj 239 143 cyclone/coll \$0-one;
#C restore;
#X obj 38 458 noteout 2;
#X obj 38 436 pack 0 0 2;
#X obj 250 71 r \$0-reset-chords;
#X obj 38 412 vabs/list-dripv;
#X obj 278 327 pdmus/chord-transpose 60;
#X floatatom 80 140 5 0 0 0 - - -, f 5;
#X obj 80 119 r \$0-tempo;
#X obj 80 179 /;
#X obj 65 242 delay;
#X obj 11 121 sel 0;
#X msg 80 158 15000 \$1;
#X obj 65 200 *;
#X obj 38 141 t f f;
#X msg 65 264 0, f 2;
#X msg 38 264 96, f 2;
#X obj 38 368 t b f, f 6;
#X obj 65 222 - 10;
#X obj 11 97 tabread \$0-new-onsets, f 24;
#X connect 0 0 31 0;
#X connect 1 0 3 0;
#X connect 2 0 3 1;
#X connect 3 0 31 0;
#X connect 4 0 35 0;
#X connect 5 0 29 0;
#X connect 6 0 4 1;
#X connect 6 1 7 0;
#X connect 7 0 5 0;
#X connect 9 0 10 0;
#X connect 10 0 11 0;
#X connect 11 0 13 0;
#X connect 12 0 13 0;
#X connect 12 1 13 1;
#X connect 13 0 36 1;
#X connect 17 0 22 0;
#X connect 18 0 49 0;
#X connect 18 1 31 0;
#X connect 18 2 21 1;
#X connect 19 0 23 0;
#X connect 20 0 19 0;
#X connect 20 1 17 1;
#X connect 21 0 28 0;
#X connect 22 0 21 0;
#X connect 22 1 36 0;
#X connect 23 0 17 0;
#X connect 24 0 18 0;
#X connect 25 0 31 0;
#X connect 26 0 19 1;
#X connect 27 0 9 0;
#X connect 30 0 12 0;
#X connect 31 0 20 0;
#X connect 33 0 32 0;
#X connect 34 0 0 0;
#X connect 35 0 33 0;
#X connect 36 0 6 0;
#X connect 37 0 42 0;
#X connect 38 0 37 0;
#X connect 39 0 43 1;
#X connect 40 0 45 0;
#X connect 41 1 44 0;
#X connect 42 0 39 0;
#X connect 43 0 48 0;
#X connect 44 0 46 0;
#X connect 44 1 43 0;
#X connect 45 0 47 0;
#X connect 46 0 47 0;
#X connect 47 0 4 0;
#X connect 47 1 33 1;
#X connect 48 0 40 0;
#X connect 49 0 41 0;
#X restore 221 149 pd play-chords, f 24;
#X connect 1 0 10 0;
#X connect 10 0 35 0;
#X connect 10 1 35 1;
#X connect 15 0 14 0;
#X connect 16 0 15 0;
#X connect 23 0 25 0;
#X connect 23 1 26 0;
#X connect 27 0 23 0;
#X restore 1013 2 pd patch;
#X obj 0 2 cnv 15 1065 430 empty \$0-title HOUSE HARMONIC FILLER 20
18 0 20 -128992 -258699 0;
#X obj 551 225 vsl 24 180 1 64 0 1 \$0-raw-density \$0-set-density
density -8 -12 1 12 -66577 -258113 -228856 1421 1;
#X obj 577 400 bng 8 250 50 0 \$0-learn-density --- empty 17 7 0 10
-258113 -1 -1;
#X obj 594 225 vsl 24 180 1 32 0 1 \$0-raw-legato \$0-set-legato legato
-6 -12 1 12 -66577 -258113 -228856 0 0;
#X obj 734 225 vsl 24 180 -3 3 0 0 \$0-raw-register \$0-set-register
register -7 -12 1 12 -66577 -258113 -228856 8950 0;
#X obj 687 225 vsl 24 180 0 3.9 0 0 \$0-raw-range \$0-set-range spread
-5 -12 1 12 -66577 -258113 -228856 0 1;
#X obj 620 400 bng 8 250 50 0 \$0-learn-legato --- empty 17 7 0 10
-258113 -1 -1;
#X obj 713 400 bng 8 250 50 0 \$0-learn-range --- empty 17 7 0 10 -258113
-1 -1;
#X obj 760 400 bng 8 250 50 0 \$0-learn-register --- empty 17 7 0 10
-258113 -1 -1;
#X obj 794 176 cnv 15 100 20 empty empty BASS 5 12 0 20 -128992 -228856
0;
#X obj 808 225 vsl 24 180 0 64 0 0 \$0-bass-density \$0-set-bass-density
density -8 -12 1 12 -66577 -258113 -228856 1678 1;
#X obj 851 225 vsl 24 180 0.2 16 0 0 \$0-bass-duration \$0-set-bass-duration
length -5 -12 1 12 -66577 -258113 -228856 13368 1;
#X obj 894 225 vsl 24 180 0.125 1 0 0 \$0-bass-velocity \$0-set-bass-velocity
accents -10 -12 1 12 -66577 -258113 -228856 0 1;
#X obj 937 312 vradio 24 1 0 4 \$0-bass-octave \$0-set-bass-octave
octave -6 -10 1 12 -66577 -258113 -228856 2;
#X obj 834 400 bng 8 250 50 0 \$0-learn-bass-density --- empty 17 7
0 10 -258113 -1 -1;
#X obj 877 400 bng 8 250 50 0 \$0-learn-bass-duration --- empty 17
7 0 10 -258113 -1 -1;
#X obj 920 400 bng 8 250 50 0 \$0-learn-bass-accents --- empty 17 7
0 10 -258113 -1 -1;
#X obj 963 400 bng 8 250 50 0 \$0-learn-bass-octave --- empty 17 7
0 10 -258113 -1 -1;
#X obj 77 224 tgl 24 0 \$0-clock-mode \$0-set-clock-mode ext-sync -7
-10 1 12 -66577 -258113 -228856 1 1;
#X obj 14 178 cnv 15 100 20 empty empty GENERAL 5 12 0 20 -128992 -228856
0;
#X obj 77 274 nbx 3 24 20 999.9 0 0 \$0-tempo \$0-set-tempo bpm 0 -8
1 12 -128992 -258699 -166441 110 256;
#X obj 122 290 bng 8 250 50 0 \$0-learn-tempo --- empty 17 7 0 10 -258113
-1 -1;
#X obj 103 240 bng 8 250 50 0 \$0-learn-sync --- empty 17 7 0 10 -258113
-1 -1;
#X obj 640 224 vradio 23 1 0 8 \$0-chords-octave \$0-set-chords-octave
octave -6 -10 1 12 -66577 -258113 -228856 3;
#X obj 665 400 bng 8 250 50 0 \$0-learn-chords-octave --- empty 17
7 0 10 -258113 -1 -1;
#N canvas 423 94 275 305 fifths 0;
#X obj 33 29 flatgui/knob 65 65 0.5 12.5 0 0 \$0-key-fifths \$0-set-keyfifths
key -20 -5 1 12 -258113 -258113 -228856 3200 1;
#X text 58 14 C;
#X text 77 18 G;
#X text 92 31 D;
#X text 42 20 F;
#X text 22 33 Bb;
#X text 16 50 Eb;
#X text 19 69 Ab;
#X text 34 86 Db;
#X text 51 94 Gb;
#X text 67 94 F#;
#X text 100 49 A;
#X text 98 67 E;
#X text 89 83 B;
#X obj 10 174 int;
#X obj 10 194 change;
#N canvas 0 89 450 218 fifhts2secs 0;
#X obj 30 15 inlet;
#X obj 30 170 outlet;
#X msg 30 77 -6;
#X msg 60 77 1;
#X msg 120 77 3;
#X msg 150 77 -2;
#X msg 180 77 5;
#X msg 90 77 -4;
#X obj 30 40 sel 0 1 2 3 4 5 6 7 8 9 10 11 12, f 51;
#X msg 390 77 6;
#X msg 360 77 -1;
#X msg 330 77 4;
#X msg 300 77 -3;
#X msg 270 77 2;
#X msg 240 77 -5;
#X msg 210 77 0;
#X connect 0 0 8 0;
#X connect 2 0 1 0;
#X connect 3 0 1 0;
#X connect 4 0 1 0;
#X connect 5 0 1 0;
#X connect 6 0 1 0;
#X connect 7 0 1 0;
#X connect 8 0 2 0;
#X connect 8 1 3 0;
#X connect 8 2 7 0;
#X connect 8 3 4 0;
#X connect 8 4 5 0;
#X connect 8 5 6 0;
#X connect 8 6 15 0;
#X connect 8 7 14 0;
#X connect 8 8 13 0;
#X connect 8 9 12 0;
#X connect 8 10 11 0;
#X connect 8 11 10 0;
#X connect 8 12 9 0;
#X connect 9 0 1 0;
#X connect 10 0 1 0;
#X connect 11 0 1 0;
#X connect 12 0 1 0;
#X connect 13 0 1 0;
#X connect 14 0 1 0;
#X connect 15 0 1 0;
#X restore 10 215 pd fifhts2secs;
#X msg 123 235 set \$1;
#N canvas 360 412 457 218 sec2fifthvis 0;
#X obj 10 7 inlet;
#X obj 10 162 outlet;
#X obj 10 32 sel 0 1 2 3 4 5 6 7 8 9 10 11 12, f 51;
#X msg 10 69 0.5;
#X msg 40 69 7.5;
#X msg 70 69 2.5;
#X msg 100 69 9.5;
#X msg 130 69 4.5;
#X msg 160 69 11.5;
#X msg 196 69 6.5;
#X msg 226 69 1.5;
#X msg 256 69 8.5;
#X msg 286 69 3.5;
#X msg 316 69 10.5;
#X msg 346 69 5.5;
#X msg 376 69 12.5;
#X connect 0 0 2 0;
#X connect 2 0 3 0;
#X connect 2 1 4 0;
#X connect 2 2 5 0;
#X connect 2 3 6 0;
#X connect 2 4 7 0;
#X connect 2 5 8 0;
#X connect 2 6 9 0;
#X connect 2 7 10 0;
#X connect 2 8 11 0;
#X connect 2 9 12 0;
#X connect 2 10 13 0;
#X connect 2 11 14 0;
#X connect 2 12 15 0;
#X connect 3 0 1 0;
#X connect 4 0 1 0;
#X connect 5 0 1 0;
#X connect 6 0 1 0;
#X connect 7 0 1 0;
#X connect 8 0 1 0;
#X connect 9 0 1 0;
#X connect 10 0 1 0;
#X connect 11 0 1 0;
#X connect 12 0 1 0;
#X connect 13 0 1 0;
#X connect 14 0 1 0;
#X connect 15 0 1 0;
#X restore 123 211 pd sec2fifthvis;
#X obj 10 152 r \$0-key-fifths;
#X obj 10 236 s \$0-key;
#X obj 123 257 s \$0-set-keyseconds;
#X connect 14 0 15 0;
#X connect 14 0 18 0;
#X connect 15 0 16 0;
#X connect 16 0 20 0;
#X connect 17 0 21 0;
#X connect 18 0 17 0;
#X connect 19 0 14 0;
#X coords 0 -1 1 1 105 105 2 10 10;
#X restore 141 185 pd fifths;
#N canvas 79 87 330 327 seconds 0;
#X obj 30 29 flatgui/knob 65 65 0.5 12.5 0 0 \$0-key-seconds \$0-set-keyseconds
key -18 -5 1 12 -258113 -258113 -228856 3200 1;
#X text 57 13 C;
#X text 92 33 D;
#X text 21 30 Bb;
#X text 16 69 Ab;
#X text 46 94 Gb;
#X text 65 94 F#;
#X text 96 67 E;
#X text 74 17 Db;
#X text 96 49 Eb;
#X text 85 85 F;
#X text 40 18 B;
#X text 17 49 A;
#X text 33 87 G;
#X obj 10 174 int;
#X obj 10 195 change;
#N canvas 407 159 401 218 seconds 0;
#X obj 10 7 inlet;
#X obj 10 162 outlet;
#X msg 10 69 -6;
#X msg 130 69 -2;
#X msg 70 69 -4;
#X obj 10 32 sel 0 1 2 3 4 5 6 7 8 9 10 11 12, f 51;
#X msg 310 69 4;
#X msg 250 69 2;
#X msg 190 69 0;
#X msg 40 69 -5;
#X msg 100 69 -3;
#X msg 160 69 -1;
#X msg 220 69 1;
#X msg 280 69 3;
#X msg 340 69 5;
#X msg 370 69 6;
#X connect 0 0 5 0;
#X connect 2 0 1 0;
#X connect 3 0 1 0;
#X connect 4 0 1 0;
#X connect 5 0 2 0;
#X connect 5 1 9 0;
#X connect 5 2 4 0;
#X connect 5 3 10 0;
#X connect 5 4 3 0;
#X connect 5 5 11 0;
#X connect 5 6 8 0;
#X connect 5 7 12 0;
#X connect 5 8 7 0;
#X connect 5 9 13 0;
#X connect 5 10 6 0;
#X connect 5 11 14 0;
#X connect 5 12 15 0;
#X connect 6 0 1 0;
#X connect 7 0 1 0;
#X connect 8 0 1 0;
#X connect 9 0 1 0;
#X connect 10 0 1 0;
#X connect 11 0 1 0;
#X connect 12 0 1 0;
#X connect 13 0 1 0;
#X connect 14 0 1 0;
#X connect 15 0 1 0;
#X restore 10 235 pd seconds;
#X msg 87 257 set \$1;
#N canvas 360 412 457 218 sec2fifth 0;
#X obj 10 7 inlet;
#X obj 10 162 outlet;
#X obj 10 32 sel 0 1 2 3 4 5 6 7 8 9 10 11 12, f 51;
#X msg 10 69 0.5;
#X msg 40 69 7.5;
#X msg 70 69 2.5;
#X msg 100 69 9.5;
#X msg 130 69 4.5;
#X msg 160 69 11.5;
#X msg 196 69 6.5;
#X msg 226 69 1.5;
#X msg 256 69 8.5;
#X msg 286 69 3.5;
#X msg 316 69 10.5;
#X msg 346 69 5.5;
#X msg 376 69 12.5;
#X connect 0 0 2 0;
#X connect 2 0 3 0;
#X connect 2 1 4 0;
#X connect 2 2 5 0;
#X connect 2 3 6 0;
#X connect 2 4 7 0;
#X connect 2 5 8 0;
#X connect 2 6 9 0;
#X connect 2 7 10 0;
#X connect 2 8 11 0;
#X connect 2 9 12 0;
#X connect 2 10 13 0;
#X connect 2 11 14 0;
#X connect 2 12 15 0;
#X connect 3 0 1 0;
#X connect 4 0 1 0;
#X connect 5 0 1 0;
#X connect 6 0 1 0;
#X connect 7 0 1 0;
#X connect 8 0 1 0;
#X connect 9 0 1 0;
#X connect 10 0 1 0;
#X connect 11 0 1 0;
#X connect 12 0 1 0;
#X connect 13 0 1 0;
#X connect 14 0 1 0;
#X connect 15 0 1 0;
#X restore 87 228 pd sec2fifth;
#X obj 10 131 r \$0-key-seconds;
#X obj 10 256 s \$0-key;
#X obj 87 279 s \$0-set-keyfifths;
#X connect 14 0 15 0;
#X connect 15 0 16 0;
#X connect 15 0 18 0;
#X connect 16 0 20 0;
#X connect 17 0 21 0;
#X connect 18 0 17 0;
#X connect 19 0 14 0;
#X coords 0 -1 1 1 105 105 2 10 10;
#X restore 141 303 pd seconds;
#X obj 248 282 bng 8 250 50 0 \$0-learn-key5 --- empty 17 7 0 10 -258113
-1 -1;
#X obj 248 400 bng 8 250 50 0 \$0-learn-key2 --- empty 17 7 0 10 -258113
-1 -1;
#X obj 77 367 tgl 42 0 \$0-play \$0-set-play play 0 -10 1 12 -128992
-128992 -166441 1 1;
#X obj 121 401 bng 8 250 50 0 \$0-learn-play --- empty 17 7 0 10 -258113
-1 -1;
#X text 736 333 ___;
#X text 736 343 ___;
#X text 736 353 ___;
#X text 736 363 ___;
#X text 736 373 ___;
#X text 736 323 ___;
#X text 736 313 ___;
#X text 736 303 ___;
#X text 736 293 ___;
#X text 736 283 ___;
#X text 736 273 ___;
#X text 736 263 ___;
#X text 736 253 ___;
#X text 736 243 ___;
#X text 736 233 ___;
#X text 736 223 ___;
#X text 736 383 ___;
#X obj 937 263 tgl 24 0 \$0-mute-bass \$0-set-mute-bass mute -1 -10
1 12 -66577 -258113 -228856 0 1;
#X obj 963 279 bng 8 250 50 0 \$0-learn-mute-bass --- empty 17 7 0
10 -258113 -1 -1;
#N canvas 0 50 959 334 \$0-data 0;
#X scalar 1238-chord0 1772 0 x \;;
#X scalar 1238-chord1 1772 0 x \;;
#X scalar 1238-chord2 1772 0 x \;;
#X scalar 1238-chord3 30 0 Imin7 \;;
#X scalar 1238-chord4 446 0 VImin7 \;;
#X scalar 1238-chord5 862 0 IVmaj \;;
#X scalar 1238-chord6 1278 0 bVIIsus4 \;;
#X scalar 1238-chord7 1772 0 x \;;
#X scalar 1238-mchord0 1754.4 -5 \;;
#X scalar 1238-mchord1 1754.4 -5 \;;
#X scalar 1238-mchord2 1754.4 -5 \;;
#X scalar 1238-mchord3 1754.4 -5 \;;
#X scalar 1238-mchord4 1754.4 -5 \;;
#X scalar 1238-mchord5 1754.4 -5 \;;
#X scalar 1238-mchord6 1754.4 -5 \;;
#X scalar 1238-mchord7 1754.4 -5 \;;
#X scalar 1238-mchord8 1754.4 -5 \;;
#X scalar 1238-mchord9 1754.4 -5 \;;
#X scalar 1238-mchord10 1754.4 -5 \;;
#X scalar 1238-mchord11 1754.4 -5 \;;
#X scalar 1238-mchord12 1754.4 -5 \;;
#X scalar 1238-mchord13 1754.4 -5 \;;
#X scalar 1238-mchord14 1754.4 -5 \;;
#X scalar 1238-mchord15 1754.4 -5 \;;
#X scalar 1238-mchord16 1754.4 -5 \;;
#X scalar 1238-mchord17 1754.4 -5 \;;
#X scalar 1238-mchord18 1754.4 -5 \;;
#X scalar 1238-mchord19 1754.4 -5 \;;
#X scalar 1238-mchord20 1754.4 -5 \;;
#X scalar 1238-mchord21 1754.4 -5 \;;
#X scalar 1238-mchord22 1754.4 -5 \;;
#X scalar 1238-mchord23 1754.4 -5 \;;
#X scalar 1238-mchord24 1754.4 -5 \;;
#X scalar 1238-mchord25 1754.4 -5 \;;
#X scalar 1238-mchord26 1754.4 -5 \;;
#X scalar 1238-mchord27 1754.4 -5 \;;
#X scalar 1238-mchord28 1754.4 -5 \;;
#X scalar 1238-mchord29 1754.4 -5 \;;
#X scalar 1238-mchord30 1754.4 -5 \;;
#X scalar 1238-mchord31 1754.4 -5 \;;
#X scalar 1238-mchord32 1754.4 -5 \;;
#X scalar 1238-mchord33 1754.4 -5 \;;
#X scalar 1238-mchord34 1754.4 -5 \;;
#X scalar 1238-mchord35 1754.4 -5 \;;
#X scalar 1238-mchord36 1754.4 -5 \;;
#X scalar 1238-mchord37 1754.4 -5 \;;
#X scalar 1238-mchord38 1754.4 -5 \;;
#X scalar 1238-mchord39 1754.4 -5 \;;
#X scalar 1238-mchord40 1754.4 -5 \;;
#X scalar 1238-mchord41 1754.4 -5 \;;
#X scalar 1238-mchord42 1754.4 -5 \;;
#X scalar 1238-mchord43 1754.4 -5 \;;
#X scalar 1238-mchord44 1754.4 -5 \;;
#X scalar 1238-mchord45 28 411 \;;
#X scalar 1238-mchord46 444 229 \;;
#X scalar 1238-mchord47 704 125 \;;
#X scalar 1238-mchord48 860 411 \;;
#X scalar 1238-mchord49 1276 229 \;;
#X scalar 1238-mchord50 1536 125 \;;
#X scalar 1238-mchord51 1754.4 -5 \;;
#X scalar 1238-mchord52 1754.4 -5 \;;
#X scalar 1238-mchord53 1754.4 -5 \;;
#X scalar 1238-mchord54 1754.4 -5 \;;
#X scalar 1238-mchord55 1754.4 -5 \;;
#X scalar 1238-mchord56 1754.4 -5 \;;
#X scalar 1238-mchord57 1754.4 -5 \;;
#X scalar 1238-mchord58 1754.4 -5 \;;
#X scalar 1238-mchord59 1754.4 -5 \;;
#X scalar 1238-mchord60 1754.4 -5 \;;
#X scalar 1238-mchord61 1754.4 -5 \;;
#X scalar 1238-mchord62 1754.4 -5 \;;
#X scalar 1238-mchord63 1754.4 -5 \;;
#X scalar 1238-schord0 1276 21 \;;
#X scalar 1238-schord1 1536 21 \;;
#X scalar 1238-schord2 1754.4 -5 \;;
#X scalar 1238-schord3 1754.4 -5 \;;
#X scalar 1238-schord4 1754.4 -5 \;;
#X scalar 1238-schord5 1754.4 -5 \;;
#X scalar 1238-schord6 1754.4 -5 \;;
#X scalar 1238-schord7 1754.4 -5 \;;
#X scalar 1238-schord8 1754.4 -5 \;;
#X scalar 1238-schord9 1754.4 -5 \;;
#X scalar 1238-schord10 1754.4 -5 \;;
#X scalar 1238-schord11 1754.4 -5 \;;
#X scalar 1238-schord12 1754.4 -5 \;;
#X scalar 1238-schord13 1754.4 -5 \;;
#X scalar 1238-schord14 1754.4 -5 \;;
#X scalar 1238-schord15 1754.4 -5 \;;
#X scalar 1238-schord16 1754.4 -5 \;;
#X scalar 1238-schord17 1754.4 -5 \;;
#X scalar 1238-schord18 1754.4 -5 \;;
#X scalar 1238-schord19 1754.4 -5 \;;
#X scalar 1238-schord20 1754.4 -5 \;;
#X scalar 1238-schord21 1754.4 -5 \;;
#X scalar 1238-schord22 1754.4 -5 \;;
#X scalar 1238-schord23 1754.4 -5 \;;
#X scalar 1238-schord24 1754.4 -5 \;;
#X scalar 1238-schord25 1754.4 -5 \;;
#X scalar 1238-schord26 1754.4 -5 \;;
#X scalar 1238-schord27 1754.4 -5 \;;
#X scalar 1238-schord28 1754.4 -5 \;;
#X scalar 1238-schord29 1754.4 -5 \;;
#X scalar 1238-schord30 1754.4 -5 \;;
#X scalar 1238-schord31 1754.4 -5 \;;
#X scalar 1238-schord32 1754.4 -5 \;;
#X scalar 1238-schord33 1754.4 -5 \;;
#X scalar 1238-schord34 1754.4 -5 \;;
#X scalar 1238-schord35 1754.4 -5 \;;
#X scalar 1238-schord36 1754.4 -5 \;;
#X scalar 1238-schord37 1754.4 -5 \;;
#X scalar 1238-schord38 1754.4 -5 \;;
#X scalar 1238-schord39 1754.4 -5 \;;
#X scalar 1238-schord40 1754.4 -5 \;;
#X scalar 1238-schord41 1754.4 -5 \;;
#X scalar 1238-schord42 1754.4 -5 \;;
#X scalar 1238-schord43 1754.4 -5 \;;
#X scalar 1238-schord44 1754.4 -5 \;;
#X scalar 1238-schord45 1754.4 -5 \;;
#X scalar 1238-schord46 1754.4 -5 \;;
#X scalar 1238-schord47 1754.4 -5 \;;
#X scalar 1238-schord48 1754.4 -5 \;;
#X scalar 1238-schord49 1754.4 -5 \;;
#X scalar 1238-schord50 1754.4 -5 \;;
#X scalar 1238-schord51 1754.4 -5 \;;
#X scalar 1238-schord52 1754.4 -5 \;;
#X scalar 1238-schord53 1754.4 -5 \;;
#X scalar 1238-schord54 1754.4 -5 \;;
#X scalar 1238-schord55 1754.4 -5 \;;
#X scalar 1238-schord56 1754.4 -5 \;;
#X scalar 1238-schord57 1754.4 -5 \;;
#X scalar 1238-schord58 1754.4 -5 \;;
#X scalar 1238-schord59 1754.4 -5 \;;
#X scalar 1238-schord60 28 21 \;;
#X scalar 1238-schord61 444 21 \;;
#X scalar 1238-schord62 704 21 \;;
#X scalar 1238-schord63 860 21 \;;
#X scalar 1238-beat 444 \;;
#X scalar 1238-line 26 900 \;;
#X scalar 1238-line 52 333 \;;
#X scalar 1238-line 78 333 \;;
#X scalar 1238-line 104 333 \;;
#X scalar 1238-line 130 666 \;;
#X scalar 1238-line 156 333 \;;
#X scalar 1238-line 182 333 \;;
#X scalar 1238-line 208 333 \;;
#X scalar 1238-line 234 666 \;;
#X scalar 1238-line 260 333 \;;
#X scalar 1238-line 286 333 \;;
#X scalar 1238-line 312 333 \;;
#X scalar 1238-line 338 666 \;;
#X scalar 1238-line 364 333 \;;
#X scalar 1238-line 390 333 \;;
#X scalar 1238-line 416 333 \;;
#X scalar 1238-line 442 900 \;;
#X scalar 1238-line 468 333 \;;
#X scalar 1238-line 494 333 \;;
#X scalar 1238-line 520 333 \;;
#X scalar 1238-line 546 666 \;;
#X scalar 1238-line 572 333 \;;
#X scalar 1238-line 598 333 \;;
#X scalar 1238-line 624 333 \;;
#X scalar 1238-line 650 666 \;;
#X scalar 1238-line 676 333 \;;
#X scalar 1238-line 702 333 \;;
#X scalar 1238-line 728 333 \;;
#X scalar 1238-line 754 666 \;;
#X scalar 1238-line 780 333 \;;
#X scalar 1238-line 806 333 \;;
#X scalar 1238-line 832 333 \;;
#X scalar 1238-line 858 900 \;;
#X scalar 1238-line 884 333 \;;
#X scalar 1238-line 910 333 \;;
#X scalar 1238-line 936 333 \;;
#X scalar 1238-line 962 666 \;;
#X scalar 1238-line 988 333 \;;
#X scalar 1238-line 1014 333 \;;
#X scalar 1238-line 1040 333 \;;
#X scalar 1238-line 1066 666 \;;
#X scalar 1238-line 1092 333 \;;
#X scalar 1238-line 1118 333 \;;
#X scalar 1238-line 1144 333 \;;
#X scalar 1238-line 1170 666 \;;
#X scalar 1238-line 1196 333 \;;
#X scalar 1238-line 1222 333 \;;
#X scalar 1238-line 1248 333 \;;
#X scalar 1238-line 1274 900 \;;
#X scalar 1238-line 1300 333 \;;
#X scalar 1238-line 1326 333 \;;
#X scalar 1238-line 1352 333 \;;
#X scalar 1238-line 1378 666 \;;
#X scalar 1238-line 1404 333 \;;
#X scalar 1238-line 1430 333 \;;
#X scalar 1238-line 1456 333 \;;
#X scalar 1238-line 1482 666 \;;
#X scalar 1238-line 1508 333 \;;
#X scalar 1238-line 1534 333 \;;
#X scalar 1238-line 1560 333 \;;
#X scalar 1238-line 1586 666 \;;
#X scalar 1238-line 1612 333 \;;
#X scalar 1238-line 1638 333 \;;
#X scalar 1238-line 1664 333 \;;
#X scalar 1238-line 1690 900 \;;
#X coords 0 0 1715 120 1024 120 2 0 0;
#X restore 21 42 pd \$0-data;
#X obj 980 263 tgl 24 0 \$0-bass-lock \$0-set-bass-lock lock 1 -10
1 12 -66577 -258113 -228856 0 1;
#X obj 1006 279 bng 8 250 50 0 \$0-learn-lock-bass --- empty 17 7 0
10 -258113 -1 -1;
#X obj 980 312 vradio 24 1 0 4 lock-instrument \$0-set-lock-instrument
empty 0 -8 0 10 -128992 -128992 -166441 0;
#X obj 1011 314 cnv 15 30 20 empty empty kick 0 12 1 12 -128992 -228856
0;
#X obj 1010 336 cnv 15 30 20 empty empty snare 0 12 1 12 -128992 -228856
0;
#X obj 1011 360 cnv 15 30 20 empty empty cl-hat 0 12 1 12 -128992 -228856
0;
#X obj 1006 400 bng 8 250 50 0 \$0-learn-lock --- empty 17 7 0 10 -258113
-1 -1;
#X obj 1011 381 cnv 15 30 10 empty empty o-hat 0 12 1 12 -128992 -228856
0;
#X obj 27 226 vsl 24 180 0 27 0 1 \$0-chord-pattern \$0-set-chord-pattern
pattern -8 -12 1 12 -66577 -258113 -228856 8700 0;
#X obj 54 400 bng 8 250 50 0 \$0-learn-rhythm --- empty 17 7 0 10 -258113
-1 -1;
#N canvas 0 22 450 300 \$0-plot 0;
#X scalar 1238-point 171.053 123.846 222 5 \;;
#X scalar 1238-point 110.15 96.1538 222 5 \;;
#X scalar 1238-point 122.969 185.385 222 5 \;;
#X scalar 1238-point 157.518 188.462 222 5 \;;
#X scalar 1238-point 127.895 96.1538 222 5 \;;
#X scalar 1238-point 135.263 123.846 222 5 \;;
#X scalar 1238-point 92.2548 102.308 222 5 \;;
#X scalar 1238-point 123.684 123.846 222 5 \;;
#X scalar 1238-point 133.158 166.923 222 5 \;;
#X scalar 1238-point 37.3684 86.9231 222 5 \;;
#X scalar 1238-point 10 163.846 222 5 \;;
#X scalar 1238-point 47.8947 151.538 222 5 \;;
#X scalar 1238-point 191.202 96.1538 222 5 \;;
#X scalar 1238-point 130 120.769 222 5 \;;
#X scalar 1238-point 68.2321 111.538 222 5 \;;
#X scalar 1238-point 40.6759 96.1538 222 5 \;;
#X scalar 1238-point 73.1579 163.846 222 5 \;;
#X scalar 1238-point 70 176.154 222 5 \;;
#X scalar 1238-point 72.1053 176.154 222 5 \;;
#X scalar 1238-point 73.1579 163.846 222 5 \;;
#X scalar 1238-point 31.2022 99.2308 222 5 \;;
#X scalar 1238-point 44.7368 130 222 5 \;;
#X scalar 1238-point 22.6316 123.846 222 5 \;;
#X scalar 1238-point 83.6842 99.2308 900 5 \;;
#X scalar 1238-point 68.9474 37.6923 222 5 \;;
#X scalar 1238-point 94.3601 96.1538 222 5 \;;
#X scalar 1238-point 36.3158 126.923 222 5 \;;
#X scalar 1238-point 77.7058 65.3846 222 5 \;;
#X scalar 1238-point 62.6316 34.6154 222 5 \;;
#X scalar 1238-point 45.7895 154.615 222 5 \;;
#X scalar 1238-point 77.3684 160.769 222 5 \;;
#X scalar 1238-point 96.4654 96.1538 222 5 \;;
#X scalar 1238-point 94.2105 28.4615 222 5 \;;
#X scalar 1238-point 53.1579 34.6154 222 5 \;;
#X scalar 1238-point 44.7368 123.846 222 5 \;;
#X scalar 1238-point 48.9474 28.4615 222 5 \;;
#X scalar 1238-point 116.696 13.0769 222 5 \;;
#X scalar 1238-point 26.8421 120.769 222 5 \;;
#X scalar 1238-point 114.59 53.0769 222 5 \;;
#X scalar 1238-point 188.947 40.7692 222 5 \;;
#X scalar 1238-point 136.316 157.692 222 5 \;;
#X scalar 1238-point 142.969 59.2308 222 5 \;;
#X scalar 1238-point 166.311 102.308 222 5 \;;
#X scalar 1238-point 193.158 130 222 5 \;;
#X scalar 1238-point 179.474 120.769 222 5 \;;
#X scalar 1238-point 36.6532 65.3846 222 5 \;;
#X scalar 1238-point 163.684 34.6154 222 5 \;;
#X scalar 1238-point 150 34.6154 222 5 \;;
#X scalar 1238-ysis 110 10 200 0 \;;
#X scalar 1238-xsis 10 110 200 \;;
#X scalar 1238-area 10 10 200 \;;
#X coords 10 10 210 210 200 200 2 0 0;
#X restore 299 208 pd \$0-plot;
#X obj 540 178 cnv 15 250 5 empty empty CHORDS 5 12 0 20 -128992 -228856
0;
#X text 287 274 minor, f 1;
#X text 501 273 major, f 1;
#X text 375 407 diatonic;
#X text 368 193 chromatic;
