#N struct schord0 float x float dur symbol chordname;
#N struct schord1 float x float dur symbol chordname;
#N struct schord2 float x float dur symbol chordname;
#N struct schord3 float x float dur symbol chordname;
#N struct schord4 float x float dur symbol chordname;
#N struct schord5 float x float dur symbol chordname;
#N struct schord6 float x float dur symbol chordname;
#N struct schord7 float x float dur symbol chordname;
#N struct schord8 float x float dur symbol chordname;
#N struct schord9 float x float dur symbol chordname;
#N struct schord10 float x float dur symbol chordname;
#N struct schord11 float x float dur symbol chordname;
#N struct schord12 float x float dur symbol chordname;
#N struct schord13 float x float dur symbol chordname;
#N struct schord14 float x float dur symbol chordname;
#N struct schord15 float x float dur symbol chordname;
#N struct schord16 float x float dur symbol chordname;
#N struct schord17 float x float dur symbol chordname;
#N struct schord18 float x float dur symbol chordname;
#N struct schord19 float x float dur symbol chordname;
#N struct schord20 float x float dur symbol chordname;
#N struct schord21 float x float dur symbol chordname;
#N struct schord22 float x float dur symbol chordname;
#N struct schord23 float x float dur symbol chordname;
#N struct schord24 float x float dur symbol chordname;
#N struct schord25 float x float dur symbol chordname;
#N struct schord26 float x float dur symbol chordname;
#N struct schord27 float x float dur symbol chordname;
#N struct schord28 float x float dur symbol chordname;
#N struct schord29 float x float dur symbol chordname;
#N struct schord30 float x float dur symbol chordname;
#N struct schord31 float x float dur symbol chordname;
#N struct mchord0 float x float dur symbol chordname;
#N struct mchord1 float x float dur symbol chordname;
#N struct mchord2 float x float dur symbol chordname;
#N struct mchord3 float x float dur symbol chordname;
#N struct mchord4 float x float dur symbol chordname;
#N struct mchord5 float x float dur symbol chordname;
#N struct mchord6 float x float dur symbol chordname;
#N struct mchord7 float x float dur symbol chordname;
#N struct beat float x;
#N struct line float pos float color;
#N canvas 221 56 979 443 10;
#X declare -stdpath unauthorized -path abs -stdpath pd-symbolic;
#N canvas 118 229 669 425 patch 0;
#N canvas 100 50 595 685 adt 0;
#X obj 73 29 r density;
#X obj 44 276 until;
#X msg 92 275 0;
#X obj 44 305 f 0;
#X obj 74 305 + 1;
#X obj 73 228 t b b l;
#X obj 290 373 tabread new-onsets;
#X obj 59 591 tabwrite slave-pattern;
#X obj 124 297 s slave-pattern;
#X obj 160 149 t l l;
#X msg 124 275 const 0;
#X obj 73 90 f;
#X obj 43 52 r update-density;
#X obj 59 373 tabread master-pattern;
#X obj 59 400 expr if($f2==1 \, 1 \, if($f1==1 \, -1 \, $f1));
#X obj 44 327 t f f f f f;
#X obj 418 370 tabread legato-pattern;
#X obj 59 541 expr if($f2==-1 \, $f1 \, if($f1==1 \, 1 \, $f2));
#X obj 59 495 pack;
#X obj 59 472 swap;
#X obj 59 516 route 0 1;
#X obj 80 424 r force-legato;
#X obj 84 566 expr if($f1==1 \, $f1 \, $f2);
#X obj 167 100 s set-legato;
#X obj 227 188 s set-density;
#X obj 44 635 s update-legato;
#X obj 325 237 s onsets-bass;
#X obj 217 209 s set-bass-density;
#X obj 160 52 zexy/tabdump master-pattern;
#X obj 160 127 list-abs/list-apply max 0;
#X obj 163 251 zexy/tabset new-onsets;
#X obj 217 165 zexy/sum;
#X obj 73 207 pdmus/populate-rhythm;
#X floatatom 100 133 5 0 0 0 - - -, f 5;
#X obj 160 9 r end-analysis;
#X msg 167 77 64;
#X msg 44 254 64;
#X obj 44 613 sel 63;
#X obj 80 446 > 64;
#X connect 0 0 11 0;
#X connect 1 0 3 0;
#X connect 2 0 3 1;
#X connect 3 0 4 0;
#X connect 3 0 15 0;
#X connect 4 0 3 1;
#X connect 5 0 36 0;
#X connect 5 1 2 0;
#X connect 5 1 10 0;
#X connect 5 2 26 0;
#X connect 5 2 30 0;
#X connect 6 0 14 1;
#X connect 9 0 32 1;
#X connect 9 1 31 0;
#X connect 10 0 8 0;
#X connect 11 0 32 0;
#X connect 11 0 33 0;
#X connect 12 0 11 0;
#X connect 13 0 14 0;
#X connect 14 0 19 0;
#X connect 15 0 37 0;
#X connect 15 1 13 0;
#X connect 15 2 6 0;
#X connect 15 3 7 1;
#X connect 15 4 16 0;
#X connect 16 0 17 1;
#X connect 16 0 22 1;
#X connect 17 0 7 0;
#X connect 18 0 20 0;
#X connect 19 0 18 0;
#X connect 19 1 18 1;
#X connect 20 0 17 0;
#X connect 20 1 22 0;
#X connect 21 0 38 0;
#X connect 22 0 7 0;
#X connect 28 0 35 0;
#X connect 28 0 29 0;
#X connect 29 0 9 0;
#X connect 31 0 24 0;
#X connect 31 0 27 0;
#X connect 31 0 32 0;
#X connect 32 0 5 0;
#X connect 34 0 28 0;
#X connect 35 0 23 0;
#X connect 36 0 1 0;
#X connect 37 0 25 0;
#X connect 38 0 19 1;
#X restore 217 133 pd adt;
#N canvas 479 38 595 716 load-midi-loop 0;
#X msg 65 191 flush;
#X obj 39 666 / 4;
#X obj 25 617 unpack 0 0 0 0 0;
#X obj 94 687 s ticks/4;
#X obj 65 213 t a b, f 6;
#X obj 305 278 s reset-analysis;
#X obj 100 52 openpanel;
#X msg 100 138 read \$1;
#X obj 119 278 pdmus/midi-player;
#X obj 476 529 s end-analysis;
#X obj 100 8 r load_midi_file;
#X obj 467 497 t b b;
#X obj 39 644 pdmus/uanz;
#X obj 39 687 s bars;
#X obj 467 476 pdmus/uanz;
#X obj 25 593 pdmus/uanz;
#X obj 152 580 outlet;
#X msg 303 230 \; master-pattern const -1 \; slave-pattern const -1
;
#X obj 118 663 s set-tempo;
#X obj 118 640 spigot 0;
#X obj 163 618 tgl 15 0 empty empty empty 17 7 0 10 -262144 -1 -1 0
1;
#X text 184 617 get tempo from midi file (default = no);
#X msg 100 31 symbol ./midi-chord-loops;
#X obj 100 116 symbol;
#X obj 110 73 r reload;
#X obj 123 93 r file-by-name;
#X obj 152 559 pdmus/midi-sort-events;
#X obj 271 475 * 8;
#X obj 152 514 + 0;
#X obj 100 159 t b a b;
#X obj 139 200 s reset-count;
#X msg 139 179 0;
#X obj 271 453 r ticks/4;
#X obj 233 278 r bars;
#X obj 218 298 f;
#X obj 167 492 r reset-count;
#X obj 152 469 unpack 0 0 0;
#X obj 152 536 pack 0 0 0, f 12;
#X obj 218 374 f 0;
#X obj 248 374 + 1;
#X obj 233 352 r reset-count;
#X obj 256 497 f;
#X obj 218 397 sel 0 1;
#X obj 218 318 sel 2 4;
#X obj 218 422 t b b;
#X msg 218 444 flush;
#X connect 0 0 4 0;
#X connect 1 0 13 0;
#X connect 2 0 12 0;
#X connect 2 3 3 0;
#X connect 2 4 19 0;
#X connect 4 0 8 0;
#X connect 4 1 5 0;
#X connect 4 1 12 1;
#X connect 4 1 15 1;
#X connect 4 1 14 1;
#X connect 4 1 17 0;
#X connect 6 0 23 0;
#X connect 7 0 29 0;
#X connect 8 1 36 0;
#X connect 8 2 15 0;
#X connect 8 3 34 0;
#X connect 10 0 22 0;
#X connect 11 0 9 0;
#X connect 11 1 26 1;
#X connect 12 0 1 0;
#X connect 14 0 11 0;
#X connect 15 0 2 0;
#X connect 19 0 18 0;
#X connect 20 0 19 1;
#X connect 22 0 6 0;
#X connect 23 0 7 0;
#X connect 24 0 23 0;
#X connect 25 0 23 0;
#X connect 26 0 16 0;
#X connect 27 0 41 1;
#X connect 28 0 37 0;
#X connect 29 0 0 0;
#X connect 29 1 8 0;
#X connect 29 2 31 0;
#X connect 31 0 30 0;
#X connect 32 0 27 0;
#X connect 33 0 34 1;
#X connect 34 0 43 0;
#X connect 35 0 28 1;
#X connect 36 0 28 0;
#X connect 36 1 37 1;
#X connect 36 2 37 2;
#X connect 37 0 26 0;
#X connect 38 0 39 0;
#X connect 38 0 42 0;
#X connect 39 0 38 1;
#X connect 40 0 38 1;
#X connect 41 0 28 1;
#X connect 42 0 44 0;
#X connect 42 1 14 0;
#X connect 43 0 38 0;
#X connect 43 1 14 0;
#X connect 44 0 45 0;
#X connect 44 1 41 0;
#X connect 45 0 8 0;
#X restore 218 183 pd load-midi-loop;
#N canvas 0 50 450 300 (subpatch) 0;
#X array master-pattern 65 float 2;
#X coords 0 2 65 -2 200 50 1 0 0;
#X restore 5 19 graph;
#N canvas 0 50 450 300 (subpatch) 0;
#X array new-onsets 65 float 2;
#X coords 0 2 65 -2 200 50 1 0 0;
#X restore 4 85 graph;
#N canvas 0 50 450 300 (subpatch) 0;
#X array slave-pattern 65 float 2;
#X coords 0 2 65 -2 200 50 1 0 0;
#X restore 4 220 graph;
#N canvas 0 50 450 300 (subpatch) 0;
#X array legato-pattern 65 float 2;
#X coords 0 2 65 -2 200 50 1 0 0;
#X restore 4 153 graph;
#N canvas 117 170 1125 513 legato 0;
#N canvas 0 50 450 300 (subpatch) 0;
#X array \$0-legatorder 64 float 1;
#A 0 0 16 1 17 2 18 3 19 4 20 5 21 6 22 7 23 8 24 9 25 10 26 11 27
12 28 13 29 14 30 15 31 32 33 34 35 36 37 38 39 40 41 42 43 44 45 46
47 48 49 50 51 52 53 54 55 56 57 58 59 60 61 62 63;
#X coords 0 32 63 0 400 140 1 0 0;
#X restore 57 29 graph;
#X text 39 175 descendientemente \, por compás;
#X msg 76 343 22 20 6 4 30 28 14 12 26 24 21 10 23 8 5 18 7 16 29 2
31 0 13 15 25 27 9 11 17 19 1 3;
#X text 74 320 from daniel1;
#X msg 87 401 3 1 19 17 11 9 27 25 15 13 0 31 2 29 16 7 18 5 8 23 10
21 24 26 12 14 28 30 4 6 20 22;
#X text 84 380 from daniel-inverse;
#X text 59 265 descendientemente \, por subtiempos débiles;
#X msg 52 288 0 16 8 24 4 20 12 28 1 17 9 25 5 21 13 29 2 18 10 26
6 22 14 30 3 19 11 27 7 23 15 31;
#X obj 719 83 r legato;
#X obj 636 284 tabwrite legato-pattern;
#X obj 711 249 tabread \$0-legatorder;
#X obj 758 153 s legato-pattern;
#X obj 723 200 sel;
#X obj 738 178 - 1;
#X obj 672 164 t f b f;
#X obj 723 224 s update-density;
#X msg 636 259 -1;
#X msg 758 131 const 0;
#X obj 672 139 pdmus/forloop;
#X obj 719 107 t f f b;
#X obj 42 447 zexy/tabset \$0-legatorder;
#X msg 42 200 0 16 1 17 2 18 3 19 4 20 5 21 6 22 7 23 8 24 9 25 10
26 11 27 12 28 13 29 14 30 15 31 32 33 34 35 36 37 38 39 40 41 42 43
44 45 46 47 48 49 50 51 52 53 54 55 56 57 58 59 60 61 62 63;
#X connect 2 0 20 0;
#X connect 4 0 20 0;
#X connect 7 0 20 0;
#X connect 8 0 19 0;
#X connect 10 0 9 1;
#X connect 12 0 15 0;
#X connect 13 0 12 1;
#X connect 14 0 12 0;
#X connect 14 1 16 0;
#X connect 14 2 10 0;
#X connect 16 0 9 0;
#X connect 17 0 11 0;
#X connect 18 0 14 0;
#X connect 19 0 18 0;
#X connect 19 1 13 0;
#X connect 19 2 17 0;
#X connect 21 0 20 0;
#X restore 261 133 pd legato;
#N canvas 44 162 1164 595 control 0;
#X obj 29 312 s saturation;
#X obj 30 339 s substitution;
#X obj 61 226 s activity;
#X obj 118 110 s legato;
#X obj 126 67 s force-legato;
#X obj 118 35 int;
#X obj 118 11 r raw-legato;
#X obj 10 74 s density;
#X obj 10 11 r raw-density;
#X obj 10 33 int;
#X obj 237 34 int;
#X obj 237 11 r raw-register;
#X obj 237 77 s register;
#X obj 238 108 r reset-analysis;
#X obj 248 172 s set-register;
#X msg 238 129 0;
#X text 25 288 these are NOT yet implemented!;
#X obj 258 152 s set-range;
#X obj 347 34 int;
#X obj 347 11 r raw-range;
#X obj 347 77 s range;
#X obj 10 53 change;
#X obj 237 55 change;
#X obj 347 55 change;
#X obj 589 40 pdmus/midi-learn;
#X msg 695 40 123 4;
#X obj 589 17 r learn-tempo;
#X obj 589 106 s set-tempo;
#X obj 589 64 maxlib/scale 0 127 40 239;
#X obj 589 86 int;
#X msg 695 160 1 18;
#X obj 589 206 int;
#X obj 589 137 r learn-density;
#X obj 589 226 s set-density;
#X msg 695 280 2 18;
#X obj 589 326 int;
#X msg 885 40 3 18;
#X obj 589 257 r learn-legato;
#X obj 589 346 s set-legato;
#X obj 779 17 r learn-activity;
#X obj 779 86 s set-activity;
#X msg 885 290 5 18;
#X obj 779 336 int;
#X msg 885 160 4 18;
#X obj 779 206 int;
#X obj 779 137 r learn-register;
#X obj 779 267 r learn-range;
#X obj 779 184 maxlib/scale 0 127 -6 6;
#X obj 779 357 s set-range;
#X obj 779 226 s set-register;
#X obj 779 314 maxlib/scale 0 127 0 4;
#X obj 589 160 pdmus/midi-learn;
#X obj 589 280 pdmus/midi-learn;
#X obj 779 40 pdmus/midi-learn;
#X obj 779 290 pdmus/midi-learn;
#X obj 779 160 pdmus/midi-learn;
#X obj 61 189 r raw-activity;
#X obj 238 192 s set-activity;
#X msg 1085 40 6 18;
#X obj 979 86 int;
#X msg 1075 280 8 18;
#X msg 1085 170 7 18;
#X obj 979 40 pdmus/midi-learn;
#X obj 969 280 pdmus/midi-learn;
#X obj 979 170 pdmus/midi-learn;
#X obj 979 17 r learn-bass-density;
#X obj 979 147 r learn-bass-duration;
#X obj 979 106 s set-bass-density;
#X obj 979 216 s set-bass-duration;
#X obj 969 257 r learn-bass-accents;
#X obj 969 326 s set-bass-velocity;
#X msg 589 508 seek \$1;
#X obj 649 486 loadbang;
#X obj 639 540 s playlist;
#X msg 649 508 location ./midi-chord-loops \, graphics 0;
#X obj 259 356 s set-play;
#X msg 589 432 1;
#X msg 620 432 -1;
#X obj 625 463 f 0;
#X obj 589 463 + 0;
#X obj 589 486 mod 100;
#X obj 589 386 r scroll-down;
#X obj 620 409 r scroll-up;
#X msg 517 262 10 18;
#X obj 409 262 pdmus/midi-learn;
#X obj 409 287 != 0;
#X obj 409 356 s set-reload;
#X obj 409 238 r learn-reload;
#X msg 367 262 123 4;
#X obj 259 262 pdmus/midi-learn;
#X obj 259 287 != 0;
#X obj 259 238 r learn-play;
#X msg 1074 398 9 18;
#X obj 968 398 pdmus/midi-learn;
#X obj 968 462 s set-bass-octave;
#X obj 968 375 r learn-bass-octave;
#X obj 259 334 tgl 15 0 empty empty empty 17 7 0 10 -262144 -1 -1 0
1;
#X obj 259 310 sel 1;
#X msg 519 420 11 18;
#X obj 411 420 pdmus/midi-learn;
#X obj 411 445 != 0;
#X obj 411 469 change;
#X obj 411 396 r learn-scrollup;
#X obj 411 512 s set-scroll-up;
#X msg 366 420 12 18;
#X obj 258 420 pdmus/midi-learn;
#X obj 258 445 != 0;
#X obj 258 469 change;
#X obj 258 396 r learn-scrolldown;
#X obj 258 512 s set-scroll-down;
#X obj 409 310 change;
#X obj 409 332 sel 1;
#X obj 411 491 sel 1;
#X obj 258 490 sel 1;
#X text 34 209 I HAVE DISCONNECTED THIS!!!;
#X obj 779 64 maxlib/scale 0 127 0 1;
#X obj 979 64 maxlib/scale 0 127 0 32;
#X obj 979 194 maxlib/scale 0 127 0.2 16;
#X obj 969 304 maxlib/scale 0 127 1 0.125;
#X obj 968 420 - 3;
#X obj 968 440 abs;
#X obj 118 88 min 64;
#X obj 589 184 maxlib/scale 0 127 1 64;
#X obj 589 304 maxlib/scale 0 127 1 66;
#X connect 5 0 4 0;
#X connect 5 0 121 0;
#X connect 6 0 5 0;
#X connect 8 0 9 0;
#X connect 9 0 21 0;
#X connect 10 0 22 0;
#X connect 11 0 10 0;
#X connect 13 0 15 0;
#X connect 15 0 14 0;
#X connect 15 0 17 0;
#X connect 15 0 57 0;
#X connect 18 0 23 0;
#X connect 19 0 18 0;
#X connect 21 0 7 0;
#X connect 22 0 12 0;
#X connect 23 0 20 0;
#X connect 24 0 28 0;
#X connect 24 1 25 0;
#X connect 25 0 24 1;
#X connect 26 0 24 0;
#X connect 28 0 29 0;
#X connect 29 0 27 0;
#X connect 30 0 51 1;
#X connect 31 0 33 0;
#X connect 32 0 51 0;
#X connect 34 0 52 1;
#X connect 35 0 38 0;
#X connect 36 0 53 1;
#X connect 37 0 52 0;
#X connect 39 0 53 0;
#X connect 41 0 54 1;
#X connect 42 0 48 0;
#X connect 43 0 55 1;
#X connect 44 0 49 0;
#X connect 45 0 55 0;
#X connect 46 0 54 0;
#X connect 47 0 44 0;
#X connect 50 0 42 0;
#X connect 51 0 122 0;
#X connect 51 1 30 0;
#X connect 52 0 123 0;
#X connect 52 1 34 0;
#X connect 53 0 115 0;
#X connect 53 1 36 0;
#X connect 54 0 50 0;
#X connect 54 1 41 0;
#X connect 55 0 47 0;
#X connect 55 1 43 0;
#X connect 58 0 62 1;
#X connect 59 0 67 0;
#X connect 60 0 63 1;
#X connect 61 0 64 1;
#X connect 62 0 116 0;
#X connect 62 1 58 0;
#X connect 63 0 118 0;
#X connect 63 1 60 0;
#X connect 64 0 117 0;
#X connect 64 1 61 0;
#X connect 65 0 62 0;
#X connect 66 0 64 0;
#X connect 69 0 63 0;
#X connect 71 0 73 0;
#X connect 72 0 74 0;
#X connect 74 0 73 0;
#X connect 76 0 79 0;
#X connect 77 0 79 0;
#X connect 78 0 79 1;
#X connect 79 0 78 0;
#X connect 79 0 80 0;
#X connect 80 0 71 0;
#X connect 81 0 76 0;
#X connect 82 0 77 0;
#X connect 83 0 84 1;
#X connect 84 0 85 0;
#X connect 84 1 83 0;
#X connect 85 0 110 0;
#X connect 87 0 84 0;
#X connect 88 0 89 1;
#X connect 89 0 90 0;
#X connect 89 1 88 0;
#X connect 90 0 97 0;
#X connect 91 0 89 0;
#X connect 92 0 93 1;
#X connect 93 0 119 0;
#X connect 93 1 92 0;
#X connect 95 0 93 0;
#X connect 96 0 75 0;
#X connect 97 0 96 0;
#X connect 98 0 99 1;
#X connect 99 0 100 0;
#X connect 99 1 98 0;
#X connect 100 0 101 0;
#X connect 101 0 112 0;
#X connect 102 0 99 0;
#X connect 104 0 105 1;
#X connect 105 0 106 0;
#X connect 105 1 104 0;
#X connect 106 0 107 0;
#X connect 107 0 113 0;
#X connect 108 0 105 0;
#X connect 110 0 111 0;
#X connect 111 0 86 0;
#X connect 112 0 103 0;
#X connect 113 0 109 0;
#X connect 115 0 40 0;
#X connect 116 0 59 0;
#X connect 117 0 68 0;
#X connect 118 0 70 0;
#X connect 119 0 120 0;
#X connect 120 0 94 0;
#X connect 121 0 3 0;
#X connect 122 0 31 0;
#X connect 123 0 35 0;
#X restore 216 41 pd control from pd-gui;
#N canvas 302 46 511 471 clock 0;
#X obj 217 146 /;
#X obj 216 357 + 1;
#X obj 186 357 f 0;
#X msg 221 406 0, f 2;
#X msg 217 126 15000 \$1;
#X obj 166 168 metro 125;
#X obj 217 82 r tempo;
#X obj 186 428 s current_step;
#X obj 225 104 s vis-tempo;
#X obj 40 268 sel 0;
#X obj 306 31 r clock-mode;
#X obj 306 54 sel 0 1;
#X obj 91 8 r play;
#X obj 91 112 f;
#X obj 346 259 r clock-mode;
#X obj 280 284 spigot 0;
#X obj 216 217 s set-play;
#X obj 91 134 spigot;
#X obj 97 28 r clock-mode;
#X obj 97 49 - 1;
#X obj 97 69 abs;
#X obj 97 90 t b f;
#X obj 139 134 sel 1;
#X obj 86 268 sel 0 1;
#X obj 390 192 r clock-mode;
#X obj 345 216 spigot 0;
#X obj 345 238 s set-tempo;
#X msg 306 124 \; set-play color 2 13 10 \; set-tempo color 2 13 10
;
#X msg 86 310 0;
#X obj 216 195 pdmus/midi-sync, f 22;
#X obj 17 430 pdmus/midi-panic-ch 1;
#X obj 40 408 pdmus/midi-panic-ch 2;
#X obj 199 384 sel 0 63;
#X msg 325 76 \; set-play color 11 11 1 \; set-tempo color 11 13 1
;
#X connect 0 0 5 1;
#X connect 1 0 2 1;
#X connect 2 0 1 0;
#X connect 2 0 7 0;
#X connect 2 0 32 0;
#X connect 3 0 2 1;
#X connect 4 0 0 0;
#X connect 5 0 2 0;
#X connect 6 0 4 0;
#X connect 6 0 8 0;
#X connect 9 0 28 0;
#X connect 9 0 30 0;
#X connect 9 0 31 0;
#X connect 10 0 11 0;
#X connect 11 0 27 0;
#X connect 11 1 33 0;
#X connect 12 0 13 0;
#X connect 13 0 17 0;
#X connect 14 0 15 1;
#X connect 15 0 2 0;
#X connect 17 0 5 0;
#X connect 17 0 9 0;
#X connect 18 0 19 0;
#X connect 19 0 20 0;
#X connect 20 0 21 0;
#X connect 21 0 13 0;
#X connect 21 1 17 1;
#X connect 21 1 22 0;
#X connect 22 1 5 0;
#X connect 23 0 28 0;
#X connect 23 0 30 0;
#X connect 23 0 31 0;
#X connect 24 0 25 1;
#X connect 25 0 26 0;
#X connect 28 0 2 1;
#X connect 29 0 16 0;
#X connect 29 0 23 0;
#X connect 29 1 15 0;
#X connect 29 2 25 0;
#X connect 32 1 3 0;
#X restore 356 41 pd clock;
#N canvas 61 50 928 751 activity 0;
#X obj 583 184 zexy/listfind;
#X msg 583 162 1;
#X obj 459 156 tabread \$0-activity;
#X obj 495 244 route float bang;
#X obj 610 280 f;
#X obj 639 280 + 1;
#X obj 625 258 f;
#X obj 471 319 pdmus/add2list prepend;
#X obj 471 361 list length;
#X obj 635 233 r voice-changes;
#X obj 471 340 t l l;
#X obj 477 449 list;
#X obj 486 382 r voice-changes;
#X obj 471 404 ==;
#X obj 476 428 sel 1;
#X obj 477 471 sort;
#X obj 459 180 t f f;
#X obj 471 297 f;
#X obj 495 266 t b;
#X obj 432 55 t f b b;
#X obj 583 140 t b b b;
#X obj 477 600 zexy/listfind;
#X obj 477 622 route float;
#X obj 166 58 r density;
#X obj 230 58 r activity;
#X obj 230 112 *;
#X obj 230 85 t b f;
#X obj 230 155 int;
#X floatatom 260 176 5 0 0 0 - - -, f 5;
#X obj 705 399 t b l;
#X obj 624 425 f;
#X obj 624 496 list;
#X obj 756 614 list prepend;
#X obj 624 447 t b f;
#N canvas 431 50 495 459 activity 0;
#N canvas 0 50 450 300 (subpatch) 0;
#X array \$0-activity 32 float 1;
#A 0 0 16 8 24 4 20 12 28 1 17 9 25 5 21 13 29 2 18 10 26 6 22 14 30
3 19 11 27 7 23 15 31;
#X coords 0 32 31 0 400 140 1 0 0;
#X restore 14 -37 graph;
#X text 11 103 descendientemente \, por compás;
#X msg 14 128 0 16 1 17 2 18 3 19 4 20 5 21 6 22 7 23 8 24 9 25 10
26 11 27 12 28 13 29 14 30 15 31;
#X msg 48 271 22 20 6 4 30 28 14 12 26 24 21 10 23 8 5 18 7 16 29 2
31 0 13 15 25 27 9 11 17 19 1 3;
#X text 46 248 from daniel1;
#X msg 59 329 3 1 19 17 11 9 27 25 15 13 0 31 2 29 16 7 18 5 8 23 10
21 24 26 12 14 28 30 4 6 20 22;
#X text 56 308 from daniel-inverse;
#X text 31 193 descendientemente \, por subtiempos débiles;
#X msg 24 216 0 16 8 24 4 20 12 28 1 17 9 25 5 21 13 29 2 18 10 26
6 22 14 30 3 19 11 27 7 23 15 31;
#X obj 14 375 zexy/tabset \$0-activity;
#X connect 2 0 9 0;
#X connect 3 0 9 0;
#X connect 5 0 9 0;
#X connect 8 0 9 0;
#X restore 41 430 pd activity table order;
#X obj 477 494 t b l;
#X msg 477 516 32;
#X obj 477 568 t f f;
#X obj 705 378 list;
#X obj 705 332 t b f;
#X floatatom 268 85 5 0 0 0 - - -, f 5;
#X text 272 134 number of chords;
#X floatatom 339 87 5 0 0 0 - - -, f 5;
#X obj 230 198 change;
#X obj 663 15 t l l l;
#X obj 663 94 spigot;
#X obj 696 73 == 0;
#X obj 432 80 pdmus/forloop;
#X obj 477 539 pdmus/forloop;
#X obj 21 150 random 2;
#X obj 21 174 sel 0;
#X msg 21 198 -1;
#X obj 21 128 t b;
#X obj 50 72 pdmus/forloop;
#X obj 21 226 pdmus/add2list prepend;
#X msg 114 204 0;
#X msg 50 27 16;
#X obj 50 96 sel 0;
#X obj 21 276 list;
#X obj 151 217 sel;
#X obj 166 196 - 1;
#X obj 50 50 t f f;
#N canvas 0 50 450 278 (subpatch) 0;
#X array r-voicing 16 float 3;
#A 0 0 1 -1 1 -1 1 1 -1 1 1 1 1 1 1 -1 1;
#X coords 0 1.1 16 -1.1 100 70 1 0 0;
#X restore 21 333 graph;
#X text 83 28 GET NEW RANDOM DISTRIBUTION;
#X obj 370 425 print some;
#X obj 229 266 s voice-changes;
#X obj 477 644 tabread r-voicing;
#X obj 230 220 + 1;
#X obj 604 210 print onset-positions;
#X floatatom 238 243 5 0 0 0 - - -, f 5;
#X obj 432 103 t f f;
#X obj 412 129 + 16;
#X obj 230 134 * 0.4;
#X obj 756 635 s chord-variations;
#X msg 353 472 0 16 24;
#X obj 353 542 moses 16;
#X obj 21 298 zexy/tabset r-voicing;
#X obj 696 49 list-abs/list-compare;
#X obj 628 162 zexy/tabdump new-onsets;
#X obj 353 516 pdmus/list-dripv;
#X obj 651 471 pdmus/chord-foldover;
#X obj 726 355 cyclone/coll one;
#C restore;
#X obj 495 219 zexy/listfind;
#X connect 0 0 68 0;
#X connect 0 0 82 1;
#X connect 1 0 0 0;
#X connect 2 0 16 0;
#X connect 3 0 18 0;
#X connect 3 1 4 0;
#X connect 4 0 5 0;
#X connect 4 0 2 0;
#X connect 5 0 4 1;
#X connect 6 0 4 1;
#X connect 7 0 10 0;
#X connect 8 0 13 0;
#X connect 9 0 6 0;
#X connect 10 0 8 0;
#X connect 10 1 11 1;
#X connect 11 0 15 0;
#X connect 12 0 13 1;
#X connect 13 0 14 0;
#X connect 14 0 11 0;
#X connect 15 0 35 0;
#X connect 15 0 64 0;
#X connect 15 0 79 0;
#X connect 16 0 82 0;
#X connect 16 1 17 1;
#X connect 17 0 7 0;
#X connect 18 0 17 0;
#X connect 19 0 47 0;
#X connect 19 1 6 0;
#X connect 19 2 20 0;
#X connect 20 0 1 0;
#X connect 20 1 7 1;
#X connect 20 2 78 0;
#X connect 21 0 22 0;
#X connect 22 0 66 0;
#X connect 23 0 25 0;
#X connect 24 0 26 0;
#X connect 24 0 40 0;
#X connect 25 0 72 0;
#X connect 26 0 25 0;
#X connect 26 1 25 1;
#X connect 27 0 28 0;
#X connect 27 0 43 0;
#X connect 29 0 30 0;
#X connect 29 1 80 1;
#X connect 30 0 33 0;
#X connect 31 0 32 0;
#X connect 32 0 73 0;
#X connect 33 0 31 0;
#X connect 33 1 80 0;
#X connect 35 0 36 0;
#X connect 35 1 21 1;
#X connect 36 0 48 0;
#X connect 37 0 21 0;
#X connect 38 0 29 0;
#X connect 39 0 38 0;
#X connect 39 1 32 1;
#X connect 39 1 81 0;
#X connect 42 0 25 0;
#X connect 43 0 67 0;
#X connect 44 0 45 0;
#X connect 44 1 77 1;
#X connect 44 2 77 0;
#X connect 46 0 45 1;
#X connect 47 0 70 0;
#X connect 48 0 37 0;
#X connect 49 0 50 0;
#X connect 50 0 51 0;
#X connect 50 1 54 0;
#X connect 51 0 54 0;
#X connect 52 0 49 0;
#X connect 53 0 57 0;
#X connect 54 0 58 1;
#X connect 55 0 54 1;
#X connect 56 0 61 0;
#X connect 57 0 55 0;
#X connect 57 1 52 0;
#X connect 57 1 59 0;
#X connect 58 0 76 0;
#X connect 59 0 58 0;
#X connect 60 0 59 1;
#X connect 61 0 53 0;
#X connect 61 1 60 0;
#X connect 66 0 30 1;
#X connect 67 0 65 0;
#X connect 67 0 19 0;
#X connect 67 0 69 0;
#X connect 70 0 71 0;
#X connect 70 1 2 0;
#X connect 71 0 2 0;
#X connect 72 0 27 0;
#X connect 74 0 79 0;
#X connect 77 0 46 0;
#X connect 78 0 0 1;
#X connect 79 0 75 0;
#X connect 80 0 31 1;
#X connect 81 0 38 1;
#X connect 82 0 3 0;
#X restore 323 133 pd activity;
#N canvas 342 114 582 441 register 0;
#X msg 144 119 dump;
#X obj 103 167 t b l;
#X obj 54 246 >= 0;
#X obj 54 269 sel 0;
#X obj 27 202 f;
#X obj 98 87 t b f;
#X obj 27 346 list;
#X msg 54 293 -1;
#X obj 185 375 list prepend;
#X obj 91 37 t f f;
#X obj 98 64 -;
#X obj 27 224 t b f;
#X msg 432 143 dump;
#X obj 404 191 t b l;
#X obj 378 275 list prepend;
#X obj 394 14 r range;
#X obj 409 67 -;
#X obj 394 38 t f f f;
#X obj 394 89 *;
#X obj 448 41 r set-range;
#X obj 394 110 t b f;
#X obj 368 226 f;
#X text 356 323 sumar restar 12 a cada cambio;
#X text 356 343 en vez de calcular la distancia;
#X text 356 364 de octava;
#X obj 91 14 r register;
#X obj 368 251 chord-range;
#X obj 185 397 s chord-variations;
#X obj 378 296 s chord-variations;
#X obj 144 141 cyclone/coll one;
#C restore;
#X obj 432 165 cyclone/coll one;
#C restore;
#X obj 81 321 pdmus/chord-foldover;
#X connect 0 0 29 0;
#X connect 1 0 4 0;
#X connect 1 1 31 1;
#X connect 2 0 3 0;
#X connect 3 0 7 0;
#X connect 3 1 31 0;
#X connect 4 0 11 0;
#X connect 5 0 0 0;
#X connect 5 1 4 1;
#X connect 6 0 8 0;
#X connect 7 0 31 0;
#X connect 8 0 27 0;
#X connect 9 0 10 1;
#X connect 9 1 10 0;
#X connect 10 0 5 0;
#X connect 11 0 6 0;
#X connect 11 1 2 0;
#X connect 12 0 30 0;
#X connect 13 0 21 0;
#X connect 13 1 26 1;
#X connect 14 0 28 0;
#X connect 15 0 17 0;
#X connect 16 0 18 1;
#X connect 17 0 18 0;
#X connect 17 1 16 1;
#X connect 17 2 16 0;
#X connect 18 0 20 0;
#X connect 19 0 16 1;
#X connect 20 0 12 0;
#X connect 20 1 21 1;
#X connect 21 0 26 0;
#X connect 25 0 9 0;
#X connect 26 0 14 0;
#X connect 29 0 1 0;
#X connect 29 1 8 1;
#X connect 30 0 13 0;
#X connect 30 1 14 1;
#X connect 31 0 6 1;
#X restore 217 153 pd register and range;
#X text 9 278 TO DO's:;
#X text 8 332 rethink chord-substitution and expansion.;
#X text 8 352 circular visualization?? processing??;
#X text 8 372 add colors to chord height... (brigthness) and range.
;
#X text 9 295 density bug cuando llega a 15 hace 16;
#X text 8 312 legato does not always visualize correctly.;
#N canvas 648 154 515 367 BASS 0;
#N canvas 789 265 314 362 tables 0;
#N canvas 0 50 450 300 (subpatch) 0;
#X array nonext 16 float 3;
#A 0 4 2 5 3 6 5 1 8 3 7 6 3 7 8 6 6;
#X coords 0 3 15 -3 200 50 1 0 0;
#X restore 53 53 graph;
#N canvas 0 50 450 300 (subpatch) 0;
#X array next 16 float 3;
#A 0 4 2 5 3 4 5 1 2 3 5 4 3 5 2 4 4;
#X coords 0 3 15 -3 200 50 1 0 0;
#X restore 54 127 graph;
#N canvas 0 50 450 300 (subpatch) 0;
#X array id2d 32 float 3;
#A 0 0 1 1 1 1 2 2 2 2 2 2 3 3 3 3 4 0 1 1 1 1 2 2 2 2 2 2 3 3 3 3
4;
#X coords 0 4 31 0 200 140 1 0 0;
#X restore 46 198 graph;
#X restore 14 302 pd tables needed;
#X text 127 301 <- dont erase this. there are some tables needed for
this thing to work;
#N canvas 186 143 1018 615 onset2note 0;
#X obj 12 20 inlet;
#X obj 95 58 table riddm;
#N canvas 465 82 691 699 salience 0;
#X obj 24 17 inlet;
#X obj 41 132 list split 1;
#X obj 110 188 list split 1;
#X obj 68 211 == 1;
#X obj 102 211 == 0;
#X obj 68 235 &&;
#X obj 104 168 list;
#X obj 41 151 t b f;
#X obj 74 87 list split 1;
#X obj 40 114 list append;
#X obj 147 395 list;
#X obj 23 459 list;
#X obj 69 395 list prepend;
#X obj 23 527 list split 1;
#X msg 240 181 bang;
#X obj 128 493 list length;
#X obj 23 476 t a a;
#X obj 128 510 - 1;
#X obj 125 301 f;
#X obj 160 300 + 1;
#X msg 352 162 0;
#X obj 23 37 t b a a b b;
#X msg 125 282 bang;
#X obj 68 265 t f f;
#N canvas 0 50 450 300 (subpatch) 0;
#X array salience 16 float 1;
#A 0 -1 4 -3 6 -6 0.5 -6.5 1 -6 0.5 -6.5 1 -4 1.5 -5.5 3;
#X coords 0 4 15 -4 200 140 1 0 0;
#X restore 421 174 graph;
#X msg 365 326 \; salience 0 4 -1 1 -2 2 -1 1 -3 3 -1 1 -2 2 -1 1 -4
;
#X obj 125 319 tabread salience;
#X obj 68 336 *;
#X obj 69 375 int;
#X obj 23 581 outlet;
#X text 290 33 find the salient notes of a rhythmic phrase;
#X obj 68 356 * -1;
#X obj 244 541 outlet;
#X text 28 598 todos;
#X text 225 558 solo positivos;
#X text 224 572 (syncopations);
#X obj 451 537 outlet;
#X text 432 554 solo negativos;
#X text 434 572 (reinforcements);
#X obj 351 426 list;
#X obj 244 445 list;
#X obj 265 426 list prepend;
#X obj 244 515 list split 1;
#X obj 349 481 list length;
#X obj 244 464 t a a;
#X obj 349 498 - 1;
#X obj 265 393 moses 0;
#X obj 23 428 t b b b;
#X msg 225 407 0;
#X connect 0 0 21 0;
#X connect 1 0 7 0;
#X connect 1 1 2 0;
#X connect 1 1 6 1;
#X connect 2 0 4 0;
#X connect 3 0 5 0;
#X connect 4 0 5 1;
#X connect 5 0 23 0;
#X connect 6 0 1 0;
#X connect 7 0 6 0;
#X connect 7 1 3 0;
#X connect 8 0 9 1;
#X connect 9 0 1 0;
#X connect 10 0 12 1;
#X connect 11 0 16 0;
#X connect 12 0 10 0;
#X connect 12 0 11 1;
#X connect 13 0 29 0;
#X connect 14 0 12 1;
#X connect 14 0 41 1;
#X connect 15 0 17 0;
#X connect 16 0 13 0;
#X connect 16 1 15 0;
#X connect 17 0 13 1;
#X connect 18 0 19 0;
#X connect 18 0 26 0;
#X connect 19 0 18 1;
#X connect 20 0 18 1;
#X connect 21 0 47 0;
#X connect 21 1 9 0;
#X connect 21 2 8 0;
#X connect 21 3 14 0;
#X connect 21 4 20 0;
#X connect 22 0 18 0;
#X connect 23 0 27 0;
#X connect 23 1 22 0;
#X connect 26 0 27 1;
#X connect 27 0 31 0;
#X connect 28 0 12 0;
#X connect 28 0 46 0;
#X connect 31 0 28 0;
#X connect 39 0 41 1;
#X connect 40 0 44 0;
#X connect 41 0 39 0;
#X connect 41 0 40 1;
#X connect 42 0 32 0;
#X connect 43 0 45 0;
#X connect 44 0 42 0;
#X connect 44 1 43 0;
#X connect 45 0 42 1;
#X connect 46 0 48 0;
#X connect 46 1 41 0;
#X connect 47 0 11 0;
#X connect 47 1 40 0;
#X connect 48 0 41 0;
#X restore 12 89 pd salience;
#N canvas 264 140 857 503 calculate 0;
#X obj 334 173 list split 1;
#X obj 334 194 t b a;
#X obj 377 212 list;
#X obj 420 258 f;
#X obj 442 258 + 1;
#X msg 436 169 0;
#X obj 366 241 t f b;
#X obj 350 283 sel 0;
#X obj 474 279 t f f;
#X obj 378 327 +;
#X obj 231 87 t b a b b;
#X msg 214 211 16;
#X obj 214 263 t f f;
#X obj 77 28 inlet;
#X text 431 16 use the values of the most salien notes and the values
of the L profile and set an experimental velocity value for the notes.
This highlights the accents (theoretical) plus the syncopations found
on the pattern.;
#X obj 58 394 pdmus/forloop;
#X msg 58 373 16;
#X obj 58 415 t f f;
#X obj 58 476 tabwrite velocity;
#X obj 126 170 t b b b;
#X obj 58 456 pow;
#X obj 506 404 inlet;
#X obj 214 304 + 2;
#X obj 393 307 tabread vel;
#X obj 378 351 tabwrite vel;
#X obj 214 283 tabread vel;
#X obj 214 324 tabwrite vel;
#X obj 59 435 tabread vel;
#X obj 555 218 table vel 16;
#X obj 506 424 t b f;
#X msg 145 347 \; vel normalize 1;
#X msg 369 104 \; vel 0 2 0 1 0 2 0 1 0 2 0 1 0 2 0 1 0;
#X obj 214 240 pdmus/forloop;
#X connect 0 0 1 0;
#X connect 0 1 2 1;
#X connect 1 0 2 0;
#X connect 1 1 6 0;
#X connect 2 0 0 0;
#X connect 3 0 4 0;
#X connect 3 0 8 0;
#X connect 4 0 3 1;
#X connect 5 0 3 1;
#X connect 6 0 7 0;
#X connect 6 1 3 0;
#X connect 7 1 9 0;
#X connect 8 0 23 0;
#X connect 8 1 24 1;
#X connect 9 0 24 0;
#X connect 10 0 19 0;
#X connect 10 1 0 0;
#X connect 10 2 5 0;
#X connect 10 2 2 1;
#X connect 10 3 31 0;
#X connect 11 0 32 0;
#X connect 12 0 25 0;
#X connect 12 1 26 1;
#X connect 13 0 10 0;
#X connect 15 0 17 0;
#X connect 16 0 15 0;
#X connect 17 0 27 0;
#X connect 17 1 18 1;
#X connect 19 0 16 0;
#X connect 19 1 30 0;
#X connect 19 2 11 0;
#X connect 20 0 18 0;
#X connect 21 0 29 0;
#X connect 22 0 26 0;
#X connect 23 0 9 1;
#X connect 25 0 22 0;
#X connect 27 0 20 0;
#X connect 29 0 16 0;
#X connect 29 1 20 1;
#X connect 32 0 12 0;
#X restore 43 147 pd calculate velocity;
#X text 134 87 calculate the salience of a sequence. Outputs are (allnotes
\, only syncopations \, only reinforcements);
#X obj 43 167 table velocity 16;
#X obj 651 300 tabread riddm;
#X obj 651 321 sel 1;
#X obj 737 294 tabread velocity;
#X obj 651 277 t f f;
#X obj 722 347 f;
#X text 85 86 <-------;
#X text 57 20 input an onset sequence;
#X obj 763 569 outlet;
#X obj 529 169 f;
#X obj 605 117 r fundamentals;
#X obj 605 142 unpack;
#X obj 570 170 f;
#X obj 529 135 sel 0 1;
#X obj 738 496 f;
#X obj 722 370 t b f;
#X obj 860 382 r tempo;
#X obj 860 404 * 4;
#X msg 860 426 60000 \$1;
#X obj 860 449 /;
#X obj 894 449 r bass-duration;
#X obj 894 473 t b f;
#X obj 880 498 * 1;
#X obj 734 40 r current_step;
#X obj 651 254 mod 16;
#X obj 572 219 r bass-octave;
#X obj 572 281 * 12;
#X obj 572 304 + 36;
#X obj 809 394 int;
#X obj 763 522 makenote 127 300;
#X obj 737 315 * 127;
#X obj 529 113 >= 16;
#X obj 773 422 mod 2;
#X obj 734 62 t f f f;
#X obj 773 444 * 12;
#X obj 758 466 + 0;
#X obj 531 337 + 24;
#X obj 166 124 r bass-velocity;
#X obj 95 37 zexy/tabset riddm;
#X obj 763 548 pack f f;
#X obj 572 239 - 2;
#X obj 572 259 abs;
#X connect 0 0 2 0;
#X connect 0 0 43 0;
#X connect 2 1 3 0;
#X connect 6 0 7 0;
#X connect 7 0 10 0;
#X connect 8 0 35 0;
#X connect 9 0 6 0;
#X connect 9 1 8 0;
#X connect 10 0 20 0;
#X connect 14 0 41 0;
#X connect 15 0 16 0;
#X connect 16 0 14 1;
#X connect 16 1 17 1;
#X connect 17 0 41 0;
#X connect 18 0 14 0;
#X connect 18 1 17 0;
#X connect 19 0 34 0;
#X connect 20 0 19 0;
#X connect 20 1 33 0;
#X connect 21 0 22 0;
#X connect 22 0 23 0;
#X connect 23 0 24 0;
#X connect 24 0 27 0;
#X connect 25 0 26 0;
#X connect 26 0 27 0;
#X connect 26 1 27 1;
#X connect 27 0 34 2;
#X connect 28 0 38 0;
#X connect 29 0 9 0;
#X connect 30 0 45 0;
#X connect 31 0 32 0;
#X connect 32 0 41 1;
#X connect 33 0 34 1;
#X connect 34 0 44 0;
#X connect 34 1 44 1;
#X connect 35 0 10 1;
#X connect 36 0 18 0;
#X connect 37 0 39 0;
#X connect 38 0 29 0;
#X connect 38 1 36 0;
#X connect 38 2 37 0;
#X connect 39 0 40 1;
#X connect 40 0 19 1;
#X connect 41 0 40 0;
#X connect 42 0 3 1;
#X connect 44 0 13 0;
#X connect 45 0 46 0;
#X connect 46 0 31 0;
#X coords 0 615 1 614 240 17 0;
#X restore 13 181 pd onset2note;
#X text 99 181 <- look inside to adjust the note sequence;
#X msg 22 130 1 0 0 0 0 0 0 0 0 0 0 0 0 0 0 0 1 0 0 0 0 0 0 0 0 0 0
0 0 1 0 0 1 0 0 0 0 0 0 0 0 0 0 0 0 0 0 0 1 0 0 0 0 0 0 0 0 0 0 0 0
1 0 0 0;
#X obj 100 59 r onsets-bass;
#X obj 13 9 r bass-density;
#X obj 13 83 pdmus/populate-rhythm;
#X obj 22 108 cyclone/prepend set;
#X text 106 233 bass is on midi channel 1;
#X obj 13 32 int;
#X floatatom 26 59 5 0 0 0 - - -, f 5;
#X obj 13 206 poly 1 1;
#X obj 35 234 noteout 100;
#X connect 2 0 12 0;
#X connect 5 0 7 1;
#X connect 6 0 10 0;
#X connect 7 0 2 0;
#X connect 7 0 8 0;
#X connect 8 0 4 0;
#X connect 10 0 7 0;
#X connect 10 0 11 0;
#X connect 12 1 13 0;
#X connect 12 2 13 1;
#X restore 218 253 pd BASS;
#N canvas 351 127 325 477 legato-visualization 0;
#X obj 96 344 f 0;
#X obj 126 344 + 1;
#X obj 81 390 s;
#X obj 111 272 r density;
#X msg 111 319 0;
#X obj 69 209 tabread new-onsets;
#X obj 140 319 s reset-slaves;
#X obj 69 229 pack;
#X obj 69 250 route 1;
#X obj 111 295 t b b;
#X obj 50 77 until;
#X obj 79 166 + 1;
#X obj 50 165 f 0;
#X obj 65 98 r reset-slaves;
#X msg 65 143 0;
#X obj 75 119 r reset-analysis;
#X obj 69 272 t f b;
#X obj 50 10 r density;
#X obj 96 366 makefilename slave-chord-pos-%d;
#X obj 50 188 t f f f;
#X obj 50 33 delay 1;
#X obj 24 420 s update-legato;
#X msg 50 55 64;
#X obj 24 251 sel 63;
#X connect 0 0 1 0;
#X connect 0 0 18 0;
#X connect 1 0 0 1;
#X connect 3 0 9 0;
#X connect 4 0 0 1;
#X connect 5 0 7 0;
#X connect 7 0 8 0;
#X connect 8 0 16 0;
#X connect 9 0 4 0;
#X connect 9 1 6 0;
#X connect 10 0 12 0;
#X connect 11 0 12 1;
#X connect 12 0 11 0;
#X connect 12 0 19 0;
#X connect 13 0 14 0;
#X connect 14 0 12 1;
#X connect 15 0 14 0;
#X connect 16 0 2 0;
#X connect 16 1 0 0;
#X connect 17 0 20 0;
#X connect 18 0 2 1;
#X connect 19 0 23 0;
#X connect 19 1 5 0;
#X connect 19 2 7 1;
#X connect 20 0 22 0;
#X connect 22 0 10 0;
#X connect 23 0 21 0;
#X restore 217 83 pd legato-visualization;
#N canvas 12 23 603 751 event-visualization 0;
#X obj 302 716 s;
#X obj 20 131 until;
#X obj 49 155 + 1;
#X obj 20 154 f 0;
#X obj 301 45 t b b;
#X obj 317 694 makefilename slave-chord-dur-%d;
#X obj 194 191 tabread slave-pattern;
#X msg 65 131 0;
#X obj 400 469 + 1;
#X obj 371 469 f 1;
#X msg 382 442 1;
#X obj 336 491 f;
#X obj 232 290 -;
#X obj 194 254 t f f f f;
#X msg 194 212 2 \$1;
#X obj 194 234 pow;
#X msg 328 191 10;
#X obj 331 291 sel 0.5;
#X obj 289 410 t b b;
#X obj 211 313 pack;
#X obj 382 370 sel -8;
#X obj 131 296 moses 0;
#X obj 47 348 spigot;
#X obj 247 526 list;
#X obj 278 578 list length;
#X obj 307 624 + 1;
#X obj 278 623 f 0;
#X msg 364 576 0;
#X obj 247 549 t l l b;
#X obj 278 600 until;
#X obj 278 670 + 1;
#X obj 278 648 t b f f;
#X obj 215 647 list;
#X obj 301 23 r update-legato;
#X obj 20 89 del 10;
#X obj 289 341 pdmus/select-both 2 0;
#X obj 200 370 pdmus/select-both 1 0.5;
#X obj 116 410 pdmus/select-both 1 -1;
#X obj 47 370 pdmus/select-both 2 1.5;
#X obj 215 691 zexy/packel;
#X obj 338 516 pdmus/add2list prepend;
#X obj 20 110 f 65;
#X obj 0 370 sel 64;
#X connect 1 0 3 0;
#X connect 2 0 3 1;
#X connect 3 0 2 0;
#X connect 3 0 6 0;
#X connect 3 0 42 0;
#X connect 4 0 34 0;
#X connect 4 1 7 0;
#X connect 4 1 16 0;
#X connect 4 1 40 1;
#X connect 5 0 0 1;
#X connect 6 0 14 0;
#X connect 7 0 3 1;
#X connect 8 0 9 1;
#X connect 9 0 8 0;
#X connect 9 0 11 1;
#X connect 10 0 9 0;
#X connect 11 0 40 0;
#X connect 12 0 19 1;
#X connect 12 0 20 0;
#X connect 13 0 21 0;
#X connect 13 1 19 0;
#X connect 13 1 17 0;
#X connect 13 2 12 1;
#X connect 13 3 12 0;
#X connect 14 0 15 0;
#X connect 15 0 13 0;
#X connect 16 0 12 1;
#X connect 17 0 9 0;
#X connect 18 0 10 0;
#X connect 18 1 11 0;
#X connect 19 0 22 0;
#X connect 19 0 35 0;
#X connect 19 0 36 0;
#X connect 19 0 37 0;
#X connect 20 0 10 0;
#X connect 21 1 22 1;
#X connect 22 0 38 0;
#X connect 23 0 28 0;
#X connect 24 0 29 0;
#X connect 25 0 26 1;
#X connect 26 0 25 0;
#X connect 26 0 31 0;
#X connect 27 0 26 1;
#X connect 28 0 24 0;
#X connect 28 1 32 1;
#X connect 28 2 27 0;
#X connect 29 0 26 0;
#X connect 30 0 39 1;
#X connect 31 0 32 0;
#X connect 31 1 30 0;
#X connect 31 2 5 0;
#X connect 32 0 39 0;
#X connect 33 0 4 0;
#X connect 34 0 41 0;
#X connect 35 0 18 0;
#X connect 36 0 18 0;
#X connect 37 0 18 0;
#X connect 38 0 18 0;
#X connect 39 0 0 0;
#X connect 40 0 23 1;
#X connect 41 0 1 0;
#X connect 42 0 23 0;
#X restore 217 62 pd event-visualization;
#X text 8 392 bass duration;
#N canvas 0 50 851 600 data-visualisation 0;
#N canvas 789 423 334 157 line 0;
#X obj 32 11 struct line float pos float color;
#X obj 35 43 drawpolygon color 1 pos 20 pos 100;
#X restore 124 35 pd line;
#X obj 248 200 set beat x;
#X obj 248 21 r current_step;
#X obj 248 43 div 4;
#X obj 248 64 change;
#X obj 248 109 + 25;
#X obj 248 87 * 100;
#N canvas 462 50 424 631 grid-generator 0;
#X obj 165 116 pointer;
#X obj 131 22 bng 15 250 50 0 empty empty empty 17 7 0 10 -262144 -1
-1;
#X obj 165 234 * 25;
#X msg 182 82 \; pd-data clear;
#X msg 165 60 traverse pd-data \, bang;
#X obj 148 183 pdmus/forloop 0;
#X obj 165 256 + 25;
#X obj 241 227 mod 4;
#X obj 185 320 append line pos color;
#X obj 241 249 sel 0;
#X obj 269 272 t b;
#X obj 197 256 sel 0;
#X msg 197 277 900;
#X obj 197 234 mod 16;
#X msg 121 339 25;
#X obj 131 39 t b b b b;
#X obj 121 361 append beat x;
#X msg 269 293 333;
#X msg 241 272 666;
#X obj 131 2 loadbang;
#X obj 148 206 t f f f f;
#X obj 165 137 s loadpointer;
#X obj 308 298 r loadpointer;
#X obj 160 429 r loadpointer;
#X obj 196 341 r loadpointer;
#X obj 56 161 s pointerready;
#X obj 56 140 delay 10;
#X obj 67 449 append mchord0 x;
#X obj 67 382 pdmus/forloop;
#X msg 67 361 8;
#X msg 67 406 set mchord\$1 x \, 500;
#X obj 110 526 r loadpointer;
#X obj 17 479 pdmus/forloop;
#X msg 17 503 set schord\$1 x \, 500;
#X msg 17 458 32;
#X obj 48 312 t b b b;
#X obj 17 547 append schord0 x;
#X obj 121 257 sel 64;
#X msg 148 160 65;
#X connect 0 0 21 0;
#X connect 1 0 15 0;
#X connect 2 0 6 0;
#X connect 3 0 0 0;
#X connect 4 0 0 0;
#X connect 5 0 20 0;
#X connect 6 0 8 0;
#X connect 7 0 9 0;
#X connect 9 0 18 0;
#X connect 9 1 10 0;
#X connect 10 0 17 0;
#X connect 11 0 12 0;
#X connect 12 0 8 1;
#X connect 13 0 11 0;
#X connect 14 0 16 0;
#X connect 15 0 26 0;
#X connect 15 1 38 0;
#X connect 15 2 4 0;
#X connect 15 3 3 0;
#X connect 17 0 8 1;
#X connect 18 0 8 1;
#X connect 19 0 1 0;
#X connect 20 0 37 0;
#X connect 20 1 2 0;
#X connect 20 2 13 0;
#X connect 20 3 7 0;
#X connect 22 0 8 2;
#X connect 23 0 27 1;
#X connect 24 0 16 1;
#X connect 26 0 25 0;
#X connect 28 0 30 0;
#X connect 29 0 28 0;
#X connect 30 0 27 0;
#X connect 31 0 36 1;
#X connect 32 0 33 0;
#X connect 33 0 36 0;
#X connect 34 0 32 0;
#X connect 35 0 34 0;
#X connect 35 1 29 0;
#X connect 35 2 14 0;
#X connect 37 0 35 0;
#X connect 38 0 5 0;
#X restore 14 35 pd grid-generator;
#X obj 289 109 until;
#X msg 330 135 traverse pd-data;
#X obj 303 85 t b b;
#X msg 289 132 next;
#X obj 303 66 bng 15 250 50 0 empty empty empty 17 7 0 10 -262144 -1
-1;
#X obj 303 45 r pointerready;
#N canvas 831 269 334 157 beat 0;
#X obj 6 11 struct beat float x;
#X obj 7 35 drawpolygon 222 2 0 20 100 20;
#X obj 7 55 drawpolygon 222 2 0 100 100 100;
#X restore 174 35 pd beat;
#N canvas 0 50 373 97 mchord1 0;
#X obj 5 28 filledpolygon 555 666 1 0 30 dur 30 dur 90 0 90;
#X obj 5 48 drawsymbol chordname 5 35 999;
#X obj 5 8 struct mchord1 float x float dur symbol chordname;
#X restore 8 84 pd mchord1;
#N canvas 0 50 373 97 mchord2 0;
#X obj 5 28 filledpolygon 555 666 1 0 30 dur 30 dur 90 0 90;
#X obj 5 48 drawsymbol chordname 5 35 999;
#X obj 5 8 struct mchord2 float x float dur symbol chordname;
#X restore 8 104 pd mchord2;
#N canvas 0 50 373 97 mchord3 0;
#X obj 5 28 filledpolygon 555 666 1 0 30 dur 30 dur 90 0 90;
#X obj 5 48 drawsymbol chordname 5 35 999;
#X obj 5 8 struct mchord3 float x float dur symbol chordname;
#X restore 8 124 pd mchord3;
#N canvas 0 50 373 97 mchord4 0;
#X obj 5 28 filledpolygon 555 666 1 0 30 dur 30 dur 90 0 90;
#X obj 5 48 drawsymbol chordname 5 35 999;
#X obj 5 8 struct mchord4 float x float dur symbol chordname;
#X restore 8 144 pd mchord4;
#N canvas 0 50 373 97 mchord5 0;
#X obj 5 28 filledpolygon 555 666 1 0 30 dur 30 dur 90 0 90;
#X obj 5 48 drawsymbol chordname 5 35 999;
#X obj 5 8 struct mchord5 float x float dur symbol chordname;
#X restore 8 164 pd mchord5;
#N canvas 0 50 373 97 mchord6 0;
#X obj 5 28 filledpolygon 555 666 1 0 30 dur 30 dur 90 0 90;
#X obj 5 48 drawsymbol chordname 5 35 999;
#X obj 5 8 struct mchord6 float x float dur symbol chordname;
#X restore 8 184 pd mchord6;
#N canvas 0 50 373 97 mchord7 0;
#X obj 5 28 filledpolygon 555 666 1 0 30 dur 30 dur 90 0 90;
#X obj 5 48 drawsymbol chordname 5 35 999;
#X obj 5 8 struct mchord7 float x float dur symbol chordname;
#X restore 8 204 pd mchord7;
#N canvas 0 50 373 97 mchord0 0;
#X obj 5 28 filledpolygon 555 666 1 0 30 dur 30 dur 90 0 90;
#X obj 5 48 drawsymbol chordname 5 35 999;
#X obj 5 8 struct mchord0 float x float dur symbol chordname;
#X restore 8 64 pd mchord0;
#X obj 289 157 pointer beat;
#X obj 289 179 t b p;
#X obj 649 19 r reset-analysis;
#X obj 483 21 r reset-slaves;
#X msg 649 44 \; master-chord-fill-0 C 100 1 \; master-chord-fill-1
C 100 1 \; master-chord-fill-2 C 100 1 \; master-chord-fill-3 C 100
1 \; master-chord-fill-4 C 100 1 \; master-chord-fill-5 C 100 1 \;
master-chord-fill-6 C 100 1 \; master-chord-fill-7 C 100 1 \; slave-chord-pos-0
100 \; slave-chord-pos-1 100 \; slave-chord-pos-2 100 \; slave-chord-pos-3
100 \; slave-chord-pos-4 100 \; slave-chord-pos-5 100 \; slave-chord-pos-6
100 \; slave-chord-pos-7 100 \; slave-chord-pos-8 100 \; slave-chord-pos-9
100 \; slave-chord-pos-10 100 \; slave-chord-pos-11 100 \; slave-chord-pos-12
100 \; slave-chord-pos-13 100 \; slave-chord-pos-14 100 \; slave-chord-pos-15
100 \; slave-chord-pos-16 100 \; slave-chord-pos-17 100 \; slave-chord-pos-18
100 \; slave-chord-pos-19 100 \; slave-chord-pos-20 100 \; slave-chord-pos-21
100 \; slave-chord-pos-22 100 \; slave-chord-pos-23 100 \; slave-chord-pos-24
100 \; slave-chord-pos-25 100 \; slave-chord-pos-26 100 \; slave-chord-pos-27
100 \; slave-chord-pos-28 100 \; slave-chord-pos-29 100 \; slave-chord-pos-30
100 \; slave-chord-pos-31 100 \;;
#X msg 483 46 \; slave-chord-pos-0 100 \; slave-chord-pos-1 100 \;
slave-chord-pos-2 100 \; slave-chord-pos-3 100 \; slave-chord-pos-4
100 \; slave-chord-pos-5 100 \; slave-chord-pos-6 100 \; slave-chord-pos-7
100 \; slave-chord-pos-8 100 \; slave-chord-pos-9 100 \; slave-chord-pos-10
100 \; slave-chord-pos-11 100 \; slave-chord-pos-12 100 \; slave-chord-pos-13
100 \; slave-chord-pos-14 100 \; slave-chord-pos-15 100 \; slave-chord-pos-16
100 \; slave-chord-pos-17 100 \; slave-chord-pos-18 100 \; slave-chord-pos-19
100 \; slave-chord-pos-20 100 \; slave-chord-pos-21 100 \; slave-chord-pos-22
100 \; slave-chord-pos-23 100 \; slave-chord-pos-24 100 \; slave-chord-pos-25
100 \; slave-chord-pos-26 100 \; slave-chord-pos-27 100 \; slave-chord-pos-28
100 \; slave-chord-pos-29 100 \; slave-chord-pos-30 100 \; slave-chord-pos-31
100 \;;
#X obj 76 184 master-chord-structure 6;
#X obj 76 64 master-chord-structure 0;
#X obj 76 104 master-chord-structure 2;
#X obj 76 84 master-chord-structure 1;
#X obj 76 124 master-chord-structure 3;
#X obj 76 144 master-chord-structure 4;
#X obj 76 164 master-chord-structure 5;
#X obj 76 204 master-chord-structure 7;
#N canvas 402 50 401 161 schord0 0;
#X obj 7 36 filledpolygon 222 666 1 0 60 dur 60 dur 90 0 90;
#X obj 7 62 drawsymbol chordname 5 65 999;
#X obj 5 8 struct schord0 float x float dur symbol chordname;
#X restore 8 224 pd schord0;
#N canvas 402 50 401 161 schord1 0;
#X obj 7 36 filledpolygon 222 666 1 0 60 dur 60 dur 90 0 90;
#X obj 5 8 struct schord1 float x float dur symbol chordname;
#X obj 7 62 drawsymbol chordname 5 65 999;
#X restore 8 244 pd schord1;
#N canvas 402 50 401 161 schord2 0;
#X obj 7 36 filledpolygon 222 666 1 0 60 dur 60 dur 90 0 90;
#X obj 7 62 drawsymbol chordname 5 65 999;
#X obj 5 8 struct schord2 float x float dur symbol chordname;
#X restore 8 264 pd schord2;
#N canvas 402 50 401 161 schord3 0;
#X obj 7 36 filledpolygon 222 666 1 0 60 dur 60 dur 90 0 90;
#X obj 7 62 drawsymbol chordname 5 65 999;
#X obj 5 8 struct schord3 float x float dur symbol chordname;
#X restore 8 284 pd schord3;
#N canvas 402 50 401 161 schord4 0;
#X obj 7 36 filledpolygon 222 666 1 0 60 dur 60 dur 90 0 90;
#X obj 7 62 drawsymbol chordname 5 65 999;
#X obj 5 8 struct schord4 float x float dur symbol chordname;
#X restore 8 304 pd schord4;
#N canvas 402 50 401 161 schord5 0;
#X obj 7 36 filledpolygon 222 666 1 0 60 dur 60 dur 90 0 90;
#X obj 7 62 drawsymbol chordname 5 65 999;
#X obj 5 8 struct schord5 float x float dur symbol chordname;
#X restore 8 324 pd schord5;
#N canvas 402 50 401 161 schord6 0;
#X obj 7 36 filledpolygon 222 666 1 0 60 dur 60 dur 90 0 90;
#X obj 7 62 drawsymbol chordname 5 65 999;
#X obj 5 8 struct schord6 float x float dur symbol chordname;
#X restore 8 344 pd schord6;
#N canvas 402 50 401 161 schord7 0;
#X obj 7 36 filledpolygon 222 666 1 0 60 dur 60 dur 90 0 90;
#X obj 7 62 drawsymbol chordname 5 65 999;
#X obj 5 8 struct schord7 float x float dur symbol chordname;
#X restore 8 364 pd schord7;
#N canvas 402 50 401 161 schord8 0;
#X obj 7 36 filledpolygon 222 666 1 0 60 dur 60 dur 90 0 90;
#X obj 7 62 drawsymbol chordname 5 65 999;
#X obj 5 8 struct schord8 float x float dur symbol chordname;
#X restore 8 384 pd schord8;
#N canvas 402 50 401 161 schord9 0;
#X obj 7 36 filledpolygon 222 666 1 0 60 dur 60 dur 90 0 90;
#X obj 7 62 drawsymbol chordname 5 65 999;
#X obj 5 8 struct schord9 float x float dur symbol chordname;
#X restore 8 404 pd schord9;
#N canvas 402 50 401 161 schord10 0;
#X obj 7 36 filledpolygon 222 666 1 0 60 dur 60 dur 90 0 90;
#X obj 7 62 drawsymbol chordname 5 65 999;
#X obj 5 8 struct schord10 float x float dur symbol chordname;
#X restore 8 424 pd schord10;
#N canvas 402 50 401 161 schord11 0;
#X obj 7 36 filledpolygon 222 666 1 0 60 dur 60 dur 90 0 90;
#X obj 7 62 drawsymbol chordname 5 65 999;
#X obj 5 8 struct schord11 float x float dur symbol chordname;
#X restore 8 444 pd schord11;
#N canvas 402 50 401 161 schord12 0;
#X obj 7 36 filledpolygon 222 666 1 0 60 dur 60 dur 90 0 90;
#X obj 7 62 drawsymbol chordname 5 65 999;
#X obj 5 8 struct schord12 float x float dur symbol chordname;
#X restore 8 464 pd schord12;
#N canvas 402 50 401 161 schord13 0;
#X obj 7 36 filledpolygon 222 666 1 0 60 dur 60 dur 90 0 90;
#X obj 7 62 drawsymbol chordname 5 65 999;
#X obj 5 8 struct schord13 float x float dur symbol chordname;
#X restore 8 484 pd schord13;
#N canvas 402 50 401 161 schord14 0;
#X obj 7 36 filledpolygon 222 666 1 0 60 dur 60 dur 90 0 90;
#X obj 7 62 drawsymbol chordname 5 65 999;
#X obj 5 8 struct schord14 float x float dur symbol chordname;
#X restore 8 504 pd schord14;
#N canvas 402 50 401 161 schord15 0;
#X obj 7 36 filledpolygon 222 666 1 0 60 dur 60 dur 90 0 90;
#X obj 7 62 drawsymbol chordname 5 65 999;
#X obj 5 8 struct schord15 float x float dur symbol chordname;
#X restore 8 524 pd schord15;
#N canvas 402 50 401 161 schord16 0;
#X obj 7 36 filledpolygon 222 666 1 0 60 dur 60 dur 90 0 90;
#X obj 7 62 drawsymbol chordname 5 65 999;
#X obj 5 8 struct schord16 float x float dur symbol chordname;
#X restore 248 224 pd schord16;
#N canvas 402 50 401 161 schord17 0;
#X obj 7 36 filledpolygon 222 666 1 0 60 dur 60 dur 90 0 90;
#X obj 7 62 drawsymbol chordname 5 65 999;
#X obj 5 8 struct schord17 float x float dur symbol chordname;
#X restore 248 244 pd schord17;
#N canvas 402 50 401 161 schord18 0;
#X obj 7 36 filledpolygon 222 666 1 0 60 dur 60 dur 90 0 90;
#X obj 7 62 drawsymbol chordname 5 65 999;
#X obj 5 8 struct schord18 float x float dur symbol chordname;
#X restore 248 264 pd schord18;
#N canvas 402 50 401 161 schord19 0;
#X obj 7 36 filledpolygon 222 666 1 0 60 dur 60 dur 90 0 90;
#X obj 7 62 drawsymbol chordname 5 65 999;
#X obj 5 8 struct schord19 float x float dur symbol chordname;
#X restore 248 284 pd schord19;
#N canvas 402 50 401 161 schord20 0;
#X obj 7 36 filledpolygon 222 666 1 0 60 dur 60 dur 90 0 90;
#X obj 7 62 drawsymbol chordname 5 65 999;
#X obj 5 8 struct schord20 float x float dur symbol chordname;
#X restore 248 304 pd schord20;
#N canvas 402 50 401 161 schord21 0;
#X obj 7 36 filledpolygon 222 666 1 0 60 dur 60 dur 90 0 90;
#X obj 7 62 drawsymbol chordname 5 65 999;
#X obj 5 8 struct schord21 float x float dur symbol chordname;
#X restore 248 324 pd schord21;
#N canvas 402 50 401 161 schord22 0;
#X obj 7 36 filledpolygon 222 666 1 0 60 dur 60 dur 90 0 90;
#X obj 7 62 drawsymbol chordname 5 65 999;
#X obj 5 8 struct schord22 float x float dur symbol chordname;
#X restore 248 344 pd schord22;
#N canvas 402 50 401 161 schord23 0;
#X obj 7 36 filledpolygon 222 666 1 0 60 dur 60 dur 90 0 90;
#X obj 7 62 drawsymbol chordname 5 65 999;
#X obj 5 8 struct schord23 float x float dur symbol chordname;
#X restore 248 364 pd schord23;
#N canvas 402 50 401 161 schord24 0;
#X obj 7 36 filledpolygon 222 666 1 0 60 dur 60 dur 90 0 90;
#X obj 7 62 drawsymbol chordname 5 65 999;
#X obj 5 8 struct schord24 float x float dur symbol chordname;
#X restore 248 384 pd schord24;
#N canvas 402 50 401 161 schord25 0;
#X obj 7 36 filledpolygon 222 666 1 0 60 dur 60 dur 90 0 90;
#X obj 7 62 drawsymbol chordname 5 65 999;
#X obj 5 8 struct schord25 float x float dur symbol chordname;
#X restore 248 404 pd schord25;
#N canvas 402 50 401 161 schord26 0;
#X obj 7 36 filledpolygon 222 666 1 0 60 dur 60 dur 90 0 90;
#X obj 7 62 drawsymbol chordname 5 65 999;
#X obj 5 8 struct schord26 float x float dur symbol chordname;
#X restore 248 424 pd schord26;
#N canvas 402 50 401 161 schord27 0;
#X obj 7 36 filledpolygon 222 666 1 0 60 dur 60 dur 90 0 90;
#X obj 7 62 drawsymbol chordname 5 65 999;
#X obj 5 8 struct schord27 float x float dur symbol chordname;
#X restore 248 444 pd schord27;
#N canvas 402 50 401 161 schord28 0;
#X obj 7 36 filledpolygon 222 666 1 0 60 dur 60 dur 90 0 90;
#X obj 7 62 drawsymbol chordname 5 65 999;
#X obj 5 8 struct schord28 float x float dur symbol chordname;
#X restore 248 464 pd schord28;
#N canvas 402 50 401 161 schord29 0;
#X obj 7 36 filledpolygon 222 666 1 0 60 dur 60 dur 90 0 90;
#X obj 7 62 drawsymbol chordname 5 65 999;
#X obj 5 8 struct schord29 float x float dur symbol chordname;
#X restore 248 484 pd schord29;
#N canvas 402 50 401 161 schord30 0;
#X obj 7 36 filledpolygon 222 666 1 0 60 dur 60 dur 90 0 90;
#X obj 7 62 drawsymbol chordname 5 65 999;
#X obj 4 7 struct schord30 float x float dur symbol chordname;
#X restore 248 504 pd schord30;
#N canvas 402 50 401 161 schord31 0;
#X obj 7 36 filledpolygon 222 666 1 0 60 dur 60 dur 90 0 90;
#X obj 7 62 drawsymbol chordname 5 65 999;
#X obj 5 8 struct schord31 float x float dur symbol chordname;
#X restore 248 524 pd schord31;
#X obj 82 244 slave-chord-structure 1;
#X obj 322 224 slave-chord-structure 16;
#X obj 322 524 slave-chord-structure 31;
#X obj 82 224 slave-chord-structure 0;
#X obj 82 264 slave-chord-structure 2;
#X obj 82 284 slave-chord-structure 3;
#X obj 82 304 slave-chord-structure 4;
#X obj 82 324 slave-chord-structure 5;
#X obj 82 344 slave-chord-structure 6;
#X obj 82 364 slave-chord-structure 7;
#X obj 82 384 slave-chord-structure 8;
#X obj 82 404 slave-chord-structure 9;
#X obj 82 424 slave-chord-structure 10;
#X obj 82 444 slave-chord-structure 11;
#X obj 82 464 slave-chord-structure 12;
#X obj 82 484 slave-chord-structure 13;
#X obj 82 504 slave-chord-structure 14;
#X obj 82 524 slave-chord-structure 15;
#X obj 322 504 slave-chord-structure 30;
#X obj 322 484 slave-chord-structure 29;
#X obj 322 464 slave-chord-structure 28;
#X obj 322 444 slave-chord-structure 27;
#X obj 322 424 slave-chord-structure 26;
#X obj 322 404 slave-chord-structure 25;
#X obj 322 384 slave-chord-structure 24;
#X obj 322 364 slave-chord-structure 23;
#X obj 322 344 slave-chord-structure 22;
#X obj 322 324 slave-chord-structure 21;
#X obj 322 304 slave-chord-structure 20;
#X obj 322 284 slave-chord-structure 19;
#X obj 322 264 slave-chord-structure 18;
#X obj 322 244 slave-chord-structure 17;
#X connect 2 0 3 0;
#X connect 3 0 4 0;
#X connect 4 0 6 0;
#X connect 5 0 1 0;
#X connect 6 0 5 0;
#X connect 8 0 11 0;
#X connect 9 0 23 0;
#X connect 10 0 8 0;
#X connect 10 1 9 0;
#X connect 11 0 23 0;
#X connect 12 0 10 0;
#X connect 13 0 12 0;
#X connect 23 0 24 0;
#X connect 24 0 8 1;
#X connect 24 1 1 1;
#X connect 25 0 27 0;
#X connect 26 0 28 0;
#X restore 217 103 pd data-visualisation;
#X obj 216 20 declare -stdpath unauthorized -path abs -stdpath pd-symbolic
;
#N canvas 324 202 312 534 loadbangs 0;
#X obj 19 11 loadbang;
#X obj 19 98 f \$0;
#X obj 35 122 list;
#X obj 19 74 t b a;
#X obj 19 55 zexy/list2symbol;
#X obj 35 307 s playlist;
#X msg 35 285 location ./midi-chord-loops \, graphics 0;
#X msg 19 33 HOUSE HARMONIC FILLER;
#X msg 35 143 bang \; \$1-title label \$2 \; \$1-title label_pos 20
18 \; \$1-title label_font 3 20 \; \$1-title vis_size 800 425 \; \$1-title
color 11 13 \; set-tempo 125 \; set-bass-duration 1 \; set-bass-octave
1 \; set-clock-mode 1 \;;
#X connect 0 0 7 0;
#X connect 1 0 2 0;
#X connect 2 0 8 0;
#X connect 3 0 1 0;
#X connect 3 1 2 1;
#X connect 4 0 3 0;
#X connect 6 0 5 0;
#X connect 7 0 4 0;
#X connect 8 0 6 0;
#X restore 357 62 pd loadbangs;
#N canvas 0 22 1280 699 get-chord-progression 0;
#X obj 20 14 inlet;
#X obj 737 153 unpack 0 0 0 0;
#X obj 737 197 /;
#X obj 752 175 r ticks/4;
#X obj 791 198 != 0;
#X obj 737 218 * 4;
#X obj 746 308 route;
#X obj 746 284 t l f;
#X obj 737 240 pack;
#X obj 20 35 t l l, f 120;
#X obj 472 384 pdmus/add2list prepend;
#X msg 737 352 \$2 \$1;
#X obj 737 418 pdmus/add2list prepend;
#X obj 1021 362 r reset-analysis;
#X obj 442 581 list;
#X obj 752 574 list;
#X obj 737 373 route 1 0;
#X obj 883 418 pdmus/add2list prepend;
#X obj 833 574 list;
#X obj 802 667 -;
#X obj 802 643 swap;
#X obj 752 616 t f f;
#X obj 442 809 pack s f f, f 26;
#X obj 850 642 f 0;
#X obj 880 642 + 1;
#X obj 850 663 mod 8;
#X obj 823 620 t f b;
#X obj 835 802 s;
#X obj 850 684 makefilename master-chord-fill-%d;
#X text 867 801 chord \, onset \, duration.;
#X obj 20 616 outlet;
#X obj 665 453 outlet;
#X obj 592 610 r reset-analysis;
#X obj 442 626 t s s s;
#X obj 481 683 == 0;
#X obj 442 702 spigot;
#X obj 523 682 sel 1;
#X msg 523 705 symbol;
#X obj 746 331 tabwrite master-pattern;
#X obj 343 159 s fundamentals;
#X obj 343 114 change;
#X obj 354 75 r reset-analysis;
#X obj 343 137 pdmus/add2list prepend;
#X obj 20 56 pdmus/chord-make;
#X obj 47 97 pdmus/chord-estimate, f 27;
#X obj 481 657 list-abs/compare-any;
#X obj 737 261 pdmus/change-any;
#X obj 708 497 r end-analysis;
#X obj 442 601 zexy/drip 0;
#X obj 752 595 zexy/drip 0;
#X obj 833 595 zexy/drip 0;
#X obj 708 518 del 1;
#X obj 708 540 t b b b;
#X text 878 541 revisar la última parte para evitar los zexy/drip...
;
#X obj 100 272 list prepend;
#X obj 472 362 list2symbol, f 15;
#X obj 196 164 pdmus/uanz;
#X obj 169 143 t f f;
#X obj 169 207 -, f 5;
#X obj 169 228 mod 12;
#X obj 20 77 t l l;
#X obj 20 328 pdmus/chord-transpose, f 40;
#X obj 259 207 * -1;
#X obj 259 251 +, f 16;
#X obj 295 229 s reload;
#X text 567 453 onset position;
#X obj 295 185 r key;
#X text 739 520 change this behaviour! I hate having to use delays!
;
#X obj 559 321 loadbang;
#X msg 559 341 symbol;
#N canvas 390 556 416 248 pc2degrees 0;
#X obj 9 10 inlet;
#X obj 9 31 sel 0 1 2 3 4 5 6 7 8 9 10 11, f 64;
#X msg 9 64 I;
#X msg 40 64 bII;
#X msg 72 64 II;
#X msg 100 64 bIII;
#X msg 136 64 III;
#X msg 167 64 IV;
#X msg 231 64 V;
#X msg 263 64 bVI;
#X msg 294 64 VI;
#X msg 326 64 bVII;
#X msg 199 64 #IV;
#X obj 9 198 symbol;
#X obj 9 220 outlet;
#X connect 0 0 1 0;
#X connect 1 0 2 0;
#X connect 1 1 3 0;
#X connect 1 2 4 0;
#X connect 1 3 5 0;
#X connect 1 4 6 0;
#X connect 1 5 7 0;
#X connect 1 6 12 0;
#X connect 1 7 8 0;
#X connect 1 8 9 0;
#X connect 1 9 10 0;
#X connect 1 10 11 0;
#X connect 2 0 13 0;
#X connect 3 0 13 0;
#X connect 4 0 13 0;
#X connect 5 0 13 0;
#X connect 6 0 13 0;
#X connect 7 0 13 0;
#X connect 8 0 13 0;
#X connect 9 0 13 0;
#X connect 10 0 13 0;
#X connect 11 0 13 0;
#X connect 12 0 13 0;
#X connect 13 0 14 0;
#X restore 169 250 pd pc2degrees;
#X obj 196 186 t f f, f 11;
#X msg 592 632 symbol n;
#X obj 203 394 pdmus/chord-unique;
#X msg 320 404 0 12 24 36 48 60 72 84 96 108 120, f 17;
#X obj 203 439 zexy/listfind, f 20;
#X obj 925 91 hradio 15 1 0 11 empty empty empty 0 -8 0 10 -262144
-1 -1 4;
#X obj 935 114 * 12;
#X obj 320 384 loadbang;
#X obj 203 417 pdmus/list-dripv;
#X obj 203 460 route float;
#X floatatom 935 136 5 0 0 0 - - -, f 5;
#X obj 203 481 - 1;
#X obj 143 501 r octave;
#X obj 143 527 -, f 15;
#X obj 203 503 t b f;
#X obj 143 549 * 12;
#X obj 20 569 pdmus/chord-transpose;
#X obj 203 373 pdmus/uanz;
#X obj 260 352 r reset-analysis;
#X obj 28 593 pdmus/prnt;
#X obj 20 351 t l l, f 31;
#X text 21 649 move these calculations to the coll object int the next
window;
#X obj 925 206 s reload;
#X obj 925 181 t b f, f 10;
#X obj 982 206 s octave;
#X text 977 156 octave of the tonic!;
#X floatatom 941 159 5 0 0 0 - - -, f 5;
#X obj 295 208 t b f, f 10;
#X obj 912 25 r chords-octave;
#X text 910 51 I need to format this in range accordingly;
#X connect 0 0 9 0;
#X connect 1 0 2 0;
#X connect 1 2 4 0;
#X connect 2 0 5 0;
#X connect 3 0 2 1;
#X connect 4 0 8 1;
#X connect 5 0 8 0;
#X connect 6 0 38 0;
#X connect 7 0 6 0;
#X connect 7 1 6 1;
#X connect 7 1 38 1;
#X connect 8 0 46 0;
#X connect 9 0 43 0;
#X connect 9 1 1 0;
#X connect 10 0 14 1;
#X connect 11 0 16 0;
#X connect 12 0 15 1;
#X connect 13 0 12 1;
#X connect 13 0 17 1;
#X connect 13 0 10 1;
#X connect 14 0 48 0;
#X connect 15 0 49 0;
#X connect 16 0 12 0;
#X connect 16 0 31 0;
#X connect 16 1 17 0;
#X connect 17 0 18 1;
#X connect 18 0 50 0;
#X connect 19 0 22 2;
#X connect 20 0 19 0;
#X connect 20 1 19 1;
#X connect 21 0 22 1;
#X connect 21 1 20 0;
#X connect 22 0 27 0;
#X connect 23 0 24 0;
#X connect 23 0 25 0;
#X connect 24 0 23 1;
#X connect 25 0 28 0;
#X connect 26 0 20 1;
#X connect 26 1 23 0;
#X connect 28 0 27 1;
#X connect 32 0 72 0;
#X connect 33 0 35 0;
#X connect 33 1 45 1;
#X connect 33 2 45 0;
#X connect 34 0 35 1;
#X connect 35 0 22 0;
#X connect 36 0 37 0;
#X connect 37 0 22 0;
#X connect 40 0 42 0;
#X connect 41 0 42 1;
#X connect 41 0 56 1;
#X connect 42 0 39 0;
#X connect 43 0 60 0;
#X connect 44 1 54 0;
#X connect 44 3 40 0;
#X connect 44 3 57 0;
#X connect 45 0 34 0;
#X connect 45 0 36 0;
#X connect 46 0 7 0;
#X connect 46 0 11 0;
#X connect 47 0 51 0;
#X connect 48 0 33 0;
#X connect 49 0 21 0;
#X connect 50 0 26 0;
#X connect 51 0 52 0;
#X connect 52 0 14 0;
#X connect 52 1 15 0;
#X connect 52 2 18 0;
#X connect 54 0 55 0;
#X connect 55 0 10 0;
#X connect 56 0 71 0;
#X connect 57 0 58 0;
#X connect 57 1 56 0;
#X connect 58 0 59 0;
#X connect 59 0 70 0;
#X connect 60 0 61 0;
#X connect 60 1 44 0;
#X connect 61 0 91 0;
#X connect 62 0 63 0;
#X connect 63 0 61 1;
#X connect 66 0 98 0;
#X connect 68 0 69 0;
#X connect 69 0 55 1;
#X connect 70 0 54 1;
#X connect 71 0 58 1;
#X connect 71 1 62 0;
#X connect 72 0 45 1;
#X connect 73 0 79 0;
#X connect 74 0 75 1;
#X connect 75 0 80 0;
#X connect 76 0 77 0;
#X connect 76 0 94 0;
#X connect 77 0 81 0;
#X connect 78 0 74 0;
#X connect 79 0 75 0;
#X connect 80 0 82 0;
#X connect 82 0 85 0;
#X connect 83 0 84 0;
#X connect 84 0 86 0;
#X connect 85 0 84 0;
#X connect 85 1 84 1;
#X connect 86 0 87 1;
#X connect 87 0 30 0;
#X connect 87 0 90 0;
#X connect 88 0 73 0;
#X connect 89 0 88 1;
#X connect 91 0 87 0;
#X connect 91 1 88 0;
#X connect 94 0 93 0;
#X connect 94 1 95 0;
#X connect 98 0 64 0;
#X connect 98 1 63 1;
#X restore 218 203 pd get-chord-progression;
#N canvas 408 105 559 590 make-chord-variations 0;
#X msg 59 125 clear;
#X obj 41 10 inlet;
#X text 79 9 receives list from makechord;
#X obj 110 55 inlet;
#X obj 41 78 list prepend;
#X text 234 117 we need to make sure that al chords are ordered from
low to high..., f 35;
#X text 26 514 we can use the argumentation by Tagg to take the first
chord of the shuttle as "tonic." According to this... it should be
quite easy to obtain the tonic of the shuttle., f 59;
#X obj 59 102 r reset-analysis;
#X obj 113 125 r chord-variations;
#X text 152 54 receives onset position from route 1;
#X obj 20 375 list;
#X obj 140 182 t f f, f 6;
#N canvas 109 122 501 583 scales 0;
#X msg 131 175 0 60 65 69;
#X text 78 203 replacing a chord is as simple as rewriting a chord
on the same index!;
#X text 117 93 0 4 7;
#X text 117 113 0-1 4 7 (tercer grado);
#X text 116 66 substituciones!;
#X text 117 133 0 4 7+1 (sexto grado);
#X restore 310 364 pd scales;
#X obj 140 233 sel -1;
#X obj 190 353 * 80;
#X text 222 353 velocity;
#X obj 173 254 t b f f f;
#X obj 211 284 +;
#X obj 211 305 sel 2;
#X msg 321 424 0 60 64 67 71;
#X obj 311 453 s chord-variations;
#X msg 311 389 0 60 64 69 71;
#X text 252 265 -1 does nothing...;
#X text 258 283 0 silences what was sounding;
#X text 258 301 1 activates (and first mutes the previous chord);
#X obj 140 209 tabread slave-pattern;
#X obj 140 160 r current_step;
#X obj 197 421 list split 1;
#X obj 197 462 s bass;
#X obj 41 298 t l l;
#X obj 41 265 cyclone/coll one;
#C restore;
#X obj 20 397 pdmus/list-dripv;
#X obj 197 399 zexy/sort;
#X obj 20 456 noteout 2;
#X obj 211 326 pdmus/midi-panic-ch 2;
#X obj 20 434 pack 0 0 2, f 27;
#X text 127 79 listas con onset-step y notas del acorde;
#X floatatom 205 443 5 0 0 0 - - -, f 5;
#N canvas 0 89 450 300 former-filter-consecutive-identical-chords 0
;
#X obj 31 26 t l l l, f 23;
#X obj 31 103 spigot;
#X obj 64 82 == 0;
#X obj 64 61 list-abs/list-compare;
#X connect 0 0 1 0;
#X connect 0 1 3 1;
#X connect 0 2 3 0;
#X connect 2 0 1 1;
#X connect 3 0 2 0;
#X restore 49 33 pd former-filter-consecutive-identical-chords;
#X obj 315 150 chord-structure;
#X text 427 402 <-- This is where all the pitch variations happen!
, f 14;
#X connect 0 0 30 0;
#X connect 1 0 4 0;
#X connect 3 0 4 1;
#X connect 4 0 30 0;
#X connect 7 0 0 0;
#X connect 8 0 30 0;
#X connect 10 0 31 0;
#X connect 11 0 25 0;
#X connect 11 1 30 0;
#X connect 13 1 16 0;
#X connect 14 0 35 1;
#X connect 16 0 10 0;
#X connect 16 1 14 0;
#X connect 16 2 17 1;
#X connect 16 3 17 0;
#X connect 17 0 18 0;
#X connect 18 0 34 0;
#X connect 19 0 20 0;
#X connect 21 0 20 0;
#X connect 25 0 13 0;
#X connect 26 0 11 0;
#X connect 27 0 28 0;
#X connect 27 0 37 0;
#X connect 29 0 10 1;
#X connect 29 1 32 0;
#X connect 30 0 29 0;
#X connect 31 0 35 0;
#X connect 32 0 27 0;
#X connect 35 0 33 0;
#X restore 218 225 pd make-chord-variations;
#X text 287 316 make that reload only changes the initial chord progression
;
#X text 285 340 control the octave independently from chords as well...
;
#X text 273 253 Reload...;
#X connect 1 0 24 0;
#X connect 24 0 25 0;
#X connect 24 1 25 1;
#X restore 734 -1 pd patch;
#X obj -4 -1 cnv 15 800 425 empty \$0-title HOUSE HARMONIC FILLER 20
18 0 20 -128992 -258699 0;
#X obj 805 4 r playlist;
#X obj 805 281 s file-by-name;
#X obj 522 88 bng 24 250 50 0 load_midi_file set-load_midi_file load
1 -10 1 12 -66577 -258113 -228856;
#X obj 522 131 bng 24 250 50 0 reload set-reload reload -5 -9 1 12
-66577 -258113 -228856;
#X obj 548 147 bng 8 250 50 0 learn-reload --- empty 17 7 0 10 -262144
-1 -1;
#X obj 565 88 bng 24 250 50 0 scroll-up set-scroll-up up 5 -10 1 12
-66577 -258113 -228856;
#X obj 591 104 bng 8 250 50 0 learn-scrollup --- empty 17 7 0 10 -262144
-1 -1;
#X obj 565 131 bng 24 250 50 0 scroll-down set-scroll-down down -2
-10 1 12 -66577 -258113 -228856;
#X obj 591 147 bng 8 250 50 0 learn-scrolldown --- empty 17 7 0 10
-262144 -1 -1;
#X obj 7 32 cnv 15 250 5 empty empty HARMONY 5 12 0 20 -128992 -228856
0;
#X obj 15 89 vsl 24 180 1 32 0 1 raw-density set-density density -8
-12 1 12 -66577 -258113 -228856 2887 1;
#X obj 41 264 bng 8 250 50 0 learn-density --- empty 17 7 0 10 -262144
-1 -1;
#X obj 58 89 vsl 24 180 1 34 0 1 raw-legato set-legato legato -6 -12
1 12 -66577 -258113 -228856 17900 0;
#X obj 101 89 vsl 24 180 0 1 0 0 raw-activity set-activity activity
-8 -12 1 12 -66577 -258113 -228856 0 1;
#X obj 144 89 vsl 24 180 -6 6 0 0 raw-register set-register register
-9 -12 1 12 -66577 -258113 -228856 11700 1;
#X obj 187 89 vsl 24 180 0 3.9 0 0 raw-range set-range range -5 -12
1 12 -66577 -258113 -228856 0 1;
#X obj 84 264 bng 8 250 50 0 learn-legato --- empty 17 7 0 10 -262144
-1 -1;
#X obj 127 264 bng 8 250 50 0 learn-activity --- empty 17 7 0 10 -262144
-1 -1;
#X obj 213 264 bng 8 250 50 0 learn-range --- empty 17 7 0 10 -262144
-1 -1;
#X obj 170 264 bng 8 250 50 0 learn-register --- empty 17 7 0 10 -262144
-1 -1;
#X obj 298 32 cnv 15 100 20 empty empty BASS 5 12 0 20 -128992 -228856
0;
#X obj 312 89 vsl 24 180 0 32 0 0 bass-density set-bass-density density
-8 -12 1 12 -66577 -258113 -228856 3356 1;
#X obj 355 89 vsl 24 180 0.2 16 0 0 bass-duration set-bass-duration
length -5 -12 1 12 -66577 -258113 -228856 906 1;
#X obj 398 89 vsl 24 180 1 0.125 0 0 bass-velocity set-bass-velocity
accents -10 -12 1 12 -66577 -258113 -228856 0 1;
#X obj 441 200 vradio 24 1 0 3 bass-octave set-bass-octave octave -6
-12 1 12 -66577 -258113 -228856 1;
#X obj 338 264 bng 8 250 50 0 learn-bass-density --- empty 17 7 0 10
-262144 -1 -1;
#X obj 381 264 bng 8 250 50 0 learn-bass-duration --- empty 17 7 0
10 -262144 -1 -1;
#X obj 425 264 bng 8 250 50 0 learn-bass-accents --- empty 17 7 0 10
-262144 -1 -1;
#X obj 467 264 bng 8 250 50 0 learn-bass-octave --- empty 17 7 0 10
-262144 -1 -1;
#X obj 733 65 tgl 48 0 play set-play play 0 -10 1 12 -66577 -258699
-233017 0 1;
#X obj 611 88 tgl 24 0 clock-mode set-clock-mode ext-sync 0 -9 1 12
-66577 -258113 -228856 0 1;
#X obj 773 105 bng 8 250 50 0 learn-play --- empty 17 7 0 10 -262144
-1 -1;
#X obj 508 32 cnv 15 100 20 empty empty TRANSPORT 5 12 0 20 -128992
-228856 0;
#N canvas 0 50 959 334 data 0;
#X scalar schord0 2525 400  \;;
#X scalar schord1 2525 300  \;;
#X scalar schord2 2525 50  \;;
#X scalar schord3 2525 400  \;;
#X scalar schord4 2525 300  \;;
#X scalar schord5 2525 50  \;;
#X scalar schord6 2525 0  \;;
#X scalar schord7 2525 0  \;;
#X scalar schord8 2525 0  \;;
#X scalar schord9 2525 0  \;;
#X scalar schord10 2525 0  \;;
#X scalar schord11 2525 0  \;;
#X scalar schord12 2525 0  \;;
#X scalar schord13 2525 0  \;;
#X scalar schord14 2525 0  \;;
#X scalar schord15 2525 0  \;;
#X scalar schord16 2525 0  \;;
#X scalar schord17 2525 0  \;;
#X scalar schord18 2525 0  \;;
#X scalar schord19 2525 0  \;;
#X scalar schord20 2525 0  \;;
#X scalar schord21 2525 0  \;;
#X scalar schord22 2525 0  \;;
#X scalar schord23 2525 0  \;;
#X scalar schord24 2525 0  \;;
#X scalar schord25 2525 0  \;;
#X scalar schord26 2525 0  \;;
#X scalar schord27 2525 0  \;;
#X scalar schord28 2525 0  \;;
#X scalar schord29 2525 0  \;;
#X scalar schord30 2525 0  \;;
#X scalar schord31 2525 0  \;;
#X scalar mchord0 1225 300 IIImin7 \;;
#X scalar mchord1 1550 50  \;;
#X scalar mchord2 2525 25 C \;;
#X scalar mchord3 2525 25 C \;;
#X scalar mchord4 25 400 I7 \;;
#X scalar mchord5 425 300 IIImin7 \;;
#X scalar mchord6 750 50  \;;
#X scalar mchord7 825 400 I7 \;;
#X scalar beat 325 \;;
#X scalar line 25 900 \;;
#X scalar line 50 333 \;;
#X scalar line 75 333 \;;
#X scalar line 100 333 \;;
#X scalar line 125 666 \;;
#X scalar line 150 333 \;;
#X scalar line 175 333 \;;
#X scalar line 200 333 \;;
#X scalar line 225 666 \;;
#X scalar line 250 333 \;;
#X scalar line 275 333 \;;
#X scalar line 300 333 \;;
#X scalar line 325 666 \;;
#X scalar line 350 333 \;;
#X scalar line 375 333 \;;
#X scalar line 400 333 \;;
#X scalar line 425 900 \;;
#X scalar line 450 333 \;;
#X scalar line 475 333 \;;
#X scalar line 500 333 \;;
#X scalar line 525 666 \;;
#X scalar line 550 333 \;;
#X scalar line 575 333 \;;
#X scalar line 600 333 \;;
#X scalar line 625 666 \;;
#X scalar line 650 333 \;;
#X scalar line 675 333 \;;
#X scalar line 700 333 \;;
#X scalar line 725 666 \;;
#X scalar line 750 333 \;;
#X scalar line 775 333 \;;
#X scalar line 800 333 \;;
#X scalar line 825 900 \;;
#X scalar line 850 333 \;;
#X scalar line 875 333 \;;
#X scalar line 900 333 \;;
#X scalar line 925 666 \;;
#X scalar line 950 333 \;;
#X scalar line 975 333 \;;
#X scalar line 1000 333 \;;
#X scalar line 1025 666 \;;
#X scalar line 1050 333 \;;
#X scalar line 1075 333 \;;
#X scalar line 1100 333 \;;
#X scalar line 1125 666 \;;
#X scalar line 1150 333 \;;
#X scalar line 1175 333 \;;
#X scalar line 1200 333 \;;
#X scalar line 1225 900 \;;
#X scalar line 1250 333 \;;
#X scalar line 1275 333 \;;
#X scalar line 1300 333 \;;
#X scalar line 1325 666 \;;
#X scalar line 1350 333 \;;
#X scalar line 1375 333 \;;
#X scalar line 1400 333 \;;
#X scalar line 1425 666 \;;
#X scalar line 1450 333 \;;
#X scalar line 1475 333 \;;
#X scalar line 1500 333 \;;
#X scalar line 1525 666 \;;
#X scalar line 1550 333 \;;
#X scalar line 1575 333 \;;
#X scalar line 1600 333 \;;
#X scalar line 1625 900 \;;
#X coords 0 0 1650 120 800 120 2 0 0;
#X restore -4 304 pd data;
#X obj 805 35 playlist mid 140 240 {Helvetica 12 normal} #999999 grey
black red;
#X obj 668 88 nbx 3 24 40 239 0 0 tempo set-tempo bpm 0 -8 1 12 -66577
-258699 -233017 125 256;
#X obj 714 104 bng 8 250 50 0 learn-tempo --- empty 17 7 0 10 -262144
-1 -1;
#X obj 638 104 bng 8 250 50 0 learn-sync --- empty 17 7 0 10 -262144
-1 -1;
#X obj 230 88 vradio 23 1 0 8 chords-octave set-chords-octave octave
-6 -10 1 12 -66577 -258113 -228856 3;
#X obj 256 264 bng 8 250 50 0 learn-bass-octave --- empty 17 7 0 10
-262144 -1 -1;
#N canvas 423 94 275 305 fifths 0;
#X obj 33 29 flatgui/knob 65 65 0.5 12.5 0 0 key-fifths set-keyfifths
key -20 -5 1 12 -258113 -258113 -228856 3300 1;
#X text 58 14 C;
#X text 77 18 G;
#X text 92 31 D;
#X text 42 20 F;
#X text 22 33 Bb;
#X text 16 50 Eb;
#X text 19 69 Ab;
#X text 34 86 Db;
#X text 51 94 Gb;
#X text 67 94 F#;
#X text 100 49 A;
#X text 98 67 E;
#X text 89 83 B;
#X obj 10 174 int;
#X obj 10 194 change;
#X obj 10 236 s key;
#X obj 10 152 r key-fifths;
#N canvas 0 89 450 218 fifhts2secs 0;
#X obj 30 15 inlet;
#X obj 30 170 outlet;
#X msg 30 77 -6;
#X msg 60 77 1;
#X msg 120 77 3;
#X msg 150 77 -2;
#X msg 180 77 5;
#X msg 90 77 -4;
#X obj 30 40 sel 0 1 2 3 4 5 6 7 8 9 10 11 12, f 51;
#X msg 390 77 6;
#X msg 360 77 -1;
#X msg 330 77 4;
#X msg 300 77 -3;
#X msg 270 77 2;
#X msg 240 77 -5;
#X msg 210 77 0;
#X connect 0 0 8 0;
#X connect 2 0 1 0;
#X connect 3 0 1 0;
#X connect 4 0 1 0;
#X connect 5 0 1 0;
#X connect 6 0 1 0;
#X connect 7 0 1 0;
#X connect 8 0 2 0;
#X connect 8 1 3 0;
#X connect 8 2 7 0;
#X connect 8 3 4 0;
#X connect 8 4 5 0;
#X connect 8 5 6 0;
#X connect 8 6 15 0;
#X connect 8 7 14 0;
#X connect 8 8 13 0;
#X connect 8 9 12 0;
#X connect 8 10 11 0;
#X connect 8 11 10 0;
#X connect 8 12 9 0;
#X connect 9 0 1 0;
#X connect 10 0 1 0;
#X connect 11 0 1 0;
#X connect 12 0 1 0;
#X connect 13 0 1 0;
#X connect 14 0 1 0;
#X connect 15 0 1 0;
#X restore 10 215 pd fifhts2secs;
#X msg 123 235 set \$1;
#N canvas 360 412 457 218 sec2fifthvis 0;
#X obj 10 7 inlet;
#X obj 10 162 outlet;
#X obj 10 32 sel 0 1 2 3 4 5 6 7 8 9 10 11 12, f 51;
#X msg 10 69 0.5;
#X msg 40 69 7.5;
#X msg 70 69 2.5;
#X msg 100 69 9.5;
#X msg 130 69 4.5;
#X msg 160 69 11.5;
#X msg 196 69 6.5;
#X msg 226 69 1.5;
#X msg 256 69 8.5;
#X msg 286 69 3.5;
#X msg 316 69 10.5;
#X msg 346 69 5.5;
#X msg 376 69 12.5;
#X connect 0 0 2 0;
#X connect 2 0 3 0;
#X connect 2 1 4 0;
#X connect 2 2 5 0;
#X connect 2 3 6 0;
#X connect 2 4 7 0;
#X connect 2 5 8 0;
#X connect 2 6 9 0;
#X connect 2 7 10 0;
#X connect 2 8 11 0;
#X connect 2 9 12 0;
#X connect 2 10 13 0;
#X connect 2 11 14 0;
#X connect 2 12 15 0;
#X connect 3 0 1 0;
#X connect 4 0 1 0;
#X connect 5 0 1 0;
#X connect 6 0 1 0;
#X connect 7 0 1 0;
#X connect 8 0 1 0;
#X connect 9 0 1 0;
#X connect 10 0 1 0;
#X connect 11 0 1 0;
#X connect 12 0 1 0;
#X connect 13 0 1 0;
#X connect 14 0 1 0;
#X connect 15 0 1 0;
#X restore 123 170 pd sec2fifthvis;
#X obj 123 257 s set-keyseconds;
#X obj 123 214 line;
#X msg 123 191 \$1 150;
#X connect 14 0 15 0;
#X connect 14 0 20 0;
#X connect 15 0 18 0;
#X connect 17 0 14 0;
#X connect 18 0 16 0;
#X connect 19 0 21 0;
#X connect 20 0 23 0;
#X connect 22 0 19 0;
#X connect 23 0 22 0;
#X coords 0 -1 1 1 105 105 2 10 10;
#X restore 522 167 pd fifths;
#N canvas 79 87 330 327 seconds 0;
#X obj 30 29 flatgui/knob 65 65 0.5 12.5 0 0 key-seconds set-keyseconds
key -18 -5 1 12 -258113 -258113 -228856 3200 1;
#X text 57 13 C;
#X text 92 33 D;
#X text 21 30 Bb;
#X text 16 69 Ab;
#X text 46 94 Gb;
#X text 65 94 F#;
#X text 96 67 E;
#X text 74 17 Db;
#X text 96 49 Eb;
#X text 85 85 F;
#X text 40 18 B;
#X text 17 49 A;
#X text 33 87 G;
#X obj 10 131 r key-seconds;
#X obj 10 174 int;
#X obj 10 195 change;
#N canvas 407 159 401 218 seconds 0;
#X obj 10 7 inlet;
#X obj 10 162 outlet;
#X msg 10 69 -6;
#X msg 130 69 -2;
#X msg 70 69 -4;
#X obj 10 32 sel 0 1 2 3 4 5 6 7 8 9 10 11 12, f 51;
#X msg 310 69 4;
#X msg 250 69 2;
#X msg 190 69 0;
#X msg 40 69 -5;
#X msg 100 69 -3;
#X msg 160 69 -1;
#X msg 220 69 1;
#X msg 280 69 3;
#X msg 340 69 5;
#X msg 370 69 6;
#X connect 0 0 5 0;
#X connect 2 0 1 0;
#X connect 3 0 1 0;
#X connect 4 0 1 0;
#X connect 5 0 2 0;
#X connect 5 1 9 0;
#X connect 5 2 4 0;
#X connect 5 3 10 0;
#X connect 5 4 3 0;
#X connect 5 5 11 0;
#X connect 5 6 8 0;
#X connect 5 7 12 0;
#X connect 5 8 7 0;
#X connect 5 9 13 0;
#X connect 5 10 6 0;
#X connect 5 11 14 0;
#X connect 5 12 15 0;
#X connect 6 0 1 0;
#X connect 7 0 1 0;
#X connect 8 0 1 0;
#X connect 9 0 1 0;
#X connect 10 0 1 0;
#X connect 11 0 1 0;
#X connect 12 0 1 0;
#X connect 13 0 1 0;
#X connect 14 0 1 0;
#X connect 15 0 1 0;
#X restore 10 235 pd seconds;
#X obj 10 256 s key;
#X obj 87 279 s set-keyfifths;
#X msg 87 257 set \$1;
#N canvas 360 412 457 218 sec2fifth 0;
#X obj 10 7 inlet;
#X obj 10 162 outlet;
#X obj 10 32 sel 0 1 2 3 4 5 6 7 8 9 10 11 12, f 51;
#X msg 10 69 0.5;
#X msg 40 69 7.5;
#X msg 70 69 2.5;
#X msg 100 69 9.5;
#X msg 130 69 4.5;
#X msg 160 69 11.5;
#X msg 196 69 6.5;
#X msg 226 69 1.5;
#X msg 256 69 8.5;
#X msg 286 69 3.5;
#X msg 316 69 10.5;
#X msg 346 69 5.5;
#X msg 376 69 12.5;
#X connect 0 0 2 0;
#X connect 2 0 3 0;
#X connect 2 1 4 0;
#X connect 2 2 5 0;
#X connect 2 3 6 0;
#X connect 2 4 7 0;
#X connect 2 5 8 0;
#X connect 2 6 9 0;
#X connect 2 7 10 0;
#X connect 2 8 11 0;
#X connect 2 9 12 0;
#X connect 2 10 13 0;
#X connect 2 11 14 0;
#X connect 2 12 15 0;
#X connect 3 0 1 0;
#X connect 4 0 1 0;
#X connect 5 0 1 0;
#X connect 6 0 1 0;
#X connect 7 0 1 0;
#X connect 8 0 1 0;
#X connect 9 0 1 0;
#X connect 10 0 1 0;
#X connect 11 0 1 0;
#X connect 12 0 1 0;
#X connect 13 0 1 0;
#X connect 14 0 1 0;
#X connect 15 0 1 0;
#X restore 87 188 pd sec2fifth;
#X obj 87 234 line;
#X msg 87 211 \$1 150;
#X connect 14 0 15 0;
#X connect 15 0 16 0;
#X connect 16 0 17 0;
#X connect 16 0 21 0;
#X connect 17 0 18 0;
#X connect 20 0 19 0;
#X connect 21 0 23 0;
#X connect 22 0 20 0;
#X connect 23 0 22 0;
#X coords 0 -1 1 1 105 105 2 10 10;
#X restore 644 167 pd seconds;
#X obj 630 264 bng 8 250 50 0 learn-bass-octave --- empty 17 7 0 10
-262144 -1 -1;
#X obj 753 264 bng 8 250 50 0 learn-bass-octave --- empty 17 7 0 10
-262144 -1 -1;
#X connect 2 0 36 0;
#X connect 36 0 3 0;
