#N struct mchord float x symbol chordname;
#N struct beat float x;
#N struct line float pos float color;
#N canvas 448 33 950 578 10;
#N canvas 0 22 959 334 data 0;
#X scalar mchord 27 symbol \;;
#X scalar beat 25 \;;
#X scalar line 25 900 \;;
#X scalar line 50 333 \;;
#X scalar line 75 333 \;;
#X scalar line 100 333 \;;
#X scalar line 125 666 \;;
#X scalar line 150 333 \;;
#X scalar line 175 333 \;;
#X scalar line 200 333 \;;
#X scalar line 225 666 \;;
#X scalar line 250 333 \;;
#X scalar line 275 333 \;;
#X scalar line 300 333 \;;
#X scalar line 325 666 \;;
#X scalar line 350 333 \;;
#X scalar line 375 333 \;;
#X scalar line 400 333 \;;
#X scalar line 425 900 \;;
#X scalar line 450 333 \;;
#X scalar line 475 333 \;;
#X scalar line 500 333 \;;
#X scalar line 525 666 \;;
#X scalar line 550 333 \;;
#X scalar line 575 333 \;;
#X scalar line 600 333 \;;
#X scalar line 625 666 \;;
#X scalar line 650 333 \;;
#X scalar line 675 333 \;;
#X scalar line 700 333 \;;
#X scalar line 725 666 \;;
#X scalar line 750 333 \;;
#X scalar line 775 333 \;;
#X scalar line 800 333 \;;
#X scalar line 825 900 \;;
#X coords 0 0 850 120 800 120 2 0 0;
#X restore 7 91 pd data;
#N canvas 789 423 334 157 line 1;
#X obj 32 11 struct line float pos float color;
#X obj 35 43 drawpolygon color 1 pos 20 pos 100;
#X restore 240 260 pd line;
#X obj 364 425 set beat x;
#X obj 364 246 r current_step;
#X obj 364 268 div 4;
#X obj 364 289 change;
#X obj 364 334 + 25;
#X obj 364 312 * 100;
#N canvas 33 219 433 569 grid-generator 1;
#X obj 165 116 pointer;
#X obj 131 22 bng 15 250 50 0 empty empty empty 17 7 0 10 -262144 -1
-1;
#X msg 148 160 33;
#X obj 165 234 * 25;
#X msg 182 82 \; pd-data clear;
#X msg 165 60 traverse pd-data \, bang;
#X obj 148 183 forloop 0;
#X obj 165 256 + 25;
#X obj 241 227 mod 4;
#X obj 185 320 append line pos color;
#X obj 241 249 sel 0;
#X obj 269 272 t b;
#X obj 197 256 sel 0;
#X msg 197 277 900;
#X obj 197 234 mod 16;
#X msg 121 339 25;
#X obj 131 39 t b b b b;
#X obj 121 361 append beat x;
#X msg 269 293 333;
#X msg 241 272 666;
#X obj 131 2 loadbang;
#X obj 121 257 sel 32;
#X obj 148 206 t f f f f;
#X obj 165 137 s loadpointer;
#X obj 308 298 r loadpointer;
#X obj 155 409 r loadpointer;
#X obj 196 341 r loadpointer;
#X obj 56 161 s pointerready;
#X obj 56 140 delay 10;
#X obj 48 312 t b b;
#X msg 48 334 27;
#X obj 67 430 append mchord x;
#X connect 0 0 23 0;
#X connect 1 0 16 0;
#X connect 2 0 6 0;
#X connect 3 0 7 0;
#X connect 4 0 0 0;
#X connect 5 0 0 0;
#X connect 6 0 22 0;
#X connect 7 0 9 0;
#X connect 8 0 10 0;
#X connect 10 0 19 0;
#X connect 10 1 11 0;
#X connect 11 0 18 0;
#X connect 12 0 13 0;
#X connect 13 0 9 1;
#X connect 14 0 12 0;
#X connect 15 0 17 0;
#X connect 16 0 28 0;
#X connect 16 1 2 0;
#X connect 16 2 5 0;
#X connect 16 3 4 0;
#X connect 18 0 9 1;
#X connect 19 0 9 1;
#X connect 20 0 1 0;
#X connect 21 0 29 0;
#X connect 22 0 21 0;
#X connect 22 1 3 0;
#X connect 22 2 14 0;
#X connect 22 3 8 0;
#X connect 24 0 9 2;
#X connect 25 0 31 1;
#X connect 26 0 17 1;
#X connect 28 0 27 0;
#X connect 29 0 30 0;
#X connect 29 1 15 0;
#X connect 30 0 31 0;
#X restore 130 260 pd grid-generator;
#X obj 405 334 until;
#X msg 446 360 traverse pd-data;
#X obj 419 310 t b b;
#X msg 405 357 next;
#X obj 419 291 bng 15 250 50 0 empty empty empty 17 7 0 10 -262144
-1 -1;
#X obj 419 270 r pointerready;
#N canvas 831 269 334 157 beat 0;
#X obj 6 11 struct beat float x;
#X obj 7 35 drawpolygon 222 2 0 20 100 20;
#X obj 7 55 drawpolygon 222 2 0 100 100 100;
#X restore 290 260 pd beat;
#X obj 405 382 pointer beat;
#X obj 405 404 t b p;
#X floatatom 540 273 5 0 0 0 - - -, f 5;
#N canvas 0 22 373 97 mchord 1;
#X obj 5 8 struct mchord float x float 7 symbol chordname;
#X obj 5 28 filledpolygon 900 900 1 0 30 30 30 30 90 0 90;
#X restore 124 289 pd mchord;
#X obj 630 338 * 25;
#X obj 665 339 * 25;
#X msg 596 452 symbol \$1;
#X obj 640 236 r master-chord-fill-\$1;
#X msg 786 338 traverse pd-data;
#X obj 759 292 t b b;
#X msg 746 338 next;
#X obj 746 394 t b p;
#X obj 746 319 until;
#X obj 596 294 unpack s f f;
#X obj 630 317 + 1;
#X obj 640 258 t a b;
#X obj 596 477 set -symbol mchord chordname;
#X obj 746 371 pointer mchord;
#X obj 630 426 set mchord x dur;
#X floatatom 604 260 5 0 0 0 - - -, f 5;
#X obj 766 267 bng 15 250 50 0 empty empty empty 17 7 0 10 -262144
-1 -1;
#X floatatom 695 292 5 0 0 0 - - -, f 5;
#X floatatom 539 427 5 0 0 0 - - -, f 5;
#X symbolatom 539 446 10 0 0 0 - - -, f 10;
#X obj 117 449 get -symbol mchord chordname;
#X connect 3 0 4 0;
#X connect 4 0 5 0;
#X connect 5 0 7 0;
#X connect 6 0 2 0;
#X connect 7 0 6 0;
#X connect 9 0 12 0;
#X connect 10 0 16 0;
#X connect 11 0 9 0;
#X connect 11 1 10 0;
#X connect 12 0 16 0;
#X connect 13 0 11 0;
#X connect 14 0 13 0;
#X connect 16 0 17 0;
#X connect 17 0 9 1;
#X connect 17 1 2 1;
#X connect 18 0 4 1;
#X connect 20 0 34 0;
#X connect 21 0 34 1;
#X connect 22 0 32 0;
#X connect 23 0 31 0;
#X connect 24 0 33 0;
#X connect 25 0 28 0;
#X connect 25 1 24 0;
#X connect 26 0 33 0;
#X connect 27 0 28 1;
#X connect 27 1 32 1;
#X connect 27 1 34 2;
#X connect 28 0 26 0;
#X connect 29 0 22 0;
#X connect 29 1 30 0;
#X connect 29 2 21 0;
#X connect 30 0 20 0;
#X connect 31 0 29 0;
#X connect 31 1 25 0;
#X connect 33 0 27 0;
#X connect 35 0 30 0;
#X connect 36 0 25 0;
#X connect 37 0 21 0;
#X connect 38 0 39 0;
#X connect 39 0 22 0;
