#N canvas 275 468 563 612 10;
#X msg 62 253 color 3;
#X msg 123 252 color 13;
#X obj 100 125 bng 20 250 50 0 empty empty empty 17 7 0 10 -262144
-1 -1;
#X msg 160 205 color 1;
#X obj 100 100 tgl 20 0 empty empty empty 17 7 0 10 -262144 -1 -1 1
1;
#X obj 183 61 unpack;
#X msg 30 116 set 1;
#X obj 100 205 sel 0 1;
#X msg 270 119 0;
#X msg 321 107 1;
#X obj 263 297 s \$2-unsel;
#X obj 130 15 r \$2-unsel;
#X obj 100 100 cnv 15 20 20 empty \$0-m empty 20 12 0 14 -166441 -262144
0;
#X obj 100 125 cnv 20 20 20 empty \$0-cm empty 20 12 0 14 -166441 -262144
0;
#X obj 130 39 route \$1;
#X obj 123 312 s \$0-m;
#X obj 190 312 s \$0-cm;
#X obj 222 81 spigot 1;
#X obj 263 273 pack \$1 0;
#X connect 0 0 15 0;
#X connect 0 0 16 0;
#X connect 1 0 15 0;
#X connect 2 0 3 0;
#X connect 2 0 6 0;
#X connect 2 0 8 0;
#X connect 3 0 15 0;
#X connect 3 0 16 0;
#X connect 4 0 7 0;
#X connect 4 0 9 0;
#X connect 5 1 17 0;
#X connect 6 0 4 0;
#X connect 7 0 0 0;
#X connect 7 1 1 0;
#X connect 7 1 18 0;
#X connect 8 0 17 1;
#X connect 9 0 17 1;
#X connect 11 0 14 0;
#X connect 14 1 5 0;
#X connect 17 0 4 0;
#X connect 18 0 10 0;
#X coords 0 -1 1 1 20 45 2 100 100;
