#N canvas 562 217 1301 676 10;
#X obj 639 352 s \$0-store;
#X obj 688 329 s \$0-recall;
#X obj 160 424 s \$0-m1;
#X msg 185 383 color 3;
#X msg 160 362 color 13;
#X obj 639 279 route 0 1;
#X obj 137 171 bng 20 250 50 0 empty empty empty 17 7 0 10 -262144
-1 -1;
#X msg 188 223 color 1;
#X obj 219 422 s \$0-cm1;
#X obj 73 119 cnv 15 20 20 empty \$0-m1 empty 20 12 0 14 -261689 -262144
0;
#X obj 73 168 cnv 20 20 20 empty \$0-cm1 empty 20 12 0 14 -261689 -262144
0;
#X obj 21 383 s \$0-unsel;
#X obj 19 39 r \$0-unsel;
#X obj 105 166 tgl 20 0 empty empty empty 17 7 0 10 -262144 -1 -1 0
1;
#X obj 21 362 pack 1 0;
#X obj 19 63 route 1;
#X obj 65 85 unpack;
#X msg 172 181 set 1;
#X obj 419 263 sel 0 1 2;
#X msg 511 515 color 3;
#X msg 531 491 color 13;
#X obj 460 155 bng 20 250 50 0 empty empty empty 17 7 0 10 -262144
-1 -1;
#X msg 534 218 color 1;
#X obj 420 114 cnv 15 20 20 empty \$0-m2 empty 20 12 0 14 -261689 -262144
0;
#X obj 419 163 cnv 20 20 20 empty \$0-cm2 empty 20 12 0 14 -261689
-262144 0;
#X obj 379 463 s \$0-unsel;
#X obj 375 4 r \$0-unsel;
#X obj 461 117 tgl 20 0 empty empty empty 17 7 0 10 -262144 -1 -1 0
1;
#X obj 420 55 unpack;
#X msg 586 175 set 1;
#X obj 393 408 pack 2 0;
#X obj 531 547 s \$0-m2;
#X obj 590 545 s \$0-cm2;
#X obj 375 28 route 2;
#X obj 24 275 print;
#X obj 73 268 sel 0 1;
#X msg 565 129 0;
#X obj 461 91 spigot 1;
#X msg 243 136 0;
#X obj 160 108 spigot 1;
#X msg 571 90 1, f 6;
#X msg 312 268 1, f 6;
#X obj 303 217 sel 1;
#X obj 1091 381 s \$0-store;
#X obj 1140 358 s \$0-recall;
#X obj 1091 308 route 0 1;
#X obj 871 292 sel 0 1 2;
#X msg 883 351 color 3;
#X msg 903 327 color 13;
#X obj 912 184 bng 20 250 50 0 empty empty empty 17 7 0 10 -262144
-1 -1;
#X msg 986 247 color 1;
#X obj 872 143 cnv 15 20 20 empty \$0-m2 empty 20 12 0 14 -261689 -262144
0;
#X obj 871 192 cnv 20 20 20 empty \$0-cm2 empty 20 12 0 14 -261689
-262144 0;
#X obj 831 492 s \$0-unsel;
#X obj 827 33 r \$0-unsel;
#X obj 913 146 tgl 20 0 empty empty empty 17 7 0 10 -262144 -1 -1 0
1;
#X obj 872 84 unpack;
#X msg 1038 204 set 1;
#X obj 862 427 pack 2 0;
#X obj 903 383 s \$0-m2;
#X obj 962 381 s \$0-cm2;
#X msg 1017 158 0;
#X obj 913 120 spigot 1;
#X msg 1023 119 1, f 6;
#X obj 827 57 route 3;
#X floatatom 453 201 5 0 0 0 - - -, f 5;
#X obj 453 220;
#X obj 484 363 t b b;
#X connect 3 0 2 0;
#X connect 3 0 8 0;
#X connect 4 0 2 0;
#X connect 5 0 0 0;
#X connect 6 0 7 0;
#X connect 6 0 17 0;
#X connect 6 0 38 0;
#X connect 7 0 2 0;
#X connect 7 0 8 0;
#X connect 12 0 15 0;
#X connect 13 0 35 0;
#X connect 13 0 34 0;
#X connect 13 0 41 0;
#X connect 14 0 11 0;
#X connect 15 1 16 0;
#X connect 16 1 39 0;
#X connect 17 0 13 0;
#X connect 18 0 19 0;
#X connect 18 1 67 0;
#X connect 19 0 31 0;
#X connect 19 0 32 0;
#X connect 20 0 31 0;
#X connect 21 0 22 0;
#X connect 21 0 29 0;
#X connect 21 0 36 0;
#X connect 22 0 31 0;
#X connect 22 0 32 0;
#X connect 26 0 33 0;
#X connect 27 0 18 0;
#X connect 27 0 40 0;
#X connect 27 0 65 0;
#X connect 28 1 37 0;
#X connect 29 0 27 0;
#X connect 30 0 25 0;
#X connect 33 1 28 0;
#X connect 35 0 3 0;
#X connect 35 1 4 0;
#X connect 35 1 14 0;
#X connect 36 0 37 1;
#X connect 37 0 27 0;
#X connect 38 0 39 1;
#X connect 39 0 13 0;
#X connect 40 0 37 1;
#X connect 41 0 39 1;
#X connect 45 0 43 0;
#X connect 46 0 47 0;
#X connect 46 1 48 0;
#X connect 46 1 58 0;
#X connect 47 0 59 0;
#X connect 47 0 60 0;
#X connect 48 0 59 0;
#X connect 49 0 50 0;
#X connect 49 0 57 0;
#X connect 49 0 61 0;
#X connect 50 0 59 0;
#X connect 50 0 60 0;
#X connect 54 0 64 0;
#X connect 55 0 46 0;
#X connect 55 0 63 0;
#X connect 56 1 62 0;
#X connect 57 0 55 0;
#X connect 58 0 53 0;
#X connect 61 0 62 1;
#X connect 62 0 55 0;
#X connect 63 0 62 1;
#X connect 64 1 56 0;
#X connect 65 0 66 0;
#X connect 67 0 30 0;
#X connect 67 1 20 0;
