#N canvas 432 23 843 684 10;
#X msg 174 80 0 \, destroy;
#X floatatom 212 152 5 0 0 0 - - -, f 5;
#N canvas 570 23 481 734 grid 0;
#X obj 14 79 abs/grid-beat-strong;
#X obj 14 143 abs/grid-beat-soft;
#X obj 14 163 abs/grid-beat-soft;
#X obj 14 183 abs/grid-beat-soft;
#X obj 14 307 abs/grid-beat-soft;
#X obj 14 327 abs/grid-beat-soft;
#X obj 14 347 abs/grid-beat-soft;
#X obj 14 473 abs/grid-beat-soft;
#X obj 14 493 abs/grid-beat-soft;
#X obj 14 513 abs/grid-beat-soft;
#X obj 14 637 abs/grid-beat-soft;
#X obj 14 657 abs/grid-beat-soft;
#X obj 14 677 abs/grid-beat-soft;
#X obj 14 14 inlet;
#X obj 14 246 abs/grid-beat-strong;
#X obj 14 412 abs/grid-beat-strong;
#X obj 14 576 abs/grid-beat-strong;
#X obj 14 226 alpha 1;
#X obj 14 286 alpha 1;
#X obj 14 391 alpha 1;
#X obj 14 453 alpha 1;
#X obj 14 556 alpha 1;
#X obj 14 617 alpha 1;
#X obj 14 122 alpha 1;
#X obj 14 57 alpha 1;
#X obj 164 79 abs/grid-beat-strong;
#X obj 164 143 abs/grid-beat-soft;
#X obj 164 163 abs/grid-beat-soft;
#X obj 164 183 abs/grid-beat-soft;
#X obj 164 307 abs/grid-beat-soft;
#X obj 164 327 abs/grid-beat-soft;
#X obj 164 347 abs/grid-beat-soft;
#X obj 164 473 abs/grid-beat-soft;
#X obj 164 493 abs/grid-beat-soft;
#X obj 164 513 abs/grid-beat-soft;
#X obj 164 637 abs/grid-beat-soft;
#X obj 164 657 abs/grid-beat-soft;
#X obj 164 677 abs/grid-beat-soft;
#X obj 164 246 abs/grid-beat-strong;
#X obj 164 412 abs/grid-beat-strong;
#X obj 164 576 abs/grid-beat-strong;
#X obj 164 226 alpha 1;
#X obj 164 286 alpha 1;
#X obj 164 391 alpha 1;
#X obj 164 453 alpha 1;
#X obj 164 556 alpha 1;
#X obj 164 617 alpha 1;
#X obj 164 122 alpha 1;
#X obj 164 57 alpha 1;
#X obj 314 79 abs/grid-beat-strong;
#X obj 314 57 alpha 1;
#X obj 14 205 color 0 1 0 1;
#X obj 164 35 color 1 0 0 1;
#X obj 314 35 color 1 0 0 1;
#X obj 164 205 color 0 1 0 1;
#X obj 14 371 color 0 1 0 1;
#X obj 164 371 color 0 1 0 1;
#X obj 14 535 color 0 1 0 1;
#X obj 164 535 color 0 1 0 1.4;
#X obj 14 100 color 1 1 1 0.7;
#X obj 164 100 color 1 1 1 0.7;
#X obj 14 267 color 1 1 1 0.7;
#X obj 164 267 color 1 1 1 0.7;
#X obj 164 433 color 1 1 1 0.7;
#X obj 14 433 color 1 1 1 0.7;
#X obj 14 597 color 1 1 1 0.7;
#X obj 164 597 color 1 1 1 0.7;
#X obj 14 35 color 1 0 0 1;
#X connect 0 0 59 0;
#X connect 1 0 2 0;
#X connect 2 0 3 0;
#X connect 3 0 51 0;
#X connect 4 0 5 0;
#X connect 5 0 6 0;
#X connect 6 0 55 0;
#X connect 7 0 8 0;
#X connect 8 0 9 0;
#X connect 9 0 57 0;
#X connect 10 0 11 0;
#X connect 11 0 12 0;
#X connect 12 0 52 0;
#X connect 13 0 67 0;
#X connect 14 0 61 0;
#X connect 15 0 64 0;
#X connect 16 0 65 0;
#X connect 17 0 14 0;
#X connect 18 0 4 0;
#X connect 19 0 15 0;
#X connect 20 0 7 0;
#X connect 21 0 16 0;
#X connect 22 0 10 0;
#X connect 23 0 1 0;
#X connect 24 0 0 0;
#X connect 25 0 60 0;
#X connect 26 0 27 0;
#X connect 27 0 28 0;
#X connect 28 0 54 0;
#X connect 29 0 30 0;
#X connect 30 0 31 0;
#X connect 31 0 56 0;
#X connect 32 0 33 0;
#X connect 33 0 34 0;
#X connect 34 0 58 0;
#X connect 35 0 36 0;
#X connect 36 0 37 0;
#X connect 37 0 53 0;
#X connect 38 0 62 0;
#X connect 39 0 63 0;
#X connect 40 0 66 0;
#X connect 41 0 38 0;
#X connect 42 0 29 0;
#X connect 43 0 39 0;
#X connect 44 0 32 0;
#X connect 45 0 40 0;
#X connect 46 0 35 0;
#X connect 47 0 26 0;
#X connect 48 0 25 0;
#X connect 50 0 49 0;
#X connect 51 0 17 0;
#X connect 52 0 48 0;
#X connect 53 0 50 0;
#X connect 54 0 41 0;
#X connect 55 0 19 0;
#X connect 56 0 43 0;
#X connect 57 0 21 0;
#X connect 58 0 45 0;
#X connect 59 0 23 0;
#X connect 60 0 47 0;
#X connect 61 0 18 0;
#X connect 62 0 42 0;
#X connect 63 0 44 0;
#X connect 64 0 20 0;
#X connect 65 0 22 0;
#X connect 66 0 46 0;
#X connect 67 0 24 0;
#X restore 169 194 pd grid;
#X obj 167 14 loadbang;
#X obj 167 35 delay 500;
#N canvas 507 329 286 456 current-step 0;
#X obj 61 281 * 0.5;
#X obj 36 328 translateXYZ 0.75 0 0;
#X obj 79 166 * 1.2;
#X obj 61 303 * 1.2;
#X obj 79 190 - 19.5;
#X obj 36 211 translateXYZ -19.5 0 0;
#X obj 36 400 rectangle 0.75 3;
#X obj 61 237 loadbang;
#X obj 66 39 r current_step;
#X obj 56 84 mod 4;
#X msg 61 259 4;
#X obj 56 105 sel 0;
#X obj 66 60 t f f;
#X obj 99 142 f;
#X obj 36 17 gemhead 51;
#X obj 36 376 alpha 0;
#X obj 36 349 color 0.2 0.2 0.2 0.8;
#X connect 0 0 3 0;
#X connect 1 0 16 0;
#X connect 2 0 4 0;
#X connect 3 0 1 1;
#X connect 3 0 6 1;
#X connect 4 0 5 1;
#X connect 5 0 1 0;
#X connect 7 0 10 0;
#X connect 8 0 12 0;
#X connect 9 0 11 0;
#X connect 10 0 0 0;
#X connect 11 0 13 0;
#X connect 12 0 9 0;
#X connect 12 1 13 1;
#X connect 13 0 2 0;
#X connect 14 0 5 0;
#X connect 15 0 6 0;
#X connect 16 0 15 0;
#X restore 169 216 pd current-step;
#X obj 11 14 abs/slave-chord-event 0;
#X msg 167 58 reset \, dimen 800 150 \, title Shuttle \, create \,
1;
#X obj 168 238 abs/master-chord-event 0;
#X obj 167 103 gemwin 20;
#X obj 169 172 translateXYZ -19.5 0 0;
#X obj 169 130 gemhead 50;
#X obj 168 378 abs/master-chord-event 7;
#X obj 168 258 abs/master-chord-event 1;
#X obj 168 278 abs/master-chord-event 2;
#X obj 168 298 abs/master-chord-event 3;
#X obj 168 318 abs/master-chord-event 4;
#X obj 168 338 abs/master-chord-event 5;
#X obj 168 358 abs/master-chord-event 6;
#X obj 11 374 abs/slave-chord-event 18;
#X obj 11 414 abs/slave-chord-event 20;
#X obj 11 634 abs/slave-chord-event 31;
#X obj 11 254 abs/slave-chord-event 12;
#X obj 11 34 abs/slave-chord-event 1;
#X obj 11 434 abs/slave-chord-event 21;
#X obj 11 454 abs/slave-chord-event 22;
#X obj 11 394 abs/slave-chord-event 19;
#X obj 11 194 abs/slave-chord-event 9;
#X obj 11 214 abs/slave-chord-event 10;
#X obj 11 234 abs/slave-chord-event 11;
#X obj 11 274 abs/slave-chord-event 13;
#X obj 11 294 abs/slave-chord-event 14;
#X obj 11 314 abs/slave-chord-event 15;
#X obj 11 334 abs/slave-chord-event 16;
#X obj 11 354 abs/slave-chord-event 17;
#X obj 11 114 abs/slave-chord-event 5;
#X obj 11 94 abs/slave-chord-event 4;
#X obj 11 134 abs/slave-chord-event 6;
#X obj 11 154 abs/slave-chord-event 7;
#X obj 11 54 abs/slave-chord-event 2;
#X obj 11 74 abs/slave-chord-event 3;
#X obj 11 174 abs/slave-chord-event 8;
#X obj 11 474 abs/slave-chord-event 23;
#X obj 11 494 abs/slave-chord-event 24;
#X obj 11 514 abs/slave-chord-event 25;
#X obj 11 534 abs/slave-chord-event 26;
#X obj 11 554 abs/slave-chord-event 27;
#X obj 11 574 abs/slave-chord-event 28;
#X obj 11 594 abs/slave-chord-event 29;
#X obj 11 614 abs/slave-chord-event 30;
#X connect 0 0 9 0;
#X connect 1 0 10 1;
#X connect 3 0 4 0;
#X connect 4 0 7 0;
#X connect 7 0 9 0;
#X connect 10 0 2 0;
#X connect 11 0 10 0;
