#N canvas 668 23 612 702 10;
#X obj 128 226 print;
#X floatatom 128 20 5 0 0 0 - - -, f 5;
#X obj 157 116 list length;
#X floatatom 157 138 5 0 0 0 - - -, f 5;
#X floatatom 239 130 5 0 0 0 - - -, f 5;
#X obj 239 106 list-sumabs;
#X msg 509 73 60 127;
#X obj 497 120 noteout;
#X msg 41 26 60 64 67;
#X text 40 4 any chord;
#X obj 20 238 list;
#X obj 369 93 metro 200;
#X obj 369 115 f 0;
#X obj 399 115 + 1;
#X obj 369 73 tgl 15 0 empty empty empty 17 7 0 10 -262144 -1 -1 1
1;
#X obj 369 139 mod 32;
#X floatatom 369 160 5 0 0 0 - - -, f 5;
#X floatatom 420 71 5 0 0 0 - - -, f 5;
#N canvas 0 22 450 278 (subpatch) 0;
#X array r 32 float 3;
#A 0 16 16 0 0 0 0 0 0 0 0 0 0 0 0 0 0 0 0 0 0 0 0 0 0 0 0 0 0 0 0
0 0;
#X coords 0 32 32 -32 200 140 1 0 0;
#X restore 23 356 graph;
#X obj 408 269 tabread r;
#X obj 184 244 zexy/tabset r;
#X obj 408 199 sel 0;
#X obj 323 263 f 0;
#X obj 353 263 + 1;
#X msg 408 222 0;
#X floatatom 272 310 5 0 0 0 - - -, f 5;
#X obj 408 383 abs;
#X obj 369 177 t b f f;
#X obj 408 444 t b f;
#X msg 408 470 0;
#X obj 323 371 sel;
#X obj 343 444 bng 15 250 50 0 empty empty empty 17 7 0 10 -262144
-1 -1;
#X obj 323 402 t b b;
#X obj 408 245 f 0;
#X obj 438 245 + 1;
#X obj 289 476 zexy/dirac~;
#X obj 295 517 dac~;
#X obj 128 76 cyclone/coll ./rhythmic-patterns.txt;
#C restore;
#X msg 454 137 0;
#X floatatom 236 312 5 0 0 0 - - -, f 5;
#X floatatom 429 419 5 0 0 0 - - -, f 5;
#X obj 408 292 t f f;
#X obj 435 314 > 0;
#X obj 435 336 sel 1;
#X floatatom 473 316 5 0 0 0 - - -, f 5;
#X text 231 618 with delays instead we can add articulations!!!!;
#X connect 1 0 37 0;
#X connect 2 0 3 0;
#X connect 5 0 4 0;
#X connect 6 0 7 0;
#X connect 8 0 10 1;
#X connect 11 0 12 0;
#X connect 12 0 13 0;
#X connect 12 0 15 0;
#X connect 13 0 12 1;
#X connect 14 0 11 0;
#X connect 15 0 16 0;
#X connect 16 0 27 0;
#X connect 16 0 39 0;
#X connect 17 0 11 1;
#X connect 19 0 41 0;
#X connect 19 0 44 0;
#X connect 21 0 24 0;
#X connect 22 0 23 0;
#X connect 22 0 25 0;
#X connect 22 0 30 0;
#X connect 23 0 22 1;
#X connect 24 0 33 0;
#X connect 26 0 28 0;
#X connect 26 0 40 0;
#X connect 27 0 22 0;
#X connect 27 2 21 0;
#X connect 28 0 29 0;
#X connect 28 1 30 1;
#X connect 29 0 22 1;
#X connect 30 0 32 0;
#X connect 31 0 35 0;
#X connect 32 0 31 0;
#X connect 32 1 33 0;
#X connect 33 0 34 0;
#X connect 33 0 19 0;
#X connect 34 0 33 1;
#X connect 35 0 36 0;
#X connect 35 0 36 1;
#X connect 37 0 2 0;
#X connect 37 0 5 0;
#X connect 37 0 0 0;
#X connect 37 0 20 0;
#X connect 38 0 12 1;
#X connect 41 0 26 0;
#X connect 41 1 42 0;
#X connect 42 0 43 0;
#X connect 43 0 31 0;
