#N canvas 221 23 988 732 10;
#X obj 128 256 print;
#X floatatom 128 20 5 0 0 0 - - -, f 5;
#X obj 157 116 list length;
#X floatatom 157 138 5 0 0 0 - - -, f 5;
#X floatatom 239 130 5 0 0 0 - - -, f 5;
#X obj 239 106 list-sumabs;
#X msg 325 586 60 64 67;
#X text 324 564 any chord;
#X obj 304 611 list;
#X obj 369 93 metro 200;
#X obj 369 115 f 0;
#X obj 399 115 + 1;
#X obj 369 20 tgl 15 0 empty empty empty 17 7 0 10 -262144 -1 -1 1
1;
#X obj 369 139 mod 32;
#X floatatom 369 160 5 0 0 0 - - -, f 5;
#X floatatom 420 71 5 0 0 0 - - -, f 5;
#X obj 202 576 zexy/dirac~;
#X obj 177 643 dac~;
#X obj 128 76 cyclone/coll ./rhythmic-patterns.txt;
#C restore;
#X text 464 151 with delays instead we can add articulations!!!!;
#X obj 499 303 tabread r;
#X obj 499 194 sel 0;
#X msg 499 217 0;
#X obj 499 239 f 0;
#X obj 529 239 + 1;
#X obj 499 326 t f f;
#X obj 154 215 zexy/tabset r;
#X obj 430 93 s 16d;
#X obj 553 482 delay;
#X obj 580 366 r 16d;
#X floatatom 591 388 5 0 0 0 - - -, f 5;
#X obj 553 366 abs;
#X floatatom 562 412 5 0 0 0 - - -, f 5;
#X obj 369 177 t b f;
#X obj 553 389 * 200;
#X obj 377 40 sel 1;
#X obj 526 346 sel 0;
#N canvas 0 22 450 278 (subpatch) 0;
#X array r 32 float 3;
#A 0 16 7 -1 1 -1 1 -2 3 0 0 0 0 0 0 0 0 0 0 0 0 0 0 0 0 0 0 0 0 0
0 0 0;
#X coords 0 32 32 -32 200 140 1 0 0;
#X restore 51 298 graph;
#X obj 153 161 s pattern-items;
#X obj 538 260 r pattern-items;
#X obj 467 93 s stop;
#X obj 560 460 r stop;
#X obj 499 281 moses 2;
#X obj 465 393 sel 1;
#X obj 465 436 f 80;
#X obj 486 415 r vel;
#X obj 382 533 t b;
#X obj 465 371 > 0;
#X obj 161 451 t b;
#X obj 127 534 zexy/dirac~;
#X obj 140 577 *~ 0.1;
#X obj 507 594 change;
#X obj 520 624 print vell;
#X msg 467 72 stop;
#X obj 553 434 t f f;
#X obj 714 514 delay;
#X obj 728 384 r stacatto;
#X obj 714 449 - 10;
#X floatatom 723 475 5 0 0 0 - - -, f 5;
#X obj 721 492 r stop;
#X msg 712 540 0;
#X obj 735 427 clip 10 140;
#X obj 798 384 r 16d;
#X obj 798 406 - 10;
#X floatatom 775 472 5 0 0 0 - - -, f 5;
#X floatatom 749 357 5 0 0 0 - - -, f 5;
#X obj 451 687 noteout;
#X connect 1 0 18 0;
#X connect 2 0 3 0;
#X connect 3 0 38 0;
#X connect 5 0 4 0;
#X connect 6 0 8 1;
#X connect 9 0 10 0;
#X connect 10 0 11 0;
#X connect 10 0 13 0;
#X connect 11 0 10 1;
#X connect 12 0 35 0;
#X connect 12 0 9 0;
#X connect 13 0 14 0;
#X connect 14 0 33 0;
#X connect 14 0 48 0;
#X connect 15 0 9 1;
#X connect 15 0 27 0;
#X connect 16 0 17 1;
#X connect 18 0 2 0;
#X connect 18 0 5 0;
#X connect 18 0 0 0;
#X connect 18 0 26 0;
#X connect 20 0 25 0;
#X connect 21 0 22 0;
#X connect 22 0 23 0;
#X connect 23 0 24 0;
#X connect 23 0 42 0;
#X connect 24 0 23 1;
#X connect 25 0 47 0;
#X connect 25 1 36 0;
#X connect 28 0 23 0;
#X connect 29 0 30 0;
#X connect 29 0 34 1;
#X connect 31 0 34 0;
#X connect 33 1 21 0;
#X connect 34 0 32 0;
#X connect 34 0 54 0;
#X connect 35 1 10 1;
#X connect 35 1 53 0;
#X connect 36 1 31 0;
#X connect 39 0 42 1;
#X connect 41 0 28 0;
#X connect 42 0 20 0;
#X connect 43 0 44 0;
#X connect 44 0 51 0;
#X connect 44 0 46 0;
#X connect 45 0 44 1;
#X connect 46 0 16 0;
#X connect 47 0 43 0;
#X connect 48 0 49 0;
#X connect 49 0 50 0;
#X connect 50 0 17 0;
#X connect 51 0 52 0;
#X connect 53 0 40 0;
#X connect 54 0 28 0;
#X connect 54 1 57 0;
#X connect 55 0 60 0;
#X connect 56 0 61 0;
#X connect 57 0 55 0;
#X connect 57 0 58 0;
#X connect 59 0 55 0;
#X connect 60 0 51 0;
#X connect 61 0 57 1;
#X connect 61 0 64 0;
#X connect 62 0 63 0;
#X connect 63 0 61 2;
#X connect 65 0 61 0;
