#N canvas 644 142 1163 899 10;
#X obj 128 256 print;
#X floatatom 128 20 5 0 0 0 - - -, f 5;
#X obj 157 116 list length;
#X floatatom 157 138 5 0 0 0 - - -, f 5;
#X obj 382 633 list;
#X obj 369 93 metro 200;
#X obj 369 115 f 0;
#X obj 399 115 + 1;
#X obj 369 20 tgl 15 0 empty empty empty 17 7 0 10 -262144 -1 -1 0
1;
#X obj 369 139 mod 32;
#X floatatom 369 160 5 0 0 0 - - -, f 5;
#X floatatom 420 71 5 0 0 0 - - -, f 5;
#X obj 202 576 zexy/dirac~;
#X obj 177 643 dac~;
#X obj 128 76 cyclone/coll ./rhythmic-patterns.txt;
#C restore;
#X text 464 151 with delays instead we can add articulations!!!!;
#X obj 499 303 tabread r;
#X obj 499 194 sel 0;
#X msg 499 217 0;
#X obj 499 239 f 0;
#X obj 529 239 + 1;
#X obj 499 326 t f f;
#X obj 138 191 zexy/tabset r;
#X obj 430 93 s 16d;
#X obj 553 482 delay;
#X obj 580 366 r 16d;
#X floatatom 591 388 5 0 0 0 - - -, f 5;
#X obj 553 366 abs;
#X floatatom 562 412 5 0 0 0 - - -, f 5;
#X obj 369 177 t b f;
#X obj 553 389 * 200;
#X obj 377 40 sel 1;
#X obj 526 346 sel 0;
#N canvas 0 50 450 278 (subpatch) 0;
#X array r 32 float 3;
#A 0 16 16 0 0 0 0 0 0 0 0 0 0 0 0 0 0 0 0 0 0 0 0 0 0 0 0 0 0 0 0
0 0;
#X coords 0 32 32 -32 200 140 1 0 0;
#X restore 51 298 graph;
#X obj 153 161 s pattern-items;
#X obj 538 260 r pattern-items;
#X obj 467 93 s stop;
#X obj 613 461 r stop;
#X obj 499 281 moses 2;
#X obj 465 393 sel 1;
#X obj 465 436 f 80;
#X obj 486 415 r vel;
#X obj 465 371 > 0;
#X obj 161 451 t b;
#X obj 127 534 zexy/dirac~;
#X obj 140 577 *~ 0.1;
#X msg 467 72 stop;
#X obj 553 434 t f f;
#X obj 714 514 delay;
#X obj 714 449 - 10;
#X floatatom 723 475 5 0 0 0 - - -, f 5;
#X obj 779 469 r stop;
#X msg 702 552 0;
#X floatatom 690 332 5 0 0 0 - - -, f 5;
#X obj 565 820 noteout;
#X obj 730 79 chord-structure;
#X obj 382 690 list-dripv;
#X obj 382 533 t b f;
#X obj 382 712 pack f f;
#X obj 382 657 t l l;
#X obj 652 694 list-dripv;
#X obj 652 716 pack f f;
#X obj 695 589 t b f;
#X obj 788 339 r stacatto;
#X obj 795 382 clip 10 140;
#X obj 858 339 r 16d;
#X obj 858 361 - 10;
#X floatatom 835 427 5 0 0 0 - - -, f 5;
#X obj 634 654 zexy/fifop;
#X obj 749 703 print lista;
#X obj 779 534 r stop;
#X obj 624 607 bng 15 250 50 0 empty empty empty 17 7 0 10 -262144
-1 -1;
#X obj 789 656 print;
#X obj 321 372 random 12;
#X obj 341 412 + 55;
#X floatatom 456 620 5 0 0 0 - - -, f 5;
#X connect 1 0 14 0;
#X connect 2 0 3 0;
#X connect 3 0 34 0;
#X connect 4 0 59 0;
#X connect 4 0 75 0;
#X connect 5 0 6 0;
#X connect 6 0 7 0;
#X connect 6 0 9 0;
#X connect 7 0 6 1;
#X connect 8 0 31 0;
#X connect 8 0 5 0;
#X connect 9 0 10 0;
#X connect 10 0 29 0;
#X connect 10 0 43 0;
#X connect 11 0 5 1;
#X connect 11 0 23 0;
#X connect 12 0 13 1;
#X connect 14 0 2 0;
#X connect 14 0 0 0;
#X connect 14 0 22 0;
#X connect 16 0 21 0;
#X connect 17 0 18 0;
#X connect 18 0 19 0;
#X connect 19 0 20 0;
#X connect 19 0 38 0;
#X connect 20 0 19 1;
#X connect 21 0 42 0;
#X connect 21 1 32 0;
#X connect 24 0 19 0;
#X connect 25 0 26 0;
#X connect 25 0 30 1;
#X connect 27 0 30 0;
#X connect 29 0 73 0;
#X connect 29 1 17 0;
#X connect 30 0 28 0;
#X connect 30 0 47 0;
#X connect 31 1 6 1;
#X connect 31 1 46 0;
#X connect 32 1 27 0;
#X connect 35 0 38 1;
#X connect 37 0 24 0;
#X connect 38 0 16 0;
#X connect 39 0 40 0;
#X connect 40 0 57 0;
#X connect 41 0 40 1;
#X connect 42 0 39 0;
#X connect 43 0 44 0;
#X connect 44 0 45 0;
#X connect 45 0 13 0;
#X connect 46 0 36 0;
#X connect 47 0 24 0;
#X connect 47 1 49 0;
#X connect 48 0 52 0;
#X connect 49 0 50 0;
#X connect 49 0 48 0;
#X connect 51 0 48 0;
#X connect 52 0 62 0;
#X connect 53 0 49 1;
#X connect 56 0 58 0;
#X connect 57 0 12 0;
#X connect 57 0 4 0;
#X connect 57 1 58 1;
#X connect 58 0 54 0;
#X connect 59 0 56 0;
#X connect 59 1 68 0;
#X connect 60 0 61 0;
#X connect 61 0 54 0;
#X connect 62 0 68 0;
#X connect 62 1 61 1;
#X connect 63 0 64 0;
#X connect 64 0 67 0;
#X connect 65 0 66 0;
#X connect 66 0 64 2;
#X connect 68 0 60 0;
#X connect 68 0 69 0;
#X connect 68 1 72 0;
#X connect 70 0 52 0;
#X connect 71 0 68 0;
#X connect 73 0 74 0;
#X connect 74 0 4 1;
