#N struct whole-flat float x float y;
#N struct leftline float x float y;
#N struct rightline float x float y;
#N struct staffline float x float y;
#N canvas 425 44 818 694 10;
#X obj 489 327 until;
#X msg 530 353 traverse pd-data;
#X obj 501 303 t b b;
#X msg 489 350 next;
#X obj 501 284 bng 15 250 50 0 empty empty empty 17 7 0 10 -262144
-1 -1;
#X obj 501 263 r pointerready;
#X obj 489 397 t b p;
#X obj 83 195 pointer;
#X obj 36 99 bng 15 250 50 0 empty empty empty 17 7 0 10 -262144 -1
-1;
#X msg 99 161 \; pd-data clear;
#X msg 83 139 traverse pd-data \, bang;
#X obj 36 80 loadbang;
#X obj 83 216 s loadpointer;
#X obj 171 262 r loadpointer;
#X obj 417 564 r loadpointer;
#N canvas 919 299 334 157 whole 0;
#X obj 29 13 struct whole float x float y;
#X obj 30 37 drawcurve 0 2 0 0 10 0 10 7 0 7 0 0;
#X restore 433 52 pd whole;
#N canvas 919 299 334 157 mid-c 0;
#X obj 19 13 struct mid-c float x float y;
#X obj 19 53 drawpolygon 0 1 -7 3 16 3;
#X obj 19 33 drawcurve 0 1 0 0 10 0 10 7 0 7 0 0;
#X restore 433 32 pd mid-c;
#N canvas 18 271 466 411 data 0;
#X scalar whole-flat 90 142 \;;
#X scalar leftline 120 0 \;;
#X scalar rightline 0 0 \;;
#X scalar staffline 0 0 \;;
#X scalar staffline 0 10 \;;
#X scalar staffline 0 20 \;;
#X scalar staffline 0 30 \;;
#X scalar staffline 0 40 \;;
#X scalar staffline 0 60 \;;
#X scalar staffline 0 70 \;;
#X scalar staffline 0 80 \;;
#X scalar staffline 0 90 \;;
#X scalar staffline 0 100 \;;
#X coords 0 0 140 170 140 170 2 0 0;
#X restore 646 45 pd data;
#X obj 66 261 list-dripv;
#X msg 66 238 0 10 20 30 40 60 70 80 90 100;
#X obj 433 353 abs;
#X obj 433 311 * -1;
#X floatatom 433 249 5 0 0 0 - - -, f 5;
#X obj 189 588 r loadpointer;
#X obj 96 608 append whole x y;
#X msg 96 586 70 107;
#X msg 327 559 70 107;
#X obj 324 585 append mid-c x y;
#X obj 433 270 * 5;
#X obj 143 466 r loadpointer;
#N canvas 279 25 738 471 mapping 0;
#X obj 182 84 inlet;
#X obj 319 213 zexy/listfind;
#X obj 319 235 != 0;
#X obj 319 256 sel 1;
#X text 450 169 natural in-stave notes;
#X obj 280 187 t f f f;
#X obj 299 345 zexy/listfind;
#X obj 299 367 != 0;
#X obj 299 388 sel 1;
#X msg 394 190 62 64 65 67 69 71 72 74 76 77 79;
#X obj 394 168 loadbang;
#X msg 374 321 63 66 68 70 73 75 78 80;
#X obj 374 301 loadbang;
#X obj 319 278 outlet;
#X text 436 299 in-stave accidentals;
#X obj 299 410 outlet;
#X connect 0 0 5 0;
#X connect 1 0 2 0;
#X connect 2 0 3 0;
#X connect 3 0 13 0;
#X connect 5 1 6 0;
#X connect 5 2 1 0;
#X connect 6 0 7 0;
#X connect 7 0 8 0;
#X connect 8 0 15 0;
#X connect 9 0 1 1;
#X connect 10 0 9 0;
#X connect 11 0 6 1;
#X connect 12 0 11 0;
#X restore 307 438 pd mapping;
#N canvas 858 423 334 157 staffline 0;
#X obj 32 11 struct staffline float x float y;
#X obj 32 35 drawpolygon 0 1 10 35 130 35;
#X restore 433 93 pd staffline;
#X obj 66 284 append staffline y;
#N canvas 919 299 357 262 whole-acc 0;
#X obj 30 37 drawcurve 0 2 0 0 10 0 10 7 0 7 0 0;
#X obj 29 13 struct whole-acc float x float y;
#X text 29 95 this is the sharp:;
#X obj 31 117 drawpolygon 0 1 -5 -5 -5 10;
#X obj 31 137 drawpolygon 0 1 -9 -4 -9 11;
#X obj 32 158 drawpolygon 0 2 -12 1 -2 -1;
#X obj 32 178 drawpolygon 0 2 -12 8 -2 6;
#X restore 553 52 pd whole-acc;
#N canvas 910 360 357 262 whole-flat 0;
#X obj 30 37 drawcurve 0 2 0 0 10 0 10 7 0 7 0 0;
#X obj 29 13 struct whole-flat float x float y;
#X text 29 65 this is the flat:;
#X obj 31 87 drawpolygon 0 1 -9 -14 -9 8;
#X obj 32 109 drawcurve 0 2 -9 0 3 -3 -9 9;
#X restore 553 72 pd whole-flat;
#X obj 68 507 append whole-flat x y;
#X obj 489 375 pointer whole-flat;
#X obj 453 418 set whole-flat y;
#N canvas 790 374 334 157 rightline 0;
#X obj 32 11 struct rightline float x float y;
#X obj 32 35 drawpolygon 0 3 10 35 10 135;
#X restore 433 113 pd rightline;
#X obj 39 306 append rightline x y;
#N canvas 786 320 334 157 leftline 0;
#X obj 32 35 drawpolygon 0 1 10 35 10 135;
#X obj 32 11 struct leftline float x;
#X restore 433 133 pd leftline;
#X obj 36 117 t b b b b b;
#X msg 64 461 90 107;
#X obj 433 332 + 107;
#X msg 38 284 0 0;
#X msg 9 284 120;
#X obj 20 329 append leftline x;
#X msg 213 20 Ab5;
#X obj 213 64 zexy/symbol2list;
#X obj 313 174 print;
#X obj 211 43 cyclone/tosymbol;
#X msg 322 45 symbol;
#X obj 323 11 loadbang;
#X obj 238 96 list split 1;
#X msg 254 21 A4;
#X obj 290 208 route float symbol;
#X obj 301 242 print;
#X floatatom 301 264 5 0 0 0 - - -, f 5;
#X obj 332 272 print;
#X obj 277 129 list split 1;
#X msg 156 30 C#3;
#X obj 184 390 ggee/image ;
#X connect 0 0 3 0;
#X connect 1 0 36 0;
#X connect 2 0 0 0;
#X connect 2 1 1 0;
#X connect 3 0 36 0;
#X connect 4 0 2 0;
#X connect 5 0 4 0;
#X connect 6 0 0 1;
#X connect 6 1 37 1;
#X connect 7 0 12 0;
#X connect 8 0 41 0;
#X connect 9 0 7 0;
#X connect 10 0 7 0;
#X connect 11 0 8 0;
#X connect 13 0 32 1;
#X connect 13 0 39 2;
#X connect 13 0 46 1;
#X connect 14 0 27 2;
#X connect 18 0 32 0;
#X connect 19 0 18 0;
#X connect 20 0 37 0;
#X connect 21 0 43 0;
#X connect 22 0 28 0;
#X connect 23 0 24 2;
#X connect 25 0 24 0;
#X connect 26 0 27 0;
#X connect 28 0 21 0;
#X connect 29 0 35 2;
#X connect 36 0 6 0;
#X connect 41 0 45 0;
#X connect 41 1 44 0;
#X connect 41 2 19 0;
#X connect 41 3 10 0;
#X connect 41 4 9 0;
#X connect 42 0 35 0;
#X connect 43 0 20 0;
#X connect 44 0 39 0;
#X connect 45 0 46 0;
#X connect 47 0 50 0;
#X connect 48 0 53 0;
#X connect 50 0 48 0;
#X connect 51 0 48 1;
#X connect 52 0 51 0;
#X connect 53 1 59 0;
#X connect 54 0 50 0;
#X connect 55 0 56 0;
#X connect 55 1 58 0;
#X connect 59 0 49 0;
#X connect 59 0 55 0;
#X connect 60 0 50 0;
