#N canvas 459 139 393 565 10;
#X obj 48 214 osc~;
#X obj 30 327 +~;
#X obj 56 161 t b f;
#X obj 30 117 mtof;
#X obj 87 52 route \$1;
#X obj 87 73 unpack;
#X obj 125 444 line~;
#X obj 110 471 *~;
#X obj 197 331 / 127;
#X obj 133 308 sel 0, f 11;
#X obj 17 214 sig~;
#X msg 208 399 0 5;
#X obj 197 352 pack 0 10;
#X obj 85 361 pack 0 10;
#X obj 30 349 osc~;
#X obj 47 192 * 3;
#X obj 48 302 *~ 500;
#X obj 87 32 r \$2-carrier;
#X obj 57 139 r \$2-ratio;
#X obj 81 278 r \$2-index;
#X obj 208 376 r \$2-panic-chords;
#X obj 110 493 throw~ \$2-synth-out;
#X obj 248 331 r \$2-A;
#X obj 138 339 r \$2-R;
#X connect 0 0 16 0;
#X connect 1 0 14 0;
#X connect 2 0 15 0;
#X connect 2 1 15 1;
#X connect 3 0 10 0;
#X connect 3 0 15 0;
#X connect 4 0 5 0;
#X connect 5 0 3 0;
#X connect 5 1 9 0;
#X connect 6 0 7 1;
#X connect 7 0 21 0;
#X connect 8 0 12 0;
#X connect 9 0 13 0;
#X connect 9 1 8 0;
#X connect 10 0 1 0;
#X connect 11 0 6 0;
#X connect 12 0 6 0;
#X connect 13 0 6 0;
#X connect 14 0 7 0;
#X connect 15 0 0 0;
#X connect 16 0 1 1;
#X connect 17 0 4 0;
#X connect 18 0 2 0;
#X connect 19 0 16 1;
#X connect 20 0 11 0;
#X connect 22 0 12 1;
#X connect 23 0 13 1;
