#N struct slave-chord float x float dur symbol chordname;
#N struct master-chord float x float dur symbol chordname;
#N struct beat float x;
#N struct line float pos float color;
#N canvas 206 23 848 561 10;
#N canvas 789 423 334 157 line 0;
#X obj 32 11 struct line float pos float color;
#X obj 35 43 drawpolygon color 1 pos 20 pos 150;
#X restore 9 81 pd line;
#N canvas 449 147 719 445 grid-generator 0;
#X obj 390 194 pointer;
#X obj 371 92 bng 15 250 50 0 empty empty empty 17 7 0 10 -262144 -1
-1;
#X msg 111 40 33;
#X obj 44 154 * 25;
#X msg 410 134 \; pd-data clear;
#X msg 390 172 traverse pd-data \, bang;
#X obj 111 63 forloop 0;
#X obj 46 184 + 25;
#X obj 119 129 mod 4;
#X obj 84 300 append line pos color;
#X obj 119 151 sel 0;
#X obj 153 179 t b;
#X obj 111 86 t f f f;
#X obj 202 152 sel 0;
#X msg 201 189 900;
#X obj 202 130 mod 16;
#X msg 315 315 25;
#X obj 371 111 t b b b b;
#X obj 315 348 append beat x;
#X msg 157 210 333;
#X msg 118 188 666;
#X msg 441 295 25;
#X floatatom 552 223 5 0 0 0 - - -, f 5;
#X obj 453 334 append master-chord x;
#X msg 491 366 25;
#X floatatom 662 304 5 0 0 0 - - -, f 5;
#X obj 563 378 append slave-chord x;
#X connect 0 0 18 1;
#X connect 0 0 9 2;
#X connect 0 0 23 1;
#X connect 0 0 26 1;
#X connect 1 0 17 0;
#X connect 2 0 6 0;
#X connect 3 0 7 0;
#X connect 4 0 0 0;
#X connect 5 0 0 0;
#X connect 6 0 12 0;
#X connect 7 0 9 0;
#X connect 8 0 10 0;
#X connect 10 0 20 0;
#X connect 10 1 11 0;
#X connect 11 0 19 0;
#X connect 12 0 3 0;
#X connect 12 1 15 0;
#X connect 12 2 8 0;
#X connect 13 0 14 0;
#X connect 14 0 9 1;
#X connect 15 0 13 0;
#X connect 16 0 18 0;
#X connect 16 0 21 0;
#X connect 17 0 16 0;
#X connect 17 1 2 0;
#X connect 17 2 5 0;
#X connect 17 3 4 0;
#X connect 19 0 9 1;
#X connect 20 0 9 1;
#X connect 21 0 23 0;
#X connect 21 0 24 0;
#X connect 22 0 23 0;
#X connect 24 0 26 0;
#X connect 25 0 26 0;
#X restore 9 54 pd grid-generator;
#N canvas 789 423 334 157 beat 0;
#X obj 6 11 struct beat float x;
#X obj 7 55 drawpolygon 222 2 0 150 100 150;
#X obj 7 35 drawpolygon 222 2 0 20 100 20;
#X restore 9 111 pd beat;
#X obj 211 209 set beat x;
#X obj 211 98 r current_step;
#X obj 211 120 div 4;
#X obj 211 141 change;
#X obj 211 186 + 25;
#X obj 211 164 * 100;
#N canvas 0 22 959 334 data 0;
#X scalar slave-chord 25 0 symbol \;;
#X scalar master-chord 25 0 symbol \;;
#X scalar beat 25 \;;
#X scalar line 25 900 \;;
#X scalar line 50 333 \;;
#X scalar line 75 333 \;;
#X scalar line 100 333 \;;
#X scalar line 125 666 \;;
#X scalar line 150 333 \;;
#X scalar line 175 333 \;;
#X scalar line 200 333 \;;
#X scalar line 225 666 \;;
#X scalar line 250 333 \;;
#X scalar line 275 333 \;;
#X scalar line 300 333 \;;
#X scalar line 325 666 \;;
#X scalar line 350 333 \;;
#X scalar line 375 333 \;;
#X scalar line 400 333 \;;
#X scalar line 425 900 \;;
#X scalar line 450 333 \;;
#X scalar line 475 333 \;;
#X scalar line 500 333 \;;
#X scalar line 525 666 \;;
#X scalar line 550 333 \;;
#X scalar line 575 333 \;;
#X scalar line 600 333 \;;
#X scalar line 625 666 \;;
#X scalar line 650 333 \;;
#X scalar line 675 333 \;;
#X scalar line 700 333 \;;
#X scalar line 725 666 \;;
#X scalar line 750 333 \;;
#X scalar line 775 333 \;;
#X scalar line 800 333 \;;
#X scalar line 825 900 \;;
#X coords 0 0 850 170 800 170 2 0 0;
#X restore -4 300 pd data;
#X floatatom 354 87 5 0 0 0 - - -, f 5;
#N canvas 698 423 401 161 master-chord 1;
#X obj 5 8 struct master-chord float x float dur symbol chordname;
#X obj 7 36 filledpolygon 444 444 1 0 50 100 50 100 145 0 145;
#X obj 7 62 drawsymbol chordname 5 55 999;
#X restore 9 141 pd master-chord;
#X obj 604 91 abs/master-chord-structure;
#X obj 493 247 set -symbol master-chord chordname;
#X msg 484 222 symbol Am;
#X obj 434 124 pointer beat master-chord;
#X obj 429 171 print a;
#X obj 509 176 print v;
#X obj 610 136 print vaa;
#X obj 618 166 print otro;
#X obj 458 76 until;
#X msg 434 42 traverse pd-data;
#X obj 455 15 t b b;
#X msg 458 99 next;
#X obj 572 51 bng 15 250 50 0 empty empty empty 17 7 0 10 -262144 -1
-1;
#N canvas 698 423 401 161 slave-chord 1;
#X obj 5 8 struct slave-chord float x float dur symbol chordname;
#X obj 7 36 filledpolygon 222 222 1 0 90 100 90 100 145 0 145;
#X obj 7 62 drawsymbol chordname 5 95 999;
#X restore 9 171 pd slave-chord;
#X connect 4 0 5 0;
#X connect 5 0 6 0;
#X connect 6 0 8 0;
#X connect 7 0 3 0;
#X connect 8 0 7 0;
#X connect 10 0 5 0;
#X connect 14 0 13 0;
#X connect 15 0 3 1;
#X connect 15 0 16 0;
#X connect 15 1 13 1;
#X connect 15 1 17 0;
#X connect 15 2 19 0;
#X connect 15 3 18 0;
#X connect 15 3 20 1;
#X connect 20 0 23 0;
#X connect 21 0 15 0;
#X connect 22 0 20 0;
#X connect 22 1 21 0;
#X connect 23 0 15 0;
#X connect 24 0 22 0;
