#N struct 1005-line float pos;
#N canvas 284 371 633 361 8;
#X obj 333 178 pointer;
#X obj 259 71 \$0;
#X msg 333 113 traverse pd-\$1-data \, bang;
#X msg 370 135 \; pd-\$1-data clear;
#N canvas 84 234 376 410 \$0-data 0;
#X scalar 1005-line 9.34921 \;;
#X coords 0 0 106 15 106 15 2 100 100;
#X restore 80 150 pd \$0-data;
#X obj 10 45 inlet;
#X msg 259 113 next;
#X obj 259 92 t b b f f, f 19;
#X obj 80 210 outlet;
#X obj 296 113 \$2;
#X obj 90 191 s \$1;
#X obj 17 64 r set-\$1;
#N canvas 357 104 277 84 line 0;
#X obj 12 11 struct \$0-line float pos;
#X obj 14 31 drawpolygon 955 3 pos -5 pos 5;
#X restore 9 311 pd line;
#X obj 83 150 hsl 101 15 0 100 0 0 \$0-out \$0-in empty -2 -8 0 10
-66577 -258113 -258113 6300 0;
#X obj 296 178 + 3;
#X obj 10 267 + 3;
#X obj 296 242 append \$0-line pos;
#X obj 10 288 set \$0-line pos;
#X obj 10 93 route mark;
#X obj 80 93 route float;
#X obj 279 34 loadbang;
#X obj 10 247 vabs/vscale \$3 \$4 0 100;
#X obj 80 128 vabs/vscale 0 127 0 100;
#X obj 80 171 vabs/vscale 0 100 \$3 \$4;
#X connect 0 0 16 1;
#X connect 0 0 17 1;
#X connect 1 0 7 0;
#X connect 2 0 0 0;
#X connect 3 0 0 0;
#X connect 5 0 18 0;
#X connect 6 0 0 0;
#X connect 7 0 6 0;
#X connect 7 1 9 0;
#X connect 7 2 2 0;
#X connect 7 3 3 0;
#X connect 9 0 14 0;
#X connect 11 0 18 0;
#X connect 13 0 23 0;
#X connect 14 0 16 0;
#X connect 15 0 17 0;
#X connect 18 0 21 0;
#X connect 18 1 19 0;
#X connect 19 0 22 0;
#X connect 19 1 13 0;
#X connect 20 0 1 0;
#X connect 21 0 15 0;
#X connect 22 0 13 0;
#X connect 23 0 10 0;
#X connect 23 0 8 0;
#X coords 0 -1 1 1 106 15 2 80 150;
