#N canvas 282 199 502 491 10;
#X obj 24 15 inlet;
#X obj 31 281 outlet;
#X obj 24 87 vabs/list-dripv;
#X obj 147 16 inlet;
#X obj 106 62 list length;
#X obj 88 209 ==;
#X obj 24 40 t l l b, f 24;
#X obj 24 131 vabs/add2list prepend, f 24;
#X obj 24 152 t l l;
#X obj 31 256 list;
#X obj 24 174 list length;
#X obj 88 230 sel 1;
#X obj 24 109 pow \$1, f 18;
#X connect 0 0 6 0;
#X connect 2 0 12 0;
#X connect 3 0 12 1;
#X connect 4 0 5 1;
#X connect 5 0 11 0;
#X connect 6 0 2 0;
#X connect 6 1 4 0;
#X connect 6 2 7 1;
#X connect 7 0 8 0;
#X connect 8 0 10 0;
#X connect 8 1 9 1;
#X connect 9 0 1 0;
#X connect 10 0 5 0;
#X connect 11 0 9 0;
#X connect 12 0 7 0;
