#N canvas 532 347 341 353 8;
#X obj 13 32 inlet;
#X obj 47 231 outlet;
#X obj 62 153 f \$4;
#X obj 62 173 - \$3;
#X obj 28 116 f \$2;
#X obj 28 135 - \$1;
#X obj 47 211 + \$3;
#X obj 35 93 t b b;
#X obj 47 192 * 1;
#X obj 13 154 /;
#X obj 35 72 loadbang;
#X connect 0 0 9 0;
#X connect 2 0 3 0;
#X connect 3 0 8 1;
#X connect 4 0 5 0;
#X connect 5 0 9 1;
#X connect 6 0 1 0;
#X connect 7 0 4 0;
#X connect 7 1 2 0;
#X connect 8 0 6 0;
#X connect 9 0 8 0;
#X connect 10 0 7 0;
