#N canvas 0 22 779 609 10;
#X obj 228 37 mrpeach/unpackOSC;
#X obj 8 173 mrpeach/udpsend;
#X obj 15 152 mrpeach/packOSC;
#X obj 8 24 loadbang;
#X obj 15 110 r to-gui;
#X obj 228 14 mrpeach/udpreceive 7110;
#X obj 228 547 s tempo;
#X obj 258 528 s density;
#X obj 318 432 s saturation;
#X obj 349 412 s substitution;
#X obj 379 392 s activity;
#X obj 409 372 s register;
#X obj 439 352 s inversion;
#X obj 500 308 s play;
#X obj 8 66 delay 800;
#X obj 470 332 s load_midi_file;
#X obj 545 308 s to-gui;
#X obj 545 283 prepend /play;
#X msg 545 248 Stop;
#X msg 577 248 Play;
#X obj 545 223 sel 1 0;
#X obj 228 120 mrpeach/routeOSC /tempo /density /legato /saturation
/substitution /activity /register /inversion /load /play /quit;
#X msg 547 183 \; pd quit;
#X floatatom 8 193 5 0 0 0 - - -;
#X obj 245 98 print;
#X obj 245 77 spigot 0;
#X obj 313 62 tgl 15 0 empty empty empty 17 7 0 10 -262144 -1 -1 0
1;
#X obj 288 504 s legato;
#X obj 288 482 min 32;
#X obj 296 461 s force-legato;
#X text 19 46 DISCONNECTED!;
#X msg 8 88 disconnect \, connect localhost 7112;
#X text 14 130 DISCONNECTED!;
#X connect 0 0 21 0;
#X connect 0 0 25 0;
#X connect 1 0 23 0;
#X connect 2 0 1 0;
#X connect 5 0 0 0;
#X connect 14 0 31 0;
#X connect 17 0 16 0;
#X connect 18 0 17 0;
#X connect 19 0 17 0;
#X connect 20 0 18 0;
#X connect 20 1 19 0;
#X connect 21 0 6 0;
#X connect 21 1 7 0;
#X connect 21 2 28 0;
#X connect 21 2 29 0;
#X connect 21 3 8 0;
#X connect 21 4 9 0;
#X connect 21 5 10 0;
#X connect 21 6 11 0;
#X connect 21 7 12 0;
#X connect 21 8 15 0;
#X connect 21 9 13 0;
#X connect 21 9 20 0;
#X connect 21 10 22 0;
#X connect 25 0 24 0;
#X connect 26 0 25 1;
#X connect 28 0 27 0;
#X connect 31 0 1 0;
