#N canvas 58 127 624 569 10;
#X obj 100 100 bng 38 250 50 0 empty \$0-butt empty 17 7 0 10 -33289
-33289 -33289;
#X obj 100 100 cnv 15 38 38 empty \$0-butt empty 20 12 0 14 -33289
-33289 0;
#X obj 100 141 f \$0;
#X obj 114 340 pack f f;
#X floatatom 163 158 5 0 0 0 - - -, f 5;
#X msg 114 361 \; \$1-butt color \$2 \$2 \$2;
#X msg 185 314 12;
#X obj 139 249 f;
#X obj 154 191 + 1;
#X obj 158 292 sel 0 1 2;
#X obj 154 231 nbx 5 14 -1e+37 1e+37 0 1 empty empty empty 0 -8 0 10
-262144 -1 -1 2 256;
#X obj 371 480 s save \$1;
#X obj 288 285 symbol \$1;
#X obj 288 266 t b f;
#X obj 372 281 loadbang;
#X msg 372 301 symbol;
#X obj 288 366 list split 4;
#X obj 371 461 pack f f;
#X obj 372 376 loadbang;
#X msg 372 396 symbol;
#X obj 64 199 r \$1;
#X obj 64 219 t b f;
#X msg 47 170 0;
#X msg 22 191 1;
#X obj 154 211 clip 0 2;
#X obj 288 247 f;
#X obj 100 165 t b f b;
#X text 249 160 31 12 14;
#X msg 158 314 1;
#X msg 28 226 2;
#X msg 212 314 13;
#N canvas 886 308 450 300 getid 0;
#X obj 85 63 symbol \$1;
#X obj 177 69 loadbang;
#X msg 177 89 symbol;
#X obj 85 144 list split 4;
#X obj 200 137 loadbang;
#X msg 200 157 symbol;
#X obj 85 25 inlet;
#X obj 119 233 outlet;
#X obj 119 191 zexy/list2symbol;
#X obj 119 212 zexy/symbol2list;
#X obj 85 125 zexy/symbol2list;
#X connect 0 0 10 0;
#X connect 1 0 2 0;
#X connect 2 0 10 1;
#X connect 3 1 8 0;
#X connect 4 0 5 0;
#X connect 5 0 8 1;
#X connect 6 0 0 0;
#X connect 8 0 9 0;
#X connect 9 0 7 0;
#X connect 10 0 3 0;
#X restore 56 329 pd getid;
#X obj 29 413 s save-update;
#X obj 29 308 t f b;
#X obj 29 394 list;
#X obj 139 273 t f f f;
#X floatatom 193 264 5 0 0 0 - - -, f 5;
#X floatatom 82 271 5 0 0 0 - - -, f 5;
#X obj 114 249 f \$0;
#X obj 322 413 zexy/list2symbol;
#X obj 322 434 zexy/symbol2list;
#X obj 288 347 zexy/symbol2list;
#X connect 0 0 2 0;
#X connect 2 0 4 0;
#X connect 2 0 26 0;
#X connect 3 0 5 0;
#X connect 6 0 3 1;
#X connect 7 0 8 0;
#X connect 7 0 35 0;
#X connect 7 0 36 0;
#X connect 8 0 24 0;
#X connect 9 0 28 0;
#X connect 9 1 6 0;
#X connect 9 2 30 0;
#X connect 10 0 7 1;
#X connect 12 0 41 0;
#X connect 13 0 12 0;
#X connect 13 1 17 1;
#X connect 14 0 15 0;
#X connect 15 0 41 1;
#X connect 16 1 39 0;
#X connect 17 0 11 0;
#X connect 18 0 19 0;
#X connect 19 0 39 1;
#X connect 20 0 21 0;
#X connect 21 0 38 0;
#X connect 21 1 7 0;
#X connect 22 0 21 0;
#X connect 23 0 21 0;
#X connect 24 0 10 0;
#X connect 25 0 13 0;
#X connect 26 0 25 0;
#X connect 26 1 38 0;
#X connect 26 2 7 0;
#X connect 28 0 3 1;
#X connect 29 0 21 0;
#X connect 30 0 3 1;
#X connect 31 0 34 1;
#X connect 33 0 34 0;
#X connect 33 1 31 0;
#X connect 34 0 32 0;
#X connect 35 0 33 0;
#X connect 35 1 9 0;
#X connect 35 2 25 1;
#X connect 38 0 3 0;
#X connect 38 0 37 0;
#X connect 39 0 40 0;
#X connect 40 0 17 0;
#X connect 41 0 16 0;
#X coords 0 -1 1 1 38 38 2 100 100;
