#N canvas 561 196 545 356 10;
#X obj 179 235 gemlist;
#X obj 179 196 until;
#X obj 116 116 route gem_state;
#X obj 116 138 route float;
#X obj 116 96 t a a;
#X obj 179 215 t b b;
#X obj 179 253 separator;
#X obj 179 179 f 100;
#X obj 436 310 outlet;
#X obj 291 307 outlet;
#X obj 179 306 outlet;
#X obj 364 96 inlet;
#X obj 291 263 f;
#X obj 337 272 + 1;
#X obj 179 159 t b b b;
#X msg 277 230 0;
#X obj 116 45 gemhead 1;
#X obj 116 25 inlet;
#X obj 376 136 loadbang;
#X obj 376 155 f \$1;
#X connect 0 0 6 0;
#X connect 1 0 5 0;
#X connect 2 0 3 0;
#X connect 3 1 14 0;
#X connect 4 0 2 0;
#X connect 4 1 0 1;
#X connect 5 0 0 0;
#X connect 5 1 12 0;
#X connect 6 0 10 0;
#X connect 7 0 1 0;
#X connect 11 0 7 1;
#X connect 12 0 13 0;
#X connect 12 0 9 0;
#X connect 13 0 12 1;
#X connect 14 0 7 0;
#X connect 14 1 15 0;
#X connect 14 2 8 0;
#X connect 15 0 12 1;
#X connect 16 0 4 0;
#X connect 17 0 16 0;
#X connect 18 0 19 0;
#X connect 19 0 7 1;
