#N canvas 573 219 692 480 10;
#X obj 67 362 gemwin;
#X msg 115 345 0 \, destroy;
#X msg 81 118 bang;
#X obj 187 111 pix_write;
#X obj 187 69 loadbang;
#X msg 134 86 bang;
#X obj 348 86 gemhead;
#X obj 33 101 sel 1 0;
#X obj 23 49 tgl 15 0 empty empty empty 17 7 0 10 -262144 -1 -1 0 1
;
#X msg 40 48 save;
#X obj 33 69 route float;
#X obj 79 26 inlet;
#X obj 423 71 inlet;
#X obj 399 159 \$1;
#X obj 436 159 \$2;
#X obj 399 116 loadbang;
#X obj 399 176 sel 0;
#X obj 436 176 sel 0;
#X obj 411 235 f;
#X obj 448 235 f;
#X obj 33 281 list split 1;
#X obj 488 176 sel 0;
#X obj 500 235 f;
#X obj 488 159 \$3;
#X text 385 191 x;
#X obj 538 178 sel 0;
#X obj 550 235 f;
#X obj 400 133 t b b b b;
#X obj 538 161 \$4;
#X obj 33 252 pack f f f f f;
#X msg 538 197 10;
#X msg 488 195 10;
#X msg 398 196 100;
#X msg 436 195 100;
#X obj 33 180 t b b b b b;
#X msg 67 305 reset \, topmost 1 \, offset \$3 \$4 \, border 0 \, dimen
\$1 \$2 \, color 1 1 1 \, create \, 1;
#X msg 187 87 file GEMrender 1000;
#X connect 1 0 0 0;
#X connect 2 0 1 0;
#X connect 4 0 36 0;
#X connect 5 0 3 0;
#X connect 6 0 3 0;
#X connect 7 0 34 0;
#X connect 7 1 2 0;
#X connect 8 0 10 0;
#X connect 9 0 10 0;
#X connect 10 0 7 0;
#X connect 10 1 5 0;
#X connect 11 0 10 0;
#X connect 12 0 0 0;
#X connect 13 0 16 0;
#X connect 14 0 17 0;
#X connect 15 0 27 0;
#X connect 16 0 32 0;
#X connect 16 1 18 1;
#X connect 17 0 33 0;
#X connect 17 1 19 1;
#X connect 18 0 29 1;
#X connect 19 0 29 2;
#X connect 20 1 35 0;
#X connect 21 0 31 0;
#X connect 21 1 22 1;
#X connect 22 0 29 3;
#X connect 23 0 21 0;
#X connect 25 0 30 0;
#X connect 25 1 26 1;
#X connect 26 0 29 4;
#X connect 27 0 13 0;
#X connect 27 1 14 0;
#X connect 27 2 23 0;
#X connect 27 3 28 0;
#X connect 28 0 25 0;
#X connect 29 0 20 0;
#X connect 30 0 26 1;
#X connect 31 0 22 1;
#X connect 32 0 18 0;
#X connect 33 0 19 1;
#X connect 34 0 29 0;
#X connect 34 1 18 0;
#X connect 34 2 19 0;
#X connect 34 3 22 0;
#X connect 34 4 26 0;
#X connect 35 0 0 0;
#X connect 36 0 3 0;
