#N canvas 570 166 561 421 10;
#X obj 103 323 text2d;
#X msg 431 172 text \$1;
#X obj 431 154 symbol;
#X obj 431 134 l2s;
#X obj 103 242 translateXYZ;
#X obj 212 59 loadbang;
#X obj 211 102 \$1;
#X obj 235 102 \$2;
#X obj 259 102 \$3;
#X obj 431 114 symbol \$4;
#X obj 103 18 inlet;
#X obj 444 46 inlet;
#X obj 444 84 t b a;
#X obj 444 65 l2s;
#X obj 5 79 loadbang;
#X msg 5 98 font Asimov.otf;
#X obj 103 55 gemhead 10;
#X text 437 29 input text;
#X text 219 30 arguments;
#X obj 287 102 \$4;
#X obj 311 102 \$5;
#X obj 335 102 \$6;
#X obj 211 78 t b b b b b b;
#X text 207 41 size xpos ypos [r g b];
#X obj 103 278 colorRGB;
#X obj 239 286 loadbang;
#X msg 239 306 alias 1;
#X connect 1 0 0 0;
#X connect 2 0 1 0;
#X connect 3 0 2 0;
#X connect 4 0 24 0;
#X connect 5 0 22 0;
#X connect 6 0 0 1;
#X connect 7 0 4 1;
#X connect 8 0 4 2;
#X connect 9 0 3 0;
#X connect 10 0 16 0;
#X connect 11 0 13 0;
#X connect 12 0 9 0;
#X connect 12 1 9 1;
#X connect 13 0 12 0;
#X connect 14 0 15 0;
#X connect 15 0 0 0;
#X connect 16 0 4 0;
#X connect 19 0 24 1;
#X connect 20 0 24 2;
#X connect 21 0 24 3;
#X connect 22 0 6 0;
#X connect 22 1 7 0;
#X connect 22 2 8 0;
#X connect 22 3 19 0;
#X connect 22 4 20 0;
#X connect 22 5 21 0;
#X connect 24 0 0 0;
#X connect 25 0 26 0;
#X connect 26 0 0 0;
