#N canvas 315 117 955 497 10;
#X obj 346 11 inlet a long list;
#X obj 586 433 table \$0-histogram 1;
#X obj 346 108 unique;
#X obj 496 169 list length;
#X obj 496 207 \$0;
#X obj 496 226 pack;
#X msg 496 245 \; \$1-histogram resize \$2;
#X text 387 108 find uniques in a list;
#N canvas 572 292 450 300 drip 0;
#X obj 40 41 inlet;
#X obj 45 82 list split 1;
#X obj 39 114 t b a;
#X obj 108 139 list;
#X obj 66 195 outlet;
#X connect 0 0 1 0;
#X connect 1 0 2 0;
#X connect 1 1 3 1;
#X connect 2 0 3 0;
#X connect 2 1 4 0;
#X connect 3 0 1 0;
#X restore 363 176 pd drip;
#N canvas 575 294 450 300 drip 0;
#X obj 40 41 inlet;
#X obj 45 82 list split 1;
#X obj 39 114 t b a;
#X obj 108 139 list;
#X obj 66 195 outlet;
#X connect 0 0 1 0;
#X connect 1 0 2 0;
#X connect 1 1 3 1;
#X connect 2 0 3 0;
#X connect 2 1 4 0;
#X connect 3 0 1 0;
#X restore 378 260 pd drip;
#X obj 378 292 sel x;
#X obj 496 352 f;
#X obj 521 352 + 1;
#X obj 378 240 list;
#X obj 511 301 r \$0-resetcount;
#X obj 378 324 f;
#X obj 403 324 + 1;
#X obj 363 364 f;
#X msg 511 320 0;
#X obj 363 202 t b b a b b;
#X msg 445 298 1;
#X obj 453 414 pack;
#X obj 453 434 tabwrite \$0-histogram;
#X obj 346 127 t b a a a;
#X msg 346 33 b b c d a c c a ac a b d;
#X obj 61 18 inlet a weight;
#X obj 125 181 tabdump \$0-histogram;
#X obj 80 460 outlet weighted and normalized histogram;
#X obj 88 133 sel 0;
#X obj 577 205 zerolist;
#X obj 496 188 t b f f;
#X obj 577 224 s output-in-case-of-zero;
#X obj 143 132 r output-in-case-of-zero;
#X obj 88 176 list;
#N canvas 886 452 450 300 group 0;
#X obj 26 53 list split 1;
#X obj 105 53 list split 1;
#X obj 143 121 list;
#X obj 26 74 t b b a;
#X obj 86 120 list;
#X obj 26 6 inlet;
#X obj 77 208 outlet;
#X obj 105 5 inlet list unique;
#X obj 87 30 list;
#X obj 45 28 t a b;
#X obj 77 176 list prepend;
#X connect 0 0 3 0;
#X connect 0 1 4 1;
#X connect 1 0 10 1;
#X connect 1 1 2 1;
#X connect 2 0 1 0;
#X connect 3 0 4 0;
#X connect 3 1 2 0;
#X connect 3 2 10 0;
#X connect 4 0 0 0;
#X connect 5 0 9 0;
#X connect 7 0 8 1;
#X connect 8 0 1 0;
#X connect 9 0 0 0;
#X connect 9 1 8 0;
#X connect 10 0 6 0;
#X restore 100 394 pd group in pairs;
#X obj 190 420 list;
#X obj 80 439 list;
#X obj 61 353 t b b a;
#X obj 101 419 list prepend;
#X obj 346 51 t b a a b;
#X obj 397 71 s \$0-resetcount;
#X obj 61 87 f;
#X text 565 25 input a list and a weight and output a histogram of
the unique elements interleaved with their normalized probabilities
multiplied by the weight.;
#X text 673 91 0.5;
#X text 748 92 a a b b c;
#X text 706 140 a 0.5 b 0.5 c 0.25;
#N canvas 393 298 450 300 normalize 0;
#X obj 164 65 inlet;
#X text 150 47 entra una lista;
#X obj 164 89 t a a;
#X obj 235 125 sum;
#N canvas 174 183 676 471 list_divide_f 0;
#X obj 259 39 inlet;
#X obj 473 26 inlet;
#X obj 335 166 list split 1;
#X obj 380 246 list;
#X obj 312 191 t b b f;
#X obj 511 373 list;
#X obj 298 432 list;
#X obj 298 452 outlet;
#X msg 618 113 bang;
#X obj 298 132 t b a b b;
#X obj 443 365 t a a;
#X obj 443 344 list prepend;
#X obj 443 237 /;
#X text 471 8 float;
#X obj 458 174 f;
#X text 202 9 list with probabilities;
#X obj 443 298 *;
#X obj 81 41 inlet weight;
#X connect 0 0 9 0;
#X connect 1 0 14 1;
#X connect 2 0 4 0;
#X connect 2 1 3 1;
#X connect 3 0 2 0;
#X connect 4 0 3 0;
#X connect 4 2 12 0;
#X connect 5 0 11 1;
#X connect 6 0 7 0;
#X connect 8 0 11 1;
#X connect 9 0 6 0;
#X connect 9 1 2 0;
#X connect 9 2 8 0;
#X connect 9 3 14 0;
#X connect 10 0 6 1;
#X connect 10 1 5 0;
#X connect 11 0 10 0;
#X connect 12 0 16 0;
#X connect 14 0 12 1;
#X connect 16 0 11 0;
#X connect 17 0 16 1;
#X restore 118 176 pd list_divide_f;
#X obj 118 215 outlet;
#X text 118 232 sale normalizada;
#X obj 57 71 inlet weihgt;
#X text 58 49 entra un peso;
#X connect 0 0 2 0;
#X connect 2 0 4 1;
#X connect 2 1 3 0;
#X connect 3 0 4 2;
#X connect 4 0 5 0;
#X connect 7 0 4 0;
#X restore 61 318 pd normalize and weight;
#X obj 61 106 t f f;
#X msg 125 161 bang;
#X obj 363 464 outlet pairs;
#X connect 0 0 39 0;
#X connect 2 0 23 0;
#X connect 3 0 30 0;
#X connect 4 0 5 0;
#X connect 5 0 6 0;
#X connect 8 0 19 0;
#X connect 9 0 10 0;
#X connect 10 0 15 0;
#X connect 11 0 12 0;
#X connect 11 0 21 1;
#X connect 12 0 11 1;
#X connect 13 0 9 0;
#X connect 14 0 18 0;
#X connect 15 0 16 0;
#X connect 15 0 17 1;
#X connect 16 0 15 1;
#X connect 17 0 21 0;
#X connect 18 0 11 1;
#X connect 19 0 17 0;
#X connect 19 1 13 0;
#X connect 19 2 10 1;
#X connect 19 3 20 0;
#X connect 19 4 11 0;
#X connect 20 0 15 1;
#X connect 21 0 22 0;
#X connect 23 1 8 0;
#X connect 23 2 3 0;
#X connect 23 3 34 1;
#X connect 24 0 39 0;
#X connect 25 0 41 0;
#X connect 26 0 46 1;
#X connect 28 0 33 0;
#X connect 28 1 48 0;
#X connect 29 0 31 0;
#X connect 30 0 4 0;
#X connect 30 1 5 1;
#X connect 30 2 29 0;
#X connect 32 0 33 1;
#X connect 33 0 46 1;
#X connect 34 0 38 0;
#X connect 34 0 49 0;
#X connect 35 0 38 1;
#X connect 36 0 27 0;
#X connect 37 0 38 1;
#X connect 37 1 36 0;
#X connect 37 2 34 0;
#X connect 38 0 35 0;
#X connect 38 0 36 1;
#X connect 39 0 41 0;
#X connect 39 1 2 0;
#X connect 39 2 13 1;
#X connect 39 3 40 0;
#X connect 41 0 47 0;
#X connect 46 0 37 0;
#X connect 47 0 46 0;
#X connect 47 1 28 0;
#X connect 48 0 26 0;
