#N canvas 603 141 563 612 10;
#X msg 62 283 color 3;
#X msg 123 282 color 13;
#X obj 100 125 bng 20 250 50 0 empty \$0-init-mem empty 17 7 0 10 -262144
-1 -1;
#X obj 100 100 tgl 20 0 empty empty empty 17 7 0 10 -262144 -1 -1 1
1;
#X obj 183 61 unpack;
#X msg 30 116 set 1;
#X obj 100 235 sel 0 1;
#X msg 270 119 0;
#X msg 321 107 1;
#X obj 263 327 s \$2-unsel;
#X obj 130 15 r \$2-unsel;
#X obj 100 100 cnv 15 20 20 empty \$0-m empty 20 12 0 14 -66577 -262144
0;
#X obj 100 125 cnv 20 20 20 empty \$0-cm empty 20 12 0 14 -66577 -262144
0;
#X obj 130 39 route \$1;
#X obj 123 342 s \$0-m;
#X obj 190 342 s \$0-cm;
#X obj 222 81 spigot 1;
#X obj 263 303 pack \$1 0;
#X msg 160 235 color 2;
#X obj 58 387 \$1;
#X obj 425 300 \$1;
#X obj 58 406 s \$2-store;
#X obj 425 359 s \$2-recall;
#X obj 18 31 r \$2-init-mem;
#X obj 258 23 r \$2-mem\$1sr;
#X obj 264 175 r \$2-mem\$1c;
#X connect 0 0 14 0;
#X connect 0 0 15 0;
#X connect 1 0 14 0;
#X connect 2 0 18 0;
#X connect 2 0 5 0;
#X connect 2 0 7 0;
#X connect 3 0 6 0;
#X connect 3 0 8 0;
#X connect 4 1 16 0;
#X connect 5 0 3 0;
#X connect 6 0 0 0;
#X connect 6 0 19 0;
#X connect 6 1 1 0;
#X connect 6 1 17 0;
#X connect 6 1 20 0;
#X connect 7 0 16 1;
#X connect 8 0 16 1;
#X connect 10 0 13 0;
#X connect 13 1 4 0;
#X connect 16 0 3 0;
#X connect 17 0 9 0;
#X connect 18 0 14 0;
#X connect 18 0 15 0;
#X connect 19 0 21 0;
#X connect 20 0 22 0;
#X connect 23 0 2 0;
#X connect 24 0 3 0;
#X connect 25 0 2 0;
#X coords 0 -1 1 1 20 45 2 100 100;
