#N canvas 143 23 692 653 10;
#X msg 62 303 color 3;
#X msg 123 302 color 13;
#X obj 100 125 bng 20 250 50 0 empty \$0-init-mem empty 17 7 0 10 -262144
-1 -1;
#X obj 100 100 tgl 20 0 empty empty empty 17 7 0 10 -262144 -1 -1 1
1;
#X obj 183 21 unpack;
#X msg 57 137 set 1;
#X obj 100 235 sel 0 1;
#X msg 270 119 0;
#X msg 321 107 1;
#X obj 263 347 s \$2-unsel;
#X obj 138 -25 r \$2-unsel;
#X obj 100 100 cnv 15 20 20 empty \$0-m empty 20 12 0 14 -66577 -262144
0;
#X obj 100 125 cnv 20 20 20 empty \$0-cm empty 20 12 0 14 -66577 -262144
0;
#X obj 138 -1 route \$1;
#X obj 123 362 s \$0-m;
#X obj 190 362 s \$0-cm;
#X obj 216 46 spigot 1;
#X obj 263 323 pack \$1 0;
#X msg 160 235 color 2;
#X obj 38 437 \$1;
#X obj 355 300 \$1;
#X obj 38 515 s \$2-store;
#X obj 355 499 s \$2-recall;
#X obj 18 31 r \$2-init-mem;
#X obj 289 -36 r \$2-mem\$1sr;
#X obj 383 19 r \$2-mem\$1c;
#X obj 365 435 oscformat h_ms\$1 color;
#X obj 365 472 s \$2-to-osc-gui;
#X obj 275 243 s \$2-to-osc-gui;
#X obj 173 461 oscformat h_ms\$1 color;
#X obj 275 215 oscformat h_ms\$1 color;
#X msg 365 414 symbol red;
#X msg 275 190 symbol gray;
#X obj 383 40 sel 1;
#X obj 289 -14 sel 1;
#X msg 173 440 symbol orange;
#X floatatom 265 291 5 0 0 0 - - -, f 5;
#X msg 182 66 set \$1;
#X obj 441 143 sel 0;
#X msg 454 198 color 3;
#X obj 515 257 s \$0-m;
#X connect 0 0 14 0;
#X connect 0 0 15 0;
#X connect 1 0 14 0;
#X connect 2 0 18 0;
#X connect 2 0 5 0;
#X connect 2 0 7 0;
#X connect 2 0 32 0;
#X connect 3 0 6 0;
#X connect 3 0 8 0;
#X connect 4 1 16 0;
#X connect 5 0 3 0;
#X connect 6 0 0 0;
#X connect 6 0 19 0;
#X connect 6 1 1 0;
#X connect 6 1 17 0;
#X connect 6 1 20 0;
#X connect 7 0 16 1;
#X connect 8 0 16 1;
#X connect 10 0 13 0;
#X connect 13 1 4 0;
#X connect 16 0 37 0;
#X connect 16 0 38 0;
#X connect 17 0 9 0;
#X connect 18 0 14 0;
#X connect 18 0 15 0;
#X connect 19 0 21 0;
#X connect 19 0 35 0;
#X connect 20 0 22 0;
#X connect 20 0 31 0;
#X connect 23 0 2 0;
#X connect 24 0 34 0;
#X connect 25 0 33 0;
#X connect 26 0 27 0;
#X connect 29 0 27 0;
#X connect 30 0 28 0;
#X connect 31 0 26 0;
#X connect 32 0 30 0;
#X connect 33 0 2 0;
#X connect 34 0 3 0;
#X connect 35 0 29 0;
#X connect 36 0 17 0;
#X connect 37 0 3 0;
#X connect 38 0 39 0;
#X connect 39 0 40 0;
#X coords 0 -1 1 1 20 45 2 100 100;
