#N canvas 0 115 1243 644 10;
#X obj 100 100 tgl 20 1 no not empty -59 10 0 10 -191407 -258113 -1
0 1;
#X obj 120 100 tgl 20 1 no noo empty 17 7 0 10 -191407 -258113 -1 0
1;
#X obj 140 100 tgl 20 1 no noo empty 17 7 0 10 -191407 -258113 -1 0
1;
#X obj 160 100 tgl 20 1 no noo empty 17 7 0 10 -191407 -258113 -1 0
1;
#X obj 180 100 tgl 20 1 no noo empty 17 7 0 10 -191407 -258113 -1 0
1;
#X obj 200 100 tgl 20 1 no noo empty 17 7 0 10 -191407 -258113 -1 0
1;
#X obj 220 100 tgl 20 1 no noo empty 17 7 0 10 -191407 -258113 -1 0
1;
#X obj 240 100 tgl 20 1 no noo empty 17 7 0 10 -191407 -258113 -1 0
1;
#X msg 139 169 1;
#X obj 100 152 t f b;
#X obj 120 208 t f b;
#X msg 157 209 2;
#X obj 140 249 t f b;
#X msg 178 265 3;
#X obj 160 317 t f b;
#X msg 198 334 4;
#X obj 180 134 t f b;
#X msg 216 149 5;
#X obj 200 193 t f b;
#X msg 239 212 6;
#X obj 220 262 t f b;
#X msg 258 279 7;
#X obj 240 321 t f b;
#X msg 278 337 8;
#X msg 926 120 bang;
#X obj 260 100 tgl 20 1 no noo empty 17 7 0 10 -191407 -258113 -1 0
1;
#X obj 280 100 tgl 20 1 no noo empty 17 7 0 10 -191407 -258113 -1 0
1;
#X obj 300 100 tgl 20 1 no noo empty 17 7 0 10 -191407 -258113 -1 0
1;
#X obj 320 100 tgl 20 1 no noo empty 17 7 0 10 -191407 -258113 -1 0
1;
#X obj 340 100 tgl 20 1 no noo empty 17 7 0 10 -191407 -258113 -1 0
1;
#X obj 360 100 tgl 20 1 no noo empty 17 7 0 10 -191407 -258113 -1 0
1;
#X obj 380 100 tgl 20 1 no noo empty 17 7 0 10 -191407 -258113 -1 0
1;
#X obj 400 100 tgl 20 1 no noo empty 17 7 0 10 -191407 -258113 -1 0
1;
#X obj 260 137 t f b;
#X obj 280 206 t f b;
#X obj 300 263 t f b;
#X obj 320 320 t f b;
#X obj 340 143 t f b;
#X obj 360 208 t f b;
#X obj 380 269 t f b;
#X obj 400 322 t f b;
#X msg 969 120 bang;
#X msg 299 154 9;
#X msg 318 223 10;
#X msg 338 280 11;
#X msg 358 337 12;
#X msg 376 158 13;
#X msg 423 225 14;
#X msg 418 286 15;
#X msg 438 339 16;
#X obj 809 21 loadbang;
#X obj 120 231 tabwrite \$1;
#X obj 100 188 tabwrite \$1;
#X obj 140 286 tabwrite \$1;
#X obj 160 355 tabwrite \$1;
#X obj 180 170 tabwrite \$1;
#X obj 200 233 tabwrite \$1;
#X obj 220 300 tabwrite \$1;
#X obj 240 358 tabwrite \$1;
#X obj 260 174 tabwrite \$1;
#X obj 280 245 tabwrite \$1;
#X obj 300 301 tabwrite \$1;
#X obj 320 358 tabwrite \$1;
#X obj 340 175 tabwrite \$1;
#X obj 360 243 tabwrite \$1;
#X obj 380 303 tabwrite \$1;
#X obj 400 358 tabwrite \$1;
#X obj 910 560 s;
#X obj 888 57 symbol \$1-change;
#X obj 100 57 symbol \$1;
#X msg 100 77 label \$1;
#X msg 855 499 set \$1;
#X obj 828 465 symbol \$1;
#X text 937 538 send a message called \$1-change;
#X text 937 556 with the array name and the string;
#X obj 827 543 list prepend;
#X obj 828 482 t a a;
#X obj 809 40 t b b b;
#X obj 827 579 outlet;
#X text 868 579 output array name and the string;
#X obj 148 17 inlet;
#X obj 233 36 r \$1-string;
#X text 1005 26 Make a table called \$1;
#X text 1004 37 And write the string;
#X text 1004 47 with a 0 prepending;
#X obj 281 501 table \$1 33;
#X obj 148 36 list split 32;
#X obj 233 57 unpack f f f f f f f f f f f f f f f f f f f f f f f
f f f f f f f f f;
#X obj 386 2 r \$1-allocate;
#X obj 386 21 route 0 1 2 3 4 5 6 7 8 9 10 11 12 13 14 15 16 17 18
19 20 21 22 23 24 25 26 27 28 29 30 31;
#X obj 827 516 zexy/tabdump \$1;
#X connect 0 0 9 0;
#X connect 0 0 24 0;
#X connect 1 0 10 0;
#X connect 1 0 24 0;
#X connect 2 0 12 0;
#X connect 2 0 24 0;
#X connect 3 0 14 0;
#X connect 3 0 24 0;
#X connect 4 0 16 0;
#X connect 4 0 24 0;
#X connect 5 0 18 0;
#X connect 5 0 24 0;
#X connect 6 0 20 0;
#X connect 6 0 24 0;
#X connect 7 0 22 0;
#X connect 7 0 24 0;
#X connect 8 0 52 1;
#X connect 9 0 52 0;
#X connect 9 1 8 0;
#X connect 10 0 51 0;
#X connect 10 1 11 0;
#X connect 11 0 51 1;
#X connect 12 0 53 0;
#X connect 12 1 13 0;
#X connect 13 0 53 1;
#X connect 14 0 54 0;
#X connect 14 1 15 0;
#X connect 15 0 54 1;
#X connect 16 0 55 0;
#X connect 16 1 17 0;
#X connect 17 0 55 1;
#X connect 18 0 56 0;
#X connect 18 1 19 0;
#X connect 19 0 56 1;
#X connect 20 0 57 0;
#X connect 20 1 21 0;
#X connect 21 0 57 1;
#X connect 22 0 58 0;
#X connect 22 1 23 0;
#X connect 23 0 58 1;
#X connect 24 0 90 0;
#X connect 25 0 33 0;
#X connect 25 0 41 0;
#X connect 26 0 34 0;
#X connect 26 0 41 0;
#X connect 27 0 35 0;
#X connect 27 0 41 0;
#X connect 28 0 36 0;
#X connect 28 0 41 0;
#X connect 29 0 37 0;
#X connect 29 0 41 0;
#X connect 30 0 38 0;
#X connect 30 0 41 0;
#X connect 31 0 39 0;
#X connect 31 0 41 0;
#X connect 32 0 40 0;
#X connect 32 0 41 0;
#X connect 33 0 59 0;
#X connect 33 1 42 0;
#X connect 34 0 60 0;
#X connect 34 1 43 0;
#X connect 35 0 61 0;
#X connect 35 1 44 0;
#X connect 36 0 62 0;
#X connect 36 1 45 0;
#X connect 37 0 63 0;
#X connect 37 1 46 0;
#X connect 38 0 64 0;
#X connect 38 1 47 0;
#X connect 39 0 65 0;
#X connect 39 1 48 0;
#X connect 40 0 66 0;
#X connect 40 1 49 0;
#X connect 41 0 90 0;
#X connect 42 0 59 1;
#X connect 43 0 60 1;
#X connect 44 0 61 1;
#X connect 45 0 62 1;
#X connect 46 0 63 1;
#X connect 47 0 64 1;
#X connect 48 0 65 1;
#X connect 49 0 66 1;
#X connect 50 0 77 0;
#X connect 68 0 67 1;
#X connect 69 0 70 0;
#X connect 70 0 0 0;
#X connect 71 0 90 0;
#X connect 72 0 76 0;
#X connect 75 0 67 0;
#X connect 75 0 78 0;
#X connect 76 0 75 1;
#X connect 76 1 71 0;
#X connect 77 1 72 0;
#X connect 77 2 68 0;
#X connect 80 0 86 0;
#X connect 81 0 87 0;
#X connect 86 0 87 0;
#X connect 87 0 0 0;
#X connect 87 1 1 0;
#X connect 87 2 2 0;
#X connect 87 3 3 0;
#X connect 87 4 4 0;
#X connect 87 5 5 0;
#X connect 87 6 6 0;
#X connect 87 7 7 0;
#X connect 87 8 25 0;
#X connect 87 9 26 0;
#X connect 87 10 27 0;
#X connect 87 11 28 0;
#X connect 87 12 29 0;
#X connect 87 13 30 0;
#X connect 87 14 31 0;
#X connect 87 15 32 0;
#X connect 88 0 89 0;
#X connect 89 0 0 0;
#X connect 89 1 1 0;
#X connect 89 2 2 0;
#X connect 89 3 3 0;
#X connect 89 4 4 0;
#X connect 89 5 5 0;
#X connect 89 6 6 0;
#X connect 89 7 7 0;
#X connect 89 8 25 0;
#X connect 89 9 26 0;
#X connect 89 10 27 0;
#X connect 89 11 28 0;
#X connect 89 12 29 0;
#X connect 89 13 30 0;
#X connect 89 14 31 0;
#X connect 89 15 32 0;
#X connect 90 0 75 0;
#X coords 0 -1 1 1 320 20 2 100 100;
