#N canvas 471 191 756 483 10;
#X obj 68 41 inlet;
#X obj 203 45 inlet;
#X obj 68 244 outlet;
#N canvas 182 173 698 369 weighted-coincidence 0;
#X obj 34 54 inlet;
#X obj 174 54 inlet;
#X obj 90 336 outlet;
#N canvas 797 376 450 300 beatcon 0;
#X obj 61 6 inlet;
#X obj 335 11 inlet;
#X obj 68 267 outlet;
#X obj 85 67 list split 1;
#X obj 185 62 list split 1;
#X obj 100 118 list;
#X obj 226 116 list;
#X obj 85 87 t b b b f;
#X obj 170 149 ==;
#X obj 170 172 list prepend;
#X msg 279 57 bang;
#X obj 243 230 list;
#X obj 68 204 list;
#X obj 51 27 t b b a b;
#X obj 68 225 sum;
#X obj 68 246 / 4;
#X connect 0 0 13 0;
#X connect 1 0 4 0;
#X connect 3 0 7 0;
#X connect 3 1 5 1;
#X connect 4 0 8 1;
#X connect 4 1 6 1;
#X connect 5 0 3 0;
#X connect 6 0 4 0;
#X connect 7 0 5 0;
#X connect 7 1 6 0;
#X connect 7 3 8 0;
#X connect 8 0 9 0;
#X connect 9 0 11 0;
#X connect 9 0 12 1;
#X connect 10 0 9 1;
#X connect 11 0 9 1;
#X connect 12 0 14 0;
#X connect 13 1 12 0;
#X connect 13 2 3 0;
#X connect 13 3 10 0;
#X connect 14 0 15 0;
#X connect 15 0 2 0;
#X restore 34 209 pd beatcon;
#X obj 34 79 list split 4;
#X obj 68 98 list split 4;
#X obj 102 117 list split 4;
#N canvas 806 382 450 300 beatcon 0;
#X obj 61 6 inlet;
#X obj 335 11 inlet;
#X obj 68 267 outlet;
#X obj 85 67 list split 1;
#X obj 185 62 list split 1;
#X obj 100 118 list;
#X obj 226 116 list;
#X obj 85 87 t b b b f;
#X obj 170 149 ==;
#X obj 170 172 list prepend;
#X msg 279 57 bang;
#X obj 243 230 list;
#X obj 68 204 list;
#X obj 51 27 t b b a b;
#X obj 68 225 sum;
#X obj 68 246 / 4;
#X connect 0 0 13 0;
#X connect 1 0 4 0;
#X connect 3 0 7 0;
#X connect 3 1 5 1;
#X connect 4 0 8 1;
#X connect 4 1 6 1;
#X connect 5 0 3 0;
#X connect 6 0 4 0;
#X connect 7 0 5 0;
#X connect 7 1 6 0;
#X connect 7 3 8 0;
#X connect 8 0 9 0;
#X connect 9 0 11 0;
#X connect 9 0 12 1;
#X connect 10 0 9 1;
#X connect 11 0 9 1;
#X connect 12 0 14 0;
#X connect 13 1 12 0;
#X connect 13 2 3 0;
#X connect 13 3 10 0;
#X connect 14 0 15 0;
#X connect 15 0 2 0;
#X restore 102 209 pd beatcon;
#N canvas 809 384 450 300 beatcon 0;
#X obj 61 6 inlet;
#X obj 335 11 inlet;
#X obj 68 267 outlet;
#X obj 85 67 list split 1;
#X obj 185 62 list split 1;
#X obj 100 118 list;
#X obj 226 116 list;
#X obj 85 87 t b b b f;
#X obj 170 149 ==;
#X obj 170 172 list prepend;
#X msg 279 57 bang;
#X obj 243 230 list;
#X obj 68 204 list;
#X obj 51 27 t b b a b;
#X obj 68 225 sum;
#X obj 68 246 / 4;
#X connect 0 0 13 0;
#X connect 1 0 4 0;
#X connect 3 0 7 0;
#X connect 3 1 5 1;
#X connect 4 0 8 1;
#X connect 4 1 6 1;
#X connect 5 0 3 0;
#X connect 6 0 4 0;
#X connect 7 0 5 0;
#X connect 7 1 6 0;
#X connect 7 3 8 0;
#X connect 8 0 9 0;
#X connect 9 0 11 0;
#X connect 9 0 12 1;
#X connect 10 0 9 1;
#X connect 11 0 9 1;
#X connect 12 0 14 0;
#X connect 13 1 12 0;
#X connect 13 2 3 0;
#X connect 13 3 10 0;
#X connect 14 0 15 0;
#X connect 15 0 2 0;
#X restore 170 209 pd beatcon;
#N canvas 806 382 450 300 beatcon 0;
#X obj 61 6 inlet;
#X obj 335 11 inlet;
#X obj 68 267 outlet;
#X obj 85 67 list split 1;
#X obj 185 62 list split 1;
#X obj 100 118 list;
#X obj 226 116 list;
#X obj 85 87 t b b b f;
#X obj 170 149 ==;
#X obj 170 172 list prepend;
#X msg 279 57 bang;
#X obj 243 230 list;
#X obj 68 204 list;
#X obj 51 27 t b b a b;
#X obj 68 225 sum;
#X obj 68 246 / 4;
#X connect 0 0 13 0;
#X connect 1 0 4 0;
#X connect 3 0 7 0;
#X connect 3 1 5 1;
#X connect 4 0 8 1;
#X connect 4 1 6 1;
#X connect 5 0 3 0;
#X connect 6 0 4 0;
#X connect 7 0 5 0;
#X connect 7 1 6 0;
#X connect 7 3 8 0;
#X connect 8 0 9 0;
#X connect 9 0 11 0;
#X connect 9 0 12 1;
#X connect 10 0 9 1;
#X connect 11 0 9 1;
#X connect 12 0 14 0;
#X connect 13 1 12 0;
#X connect 13 2 3 0;
#X connect 13 3 10 0;
#X connect 14 0 15 0;
#X connect 15 0 2 0;
#X restore 238 209 pd beatcon;
#X obj 174 78 list split 4;
#X obj 208 97 list split 4;
#X obj 242 116 list split 4;
#X obj 90 317 pack f f f f;
#X text 300 264 <- multiply by normalized weights;
#X text 404 96 pad 1 0.27 0.22 0.16;
#X obj 34 265 * 0.743;
#X obj 102 265 * 0.055;
#X obj 170 266 * 0.108;
#X obj 238 266 * 0.092;
#X text 353 175 normalized: 0.743 0.055 0.108 0.092;
#X text 347 159 sad weights: 1 0.075 0.1458 0.125 -> sum=1.3458;
#X connect 0 0 4 0;
#X connect 1 0 10 0;
#X connect 3 0 16 0;
#X connect 4 0 3 0;
#X connect 4 1 5 0;
#X connect 5 0 7 0;
#X connect 5 1 6 0;
#X connect 6 0 8 0;
#X connect 6 1 9 0;
#X connect 7 0 17 0;
#X connect 8 0 18 0;
#X connect 9 0 19 0;
#X connect 10 0 3 1;
#X connect 10 1 11 0;
#X connect 11 0 7 1;
#X connect 11 1 12 0;
#X connect 12 0 8 1;
#X connect 12 1 9 1;
#X connect 13 0 2 0;
#X connect 16 0 13 0;
#X connect 17 0 13 1;
#X connect 18 0 13 2;
#X connect 19 0 13 3;
#X restore 68 66 pd weighted-coincidence;
#X text 83 268 Extract coincidence percentage by beat and weight it
with normalized awareness factor.;
#X text 139 178 <- convert similarity into distance;
#X obj 68 86 sum;
#X obj 68 222 * -1;
#X obj 68 200 - 1;
#X obj 68 145 t f b;
#X msg 95 166 1;
#X obj 68 106 / 0.998;
#X connect 0 0 3 0;
#X connect 1 0 3 1;
#X connect 3 0 6 0;
#X connect 6 0 11 0;
#X connect 7 0 2 0;
#X connect 8 0 7 0;
#X connect 9 0 8 0;
#X connect 9 1 10 0;
#X connect 10 0 8 1;
#X connect 11 0 9 0;
