#N canvas 293 23 664 733 8;
#X msg 84 256 flush;
#X obj 16 485 / 4;
#X obj 16 462 unpack 0 0 0 0 0;
#X msg 84 213 read \$1;
#X obj 139 376 pdmus/midi-player;
#X obj 401 598 t b b;
#X obj 172 665 outlet;
#X obj 172 644 pdmus/midi-sort-events;
#X obj 292 532 * 8;
#X obj 172 601 + 0;
#X obj 84 234 t b a b, f 29;
#X msg 255 254 0;
#X obj 238 396 f;
#X obj 172 556 unpack 0 0 0;
#X obj 172 622 pack 0 0 0, f 12;
#X obj 238 461 f 0;
#X obj 268 461 + 1;
#X obj 277 554 f;
#X obj 238 484 sel 0 1, f 8;
#X obj 238 416 sel 2 4;
#X obj 238 509 t b b, f 7;
#X msg 238 531 flush;
#X obj 401 660 outlet;
#X obj 16 442 vabs/oncev;
#X obj 401 577 vabs/oncev;
#X obj 84 278 t a b b;
#X obj 255 274 s \$0-\$1-reset-count;
#X obj 180 328 s \$0-\$1-reset-analysis;
#X obj 253 376 r \$0-\$1-bars;
#X obj 253 440 r \$0-\$1-reset-count;
#X obj 292 510 r \$0-\$1-ticks/4;
#X obj 187 579 r \$0-\$1-reset-count;
#X obj 16 506 s \$0-\$1-bars;
#X obj 85 483 s \$0-\$1-ticks/4;
#X obj 509 149 f 1;
#X obj 539 149 + 1;
#X msg 521 130 1;
#X obj 314 21 inlet;
#X obj 397 147 jasch_lib/strtok /;
#X obj 397 167 t a a, f 10;
#X obj 444 185 list length;
#X obj 397 222 list split;
#X obj 444 203 - 1;
#X obj 420 300 jasch_lib/strcut;
#X obj 447 260 jasch_lib/strlen;
#X obj 447 280 - 4;
#X obj 420 241 t a a;
#X obj 420 320 symbol;
#X obj 314 43 t b b b, f 33;
#X obj 314 103 hcs/folder_list;
#X obj 314 84 makefilename /%s/*.mid;
#X obj 314 124 t s s b, f 34;
#X obj 476 62 s \$0-h-init;
#X obj 314 63 tof/folderpanel;
#X msg 520 169 \$1 files found;
#X obj 420 339 s \$0-\$1-filename;
#X obj 509 208 s \$0-\$1-files-in-folder;
#X obj 520 188 print analysis-\$1;
#X connect 0 0 25 0;
#X connect 1 0 32 0;
#X connect 2 0 1 0;
#X connect 2 3 33 0;
#X connect 3 0 10 0;
#X connect 4 1 13 0;
#X connect 4 2 23 0;
#X connect 4 3 12 0;
#X connect 5 0 22 0;
#X connect 5 1 7 1;
#X connect 7 0 6 0;
#X connect 8 0 17 1;
#X connect 9 0 14 0;
#X connect 10 0 0 0;
#X connect 10 1 4 0;
#X connect 10 2 11 0;
#X connect 11 0 26 0;
#X connect 12 0 19 0;
#X connect 13 0 9 0;
#X connect 13 1 14 1;
#X connect 13 2 14 2;
#X connect 14 0 7 0;
#X connect 15 0 16 0;
#X connect 15 0 18 0;
#X connect 16 0 15 1;
#X connect 17 0 9 1;
#X connect 18 0 20 0;
#X connect 18 1 24 0;
#X connect 19 0 15 0;
#X connect 19 1 24 0;
#X connect 20 0 21 0;
#X connect 20 1 17 0;
#X connect 21 0 4 0;
#X connect 23 0 2 0;
#X connect 24 0 5 0;
#X connect 25 0 4 0;
#X connect 25 1 23 1;
#X connect 25 1 24 1;
#X connect 25 2 27 0;
#X connect 28 0 12 1;
#X connect 29 0 15 1;
#X connect 30 0 8 0;
#X connect 31 0 9 1;
#X connect 34 0 35 0;
#X connect 34 0 54 0;
#X connect 34 0 56 0;
#X connect 35 0 34 1;
#X connect 36 0 34 1;
#X connect 37 0 48 0;
#X connect 38 0 39 0;
#X connect 39 0 41 0;
#X connect 39 1 40 0;
#X connect 40 0 42 0;
#X connect 41 1 46 0;
#X connect 42 0 41 1;
#X connect 43 0 47 0;
#X connect 44 0 45 0;
#X connect 45 0 43 0;
#X connect 46 0 43 0;
#X connect 46 1 44 0;
#X connect 47 0 55 0;
#X connect 48 0 53 0;
#X connect 48 1 36 0;
#X connect 48 2 52 0;
#X connect 49 0 51 0;
#X connect 50 0 49 0;
#X connect 51 0 3 0;
#X connect 51 1 38 0;
#X connect 51 2 34 0;
#X connect 53 0 50 0;
#X connect 54 0 57 0;
