#N canvas 622 23 448 738 8;
#X msg 19 366 flush;
#X obj 256 496 / 4;
#X obj 256 477 unpack 0 0 0 0 0;
#X msg 19 323 read \$1;
#X obj 201 653 t b b;
#X obj 36 704 outlet;
#X obj 145 593 * 8;
#X obj 36 650 + 0;
#X obj 19 344 t b a b, f 14;
#X msg 86 362 0;
#X obj 101 472 f;
#X obj 36 612 unpack 0 0 0;
#X obj 36 668 pack 0 0 0, f 12;
#X obj 101 531 f 0;
#X obj 131 531 + 1;
#X obj 133 610 f;
#X obj 101 549 sel 0 1, f 8;
#X obj 101 492 sel 2 4;
#X obj 101 574 t b b, f 7;
#X msg 101 592 flush;
#X obj 201 703 outlet;
#X obj 19 399 t a b b, f 44;
#X obj 201 138 f 1;
#X obj 231 138 + 1;
#X msg 213 119 1;
#X obj 102 141 jasch_lib/strtok /;
#X obj 102 159 t a a, f 10;
#X obj 149 177 list length;
#X obj 102 214 list split;
#X obj 153 307 jasch_lib/strcut;
#X obj 175 269 jasch_lib/strlen;
#X obj 175 288 - 4;
#X obj 153 251 t a a;
#X obj 153 325 symbol;
#X obj 19 28 t b b b, f 58;
#X obj 19 103 hcs/folder_list;
#X obj 19 84 makefilename /%s/*.mid;
#X obj 19 121 t s s b, f 37;
#X obj 19 46 tof/folderpanel ./;
#X obj 149 195 - 2;
#X obj 125 232 list split 1;
#X obj 292 331 s \$2-\$1-files-in-folder;
#X obj 125 361 s \$2-\$1-corpusname;
#X obj 153 343 s \$2-\$1-filename;
#X obj 86 379 s \$2-\$1-reset-count;
#X obj 236 417 s \$2-\$1-reset-analysis;
#X obj 113 454 r \$2-\$1-bars;
#X obj 113 512 r \$2-\$1-reset-count;
#X obj 145 575 r \$2-\$1-ticks/4;
#X obj 48 631 r \$2-\$1-reset-count;
#X obj 313 496 s \$2-\$1-ticks/4;
#X obj 256 514 s \$2-\$1-bars;
#X obj 28 65 s \$2-\$1-corpusroute;
#X obj 306 46 s \$2-\$1-init;
#X obj 210 204 == 0;
#X obj 265 175 pipe 1;
#X obj 210 222 change;
#X obj 210 242 sel 1;
#X obj 227 157 t f f f, f 16;
#X obj 292 273 f;
#X msg 300 292 \$1 midi files found.;
#X obj 300 311 print read-corpus;
#X obj 19 10 inlet;
#X obj 19 419 gspd/midi-player;
#X obj 201 634 gspd/vonce;
#X obj 36 686 gspd/midi-sort-events;
#X obj 256 459 gspd/vonce;
#X connect 0 0 21 0;
#X connect 1 0 51 0;
#X connect 2 0 1 0;
#X connect 2 3 50 0;
#X connect 3 0 8 0;
#X connect 4 0 20 0;
#X connect 4 1 65 1;
#X connect 6 0 15 1;
#X connect 7 0 12 0;
#X connect 8 0 0 0;
#X connect 8 1 63 0;
#X connect 8 2 9 0;
#X connect 9 0 44 0;
#X connect 10 0 17 0;
#X connect 11 0 7 0;
#X connect 11 1 12 1;
#X connect 11 2 12 2;
#X connect 12 0 65 0;
#X connect 13 0 14 0;
#X connect 13 0 16 0;
#X connect 14 0 13 1;
#X connect 15 0 7 1;
#X connect 16 0 18 0;
#X connect 16 1 64 0;
#X connect 17 0 13 0;
#X connect 17 1 64 0;
#X connect 18 0 19 0;
#X connect 18 1 15 0;
#X connect 19 0 63 0;
#X connect 21 0 63 0;
#X connect 21 1 64 1;
#X connect 21 1 66 1;
#X connect 21 2 45 0;
#X connect 22 0 23 0;
#X connect 22 0 58 0;
#X connect 23 0 22 1;
#X connect 24 0 22 1;
#X connect 25 0 26 0;
#X connect 26 0 28 0;
#X connect 26 1 27 0;
#X connect 27 0 39 0;
#X connect 28 1 40 0;
#X connect 29 0 33 0;
#X connect 30 0 31 0;
#X connect 31 0 29 0;
#X connect 32 0 29 0;
#X connect 32 1 30 0;
#X connect 33 0 43 0;
#X connect 34 0 38 0;
#X connect 34 1 24 0;
#X connect 34 2 53 0;
#X connect 35 0 37 0;
#X connect 36 0 35 0;
#X connect 37 0 3 0;
#X connect 37 1 25 0;
#X connect 37 2 22 0;
#X connect 38 0 36 0;
#X connect 38 0 52 0;
#X connect 39 0 28 1;
#X connect 40 0 42 0;
#X connect 40 1 32 0;
#X connect 46 0 10 1;
#X connect 47 0 13 1;
#X connect 48 0 6 0;
#X connect 49 0 7 1;
#X connect 54 0 56 0;
#X connect 55 0 54 0;
#X connect 56 0 57 0;
#X connect 57 0 59 0;
#X connect 58 0 54 1;
#X connect 58 1 55 0;
#X connect 58 2 59 1;
#X connect 59 0 41 0;
#X connect 59 0 60 0;
#X connect 60 0 61 0;
#X connect 62 0 34 0;
#X connect 63 1 11 0;
#X connect 63 2 66 0;
#X connect 63 3 10 0;
#X connect 64 0 4 0;
#X connect 65 0 5 0;
#X connect 66 0 2 0;
