#N canvas 0 112 741 615 10;
#X obj 72 53 inlet;
#X obj 207 50 inlet;
#X obj 72 274 outlet;
#N canvas 64 185 962 487 pattern2group 0;
#N canvas 94 375 1036 300 beat2id 0;
#X obj 26 87 l2s;
#X msg 95 70 symbol;
#X obj 95 53 loadbang;
#X obj 26 49 prepend #;
#X msg 26 170 1;
#X msg 52 170 2;
#X msg 80 170 3;
#X msg 106 169 4;
#X msg 136 169 5;
#X msg 162 169 6;
#X msg 190 169 7;
#X msg 216 168 8;
#X msg 242 168 9;
#X msg 268 168 10;
#X msg 296 168 11;
#X msg 322 167 12;
#X msg 352 167 13;
#X msg 378 167 14;
#X msg 406 167 15;
#X msg 432 166 16;
#X obj 26 130 sel #0000 #1000 #0100 #0010 #0001 #1100 #1010 #1001 #0110
#0101 #0011 #1110 #1101 #1011 #0111 #1111;
#X obj 27 206 f;
#X obj 24 28 inlet;
#X obj 27 225 outlet;
#X obj 497 212 outlet;
#X obj 532 76 sel #0000 #1000 #0100 #0010 #0001 #1100 #1010 #1001 #0110
#0101 #0011 #1110 #1101 #1011 #0111 #1111;
#X obj 496 186 f;
#X text 47 248 ID;
#X text 574 246 density;
#X obj 302 73 t a a;
#X msg 495 150 0;
#X msg 521 150 1;
#X msg 549 150 1;
#X msg 575 149 1;
#X msg 605 149 1;
#X msg 631 149 2;
#X msg 659 149 2;
#X msg 685 148 2;
#X msg 711 148 2;
#X msg 737 148 2;
#X msg 765 148 2;
#X msg 901 146 4;
#X msg 875 147 3;
#X msg 847 147 3;
#X msg 821 147 3;
#X msg 791 147 3;
#X connect 0 0 29 0;
#X connect 1 0 0 1;
#X connect 2 0 1 0;
#X connect 3 0 0 0;
#X connect 4 0 21 0;
#X connect 5 0 21 0;
#X connect 6 0 21 0;
#X connect 7 0 21 0;
#X connect 8 0 21 0;
#X connect 9 0 21 0;
#X connect 10 0 21 0;
#X connect 11 0 21 0;
#X connect 12 0 21 0;
#X connect 13 0 21 0;
#X connect 14 0 21 0;
#X connect 15 0 21 0;
#X connect 16 0 21 0;
#X connect 17 0 21 0;
#X connect 18 0 21 0;
#X connect 19 0 21 0;
#X connect 20 0 4 0;
#X connect 20 1 5 0;
#X connect 20 2 6 0;
#X connect 20 3 7 0;
#X connect 20 4 8 0;
#X connect 20 5 9 0;
#X connect 20 6 10 0;
#X connect 20 7 11 0;
#X connect 20 8 12 0;
#X connect 20 9 13 0;
#X connect 20 10 14 0;
#X connect 20 11 15 0;
#X connect 20 12 16 0;
#X connect 20 13 17 0;
#X connect 20 14 18 0;
#X connect 20 15 19 0;
#X connect 21 0 23 0;
#X connect 22 0 3 0;
#X connect 25 0 30 0;
#X connect 25 1 31 0;
#X connect 25 2 32 0;
#X connect 25 3 33 0;
#X connect 25 4 34 0;
#X connect 25 5 35 0;
#X connect 25 6 36 0;
#X connect 25 7 37 0;
#X connect 25 8 38 0;
#X connect 25 9 39 0;
#X connect 25 10 40 0;
#X connect 25 11 45 0;
#X connect 25 12 44 0;
#X connect 25 13 43 0;
#X connect 25 14 42 0;
#X connect 25 15 41 0;
#X connect 26 0 24 0;
#X connect 29 0 20 0;
#X connect 29 1 25 0;
#X connect 30 0 26 0;
#X connect 31 0 26 0;
#X connect 32 0 26 0;
#X connect 33 0 26 0;
#X connect 34 0 26 0;
#X connect 35 0 26 0;
#X connect 36 0 26 0;
#X connect 37 0 26 0;
#X connect 38 0 26 0;
#X connect 39 0 26 0;
#X connect 40 0 26 0;
#X connect 41 0 26 0;
#X connect 42 0 26 0;
#X connect 43 0 26 0;
#X connect 44 0 26 0;
#X connect 45 0 26 0;
#X restore 45 310 pd beat2id;
#X obj 45 329 pack f f;
#X obj 131 314 tgl 15 0 empty empty empty 17 7 0 10 -262144 -1 -1 0
1;
#X text 146 311 <- next note;
#X obj 131 294 list split 1;
#X obj 45 256 list split 4;
#X obj 131 273 list split 4;
#X obj 45 143 list split 8;
#X obj 214 161 list split 4;
#X obj 223 126 t l l l l;
#X obj 420 159 list split 8;
#X obj 661 143 list split 12;
#X obj 661 163 list split 4;
#X obj 661 184 list prepend;
#X obj 248 341 pack f f;
#X obj 334 326 tgl 15 0 empty empty empty 17 7 0 10 -262144 -1 -1 1
1;
#X text 349 323 <- next note;
#X obj 334 306 list split 1;
#X obj 248 268 list split 4;
#X obj 334 285 list split 4;
#X obj 454 339 pack f f;
#X obj 540 324 tgl 15 0 empty empty empty 17 7 0 10 -262144 -1 -1 0
1;
#X text 555 321 <- next note;
#X obj 540 304 list split 1;
#X obj 454 266 list split 4;
#X obj 540 283 list split 4;
#X obj 661 345 pack f f;
#X obj 747 330 tgl 15 0 empty empty empty 17 7 0 10 -262144 -1 -1 0
1;
#X text 762 327 <- next note;
#X obj 747 310 list split 1;
#X obj 661 272 list split 4;
#X obj 747 289 list split 4;
#X obj 341 418 pack f f f f;
#X obj 223 70 inlet;
#X obj 341 451 outlet;
#X text 386 450 output group;
#X text 861 380 output density;
#X obj 859 327 pack f f f f;
#X obj 859 360 outlet;
#N canvas 109 343 1036 300 beat2id 0;
#X obj 26 87 l2s;
#X msg 95 70 symbol;
#X obj 95 53 loadbang;
#X obj 26 49 prepend #;
#X msg 26 170 1;
#X msg 52 170 2;
#X msg 80 170 3;
#X msg 106 169 4;
#X msg 136 169 5;
#X msg 162 169 6;
#X msg 190 169 7;
#X msg 216 168 8;
#X msg 242 168 9;
#X msg 268 168 10;
#X msg 296 168 11;
#X msg 322 167 12;
#X msg 352 167 13;
#X msg 378 167 14;
#X msg 406 167 15;
#X msg 432 166 16;
#X obj 26 130 sel #0000 #1000 #0100 #0010 #0001 #1100 #1010 #1001 #0110
#0101 #0011 #1110 #1101 #1011 #0111 #1111;
#X obj 27 206 f;
#X obj 24 28 inlet;
#X obj 27 225 outlet;
#X obj 497 212 outlet;
#X obj 532 76 sel #0000 #1000 #0100 #0010 #0001 #1100 #1010 #1001 #0110
#0101 #0011 #1110 #1101 #1011 #0111 #1111;
#X obj 496 186 f;
#X text 47 248 ID;
#X text 574 246 density;
#X obj 302 73 t a a;
#X msg 495 150 0;
#X msg 521 150 1;
#X msg 549 150 1;
#X msg 575 149 1;
#X msg 605 149 1;
#X msg 631 149 2;
#X msg 659 149 2;
#X msg 685 148 2;
#X msg 711 148 2;
#X msg 737 148 2;
#X msg 765 148 2;
#X msg 901 146 4;
#X msg 875 147 3;
#X msg 847 147 3;
#X msg 821 147 3;
#X msg 791 147 3;
#X connect 0 0 29 0;
#X connect 1 0 0 1;
#X connect 2 0 1 0;
#X connect 3 0 0 0;
#X connect 4 0 21 0;
#X connect 5 0 21 0;
#X connect 6 0 21 0;
#X connect 7 0 21 0;
#X connect 8 0 21 0;
#X connect 9 0 21 0;
#X connect 10 0 21 0;
#X connect 11 0 21 0;
#X connect 12 0 21 0;
#X connect 13 0 21 0;
#X connect 14 0 21 0;
#X connect 15 0 21 0;
#X connect 16 0 21 0;
#X connect 17 0 21 0;
#X connect 18 0 21 0;
#X connect 19 0 21 0;
#X connect 20 0 4 0;
#X connect 20 1 5 0;
#X connect 20 2 6 0;
#X connect 20 3 7 0;
#X connect 20 4 8 0;
#X connect 20 5 9 0;
#X connect 20 6 10 0;
#X connect 20 7 11 0;
#X connect 20 8 12 0;
#X connect 20 9 13 0;
#X connect 20 10 14 0;
#X connect 20 11 15 0;
#X connect 20 12 16 0;
#X connect 20 13 17 0;
#X connect 20 14 18 0;
#X connect 20 15 19 0;
#X connect 21 0 23 0;
#X connect 22 0 3 0;
#X connect 25 0 30 0;
#X connect 25 1 31 0;
#X connect 25 2 32 0;
#X connect 25 3 33 0;
#X connect 25 4 34 0;
#X connect 25 5 35 0;
#X connect 25 6 36 0;
#X connect 25 7 37 0;
#X connect 25 8 38 0;
#X connect 25 9 39 0;
#X connect 25 10 40 0;
#X connect 25 11 45 0;
#X connect 25 12 44 0;
#X connect 25 13 43 0;
#X connect 25 14 42 0;
#X connect 25 15 41 0;
#X connect 26 0 24 0;
#X connect 29 0 20 0;
#X connect 29 1 25 0;
#X connect 30 0 26 0;
#X connect 31 0 26 0;
#X connect 32 0 26 0;
#X connect 33 0 26 0;
#X connect 34 0 26 0;
#X connect 35 0 26 0;
#X connect 36 0 26 0;
#X connect 37 0 26 0;
#X connect 38 0 26 0;
#X connect 39 0 26 0;
#X connect 40 0 26 0;
#X connect 41 0 26 0;
#X connect 42 0 26 0;
#X connect 43 0 26 0;
#X connect 44 0 26 0;
#X connect 45 0 26 0;
#X restore 248 310 pd beat2id;
#N canvas 118 349 1036 300 beat2id 0;
#X obj 26 87 l2s;
#X msg 95 70 symbol;
#X obj 95 53 loadbang;
#X obj 26 49 prepend #;
#X msg 26 170 1;
#X msg 52 170 2;
#X msg 80 170 3;
#X msg 106 169 4;
#X msg 136 169 5;
#X msg 162 169 6;
#X msg 190 169 7;
#X msg 216 168 8;
#X msg 242 168 9;
#X msg 268 168 10;
#X msg 296 168 11;
#X msg 322 167 12;
#X msg 352 167 13;
#X msg 378 167 14;
#X msg 406 167 15;
#X msg 432 166 16;
#X obj 26 130 sel #0000 #1000 #0100 #0010 #0001 #1100 #1010 #1001 #0110
#0101 #0011 #1110 #1101 #1011 #0111 #1111;
#X obj 27 206 f;
#X obj 24 28 inlet;
#X obj 27 225 outlet;
#X obj 497 212 outlet;
#X obj 532 76 sel #0000 #1000 #0100 #0010 #0001 #1100 #1010 #1001 #0110
#0101 #0011 #1110 #1101 #1011 #0111 #1111;
#X obj 496 186 f;
#X text 47 248 ID;
#X text 574 246 density;
#X obj 302 73 t a a;
#X msg 495 150 0;
#X msg 521 150 1;
#X msg 549 150 1;
#X msg 575 149 1;
#X msg 605 149 1;
#X msg 631 149 2;
#X msg 659 149 2;
#X msg 685 148 2;
#X msg 711 148 2;
#X msg 737 148 2;
#X msg 765 148 2;
#X msg 901 146 4;
#X msg 875 147 3;
#X msg 847 147 3;
#X msg 821 147 3;
#X msg 791 147 3;
#X connect 0 0 29 0;
#X connect 1 0 0 1;
#X connect 2 0 1 0;
#X connect 3 0 0 0;
#X connect 4 0 21 0;
#X connect 5 0 21 0;
#X connect 6 0 21 0;
#X connect 7 0 21 0;
#X connect 8 0 21 0;
#X connect 9 0 21 0;
#X connect 10 0 21 0;
#X connect 11 0 21 0;
#X connect 12 0 21 0;
#X connect 13 0 21 0;
#X connect 14 0 21 0;
#X connect 15 0 21 0;
#X connect 16 0 21 0;
#X connect 17 0 21 0;
#X connect 18 0 21 0;
#X connect 19 0 21 0;
#X connect 20 0 4 0;
#X connect 20 1 5 0;
#X connect 20 2 6 0;
#X connect 20 3 7 0;
#X connect 20 4 8 0;
#X connect 20 5 9 0;
#X connect 20 6 10 0;
#X connect 20 7 11 0;
#X connect 20 8 12 0;
#X connect 20 9 13 0;
#X connect 20 10 14 0;
#X connect 20 11 15 0;
#X connect 20 12 16 0;
#X connect 20 13 17 0;
#X connect 20 14 18 0;
#X connect 20 15 19 0;
#X connect 21 0 23 0;
#X connect 22 0 3 0;
#X connect 25 0 30 0;
#X connect 25 1 31 0;
#X connect 25 2 32 0;
#X connect 25 3 33 0;
#X connect 25 4 34 0;
#X connect 25 5 35 0;
#X connect 25 6 36 0;
#X connect 25 7 37 0;
#X connect 25 8 38 0;
#X connect 25 9 39 0;
#X connect 25 10 40 0;
#X connect 25 11 45 0;
#X connect 25 12 44 0;
#X connect 25 13 43 0;
#X connect 25 14 42 0;
#X connect 25 15 41 0;
#X connect 26 0 24 0;
#X connect 29 0 20 0;
#X connect 29 1 25 0;
#X connect 30 0 26 0;
#X connect 31 0 26 0;
#X connect 32 0 26 0;
#X connect 33 0 26 0;
#X connect 34 0 26 0;
#X connect 35 0 26 0;
#X connect 36 0 26 0;
#X connect 37 0 26 0;
#X connect 38 0 26 0;
#X connect 39 0 26 0;
#X connect 40 0 26 0;
#X connect 41 0 26 0;
#X connect 42 0 26 0;
#X connect 43 0 26 0;
#X connect 44 0 26 0;
#X connect 45 0 26 0;
#X restore 454 310 pd beat2id;
#N canvas 116 354 1036 300 beat2id 0;
#X obj 26 87 l2s;
#X msg 95 70 symbol;
#X obj 95 53 loadbang;
#X obj 26 49 prepend #;
#X msg 26 170 1;
#X msg 52 170 2;
#X msg 80 170 3;
#X msg 106 169 4;
#X msg 136 169 5;
#X msg 162 169 6;
#X msg 190 169 7;
#X msg 216 168 8;
#X msg 242 168 9;
#X msg 268 168 10;
#X msg 296 168 11;
#X msg 322 167 12;
#X msg 352 167 13;
#X msg 378 167 14;
#X msg 406 167 15;
#X msg 432 166 16;
#X obj 26 130 sel #0000 #1000 #0100 #0010 #0001 #1100 #1010 #1001 #0110
#0101 #0011 #1110 #1101 #1011 #0111 #1111;
#X obj 27 206 f;
#X obj 24 28 inlet;
#X obj 27 225 outlet;
#X obj 497 212 outlet;
#X obj 532 76 sel #0000 #1000 #0100 #0010 #0001 #1100 #1010 #1001 #0110
#0101 #0011 #1110 #1101 #1011 #0111 #1111;
#X obj 496 186 f;
#X text 47 248 ID;
#X text 574 246 density;
#X obj 302 73 t a a;
#X msg 495 150 0;
#X msg 521 150 1;
#X msg 549 150 1;
#X msg 575 149 1;
#X msg 605 149 1;
#X msg 631 149 2;
#X msg 659 149 2;
#X msg 685 148 2;
#X msg 711 148 2;
#X msg 737 148 2;
#X msg 765 148 2;
#X msg 901 146 4;
#X msg 875 147 3;
#X msg 847 147 3;
#X msg 821 147 3;
#X msg 791 147 3;
#X connect 0 0 29 0;
#X connect 1 0 0 1;
#X connect 2 0 1 0;
#X connect 3 0 0 0;
#X connect 4 0 21 0;
#X connect 5 0 21 0;
#X connect 6 0 21 0;
#X connect 7 0 21 0;
#X connect 8 0 21 0;
#X connect 9 0 21 0;
#X connect 10 0 21 0;
#X connect 11 0 21 0;
#X connect 12 0 21 0;
#X connect 13 0 21 0;
#X connect 14 0 21 0;
#X connect 15 0 21 0;
#X connect 16 0 21 0;
#X connect 17 0 21 0;
#X connect 18 0 21 0;
#X connect 19 0 21 0;
#X connect 20 0 4 0;
#X connect 20 1 5 0;
#X connect 20 2 6 0;
#X connect 20 3 7 0;
#X connect 20 4 8 0;
#X connect 20 5 9 0;
#X connect 20 6 10 0;
#X connect 20 7 11 0;
#X connect 20 8 12 0;
#X connect 20 9 13 0;
#X connect 20 10 14 0;
#X connect 20 11 15 0;
#X connect 20 12 16 0;
#X connect 20 13 17 0;
#X connect 20 14 18 0;
#X connect 20 15 19 0;
#X connect 21 0 23 0;
#X connect 22 0 3 0;
#X connect 25 0 30 0;
#X connect 25 1 31 0;
#X connect 25 2 32 0;
#X connect 25 3 33 0;
#X connect 25 4 34 0;
#X connect 25 5 35 0;
#X connect 25 6 36 0;
#X connect 25 7 37 0;
#X connect 25 8 38 0;
#X connect 25 9 39 0;
#X connect 25 10 40 0;
#X connect 25 11 45 0;
#X connect 25 12 44 0;
#X connect 25 13 43 0;
#X connect 25 14 42 0;
#X connect 25 15 41 0;
#X connect 26 0 24 0;
#X connect 29 0 20 0;
#X connect 29 1 25 0;
#X connect 30 0 26 0;
#X connect 31 0 26 0;
#X connect 32 0 26 0;
#X connect 33 0 26 0;
#X connect 34 0 26 0;
#X connect 35 0 26 0;
#X connect 36 0 26 0;
#X connect 37 0 26 0;
#X connect 38 0 26 0;
#X connect 39 0 26 0;
#X connect 40 0 26 0;
#X connect 41 0 26 0;
#X connect 42 0 26 0;
#X connect 43 0 26 0;
#X connect 44 0 26 0;
#X connect 45 0 26 0;
#X restore 661 310 pd beat2id;
#N canvas 348 210 624 346 idandnext2group 0;
#X obj 33 23 inlet;
#X obj 64 229 outlet;
#X msg 33 48 \$2 \$1;
#X obj 33 70 route 0 1;
#X obj 33 133 - 1;
#X obj 123 133 - 1;
#X msg 272 38 \; nonext 0 4 2 5 3 6 5 1 8 3 7 6 3 7 8 6 6;
#X msg 357 84 \; next 0 4 2 5 3 4 5 1 2 3 5 4 3 5 2 4 4;
#X obj 33 152 tabread \$0-nonext;
#X obj 123 152 tabread \$0-next;
#X connect 0 0 2 0;
#X connect 2 0 3 0;
#X connect 3 0 4 0;
#X connect 3 1 5 0;
#X connect 4 0 8 0;
#X connect 5 0 9 0;
#X connect 8 0 1 0;
#X connect 9 0 1 0;
#X restore 45 361 pd idandnext2group;
#N canvas 372 177 624 346 idandnext2group 0;
#X obj 33 23 inlet;
#X obj 64 229 outlet;
#X msg 33 48 \$2 \$1;
#X obj 33 70 route 0 1;
#X obj 33 133 - 1;
#X obj 123 133 - 1;
#X msg 272 38 \; nonext 0 4 2 5 3 6 5 1 8 3 7 6 3 7 8 6 6;
#X msg 357 84 \; next 0 4 2 5 3 4 5 1 2 3 5 4 3 5 2 4 4;
#X obj 33 152 tabread \$0-nonext;
#X obj 123 152 tabread \$0-next;
#X connect 0 0 2 0;
#X connect 2 0 3 0;
#X connect 3 0 4 0;
#X connect 3 1 5 0;
#X connect 4 0 8 0;
#X connect 5 0 9 0;
#X connect 8 0 1 0;
#X connect 9 0 1 0;
#X restore 248 361 pd idandnext2group;
#N canvas 372 177 624 346 idandnext2group 0;
#X obj 33 23 inlet;
#X obj 64 229 outlet;
#X msg 33 48 \$2 \$1;
#X obj 33 70 route 0 1;
#X obj 33 133 - 1;
#X obj 123 133 - 1;
#X msg 272 38 \; nonext 0 4 2 5 3 6 5 1 8 3 7 6 3 7 8 6 6;
#X msg 357 84 \; next 0 4 2 5 3 4 5 1 2 3 5 4 3 5 2 4 4;
#X obj 33 152 tabread \$0-nonext;
#X obj 123 152 tabread \$0-next;
#X connect 0 0 2 0;
#X connect 2 0 3 0;
#X connect 3 0 4 0;
#X connect 3 1 5 0;
#X connect 4 0 8 0;
#X connect 5 0 9 0;
#X connect 8 0 1 0;
#X connect 9 0 1 0;
#X restore 454 361 pd idandnext2group;
#N canvas 372 177 624 346 idandnext2group 0;
#X obj 33 23 inlet;
#X obj 64 229 outlet;
#X msg 33 48 \$2 \$1;
#X obj 33 70 route 0 1;
#X obj 33 133 - 1;
#X obj 123 133 - 1;
#X msg 272 38 \; nonext 0 4 2 5 3 6 5 1 8 3 7 6 3 7 8 6 6;
#X msg 357 84 \; next 0 4 2 5 3 4 5 1 2 3 5 4 3 5 2 4 4;
#X obj 33 152 tabread \$0-nonext;
#X obj 123 152 tabread \$0-next;
#X connect 0 0 2 0;
#X connect 2 0 3 0;
#X connect 3 0 4 0;
#X connect 3 1 5 0;
#X connect 4 0 8 0;
#X connect 5 0 9 0;
#X connect 8 0 1 0;
#X connect 9 0 1 0;
#X restore 661 364 pd idandnext2group;
#X connect 0 0 1 0;
#X connect 0 1 37 0;
#X connect 1 0 42 0;
#X connect 2 0 1 1;
#X connect 4 0 2 0;
#X connect 5 0 0 0;
#X connect 5 1 6 0;
#X connect 6 0 4 0;
#X connect 7 0 5 0;
#X connect 8 1 18 0;
#X connect 9 0 7 0;
#X connect 9 1 8 0;
#X connect 9 2 10 0;
#X connect 9 3 11 0;
#X connect 10 1 24 0;
#X connect 11 0 12 0;
#X connect 11 1 13 1;
#X connect 12 0 13 0;
#X connect 13 0 30 0;
#X connect 14 0 43 0;
#X connect 15 0 14 1;
#X connect 17 0 15 0;
#X connect 18 0 39 0;
#X connect 18 1 19 0;
#X connect 19 0 17 0;
#X connect 20 0 44 0;
#X connect 21 0 20 1;
#X connect 23 0 21 0;
#X connect 24 0 40 0;
#X connect 24 1 25 0;
#X connect 25 0 23 0;
#X connect 26 0 45 0;
#X connect 27 0 26 1;
#X connect 29 0 27 0;
#X connect 30 0 41 0;
#X connect 30 1 31 0;
#X connect 31 0 29 0;
#X connect 32 0 34 0;
#X connect 33 0 9 0;
#X connect 37 0 38 0;
#X connect 39 0 14 0;
#X connect 39 1 37 1;
#X connect 40 0 20 0;
#X connect 40 1 37 2;
#X connect 41 0 26 0;
#X connect 41 1 37 3;
#X connect 42 0 32 0;
#X connect 43 0 32 1;
#X connect 44 0 32 2;
#X connect 45 0 32 3;
#X restore 72 73 pd pattern2group;
#X text 311 70 <- convert patterns to groups;
#X msg 18 84 1 1 1 1;
#N canvas 128 120 877 427 weighted-coincidence 0;
#X obj 64 133 list split 1;
#X obj 173 132 list split 1;
#X obj 96 194 list;
#X obj 192 185 list;
#X obj 62 56 inlet;
#X obj 179 66 inlet;
#X obj 42 394 outlet;
#X obj 151 317 list prepend;
#X obj 197 343 list;
#X msg 278 134 bang;
#X obj 42 366 list;
#X obj 151 222 ==;
#X obj 42 81 t b a b b;
#X text 359 50 salience profile;
#X obj 299 285 *;
#X obj 336 134 list split 1;
#X obj 348 200 list;
#X obj 64 163 t b b b f;
#X obj 336 114 list;
#X text 510 194 pad 1 0.27 0.22 0.16;
#X text 509 92 normalized: 0.743 0.055 0.108 0.092;
#X text 510 82 sad weights: 1 0.075 0.1458 0.125 -> sum=1.3458;
#X obj 357 67 loadbang;
#X msg 357 86 0.743 0.055 0.108 0.092;
#X connect 0 0 17 0;
#X connect 0 1 2 1;
#X connect 1 0 11 1;
#X connect 1 1 3 1;
#X connect 2 0 0 0;
#X connect 3 0 1 0;
#X connect 4 0 12 0;
#X connect 5 0 1 0;
#X connect 7 0 8 0;
#X connect 7 0 10 1;
#X connect 8 0 7 1;
#X connect 9 0 7 1;
#X connect 10 0 6 0;
#X connect 11 0 14 0;
#X connect 12 0 10 0;
#X connect 12 1 0 0;
#X connect 12 2 9 0;
#X connect 12 3 18 0;
#X connect 14 0 7 0;
#X connect 15 0 14 1;
#X connect 15 1 16 1;
#X connect 16 0 15 0;
#X connect 17 0 2 0;
#X connect 17 1 3 0;
#X connect 17 2 16 0;
#X connect 17 3 11 0;
#X connect 18 0 15 0;
#X connect 22 0 23 0;
#X connect 23 0 18 1;
#X restore 72 108 pd weighted-coincidence;
#X msg 244 91 1 3 1 5;
#X obj 72 138 sum;
#X text 309 107 <- analyze the coincidence of the groups in each group
list;
#X text 308 130 <- sum the coincidence between two patterns;
#X text 310 178 <- convert similarity into distance;
#X obj 73 236 * -1;
#X obj 73 214 - 1;
#X obj 72 159 t f b;
#X msg 99 180 1;
#N canvas 0 0 450 300 (subpatch) 0;
#X array \$0-nonext 16 float 3;
#A 0 4 2 5 3 6 5 1 8 3 7 6 3 7 8 6 6;
#X coords 0 3 15 -3 200 50 1 0 0;
#X restore 514 269 graph;
#N canvas 0 0 450 300 (subpatch) 0;
#X array \$0-next 16 float 3;
#A 0 4 2 5 3 4 5 1 2 3 5 4 3 5 2 4 4;
#X coords 0 3 15 -3 200 50 1 0 0;
#X restore 515 343 graph;
#N canvas 0 0 450 300 (subpatch) 0;
#X array \$0-id2d 32 float 3;
#A 0 0 1 1 1 1 2 2 2 2 2 2 3 3 3 3 4 0 1 1 1 1 2 2 2 2 2 2 3 3 3 3
4;
#X coords 0 4 31 0 200 140 1 0 0;
#X restore 507 414 graph;
#X obj 234 280 outlet;
#X obj 234 260 list;
#X text 168 294 here we output rhythms converted into families;
#N canvas 64 185 962 487 pattern2group 0;
#N canvas 94 375 1036 300 beat2id 0;
#X obj 26 87 l2s;
#X msg 95 70 symbol;
#X obj 95 53 loadbang;
#X obj 26 49 prepend #;
#X msg 26 170 1;
#X msg 52 170 2;
#X msg 80 170 3;
#X msg 106 169 4;
#X msg 136 169 5;
#X msg 162 169 6;
#X msg 190 169 7;
#X msg 216 168 8;
#X msg 242 168 9;
#X msg 268 168 10;
#X msg 296 168 11;
#X msg 322 167 12;
#X msg 352 167 13;
#X msg 378 167 14;
#X msg 406 167 15;
#X msg 432 166 16;
#X obj 26 130 sel #0000 #1000 #0100 #0010 #0001 #1100 #1010 #1001 #0110
#0101 #0011 #1110 #1101 #1011 #0111 #1111;
#X obj 27 206 f;
#X obj 24 28 inlet;
#X obj 27 225 outlet;
#X obj 497 212 outlet;
#X obj 532 76 sel #0000 #1000 #0100 #0010 #0001 #1100 #1010 #1001 #0110
#0101 #0011 #1110 #1101 #1011 #0111 #1111;
#X obj 496 186 f;
#X text 47 248 ID;
#X text 574 246 density;
#X obj 302 73 t a a;
#X msg 495 150 0;
#X msg 521 150 1;
#X msg 549 150 1;
#X msg 575 149 1;
#X msg 605 149 1;
#X msg 631 149 2;
#X msg 659 149 2;
#X msg 685 148 2;
#X msg 711 148 2;
#X msg 737 148 2;
#X msg 765 148 2;
#X msg 901 146 4;
#X msg 875 147 3;
#X msg 847 147 3;
#X msg 821 147 3;
#X msg 791 147 3;
#X connect 0 0 29 0;
#X connect 1 0 0 1;
#X connect 2 0 1 0;
#X connect 3 0 0 0;
#X connect 4 0 21 0;
#X connect 5 0 21 0;
#X connect 6 0 21 0;
#X connect 7 0 21 0;
#X connect 8 0 21 0;
#X connect 9 0 21 0;
#X connect 10 0 21 0;
#X connect 11 0 21 0;
#X connect 12 0 21 0;
#X connect 13 0 21 0;
#X connect 14 0 21 0;
#X connect 15 0 21 0;
#X connect 16 0 21 0;
#X connect 17 0 21 0;
#X connect 18 0 21 0;
#X connect 19 0 21 0;
#X connect 20 0 4 0;
#X connect 20 1 5 0;
#X connect 20 2 6 0;
#X connect 20 3 7 0;
#X connect 20 4 8 0;
#X connect 20 5 9 0;
#X connect 20 6 10 0;
#X connect 20 7 11 0;
#X connect 20 8 12 0;
#X connect 20 9 13 0;
#X connect 20 10 14 0;
#X connect 20 11 15 0;
#X connect 20 12 16 0;
#X connect 20 13 17 0;
#X connect 20 14 18 0;
#X connect 20 15 19 0;
#X connect 21 0 23 0;
#X connect 22 0 3 0;
#X connect 25 0 30 0;
#X connect 25 1 31 0;
#X connect 25 2 32 0;
#X connect 25 3 33 0;
#X connect 25 4 34 0;
#X connect 25 5 35 0;
#X connect 25 6 36 0;
#X connect 25 7 37 0;
#X connect 25 8 38 0;
#X connect 25 9 39 0;
#X connect 25 10 40 0;
#X connect 25 11 45 0;
#X connect 25 12 44 0;
#X connect 25 13 43 0;
#X connect 25 14 42 0;
#X connect 25 15 41 0;
#X connect 26 0 24 0;
#X connect 29 0 20 0;
#X connect 29 1 25 0;
#X connect 30 0 26 0;
#X connect 31 0 26 0;
#X connect 32 0 26 0;
#X connect 33 0 26 0;
#X connect 34 0 26 0;
#X connect 35 0 26 0;
#X connect 36 0 26 0;
#X connect 37 0 26 0;
#X connect 38 0 26 0;
#X connect 39 0 26 0;
#X connect 40 0 26 0;
#X connect 41 0 26 0;
#X connect 42 0 26 0;
#X connect 43 0 26 0;
#X connect 44 0 26 0;
#X connect 45 0 26 0;
#X restore 45 310 pd beat2id;
#X obj 45 329 pack f f;
#X obj 131 314 tgl 15 0 empty empty empty 17 7 0 10 -262144 -1 -1 0
1;
#X text 146 311 <- next note;
#X obj 131 294 list split 1;
#X obj 45 256 list split 4;
#X obj 131 273 list split 4;
#X obj 45 143 list split 8;
#X obj 214 161 list split 4;
#X obj 223 126 t l l l l;
#X obj 420 159 list split 8;
#X obj 661 143 list split 12;
#X obj 661 163 list split 4;
#X obj 661 184 list prepend;
#X obj 248 341 pack f f;
#X obj 334 326 tgl 15 0 empty empty empty 17 7 0 10 -262144 -1 -1 0
1;
#X text 349 323 <- next note;
#X obj 334 306 list split 1;
#X obj 248 268 list split 4;
#X obj 334 285 list split 4;
#X obj 454 339 pack f f;
#X obj 540 324 tgl 15 0 empty empty empty 17 7 0 10 -262144 -1 -1 0
1;
#X text 555 321 <- next note;
#X obj 540 304 list split 1;
#X obj 454 266 list split 4;
#X obj 540 283 list split 4;
#X obj 661 345 pack f f;
#X obj 747 330 tgl 15 0 empty empty empty 17 7 0 10 -262144 -1 -1 0
1;
#X text 762 327 <- next note;
#X obj 747 310 list split 1;
#X obj 661 272 list split 4;
#X obj 747 289 list split 4;
#X obj 341 418 pack f f f f;
#X obj 223 70 inlet;
#X obj 341 451 outlet;
#X text 386 450 output group;
#X text 861 380 output density;
#X obj 859 327 pack f f f f;
#X obj 859 360 outlet;
#N canvas 109 343 1036 300 beat2id 0;
#X obj 26 87 l2s;
#X msg 95 70 symbol;
#X obj 95 53 loadbang;
#X obj 26 49 prepend #;
#X msg 26 170 1;
#X msg 52 170 2;
#X msg 80 170 3;
#X msg 106 169 4;
#X msg 136 169 5;
#X msg 162 169 6;
#X msg 190 169 7;
#X msg 216 168 8;
#X msg 242 168 9;
#X msg 268 168 10;
#X msg 296 168 11;
#X msg 322 167 12;
#X msg 352 167 13;
#X msg 378 167 14;
#X msg 406 167 15;
#X msg 432 166 16;
#X obj 26 130 sel #0000 #1000 #0100 #0010 #0001 #1100 #1010 #1001 #0110
#0101 #0011 #1110 #1101 #1011 #0111 #1111;
#X obj 27 206 f;
#X obj 24 28 inlet;
#X obj 27 225 outlet;
#X obj 497 212 outlet;
#X obj 532 76 sel #0000 #1000 #0100 #0010 #0001 #1100 #1010 #1001 #0110
#0101 #0011 #1110 #1101 #1011 #0111 #1111;
#X obj 496 186 f;
#X text 47 248 ID;
#X text 574 246 density;
#X obj 302 73 t a a;
#X msg 495 150 0;
#X msg 521 150 1;
#X msg 549 150 1;
#X msg 575 149 1;
#X msg 605 149 1;
#X msg 631 149 2;
#X msg 659 149 2;
#X msg 685 148 2;
#X msg 711 148 2;
#X msg 737 148 2;
#X msg 765 148 2;
#X msg 901 146 4;
#X msg 875 147 3;
#X msg 847 147 3;
#X msg 821 147 3;
#X msg 791 147 3;
#X connect 0 0 29 0;
#X connect 1 0 0 1;
#X connect 2 0 1 0;
#X connect 3 0 0 0;
#X connect 4 0 21 0;
#X connect 5 0 21 0;
#X connect 6 0 21 0;
#X connect 7 0 21 0;
#X connect 8 0 21 0;
#X connect 9 0 21 0;
#X connect 10 0 21 0;
#X connect 11 0 21 0;
#X connect 12 0 21 0;
#X connect 13 0 21 0;
#X connect 14 0 21 0;
#X connect 15 0 21 0;
#X connect 16 0 21 0;
#X connect 17 0 21 0;
#X connect 18 0 21 0;
#X connect 19 0 21 0;
#X connect 20 0 4 0;
#X connect 20 1 5 0;
#X connect 20 2 6 0;
#X connect 20 3 7 0;
#X connect 20 4 8 0;
#X connect 20 5 9 0;
#X connect 20 6 10 0;
#X connect 20 7 11 0;
#X connect 20 8 12 0;
#X connect 20 9 13 0;
#X connect 20 10 14 0;
#X connect 20 11 15 0;
#X connect 20 12 16 0;
#X connect 20 13 17 0;
#X connect 20 14 18 0;
#X connect 20 15 19 0;
#X connect 21 0 23 0;
#X connect 22 0 3 0;
#X connect 25 0 30 0;
#X connect 25 1 31 0;
#X connect 25 2 32 0;
#X connect 25 3 33 0;
#X connect 25 4 34 0;
#X connect 25 5 35 0;
#X connect 25 6 36 0;
#X connect 25 7 37 0;
#X connect 25 8 38 0;
#X connect 25 9 39 0;
#X connect 25 10 40 0;
#X connect 25 11 45 0;
#X connect 25 12 44 0;
#X connect 25 13 43 0;
#X connect 25 14 42 0;
#X connect 25 15 41 0;
#X connect 26 0 24 0;
#X connect 29 0 20 0;
#X connect 29 1 25 0;
#X connect 30 0 26 0;
#X connect 31 0 26 0;
#X connect 32 0 26 0;
#X connect 33 0 26 0;
#X connect 34 0 26 0;
#X connect 35 0 26 0;
#X connect 36 0 26 0;
#X connect 37 0 26 0;
#X connect 38 0 26 0;
#X connect 39 0 26 0;
#X connect 40 0 26 0;
#X connect 41 0 26 0;
#X connect 42 0 26 0;
#X connect 43 0 26 0;
#X connect 44 0 26 0;
#X connect 45 0 26 0;
#X restore 248 310 pd beat2id;
#N canvas 118 349 1036 300 beat2id 0;
#X obj 26 87 l2s;
#X msg 95 70 symbol;
#X obj 95 53 loadbang;
#X obj 26 49 prepend #;
#X msg 26 170 1;
#X msg 52 170 2;
#X msg 80 170 3;
#X msg 106 169 4;
#X msg 136 169 5;
#X msg 162 169 6;
#X msg 190 169 7;
#X msg 216 168 8;
#X msg 242 168 9;
#X msg 268 168 10;
#X msg 296 168 11;
#X msg 322 167 12;
#X msg 352 167 13;
#X msg 378 167 14;
#X msg 406 167 15;
#X msg 432 166 16;
#X obj 26 130 sel #0000 #1000 #0100 #0010 #0001 #1100 #1010 #1001 #0110
#0101 #0011 #1110 #1101 #1011 #0111 #1111;
#X obj 27 206 f;
#X obj 24 28 inlet;
#X obj 27 225 outlet;
#X obj 497 212 outlet;
#X obj 532 76 sel #0000 #1000 #0100 #0010 #0001 #1100 #1010 #1001 #0110
#0101 #0011 #1110 #1101 #1011 #0111 #1111;
#X obj 496 186 f;
#X text 47 248 ID;
#X text 574 246 density;
#X obj 302 73 t a a;
#X msg 495 150 0;
#X msg 521 150 1;
#X msg 549 150 1;
#X msg 575 149 1;
#X msg 605 149 1;
#X msg 631 149 2;
#X msg 659 149 2;
#X msg 685 148 2;
#X msg 711 148 2;
#X msg 737 148 2;
#X msg 765 148 2;
#X msg 901 146 4;
#X msg 875 147 3;
#X msg 847 147 3;
#X msg 821 147 3;
#X msg 791 147 3;
#X connect 0 0 29 0;
#X connect 1 0 0 1;
#X connect 2 0 1 0;
#X connect 3 0 0 0;
#X connect 4 0 21 0;
#X connect 5 0 21 0;
#X connect 6 0 21 0;
#X connect 7 0 21 0;
#X connect 8 0 21 0;
#X connect 9 0 21 0;
#X connect 10 0 21 0;
#X connect 11 0 21 0;
#X connect 12 0 21 0;
#X connect 13 0 21 0;
#X connect 14 0 21 0;
#X connect 15 0 21 0;
#X connect 16 0 21 0;
#X connect 17 0 21 0;
#X connect 18 0 21 0;
#X connect 19 0 21 0;
#X connect 20 0 4 0;
#X connect 20 1 5 0;
#X connect 20 2 6 0;
#X connect 20 3 7 0;
#X connect 20 4 8 0;
#X connect 20 5 9 0;
#X connect 20 6 10 0;
#X connect 20 7 11 0;
#X connect 20 8 12 0;
#X connect 20 9 13 0;
#X connect 20 10 14 0;
#X connect 20 11 15 0;
#X connect 20 12 16 0;
#X connect 20 13 17 0;
#X connect 20 14 18 0;
#X connect 20 15 19 0;
#X connect 21 0 23 0;
#X connect 22 0 3 0;
#X connect 25 0 30 0;
#X connect 25 1 31 0;
#X connect 25 2 32 0;
#X connect 25 3 33 0;
#X connect 25 4 34 0;
#X connect 25 5 35 0;
#X connect 25 6 36 0;
#X connect 25 7 37 0;
#X connect 25 8 38 0;
#X connect 25 9 39 0;
#X connect 25 10 40 0;
#X connect 25 11 45 0;
#X connect 25 12 44 0;
#X connect 25 13 43 0;
#X connect 25 14 42 0;
#X connect 25 15 41 0;
#X connect 26 0 24 0;
#X connect 29 0 20 0;
#X connect 29 1 25 0;
#X connect 30 0 26 0;
#X connect 31 0 26 0;
#X connect 32 0 26 0;
#X connect 33 0 26 0;
#X connect 34 0 26 0;
#X connect 35 0 26 0;
#X connect 36 0 26 0;
#X connect 37 0 26 0;
#X connect 38 0 26 0;
#X connect 39 0 26 0;
#X connect 40 0 26 0;
#X connect 41 0 26 0;
#X connect 42 0 26 0;
#X connect 43 0 26 0;
#X connect 44 0 26 0;
#X connect 45 0 26 0;
#X restore 454 310 pd beat2id;
#N canvas 116 354 1036 300 beat2id 0;
#X obj 26 87 l2s;
#X msg 95 70 symbol;
#X obj 95 53 loadbang;
#X obj 26 49 prepend #;
#X msg 26 170 1;
#X msg 52 170 2;
#X msg 80 170 3;
#X msg 106 169 4;
#X msg 136 169 5;
#X msg 162 169 6;
#X msg 190 169 7;
#X msg 216 168 8;
#X msg 242 168 9;
#X msg 268 168 10;
#X msg 296 168 11;
#X msg 322 167 12;
#X msg 352 167 13;
#X msg 378 167 14;
#X msg 406 167 15;
#X msg 432 166 16;
#X obj 26 130 sel #0000 #1000 #0100 #0010 #0001 #1100 #1010 #1001 #0110
#0101 #0011 #1110 #1101 #1011 #0111 #1111;
#X obj 27 206 f;
#X obj 24 28 inlet;
#X obj 27 225 outlet;
#X obj 497 212 outlet;
#X obj 532 76 sel #0000 #1000 #0100 #0010 #0001 #1100 #1010 #1001 #0110
#0101 #0011 #1110 #1101 #1011 #0111 #1111;
#X obj 496 186 f;
#X text 47 248 ID;
#X text 574 246 density;
#X obj 302 73 t a a;
#X msg 495 150 0;
#X msg 521 150 1;
#X msg 549 150 1;
#X msg 575 149 1;
#X msg 605 149 1;
#X msg 631 149 2;
#X msg 659 149 2;
#X msg 685 148 2;
#X msg 711 148 2;
#X msg 737 148 2;
#X msg 765 148 2;
#X msg 901 146 4;
#X msg 875 147 3;
#X msg 847 147 3;
#X msg 821 147 3;
#X msg 791 147 3;
#X connect 0 0 29 0;
#X connect 1 0 0 1;
#X connect 2 0 1 0;
#X connect 3 0 0 0;
#X connect 4 0 21 0;
#X connect 5 0 21 0;
#X connect 6 0 21 0;
#X connect 7 0 21 0;
#X connect 8 0 21 0;
#X connect 9 0 21 0;
#X connect 10 0 21 0;
#X connect 11 0 21 0;
#X connect 12 0 21 0;
#X connect 13 0 21 0;
#X connect 14 0 21 0;
#X connect 15 0 21 0;
#X connect 16 0 21 0;
#X connect 17 0 21 0;
#X connect 18 0 21 0;
#X connect 19 0 21 0;
#X connect 20 0 4 0;
#X connect 20 1 5 0;
#X connect 20 2 6 0;
#X connect 20 3 7 0;
#X connect 20 4 8 0;
#X connect 20 5 9 0;
#X connect 20 6 10 0;
#X connect 20 7 11 0;
#X connect 20 8 12 0;
#X connect 20 9 13 0;
#X connect 20 10 14 0;
#X connect 20 11 15 0;
#X connect 20 12 16 0;
#X connect 20 13 17 0;
#X connect 20 14 18 0;
#X connect 20 15 19 0;
#X connect 21 0 23 0;
#X connect 22 0 3 0;
#X connect 25 0 30 0;
#X connect 25 1 31 0;
#X connect 25 2 32 0;
#X connect 25 3 33 0;
#X connect 25 4 34 0;
#X connect 25 5 35 0;
#X connect 25 6 36 0;
#X connect 25 7 37 0;
#X connect 25 8 38 0;
#X connect 25 9 39 0;
#X connect 25 10 40 0;
#X connect 25 11 45 0;
#X connect 25 12 44 0;
#X connect 25 13 43 0;
#X connect 25 14 42 0;
#X connect 25 15 41 0;
#X connect 26 0 24 0;
#X connect 29 0 20 0;
#X connect 29 1 25 0;
#X connect 30 0 26 0;
#X connect 31 0 26 0;
#X connect 32 0 26 0;
#X connect 33 0 26 0;
#X connect 34 0 26 0;
#X connect 35 0 26 0;
#X connect 36 0 26 0;
#X connect 37 0 26 0;
#X connect 38 0 26 0;
#X connect 39 0 26 0;
#X connect 40 0 26 0;
#X connect 41 0 26 0;
#X connect 42 0 26 0;
#X connect 43 0 26 0;
#X connect 44 0 26 0;
#X connect 45 0 26 0;
#X restore 661 310 pd beat2id;
#N canvas 348 210 624 346 idandnext2group 0;
#X obj 33 23 inlet;
#X obj 64 229 outlet;
#X msg 33 48 \$2 \$1;
#X obj 33 70 route 0 1;
#X obj 33 133 - 1;
#X obj 123 133 - 1;
#X msg 272 38 \; nonext 0 4 2 5 3 6 5 1 8 3 7 6 3 7 8 6 6;
#X msg 357 84 \; next 0 4 2 5 3 4 5 1 2 3 5 4 3 5 2 4 4;
#X obj 33 152 tabread \$0-nonext;
#X obj 123 152 tabread \$0-next;
#X connect 0 0 2 0;
#X connect 2 0 3 0;
#X connect 3 0 4 0;
#X connect 3 1 5 0;
#X connect 4 0 8 0;
#X connect 5 0 9 0;
#X connect 8 0 1 0;
#X connect 9 0 1 0;
#X restore 45 361 pd idandnext2group;
#N canvas 372 177 624 346 idandnext2group 0;
#X obj 33 23 inlet;
#X obj 64 229 outlet;
#X msg 33 48 \$2 \$1;
#X obj 33 70 route 0 1;
#X obj 33 133 - 1;
#X obj 123 133 - 1;
#X msg 272 38 \; nonext 0 4 2 5 3 6 5 1 8 3 7 6 3 7 8 6 6;
#X msg 357 84 \; next 0 4 2 5 3 4 5 1 2 3 5 4 3 5 2 4 4;
#X obj 33 152 tabread \$0-nonext;
#X obj 123 152 tabread \$0-next;
#X connect 0 0 2 0;
#X connect 2 0 3 0;
#X connect 3 0 4 0;
#X connect 3 1 5 0;
#X connect 4 0 8 0;
#X connect 5 0 9 0;
#X connect 8 0 1 0;
#X connect 9 0 1 0;
#X restore 248 361 pd idandnext2group;
#N canvas 372 177 624 346 idandnext2group 0;
#X obj 33 23 inlet;
#X obj 64 229 outlet;
#X msg 33 48 \$2 \$1;
#X obj 33 70 route 0 1;
#X obj 33 133 - 1;
#X obj 123 133 - 1;
#X msg 272 38 \; nonext 0 4 2 5 3 6 5 1 8 3 7 6 3 7 8 6 6;
#X msg 357 84 \; next 0 4 2 5 3 4 5 1 2 3 5 4 3 5 2 4 4;
#X obj 33 152 tabread \$0-nonext;
#X obj 123 152 tabread \$0-next;
#X connect 0 0 2 0;
#X connect 2 0 3 0;
#X connect 3 0 4 0;
#X connect 3 1 5 0;
#X connect 4 0 8 0;
#X connect 5 0 9 0;
#X connect 8 0 1 0;
#X connect 9 0 1 0;
#X restore 454 361 pd idandnext2group;
#N canvas 372 177 624 346 idandnext2group 0;
#X obj 33 23 inlet;
#X obj 64 229 outlet;
#X msg 33 48 \$2 \$1;
#X obj 33 70 route 0 1;
#X obj 33 133 - 1;
#X obj 123 133 - 1;
#X msg 272 38 \; nonext 0 4 2 5 3 6 5 1 8 3 7 6 3 7 8 6 6;
#X msg 357 84 \; next 0 4 2 5 3 4 5 1 2 3 5 4 3 5 2 4 4;
#X obj 33 152 tabread \$0-nonext;
#X obj 123 152 tabread \$0-next;
#X connect 0 0 2 0;
#X connect 2 0 3 0;
#X connect 3 0 4 0;
#X connect 3 1 5 0;
#X connect 4 0 8 0;
#X connect 5 0 9 0;
#X connect 8 0 1 0;
#X connect 9 0 1 0;
#X restore 661 364 pd idandnext2group;
#X connect 0 0 1 0;
#X connect 0 1 37 0;
#X connect 1 0 42 0;
#X connect 2 0 1 1;
#X connect 4 0 2 0;
#X connect 5 0 0 0;
#X connect 5 1 6 0;
#X connect 6 0 4 0;
#X connect 7 0 5 0;
#X connect 8 1 18 0;
#X connect 9 0 7 0;
#X connect 9 1 8 0;
#X connect 9 2 10 0;
#X connect 9 3 11 0;
#X connect 10 1 24 0;
#X connect 11 0 12 0;
#X connect 11 1 13 1;
#X connect 12 0 13 0;
#X connect 13 0 30 0;
#X connect 14 0 43 0;
#X connect 15 0 14 1;
#X connect 17 0 15 0;
#X connect 18 0 39 0;
#X connect 18 1 19 0;
#X connect 19 0 17 0;
#X connect 20 0 44 0;
#X connect 21 0 20 1;
#X connect 23 0 21 0;
#X connect 24 0 40 0;
#X connect 24 1 25 0;
#X connect 25 0 23 0;
#X connect 26 0 45 0;
#X connect 27 0 26 1;
#X connect 29 0 27 0;
#X connect 30 0 41 0;
#X connect 30 1 31 0;
#X connect 31 0 29 0;
#X connect 32 0 34 0;
#X connect 33 0 9 0;
#X connect 37 0 38 0;
#X connect 39 0 14 0;
#X connect 39 1 37 1;
#X connect 40 0 20 0;
#X connect 40 1 37 2;
#X connect 41 0 26 0;
#X connect 41 1 37 3;
#X connect 42 0 32 0;
#X connect 43 0 32 1;
#X connect 44 0 32 2;
#X connect 45 0 32 3;
#X restore 207 69 pd pattern2group;
#X connect 0 0 3 0;
#X connect 1 0 22 0;
#X connect 3 0 6 0;
#X connect 3 0 20 0;
#X connect 5 0 6 0;
#X connect 6 0 8 0;
#X connect 7 0 6 1;
#X connect 8 0 14 0;
#X connect 12 0 2 0;
#X connect 13 0 12 0;
#X connect 14 0 13 0;
#X connect 14 1 15 0;
#X connect 15 0 13 1;
#X connect 20 0 19 0;
#X connect 22 0 6 1;
#X connect 22 0 20 1;
