#N canvas 0 87 886 300 10;
#X obj 72 53 inlet;
#X obj 207 50 inlet;
#X obj 72 261 outlet;
#N canvas 82 172 962 487 pattern2group 0;
#X obj 661 145 list split 4;
#X obj 661 166 list prepend;
#X obj 661 345 pack f f;
#X obj 727 304 tgl 15 0 empty empty empty 17 7 0 10 -262144 -1 -1 0
1;
#X text 742 301 <- next note;
#X obj 727 284 list split 1;
#X obj 661 243 list split 4;
#X obj 727 263 list split 4;
#X obj 183 52 inlet;
#X obj 341 451 outlet;
#X text 386 450 output group;
#N canvas 110 364 1036 300 beat2id 0;
#X obj 26 87 l2s;
#X msg 95 70 symbol;
#X obj 95 53 loadbang;
#X obj 26 49 prepend #;
#X msg 26 170 1;
#X msg 52 170 2;
#X msg 80 170 3;
#X msg 106 169 4;
#X msg 136 169 5;
#X msg 162 169 6;
#X msg 190 169 7;
#X msg 216 168 8;
#X msg 242 168 9;
#X msg 268 168 10;
#X msg 296 168 11;
#X msg 322 167 12;
#X msg 352 167 13;
#X msg 378 167 14;
#X msg 406 167 15;
#X msg 432 166 16;
#X obj 26 130 sel #0000 #1000 #0100 #0010 #0001 #1100 #1010 #1001 #0110
#0101 #0011 #1110 #1101 #1011 #0111 #1111;
#X obj 27 206 f;
#X obj 24 28 inlet;
#X obj 27 225 outlet;
#X obj 497 212 outlet;
#X obj 532 76 sel #0000 #1000 #0100 #0010 #0001 #1100 #1010 #1001 #0110
#0101 #0011 #1110 #1101 #1011 #0111 #1111;
#X obj 496 186 f;
#X text 47 248 ID;
#X text 574 246 density;
#X obj 302 73 t a a;
#X msg 495 150 0;
#X msg 521 150 1;
#X msg 549 150 1;
#X msg 575 149 1;
#X msg 605 149 1;
#X msg 631 149 2;
#X msg 659 149 2;
#X msg 685 148 2;
#X msg 711 148 2;
#X msg 737 148 2;
#X msg 765 148 2;
#X msg 901 146 4;
#X msg 875 147 3;
#X msg 847 147 3;
#X msg 821 147 3;
#X msg 791 147 3;
#X connect 0 0 29 0;
#X connect 1 0 0 1;
#X connect 2 0 1 0;
#X connect 3 0 0 0;
#X connect 4 0 21 0;
#X connect 5 0 21 0;
#X connect 6 0 21 0;
#X connect 7 0 21 0;
#X connect 8 0 21 0;
#X connect 9 0 21 0;
#X connect 10 0 21 0;
#X connect 11 0 21 0;
#X connect 12 0 21 0;
#X connect 13 0 21 0;
#X connect 14 0 21 0;
#X connect 15 0 21 0;
#X connect 16 0 21 0;
#X connect 17 0 21 0;
#X connect 18 0 21 0;
#X connect 19 0 21 0;
#X connect 20 0 4 0;
#X connect 20 1 5 0;
#X connect 20 2 6 0;
#X connect 20 3 7 0;
#X connect 20 4 8 0;
#X connect 20 5 9 0;
#X connect 20 6 10 0;
#X connect 20 7 11 0;
#X connect 20 8 12 0;
#X connect 20 9 13 0;
#X connect 20 10 14 0;
#X connect 20 11 15 0;
#X connect 20 12 16 0;
#X connect 20 13 17 0;
#X connect 20 14 18 0;
#X connect 20 15 19 0;
#X connect 21 0 23 0;
#X connect 22 0 3 0;
#X connect 25 0 30 0;
#X connect 25 1 31 0;
#X connect 25 2 32 0;
#X connect 25 3 33 0;
#X connect 25 4 34 0;
#X connect 25 5 35 0;
#X connect 25 6 36 0;
#X connect 25 7 37 0;
#X connect 25 8 38 0;
#X connect 25 9 39 0;
#X connect 25 10 40 0;
#X connect 25 11 45 0;
#X connect 25 12 44 0;
#X connect 25 13 43 0;
#X connect 25 14 42 0;
#X connect 25 15 41 0;
#X connect 26 0 24 0;
#X connect 29 0 20 0;
#X connect 29 1 25 0;
#X connect 30 0 26 0;
#X connect 31 0 26 0;
#X connect 32 0 26 0;
#X connect 33 0 26 0;
#X connect 34 0 26 0;
#X connect 35 0 26 0;
#X connect 36 0 26 0;
#X connect 37 0 26 0;
#X connect 38 0 26 0;
#X connect 39 0 26 0;
#X connect 40 0 26 0;
#X connect 41 0 26 0;
#X connect 42 0 26 0;
#X connect 43 0 26 0;
#X connect 44 0 26 0;
#X connect 45 0 26 0;
#X restore 661 310 pd beat2id;
#N canvas 369 182 624 346 idandnext2group 0;
#X obj 33 23 inlet;
#X obj 64 229 outlet;
#X msg 33 48 \$2 \$1;
#X obj 33 70 route 0 1;
#X obj 33 133 - 1;
#X obj 151 133 - 1;
#X msg 272 38 \; nonext 0 4 2 5 3 6 5 1 8 3 7 6 3 7 8 6 6;
#X msg 357 84 \; next 0 4 2 5 3 4 5 1 2 3 5 4 3 5 2 4 4;
#X obj 33 152 tabread \$0-nonext;
#X obj 151 152 tabread \$0-next;
#X connect 0 0 2 0;
#X connect 2 0 3 0;
#X connect 3 0 4 0;
#X connect 3 1 5 0;
#X connect 4 0 8 0;
#X connect 5 0 9 0;
#X connect 8 0 1 0;
#X connect 9 0 1 0;
#X restore 661 364 pd idandnext2group;
#X obj 341 418 pack f f f f f f f f;
#N canvas 830 252 450 369 split 0;
#X obj 101 89 inlet;
#X obj 135 331 outlet;
#X obj 101 109 list split 8;
#X obj 135 289 pack f f;
#X obj 201 248 tgl 15 0 empty empty empty 17 7 0 10 -262144 -1 -1 0
1;
#X text 216 245 <- next note;
#X obj 201 228 list split 1;
#X obj 135 187 list split 4;
#X obj 201 207 list split 4;
#N canvas 112 359 1036 300 beat2id 0;
#X obj 26 87 l2s;
#X msg 95 70 symbol;
#X obj 95 53 loadbang;
#X obj 26 49 prepend #;
#X msg 26 170 1;
#X msg 52 170 2;
#X msg 80 170 3;
#X msg 106 169 4;
#X msg 136 169 5;
#X msg 162 169 6;
#X msg 190 169 7;
#X msg 216 168 8;
#X msg 242 168 9;
#X msg 268 168 10;
#X msg 296 168 11;
#X msg 322 167 12;
#X msg 352 167 13;
#X msg 378 167 14;
#X msg 406 167 15;
#X msg 432 166 16;
#X obj 26 130 sel #0000 #1000 #0100 #0010 #0001 #1100 #1010 #1001 #0110
#0101 #0011 #1110 #1101 #1011 #0111 #1111;
#X obj 27 206 f;
#X obj 24 28 inlet;
#X obj 27 225 outlet;
#X obj 497 212 outlet;
#X obj 532 76 sel #0000 #1000 #0100 #0010 #0001 #1100 #1010 #1001 #0110
#0101 #0011 #1110 #1101 #1011 #0111 #1111;
#X obj 496 186 f;
#X text 47 248 ID;
#X text 574 246 density;
#X obj 302 73 t a a;
#X msg 495 150 0;
#X msg 521 150 1;
#X msg 549 150 1;
#X msg 575 149 1;
#X msg 605 149 1;
#X msg 631 149 2;
#X msg 659 149 2;
#X msg 685 148 2;
#X msg 711 148 2;
#X msg 737 148 2;
#X msg 765 148 2;
#X msg 901 146 4;
#X msg 875 147 3;
#X msg 847 147 3;
#X msg 821 147 3;
#X msg 791 147 3;
#X connect 0 0 29 0;
#X connect 1 0 0 1;
#X connect 2 0 1 0;
#X connect 3 0 0 0;
#X connect 4 0 21 0;
#X connect 5 0 21 0;
#X connect 6 0 21 0;
#X connect 7 0 21 0;
#X connect 8 0 21 0;
#X connect 9 0 21 0;
#X connect 10 0 21 0;
#X connect 11 0 21 0;
#X connect 12 0 21 0;
#X connect 13 0 21 0;
#X connect 14 0 21 0;
#X connect 15 0 21 0;
#X connect 16 0 21 0;
#X connect 17 0 21 0;
#X connect 18 0 21 0;
#X connect 19 0 21 0;
#X connect 20 0 4 0;
#X connect 20 1 5 0;
#X connect 20 2 6 0;
#X connect 20 3 7 0;
#X connect 20 4 8 0;
#X connect 20 5 9 0;
#X connect 20 6 10 0;
#X connect 20 7 11 0;
#X connect 20 8 12 0;
#X connect 20 9 13 0;
#X connect 20 10 14 0;
#X connect 20 11 15 0;
#X connect 20 12 16 0;
#X connect 20 13 17 0;
#X connect 20 14 18 0;
#X connect 20 15 19 0;
#X connect 21 0 23 0;
#X connect 22 0 3 0;
#X connect 25 0 30 0;
#X connect 25 1 31 0;
#X connect 25 2 32 0;
#X connect 25 3 33 0;
#X connect 25 4 34 0;
#X connect 25 5 35 0;
#X connect 25 6 36 0;
#X connect 25 7 37 0;
#X connect 25 8 38 0;
#X connect 25 9 39 0;
#X connect 25 10 40 0;
#X connect 25 11 45 0;
#X connect 25 12 44 0;
#X connect 25 13 43 0;
#X connect 25 14 42 0;
#X connect 25 15 41 0;
#X connect 26 0 24 0;
#X connect 29 0 20 0;
#X connect 29 1 25 0;
#X connect 30 0 26 0;
#X connect 31 0 26 0;
#X connect 32 0 26 0;
#X connect 33 0 26 0;
#X connect 34 0 26 0;
#X connect 35 0 26 0;
#X connect 36 0 26 0;
#X connect 37 0 26 0;
#X connect 38 0 26 0;
#X connect 39 0 26 0;
#X connect 40 0 26 0;
#X connect 41 0 26 0;
#X connect 42 0 26 0;
#X connect 43 0 26 0;
#X connect 44 0 26 0;
#X connect 45 0 26 0;
#X restore 135 260 pd beat2id;
#N canvas 366 187 624 346 idandnext2group 0;
#X obj 33 23 inlet;
#X obj 64 229 outlet;
#X msg 33 48 \$2 \$1;
#X obj 33 70 route 0 1;
#X obj 33 133 - 1;
#X obj 155 133 - 1;
#X msg 272 38 \; nonext 0 4 2 5 3 6 5 1 8 3 7 6 3 7 8 6 6;
#X msg 357 84 \; next 0 4 2 5 3 4 5 1 2 3 5 4 3 5 2 4 4;
#X obj 33 151 tabread \$0-nonext;
#X obj 155 152 tabread \$0-next;
#X connect 0 0 2 0;
#X connect 2 0 3 0;
#X connect 3 0 4 0;
#X connect 3 1 5 0;
#X connect 4 0 8 0;
#X connect 5 0 9 0;
#X connect 8 0 1 0;
#X connect 9 0 1 0;
#X restore 135 311 pd idandnext2group;
#X obj 189 92 inlet;
#X text 86 25 partir la lista en 4 steps y los 4 steps siguientes dado
un índice de corte;
#X text 179 75 índice de corte;
#X connect 0 0 2 0;
#X connect 2 1 7 0;
#X connect 3 0 10 0;
#X connect 4 0 3 1;
#X connect 6 0 4 0;
#X connect 7 0 9 0;
#X connect 7 1 8 0;
#X connect 8 0 6 0;
#X connect 9 0 3 0;
#X connect 10 0 1 0;
#X connect 11 0 2 1;
#X restore 51 238 pd split;
#X obj 96 219 nbx 2 14 0 8 0 1 empty empty empty 0 -8 0 10 -262144
-1 -1 0 256;
#N canvas 686 347 450 369 split 0;
#X obj 101 89 inlet;
#X obj 135 331 outlet;
#X obj 101 109 list split 8;
#X obj 135 289 pack f f;
#X obj 201 248 tgl 15 0 empty empty empty 17 7 0 10 -262144 -1 -1 0
1;
#X text 216 245 <- next note;
#X obj 201 228 list split 1;
#X obj 135 187 list split 4;
#X obj 201 207 list split 4;
#N canvas 118 349 1036 300 beat2id 0;
#X obj 26 87 l2s;
#X msg 95 70 symbol;
#X obj 95 53 loadbang;
#X obj 26 49 prepend #;
#X msg 26 170 1;
#X msg 52 170 2;
#X msg 80 170 3;
#X msg 106 169 4;
#X msg 136 169 5;
#X msg 162 169 6;
#X msg 190 169 7;
#X msg 216 168 8;
#X msg 242 168 9;
#X msg 268 168 10;
#X msg 296 168 11;
#X msg 322 167 12;
#X msg 352 167 13;
#X msg 378 167 14;
#X msg 406 167 15;
#X msg 432 166 16;
#X obj 26 130 sel #0000 #1000 #0100 #0010 #0001 #1100 #1010 #1001 #0110
#0101 #0011 #1110 #1101 #1011 #0111 #1111;
#X obj 27 206 f;
#X obj 24 28 inlet;
#X obj 27 225 outlet;
#X obj 497 212 outlet;
#X obj 532 76 sel #0000 #1000 #0100 #0010 #0001 #1100 #1010 #1001 #0110
#0101 #0011 #1110 #1101 #1011 #0111 #1111;
#X obj 496 186 f;
#X text 47 248 ID;
#X text 574 246 density;
#X obj 302 73 t a a;
#X msg 495 150 0;
#X msg 521 150 1;
#X msg 549 150 1;
#X msg 575 149 1;
#X msg 605 149 1;
#X msg 631 149 2;
#X msg 659 149 2;
#X msg 685 148 2;
#X msg 711 148 2;
#X msg 737 148 2;
#X msg 765 148 2;
#X msg 901 146 4;
#X msg 875 147 3;
#X msg 847 147 3;
#X msg 821 147 3;
#X msg 791 147 3;
#X connect 0 0 29 0;
#X connect 1 0 0 1;
#X connect 2 0 1 0;
#X connect 3 0 0 0;
#X connect 4 0 21 0;
#X connect 5 0 21 0;
#X connect 6 0 21 0;
#X connect 7 0 21 0;
#X connect 8 0 21 0;
#X connect 9 0 21 0;
#X connect 10 0 21 0;
#X connect 11 0 21 0;
#X connect 12 0 21 0;
#X connect 13 0 21 0;
#X connect 14 0 21 0;
#X connect 15 0 21 0;
#X connect 16 0 21 0;
#X connect 17 0 21 0;
#X connect 18 0 21 0;
#X connect 19 0 21 0;
#X connect 20 0 4 0;
#X connect 20 1 5 0;
#X connect 20 2 6 0;
#X connect 20 3 7 0;
#X connect 20 4 8 0;
#X connect 20 5 9 0;
#X connect 20 6 10 0;
#X connect 20 7 11 0;
#X connect 20 8 12 0;
#X connect 20 9 13 0;
#X connect 20 10 14 0;
#X connect 20 11 15 0;
#X connect 20 12 16 0;
#X connect 20 13 17 0;
#X connect 20 14 18 0;
#X connect 20 15 19 0;
#X connect 21 0 23 0;
#X connect 22 0 3 0;
#X connect 25 0 30 0;
#X connect 25 1 31 0;
#X connect 25 2 32 0;
#X connect 25 3 33 0;
#X connect 25 4 34 0;
#X connect 25 5 35 0;
#X connect 25 6 36 0;
#X connect 25 7 37 0;
#X connect 25 8 38 0;
#X connect 25 9 39 0;
#X connect 25 10 40 0;
#X connect 25 11 45 0;
#X connect 25 12 44 0;
#X connect 25 13 43 0;
#X connect 25 14 42 0;
#X connect 25 15 41 0;
#X connect 26 0 24 0;
#X connect 29 0 20 0;
#X connect 29 1 25 0;
#X connect 30 0 26 0;
#X connect 31 0 26 0;
#X connect 32 0 26 0;
#X connect 33 0 26 0;
#X connect 34 0 26 0;
#X connect 35 0 26 0;
#X connect 36 0 26 0;
#X connect 37 0 26 0;
#X connect 38 0 26 0;
#X connect 39 0 26 0;
#X connect 40 0 26 0;
#X connect 41 0 26 0;
#X connect 42 0 26 0;
#X connect 43 0 26 0;
#X connect 44 0 26 0;
#X connect 45 0 26 0;
#X restore 135 260 pd beat2id;
#N canvas 369 182 624 346 idandnext2group 0;
#X obj 33 23 inlet;
#X obj 64 229 outlet;
#X msg 33 48 \$2 \$1;
#X obj 33 70 route 0 1;
#X obj 33 133 - 1;
#X obj 123 133 - 1;
#X msg 272 38 \; nonext 0 4 2 5 3 6 5 1 8 3 7 6 3 7 8 6 6;
#X msg 357 84 \; next 0 4 2 5 3 4 5 1 2 3 5 4 3 5 2 4 4;
#X obj 33 151 tabread \$0-nonext;
#X obj 123 152 tabread \$0-next;
#X connect 0 0 2 0;
#X connect 2 0 3 0;
#X connect 3 0 4 0;
#X connect 3 1 5 0;
#X connect 4 0 8 0;
#X connect 5 0 9 0;
#X connect 8 0 1 0;
#X connect 9 0 1 0;
#X restore 135 311 pd idandnext2group;
#X obj 189 92 inlet;
#X text 86 25 partir la lista en 4 steps y los 4 steps siguientes dado
un índice de corte;
#X text 179 75 índice de corte;
#X connect 0 0 2 0;
#X connect 2 1 7 0;
#X connect 3 0 10 0;
#X connect 4 0 3 1;
#X connect 6 0 4 0;
#X connect 7 0 9 0;
#X connect 7 1 8 0;
#X connect 8 0 6 0;
#X connect 9 0 3 0;
#X connect 10 0 1 0;
#X connect 11 0 2 1;
#X restore 130 238 pd split;
#X obj 175 219 nbx 2 14 0 8 0 1 empty empty empty 0 -8 0 10 -262144
-1 -1 4 256;
#N canvas 689 342 450 369 split 0;
#X obj 101 89 inlet;
#X obj 135 331 outlet;
#X obj 101 109 list split 8;
#X obj 135 289 pack f f;
#X obj 201 248 tgl 15 0 empty empty empty 17 7 0 10 -262144 -1 -1 0
1;
#X text 216 245 <- next note;
#X obj 201 228 list split 1;
#X obj 135 187 list split 4;
#X obj 201 207 list split 4;
#N canvas 115 354 1036 300 beat2id 0;
#X obj 26 87 l2s;
#X msg 95 70 symbol;
#X obj 95 53 loadbang;
#X obj 26 49 prepend #;
#X msg 26 170 1;
#X msg 52 170 2;
#X msg 80 170 3;
#X msg 106 169 4;
#X msg 136 169 5;
#X msg 162 169 6;
#X msg 190 169 7;
#X msg 216 168 8;
#X msg 242 168 9;
#X msg 268 168 10;
#X msg 296 168 11;
#X msg 322 167 12;
#X msg 352 167 13;
#X msg 378 167 14;
#X msg 406 167 15;
#X msg 432 166 16;
#X obj 26 130 sel #0000 #1000 #0100 #0010 #0001 #1100 #1010 #1001 #0110
#0101 #0011 #1110 #1101 #1011 #0111 #1111;
#X obj 27 206 f;
#X obj 24 28 inlet;
#X obj 27 225 outlet;
#X obj 497 212 outlet;
#X obj 532 76 sel #0000 #1000 #0100 #0010 #0001 #1100 #1010 #1001 #0110
#0101 #0011 #1110 #1101 #1011 #0111 #1111;
#X obj 496 186 f;
#X text 47 248 ID;
#X text 574 246 density;
#X obj 302 73 t a a;
#X msg 495 150 0;
#X msg 521 150 1;
#X msg 549 150 1;
#X msg 575 149 1;
#X msg 605 149 1;
#X msg 631 149 2;
#X msg 659 149 2;
#X msg 685 148 2;
#X msg 711 148 2;
#X msg 737 148 2;
#X msg 765 148 2;
#X msg 901 146 4;
#X msg 875 147 3;
#X msg 847 147 3;
#X msg 821 147 3;
#X msg 791 147 3;
#X connect 0 0 29 0;
#X connect 1 0 0 1;
#X connect 2 0 1 0;
#X connect 3 0 0 0;
#X connect 4 0 21 0;
#X connect 5 0 21 0;
#X connect 6 0 21 0;
#X connect 7 0 21 0;
#X connect 8 0 21 0;
#X connect 9 0 21 0;
#X connect 10 0 21 0;
#X connect 11 0 21 0;
#X connect 12 0 21 0;
#X connect 13 0 21 0;
#X connect 14 0 21 0;
#X connect 15 0 21 0;
#X connect 16 0 21 0;
#X connect 17 0 21 0;
#X connect 18 0 21 0;
#X connect 19 0 21 0;
#X connect 20 0 4 0;
#X connect 20 1 5 0;
#X connect 20 2 6 0;
#X connect 20 3 7 0;
#X connect 20 4 8 0;
#X connect 20 5 9 0;
#X connect 20 6 10 0;
#X connect 20 7 11 0;
#X connect 20 8 12 0;
#X connect 20 9 13 0;
#X connect 20 10 14 0;
#X connect 20 11 15 0;
#X connect 20 12 16 0;
#X connect 20 13 17 0;
#X connect 20 14 18 0;
#X connect 20 15 19 0;
#X connect 21 0 23 0;
#X connect 22 0 3 0;
#X connect 25 0 30 0;
#X connect 25 1 31 0;
#X connect 25 2 32 0;
#X connect 25 3 33 0;
#X connect 25 4 34 0;
#X connect 25 5 35 0;
#X connect 25 6 36 0;
#X connect 25 7 37 0;
#X connect 25 8 38 0;
#X connect 25 9 39 0;
#X connect 25 10 40 0;
#X connect 25 11 45 0;
#X connect 25 12 44 0;
#X connect 25 13 43 0;
#X connect 25 14 42 0;
#X connect 25 15 41 0;
#X connect 26 0 24 0;
#X connect 29 0 20 0;
#X connect 29 1 25 0;
#X connect 30 0 26 0;
#X connect 31 0 26 0;
#X connect 32 0 26 0;
#X connect 33 0 26 0;
#X connect 34 0 26 0;
#X connect 35 0 26 0;
#X connect 36 0 26 0;
#X connect 37 0 26 0;
#X connect 38 0 26 0;
#X connect 39 0 26 0;
#X connect 40 0 26 0;
#X connect 41 0 26 0;
#X connect 42 0 26 0;
#X connect 43 0 26 0;
#X connect 44 0 26 0;
#X connect 45 0 26 0;
#X restore 135 260 pd beat2id;
#N canvas 369 182 624 346 idandnext2group 0;
#X obj 33 23 inlet;
#X obj 64 229 outlet;
#X msg 33 48 \$2 \$1;
#X obj 33 70 route 0 1;
#X obj 33 133 - 1;
#X obj 123 133 - 1;
#X msg 272 38 \; nonext 0 4 2 5 3 6 5 1 8 3 7 6 3 7 8 6 6;
#X msg 357 84 \; next 0 4 2 5 3 4 5 1 2 3 5 4 3 5 2 4 4;
#X obj 33 152 tabread \$0-nonext;
#X obj 123 152 tabread \$0-next;
#X connect 0 0 2 0;
#X connect 2 0 3 0;
#X connect 3 0 4 0;
#X connect 3 1 5 0;
#X connect 4 0 8 0;
#X connect 5 0 9 0;
#X connect 8 0 1 0;
#X connect 9 0 1 0;
#X restore 135 311 pd idandnext2group;
#X obj 189 92 inlet;
#X text 86 25 partir la lista en 4 steps y los 4 steps siguientes dado
un índice de corte;
#X text 179 75 índice de corte;
#X connect 0 0 2 0;
#X connect 2 1 7 0;
#X connect 3 0 10 0;
#X connect 4 0 3 1;
#X connect 6 0 4 0;
#X connect 7 0 9 0;
#X connect 7 1 8 0;
#X connect 8 0 6 0;
#X connect 9 0 3 0;
#X connect 10 0 1 0;
#X connect 11 0 2 1;
#X restore 214 238 pd split;
#X obj 259 219 nbx 2 14 0 8 0 1 empty empty empty 0 -8 0 10 -262144
-1 -1 8 256;
#N canvas 689 342 450 369 split 0;
#X obj 101 89 inlet;
#X obj 135 331 outlet;
#X obj 101 109 list split 8;
#X obj 135 289 pack f f;
#X obj 201 248 tgl 15 0 empty empty empty 17 7 0 10 -262144 -1 -1 0
1;
#X text 216 245 <- next note;
#X obj 201 228 list split 1;
#X obj 135 187 list split 4;
#X obj 201 207 list split 4;
#N canvas 118 349 1036 300 beat2id 0;
#X obj 26 87 l2s;
#X msg 95 70 symbol;
#X obj 95 53 loadbang;
#X obj 26 49 prepend #;
#X msg 26 170 1;
#X msg 52 170 2;
#X msg 80 170 3;
#X msg 106 169 4;
#X msg 136 169 5;
#X msg 162 169 6;
#X msg 190 169 7;
#X msg 216 168 8;
#X msg 242 168 9;
#X msg 268 168 10;
#X msg 296 168 11;
#X msg 322 167 12;
#X msg 352 167 13;
#X msg 378 167 14;
#X msg 406 167 15;
#X msg 432 166 16;
#X obj 26 130 sel #0000 #1000 #0100 #0010 #0001 #1100 #1010 #1001 #0110
#0101 #0011 #1110 #1101 #1011 #0111 #1111;
#X obj 27 206 f;
#X obj 24 28 inlet;
#X obj 27 225 outlet;
#X obj 497 212 outlet;
#X obj 532 76 sel #0000 #1000 #0100 #0010 #0001 #1100 #1010 #1001 #0110
#0101 #0011 #1110 #1101 #1011 #0111 #1111;
#X obj 496 186 f;
#X text 47 248 ID;
#X text 574 246 density;
#X obj 302 73 t a a;
#X msg 495 150 0;
#X msg 521 150 1;
#X msg 549 150 1;
#X msg 575 149 1;
#X msg 605 149 1;
#X msg 631 149 2;
#X msg 659 149 2;
#X msg 685 148 2;
#X msg 711 148 2;
#X msg 737 148 2;
#X msg 765 148 2;
#X msg 901 146 4;
#X msg 875 147 3;
#X msg 847 147 3;
#X msg 821 147 3;
#X msg 791 147 3;
#X connect 0 0 29 0;
#X connect 1 0 0 1;
#X connect 2 0 1 0;
#X connect 3 0 0 0;
#X connect 4 0 21 0;
#X connect 5 0 21 0;
#X connect 6 0 21 0;
#X connect 7 0 21 0;
#X connect 8 0 21 0;
#X connect 9 0 21 0;
#X connect 10 0 21 0;
#X connect 11 0 21 0;
#X connect 12 0 21 0;
#X connect 13 0 21 0;
#X connect 14 0 21 0;
#X connect 15 0 21 0;
#X connect 16 0 21 0;
#X connect 17 0 21 0;
#X connect 18 0 21 0;
#X connect 19 0 21 0;
#X connect 20 0 4 0;
#X connect 20 1 5 0;
#X connect 20 2 6 0;
#X connect 20 3 7 0;
#X connect 20 4 8 0;
#X connect 20 5 9 0;
#X connect 20 6 10 0;
#X connect 20 7 11 0;
#X connect 20 8 12 0;
#X connect 20 9 13 0;
#X connect 20 10 14 0;
#X connect 20 11 15 0;
#X connect 20 12 16 0;
#X connect 20 13 17 0;
#X connect 20 14 18 0;
#X connect 20 15 19 0;
#X connect 21 0 23 0;
#X connect 22 0 3 0;
#X connect 25 0 30 0;
#X connect 25 1 31 0;
#X connect 25 2 32 0;
#X connect 25 3 33 0;
#X connect 25 4 34 0;
#X connect 25 5 35 0;
#X connect 25 6 36 0;
#X connect 25 7 37 0;
#X connect 25 8 38 0;
#X connect 25 9 39 0;
#X connect 25 10 40 0;
#X connect 25 11 45 0;
#X connect 25 12 44 0;
#X connect 25 13 43 0;
#X connect 25 14 42 0;
#X connect 25 15 41 0;
#X connect 26 0 24 0;
#X connect 29 0 20 0;
#X connect 29 1 25 0;
#X connect 30 0 26 0;
#X connect 31 0 26 0;
#X connect 32 0 26 0;
#X connect 33 0 26 0;
#X connect 34 0 26 0;
#X connect 35 0 26 0;
#X connect 36 0 26 0;
#X connect 37 0 26 0;
#X connect 38 0 26 0;
#X connect 39 0 26 0;
#X connect 40 0 26 0;
#X connect 41 0 26 0;
#X connect 42 0 26 0;
#X connect 43 0 26 0;
#X connect 44 0 26 0;
#X connect 45 0 26 0;
#X restore 135 260 pd beat2id;
#N canvas 369 182 624 346 idandnext2group 0;
#X obj 33 23 inlet;
#X obj 64 229 outlet;
#X msg 33 48 \$2 \$1;
#X obj 33 70 route 0 1;
#X obj 33 133 - 1;
#X obj 123 133 - 1;
#X msg 272 38 \; nonext 0 4 2 5 3 6 5 1 8 3 7 6 3 7 8 6 6;
#X msg 357 84 \; next 0 4 2 5 3 4 5 1 2 3 5 4 3 5 2 4 4;
#X obj 33 152 tabread \$0-nonext;
#X obj 123 152 tabread \$0-next;
#X connect 0 0 2 0;
#X connect 2 0 3 0;
#X connect 3 0 4 0;
#X connect 3 1 5 0;
#X connect 4 0 8 0;
#X connect 5 0 9 0;
#X connect 8 0 1 0;
#X connect 9 0 1 0;
#X restore 135 311 pd idandnext2group;
#X obj 189 92 inlet;
#X text 86 25 partir la lista en 4 steps y los 4 steps siguientes dado
un índice de corte;
#X text 179 75 índice de corte;
#X connect 0 0 2 0;
#X connect 2 1 7 0;
#X connect 3 0 10 0;
#X connect 4 0 3 1;
#X connect 6 0 4 0;
#X connect 7 0 9 0;
#X connect 7 1 8 0;
#X connect 8 0 6 0;
#X connect 9 0 3 0;
#X connect 10 0 1 0;
#X connect 11 0 2 1;
#X restore 298 238 pd split;
#X obj 343 219 nbx 2 14 0 32 0 1 empty empty empty 0 -8 0 10 -262144
-1 -1 12 256;
#N canvas 692 337 450 369 split 0;
#X obj 101 89 inlet;
#X obj 135 331 outlet;
#X obj 101 109 list split 8;
#X obj 135 289 pack f f;
#X obj 201 248 tgl 15 0 empty empty empty 17 7 0 10 -262144 -1 -1 0
1;
#X text 216 245 <- next note;
#X obj 201 228 list split 1;
#X obj 135 187 list split 4;
#X obj 201 207 list split 4;
#N canvas 118 349 1036 300 beat2id 0;
#X obj 26 87 l2s;
#X msg 95 70 symbol;
#X obj 95 53 loadbang;
#X obj 26 49 prepend #;
#X msg 26 170 1;
#X msg 52 170 2;
#X msg 80 170 3;
#X msg 106 169 4;
#X msg 136 169 5;
#X msg 162 169 6;
#X msg 190 169 7;
#X msg 216 168 8;
#X msg 242 168 9;
#X msg 268 168 10;
#X msg 296 168 11;
#X msg 322 167 12;
#X msg 352 167 13;
#X msg 378 167 14;
#X msg 406 167 15;
#X msg 432 166 16;
#X obj 26 130 sel #0000 #1000 #0100 #0010 #0001 #1100 #1010 #1001 #0110
#0101 #0011 #1110 #1101 #1011 #0111 #1111;
#X obj 27 206 f;
#X obj 24 28 inlet;
#X obj 27 225 outlet;
#X obj 497 212 outlet;
#X obj 532 76 sel #0000 #1000 #0100 #0010 #0001 #1100 #1010 #1001 #0110
#0101 #0011 #1110 #1101 #1011 #0111 #1111;
#X obj 496 186 f;
#X text 47 248 ID;
#X text 574 246 density;
#X obj 302 73 t a a;
#X msg 495 150 0;
#X msg 521 150 1;
#X msg 549 150 1;
#X msg 575 149 1;
#X msg 605 149 1;
#X msg 631 149 2;
#X msg 659 149 2;
#X msg 685 148 2;
#X msg 711 148 2;
#X msg 737 148 2;
#X msg 765 148 2;
#X msg 901 146 4;
#X msg 875 147 3;
#X msg 847 147 3;
#X msg 821 147 3;
#X msg 791 147 3;
#X connect 0 0 29 0;
#X connect 1 0 0 1;
#X connect 2 0 1 0;
#X connect 3 0 0 0;
#X connect 4 0 21 0;
#X connect 5 0 21 0;
#X connect 6 0 21 0;
#X connect 7 0 21 0;
#X connect 8 0 21 0;
#X connect 9 0 21 0;
#X connect 10 0 21 0;
#X connect 11 0 21 0;
#X connect 12 0 21 0;
#X connect 13 0 21 0;
#X connect 14 0 21 0;
#X connect 15 0 21 0;
#X connect 16 0 21 0;
#X connect 17 0 21 0;
#X connect 18 0 21 0;
#X connect 19 0 21 0;
#X connect 20 0 4 0;
#X connect 20 1 5 0;
#X connect 20 2 6 0;
#X connect 20 3 7 0;
#X connect 20 4 8 0;
#X connect 20 5 9 0;
#X connect 20 6 10 0;
#X connect 20 7 11 0;
#X connect 20 8 12 0;
#X connect 20 9 13 0;
#X connect 20 10 14 0;
#X connect 20 11 15 0;
#X connect 20 12 16 0;
#X connect 20 13 17 0;
#X connect 20 14 18 0;
#X connect 20 15 19 0;
#X connect 21 0 23 0;
#X connect 22 0 3 0;
#X connect 25 0 30 0;
#X connect 25 1 31 0;
#X connect 25 2 32 0;
#X connect 25 3 33 0;
#X connect 25 4 34 0;
#X connect 25 5 35 0;
#X connect 25 6 36 0;
#X connect 25 7 37 0;
#X connect 25 8 38 0;
#X connect 25 9 39 0;
#X connect 25 10 40 0;
#X connect 25 11 45 0;
#X connect 25 12 44 0;
#X connect 25 13 43 0;
#X connect 25 14 42 0;
#X connect 25 15 41 0;
#X connect 26 0 24 0;
#X connect 29 0 20 0;
#X connect 29 1 25 0;
#X connect 30 0 26 0;
#X connect 31 0 26 0;
#X connect 32 0 26 0;
#X connect 33 0 26 0;
#X connect 34 0 26 0;
#X connect 35 0 26 0;
#X connect 36 0 26 0;
#X connect 37 0 26 0;
#X connect 38 0 26 0;
#X connect 39 0 26 0;
#X connect 40 0 26 0;
#X connect 41 0 26 0;
#X connect 42 0 26 0;
#X connect 43 0 26 0;
#X connect 44 0 26 0;
#X connect 45 0 26 0;
#X restore 135 260 pd beat2id;
#N canvas 372 177 624 346 idandnext2group 0;
#X obj 33 23 inlet;
#X obj 64 229 outlet;
#X msg 33 48 \$2 \$1;
#X obj 33 70 route 0 1;
#X obj 33 133 - 1;
#X obj 123 133 - 1;
#X msg 272 38 \; nonext 0 4 2 5 3 6 5 1 8 3 7 6 3 7 8 6 6;
#X msg 357 84 \; next 0 4 2 5 3 4 5 1 2 3 5 4 3 5 2 4 4;
#X obj 33 152 tabread \$0-nonext;
#X obj 123 152 tabread \$0-next;
#X connect 0 0 2 0;
#X connect 2 0 3 0;
#X connect 3 0 4 0;
#X connect 3 1 5 0;
#X connect 4 0 8 0;
#X connect 5 0 9 0;
#X connect 8 0 1 0;
#X connect 9 0 1 0;
#X restore 135 311 pd idandnext2group;
#X obj 189 92 inlet;
#X text 86 25 partir la lista en 4 steps y los 4 steps siguientes dado
un índice de corte;
#X text 179 75 índice de corte;
#X connect 0 0 2 0;
#X connect 2 1 7 0;
#X connect 3 0 10 0;
#X connect 4 0 3 1;
#X connect 6 0 4 0;
#X connect 7 0 9 0;
#X connect 7 1 8 0;
#X connect 8 0 6 0;
#X connect 9 0 3 0;
#X connect 10 0 1 0;
#X connect 11 0 2 1;
#X restore 383 238 pd split;
#X obj 428 219 nbx 2 14 0 32 0 1 empty empty empty 0 -8 0 10 -262144
-1 -1 16 256;
#N canvas 692 337 450 369 split 0;
#X obj 101 89 inlet;
#X obj 135 331 outlet;
#X obj 101 109 list split 8;
#X obj 135 289 pack f f;
#X obj 201 248 tgl 15 0 empty empty empty 17 7 0 10 -262144 -1 -1 0
1;
#X text 216 245 <- next note;
#X obj 201 228 list split 1;
#X obj 135 187 list split 4;
#X obj 201 207 list split 4;
#N canvas 118 349 1036 300 beat2id 0;
#X obj 26 87 l2s;
#X msg 95 70 symbol;
#X obj 95 53 loadbang;
#X obj 26 49 prepend #;
#X msg 26 170 1;
#X msg 52 170 2;
#X msg 80 170 3;
#X msg 106 169 4;
#X msg 136 169 5;
#X msg 162 169 6;
#X msg 190 169 7;
#X msg 216 168 8;
#X msg 242 168 9;
#X msg 268 168 10;
#X msg 296 168 11;
#X msg 322 167 12;
#X msg 352 167 13;
#X msg 378 167 14;
#X msg 406 167 15;
#X msg 432 166 16;
#X obj 26 130 sel #0000 #1000 #0100 #0010 #0001 #1100 #1010 #1001 #0110
#0101 #0011 #1110 #1101 #1011 #0111 #1111;
#X obj 27 206 f;
#X obj 24 28 inlet;
#X obj 27 225 outlet;
#X obj 497 212 outlet;
#X obj 532 76 sel #0000 #1000 #0100 #0010 #0001 #1100 #1010 #1001 #0110
#0101 #0011 #1110 #1101 #1011 #0111 #1111;
#X obj 496 186 f;
#X text 47 248 ID;
#X text 574 246 density;
#X obj 302 73 t a a;
#X msg 495 150 0;
#X msg 521 150 1;
#X msg 549 150 1;
#X msg 575 149 1;
#X msg 605 149 1;
#X msg 631 149 2;
#X msg 659 149 2;
#X msg 685 148 2;
#X msg 711 148 2;
#X msg 737 148 2;
#X msg 765 148 2;
#X msg 901 146 4;
#X msg 875 147 3;
#X msg 847 147 3;
#X msg 821 147 3;
#X msg 791 147 3;
#X connect 0 0 29 0;
#X connect 1 0 0 1;
#X connect 2 0 1 0;
#X connect 3 0 0 0;
#X connect 4 0 21 0;
#X connect 5 0 21 0;
#X connect 6 0 21 0;
#X connect 7 0 21 0;
#X connect 8 0 21 0;
#X connect 9 0 21 0;
#X connect 10 0 21 0;
#X connect 11 0 21 0;
#X connect 12 0 21 0;
#X connect 13 0 21 0;
#X connect 14 0 21 0;
#X connect 15 0 21 0;
#X connect 16 0 21 0;
#X connect 17 0 21 0;
#X connect 18 0 21 0;
#X connect 19 0 21 0;
#X connect 20 0 4 0;
#X connect 20 1 5 0;
#X connect 20 2 6 0;
#X connect 20 3 7 0;
#X connect 20 4 8 0;
#X connect 20 5 9 0;
#X connect 20 6 10 0;
#X connect 20 7 11 0;
#X connect 20 8 12 0;
#X connect 20 9 13 0;
#X connect 20 10 14 0;
#X connect 20 11 15 0;
#X connect 20 12 16 0;
#X connect 20 13 17 0;
#X connect 20 14 18 0;
#X connect 20 15 19 0;
#X connect 21 0 23 0;
#X connect 22 0 3 0;
#X connect 25 0 30 0;
#X connect 25 1 31 0;
#X connect 25 2 32 0;
#X connect 25 3 33 0;
#X connect 25 4 34 0;
#X connect 25 5 35 0;
#X connect 25 6 36 0;
#X connect 25 7 37 0;
#X connect 25 8 38 0;
#X connect 25 9 39 0;
#X connect 25 10 40 0;
#X connect 25 11 45 0;
#X connect 25 12 44 0;
#X connect 25 13 43 0;
#X connect 25 14 42 0;
#X connect 25 15 41 0;
#X connect 26 0 24 0;
#X connect 29 0 20 0;
#X connect 29 1 25 0;
#X connect 30 0 26 0;
#X connect 31 0 26 0;
#X connect 32 0 26 0;
#X connect 33 0 26 0;
#X connect 34 0 26 0;
#X connect 35 0 26 0;
#X connect 36 0 26 0;
#X connect 37 0 26 0;
#X connect 38 0 26 0;
#X connect 39 0 26 0;
#X connect 40 0 26 0;
#X connect 41 0 26 0;
#X connect 42 0 26 0;
#X connect 43 0 26 0;
#X connect 44 0 26 0;
#X connect 45 0 26 0;
#X restore 135 260 pd beat2id;
#N canvas 372 177 624 346 idandnext2group 0;
#X obj 33 23 inlet;
#X obj 64 229 outlet;
#X msg 33 48 \$2 \$1;
#X obj 33 70 route 0 1;
#X obj 33 133 - 1;
#X obj 123 133 - 1;
#X msg 272 38 \; nonext 0 4 2 5 3 6 5 1 8 3 7 6 3 7 8 6 6;
#X msg 357 84 \; next 0 4 2 5 3 4 5 1 2 3 5 4 3 5 2 4 4;
#X obj 33 152 tabread \$0-nonext;
#X obj 123 152 tabread \$0-next;
#X connect 0 0 2 0;
#X connect 2 0 3 0;
#X connect 3 0 4 0;
#X connect 3 1 5 0;
#X connect 4 0 8 0;
#X connect 5 0 9 0;
#X connect 8 0 1 0;
#X connect 9 0 1 0;
#X restore 135 311 pd idandnext2group;
#X obj 189 92 inlet;
#X text 86 25 partir la lista en 4 steps y los 4 steps siguientes dado
un índice de corte;
#X text 179 75 índice de corte;
#X connect 0 0 2 0;
#X connect 2 1 7 0;
#X connect 3 0 10 0;
#X connect 4 0 3 1;
#X connect 6 0 4 0;
#X connect 7 0 9 0;
#X connect 7 1 8 0;
#X connect 8 0 6 0;
#X connect 9 0 3 0;
#X connect 10 0 1 0;
#X connect 11 0 2 1;
#X restore 466 238 pd split;
#X obj 511 219 nbx 2 14 0 32 0 1 empty empty empty 0 -8 0 10 -262144
-1 -1 20 256;
#N canvas 692 337 450 369 split 0;
#X obj 101 89 inlet;
#X obj 135 331 outlet;
#X obj 101 109 list split 8;
#X obj 135 289 pack f f;
#X obj 201 248 tgl 15 0 empty empty empty 17 7 0 10 -262144 -1 -1 0
1;
#X text 216 245 <- next note;
#X obj 201 228 list split 1;
#X obj 135 187 list split 4;
#X obj 201 207 list split 4;
#N canvas 118 349 1036 300 beat2id 0;
#X obj 26 87 l2s;
#X msg 95 70 symbol;
#X obj 95 53 loadbang;
#X obj 26 49 prepend #;
#X msg 26 170 1;
#X msg 52 170 2;
#X msg 80 170 3;
#X msg 106 169 4;
#X msg 136 169 5;
#X msg 162 169 6;
#X msg 190 169 7;
#X msg 216 168 8;
#X msg 242 168 9;
#X msg 268 168 10;
#X msg 296 168 11;
#X msg 322 167 12;
#X msg 352 167 13;
#X msg 378 167 14;
#X msg 406 167 15;
#X msg 432 166 16;
#X obj 26 130 sel #0000 #1000 #0100 #0010 #0001 #1100 #1010 #1001 #0110
#0101 #0011 #1110 #1101 #1011 #0111 #1111;
#X obj 27 206 f;
#X obj 24 28 inlet;
#X obj 27 225 outlet;
#X obj 497 212 outlet;
#X obj 532 76 sel #0000 #1000 #0100 #0010 #0001 #1100 #1010 #1001 #0110
#0101 #0011 #1110 #1101 #1011 #0111 #1111;
#X obj 496 186 f;
#X text 47 248 ID;
#X text 574 246 density;
#X obj 302 73 t a a;
#X msg 495 150 0;
#X msg 521 150 1;
#X msg 549 150 1;
#X msg 575 149 1;
#X msg 605 149 1;
#X msg 631 149 2;
#X msg 659 149 2;
#X msg 685 148 2;
#X msg 711 148 2;
#X msg 737 148 2;
#X msg 765 148 2;
#X msg 901 146 4;
#X msg 875 147 3;
#X msg 847 147 3;
#X msg 821 147 3;
#X msg 791 147 3;
#X connect 0 0 29 0;
#X connect 1 0 0 1;
#X connect 2 0 1 0;
#X connect 3 0 0 0;
#X connect 4 0 21 0;
#X connect 5 0 21 0;
#X connect 6 0 21 0;
#X connect 7 0 21 0;
#X connect 8 0 21 0;
#X connect 9 0 21 0;
#X connect 10 0 21 0;
#X connect 11 0 21 0;
#X connect 12 0 21 0;
#X connect 13 0 21 0;
#X connect 14 0 21 0;
#X connect 15 0 21 0;
#X connect 16 0 21 0;
#X connect 17 0 21 0;
#X connect 18 0 21 0;
#X connect 19 0 21 0;
#X connect 20 0 4 0;
#X connect 20 1 5 0;
#X connect 20 2 6 0;
#X connect 20 3 7 0;
#X connect 20 4 8 0;
#X connect 20 5 9 0;
#X connect 20 6 10 0;
#X connect 20 7 11 0;
#X connect 20 8 12 0;
#X connect 20 9 13 0;
#X connect 20 10 14 0;
#X connect 20 11 15 0;
#X connect 20 12 16 0;
#X connect 20 13 17 0;
#X connect 20 14 18 0;
#X connect 20 15 19 0;
#X connect 21 0 23 0;
#X connect 22 0 3 0;
#X connect 25 0 30 0;
#X connect 25 1 31 0;
#X connect 25 2 32 0;
#X connect 25 3 33 0;
#X connect 25 4 34 0;
#X connect 25 5 35 0;
#X connect 25 6 36 0;
#X connect 25 7 37 0;
#X connect 25 8 38 0;
#X connect 25 9 39 0;
#X connect 25 10 40 0;
#X connect 25 11 45 0;
#X connect 25 12 44 0;
#X connect 25 13 43 0;
#X connect 25 14 42 0;
#X connect 25 15 41 0;
#X connect 26 0 24 0;
#X connect 29 0 20 0;
#X connect 29 1 25 0;
#X connect 30 0 26 0;
#X connect 31 0 26 0;
#X connect 32 0 26 0;
#X connect 33 0 26 0;
#X connect 34 0 26 0;
#X connect 35 0 26 0;
#X connect 36 0 26 0;
#X connect 37 0 26 0;
#X connect 38 0 26 0;
#X connect 39 0 26 0;
#X connect 40 0 26 0;
#X connect 41 0 26 0;
#X connect 42 0 26 0;
#X connect 43 0 26 0;
#X connect 44 0 26 0;
#X connect 45 0 26 0;
#X restore 135 260 pd beat2id;
#N canvas 372 177 624 346 idandnext2group 0;
#X obj 33 23 inlet;
#X obj 64 229 outlet;
#X msg 33 48 \$2 \$1;
#X obj 33 70 route 0 1;
#X obj 33 133 - 1;
#X obj 123 133 - 1;
#X msg 272 38 \; nonext 0 4 2 5 3 6 5 1 8 3 7 6 3 7 8 6 6;
#X msg 357 84 \; next 0 4 2 5 3 4 5 1 2 3 5 4 3 5 2 4 4;
#X obj 33 152 tabread \$0-nonext;
#X obj 123 152 tabread \$0-next;
#X connect 0 0 2 0;
#X connect 2 0 3 0;
#X connect 3 0 4 0;
#X connect 3 1 5 0;
#X connect 4 0 8 0;
#X connect 5 0 9 0;
#X connect 8 0 1 0;
#X connect 9 0 1 0;
#X restore 135 311 pd idandnext2group;
#X obj 189 92 inlet;
#X text 86 25 partir la lista en 4 steps y los 4 steps siguientes dado
un índice de corte;
#X text 179 75 índice de corte;
#X connect 0 0 2 0;
#X connect 2 1 7 0;
#X connect 3 0 10 0;
#X connect 4 0 3 1;
#X connect 6 0 4 0;
#X connect 7 0 9 0;
#X connect 7 1 8 0;
#X connect 8 0 6 0;
#X connect 9 0 3 0;
#X connect 10 0 1 0;
#X connect 11 0 2 1;
#X restore 561 238 pd split;
#X obj 606 219 nbx 2 14 0 32 0 1 empty empty empty 0 -8 0 10 -262144
-1 -1 24 256;
#X obj 183 108 t l l l l l l l l;
#X obj 661 125 list split 28;
#X connect 0 0 1 0;
#X connect 1 0 6 0;
#X connect 2 0 12 0;
#X connect 3 0 2 1;
#X connect 5 0 3 0;
#X connect 6 0 11 0;
#X connect 6 1 7 0;
#X connect 7 0 5 0;
#X connect 8 0 28 0;
#X connect 11 0 2 0;
#X connect 12 0 13 7;
#X connect 13 0 9 0;
#X connect 14 0 13 0;
#X connect 15 0 14 1;
#X connect 16 0 13 1;
#X connect 17 0 16 1;
#X connect 18 0 13 2;
#X connect 19 0 18 1;
#X connect 20 0 13 3;
#X connect 21 0 20 1;
#X connect 22 0 13 4;
#X connect 23 0 22 1;
#X connect 24 0 13 5;
#X connect 25 0 24 1;
#X connect 26 0 13 6;
#X connect 27 0 26 1;
#X connect 28 0 14 0;
#X connect 28 1 16 0;
#X connect 28 2 18 0;
#X connect 28 3 20 0;
#X connect 28 4 22 0;
#X connect 28 5 24 0;
#X connect 28 6 26 0;
#X connect 28 7 29 0;
#X connect 29 0 0 0;
#X connect 29 1 1 1;
#X restore 72 73 pd pattern2group;
#X text 311 70 <- convert patterns to groups;
#N canvas 141 268 939 394 weighted-coincidence 0;
#X obj 64 133 list split 1;
#X obj 173 132 list split 1;
#X obj 96 194 list;
#X obj 192 185 list;
#X obj 55 56 inlet;
#X obj 179 66 inlet;
#X obj 55 362 outlet;
#X obj 151 266 list prepend;
#X obj 220 297 list;
#X msg 278 134 bang;
#X obj 55 334 list;
#X obj 151 222 ==;
#X obj 55 82 t b a b b;
#X obj 151 244 *;
#X obj 336 151 list split 1;
#X obj 348 200 list;
#X obj 64 163 t b b b f;
#X text 708 33 weight 1 0.15 0.2 0.17;
#X text 282 73 salience profiles;
#X text 453 73 very interesting question!!!;
#X text 404 60 how to adapt the 4 bar profles to the 8 bar profiles
;
#N canvas 751 372 450 300 list_normlaize 0;
#X obj 154 134 t a a;
#X obj 235 151 sum;
#N canvas 459 357 450 300 list_divide 0;
#X obj 26 12 inlet;
#X obj 281 46 inlet;
#X obj 39 251 outlet;
#X obj 138 100 list append;
#X obj 61 83 t b a;
#X obj 61 62 list split 1;
#X obj 75 126 /;
#X obj 250 145 list;
#X msg 267 99 bang;
#X obj 67 150 list prepend;
#X obj 34 40 t b a b;
#X obj 35 163 list;
#X text 165 217 divide a list by a given number;
#X connect 0 0 10 0;
#X connect 1 0 6 1;
#X connect 3 0 5 0;
#X connect 4 0 3 0;
#X connect 4 1 6 0;
#X connect 5 0 4 0;
#X connect 5 1 3 1;
#X connect 6 0 9 0;
#X connect 7 0 9 1;
#X connect 8 0 7 1;
#X connect 8 0 9 1;
#X connect 9 0 7 0;
#X connect 9 0 11 1;
#X connect 10 0 11 0;
#X connect 10 1 5 0;
#X connect 10 2 8 0;
#X connect 11 0 2 0;
#X restore 154 169 pd list_divide;
#X obj 154 110 inlet;
#X obj 154 191 outlet;
#X connect 0 0 2 0;
#X connect 0 1 1 0;
#X connect 1 0 2 1;
#X connect 2 0 4 0;
#X connect 3 0 0 0;
#X restore 335 132 pd list_normlaize;
#X text 559 105 idea1: repeat the weights for 4 beats -> 1 0.15 0.2
0.17 1 0.15 0.2 0.17;
#X text 558 168 idea2: use the best performing values for the pad and
sad 16 experment: 1 0.1 0.1 0.2 1 0.1 0.1 0.2;
#X msg 647 126 1 0.15 0.2 0.17 1 0.15 0.2 0.17;
#X msg 647 248 1 0.2 0.1 0.1 0.1 0.1 0.15 0.2;
#X text 559 229 idea 3: use the same profile of the 16 but expanded
to 32;
#X msg 647 201 1 0.1 0.1 0.2 1 0.1 0.1 0.2;
#X msg 335 113 1 0.15 0.2 0.17 1 0.15 0.2 0.17;
#X connect 0 0 16 0;
#X connect 0 1 2 1;
#X connect 1 0 11 1;
#X connect 1 1 3 1;
#X connect 2 0 0 0;
#X connect 3 0 1 0;
#X connect 4 0 12 0;
#X connect 5 0 1 0;
#X connect 7 0 8 0;
#X connect 7 0 10 1;
#X connect 8 0 7 1;
#X connect 9 0 7 1;
#X connect 10 0 6 0;
#X connect 11 0 13 0;
#X connect 12 0 10 0;
#X connect 12 1 0 0;
#X connect 12 2 9 0;
#X connect 12 3 28 0;
#X connect 13 0 7 0;
#X connect 14 0 13 1;
#X connect 14 1 15 1;
#X connect 15 0 14 0;
#X connect 16 0 2 0;
#X connect 16 1 3 0;
#X connect 16 2 15 0;
#X connect 16 3 11 0;
#X connect 21 0 14 0;
#X connect 28 0 21 0;
#X restore 72 108 pd weighted-coincidence;
#X obj 72 138 sum;
#X text 309 107 <- analyze the coincidence of the groups in each group
list;
#X text 308 130 <- sum the coincidence between two patterns;
#X text 310 178 <- convert similarity into distance;
#X obj 72 236 * -1;
#X obj 72 214 - 1;
#X obj 72 159 t f b;
#X msg 99 180 1;
#N canvas 798 278 314 362 tables 0;
#N canvas 0 0 450 300 (subpatch) 0;
#X array \$0-nonext 16 float 3;
#A 0 4 2 5 3 6 5 1 8 3 7 6 3 7 8 6 6;
#X coords 0 3 15 -3 200 50 1 0 0;
#X restore 53 53 graph;
#N canvas 0 0 450 300 (subpatch) 0;
#X array \$0-next 16 float 3;
#A 0 4 2 5 3 4 5 1 2 3 5 4 3 5 2 4 4;
#X coords 0 3 15 -3 200 50 1 0 0;
#X restore 54 127 graph;
#N canvas 0 0 450 300 (subpatch) 0;
#X array \$0-id2d 32 float 3;
#A 0 0 1 1 1 1 2 2 2 2 2 2 3 3 3 3 4 0 1 1 1 1 2 2 2 2 2 2 3 3 3 3
4;
#X coords 0 4 31 0 200 140 1 0 0;
#X restore 46 198 graph;
#X restore 384 265 pd tables needed;
#N canvas 82 172 962 487 pattern2group 0;
#X obj 661 145 list split 4;
#X obj 661 166 list prepend;
#X obj 661 345 pack f f;
#X obj 727 304 tgl 15 0 empty empty empty 17 7 0 10 -262144 -1 -1 0
1;
#X text 742 301 <- next note;
#X obj 727 284 list split 1;
#X obj 661 243 list split 4;
#X obj 727 263 list split 4;
#X obj 183 52 inlet;
#X obj 341 451 outlet;
#X text 386 450 output group;
#N canvas 110 364 1036 300 beat2id 0;
#X obj 26 87 l2s;
#X msg 95 70 symbol;
#X obj 95 53 loadbang;
#X obj 26 49 prepend #;
#X msg 26 170 1;
#X msg 52 170 2;
#X msg 80 170 3;
#X msg 106 169 4;
#X msg 136 169 5;
#X msg 162 169 6;
#X msg 190 169 7;
#X msg 216 168 8;
#X msg 242 168 9;
#X msg 268 168 10;
#X msg 296 168 11;
#X msg 322 167 12;
#X msg 352 167 13;
#X msg 378 167 14;
#X msg 406 167 15;
#X msg 432 166 16;
#X obj 26 130 sel #0000 #1000 #0100 #0010 #0001 #1100 #1010 #1001 #0110
#0101 #0011 #1110 #1101 #1011 #0111 #1111;
#X obj 27 206 f;
#X obj 24 28 inlet;
#X obj 27 225 outlet;
#X obj 497 212 outlet;
#X obj 532 76 sel #0000 #1000 #0100 #0010 #0001 #1100 #1010 #1001 #0110
#0101 #0011 #1110 #1101 #1011 #0111 #1111;
#X obj 496 186 f;
#X text 47 248 ID;
#X text 574 246 density;
#X obj 302 73 t a a;
#X msg 495 150 0;
#X msg 521 150 1;
#X msg 549 150 1;
#X msg 575 149 1;
#X msg 605 149 1;
#X msg 631 149 2;
#X msg 659 149 2;
#X msg 685 148 2;
#X msg 711 148 2;
#X msg 737 148 2;
#X msg 765 148 2;
#X msg 901 146 4;
#X msg 875 147 3;
#X msg 847 147 3;
#X msg 821 147 3;
#X msg 791 147 3;
#X connect 0 0 29 0;
#X connect 1 0 0 1;
#X connect 2 0 1 0;
#X connect 3 0 0 0;
#X connect 4 0 21 0;
#X connect 5 0 21 0;
#X connect 6 0 21 0;
#X connect 7 0 21 0;
#X connect 8 0 21 0;
#X connect 9 0 21 0;
#X connect 10 0 21 0;
#X connect 11 0 21 0;
#X connect 12 0 21 0;
#X connect 13 0 21 0;
#X connect 14 0 21 0;
#X connect 15 0 21 0;
#X connect 16 0 21 0;
#X connect 17 0 21 0;
#X connect 18 0 21 0;
#X connect 19 0 21 0;
#X connect 20 0 4 0;
#X connect 20 1 5 0;
#X connect 20 2 6 0;
#X connect 20 3 7 0;
#X connect 20 4 8 0;
#X connect 20 5 9 0;
#X connect 20 6 10 0;
#X connect 20 7 11 0;
#X connect 20 8 12 0;
#X connect 20 9 13 0;
#X connect 20 10 14 0;
#X connect 20 11 15 0;
#X connect 20 12 16 0;
#X connect 20 13 17 0;
#X connect 20 14 18 0;
#X connect 20 15 19 0;
#X connect 21 0 23 0;
#X connect 22 0 3 0;
#X connect 25 0 30 0;
#X connect 25 1 31 0;
#X connect 25 2 32 0;
#X connect 25 3 33 0;
#X connect 25 4 34 0;
#X connect 25 5 35 0;
#X connect 25 6 36 0;
#X connect 25 7 37 0;
#X connect 25 8 38 0;
#X connect 25 9 39 0;
#X connect 25 10 40 0;
#X connect 25 11 45 0;
#X connect 25 12 44 0;
#X connect 25 13 43 0;
#X connect 25 14 42 0;
#X connect 25 15 41 0;
#X connect 26 0 24 0;
#X connect 29 0 20 0;
#X connect 29 1 25 0;
#X connect 30 0 26 0;
#X connect 31 0 26 0;
#X connect 32 0 26 0;
#X connect 33 0 26 0;
#X connect 34 0 26 0;
#X connect 35 0 26 0;
#X connect 36 0 26 0;
#X connect 37 0 26 0;
#X connect 38 0 26 0;
#X connect 39 0 26 0;
#X connect 40 0 26 0;
#X connect 41 0 26 0;
#X connect 42 0 26 0;
#X connect 43 0 26 0;
#X connect 44 0 26 0;
#X connect 45 0 26 0;
#X restore 661 310 pd beat2id;
#N canvas 369 182 624 346 idandnext2group 0;
#X obj 33 23 inlet;
#X obj 64 229 outlet;
#X msg 33 48 \$2 \$1;
#X obj 33 70 route 0 1;
#X obj 33 133 - 1;
#X obj 151 133 - 1;
#X msg 272 38 \; nonext 0 4 2 5 3 6 5 1 8 3 7 6 3 7 8 6 6;
#X msg 357 84 \; next 0 4 2 5 3 4 5 1 2 3 5 4 3 5 2 4 4;
#X obj 33 152 tabread \$0-nonext;
#X obj 151 152 tabread \$0-next;
#X connect 0 0 2 0;
#X connect 2 0 3 0;
#X connect 3 0 4 0;
#X connect 3 1 5 0;
#X connect 4 0 8 0;
#X connect 5 0 9 0;
#X connect 8 0 1 0;
#X connect 9 0 1 0;
#X restore 661 364 pd idandnext2group;
#X obj 341 418 pack f f f f f f f f;
#N canvas 830 252 450 369 split 0;
#X obj 101 89 inlet;
#X obj 135 331 outlet;
#X obj 101 109 list split 8;
#X obj 135 289 pack f f;
#X obj 201 248 tgl 15 0 empty empty empty 17 7 0 10 -262144 -1 -1 0
1;
#X text 216 245 <- next note;
#X obj 201 228 list split 1;
#X obj 135 187 list split 4;
#X obj 201 207 list split 4;
#N canvas 112 359 1036 300 beat2id 0;
#X obj 26 87 l2s;
#X msg 95 70 symbol;
#X obj 95 53 loadbang;
#X obj 26 49 prepend #;
#X msg 26 170 1;
#X msg 52 170 2;
#X msg 80 170 3;
#X msg 106 169 4;
#X msg 136 169 5;
#X msg 162 169 6;
#X msg 190 169 7;
#X msg 216 168 8;
#X msg 242 168 9;
#X msg 268 168 10;
#X msg 296 168 11;
#X msg 322 167 12;
#X msg 352 167 13;
#X msg 378 167 14;
#X msg 406 167 15;
#X msg 432 166 16;
#X obj 26 130 sel #0000 #1000 #0100 #0010 #0001 #1100 #1010 #1001 #0110
#0101 #0011 #1110 #1101 #1011 #0111 #1111;
#X obj 27 206 f;
#X obj 24 28 inlet;
#X obj 27 225 outlet;
#X obj 497 212 outlet;
#X obj 532 76 sel #0000 #1000 #0100 #0010 #0001 #1100 #1010 #1001 #0110
#0101 #0011 #1110 #1101 #1011 #0111 #1111;
#X obj 496 186 f;
#X text 47 248 ID;
#X text 574 246 density;
#X obj 302 73 t a a;
#X msg 495 150 0;
#X msg 521 150 1;
#X msg 549 150 1;
#X msg 575 149 1;
#X msg 605 149 1;
#X msg 631 149 2;
#X msg 659 149 2;
#X msg 685 148 2;
#X msg 711 148 2;
#X msg 737 148 2;
#X msg 765 148 2;
#X msg 901 146 4;
#X msg 875 147 3;
#X msg 847 147 3;
#X msg 821 147 3;
#X msg 791 147 3;
#X connect 0 0 29 0;
#X connect 1 0 0 1;
#X connect 2 0 1 0;
#X connect 3 0 0 0;
#X connect 4 0 21 0;
#X connect 5 0 21 0;
#X connect 6 0 21 0;
#X connect 7 0 21 0;
#X connect 8 0 21 0;
#X connect 9 0 21 0;
#X connect 10 0 21 0;
#X connect 11 0 21 0;
#X connect 12 0 21 0;
#X connect 13 0 21 0;
#X connect 14 0 21 0;
#X connect 15 0 21 0;
#X connect 16 0 21 0;
#X connect 17 0 21 0;
#X connect 18 0 21 0;
#X connect 19 0 21 0;
#X connect 20 0 4 0;
#X connect 20 1 5 0;
#X connect 20 2 6 0;
#X connect 20 3 7 0;
#X connect 20 4 8 0;
#X connect 20 5 9 0;
#X connect 20 6 10 0;
#X connect 20 7 11 0;
#X connect 20 8 12 0;
#X connect 20 9 13 0;
#X connect 20 10 14 0;
#X connect 20 11 15 0;
#X connect 20 12 16 0;
#X connect 20 13 17 0;
#X connect 20 14 18 0;
#X connect 20 15 19 0;
#X connect 21 0 23 0;
#X connect 22 0 3 0;
#X connect 25 0 30 0;
#X connect 25 1 31 0;
#X connect 25 2 32 0;
#X connect 25 3 33 0;
#X connect 25 4 34 0;
#X connect 25 5 35 0;
#X connect 25 6 36 0;
#X connect 25 7 37 0;
#X connect 25 8 38 0;
#X connect 25 9 39 0;
#X connect 25 10 40 0;
#X connect 25 11 45 0;
#X connect 25 12 44 0;
#X connect 25 13 43 0;
#X connect 25 14 42 0;
#X connect 25 15 41 0;
#X connect 26 0 24 0;
#X connect 29 0 20 0;
#X connect 29 1 25 0;
#X connect 30 0 26 0;
#X connect 31 0 26 0;
#X connect 32 0 26 0;
#X connect 33 0 26 0;
#X connect 34 0 26 0;
#X connect 35 0 26 0;
#X connect 36 0 26 0;
#X connect 37 0 26 0;
#X connect 38 0 26 0;
#X connect 39 0 26 0;
#X connect 40 0 26 0;
#X connect 41 0 26 0;
#X connect 42 0 26 0;
#X connect 43 0 26 0;
#X connect 44 0 26 0;
#X connect 45 0 26 0;
#X restore 135 260 pd beat2id;
#N canvas 366 187 624 346 idandnext2group 0;
#X obj 33 23 inlet;
#X obj 64 229 outlet;
#X msg 33 48 \$2 \$1;
#X obj 33 70 route 0 1;
#X obj 33 133 - 1;
#X obj 155 133 - 1;
#X msg 272 38 \; nonext 0 4 2 5 3 6 5 1 8 3 7 6 3 7 8 6 6;
#X msg 357 84 \; next 0 4 2 5 3 4 5 1 2 3 5 4 3 5 2 4 4;
#X obj 33 151 tabread \$0-nonext;
#X obj 155 152 tabread \$0-next;
#X connect 0 0 2 0;
#X connect 2 0 3 0;
#X connect 3 0 4 0;
#X connect 3 1 5 0;
#X connect 4 0 8 0;
#X connect 5 0 9 0;
#X connect 8 0 1 0;
#X connect 9 0 1 0;
#X restore 135 311 pd idandnext2group;
#X obj 189 92 inlet;
#X text 86 25 partir la lista en 4 steps y los 4 steps siguientes dado
un índice de corte;
#X text 179 75 índice de corte;
#X connect 0 0 2 0;
#X connect 2 1 7 0;
#X connect 3 0 10 0;
#X connect 4 0 3 1;
#X connect 6 0 4 0;
#X connect 7 0 9 0;
#X connect 7 1 8 0;
#X connect 8 0 6 0;
#X connect 9 0 3 0;
#X connect 10 0 1 0;
#X connect 11 0 2 1;
#X restore 51 238 pd split;
#X obj 96 219 nbx 2 14 0 8 0 1 empty empty empty 0 -8 0 10 -262144
-1 -1 0 256;
#N canvas 686 347 450 369 split 0;
#X obj 101 89 inlet;
#X obj 135 331 outlet;
#X obj 101 109 list split 8;
#X obj 135 289 pack f f;
#X obj 201 248 tgl 15 0 empty empty empty 17 7 0 10 -262144 -1 -1 0
1;
#X text 216 245 <- next note;
#X obj 201 228 list split 1;
#X obj 135 187 list split 4;
#X obj 201 207 list split 4;
#N canvas 118 349 1036 300 beat2id 0;
#X obj 26 87 l2s;
#X msg 95 70 symbol;
#X obj 95 53 loadbang;
#X obj 26 49 prepend #;
#X msg 26 170 1;
#X msg 52 170 2;
#X msg 80 170 3;
#X msg 106 169 4;
#X msg 136 169 5;
#X msg 162 169 6;
#X msg 190 169 7;
#X msg 216 168 8;
#X msg 242 168 9;
#X msg 268 168 10;
#X msg 296 168 11;
#X msg 322 167 12;
#X msg 352 167 13;
#X msg 378 167 14;
#X msg 406 167 15;
#X msg 432 166 16;
#X obj 26 130 sel #0000 #1000 #0100 #0010 #0001 #1100 #1010 #1001 #0110
#0101 #0011 #1110 #1101 #1011 #0111 #1111;
#X obj 27 206 f;
#X obj 24 28 inlet;
#X obj 27 225 outlet;
#X obj 497 212 outlet;
#X obj 532 76 sel #0000 #1000 #0100 #0010 #0001 #1100 #1010 #1001 #0110
#0101 #0011 #1110 #1101 #1011 #0111 #1111;
#X obj 496 186 f;
#X text 47 248 ID;
#X text 574 246 density;
#X obj 302 73 t a a;
#X msg 495 150 0;
#X msg 521 150 1;
#X msg 549 150 1;
#X msg 575 149 1;
#X msg 605 149 1;
#X msg 631 149 2;
#X msg 659 149 2;
#X msg 685 148 2;
#X msg 711 148 2;
#X msg 737 148 2;
#X msg 765 148 2;
#X msg 901 146 4;
#X msg 875 147 3;
#X msg 847 147 3;
#X msg 821 147 3;
#X msg 791 147 3;
#X connect 0 0 29 0;
#X connect 1 0 0 1;
#X connect 2 0 1 0;
#X connect 3 0 0 0;
#X connect 4 0 21 0;
#X connect 5 0 21 0;
#X connect 6 0 21 0;
#X connect 7 0 21 0;
#X connect 8 0 21 0;
#X connect 9 0 21 0;
#X connect 10 0 21 0;
#X connect 11 0 21 0;
#X connect 12 0 21 0;
#X connect 13 0 21 0;
#X connect 14 0 21 0;
#X connect 15 0 21 0;
#X connect 16 0 21 0;
#X connect 17 0 21 0;
#X connect 18 0 21 0;
#X connect 19 0 21 0;
#X connect 20 0 4 0;
#X connect 20 1 5 0;
#X connect 20 2 6 0;
#X connect 20 3 7 0;
#X connect 20 4 8 0;
#X connect 20 5 9 0;
#X connect 20 6 10 0;
#X connect 20 7 11 0;
#X connect 20 8 12 0;
#X connect 20 9 13 0;
#X connect 20 10 14 0;
#X connect 20 11 15 0;
#X connect 20 12 16 0;
#X connect 20 13 17 0;
#X connect 20 14 18 0;
#X connect 20 15 19 0;
#X connect 21 0 23 0;
#X connect 22 0 3 0;
#X connect 25 0 30 0;
#X connect 25 1 31 0;
#X connect 25 2 32 0;
#X connect 25 3 33 0;
#X connect 25 4 34 0;
#X connect 25 5 35 0;
#X connect 25 6 36 0;
#X connect 25 7 37 0;
#X connect 25 8 38 0;
#X connect 25 9 39 0;
#X connect 25 10 40 0;
#X connect 25 11 45 0;
#X connect 25 12 44 0;
#X connect 25 13 43 0;
#X connect 25 14 42 0;
#X connect 25 15 41 0;
#X connect 26 0 24 0;
#X connect 29 0 20 0;
#X connect 29 1 25 0;
#X connect 30 0 26 0;
#X connect 31 0 26 0;
#X connect 32 0 26 0;
#X connect 33 0 26 0;
#X connect 34 0 26 0;
#X connect 35 0 26 0;
#X connect 36 0 26 0;
#X connect 37 0 26 0;
#X connect 38 0 26 0;
#X connect 39 0 26 0;
#X connect 40 0 26 0;
#X connect 41 0 26 0;
#X connect 42 0 26 0;
#X connect 43 0 26 0;
#X connect 44 0 26 0;
#X connect 45 0 26 0;
#X restore 135 260 pd beat2id;
#N canvas 369 182 624 346 idandnext2group 0;
#X obj 33 23 inlet;
#X obj 64 229 outlet;
#X msg 33 48 \$2 \$1;
#X obj 33 70 route 0 1;
#X obj 33 133 - 1;
#X obj 123 133 - 1;
#X msg 272 38 \; nonext 0 4 2 5 3 6 5 1 8 3 7 6 3 7 8 6 6;
#X msg 357 84 \; next 0 4 2 5 3 4 5 1 2 3 5 4 3 5 2 4 4;
#X obj 33 151 tabread \$0-nonext;
#X obj 123 152 tabread \$0-next;
#X connect 0 0 2 0;
#X connect 2 0 3 0;
#X connect 3 0 4 0;
#X connect 3 1 5 0;
#X connect 4 0 8 0;
#X connect 5 0 9 0;
#X connect 8 0 1 0;
#X connect 9 0 1 0;
#X restore 135 311 pd idandnext2group;
#X obj 189 92 inlet;
#X text 86 25 partir la lista en 4 steps y los 4 steps siguientes dado
un índice de corte;
#X text 179 75 índice de corte;
#X connect 0 0 2 0;
#X connect 2 1 7 0;
#X connect 3 0 10 0;
#X connect 4 0 3 1;
#X connect 6 0 4 0;
#X connect 7 0 9 0;
#X connect 7 1 8 0;
#X connect 8 0 6 0;
#X connect 9 0 3 0;
#X connect 10 0 1 0;
#X connect 11 0 2 1;
#X restore 130 238 pd split;
#X obj 175 219 nbx 2 14 0 8 0 1 empty empty empty 0 -8 0 10 -262144
-1 -1 4 256;
#N canvas 689 342 450 369 split 0;
#X obj 101 89 inlet;
#X obj 135 331 outlet;
#X obj 101 109 list split 8;
#X obj 135 289 pack f f;
#X obj 201 248 tgl 15 0 empty empty empty 17 7 0 10 -262144 -1 -1 0
1;
#X text 216 245 <- next note;
#X obj 201 228 list split 1;
#X obj 135 187 list split 4;
#X obj 201 207 list split 4;
#N canvas 115 354 1036 300 beat2id 0;
#X obj 26 87 l2s;
#X msg 95 70 symbol;
#X obj 95 53 loadbang;
#X obj 26 49 prepend #;
#X msg 26 170 1;
#X msg 52 170 2;
#X msg 80 170 3;
#X msg 106 169 4;
#X msg 136 169 5;
#X msg 162 169 6;
#X msg 190 169 7;
#X msg 216 168 8;
#X msg 242 168 9;
#X msg 268 168 10;
#X msg 296 168 11;
#X msg 322 167 12;
#X msg 352 167 13;
#X msg 378 167 14;
#X msg 406 167 15;
#X msg 432 166 16;
#X obj 26 130 sel #0000 #1000 #0100 #0010 #0001 #1100 #1010 #1001 #0110
#0101 #0011 #1110 #1101 #1011 #0111 #1111;
#X obj 27 206 f;
#X obj 24 28 inlet;
#X obj 27 225 outlet;
#X obj 497 212 outlet;
#X obj 532 76 sel #0000 #1000 #0100 #0010 #0001 #1100 #1010 #1001 #0110
#0101 #0011 #1110 #1101 #1011 #0111 #1111;
#X obj 496 186 f;
#X text 47 248 ID;
#X text 574 246 density;
#X obj 302 73 t a a;
#X msg 495 150 0;
#X msg 521 150 1;
#X msg 549 150 1;
#X msg 575 149 1;
#X msg 605 149 1;
#X msg 631 149 2;
#X msg 659 149 2;
#X msg 685 148 2;
#X msg 711 148 2;
#X msg 737 148 2;
#X msg 765 148 2;
#X msg 901 146 4;
#X msg 875 147 3;
#X msg 847 147 3;
#X msg 821 147 3;
#X msg 791 147 3;
#X connect 0 0 29 0;
#X connect 1 0 0 1;
#X connect 2 0 1 0;
#X connect 3 0 0 0;
#X connect 4 0 21 0;
#X connect 5 0 21 0;
#X connect 6 0 21 0;
#X connect 7 0 21 0;
#X connect 8 0 21 0;
#X connect 9 0 21 0;
#X connect 10 0 21 0;
#X connect 11 0 21 0;
#X connect 12 0 21 0;
#X connect 13 0 21 0;
#X connect 14 0 21 0;
#X connect 15 0 21 0;
#X connect 16 0 21 0;
#X connect 17 0 21 0;
#X connect 18 0 21 0;
#X connect 19 0 21 0;
#X connect 20 0 4 0;
#X connect 20 1 5 0;
#X connect 20 2 6 0;
#X connect 20 3 7 0;
#X connect 20 4 8 0;
#X connect 20 5 9 0;
#X connect 20 6 10 0;
#X connect 20 7 11 0;
#X connect 20 8 12 0;
#X connect 20 9 13 0;
#X connect 20 10 14 0;
#X connect 20 11 15 0;
#X connect 20 12 16 0;
#X connect 20 13 17 0;
#X connect 20 14 18 0;
#X connect 20 15 19 0;
#X connect 21 0 23 0;
#X connect 22 0 3 0;
#X connect 25 0 30 0;
#X connect 25 1 31 0;
#X connect 25 2 32 0;
#X connect 25 3 33 0;
#X connect 25 4 34 0;
#X connect 25 5 35 0;
#X connect 25 6 36 0;
#X connect 25 7 37 0;
#X connect 25 8 38 0;
#X connect 25 9 39 0;
#X connect 25 10 40 0;
#X connect 25 11 45 0;
#X connect 25 12 44 0;
#X connect 25 13 43 0;
#X connect 25 14 42 0;
#X connect 25 15 41 0;
#X connect 26 0 24 0;
#X connect 29 0 20 0;
#X connect 29 1 25 0;
#X connect 30 0 26 0;
#X connect 31 0 26 0;
#X connect 32 0 26 0;
#X connect 33 0 26 0;
#X connect 34 0 26 0;
#X connect 35 0 26 0;
#X connect 36 0 26 0;
#X connect 37 0 26 0;
#X connect 38 0 26 0;
#X connect 39 0 26 0;
#X connect 40 0 26 0;
#X connect 41 0 26 0;
#X connect 42 0 26 0;
#X connect 43 0 26 0;
#X connect 44 0 26 0;
#X connect 45 0 26 0;
#X restore 135 260 pd beat2id;
#N canvas 369 182 624 346 idandnext2group 0;
#X obj 33 23 inlet;
#X obj 64 229 outlet;
#X msg 33 48 \$2 \$1;
#X obj 33 70 route 0 1;
#X obj 33 133 - 1;
#X obj 123 133 - 1;
#X msg 272 38 \; nonext 0 4 2 5 3 6 5 1 8 3 7 6 3 7 8 6 6;
#X msg 357 84 \; next 0 4 2 5 3 4 5 1 2 3 5 4 3 5 2 4 4;
#X obj 33 152 tabread \$0-nonext;
#X obj 123 152 tabread \$0-next;
#X connect 0 0 2 0;
#X connect 2 0 3 0;
#X connect 3 0 4 0;
#X connect 3 1 5 0;
#X connect 4 0 8 0;
#X connect 5 0 9 0;
#X connect 8 0 1 0;
#X connect 9 0 1 0;
#X restore 135 311 pd idandnext2group;
#X obj 189 92 inlet;
#X text 86 25 partir la lista en 4 steps y los 4 steps siguientes dado
un índice de corte;
#X text 179 75 índice de corte;
#X connect 0 0 2 0;
#X connect 2 1 7 0;
#X connect 3 0 10 0;
#X connect 4 0 3 1;
#X connect 6 0 4 0;
#X connect 7 0 9 0;
#X connect 7 1 8 0;
#X connect 8 0 6 0;
#X connect 9 0 3 0;
#X connect 10 0 1 0;
#X connect 11 0 2 1;
#X restore 214 238 pd split;
#X obj 259 219 nbx 2 14 0 8 0 1 empty empty empty 0 -8 0 10 -262144
-1 -1 8 256;
#N canvas 689 342 450 369 split 0;
#X obj 101 89 inlet;
#X obj 135 331 outlet;
#X obj 101 109 list split 8;
#X obj 135 289 pack f f;
#X obj 201 248 tgl 15 0 empty empty empty 17 7 0 10 -262144 -1 -1 0
1;
#X text 216 245 <- next note;
#X obj 201 228 list split 1;
#X obj 135 187 list split 4;
#X obj 201 207 list split 4;
#N canvas 118 349 1036 300 beat2id 0;
#X obj 26 87 l2s;
#X msg 95 70 symbol;
#X obj 95 53 loadbang;
#X obj 26 49 prepend #;
#X msg 26 170 1;
#X msg 52 170 2;
#X msg 80 170 3;
#X msg 106 169 4;
#X msg 136 169 5;
#X msg 162 169 6;
#X msg 190 169 7;
#X msg 216 168 8;
#X msg 242 168 9;
#X msg 268 168 10;
#X msg 296 168 11;
#X msg 322 167 12;
#X msg 352 167 13;
#X msg 378 167 14;
#X msg 406 167 15;
#X msg 432 166 16;
#X obj 26 130 sel #0000 #1000 #0100 #0010 #0001 #1100 #1010 #1001 #0110
#0101 #0011 #1110 #1101 #1011 #0111 #1111;
#X obj 27 206 f;
#X obj 24 28 inlet;
#X obj 27 225 outlet;
#X obj 497 212 outlet;
#X obj 532 76 sel #0000 #1000 #0100 #0010 #0001 #1100 #1010 #1001 #0110
#0101 #0011 #1110 #1101 #1011 #0111 #1111;
#X obj 496 186 f;
#X text 47 248 ID;
#X text 574 246 density;
#X obj 302 73 t a a;
#X msg 495 150 0;
#X msg 521 150 1;
#X msg 549 150 1;
#X msg 575 149 1;
#X msg 605 149 1;
#X msg 631 149 2;
#X msg 659 149 2;
#X msg 685 148 2;
#X msg 711 148 2;
#X msg 737 148 2;
#X msg 765 148 2;
#X msg 901 146 4;
#X msg 875 147 3;
#X msg 847 147 3;
#X msg 821 147 3;
#X msg 791 147 3;
#X connect 0 0 29 0;
#X connect 1 0 0 1;
#X connect 2 0 1 0;
#X connect 3 0 0 0;
#X connect 4 0 21 0;
#X connect 5 0 21 0;
#X connect 6 0 21 0;
#X connect 7 0 21 0;
#X connect 8 0 21 0;
#X connect 9 0 21 0;
#X connect 10 0 21 0;
#X connect 11 0 21 0;
#X connect 12 0 21 0;
#X connect 13 0 21 0;
#X connect 14 0 21 0;
#X connect 15 0 21 0;
#X connect 16 0 21 0;
#X connect 17 0 21 0;
#X connect 18 0 21 0;
#X connect 19 0 21 0;
#X connect 20 0 4 0;
#X connect 20 1 5 0;
#X connect 20 2 6 0;
#X connect 20 3 7 0;
#X connect 20 4 8 0;
#X connect 20 5 9 0;
#X connect 20 6 10 0;
#X connect 20 7 11 0;
#X connect 20 8 12 0;
#X connect 20 9 13 0;
#X connect 20 10 14 0;
#X connect 20 11 15 0;
#X connect 20 12 16 0;
#X connect 20 13 17 0;
#X connect 20 14 18 0;
#X connect 20 15 19 0;
#X connect 21 0 23 0;
#X connect 22 0 3 0;
#X connect 25 0 30 0;
#X connect 25 1 31 0;
#X connect 25 2 32 0;
#X connect 25 3 33 0;
#X connect 25 4 34 0;
#X connect 25 5 35 0;
#X connect 25 6 36 0;
#X connect 25 7 37 0;
#X connect 25 8 38 0;
#X connect 25 9 39 0;
#X connect 25 10 40 0;
#X connect 25 11 45 0;
#X connect 25 12 44 0;
#X connect 25 13 43 0;
#X connect 25 14 42 0;
#X connect 25 15 41 0;
#X connect 26 0 24 0;
#X connect 29 0 20 0;
#X connect 29 1 25 0;
#X connect 30 0 26 0;
#X connect 31 0 26 0;
#X connect 32 0 26 0;
#X connect 33 0 26 0;
#X connect 34 0 26 0;
#X connect 35 0 26 0;
#X connect 36 0 26 0;
#X connect 37 0 26 0;
#X connect 38 0 26 0;
#X connect 39 0 26 0;
#X connect 40 0 26 0;
#X connect 41 0 26 0;
#X connect 42 0 26 0;
#X connect 43 0 26 0;
#X connect 44 0 26 0;
#X connect 45 0 26 0;
#X restore 135 260 pd beat2id;
#N canvas 369 182 624 346 idandnext2group 0;
#X obj 33 23 inlet;
#X obj 64 229 outlet;
#X msg 33 48 \$2 \$1;
#X obj 33 70 route 0 1;
#X obj 33 133 - 1;
#X obj 123 133 - 1;
#X msg 272 38 \; nonext 0 4 2 5 3 6 5 1 8 3 7 6 3 7 8 6 6;
#X msg 357 84 \; next 0 4 2 5 3 4 5 1 2 3 5 4 3 5 2 4 4;
#X obj 33 152 tabread \$0-nonext;
#X obj 123 152 tabread \$0-next;
#X connect 0 0 2 0;
#X connect 2 0 3 0;
#X connect 3 0 4 0;
#X connect 3 1 5 0;
#X connect 4 0 8 0;
#X connect 5 0 9 0;
#X connect 8 0 1 0;
#X connect 9 0 1 0;
#X restore 135 311 pd idandnext2group;
#X obj 189 92 inlet;
#X text 86 25 partir la lista en 4 steps y los 4 steps siguientes dado
un índice de corte;
#X text 179 75 índice de corte;
#X connect 0 0 2 0;
#X connect 2 1 7 0;
#X connect 3 0 10 0;
#X connect 4 0 3 1;
#X connect 6 0 4 0;
#X connect 7 0 9 0;
#X connect 7 1 8 0;
#X connect 8 0 6 0;
#X connect 9 0 3 0;
#X connect 10 0 1 0;
#X connect 11 0 2 1;
#X restore 298 238 pd split;
#X obj 343 219 nbx 2 14 0 32 0 1 empty empty empty 0 -8 0 10 -262144
-1 -1 12 256;
#N canvas 692 337 450 369 split 0;
#X obj 101 89 inlet;
#X obj 135 331 outlet;
#X obj 101 109 list split 8;
#X obj 135 289 pack f f;
#X obj 201 248 tgl 15 0 empty empty empty 17 7 0 10 -262144 -1 -1 0
1;
#X text 216 245 <- next note;
#X obj 201 228 list split 1;
#X obj 135 187 list split 4;
#X obj 201 207 list split 4;
#N canvas 118 349 1036 300 beat2id 0;
#X obj 26 87 l2s;
#X msg 95 70 symbol;
#X obj 95 53 loadbang;
#X obj 26 49 prepend #;
#X msg 26 170 1;
#X msg 52 170 2;
#X msg 80 170 3;
#X msg 106 169 4;
#X msg 136 169 5;
#X msg 162 169 6;
#X msg 190 169 7;
#X msg 216 168 8;
#X msg 242 168 9;
#X msg 268 168 10;
#X msg 296 168 11;
#X msg 322 167 12;
#X msg 352 167 13;
#X msg 378 167 14;
#X msg 406 167 15;
#X msg 432 166 16;
#X obj 26 130 sel #0000 #1000 #0100 #0010 #0001 #1100 #1010 #1001 #0110
#0101 #0011 #1110 #1101 #1011 #0111 #1111;
#X obj 27 206 f;
#X obj 24 28 inlet;
#X obj 27 225 outlet;
#X obj 497 212 outlet;
#X obj 532 76 sel #0000 #1000 #0100 #0010 #0001 #1100 #1010 #1001 #0110
#0101 #0011 #1110 #1101 #1011 #0111 #1111;
#X obj 496 186 f;
#X text 47 248 ID;
#X text 574 246 density;
#X obj 302 73 t a a;
#X msg 495 150 0;
#X msg 521 150 1;
#X msg 549 150 1;
#X msg 575 149 1;
#X msg 605 149 1;
#X msg 631 149 2;
#X msg 659 149 2;
#X msg 685 148 2;
#X msg 711 148 2;
#X msg 737 148 2;
#X msg 765 148 2;
#X msg 901 146 4;
#X msg 875 147 3;
#X msg 847 147 3;
#X msg 821 147 3;
#X msg 791 147 3;
#X connect 0 0 29 0;
#X connect 1 0 0 1;
#X connect 2 0 1 0;
#X connect 3 0 0 0;
#X connect 4 0 21 0;
#X connect 5 0 21 0;
#X connect 6 0 21 0;
#X connect 7 0 21 0;
#X connect 8 0 21 0;
#X connect 9 0 21 0;
#X connect 10 0 21 0;
#X connect 11 0 21 0;
#X connect 12 0 21 0;
#X connect 13 0 21 0;
#X connect 14 0 21 0;
#X connect 15 0 21 0;
#X connect 16 0 21 0;
#X connect 17 0 21 0;
#X connect 18 0 21 0;
#X connect 19 0 21 0;
#X connect 20 0 4 0;
#X connect 20 1 5 0;
#X connect 20 2 6 0;
#X connect 20 3 7 0;
#X connect 20 4 8 0;
#X connect 20 5 9 0;
#X connect 20 6 10 0;
#X connect 20 7 11 0;
#X connect 20 8 12 0;
#X connect 20 9 13 0;
#X connect 20 10 14 0;
#X connect 20 11 15 0;
#X connect 20 12 16 0;
#X connect 20 13 17 0;
#X connect 20 14 18 0;
#X connect 20 15 19 0;
#X connect 21 0 23 0;
#X connect 22 0 3 0;
#X connect 25 0 30 0;
#X connect 25 1 31 0;
#X connect 25 2 32 0;
#X connect 25 3 33 0;
#X connect 25 4 34 0;
#X connect 25 5 35 0;
#X connect 25 6 36 0;
#X connect 25 7 37 0;
#X connect 25 8 38 0;
#X connect 25 9 39 0;
#X connect 25 10 40 0;
#X connect 25 11 45 0;
#X connect 25 12 44 0;
#X connect 25 13 43 0;
#X connect 25 14 42 0;
#X connect 25 15 41 0;
#X connect 26 0 24 0;
#X connect 29 0 20 0;
#X connect 29 1 25 0;
#X connect 30 0 26 0;
#X connect 31 0 26 0;
#X connect 32 0 26 0;
#X connect 33 0 26 0;
#X connect 34 0 26 0;
#X connect 35 0 26 0;
#X connect 36 0 26 0;
#X connect 37 0 26 0;
#X connect 38 0 26 0;
#X connect 39 0 26 0;
#X connect 40 0 26 0;
#X connect 41 0 26 0;
#X connect 42 0 26 0;
#X connect 43 0 26 0;
#X connect 44 0 26 0;
#X connect 45 0 26 0;
#X restore 135 260 pd beat2id;
#N canvas 372 177 624 346 idandnext2group 0;
#X obj 33 23 inlet;
#X obj 64 229 outlet;
#X msg 33 48 \$2 \$1;
#X obj 33 70 route 0 1;
#X obj 33 133 - 1;
#X obj 123 133 - 1;
#X msg 272 38 \; nonext 0 4 2 5 3 6 5 1 8 3 7 6 3 7 8 6 6;
#X msg 357 84 \; next 0 4 2 5 3 4 5 1 2 3 5 4 3 5 2 4 4;
#X obj 33 152 tabread \$0-nonext;
#X obj 123 152 tabread \$0-next;
#X connect 0 0 2 0;
#X connect 2 0 3 0;
#X connect 3 0 4 0;
#X connect 3 1 5 0;
#X connect 4 0 8 0;
#X connect 5 0 9 0;
#X connect 8 0 1 0;
#X connect 9 0 1 0;
#X restore 135 311 pd idandnext2group;
#X obj 189 92 inlet;
#X text 86 25 partir la lista en 4 steps y los 4 steps siguientes dado
un índice de corte;
#X text 179 75 índice de corte;
#X connect 0 0 2 0;
#X connect 2 1 7 0;
#X connect 3 0 10 0;
#X connect 4 0 3 1;
#X connect 6 0 4 0;
#X connect 7 0 9 0;
#X connect 7 1 8 0;
#X connect 8 0 6 0;
#X connect 9 0 3 0;
#X connect 10 0 1 0;
#X connect 11 0 2 1;
#X restore 383 238 pd split;
#X obj 428 219 nbx 2 14 0 32 0 1 empty empty empty 0 -8 0 10 -262144
-1 -1 16 256;
#N canvas 692 337 450 369 split 0;
#X obj 101 89 inlet;
#X obj 135 331 outlet;
#X obj 101 109 list split 8;
#X obj 135 289 pack f f;
#X obj 201 248 tgl 15 0 empty empty empty 17 7 0 10 -262144 -1 -1 0
1;
#X text 216 245 <- next note;
#X obj 201 228 list split 1;
#X obj 135 187 list split 4;
#X obj 201 207 list split 4;
#N canvas 118 349 1036 300 beat2id 0;
#X obj 26 87 l2s;
#X msg 95 70 symbol;
#X obj 95 53 loadbang;
#X obj 26 49 prepend #;
#X msg 26 170 1;
#X msg 52 170 2;
#X msg 80 170 3;
#X msg 106 169 4;
#X msg 136 169 5;
#X msg 162 169 6;
#X msg 190 169 7;
#X msg 216 168 8;
#X msg 242 168 9;
#X msg 268 168 10;
#X msg 296 168 11;
#X msg 322 167 12;
#X msg 352 167 13;
#X msg 378 167 14;
#X msg 406 167 15;
#X msg 432 166 16;
#X obj 26 130 sel #0000 #1000 #0100 #0010 #0001 #1100 #1010 #1001 #0110
#0101 #0011 #1110 #1101 #1011 #0111 #1111;
#X obj 27 206 f;
#X obj 24 28 inlet;
#X obj 27 225 outlet;
#X obj 497 212 outlet;
#X obj 532 76 sel #0000 #1000 #0100 #0010 #0001 #1100 #1010 #1001 #0110
#0101 #0011 #1110 #1101 #1011 #0111 #1111;
#X obj 496 186 f;
#X text 47 248 ID;
#X text 574 246 density;
#X obj 302 73 t a a;
#X msg 495 150 0;
#X msg 521 150 1;
#X msg 549 150 1;
#X msg 575 149 1;
#X msg 605 149 1;
#X msg 631 149 2;
#X msg 659 149 2;
#X msg 685 148 2;
#X msg 711 148 2;
#X msg 737 148 2;
#X msg 765 148 2;
#X msg 901 146 4;
#X msg 875 147 3;
#X msg 847 147 3;
#X msg 821 147 3;
#X msg 791 147 3;
#X connect 0 0 29 0;
#X connect 1 0 0 1;
#X connect 2 0 1 0;
#X connect 3 0 0 0;
#X connect 4 0 21 0;
#X connect 5 0 21 0;
#X connect 6 0 21 0;
#X connect 7 0 21 0;
#X connect 8 0 21 0;
#X connect 9 0 21 0;
#X connect 10 0 21 0;
#X connect 11 0 21 0;
#X connect 12 0 21 0;
#X connect 13 0 21 0;
#X connect 14 0 21 0;
#X connect 15 0 21 0;
#X connect 16 0 21 0;
#X connect 17 0 21 0;
#X connect 18 0 21 0;
#X connect 19 0 21 0;
#X connect 20 0 4 0;
#X connect 20 1 5 0;
#X connect 20 2 6 0;
#X connect 20 3 7 0;
#X connect 20 4 8 0;
#X connect 20 5 9 0;
#X connect 20 6 10 0;
#X connect 20 7 11 0;
#X connect 20 8 12 0;
#X connect 20 9 13 0;
#X connect 20 10 14 0;
#X connect 20 11 15 0;
#X connect 20 12 16 0;
#X connect 20 13 17 0;
#X connect 20 14 18 0;
#X connect 20 15 19 0;
#X connect 21 0 23 0;
#X connect 22 0 3 0;
#X connect 25 0 30 0;
#X connect 25 1 31 0;
#X connect 25 2 32 0;
#X connect 25 3 33 0;
#X connect 25 4 34 0;
#X connect 25 5 35 0;
#X connect 25 6 36 0;
#X connect 25 7 37 0;
#X connect 25 8 38 0;
#X connect 25 9 39 0;
#X connect 25 10 40 0;
#X connect 25 11 45 0;
#X connect 25 12 44 0;
#X connect 25 13 43 0;
#X connect 25 14 42 0;
#X connect 25 15 41 0;
#X connect 26 0 24 0;
#X connect 29 0 20 0;
#X connect 29 1 25 0;
#X connect 30 0 26 0;
#X connect 31 0 26 0;
#X connect 32 0 26 0;
#X connect 33 0 26 0;
#X connect 34 0 26 0;
#X connect 35 0 26 0;
#X connect 36 0 26 0;
#X connect 37 0 26 0;
#X connect 38 0 26 0;
#X connect 39 0 26 0;
#X connect 40 0 26 0;
#X connect 41 0 26 0;
#X connect 42 0 26 0;
#X connect 43 0 26 0;
#X connect 44 0 26 0;
#X connect 45 0 26 0;
#X restore 135 260 pd beat2id;
#N canvas 372 177 624 346 idandnext2group 0;
#X obj 33 23 inlet;
#X obj 64 229 outlet;
#X msg 33 48 \$2 \$1;
#X obj 33 70 route 0 1;
#X obj 33 133 - 1;
#X obj 123 133 - 1;
#X msg 272 38 \; nonext 0 4 2 5 3 6 5 1 8 3 7 6 3 7 8 6 6;
#X msg 357 84 \; next 0 4 2 5 3 4 5 1 2 3 5 4 3 5 2 4 4;
#X obj 33 152 tabread \$0-nonext;
#X obj 123 152 tabread \$0-next;
#X connect 0 0 2 0;
#X connect 2 0 3 0;
#X connect 3 0 4 0;
#X connect 3 1 5 0;
#X connect 4 0 8 0;
#X connect 5 0 9 0;
#X connect 8 0 1 0;
#X connect 9 0 1 0;
#X restore 135 311 pd idandnext2group;
#X obj 189 92 inlet;
#X text 86 25 partir la lista en 4 steps y los 4 steps siguientes dado
un índice de corte;
#X text 179 75 índice de corte;
#X connect 0 0 2 0;
#X connect 2 1 7 0;
#X connect 3 0 10 0;
#X connect 4 0 3 1;
#X connect 6 0 4 0;
#X connect 7 0 9 0;
#X connect 7 1 8 0;
#X connect 8 0 6 0;
#X connect 9 0 3 0;
#X connect 10 0 1 0;
#X connect 11 0 2 1;
#X restore 466 238 pd split;
#X obj 511 219 nbx 2 14 0 32 0 1 empty empty empty 0 -8 0 10 -262144
-1 -1 20 256;
#N canvas 692 337 450 369 split 0;
#X obj 101 89 inlet;
#X obj 135 331 outlet;
#X obj 101 109 list split 8;
#X obj 135 289 pack f f;
#X obj 201 248 tgl 15 0 empty empty empty 17 7 0 10 -262144 -1 -1 0
1;
#X text 216 245 <- next note;
#X obj 201 228 list split 1;
#X obj 135 187 list split 4;
#X obj 201 207 list split 4;
#N canvas 118 349 1036 300 beat2id 0;
#X obj 26 87 l2s;
#X msg 95 70 symbol;
#X obj 95 53 loadbang;
#X obj 26 49 prepend #;
#X msg 26 170 1;
#X msg 52 170 2;
#X msg 80 170 3;
#X msg 106 169 4;
#X msg 136 169 5;
#X msg 162 169 6;
#X msg 190 169 7;
#X msg 216 168 8;
#X msg 242 168 9;
#X msg 268 168 10;
#X msg 296 168 11;
#X msg 322 167 12;
#X msg 352 167 13;
#X msg 378 167 14;
#X msg 406 167 15;
#X msg 432 166 16;
#X obj 26 130 sel #0000 #1000 #0100 #0010 #0001 #1100 #1010 #1001 #0110
#0101 #0011 #1110 #1101 #1011 #0111 #1111;
#X obj 27 206 f;
#X obj 24 28 inlet;
#X obj 27 225 outlet;
#X obj 497 212 outlet;
#X obj 532 76 sel #0000 #1000 #0100 #0010 #0001 #1100 #1010 #1001 #0110
#0101 #0011 #1110 #1101 #1011 #0111 #1111;
#X obj 496 186 f;
#X text 47 248 ID;
#X text 574 246 density;
#X obj 302 73 t a a;
#X msg 495 150 0;
#X msg 521 150 1;
#X msg 549 150 1;
#X msg 575 149 1;
#X msg 605 149 1;
#X msg 631 149 2;
#X msg 659 149 2;
#X msg 685 148 2;
#X msg 711 148 2;
#X msg 737 148 2;
#X msg 765 148 2;
#X msg 901 146 4;
#X msg 875 147 3;
#X msg 847 147 3;
#X msg 821 147 3;
#X msg 791 147 3;
#X connect 0 0 29 0;
#X connect 1 0 0 1;
#X connect 2 0 1 0;
#X connect 3 0 0 0;
#X connect 4 0 21 0;
#X connect 5 0 21 0;
#X connect 6 0 21 0;
#X connect 7 0 21 0;
#X connect 8 0 21 0;
#X connect 9 0 21 0;
#X connect 10 0 21 0;
#X connect 11 0 21 0;
#X connect 12 0 21 0;
#X connect 13 0 21 0;
#X connect 14 0 21 0;
#X connect 15 0 21 0;
#X connect 16 0 21 0;
#X connect 17 0 21 0;
#X connect 18 0 21 0;
#X connect 19 0 21 0;
#X connect 20 0 4 0;
#X connect 20 1 5 0;
#X connect 20 2 6 0;
#X connect 20 3 7 0;
#X connect 20 4 8 0;
#X connect 20 5 9 0;
#X connect 20 6 10 0;
#X connect 20 7 11 0;
#X connect 20 8 12 0;
#X connect 20 9 13 0;
#X connect 20 10 14 0;
#X connect 20 11 15 0;
#X connect 20 12 16 0;
#X connect 20 13 17 0;
#X connect 20 14 18 0;
#X connect 20 15 19 0;
#X connect 21 0 23 0;
#X connect 22 0 3 0;
#X connect 25 0 30 0;
#X connect 25 1 31 0;
#X connect 25 2 32 0;
#X connect 25 3 33 0;
#X connect 25 4 34 0;
#X connect 25 5 35 0;
#X connect 25 6 36 0;
#X connect 25 7 37 0;
#X connect 25 8 38 0;
#X connect 25 9 39 0;
#X connect 25 10 40 0;
#X connect 25 11 45 0;
#X connect 25 12 44 0;
#X connect 25 13 43 0;
#X connect 25 14 42 0;
#X connect 25 15 41 0;
#X connect 26 0 24 0;
#X connect 29 0 20 0;
#X connect 29 1 25 0;
#X connect 30 0 26 0;
#X connect 31 0 26 0;
#X connect 32 0 26 0;
#X connect 33 0 26 0;
#X connect 34 0 26 0;
#X connect 35 0 26 0;
#X connect 36 0 26 0;
#X connect 37 0 26 0;
#X connect 38 0 26 0;
#X connect 39 0 26 0;
#X connect 40 0 26 0;
#X connect 41 0 26 0;
#X connect 42 0 26 0;
#X connect 43 0 26 0;
#X connect 44 0 26 0;
#X connect 45 0 26 0;
#X restore 135 260 pd beat2id;
#N canvas 372 177 624 346 idandnext2group 0;
#X obj 33 23 inlet;
#X obj 64 229 outlet;
#X msg 33 48 \$2 \$1;
#X obj 33 70 route 0 1;
#X obj 33 133 - 1;
#X obj 123 133 - 1;
#X msg 272 38 \; nonext 0 4 2 5 3 6 5 1 8 3 7 6 3 7 8 6 6;
#X msg 357 84 \; next 0 4 2 5 3 4 5 1 2 3 5 4 3 5 2 4 4;
#X obj 33 152 tabread \$0-nonext;
#X obj 123 152 tabread \$0-next;
#X connect 0 0 2 0;
#X connect 2 0 3 0;
#X connect 3 0 4 0;
#X connect 3 1 5 0;
#X connect 4 0 8 0;
#X connect 5 0 9 0;
#X connect 8 0 1 0;
#X connect 9 0 1 0;
#X restore 135 311 pd idandnext2group;
#X obj 189 92 inlet;
#X text 86 25 partir la lista en 4 steps y los 4 steps siguientes dado
un índice de corte;
#X text 179 75 índice de corte;
#X connect 0 0 2 0;
#X connect 2 1 7 0;
#X connect 3 0 10 0;
#X connect 4 0 3 1;
#X connect 6 0 4 0;
#X connect 7 0 9 0;
#X connect 7 1 8 0;
#X connect 8 0 6 0;
#X connect 9 0 3 0;
#X connect 10 0 1 0;
#X connect 11 0 2 1;
#X restore 561 238 pd split;
#X obj 606 219 nbx 2 14 0 32 0 1 empty empty empty 0 -8 0 10 -262144
-1 -1 24 256;
#X obj 183 108 t l l l l l l l l;
#X obj 661 125 list split 28;
#X connect 0 0 1 0;
#X connect 1 0 6 0;
#X connect 2 0 12 0;
#X connect 3 0 2 1;
#X connect 5 0 3 0;
#X connect 6 0 11 0;
#X connect 6 1 7 0;
#X connect 7 0 5 0;
#X connect 8 0 28 0;
#X connect 11 0 2 0;
#X connect 12 0 13 7;
#X connect 13 0 9 0;
#X connect 14 0 13 0;
#X connect 15 0 14 1;
#X connect 16 0 13 1;
#X connect 17 0 16 1;
#X connect 18 0 13 2;
#X connect 19 0 18 1;
#X connect 20 0 13 3;
#X connect 21 0 20 1;
#X connect 22 0 13 4;
#X connect 23 0 22 1;
#X connect 24 0 13 5;
#X connect 25 0 24 1;
#X connect 26 0 13 6;
#X connect 27 0 26 1;
#X connect 28 0 14 0;
#X connect 28 1 16 0;
#X connect 28 2 18 0;
#X connect 28 3 20 0;
#X connect 28 4 22 0;
#X connect 28 5 24 0;
#X connect 28 6 26 0;
#X connect 28 7 29 0;
#X connect 29 0 0 0;
#X connect 29 1 1 1;
#X restore 207 70 pd pattern2group;
#X connect 0 0 3 0;
#X connect 1 0 15 0;
#X connect 3 0 5 0;
#X connect 5 0 6 0;
#X connect 6 0 12 0;
#X connect 10 0 2 0;
#X connect 11 0 10 0;
#X connect 12 0 11 0;
#X connect 12 1 13 0;
#X connect 13 0 11 1;
#X connect 15 0 5 1;
