#N canvas 518 99 569 641 10;
#X text 5 25 The idea here is to mix two probaility distributions in
the form of lists of words. Here we are ONLY mixing probabilities for
one step. This mixer should be filled for every new step we want to
compute.;
#X obj 232 282 histogram_w;
#X obj 43 153 hsl 128 15 0 1 0 0 empty empty empty -2 -8 0 10 -262144
-1 -1 0 1;
#X msg 40 131 0.5;
#X obj 174 206 inlet list A;
#X obj 303 201 inlet list B;
#X obj 71 224 - 1;
#X obj 71 246 abs;
#X msg 134 204 a b;
#X obj 134 357 coll \$0-resulting-probs;
#C restore;
#X msg 301 331 clear;
#X msg 134 329 merge \$1 \$2;
#X obj 71 265 histogram_w;
#X obj 134 246 list;
#X obj 295 256 list;
#X msg 55 316 length;
#X obj 134 384 until;
#X obj 134 404 coll \$0-resulting-probs;
#C restore;
#X obj 134 445 list prepend;
#X obj 134 424 sum;
#X obj 134 507 list;
#X obj 166 507 list;
#X obj 40 539 list;
#X obj 397 189 s \$0-lets-start;
#X obj 301 312 r \$0-lets-start;
#X obj 155 483 r \$0-lets-start;
#X obj 40 172 t b b f f b;
#X msg 298 158 a c d;
#X obj 40 561 outlet resulting probability table;
#X connect 1 1 11 0;
#X connect 2 0 26 0;
#X connect 3 0 2 0;
#X connect 4 0 13 0;
#X connect 5 0 14 0;
#X connect 6 0 7 0;
#X connect 7 0 12 0;
#X connect 8 0 13 0;
#X connect 9 0 16 0;
#X connect 10 0 9 0;
#X connect 11 0 9 0;
#X connect 12 1 11 0;
#X connect 13 0 12 1;
#X connect 14 0 1 1;
#X connect 15 0 9 0;
#X connect 16 0 17 0;
#X connect 17 0 19 0;
#X connect 17 1 18 1;
#X connect 18 0 20 0;
#X connect 19 0 18 0;
#X connect 20 0 21 0;
#X connect 20 0 22 1;
#X connect 21 0 20 1;
#X connect 22 0 28 0;
#X connect 24 0 10 0;
#X connect 25 0 20 1;
#X connect 26 0 22 0;
#X connect 26 1 15 0;
#X connect 26 2 6 0;
#X connect 26 3 1 0;
#X connect 26 4 23 0;
#X connect 27 0 14 0;
