#N canvas 71 115 1144 426 10;
#X text 225 37 convert a 4 letter word to a list;
#X msg 198 12 abcd;
#X symbolatom 198 80 32 0 0 0 - - -, f 32;
#X text 226 155 convert a 2 letter word to a list;
#X symbolatom 197 199 32 0 0 0 - - -, f 32;
#X msg 197 131 ab;
#X text 830 205 convert a float to a 2 letter word;
#X symbolatom 863 223 10 0 0 0 - - -, f 10;
#X text 485 52 convert a pattern to a 4 letter word;
#X symbolatom 203 294 10 0 0 0 - - -, f 10;
#X text 241 249 convert a pattern to a 1 letter word;
#X obj 193 272 p2w1;
#X text 485 288 convert a 1 letter word to a pattern;
#X obj 457 289 w12p;
#X symbolatom 457 327 32 0 0 0 - - -, f 32;
#X floatatom 193 374 5 0 0 0 - - -, f 5;
#X obj 193 339 w12f;
#X obj 458 356 f2w1;
#X text 486 355 converta float to a 1 letter word;
#X symbolatom 458 378 10 0 0 0 - - -, f 10;
#X msg 193 251 0 0 1 0;
#X text 221 338 convert a 1 letter word to a float;
#X text 190 107 ____________________________________________________________
;
#X obj 197 155 w22l;
#X obj 801 206 f2w2;
#X symbolatom 447 194 4 0 0 0 - - -, f 4;
#X obj 447 172 l2w2;
#X obj 453 55 l2w4;
#X text 475 171 convert a list to a 2 letter word;
#X obj 764 325 ps;
#X msg 764 304 0 0 1 0;
#X symbolatom 764 346 10 0 0 0 - - -, f 10;
#X symbolatom 453 78 10 0 0 0 - - -, f 10;
#X text 190 225 ____________________________________________________________
;
#X text 62 285 words of one letter;
#X text 53 48 words of 4 letters;
#X text 51 155 words of two letters;
#X obj 611 189 w22f;
#X text 640 187 convert a two letter word into a float;
#X floatatom 611 211 5 0 0 0 - - -, f 5;
#X msg 485 261 symbol j;
#X obj 198 38 w42l;
#X obj 198 59 zexy/list2symbol;
#X obj 197 178 zexy/list2symbol;
#X obj 456 307 zexy/list2symbol;
#X connect 1 0 41 0;
#X connect 5 0 23 0;
#X connect 11 0 9 0;
#X connect 11 0 16 0;
#X connect 11 0 13 0;
#X connect 13 0 44 0;
#X connect 16 0 15 0;
#X connect 16 0 17 0;
#X connect 17 0 19 0;
#X connect 20 0 11 0;
#X connect 23 0 26 0;
#X connect 23 0 43 0;
#X connect 24 0 7 0;
#X connect 26 0 25 0;
#X connect 26 0 37 0;
#X connect 27 0 32 0;
#X connect 29 0 31 0;
#X connect 30 0 29 0;
#X connect 37 0 39 0;
#X connect 37 0 24 0;
#X connect 40 0 13 0;
#X connect 41 0 27 0;
#X connect 41 0 42 0;
#X connect 42 0 2 0;
#X connect 43 0 4 0;
#X connect 44 0 14 0;
