#N canvas 541 371 450 300 10;
#X obj 167 98 until;
#X obj 79 55 route bang;
#X obj 79 36 inlet integrer;
#X msg 167 118 0;
#X obj 166 140 list;
#X obj 198 136 list;
#X obj 145 179 list;
#X obj 128 74 t b b f;
#X obj 145 213 outlet lits of zero values;
#X text 232 31 create a list of zeroes;
#X connect 0 0 3 0;
#X connect 1 1 7 0;
#X connect 2 0 1 0;
#X connect 3 0 4 0;
#X connect 4 0 5 0;
#X connect 4 0 6 1;
#X connect 5 0 4 1;
#X connect 6 0 8 0;
#X connect 7 0 4 1;
#X connect 7 1 6 0;
#X connect 7 2 0 0;
