#N canvas 1 23 639 529 10;
#X obj 100 9 inlet;
#X obj 306 163 symbol \$1;
#X obj 99 446 tabwrite \$1;
#X obj 74 176 list split 1;
#X obj 80 239 t b f b;
#X obj 145 281 f;
#X obj 174 279 + 1;
#X msg 201 237 0;
#X msg 306 187 set \$1;
#X obj 157 237 list;
#X obj 114 349 tabread \$1;
#X obj 145 302 t f f;
#X obj 99 381 +;
#X obj 140 127 t l b;
#X obj 100 38 route set list;
#X connect 0 0 14 0;
#X connect 1 0 8 0;
#X connect 3 0 4 0;
#X connect 3 1 9 1;
#X connect 4 0 9 0;
#X connect 4 1 12 0;
#X connect 4 2 5 0;
#X connect 5 0 6 0;
#X connect 5 0 11 0;
#X connect 6 0 5 1;
#X connect 7 0 5 1;
#X connect 8 0 2 0;
#X connect 8 0 10 0;
#X connect 9 0 3 0;
#X connect 10 0 12 1;
#X connect 11 0 2 1;
#X connect 11 1 10 0;
#X connect 12 0 2 0;
#X connect 13 0 3 0;
#X connect 13 1 7 0;
#X connect 14 0 1 0;
#X connect 14 1 13 0;
