#N canvas 3 23 409 473 10;
#X obj 18 10 inlet;
#X obj 18 33 t l l b, f 46;
#X obj 18 55 list length;
#X obj 18 163 list split 1;
#X obj 18 97 until;
#X obj 18 140 list;
#X obj 111 163 f 0;
#X obj 141 163 + 1;
#X obj 18 118 t b b, f 16;
#X obj 157 228 -;
#X obj 157 250 abs;
#X obj 247 273 f 0;
#X obj 157 273 + 0, f 13;
#X msg 291 107 0;
#X obj 142 383 list, f 39;
#X obj 18 76 t f f, f 10;
#X obj 114 273 ==;
#X obj 111 185 t f f f, f 9;
#X obj 114 295 sel 1;
#X obj 118 252 + 1;
#X obj 142 405 outlet;
#X obj 8 252 tabwrite \$0-t;
#X obj 57 10 table \$0-t 100;
#X obj 172 206 tabread \$0-t;
#X obj 118 227 f;
#X obj 142 331 f;
#X obj 157 305 != 0;
#X obj 18 185 t b f f;
#X obj 142 362 sel 1;
#X text 19 440 TODO: FILL WITH ZEROES EMPTY SPACES!;
#X connect 0 0 1 0;
#X connect 1 0 2 0;
#X connect 1 1 5 1;
#X connect 1 1 14 1;
#X connect 1 2 13 0;
#X connect 2 0 15 0;
#X connect 3 0 27 0;
#X connect 3 1 5 1;
#X connect 4 0 8 0;
#X connect 5 0 3 0;
#X connect 6 0 7 0;
#X connect 6 0 17 0;
#X connect 7 0 6 1;
#X connect 8 0 5 0;
#X connect 8 1 6 0;
#X connect 9 0 10 0;
#X connect 10 0 12 0;
#X connect 11 0 12 1;
#X connect 12 0 11 0;
#X connect 12 0 26 0;
#X connect 13 0 12 1;
#X connect 13 0 6 1;
#X connect 14 0 20 0;
#X connect 15 0 4 0;
#X connect 15 1 16 1;
#X connect 16 0 18 0;
#X connect 17 0 21 1;
#X connect 17 1 24 1;
#X connect 17 2 23 0;
#X connect 18 0 25 0;
#X connect 19 0 16 0;
#X connect 23 0 9 1;
#X connect 24 0 19 0;
#X connect 25 0 28 0;
#X connect 26 0 25 1;
#X connect 27 0 24 0;
#X connect 27 1 21 0;
#X connect 27 2 9 0;
#X connect 28 0 14 0;
