#N canvas 756 68 215 290 10;
#X obj 37 84 t f f;
#X obj 46 60 t f f;
#X obj 46 11 inlet;
#X obj 58 176 f;
#X obj 58 220 outlet;
#X obj 19 117 != -1000;
#X obj 19 141 sel 1;
#X obj 46 35 list split 1;
#X obj 58 198 list append;
#X connect 0 0 5 1;
#X connect 0 1 5 0;
#X connect 1 0 0 0;
#X connect 1 1 3 1;
#X connect 2 0 7 0;
#X connect 3 0 8 0;
#X connect 5 0 6 0;
#X connect 6 0 3 0;
#X connect 7 0 1 0;
#X connect 7 1 8 1;
#X connect 8 0 4 0;
