#N canvas 298 174 344 323 10;
#X obj 55 19 inlet;
#X obj 49 288 outlet;
#X obj 49 266 list;
#X obj 13 213 ==;
#X obj 13 232 sel 1;
#X obj 13 113 t b f;
#X msg 74 114 1;
#X obj 13 168 f 1;
#X obj 43 168 + 1;
#X obj 211 175 list length;
#X obj 55 41 t l b l;
#X obj 92 18 inlet;
#X obj 13 93 + \$1;
#X obj 13 71 vdrip;
#X obj 70 168 add2list prepend;
#X connect 0 0 10 0;
#X connect 2 0 1 0;
#X connect 3 0 4 0;
#X connect 4 0 2 0;
#X connect 5 0 7 0;
#X connect 5 1 14 0;
#X connect 6 0 7 1;
#X connect 7 0 8 0;
#X connect 7 0 3 0;
#X connect 8 0 7 1;
#X connect 9 0 3 1;
#X connect 10 0 13 0;
#X connect 10 1 6 0;
#X connect 10 1 14 1;
#X connect 10 2 9 0;
#X connect 11 0 12 1;
#X connect 12 0 5 0;
#X connect 13 0 12 0;
#X connect 14 0 2 1;
