#N canvas 2 23 555 543 10;
#X obj 1 0 cnv 15 552 40 empty \$0-pddp.cnv.header chord-transpose
3 12 0 18 -204280 -1 0;
#X obj 1 302 cnv 3 550 3 empty \$0-pddp.cnv.inlets inlets 8 12 0 13
-228856 -1 0;
#X obj 1 380 cnv 3 550 3 empty \$0-pddp.cnv.outlets outlets 8 12 0
13 -228856 -1 0;
#X obj 79 311 cnv 17 3 65 empty \$0-pddp.cnv.let.0 0 5 9 0 16 -228856
-162280 0;
#X text 99 310 list;
#X text 99 388 list;
#X floatatom 220 161 5 0 0 0 - - -, f 5;
#X obj 210 209 list;
#X obj 220 183 t b f;
#X text 258 159 transposition interval;
#X text 82 476 1) float;
#X text 169 476 - initial transposition interval.;
#X obj 210 255 print;
#X obj 1 505 cnv 15 552 21 empty \$0-pddp.cnv.footer empty 20 12 0
14 -228856 -66577 0;
#X obj 1 458 cnv 3 550 3 empty \$0-pddp.cnv.argument arguments 8 12
0 13 -228856 -1 0;
#X obj 79 389 cnv 17 3 65 empty \$0-pddp.cnv.let.0 0 5 9 0 16 -228856
-162280 0;
#X text 2 23 transposes a chord;
#X obj 210 230 chord-transpose 5;
#X text 123 81 Transposes a chord by a number of semitones.;
#X msg 210 126 60 64 67;
#X text 169 310 - list that is interpreted as a chord.;
#X text 169 388 - transposed version of the incoming chord.;
#X obj 7 506 pddp/pddplink https://github.com/angelfaraldo/gspd;
#X text 335 506 angelfaraldo@gmail.com \, 2015-2017;
#X connect 6 0 8 0;
#X connect 7 0 17 0;
#X connect 8 0 7 0;
#X connect 8 1 17 1;
#X connect 17 0 12 0;
#X connect 19 0 7 0;
