#N canvas 431 23 826 751 10;
#X obj 202 259 pack;
#X obj 212 238 t b f;
#X floatatom 212 221 5 0 0 0 - - -, f 5;
#X obj 145 703 noteout;
#X obj 77 679 print;
#X obj 202 147 tabread chord-base;
#X text 200 7 base chord-type;
#X obj 212 183 hradio 15 1 0 8 empty empty empty 0 -8 0 10 -262144
-1 -1 1;
#X obj 212 201 + 1;
#X obj 202 23 vradio 15 1 0 8 empty empty empty 0 -8 0 10 -262144 -1
-1 0;
#X text 221 98 sus2;
#X text 221 83 sus4;
#X text 221 68 aug;
#X text 221 53 dim;
#X text 221 38 min;
#X text 221 23 maj;
#X text 319 38 (type^tension)+spread;
#X floatatom 314 164 5 0 0 0 - - -, f 5;
#X obj 202 279 pow;
#X text 221 113 dom7;
#N canvas 0 22 560 562 read 0;
#X text 16 13 parameters that we will control from a gui object \,
represeinting a chord...;
#X text 13 73 2) Number of Notes. Somehow associated to the previous
one \, but not exactly., f 70;
#X text 29 158 3) Inversion. This could be done with the chord-foldover
object. Ideally a 2D control for register and range., f 70;
#X text 13 53 1) Chord-Type. It could be associated to rotation of
a circle., f 70;
#X text 189 198 (root does not need to be stored);
#X text 24 227 que la reducción en número de notas se produca a posteriori
\, ya que es una regla sencilla;
#X restore 366 82 pd read;
#N canvas 0 22 450 300 loadbang 0;
#X obj 9 69 table chord-base 10;
#X obj 10 48 tabsetv chord-base;
#X msg 10 27 2 3 5 6 7 11;
#X obj 10 5 loadbang;
#X connect 2 0 1 0;
#X connect 3 0 2 0;
#X restore 366 102 pd loadbang;
#X obj 202 397 + 0;
#X floatatom 224 296 5 0 0 0 - - -, f 5;
#X obj 216 335 hradio 15 1 0 6 empty empty empty 0 -8 0 10 -262144
-1 -1 1;
#X obj 216 375 t b f;
#N canvas 0 22 450 300 spread 0;
#X obj 7 47 pow;
#X msg 7 26 10 \$1;
#X obj 7 68 sel 1;
#X msg 7 89 0;
#X obj 7 6 inlet;
#X obj 34 119 outlet;
#X connect 0 0 2 0;
#X connect 1 0 0 0;
#X connect 2 0 3 0;
#X connect 2 1 5 0;
#X connect 3 0 5 0;
#X connect 4 0 1 0;
#X restore 216 355 pd spread;
#X text 349 354 chord spread;
#X text 335 182 chord expansion;
#X msg 100 558 1, f 4;
#X msg 16 557 -1, f 4;
#X obj 148 594 chord-foldover;
#X obj 202 480 t b l;
#X obj 16 536 until;
#X obj 61 516 moses 1;
#X obj 16 515 abs;
#X obj 100 536 until;
#X obj 202 418 int;
#X obj 16 471 f;
#X msg 61 557 0;
#X obj -2 137 r range;
#X floatatom 57 223 5 0 0 0 - - -, f 5;
#X obj 127 616 list;
#X obj 84 609 bng 15 250 50 0 empty empty empty 17 7 0 10 -262144 -1
-1;
#X obj 28 605 tgl 15 0 empty empty empty 17 7 0 10 -262144 -1 -1 0
1;
#X obj 59 245 t b f;
#X floatatom 102 444 5 0 0 0 - - -, f 5;
#X obj 16 494 moses 0;
#X obj -2 167 hradio 15 1 0 13 empty empty empty 0 -8 0 10 -262144
-1 -1 2;
#X obj 57 199 - 6;
#X text 91 151 v;
#X obj 145 680 makenote 100 250;
#X obj 25 629 metro 251;
#X msg 267 508 0;
#X msg 307 508 2;
#X msg 337 508 4;
#X msg 367 508 5;
#X msg 397 508 7;
#X msg 427 508 9;
#X msg 457 508 11;
#X obj 333 553 + 55;
#X text 364 553 root;
#X obj 229 573 chord-transpose 55;
#X floatatom 237 406 12 0 0 0 - - -, f 12;
#X msg 285 437 read ./chord-types3.txt;
#X obj 284 486 print;
#X obj 202 457 cyclone/coll chord-types3.txt;
#C restore;
#X msg 484 394 0 4 7';
#X obj 145 658 vdrip;
#X connect 0 0 18 0;
#X connect 1 0 0 0;
#X connect 1 1 0 1;
#X connect 2 0 1 0;
#X connect 5 0 0 0;
#X connect 5 0 17 0;
#X connect 7 0 8 0;
#X connect 8 0 2 0;
#X connect 9 0 5 0;
#X connect 18 0 22 0;
#X connect 18 0 23 0;
#X connect 22 0 37 0;
#X connect 24 0 26 0;
#X connect 25 0 22 0;
#X connect 25 1 22 1;
#X connect 26 0 25 0;
#X connect 29 0 31 0;
#X connect 30 0 31 0;
#X connect 31 0 42 1;
#X connect 32 0 38 0;
#X connect 32 1 62 0;
#X connect 33 0 30 0;
#X connect 34 0 39 0;
#X connect 34 1 36 0;
#X connect 35 0 33 0;
#X connect 36 0 29 0;
#X connect 37 0 63 0;
#X connect 37 0 66 0;
#X connect 38 0 47 0;
#X connect 39 0 31 0;
#X connect 40 0 48 0;
#X connect 41 0 45 0;
#X connect 42 0 4 0;
#X connect 42 0 68 0;
#X connect 43 0 42 0;
#X connect 44 0 52 0;
#X connect 45 0 24 0;
#X connect 45 1 38 1;
#X connect 47 0 35 0;
#X connect 47 1 34 0;
#X connect 48 0 49 0;
#X connect 49 0 41 0;
#X connect 51 0 3 0;
#X connect 51 1 3 1;
#X connect 52 0 43 0;
#X connect 53 0 60 0;
#X connect 54 0 60 0;
#X connect 55 0 60 0;
#X connect 56 0 60 0;
#X connect 57 0 60 0;
#X connect 58 0 60 0;
#X connect 59 0 60 0;
#X connect 60 0 62 1;
#X connect 62 0 31 1;
#X connect 64 0 66 0;
#X connect 66 0 32 0;
#X connect 66 0 65 0;
#X connect 67 0 66 0;
#X connect 68 0 51 0;
