#N canvas 235 181 554 543 10;
#X obj 1 0 cnv 15 552 40 empty \$0-pddp.cnv.header chord-autorotate
3 12 0 18 -204280 -1 0;
#X obj 1 302 cnv 3 550 3 empty \$0-pddp.cnv.inlets inlets 8 12 0 13
-228856 -1 0;
#X obj 1 380 cnv 3 550 3 empty \$0-pddp.cnv.outlets outlets 8 12 0
13 -228856 -1 0;
#X obj 79 311 cnv 17 3 65 empty \$0-pddp.cnv.let.0 0 5 9 0 16 -228856
-162280 0;
#X text 299 192 see also:;
#X text 99 310 list;
#X text 99 388 lists;
#X obj 99 201 print;
#X text 96 85 rotates the elements of a list \, assuming this contains
numbers representing notes of a chord. Lower notes are transposed one
octave higher when shifted to the end of the list.;
#X msg 99 152 40 41 42 45;
#X obj 99 178 chord-autorotate;
#X text 2 23 outputs all rotations (i.e. inversions) of an incoming
chord;
#X text 169 388 - all rotations of an incoming chord.;
#X text 169 310 list (supposedly a chord).;
#X obj 1 505 cnv 15 552 21 empty \$0-pddp.cnv.footer empty 20 12 0
14 -228856 -66577 0;
#X obj 1 458 cnv 3 550 3 empty \$0-pddp.cnv.argument arguments 8 12
0 13 -228856 -1 0;
#X obj 79 389 cnv 17 3 65 empty \$0-pddp.cnv.let.0 0 5 9 0 16 -228856
-162280 0;
#X obj 360 192 pddp/helplink list-autorotate;
#X obj 360 207 pddp/helplink chord-foldover;
#X obj 7 506 https://github.com/angelfaraldo/gspd;
#X text 335 506 angelfaraldo@gmail.com \, 2015-2017;
#X connect 9 0 10 0;
#X connect 10 0 7 0;
