#N canvas 0 23 555 546 10;
#X obj 1 0 cnv 15 552 40 empty \$0-pddp.cnv.header chord-unique 3 12
0 18 -204280 -1 0;
#X obj 1 302 cnv 3 550 3 empty \$0-pddp.cnv.inlets inlets 8 12 0 13
-228856 -1 0;
#X obj 1 380 cnv 3 550 3 empty \$0-pddp.cnv.outlets outlets 8 12 0
13 -228856 -1 0;
#X obj 79 311 cnv 17 3 65 empty \$0-pddp.cnv.let.0 0 5 9 0 16 -228856
-162280 0;
#X text 99 310 list;
#X text 99 388 list;
#X text 378 183 see also:;
#X obj 167 233 print;
#X obj 1 505 cnv 15 552 21 empty \$0-pddp.cnv.footer empty 20 12 0
14 -228856 -66577 0;
#X obj 1 458 cnv 3 550 3 empty \$0-pddp.cnv.argument arguments 8 12
0 13 -228856 -1 0;
#X obj 79 389 cnv 17 3 65 empty \$0-pddp.cnv.let.0 0 5 9 0 16 -228856
-162280 0;
#X text 2 23 removes duplicate classes from a chord set;
#X obj 167 208 chord-unique;
#X text 98 65 removes duplicate classes of an incoming chord set \,
and returns an ordered chord without higher octaves doublings. It should
always keep the lowest note of each class.;
#X msg 167 154 0 60 64 67;
#X msg 177 178 36 48 60 64 67 76 55;
#X text 169 310 - list that is interpreted as a chord with midi notes.
;
#X text 169 388 - chord without duplicate notes.;
#X obj 380 203 pddp/helplink list-unique;
#X obj 382 216 pddp/helplink pcs-unique;
#X text 335 506 angelfaraldo@gmail.com \, 2015-2017;
#X obj 7 506 pddp/pddplink https://github.com/angelfaraldo/gspd;
#X connect 12 0 7 0;
#X connect 14 0 12 0;
#X connect 15 0 12 0;
