#N canvas 0 23 516 574 10;
#X obj 19 324 list;
#X obj 19 424 list prepend;
#X obj 152 182 list length;
#X obj 152 204 - 1;
#X obj 125 159 t l l;
#X obj 19 348 list split 1;
#X obj 19 373 + 12;
#X obj 104 274 list;
#X obj 178 372 list prepend;
#X obj 178 299 list split 1;
#X obj 247 323 - 12;
#X obj 39 22 inlet;
#X obj 66 161 sel 1 0;
#X obj 178 526 outlet;
#X obj 39 115 sel 0;
#X obj 66 140 > 0;
#X obj 144 480 list;
#X obj 39 43 route float;
#X obj 102 87 print chord-foldover;
#X msg 102 64 left inlet input must be one of the following: [-1 0
1];
#X obj 125 114 inlet;
#X obj 125 136 zexy/sort;
#X connect 0 0 5 0;
#X connect 1 0 0 1;
#X connect 1 0 7 1;
#X connect 1 0 13 0;
#X connect 1 0 16 1;
#X connect 2 0 3 0;
#X connect 3 0 9 1;
#X connect 4 0 0 1;
#X connect 4 0 7 1;
#X connect 4 0 16 1;
#X connect 4 1 2 0;
#X connect 5 0 6 0;
#X connect 5 1 1 1;
#X connect 6 0 1 0;
#X connect 7 0 9 0;
#X connect 8 0 7 1;
#X connect 8 0 0 1;
#X connect 8 0 13 0;
#X connect 8 0 16 1;
#X connect 9 0 8 0;
#X connect 9 1 10 0;
#X connect 10 0 8 1;
#X connect 11 0 17 0;
#X connect 12 0 0 0;
#X connect 12 1 7 0;
#X connect 14 0 16 0;
#X connect 14 1 15 0;
#X connect 15 0 12 0;
#X connect 16 0 13 0;
#X connect 17 0 14 0;
#X connect 17 1 19 0;
#X connect 19 0 18 0;
#X connect 20 0 21 0;
#X connect 21 0 4 0;
