#N canvas 5 23 555 545 10;
#X obj 1 0 cnv 15 552 40 empty \$0-pddp.cnv.header chord-foldover 3
12 0 18 -204280 -1 0;
#X obj 1 302 cnv 3 550 3 empty \$0-pddp.cnv.inlets inlets 8 12 0 13
-228856 -1 0;
#X obj 1 380 cnv 3 550 3 empty \$0-pddp.cnv.outlets outlets 8 12 0
13 -228856 -1 0;
#X obj 79 311 cnv 17 3 65 empty \$0-pddp.cnv.let.0 0 5 9 0 16 -228856
-162280 0;
#X text 379 167 see also:;
#X text 99 388 lists;
#X obj 1 505 cnv 15 552 21 empty \$0-pddp.cnv.footer empty 20 12 0
14 -228856 -66577 0;
#X obj 1 458 cnv 3 550 3 empty \$0-pddp.cnv.argument arguments 8 12
0 13 -228856 -1 0;
#X obj 79 389 cnv 17 3 65 empty \$0-pddp.cnv.let.0 0 5 9 0 16 -228856
-162280 0;
#X obj 45 263 print;
#X obj 45 240 chord-foldover;
#X msg 78 153 0;
#X msg 45 153 -1;
#X msg 109 153 1;
#X msg 126 214 60 64 67 70;
#X obj 126 191 loadbang;
#X text 139 152 fold downwards or upwards;
#X text 204 213 chord to be manipulated;
#X obj 79 341 cnv 17 3 20 empty \$0-pddp.cnv.let.0 0 5 9 0 16 -228856
-162280 0;
#X text 99 340 list;
#X text 169 340 list (supposedly a chord).;
#X text 99 310 float;
#X text 169 310 float specifying direction of rotation.;
#X text 169 388 - rotated list.;
#X text 2 23 rotates a chord up or down with octave changes.;
#X obj 382 181 pddp/helplink chord-autorotate;
#X text 42 81 Folds the elements of a chord-list upwards or downwards.
Notes on one extreme are shifted and transposed accordingly into the
other extreme.;
#X obj 7 506 pddp/pddplink https://github.com/angelfaraldo/gspd;
#X text 335 506 angelfaraldo@gmail.com \, 2015-2017;
#X connect 10 0 9 0;
#X connect 11 0 10 0;
#X connect 12 0 10 0;
#X connect 13 0 10 0;
#X connect 14 0 10 1;
#X connect 15 0 14 0;
