#N canvas 125 404 554 537 10;
#X obj 94 179 \$1;
#X obj 9 331 random 1000;
#X obj 102 157 loadbang;
#X obj 94 200 sel 0;
#X obj 72 310 + 1;
#X obj 82 407 outlet;
#X obj 9 135 inlet;
#X msg 97 248 1 \$1;
#X obj 97 269 /;
#X obj 82 384 * 0.001;
#X obj 94 136 inlet;
#X obj 121 221 moses 1;
#X obj 160 265 print ERROR;
#X msg 160 243 a.rand step-size must be in range (0 < value <= 0.5)
;
#X text 8 44 <argument/2nd inlet>: random step-size. Default = 0.001
;
#X text 8 104 angelfaraldo@gmail.com \, 2014;
#X text 8 64 Taken from Dodge and Jerse: "Computer Music \, Synthesis
\, Composition and Performance.";
#X obj 72 290 * 2;
#X obj 82 361 -;
#X text 8 24 Random number generator in range -1 to -1;
#X text 8 4 UNIFORM DISTRIBUTION -1 to 1;
#X connect 0 0 3 0;
#X connect 1 0 18 0;
#X connect 2 0 0 0;
#X connect 3 1 11 0;
#X connect 4 0 1 1;
#X connect 6 0 1 0;
#X connect 7 0 8 0;
#X connect 8 0 17 0;
#X connect 8 0 18 1;
#X connect 9 0 5 0;
#X connect 10 0 0 0;
#X connect 11 0 7 0;
#X connect 11 0 9 1;
#X connect 11 1 13 0;
#X connect 13 0 12 0;
#X connect 17 0 4 0;
#X connect 18 0 9 0;
