#N struct ysis float x float y float heigth float vis;
#N struct xsis float x float y float length;
#N struct area float x float y float size;
#N canvas 199 402 777 412 10;
#N canvas 461 32 328 329 data 1;
#X scalar ysis 160 10 300 0 \;;
#X scalar xsis 10 160 300 \;;
#X scalar area 10 10 300 \;;
#X restore 15 13 pd data;
#N canvas 531 148 461 310 area 0;
#X obj 14 15 struct area float x float y float size;
#X obj 14 41 drawpolygon -x 1 3 0 0 size 0 size size 0 size 0 0;
#X restore 15 33 pd area;
#N canvas 531 148 461 310 xsis 0;
#X obj 14 15 struct xsis float x float y float length;
#X obj 16 41 drawpolygon -x 1 1 0 0 length 0;
#X restore 15 53 pd xsis;
#N canvas 531 148 461 310 ysis 0;
#X obj 14 15 struct ysis float x float y float heigth float vis;
#X obj 16 41 drawpolygon -x 1 1 0 0 0 heigth;
#X restore 15 73 pd ysis;
#N canvas 499 37 461 310 point 0;
#X obj 14 15 struct point float x float y float c float t;
#X obj 14 40 outlet;
#X obj 57 40 filledpolygon c c 1 0 0 t 0 t t 0 t 0 0;
#X connect 0 0 1 0;
#X restore 203 13 pd point;
#X obj 665 333 r \$0-load;
#X obj 572 136 v size;
#X floatatom 505 253 5 0 0 0 - - -, f 5;
#X obj 572 157 t b b f f b;
#X obj 572 115 until;
#X obj 203 34 route click;
#X obj 203 56 unpack p f;
#X obj 203 120 get point x y c t;
#X obj 203 96 t p p, f 19;
#X obj 387 195 set point c;
#X floatatom 260 78 5 0 0 0 - - -, f 5;
#X obj 490 312 + 10;
#X obj 530 312 + 10;
#X obj 548 355 append point x y t c;
#X obj 604 314 * 0.02;
#N canvas 0 22 409 495 grid 0;
#X obj 65 191 pointer;
#X obj 18 113 t b b b f f;
#X obj 65 212 s \$0-load;
#X msg 65 135 traverse pd-data \, bang;
#X msg 81 157 \; pd-data clear;
#X obj 295 304 r \$0-load;
#X obj 166 326 append area x y size;
#X obj 45 94 value size;
#X msg 166 303 10 10 \$1;
#X obj 49 235 v size;
#X obj 18 13 loadbang;
#X obj 49 338 * 0.5;
#X obj 76 423 append xsis x y length, f 37;
#X obj 49 358 + 10;
#X msg 49 378 10 \$1;
#X obj 49 446 append ysis y x heigth, f 45;
#X obj 18 53 t b b;
#X msg 45 74 300;
#X obj 49 399 t l l;
#X obj 49 261 t f f f, f 20;
#X obj 25 33 inlet;
#X connect 0 0 2 0;
#X connect 1 2 9 0;
#X connect 1 3 3 0;
#X connect 1 4 4 0;
#X connect 3 0 0 0;
#X connect 4 0 0 0;
#X connect 5 0 6 3;
#X connect 5 0 12 3;
#X connect 5 0 15 3;
#X connect 8 0 6 0;
#X connect 9 0 19 0;
#X connect 10 0 16 0;
#X connect 11 0 13 0;
#X connect 13 0 14 0;
#X connect 14 0 18 0;
#X connect 16 0 1 0;
#X connect 16 1 17 0;
#X connect 17 0 7 0;
#X connect 18 0 15 0;
#X connect 18 1 12 0;
#X connect 19 0 11 0;
#X connect 19 1 12 2;
#X connect 19 1 15 2;
#X connect 19 2 8 0;
#X connect 20 0 16 0;
#X restore 15 113 pd grid;
#X obj 15 94 bng 15 250 50 0 empty empty empty 17 7 0 10 -262144 -1
-1;
#X msg 674 240 5;
#X obj 203 144 pack 0 0 0 0, f 17;
#X obj 203 167 print data;
#X obj 295 304 set point c;
#X obj 318 222 pointer;
#X obj 314 120 t p b p, f 10;
#X obj 314 186 t b b;
#X msg 295 279 5;
#X msg 387 172 900;
#X msg 572 93 3;
#X obj 321 24 print;
#X msg 46 176 112 200;
#X obj 55 285 print A;
#X obj 155 285 print B;
#X obj 51 231 list2int;
#X obj 161 231 list2int;
#X obj 529 225 randseed;
#X obj 554 249 randseed;
#X connect 4 0 10 0;
#X connect 5 0 18 4;
#X connect 6 0 8 0;
#X connect 8 0 38 0;
#X connect 8 1 39 0;
#X connect 8 2 38 1;
#X connect 8 2 39 1;
#X connect 8 3 19 0;
#X connect 8 4 22 0;
#X connect 9 0 6 0;
#X connect 10 0 11 0;
#X connect 10 1 32 0;
#X connect 11 0 13 0;
#X connect 11 1 15 0;
#X connect 12 0 23 0;
#X connect 12 1 23 1;
#X connect 12 2 23 2;
#X connect 12 3 23 3;
#X connect 13 0 12 0;
#X connect 13 1 27 0;
#X connect 16 0 18 0;
#X connect 17 0 18 1;
#X connect 19 0 18 2;
#X connect 21 0 20 0;
#X connect 22 0 18 3;
#X connect 23 0 24 0;
#X connect 26 0 25 1;
#X connect 27 0 26 1;
#X connect 27 1 30 0;
#X connect 27 1 28 0;
#X connect 27 2 14 1;
#X connect 28 0 29 0;
#X connect 28 1 26 0;
#X connect 29 0 25 0;
#X connect 30 0 14 0;
#X connect 31 0 9 0;
#X connect 33 0 36 0;
#X connect 33 0 37 0;
#X connect 36 0 34 0;
#X connect 38 0 7 0;
#X connect 38 0 16 0;
#X connect 39 0 17 0;
