#N struct 1008-pointer float x float y array 1008-array1 1008-icon
;
#N struct 1008-icon float x float y;
#N canvas 307 23 553 575 10;
#X obj 277 132 pointer;
#X obj 193 14 loadbang;
#X obj 193 34 \$0;
#X obj 277 153 s \$0-loadpointer;
#X obj 415 211 r \$0-loadpointer;
#X msg 277 76 traverse pd-\$1-data \, bang;
#X msg 304 97 \; pd-\$1-data clear;
#X obj 193 357 until;
#X msg 193 380 next;
#X obj 193 433 t b p, f 6;
#X obj 193 336 t b f, f 7;
#X msg 232 380 traverse pd-\$1-data;
#X obj 220 312 append \$0-pointer x y, f 33;
#X obj 281 244 append \$0-vline pos;
#X obj 248 267 append \$0-hline pos, f 26;
#X msg 248 156 11;
#X obj 248 198 t f f, f 6;
#N canvas 350 23 277 84 vline 0;
#X obj 12 11 struct \$0-vline float pos;
#X obj 12 34 drawpolygon 979 1 pos 0 pos 100;
#X restore 122 15 pd vline;
#N canvas 411 119 277 84 hline 0;
#X obj 12 11 struct \$0-hline float pos;
#X obj 12 34 drawpolygon 979 1 0 pos 100 pos;
#X restore 122 35 pd hline;
#N canvas 78 314 404 140 pointer 0;
#X obj 10 8 struct \$0-pointer float x float y array \$0-array1 \$0-icon
;
#X obj 9 33 plot \$0-array1 0 0;
#X restore 122 75 pd pointer;
#X obj 193 314 \$0;
#N canvas 87 221 376 410 \$0-data 0;
#X scalar 1008-pointer 0 100 \; 0 0 \; \;;
#X coords 0 0 100 100 100 100 2 100 100;
#X restore 10 10 pd \$0-data;
#N canvas 55 67 373 97 icon 0;
#X obj 5 8 struct \$0-icon float x float y;
#X obj 7 32 drawpolygon 0 2 -5 0 5 0;
#X obj 7 52 drawpolygon 0 2 0 -5 0 5;
#X restore 122 55 pd icon;
#X obj 193 412 pointer \$0-pointer;
#X obj 61 454 element \$0-pointer \$0-array1;
#X obj 61 475 get \$0-icon x y, f 16;
#X obj 61 414 metro 100;
#X msg 61 434 0;
#X obj 193 54 t b b b f f, f 19;
#X obj 248 221 * 10;
#X obj 281 221 * 10;
#X obj 61 394 loadbang;
#X obj 154 517 clip 0 100;
#X obj 154 496 * -1;
#X obj 61 517 clip 0 100;
#X obj 154 538 outlet;
#X obj 61 539 outlet;
#X msg 220 291 0 100;
#X obj 248 177 ../vanilla/forloop 0;
#X connect 0 0 3 0;
#X connect 1 0 2 0;
#X connect 2 0 28 0;
#X connect 4 0 13 1;
#X connect 4 0 12 2;
#X connect 4 0 14 1;
#X connect 5 0 0 0;
#X connect 6 0 0 0;
#X connect 7 0 8 0;
#X connect 8 0 23 0;
#X connect 9 0 7 1;
#X connect 9 1 24 1;
#X connect 10 0 7 0;
#X connect 10 1 11 0;
#X connect 11 0 23 0;
#X connect 15 0 38 0;
#X connect 16 0 29 0;
#X connect 16 1 30 0;
#X connect 20 0 10 0;
#X connect 23 0 9 0;
#X connect 24 0 25 0;
#X connect 25 0 34 0;
#X connect 25 1 33 0;
#X connect 26 0 27 0;
#X connect 27 0 24 0;
#X connect 28 0 20 0;
#X connect 28 1 37 0;
#X connect 28 2 15 0;
#X connect 28 3 5 0;
#X connect 28 4 6 0;
#X connect 29 0 14 0;
#X connect 30 0 13 0;
#X connect 31 0 26 0;
#X connect 32 0 35 0;
#X connect 33 0 32 0;
#X connect 34 0 36 0;
#X connect 37 0 12 0;
#X connect 38 0 16 0;
#X coords 0 -1 1 1 100 100 2 10 10;
