#N canvas 3 23 555 545 10;
#X obj 1 0 cnv 15 552 40 empty \$0-pddp.cnv.header key-profiles 3 12
0 18 -204280 -1 0;
#X obj 1 302 cnv 3 550 3 empty \$0-pddp.cnv.inlets inlets 8 12 0 13
-228856 -1 0;
#X obj 1 380 cnv 3 550 3 empty \$0-pddp.cnv.outlets outlets 8 12 0
13 -228856 -1 0;
#X obj 79 311 cnv 17 3 65 empty \$0-pddp.cnv.let.0 0 5 9 0 16 -228856
-162280 0;
#X obj 1 505 cnv 15 552 21 empty \$0-pddp.cnv.footer empty 20 12 0
14 -228856 -66577 0;
#X obj 1 458 cnv 3 550 3 empty \$0-pddp.cnv.argument arguments 8 12
0 13 -228856 -1 0;
#X obj 79 389 cnv 17 3 65 empty \$0-pddp.cnv.let.0 0 5 9 0 16 -228856
-162280 0;
#X text 169 310 - symbol that is interpreted as a key name;
#X text 99 310 symbol;
#X text 2 23 loads different key profiles for key estimation;
#X obj 202 205 key-profiles krumhansl-major;
#X obj 233 169 bng 15 250 50 0 empty empty empty 17 7 0 10 -262144
-1 -1;
#X text 99 388 list;
#X text 169 388 - 12-element list representing a tonality profile.
These are contained in the file key-profiles.txt;
#X text 99 330 bang;
#X text 169 330 - output last key profile.;
#X obj 202 229 print profile;
#X msg 202 67 krumhansl-major;
#X msg 212 92 krumhansl-minor;
#X msg 222 118 temperley-major;
#X msg 232 143 bla bla;
#X text 287 142 error;
#X text 104 256 (for a list of all profiles available \, check the
file key-profiles.txt);
#X text 169 470 default key-profile;
#X text 99 470 symbol;
#X obj 7 506 pddp/pddplink https://github.com/angelfaraldo/gspd;
#X text 335 506 angelfaraldo@gmail.com \, 2015-2017;
#X connect 10 0 16 0;
#X connect 11 0 10 0;
#X connect 17 0 10 0;
#X connect 18 0 10 0;
#X connect 19 0 10 0;
#X connect 20 0 10 0;
