#N canvas 3 23 555 543 10;
#X obj 1 0 cnv 15 552 40 empty \$0-pddp.cnv.header key2pc 3 12 0 18
-204280 -1 0;
#X obj 1 302 cnv 3 550 3 empty \$0-pddp.cnv.inlets inlets 8 12 0 13
-228856 -1 0;
#X obj 1 380 cnv 3 550 3 empty \$0-pddp.cnv.outlets outlets 8 12 0
13 -228856 -1 0;
#X obj 79 311 cnv 17 3 65 empty \$0-pddp.cnv.let.0 0 5 9 0 16 -228856
-162280 0;
#X obj 1 505 cnv 15 552 21 empty \$0-pddp.cnv.footer empty 20 12 0
14 -228856 -66577 0;
#X obj 1 458 cnv 3 550 3 empty \$0-pddp.cnv.argument arguments 8 12
0 13 -228856 -1 0;
#X obj 79 389 cnv 17 3 65 empty \$0-pddp.cnv.let.0 0 5 9 0 16 -228856
-162280 0;
#X text 99 388 float;
#X text 2 23 converts a key symbol into pc-set and mode;
#X floatatom 226 196 5 0 0 0 - - -, f 5;
#X floatatom 193 223 5 0 0 0 - - -, f 5;
#X msg 203 99 C#;
#X text 262 195 modality (0 = major \, 1 = minor);
#X msg 213 119 Bbm;
#X msg 193 79 Gbm;
#X obj 193 175 key2pc;
#X text 232 223 pitch class (0-11);
#X text 169 310 - symbol that is interpreted as a key name;
#X obj 79 421 cnv 17 3 12 empty \$0-pddp.cnv.let.0 1 5 9 0 16 -228856
-162280 0;
#X text 99 420 boolean;
#X text 169 388 - pitch class of the tonic of the key.;
#X text 169 418 - modality as boolean (0=major \, 1=minor).;
#X text 99 310 symbol;
#X obj 193 152 cyclone/tosymbol;
#X obj 7 506 pddp/pddplink https://github.com/angelfaraldo/gspd;
#X text 335 506 angelfaraldo@gmail.com \, 2015-2017;
#X connect 11 0 23 0;
#X connect 13 0 23 0;
#X connect 14 0 23 0;
#X connect 15 0 10 0;
#X connect 15 1 9 0;
#X connect 23 0 15 0;
