#N canvas 814 126 228 190 10;
#X msg 110 74 symbol;
#X obj 17 11 inlet;
#X obj 17 140 outlet;
#X obj 17 118 cyclone/fromsymbol;
#X obj 17 95 zexy/list2symbol;
#X obj 110 53 loadbang;
#X connect 0 0 4 1;
#X connect 1 0 4 0;
#X connect 3 0 2 0;
#X connect 4 0 3 0;
#X connect 5 0 0 0;
