#N canvas 513 243 450 436 10;
#X obj 29 9 inlet;
#X obj 29 281 outlet;
#X obj 29 104 zexy/drip 0;
#X obj 208 105 zexy/drip 0;
#X obj 217 62 inlet;
#X obj 29 126 *, f 26;
#X obj 29 32 t l b b, f 38;
#X obj 29 76 t l l, f 13;
#X obj 117 104 list length;
#X obj 29 147 add2list prepend, f 38;
#X obj 29 170 t l l, f 14;
#X obj 29 217 ==;
#X obj 29 239 sel 1;
#X obj 29 194 list length;
#X obj 208 84 gspd/vlist;
#X obj 29 260 gspd/vlist, f 14;
#X obj 29 53 gspd/vlist;
#X connect 0 0 6 0;
#X connect 2 0 5 0;
#X connect 3 0 5 1;
#X connect 4 0 14 0;
#X connect 5 0 9 0;
#X connect 6 0 16 0;
#X connect 6 1 14 0;
#X connect 6 2 9 1;
#X connect 7 0 2 0;
#X connect 7 1 8 0;
#X connect 8 0 11 1;
#X connect 9 0 10 0;
#X connect 10 0 13 0;
#X connect 10 1 15 1;
#X connect 11 0 12 0;
#X connect 12 0 15 0;
#X connect 13 0 11 0;
#X connect 14 0 3 0;
#X connect 15 0 1 0;
#X connect 16 0 7 0;
