#N canvas 1 23 555 544 10;
#X obj 1 0 cnv 15 552 40 empty \$0-pddp.cnv.header list-popfirst 3
12 0 18 -204280 -1 0;
#X obj 1 302 cnv 3 550 3 empty \$0-pddp.cnv.inlets inlets 8 12 0 13
-228856 -1 0;
#X obj 1 380 cnv 3 550 3 empty \$0-pddp.cnv.outlets outlets 8 12 0
13 -228856 -1 0;
#X obj 79 311 cnv 17 3 65 empty \$0-pddp.cnv.let.0 0 5 9 0 16 -228856
-162280 0;
#X obj 1 505 cnv 15 552 21 empty \$0-pddp.cnv.footer empty 20 12 0
14 -228856 -66577 0;
#X obj 1 458 cnv 3 550 3 empty \$0-pddp.cnv.argument arguments 8 12
0 13 -228856 -1 0;
#X obj 79 389 cnv 17 3 65 empty \$0-pddp.cnv.let.0 0 5 9 0 16 -228856
-162280 0;
#X obj 161 226 print;
#X obj 161 174 bng 15 250 50 0 empty empty empty 17 7 0 10 -262144
-1 -1;
#X obj 236 224 print done!;
#X text 115 104 Pop (return and delete) the first element of a list.
It sends a bang on the right outlet when list is empty.;
#X obj 161 201 list-popfirst;
#X msg 236 174 1 2 3 4 5 5 5 5 5 5 5 3 2 1;
#X text 2 23 pops the first element of a list;
#X text 99 388 float;
#X text 169 388 - first element of stored list (after which is removed)
;
#X text 99 310 bang;
#X text 169 310 - pop next first element.;
#X obj 79 341 cnv 17 3 10 empty \$0-pddp.cnv.let.0 1 5 9 0 16 -228856
-162280 0;
#X text 99 341 list;
#X text 169 341 - a list of numbers.;
#X obj 79 421 cnv 17 3 10 empty \$0-pddp.cnv.let.0 1 5 9 0 16 -228856
-162280 0;
#X text 99 421 bang;
#X text 169 421 - bang when list is done.;
#X obj 7 506 pddp/pddplink https://github.com/angelfaraldo/gspd;
#X text 335 506 angelfaraldo@gmail.com \, 2015-2017;
#X connect 8 0 11 0;
#X connect 11 0 7 0;
#X connect 11 1 9 0;
#X connect 12 0 11 1;
