#N canvas 0 22 450 300 10;
#X msg 114 84 0;
#X obj 86 119 + 0;
#X obj 116 119 f 0;
#X obj 170 98 list length;
#X obj 65 184 list;
#X obj 25 119 f 0;
#X obj 55 119 + 1;
#X obj 25 154 sel;
#X obj 59 82 t b f;
#X obj 59 38 t l b l, f 19;
#X obj 170 120 - 1;
#X obj 59 16 inlet;
#X obj 65 207 outlet;
#X obj 59 60 vdrip;
#X connect 0 0 1 1;
#X connect 0 0 5 1;
#X connect 1 0 2 0;
#X connect 1 0 4 1;
#X connect 2 0 1 1;
#X connect 3 0 10 0;
#X connect 4 0 12 0;
#X connect 5 0 6 0;
#X connect 5 0 7 0;
#X connect 6 0 5 1;
#X connect 7 0 4 0;
#X connect 8 0 5 0;
#X connect 8 1 1 0;
#X connect 9 0 13 0;
#X connect 9 1 0 0;
#X connect 9 2 3 0;
#X connect 10 0 7 1;
#X connect 11 0 9 0;
#X connect 13 0 8 0;
