#N canvas 845 45 393 404 10;
#X obj 17 11 inlet;
#X obj 17 77 makefilename %s;
#X obj 17 98 list fromsymbol;
#X obj 17 32 t l b, f 21;
#X obj 17 141 list tosymbol;
#X obj 52 362 print;
#X obj 134 233 print;
#X obj 104 170 list fromsymbol;
#X msg 204 135 0 1 2 3 4 5 6 7 8 9;
#X obj 17 55 vdrip;
#X obj 17 120 add2list prepend;
#X connect 0 0 3 0;
#X connect 1 0 2 0;
#X connect 2 0 10 0;
#X connect 3 0 9 0;
#X connect 3 1 10 1;
#X connect 4 0 6 0;
#X connect 7 0 6 0;
#X connect 8 0 3 0;
#X connect 9 0 1 0;
#X connect 10 0 4 0;
