#N canvas 196 23 555 543 10;
#X obj 1 0 cnv 15 552 40 empty \$0-pddp.cnv.header list2int 3 12 0
18 -204280 -1 0;
#X obj 1 302 cnv 3 550 3 empty \$0-pddp.cnv.inlets inlets 8 12 0 13
-228856 -1 0;
#X obj 1 380 cnv 3 550 3 empty \$0-pddp.cnv.outlets outlets 8 12 0
13 -228856 -1 0;
#X obj 79 311 cnv 17 3 65 empty \$0-pddp.cnv.let.0 0 5 9 0 16 -228856
-162280 0;
#X obj 1 505 cnv 15 552 21 empty \$0-pddp.cnv.footer empty 20 12 0
14 -228856 -66577 0;
#X obj 1 458 cnv 3 550 3 empty \$0-pddp.cnv.argument arguments 8 12
0 13 -228856 -1 0;
#X obj 79 389 cnv 17 3 65 empty \$0-pddp.cnv.let.0 0 5 9 0 16 -228856
-162280 0;
#X msg 152 143 1 2 3 4 5 5 5 5 5 5 5 3 2 1;
#X text 99 310 list;
#X text 169 310 - list of integers.;
#X floatatom 152 210 0 0 0 0 - - -;
#X text 99 388 int;
#X text 169 388 - int composed by the digits of an incoming list.;
#X msg 162 163 1 3 3 3 4;
#X text 2 23 converts a list of into a single integer;
#X text 143 119 converts numeric lists into a single interger;
#X obj 152 186 list2int;
#X obj 7 506 pddp/pddplink https://github.com/angelfaraldo/gspd;
#X text 335 506 angelfaraldo@gmail.com \, 2015-2017;
#X connect 7 0 16 0;
#X connect 13 0 16 0;
#X connect 16 0 10 0;
