#N canvas 192 22 676 699 10;
#X obj 180 -33 f;
#X msg 238 -184 -12;
#X obj 105 -129 list length;
#X obj 76 -129 + 1;
#X obj 46 -129 f 1;
#X obj 165 -254 t b f f;
#X obj 90 -107 ==;
#X obj 90 -86 sel 1;
#X msg 18 -160 1;
#X obj 180 -152 == -12;
#X obj 180 -129 sel 0 1;
#X obj 227 -55 + 1;
#X obj 206 -5 list prepend;
#X obj 297 -3 t l;
#X obj 224 -352 inlet;
#X obj 185 16 list;
#X obj 90 -64 t b b;
#X obj 185 38 list split 1;
#X obj 199 -55 f 0;
#X msg 211 -78 0;
#X obj 219 84 t l l;
#X obj 358 308 list;
#X obj 389 258 + 1;
#X obj 389 279 t b f;
#X obj 450 374 t l;
#X obj 383 351 list prepend;
#X obj 298 280 list length;
#X obj 242 153 t l l;
#X obj 272 280 + 1;
#X obj 242 280 f 1;
#X obj 283 305 ==;
#X obj 242 212 t b f;
#X obj 283 327 sel 1;
#X obj 283 378 list;
#X obj 611 235 outlet;
#X obj 283 398 outlet;
#X obj 280 -248 t l b;
#X obj 224 -331 t l l;
#X obj 224 -308 zexy/sort;
#X obj 329 -247 list-abs/list-unique;
#X obj 219 60 list-abs/list-math + 1;
#X obj 199 109 zexy/minmax;
#X obj 232 131 zexy/listfind;
#X obj 370 330 zexy/packel;
#X obj 242 191 vdrip;
#X obj 165 -275 vdrip;
#X connect 0 0 12 0;
#X connect 1 0 9 1;
#X connect 2 0 6 1;
#X connect 3 0 4 1;
#X connect 4 0 3 0;
#X connect 4 0 6 0;
#X connect 5 0 4 0;
#X connect 5 1 9 1;
#X connect 5 2 9 0;
#X connect 6 0 7 0;
#X connect 7 0 16 0;
#X connect 8 0 4 1;
#X connect 8 0 29 1;
#X connect 9 0 10 0;
#X connect 10 0 0 0;
#X connect 10 0 19 0;
#X connect 10 1 18 0;
#X connect 11 0 18 1;
#X connect 12 0 13 0;
#X connect 12 0 15 1;
#X connect 13 0 12 1;
#X connect 14 0 37 0;
#X connect 15 0 17 0;
#X connect 16 0 15 0;
#X connect 16 1 0 0;
#X connect 17 1 40 0;
#X connect 18 0 0 1;
#X connect 18 0 11 0;
#X connect 19 0 18 0;
#X connect 20 0 41 0;
#X connect 20 1 42 1;
#X connect 21 0 43 0;
#X connect 22 0 23 0;
#X connect 23 0 21 0;
#X connect 23 1 43 1;
#X connect 24 0 25 1;
#X connect 25 0 24 0;
#X connect 25 0 33 1;
#X connect 26 0 30 1;
#X connect 27 0 44 0;
#X connect 27 1 26 0;
#X connect 28 0 29 1;
#X connect 29 0 28 0;
#X connect 29 0 30 0;
#X connect 30 0 32 0;
#X connect 31 0 29 0;
#X connect 31 1 22 0;
#X connect 32 0 33 0;
#X connect 33 0 35 0;
#X connect 36 0 2 0;
#X connect 36 1 25 1;
#X connect 36 1 12 1;
#X connect 36 1 19 0;
#X connect 36 1 1 0;
#X connect 36 1 8 0;
#X connect 37 0 38 0;
#X connect 37 1 36 0;
#X connect 38 0 39 0;
#X connect 38 0 45 0;
#X connect 39 0 21 1;
#X connect 40 0 20 0;
#X connect 41 1 34 0;
#X connect 41 1 42 0;
#X connect 42 0 27 0;
#X connect 43 0 25 0;
#X connect 44 0 31 0;
#X connect 45 0 5 0;
