#N canvas 315 163 450 436 10;
#X obj 29 9 inlet;
#X obj 29 281 outlet;
#X obj 29 104 zexy/drip 0;
#X obj 208 105 zexy/drip 0;
#X obj 217 62 inlet;
#X obj 29 32 t l b b, f 38;
#X obj 29 76 t l l, f 13;
#X obj 117 104 list length;
#X obj 29 147 add2list prepend, f 38;
#X obj 29 170 t l l, f 14;
#X obj 29 217 ==;
#X obj 29 239 sel 1;
#X obj 29 194 list length;
#X obj 29 126 -, f 26;
#X obj 29 260 vlist, f 14;
#X obj 29 53 vlist;
#X obj 208 84 vlist;
#X connect 0 0 5 0;
#X connect 2 0 13 0;
#X connect 3 0 13 1;
#X connect 4 0 16 0;
#X connect 5 0 15 0;
#X connect 5 1 16 0;
#X connect 5 2 8 1;
#X connect 6 0 2 0;
#X connect 6 1 7 0;
#X connect 7 0 10 1;
#X connect 8 0 9 0;
#X connect 9 0 12 0;
#X connect 9 1 14 1;
#X connect 10 0 11 0;
#X connect 11 0 14 0;
#X connect 12 0 10 0;
#X connect 13 0 8 0;
#X connect 14 0 1 0;
#X connect 15 0 6 0;
#X connect 16 0 3 0;
