#N canvas 586 94 587 596 10;
#X obj 10 171 midirealtimein;
#X msg 10 256 1;
#X msg 39 256 0;
#X obj 10 195 sel 250 252 248;
#X obj 20 287 outlet;
#X obj 72 230 print;
#X connect 0 0 3 0;
#X connect 1 0 4 0;
#X connect 1 0 5 0;
#X connect 2 0 4 0;
#X connect 2 0 5 0;
#X connect 3 0 1 0;
#X connect 3 1 2 0;
