#N canvas 43 198 349 333 10;
#X obj 52 11 inlet;
#X obj 46 258 list;
#X obj 10 205 ==;
#X obj 10 224 sel 1;
#X obj 10 84 mod 12;
#X obj 10 105 t b f;
#X msg 71 106 1;
#X obj 10 160 f 1;
#X obj 40 160 + 1;
#X obj 211 170 list length;
#X obj 52 33 t l b l;
#X obj 46 280 outlet;
#X obj 67 160 add2list prepend;
#X obj 10 63 vdrip;
#X connect 0 0 10 0;
#X connect 1 0 11 0;
#X connect 2 0 3 0;
#X connect 3 0 1 0;
#X connect 4 0 5 0;
#X connect 5 0 7 0;
#X connect 5 1 12 0;
#X connect 6 0 7 1;
#X connect 7 0 8 0;
#X connect 7 0 2 0;
#X connect 8 0 7 1;
#X connect 9 0 2 1;
#X connect 10 0 13 0;
#X connect 10 1 6 0;
#X connect 10 1 12 1;
#X connect 10 2 9 0;
#X connect 12 0 1 1;
#X connect 13 0 4 0;
