#N canvas 5 23 418 276 10;
#X obj 36 5 inlet;
#X obj 3 82 t b l;
#X obj 30 141 + 1;
#X obj 3 163 list append;
#X msg 102 88 clear;
#X obj 150 33 inlet;
#X obj 102 218 outlet;
#X obj 36 29 t l b;
#X obj 3 141 f 0;
#X msg 63 86 0;
#X obj 102 191 cyclone/coll;
#C restore;
#X msg 150 133 sort -1 3 \, sort -1 \, renumber \, dump;
#X obj 63 59 vonce;
#X connect 0 0 7 0;
#X connect 1 0 8 0;
#X connect 1 1 3 1;
#X connect 2 0 8 1;
#X connect 3 0 10 0;
#X connect 4 0 10 0;
#X connect 5 0 11 0;
#X connect 5 0 12 1;
#X connect 7 0 1 0;
#X connect 7 1 12 0;
#X connect 8 0 2 0;
#X connect 8 0 3 0;
#X connect 9 0 8 1;
#X connect 10 0 6 0;
#X connect 11 0 10 0;
#X connect 12 0 4 0;
#X connect 12 0 9 0;
