#N canvas 2 23 555 543 10;
#X obj 1 0 cnv 15 552 40 empty \$0-pddp.cnv.header midi-sort-events
3 12 0 18 -204280 -1 0;
#X obj 1 302 cnv 3 550 3 empty \$0-pddp.cnv.inlets inlets 8 12 0 13
-228856 -1 0;
#X obj 1 380 cnv 3 550 3 empty \$0-pddp.cnv.outlets outlets 8 12 0
13 -228856 -1 0;
#X obj 79 311 cnv 17 3 65 empty \$0-pddp.cnv.let.0 0 5 9 0 16 -228856
-162280 0;
#X obj 1 505 cnv 15 552 21 empty \$0-pddp.cnv.footer empty 20 12 0
14 -228856 -66577 0;
#X obj 1 458 cnv 3 550 3 empty \$0-pddp.cnv.argument arguments 8 12
0 13 -228856 -1 0;
#X obj 79 389 cnv 17 3 65 empty \$0-pddp.cnv.let.0 0 5 9 0 16 -228856
-162280 0;
#X obj 135 185 midi-sort-events;
#X obj 228 165 bng 15 250 50 0 empty empty empty 17 7 0 10 -262144
-1 -1;
#X obj 135 208 print;
#X text 2 23 sorts notest-off first in homophonic events.;
#X text 132 103 sorts note-off events first in homophonic events.;
#X msg 135 133 0 64 127 \, 0 64 0 \, 0 63 127 \, 0 48 0 \, 0 52 127
;
#X text 99 310 lists;
#X text 169 310 - lists containing tick \, note and velocity;
#X text 99 390 lists;
#X text 169 390 - ordered lists (notes off first);
#X obj 7 506 pddp/pddplink https://github.com/angelfaraldo/gspd;
#X text 335 506 angelfaraldo@gmail.com \, 2015-2017;
#X connect 7 0 9 0;
#X connect 8 0 7 1;
#X connect 12 0 7 0;
