#N canvas 3 23 555 543 10;
#X obj 1 0 cnv 15 552 40 empty \$0-pddp.cnv.header midi2pc 3 12 0 18
-204280 -1 0;
#X obj 1 302 cnv 3 550 3 empty \$0-pddp.cnv.inlets inlets 8 12 0 13
-228856 -1 0;
#X obj 1 380 cnv 3 550 3 empty \$0-pddp.cnv.outlets outlets 8 12 0
13 -228856 -1 0;
#X obj 79 311 cnv 17 3 65 empty \$0-pddp.cnv.let.0 0 5 9 0 16 -228856
-162280 0;
#X obj 1 505 cnv 15 552 21 empty \$0-pddp.cnv.footer empty 20 12 0
14 -228856 -66577 0;
#X obj 1 458 cnv 3 550 3 empty \$0-pddp.cnv.argument arguments 8 12
0 13 -228856 -1 0;
#X obj 79 389 cnv 17 3 65 empty \$0-pddp.cnv.let.0 0 5 9 0 16 -228856
-162280 0;
#X text 2 23 converts midi notes into pitch classes;
#X obj 203 201 midi2pc;
#X floatatom 213 178 5 0 0 0 - - -, f 5;
#X obj 203 227 print;
#X msg 203 153 60 64 67;
#X text 121 97 Converts lists with midi-note-numbers into their corresponding
pitch class.;
#X text 99 310 list/float;
#X text 169 310 - receives lists or floats with midi note numbers;
#X text 169 388 - returns list/floats of pitch class sets.;
#X text 99 388 list/float;
#X obj 7 506 pddp/pddplink https://github.com/angelfaraldo/gspd;
#X text 335 506 angelfaraldo@gmail.com \, 2015-2017;
#X connect 8 0 10 0;
#X connect 9 0 8 0;
#X connect 11 0 8 0;
