#N canvas 1 23 554 573 10;
#X obj 1 0 cnv 15 552 40 empty \$0-pddp.cnv.header mirrorwall~ 3 12
0 18 -204280 -1 0;
#X obj 1 302 cnv 3 550 3 empty \$0-pddp.cnv.inlets inlets 8 12 0 13
-228856 -1 0;
#X obj 1 380 cnv 3 550 3 empty \$0-pddp.cnv.outlets outlets 8 12 0
13 -228856 -1 0;
#X obj 79 311 cnv 17 3 65 empty \$0-pddp.cnv.let.0 0 5 9 0 16 -228856
-162280 0;
#X obj 1 535 cnv 15 552 21 empty \$0-pddp.cnv.footer empty 20 12 0
14 -228856 -66577 0;
#X obj 1 458 cnv 3 550 3 empty \$0-pddp.cnv.argument arguments 8 12
0 13 -228856 -1 0;
#X obj 79 389 cnv 17 3 65 empty \$0-pddp.cnv.let.0 0 5 9 0 16 -228856
-162280 0;
#X text 186 246 see also:;
#X floatatom 30 56 5 0 0 0 - - -, f 5;
#X text 4 23 keeps numbers within range by folding them backwards;
#X text 186 188 mirrorwall is inspired in one of Xenakis's Dynamic
Stochastic Syntesis methods. When a number passes a threshold it is
mirrored backwards by the same amount.;
#X text 138 138 arguments set the lower and higher limits.;
#X text 89 478 1) float;
#X text 169 478 - lower limit.;
#X text 89 498 2) float;
#X text 169 498 - higher limit.;
#X obj 30 138 mirrorwall~ -1 1;
#X obj 30 85 sig~;
#X floatatom 123 115 5 0 0 0 - - -, f 5;
#X floatatom 76 84 5 0 0 0 - - -, f 5;
#X text 165 115 higher boundary;
#X text 114 84 lower boundary;
#X obj 30 247 snapshot~;
#X obj 51 221 metro 250;
#X obj 51 165 loadbang;
#X floatatom 30 270 5 0 0 0 - - -, f 5;
#X msg 51 186 bang \; pd dsp 1;
#X text 99 310 signal;
#X text 99 388 signal;
#X text 169 388 - audio signal within range.;
#X text 169 310 - an audio signal.;
#X obj 79 333 cnv 17 3 12 empty \$0-pddp.cnv.let.0 1 5 9 0 16 -228856
-162280 0;
#X obj 79 355 cnv 17 3 12 empty \$0-pddp.cnv.let.0 1 5 9 0 16 -228856
-162280 0;
#X text 99 332 float;
#X text 169 332 - lower boundary;
#X text 169 354 - higher boundary;
#X text 99 354 float;
#X obj 246 246 pddp/helplink mirrorwall;
#X obj 7 536 pddp/pddplink https://github.com/angelfaraldo/gspd;
#X text 335 536 angelfaraldo@gmail.com \, 2015-2017;
#X connect 8 0 17 0;
#X connect 16 0 22 0;
#X connect 17 0 16 0;
#X connect 18 0 16 2;
#X connect 19 0 16 1;
#X connect 22 0 25 0;
#X connect 23 0 22 0;
#X connect 24 0 26 0;
#X connect 26 0 23 0;
