#N canvas 405 23 554 532 10;
#X obj 1 0 cnv 15 552 40 empty \$0-pddp.cnv.header pcs-normalorder
3 12 0 18 -204280 -1 0;
#X obj 1 302 cnv 3 550 3 empty \$0-pddp.cnv.inlets inlets 8 12 0 13
-228856 -1 0;
#X obj 1 380 cnv 3 550 3 empty \$0-pddp.cnv.outlets outlets 8 12 0
13 -228856 -1 0;
#X obj 79 311 cnv 17 3 65 empty \$0-pddp.cnv.let.0 0 5 9 0 16 -228856
-162280 0;
#X text 99 310 list;
#X text 169 310 - list that is interpreted as a pitch-class set \,
that is \, a list containing non-duplicate integers in range 0-11.
;
#X obj 69 218 tgl 15 0 pc0 empty empty 17 7 0 10 -262144 -1 -1 0 12
;
#X text 73 199 0;
#N canvas 69 257 574 439 make-set 1;
#X obj 52 26 r pc0;
#X obj 90 26 r pc1;
#X obj 90 50 t b f;
#X obj 52 168 pack 0 0 0 0 0 0 0 0 0 0 0 0;
#X obj 130 50 t b f;
#X obj 130 26 r pc2;
#X obj 170 50 t b f;
#X obj 210 50 t b f;
#X obj 170 26 r pc3;
#X obj 210 26 r pc4;
#X obj 250 50 t b f;
#X obj 290 50 t b f;
#X obj 330 50 t b f;
#X obj 370 50 t b f;
#X obj 250 26 r pc5;
#X obj 290 26 r pc6;
#X obj 330 26 r pc7;
#X obj 370 26 r pc8;
#X obj 410 50 t b f;
#X obj 450 50 t b f;
#X obj 500 50 t b f;
#X obj 410 26 r pc9;
#X obj 450 26 r pc10;
#X obj 500 26 r pc11;
#X obj 115 363 list;
#X obj 13 303 f 0;
#X obj 43 303 + 1;
#X obj 13 326 sel 11;
#X msg 28 239 0;
#X obj 52 189 t l b, f 6;
#X obj 115 384 outlet;
#X obj 70 249 t b f;
#X obj 136 294 mod 12;
#X obj 97 272 moses 1;
#X obj 70 228 vdrip;
#X obj 136 316 add2list prepend;
#X connect 0 0 3 0;
#X connect 1 0 2 0;
#X connect 2 0 3 0;
#X connect 2 1 3 1;
#X connect 3 0 29 0;
#X connect 4 0 3 0;
#X connect 4 1 3 2;
#X connect 5 0 4 0;
#X connect 6 0 3 0;
#X connect 6 1 3 3;
#X connect 7 0 3 0;
#X connect 7 1 3 4;
#X connect 8 0 6 0;
#X connect 9 0 7 0;
#X connect 10 0 3 0;
#X connect 10 1 3 5;
#X connect 11 0 3 0;
#X connect 11 1 3 6;
#X connect 12 0 3 0;
#X connect 12 1 3 7;
#X connect 13 0 3 0;
#X connect 13 1 3 8;
#X connect 14 0 10 0;
#X connect 15 0 11 0;
#X connect 16 0 12 0;
#X connect 17 0 13 0;
#X connect 18 0 3 0;
#X connect 18 1 3 9;
#X connect 19 0 3 0;
#X connect 19 1 3 10;
#X connect 20 0 3 0;
#X connect 20 1 3 11;
#X connect 21 0 18 0;
#X connect 22 0 19 0;
#X connect 23 0 20 0;
#X connect 24 0 30 0;
#X connect 25 0 27 0;
#X connect 25 0 26 0;
#X connect 26 0 25 1;
#X connect 27 0 24 0;
#X connect 28 0 25 1;
#X connect 29 0 34 0;
#X connect 29 1 28 0;
#X connect 29 1 35 1;
#X connect 31 0 25 0;
#X connect 31 1 33 0;
#X connect 32 0 35 0;
#X connect 33 1 32 0;
#X connect 34 0 31 0;
#X connect 35 0 24 1;
#X restore 356 179 pd make-set;
#X obj 89 218 tgl 15 0 pc1 empty empty 17 7 0 10 -262144 -1 -1 0 1
;
#X text 92 199 1;
#X obj 109 218 tgl 15 0 pc2 empty empty 17 7 0 10 -262144 -1 -1 0 2
;
#X obj 129 218 tgl 15 0 pc3 empty empty 17 7 0 10 -262144 -1 -1 0 3
;
#X text 113 199 2;
#X text 132 199 3;
#X obj 149 218 tgl 15 0 pc4 empty empty 17 7 0 10 -262144 -1 -1 0 4
;
#X obj 169 218 tgl 15 0 pc5 empty empty 17 7 0 10 -262144 -1 -1 0 5
;
#X obj 189 218 tgl 15 0 pc6 empty empty 17 7 0 10 -262144 -1 -1 0 6
;
#X obj 209 218 tgl 15 0 pc7 empty empty 17 7 0 10 -262144 -1 -1 0 7
;
#X text 153 199 4;
#X text 172 199 5;
#X text 193 199 6;
#X text 212 199 7;
#X obj 229 218 tgl 15 0 pc8 empty empty 17 7 0 10 -262144 -1 -1 0 8
;
#X obj 249 218 tgl 15 0 pc9 empty empty 17 7 0 10 -262144 -1 -1 0 9
;
#X obj 269 218 tgl 15 0 pc10 empty empty 17 7 0 10 -262144 -1 -1 0
10;
#X obj 289 218 tgl 15 0 pc11 empty empty 17 7 0 10 -262144 -1 -1 0
11;
#X text 233 199 8;
#X text 252 199 9;
#X text 269 199 10;
#X text 290 199 11;
#X obj 356 230 print normal-order;
#X text 99 388 list;
#X text 92 120 You might want to have a look to Forte's "The Structure
of Atonal Music" (Yale University Press \, 1973).;
#X text 65 177 TYPE IN A PITCH-CLASS SET:;
#X text 169 388 - prime form version of the incoming pitch-class set.
;
#X text 90 68 Converts a pitch-class set to its so-called "normal order"
\, that is \, an ordered list with minimized distance between the extreme
elements.;
#X text 2 23 finds the normal order of a pitch-class set;
#X obj 1 505 cnv 15 552 21 empty \$0-pddp.cnv.footer empty 20 12 0
14 -228856 -66577 0;
#X obj 1 458 cnv 3 550 3 empty \$0-pddp.cnv.argument arguments 8 12
0 13 -228856 -1 0;
#X obj 79 389 cnv 17 3 65 empty \$0-pddp.cnv.let.0 0 5 9 0 16 -228856
-162280 0;
#X obj 356 205 pcs-normalorder;
#X obj 7 506 pddp/pddplink https://github.com/angelfaraldo/gspd;
#X text 335 506 angelfaraldo@gmail.com \, 2015-2017;
#X connect 8 0 41 0;
#X connect 41 0 31 0;
