#N canvas 36 23 591 751 10;
#X obj 55 15 inlet;
#X obj 164 285 list split 1;
#X obj 64 320 list split;
#X obj 121 346 -;
#X obj 55 38 t l b;
#X msg 256 636 clear;
#X obj 213 476 list append;
#X obj 201 395 f 0;
#X obj 231 395 + 1;
#X msg 216 374 0;
#X obj 121 443 list prepend;
#X obj 121 368 t f b;
#X msg 166 594 sort -1 1 \, renumber \, 0;
#X obj 240 682 list split 1;
#X obj 166 552 ==;
#X obj 201 417 t f f;
#X obj 166 573 sel 1;
#X obj 186 525 f;
#X obj 213 498 t b l;
#X obj 47 192 list;
#X obj 164 215 list split 1;
#X obj 164 237 + 12;
#X obj 164 260 list prepend;
#X obj 55 108 list length;
#X obj 47 149 until;
#X obj 121 298 t f f;
#X obj 55 128 t f f;
#X obj 121 277 - 1;
#X obj 126 61 s \$0-reset;
#X obj 240 238 r \$0-reset;
#X obj 256 616 r \$0-reset;
#X obj 216 353 r \$0-reset;
#X obj 55 81 t l l l;
#X obj 274 705 outlet;
#X obj 47 223 t l l l l;
#X obj 351 184 list split 1;
#X obj 351 229 list prepend;
#X obj 427 207 r \$0-reset;
#X obj 312 214 list;
#X obj 47 170 t b b;
#X text 94 14 (we assume pc-sets with no duplicates);
#X obj 55 61 zexy/sort;
#X obj 240 660 cyclone/coll;
#C restore;
#X connect 0 0 4 0;
#X connect 1 0 3 1;
#X connect 2 1 3 0;
#X connect 3 0 11 0;
#X connect 4 0 41 0;
#X connect 4 1 28 0;
#X connect 5 0 42 0;
#X connect 6 0 18 0;
#X connect 7 0 8 0;
#X connect 7 0 15 0;
#X connect 8 0 7 1;
#X connect 9 0 7 1;
#X connect 10 0 6 0;
#X connect 11 0 10 0;
#X connect 11 1 7 0;
#X connect 12 0 42 0;
#X connect 13 1 33 0;
#X connect 14 0 16 0;
#X connect 15 0 17 1;
#X connect 15 1 10 1;
#X connect 16 0 12 0;
#X connect 17 0 14 0;
#X connect 18 0 17 0;
#X connect 18 1 42 0;
#X connect 19 0 34 0;
#X connect 20 0 21 0;
#X connect 20 1 22 1;
#X connect 21 0 22 0;
#X connect 22 0 19 1;
#X connect 23 0 26 0;
#X connect 24 0 39 0;
#X connect 25 0 2 1;
#X connect 25 1 14 1;
#X connect 26 0 24 0;
#X connect 26 1 27 0;
#X connect 27 0 25 0;
#X connect 29 0 22 1;
#X connect 30 0 5 0;
#X connect 31 0 9 0;
#X connect 32 0 23 0;
#X connect 32 1 19 1;
#X connect 32 2 38 1;
#X connect 34 0 20 0;
#X connect 34 1 2 0;
#X connect 34 2 1 0;
#X connect 35 0 36 0;
#X connect 35 1 36 1;
#X connect 36 0 38 1;
#X connect 37 0 36 1;
#X connect 38 0 6 1;
#X connect 38 0 35 0;
#X connect 39 0 19 0;
#X connect 39 1 38 0;
#X connect 41 0 32 0;
#X connect 42 0 13 0;
