#N canvas 2 23 554 543 10;
#X obj 1 0 cnv 15 552 40 empty \$0-pddp.cnv.header pcs-order 3 12 0
18 -204280 -1 0;
#X obj 1 302 cnv 3 550 3 empty \$0-pddp.cnv.inlets inlets 8 12 0 13
-228856 -1 0;
#X obj 1 380 cnv 3 550 3 empty \$0-pddp.cnv.outlets outlets 8 12 0
13 -228856 -1 0;
#X obj 79 311 cnv 17 3 65 empty \$0-pddp.cnv.let.0 0 5 9 0 16 -228856
-162280 0;
#X text 99 310 list;
#X text 169 310 - list that is interpreted as a pitch-class set \,
that is \, a list containing non-duplicate integers in range 0-11.
;
#X text 99 388 list;
#X text 99 112 You might want to have a look to Forte's "The Structure
of Atonal Music" (Yale University Press \, 1973).;
#X text 2 23 orders a pitch-class set from low to high;
#X obj 167 236 pcs-order;
#X obj 167 261 print order;
#X msg 167 172 9 2 3;
#X msg 177 196 11 0 8 2;
#X text 286 211 see also:;
#X text 169 388 - ordered (increasing) version of the incoming pitch-class
set.;
#X text 98 72 Orders a pitch-class set \, or more generally \, any
incoming list \, from low to high.;
#X obj 1 505 cnv 15 552 21 empty \$0-pddp.cnv.footer empty 20 12 0
14 -228856 -66577 0;
#X obj 1 458 cnv 3 550 3 empty \$0-pddp.cnv.argument arguments 8 12
0 13 -228856 -1 0;
#X obj 79 389 cnv 17 3 65 empty \$0-pddp.cnv.let.0 0 5 9 0 16 -228856
-162280 0;
#X obj 350 211 pddp/helplink zexy/sort;
#X obj 7 506 pddp/pddplink https://github.com/angelfaraldo/gspd;
#X text 335 506 angelfaraldo@gmail.com \, 2015-2017;
#X connect 9 0 10 0;
#X connect 11 0 9 0;
#X connect 12 0 9 0;
