#N canvas 457 39 372 445 10;
#X obj 68 20 inlet;
#X obj 237 364 outlet;
#X obj 130 239 != 0;
#X msg 152 156 100;
#X obj 103 195 -;
#X obj 258 316 add2list;
#X obj 103 218 t f f;
#X obj 85 263 spigot 1;
#X obj 85 157 t f f f;
#X obj 179 268 list length;
#X obj 68 42 t l l b;
#X obj 237 342 list;
#X obj 55 166 + 1;
#X obj 38 114 t b f;
#X msg 78 115 1;
#X obj 25 166 f 1;
#X obj 25 299 ==;
#X obj 25 323 sel 1;
#X obj 38 71 zexy/sort;
#X obj 38 92 vdrip;
#X connect 0 0 10 0;
#X connect 2 0 7 1;
#X connect 3 0 4 1;
#X connect 4 0 6 0;
#X connect 5 0 11 1;
#X connect 6 1 2 0;
#X connect 7 0 5 0;
#X connect 8 0 7 0;
#X connect 8 1 4 1;
#X connect 8 2 4 0;
#X connect 9 0 16 1;
#X connect 10 0 18 0;
#X connect 10 1 9 0;
#X connect 10 2 3 0;
#X connect 10 2 5 1;
#X connect 10 2 14 0;
#X connect 11 0 1 0;
#X connect 12 0 15 1;
#X connect 13 0 15 0;
#X connect 13 1 8 0;
#X connect 14 0 15 1;
#X connect 15 0 12 0;
#X connect 15 0 16 0;
#X connect 16 0 17 0;
#X connect 17 0 11 0;
#X connect 18 0 19 0;
#X connect 19 0 13 0;
