#N canvas 238 34 654 572 10;
#X obj 17 51 tgl 15 0 pc0 empty empty 17 7 0 10 -262144 -1 -1 0 12
;
#X text 21 32 0;
#N canvas 69 257 590 446 make-set 1;
#X obj 57 26 r pc0;
#X obj 95 26 r pc1;
#X obj 95 50 t b f;
#X obj 57 168 pack 0 0 0 0 0 0 0 0 0 0 0 0;
#X obj 135 50 t b f;
#X obj 135 26 r pc2;
#X obj 175 50 t b f;
#X obj 215 50 t b f;
#X obj 175 26 r pc3;
#X obj 215 26 r pc4;
#X obj 255 50 t b f;
#X obj 295 50 t b f;
#X obj 335 50 t b f;
#X obj 375 50 t b f;
#X obj 255 26 r pc5;
#X obj 295 26 r pc6;
#X obj 335 26 r pc7;
#X obj 375 26 r pc8;
#X obj 415 50 t b f;
#X obj 455 50 t b f;
#X obj 505 50 t b f;
#X obj 415 26 r pc9;
#X obj 455 26 r pc10;
#X obj 505 26 r pc11;
#X obj 120 363 list;
#X obj 18 303 f 0;
#X obj 48 303 + 1;
#X obj 18 326 sel 11;
#X msg 33 239 0;
#X obj 57 189 t l b;
#X obj 120 384 outlet;
#X obj 75 249 t b f;
#X obj 141 294 mod 12;
#X obj 102 272 moses 1;
#X obj 141 316 add2list prepend;
#X obj 75 228 vdrip;
#X connect 0 0 3 0;
#X connect 1 0 2 0;
#X connect 2 0 3 0;
#X connect 2 1 3 1;
#X connect 3 0 29 0;
#X connect 4 0 3 0;
#X connect 4 1 3 2;
#X connect 5 0 4 0;
#X connect 6 0 3 0;
#X connect 6 1 3 3;
#X connect 7 0 3 0;
#X connect 7 1 3 4;
#X connect 8 0 6 0;
#X connect 9 0 7 0;
#X connect 10 0 3 0;
#X connect 10 1 3 5;
#X connect 11 0 3 0;
#X connect 11 1 3 6;
#X connect 12 0 3 0;
#X connect 12 1 3 7;
#X connect 13 0 3 0;
#X connect 13 1 3 8;
#X connect 14 0 10 0;
#X connect 15 0 11 0;
#X connect 16 0 12 0;
#X connect 17 0 13 0;
#X connect 18 0 3 0;
#X connect 18 1 3 9;
#X connect 19 0 3 0;
#X connect 19 1 3 10;
#X connect 20 0 3 0;
#X connect 20 1 3 11;
#X connect 21 0 18 0;
#X connect 22 0 19 0;
#X connect 23 0 20 0;
#X connect 24 0 30 0;
#X connect 25 0 27 0;
#X connect 25 0 26 0;
#X connect 26 0 25 1;
#X connect 27 0 24 0;
#X connect 28 0 25 1;
#X connect 29 0 35 0;
#X connect 29 1 28 0;
#X connect 29 1 34 1;
#X connect 31 0 25 0;
#X connect 31 1 33 0;
#X connect 32 0 34 0;
#X connect 33 1 32 0;
#X connect 34 0 24 1;
#X connect 35 0 31 0;
#X restore 45 131 pd make-set;
#X obj 37 51 tgl 15 0 pc1 empty empty 17 7 0 10 -262144 -1 -1 0 1;
#X text 40 32 1;
#X obj 57 51 tgl 15 0 pc2 empty empty 17 7 0 10 -262144 -1 -1 0 2;
#X obj 77 51 tgl 15 0 pc3 empty empty 17 7 0 10 -262144 -1 -1 0 3;
#X text 61 32 2;
#X text 80 32 3;
#X obj 97 51 tgl 15 0 pc4 empty empty 17 7 0 10 -262144 -1 -1 0 4;
#X obj 117 51 tgl 15 0 pc5 empty empty 17 7 0 10 -262144 -1 -1 0 5
;
#X obj 137 51 tgl 15 0 pc6 empty empty 17 7 0 10 -262144 -1 -1 0 6
;
#X obj 157 51 tgl 15 0 pc7 empty empty 17 7 0 10 -262144 -1 -1 0 7
;
#X text 101 32 4;
#X text 120 32 5;
#X text 141 32 6;
#X text 160 32 7;
#X obj 177 51 tgl 15 0 pc8 empty empty 17 7 0 10 -262144 -1 -1 0 8
;
#X obj 197 51 tgl 15 0 pc9 empty empty 17 7 0 10 -262144 -1 -1 0 9
;
#X obj 217 51 tgl 15 0 pc10 empty empty 17 7 0 10 -262144 -1 -1 0 10
;
#X obj 237 51 tgl 15 0 pc11 empty empty 17 7 0 10 -262144 -1 -1 0 11
;
#X text 181 32 8;
#X text 200 32 9;
#X text 217 32 10;
#X text 238 32 11;
#X text 14 8 TYPE IN A PITCH-CLASS SET:;
#X floatatom 45 175 5 0 0 0 - - -, f 5;
#X obj 45 219 gui-prnt;
#X obj 45 195 int2pcs;
#X obj 45 154 pcs2int;
#X connect 2 0 29 0;
#X connect 26 0 28 0;
#X connect 28 0 27 0;
#X connect 29 0 26 0;
