#N canvas 1073 346 516 665 10;
#X obj 23 355 random 1000;
#X obj 115 193 loadbang;
#X obj 108 241 sel 0;
#X obj 86 334 + 1;
#X obj 147 628 outlet;
#X obj 23 171 inlet;
#X msg 86 289 1 \$1;
#X obj 86 310 /;
#X obj 96 384 * 0.001;
#X text 18 34 Random number generator in range 0-1.;
#X obj 108 172 inlet;
#X obj 135 262 moses 1;
#X obj 174 306 print ERROR;
#X msg 174 284 a.rand step-size must be in range (0 < value <= 0.5)
;
#X text 18 14 BILINEAR EXPONENTIAL DISTRIBUTION;
#X text 18 144 angelfaraldo@gmail.com \, 2014;
#X text 18 104 Taken from Dodge and Jerse: "Computer Music \, Synthesis
\, Composition and Performance.";
#X text 18 84 <arg2/3rd inlet>: random step-size. Default = 0.001;
#X obj 96 407 * 2;
#X obj 86 431 sel 0 2;
#X obj 125 453 moses 1;
#X obj 162 542 log;
#X obj 63 171 inlet;
#X obj 63 241 s \$0-l;
#X obj 162 584 r \$0-l;
#X obj 63 220 \$1;
#X obj 108 220 \$2;
#X obj 147 606 / 1;
#X text 18 54 <arg1/2nd inlet>: lambda (spread of the distribution).
Default = 1;
#X msg 191 496 2 \$1;
#X obj 191 518 -;
#X obj 164 475 t b f;
#X msg 164 496 -1;
#X obj 125 475 t b f;
#X obj 147 564 *;
#X msg 125 496 1;
#X connect 0 0 8 0;
#X connect 1 0 26 0;
#X connect 1 0 25 0;
#X connect 2 1 11 0;
#X connect 3 0 0 1;
#X connect 5 0 0 0;
#X connect 6 0 7 0;
#X connect 7 0 3 0;
#X connect 8 0 18 0;
#X connect 10 0 26 0;
#X connect 11 0 6 0;
#X connect 11 0 8 1;
#X connect 11 1 13 0;
#X connect 13 0 12 0;
#X connect 18 0 19 0;
#X connect 19 0 0 0;
#X connect 19 1 0 0;
#X connect 19 2 20 0;
#X connect 20 0 33 0;
#X connect 20 1 31 0;
#X connect 21 0 34 1;
#X connect 22 0 25 0;
#X connect 24 0 27 1;
#X connect 25 0 23 0;
#X connect 26 0 2 0;
#X connect 27 0 4 0;
#X connect 29 0 30 0;
#X connect 30 0 21 0;
#X connect 31 0 32 0;
#X connect 31 1 29 0;
#X connect 32 0 34 0;
#X connect 33 0 35 0;
#X connect 33 1 21 0;
#X connect 34 0 27 0;
#X connect 35 0 34 0;
