#N canvas 582 329 398 557 10;
#X obj 71 173 loadbang;
#X obj 147 518 outlet;
#X obj 23 151 inlet;
#X text 18 34 Random number generator in range 0-1.;
#X text 18 14 BILINEAR EXPONENTIAL DISTRIBUTION;
#X text 18 124 angelfaraldo@gmail.com \, 2014;
#X text 18 84 Taken from Dodge and Jerse: "Computer Music \, Synthesis
\, Composition and Performance.";
#X obj 96 297 * 2;
#X obj 86 321 sel 0 2;
#X obj 125 343 moses 1;
#X obj 162 432 log;
#X obj 63 151 inlet;
#X obj 63 221 s \$0-l;
#X obj 168 474 r \$0-l;
#X obj 63 200 \$1;
#X msg 191 386 2 \$1;
#X obj 191 408 -;
#X obj 164 365 t b f;
#X msg 164 386 -1;
#X obj 125 365 t b f;
#X obj 147 454 *;
#X msg 125 386 1;
#X obj 23 245 random 1e+06;
#X obj 96 274 * 1e-06;
#X text 18 54 <arg1/2nd inlet>: lambda (spread of the distribution).
Default = 10;
#X obj 147 496 / 10;
#X connect 0 0 14 0;
#X connect 2 0 22 0;
#X connect 7 0 8 0;
#X connect 8 0 22 0;
#X connect 8 1 22 0;
#X connect 8 2 9 0;
#X connect 9 0 19 0;
#X connect 9 1 17 0;
#X connect 10 0 20 1;
#X connect 11 0 14 0;
#X connect 13 0 25 1;
#X connect 14 0 12 0;
#X connect 15 0 16 0;
#X connect 16 0 10 0;
#X connect 17 0 18 0;
#X connect 17 1 15 0;
#X connect 18 0 20 0;
#X connect 19 0 21 0;
#X connect 19 1 10 0;
#X connect 20 0 25 0;
#X connect 21 0 20 0;
#X connect 22 0 23 0;
#X connect 23 0 7 0;
#X connect 25 0 1 0;
