#N canvas 527 23 555 544 10;
#X obj 1 0 cnv 15 552 40 empty \$0-pddp.cnv.header selectboth 3 12
0 18 -204280 -1 0;
#X obj 1 302 cnv 3 550 3 empty \$0-pddp.cnv.inlets inlets 8 12 0 13
-228856 -1 0;
#X obj 1 380 cnv 3 550 3 empty \$0-pddp.cnv.outlets outlets 8 12 0
13 -228856 -1 0;
#X obj 79 311 cnv 17 3 65 empty \$0-pddp.cnv.let.0 0 5 9 0 16 -228856
-162280 0;
#X text 314 114 see also:;
#X msg 113 108 10 11;
#X msg 123 128 10 11;
#X text 99 310 list;
#X text 169 310 - two-element list.;
#X obj 1 505 cnv 15 552 21 empty \$0-pddp.cnv.footer empty 20 12 0
14 -228856 -66577 0;
#X obj 1 458 cnv 3 550 3 empty \$0-pddp.cnv.argument arguments 8 12
0 13 -228856 -1 0;
#X obj 79 389 cnv 17 3 65 empty \$0-pddp.cnv.let.0 0 5 9 0 16 -228856
-162280 0;
#X msg 103 88 1;
#X obj 196 225 print no-match;
#X msg 133 148 2 12;
#X obj 103 225 print match!;
#X msg 143 168 1 12;
#X text 99 388 bang;
#X text 169 388 - bang when list matches.;
#X obj 79 419 cnv 17 3 12 empty \$0-pddp.cnv.let.0 1 5 9 0 16 -228856
-162280 0;
#X text 99 418 list;
#X text 169 418 - outputs list if there is not a match.;
#X text 159 471 - two-element list.;
#X text 89 470 1 \, 2);
#X text 2 23 outputs bang when incoming duple matches;
#X obj 315 128 pddp/helplink select;
#X obj 7 506 pddp/pddplink https://github.com/angelfaraldo/gspd;
#X text 335 506 angelfaraldo@gmail.com \, 2015-2017;
#X obj 103 198 selectboth 1 12;
#X obj 315 157 pddp/helplink changeany;
#X obj 315 142 pddp/helplink changefirst;
#X connect 5 0 28 0;
#X connect 6 0 28 0;
#X connect 12 0 28 0;
#X connect 14 0 28 0;
#X connect 16 0 28 0;
#X connect 28 0 15 0;
#X connect 28 1 13 0;
