#N canvas 1 23 554 555 10;
#X obj 1 0 cnv 15 552 40 empty \$0-pddp.cnv.header tabreadb 3 12 0
18 -204280 -1 0;
#X obj 1 302 cnv 3 550 3 empty \$0-pddp.cnv.inlets inlets 8 12 0 13
-228856 -1 0;
#X obj 1 380 cnv 3 550 3 empty \$0-pddp.cnv.outlets outlets 8 12 0
13 -228856 -1 0;
#X obj 79 311 cnv 17 3 65 empty \$0-pddp.cnv.let.0 0 5 9 0 16 -228856
-162280 0;
#X obj 1 515 cnv 15 552 21 empty \$0-pddp.cnv.footer empty 20 12 0
14 -228856 -66577 0;
#X obj 1 458 cnv 3 550 3 empty \$0-pddp.cnv.argument arguments 8 12
0 13 -228856 -1 0;
#X obj 79 389 cnv 17 3 65 empty \$0-pddp.cnv.let.0 0 5 9 0 16 -228856
-162280 0;
#X text 99 310 float;
#N canvas 0 22 450 300 (subpatch) 0;
#X array table 12 float 1;
#A 0 0.0898095 0.146953 0.232668 0.304097 0.432669 0.532669 0.618384
0.718385 0.8041 0.875529 0.946958 0.961244;
#X coords 0 1 11 0 100 70 2 0 0;
#X restore 251 143 graph;
#X text 4 23 reads a table backwards with negative indexes.;
#X text 87 82 reads a table backwards with negative indexes (minus
one is last element) and outputs zeroes when out of range.;
#X text 249 237 see also:;
#X floatatom 122 191 5 0 0 0 - - -, f 5;
#X floatatom 122 144 5 0 0 0 - - -, f 5;
#X obj 122 168 tabreadb table;
#X text 161 143 x;
#X text 163 191 y;
#X text 99 388 float;
#X text 89 478 symbol;
#X text 169 478 - table to read from.;
#X text 169 388 - output (zero when index is out of range);
#X text 169 310 - indexes (negatives read backwards).;
#X obj 308 237 pddp/helplink tabread;
#X obj 7 516 pddp/pddplink https://github.com/angelfaraldo/gspd;
#X text 335 516 angelfaraldo@gmail.com \, 2015-2017;
#X connect 13 0 14 0;
#X connect 14 0 12 0;
