#N canvas 0 22 392 351 10;
#X obj 15 79 list length;
#X obj 118 292 f 0;
#X obj 148 292 + 1;
#X obj 35 292 list split 1;
#X obj 15 206 until;
#X obj 35 269 list;
#X obj 15 231 t b b;
#X obj 75 49 t l l b;
#X msg 114 144 0;
#X obj 75 7 inlet;
#X obj 35 319 tabwrite \$1;
#X obj 42 165 s \$1;
#X msg 42 143 resize \$1;
#X obj 15 100 t f f;
#X obj 75 29 route list;
#X obj 132 74 print tabsetv;
#X msg 132 51 error: input is not a list;
#X obj 42 122 spigot \$2;
#X connect 0 0 13 0;
#X connect 1 0 2 0;
#X connect 1 0 10 1;
#X connect 2 0 1 1;
#X connect 3 0 10 0;
#X connect 3 1 5 1;
#X connect 4 0 6 0;
#X connect 5 0 3 0;
#X connect 6 0 5 0;
#X connect 6 1 1 0;
#X connect 7 0 0 0;
#X connect 7 1 5 1;
#X connect 7 2 8 0;
#X connect 8 0 1 1;
#X connect 9 0 14 0;
#X connect 12 0 11 0;
#X connect 13 0 4 0;
#X connect 13 1 17 0;
#X connect 14 0 7 0;
#X connect 14 1 16 0;
#X connect 16 0 15 0;
#X connect 17 0 12 0;
