#N canvas 383 181 450 300 10;
#X obj 117 52 r grid_length;
#X obj 69 29 r grid_thickness_strong;
#X obj 58 99 r grid_spacing;
#X obj 23 29 inlet;
#X obj 23 142 outlet;
#X obj 23 76 rectangle 0.05 3;
#X obj 23 119 translateXYZ 1.2 0 0;
#X connect 0 0 5 2;
#X connect 1 0 5 1;
#X connect 2 0 6 1;
#X connect 3 0 5 0;
#X connect 5 0 6 0;
#X connect 6 0 4 0;
