#N canvas 1 366 568 433 10;
#X obj 67 98 * 0.5;
#X obj -75 98 * 1.2;
#X obj 67 120 * 1.2;
#X obj -75 122 - 19.5;
#X obj -118 209 translateXYZ -19.5 0 0;
#X obj -118 350 rectangle 1 2;
#X obj -118 327 alpha 0;
#X obj -118 246 translateXYZ 0.75 -1 0;
#X obj 164 128 gemhead 52;
#X obj 67 8 loadbang;
#X obj 30 355 rectangle 1 2;
#X msg 88 325 draw line;
#X obj 88 304 loadbang;
#X obj 30 304 alpha 0;
#X obj 310 281 loadbang;
#X obj 164 368 text2d C;
#X obj 164 237 translateXYZ 0 1.7 0;
#X obj -118 303 color 0.3 0.3 0.3 0.9;
#X obj 30 282 color 0.5 0.5 0.5 1;
#X text 40 50 dur;
#X text -40 70 pos;
#X obj 203 194 -;
#X obj 203 215 * -1;
#X obj 67 52 f 1;
#X obj -75 72 f -10;
#X obj 67 75 clip 0 32;
#X obj -21 -18 r master-chord-fill-\$1;
#X obj -21 6 unpack s f f;
#X obj 164 257 color 1 1 1;
#X msg 203 172 \$1 0.2;
#X msg 173 330 alias 1 \, justify left top;
#X msg 334 332 14;
#X connect 0 0 2 0;
#X connect 1 0 3 0;
#X connect 2 0 5 1;
#X connect 2 0 7 1;
#X connect 2 0 10 1;
#X connect 2 0 29 0;
#X connect 3 0 4 1;
#X connect 4 0 7 0;
#X connect 6 0 5 0;
#X connect 7 0 17 0;
#X connect 7 0 18 0;
#X connect 8 0 4 0;
#X connect 8 0 16 0;
#X connect 9 0 23 0;
#X connect 9 0 24 0;
#X connect 11 0 10 0;
#X connect 12 0 11 0;
#X connect 13 0 10 0;
#X connect 14 0 30 0;
#X connect 14 0 31 0;
#X connect 16 0 28 0;
#X connect 17 0 6 0;
#X connect 18 0 13 0;
#X connect 21 0 22 0;
#X connect 22 0 16 1;
#X connect 23 0 25 0;
#X connect 24 0 1 0;
#X connect 25 0 0 0;
#X connect 26 0 27 0;
#X connect 27 0 15 0;
#X connect 27 1 24 0;
#X connect 27 2 23 0;
#X connect 28 0 15 0;
#X connect 29 0 21 0;
#X connect 30 0 15 0;
#X connect 31 0 15 1;
