#N canvas 377 366 645 468 10;
#X obj 208 140 * 0.5;
#X obj 208 118 clip 1 32;
#X obj 66 140 * 1.2;
#X obj 208 162 * 1.2;
#X obj 66 164 - 19.5;
#X obj 23 251 translateXYZ -19.5 0 0;
#X obj 23 369 alpha 0;
#X obj 208 30 loadbang;
#X msg 229 367 draw line;
#X obj 229 346 loadbang;
#X floatatom 66 75 5 0 0 0 - - -, f 5;
#X obj 171 346 alpha 0;
#X obj 414 331 loadbang;
#X msg 414 373 alias 1 \, justify left top;
#X floatatom 217 51 5 0 0 0 - - -, f 5;
#X text 181 92 dur;
#X text 110 92 pos;
#X obj 384 266 -;
#X obj 384 287 * -1;
#X obj 23 288 translateXYZ 0.75 -2 0;
#X obj 345 170 gemhead 53;
#X obj 23 345 color 0.4 0.4 0.4 0.92;
#X obj 23 392 rectangle 1 1;
#X obj 171 397 rectangle 1 1;
#X obj 334 332 color 1 1 1;
#X msg 581 373 10;
#X obj 75 114 f 100;
#X obj 208 94 f 1;
#X obj 345 309 translateXYZ 0 0.7 0;
#X msg 384 244 \$1 0.15;
#X obj 445 244 r slave-chord-name-\$1;
#X obj 226 72 r slave-chord-dur-\$1;
#X obj 75 36 r slave-chord-pos-\$1;
#X obj 345 410 text2d;
#X obj 353 373 symbol;
#X obj 171 324 color 0.9 0.9 0.9 1;
#X connect 0 0 3 0;
#X connect 1 0 0 0;
#X connect 2 0 4 0;
#X connect 3 0 29 0;
#X connect 3 0 19 1;
#X connect 3 0 22 1;
#X connect 3 0 23 1;
#X connect 4 0 5 1;
#X connect 5 0 19 0;
#X connect 6 0 22 0;
#X connect 7 0 26 0;
#X connect 7 0 27 0;
#X connect 8 0 23 0;
#X connect 9 0 8 0;
#X connect 10 0 2 0;
#X connect 11 0 23 0;
#X connect 12 0 13 0;
#X connect 12 0 25 0;
#X connect 12 0 34 0;
#X connect 13 0 33 0;
#X connect 14 0 27 0;
#X connect 17 0 18 0;
#X connect 18 0 28 1;
#X connect 19 0 21 0;
#X connect 19 0 35 0;
#X connect 20 0 5 0;
#X connect 20 0 28 0;
#X connect 21 0 6 0;
#X connect 24 0 33 0;
#X connect 25 0 33 1;
#X connect 26 0 2 0;
#X connect 27 0 1 0;
#X connect 28 0 24 0;
#X connect 29 0 17 0;
#X connect 31 0 27 0;
#X connect 32 0 26 0;
#X connect 34 0 33 0;
#X connect 35 0 11 0;
